<?xml version="1.0" encoding="utf-8" standalone="no"?>
<!DOCTYPE svg PUBLIC "-//W3C//DTD SVG 1.1//EN"
  "http://www.w3.org/Graphics/SVG/1.1/DTD/svg11.dtd">
<svg xmlns:xlink="http://www.w3.org/1999/xlink" width="460.8pt" height="345.6pt" viewBox="0 0 460.8 345.6" xmlns="http://www.w3.org/2000/svg" version="1.1">
 <metadata>
  <rdf:RDF xmlns:dc="http://purl.org/dc/elements/1.1/" xmlns:cc="http://creativecommons.org/ns#" xmlns:rdf="http://www.w3.org/1999/02/22-rdf-syntax-ns#">
   <cc:Work>
    <dc:type rdf:resource="http://purl.org/dc/dcmitype/StillImage"/>
    <dc:date>2023-09-06T10:38:24.699066</dc:date>
    <dc:format>image/svg+xml</dc:format>
    <dc:creator>
     <cc:Agent>
      <dc:title>Matplotlib v3.7.2, https://matplotlib.org/</dc:title>
     </cc:Agent>
    </dc:creator>
   </cc:Work>
  </rdf:RDF>
 </metadata>
 <defs>
  <style type="text/css">*{stroke-linejoin: round; stroke-linecap: butt}</style>
 </defs>
 <g id="figure_1">
  <g id="patch_1">
   <path d="M 0 345.6 
L 460.8 345.6 
L 460.8 0 
L 0 0 
z
" style="fill: #ffffff"/>
  </g>
  <g id="axes_1">
   <g id="patch_2">
    <path d="M 57.6 307.584 
L 414.72 307.584 
L 414.72 41.472 
L 57.6 41.472 
z
" style="fill: #eaeaf2"/>
   </g>
   <g id="matplotlib.axis_1">
    <g id="xtick_1">
     <g id="line2d_1">
      <path d="M 73.767783 307.584 
L 73.767783 41.472 
" clip-path="url(#pd86f9711c8)" style="fill: none; stroke: #ffffff; stroke-width: 0.8; stroke-linecap: round"/>
     </g>
     <g id="text_1">
      <!-- 0 -->
      <g style="fill: #262626" transform="translate(70.586533 322.182437) scale(0.1 -0.1)">
       <defs>
        <path id="DejaVuSans-30" d="M 2034 4250 
Q 1547 4250 1301 3770 
Q 1056 3291 1056 2328 
Q 1056 1369 1301 889 
Q 1547 409 2034 409 
Q 2525 409 2770 889 
Q 3016 1369 3016 2328 
Q 3016 3291 2770 3770 
Q 2525 4250 2034 4250 
z
M 2034 4750 
Q 2819 4750 3233 4129 
Q 3647 3509 3647 2328 
Q 3647 1150 3233 529 
Q 2819 -91 2034 -91 
Q 1250 -91 836 529 
Q 422 1150 422 2328 
Q 422 3509 836 4129 
Q 1250 4750 2034 4750 
z
" transform="scale(0.015625)"/>
       </defs>
       <use xlink:href="#DejaVuSans-30"/>
      </g>
     </g>
    </g>
    <g id="xtick_2">
     <g id="line2d_2">
      <path d="M 138.711681 307.584 
L 138.711681 41.472 
" clip-path="url(#pd86f9711c8)" style="fill: none; stroke: #ffffff; stroke-width: 0.8; stroke-linecap: round"/>
     </g>
     <g id="text_2">
      <!-- 2000 -->
      <g style="fill: #262626" transform="translate(125.986681 322.182437) scale(0.1 -0.1)">
       <defs>
        <path id="DejaVuSans-32" d="M 1228 531 
L 3431 531 
L 3431 0 
L 469 0 
L 469 531 
Q 828 903 1448 1529 
Q 2069 2156 2228 2338 
Q 2531 2678 2651 2914 
Q 2772 3150 2772 3378 
Q 2772 3750 2511 3984 
Q 2250 4219 1831 4219 
Q 1534 4219 1204 4116 
Q 875 4013 500 3803 
L 500 4441 
Q 881 4594 1212 4672 
Q 1544 4750 1819 4750 
Q 2544 4750 2975 4387 
Q 3406 4025 3406 3419 
Q 3406 3131 3298 2873 
Q 3191 2616 2906 2266 
Q 2828 2175 2409 1742 
Q 1991 1309 1228 531 
z
" transform="scale(0.015625)"/>
       </defs>
       <use xlink:href="#DejaVuSans-32"/>
       <use xlink:href="#DejaVuSans-30" x="63.623047"/>
       <use xlink:href="#DejaVuSans-30" x="127.246094"/>
       <use xlink:href="#DejaVuSans-30" x="190.869141"/>
      </g>
     </g>
    </g>
    <g id="xtick_3">
     <g id="line2d_3">
      <path d="M 203.655579 307.584 
L 203.655579 41.472 
" clip-path="url(#pd86f9711c8)" style="fill: none; stroke: #ffffff; stroke-width: 0.8; stroke-linecap: round"/>
     </g>
     <g id="text_3">
      <!-- 4000 -->
      <g style="fill: #262626" transform="translate(190.930579 322.182437) scale(0.1 -0.1)">
       <defs>
        <path id="DejaVuSans-34" d="M 2419 4116 
L 825 1625 
L 2419 1625 
L 2419 4116 
z
M 2253 4666 
L 3047 4666 
L 3047 1625 
L 3713 1625 
L 3713 1100 
L 3047 1100 
L 3047 0 
L 2419 0 
L 2419 1100 
L 313 1100 
L 313 1709 
L 2253 4666 
z
" transform="scale(0.015625)"/>
       </defs>
       <use xlink:href="#DejaVuSans-34"/>
       <use xlink:href="#DejaVuSans-30" x="63.623047"/>
       <use xlink:href="#DejaVuSans-30" x="127.246094"/>
       <use xlink:href="#DejaVuSans-30" x="190.869141"/>
      </g>
     </g>
    </g>
    <g id="xtick_4">
     <g id="line2d_4">
      <path d="M 268.599477 307.584 
L 268.599477 41.472 
" clip-path="url(#pd86f9711c8)" style="fill: none; stroke: #ffffff; stroke-width: 0.8; stroke-linecap: round"/>
     </g>
     <g id="text_4">
      <!-- 6000 -->
      <g style="fill: #262626" transform="translate(255.874477 322.182437) scale(0.1 -0.1)">
       <defs>
        <path id="DejaVuSans-36" d="M 2113 2584 
Q 1688 2584 1439 2293 
Q 1191 2003 1191 1497 
Q 1191 994 1439 701 
Q 1688 409 2113 409 
Q 2538 409 2786 701 
Q 3034 994 3034 1497 
Q 3034 2003 2786 2293 
Q 2538 2584 2113 2584 
z
M 3366 4563 
L 3366 3988 
Q 3128 4100 2886 4159 
Q 2644 4219 2406 4219 
Q 1781 4219 1451 3797 
Q 1122 3375 1075 2522 
Q 1259 2794 1537 2939 
Q 1816 3084 2150 3084 
Q 2853 3084 3261 2657 
Q 3669 2231 3669 1497 
Q 3669 778 3244 343 
Q 2819 -91 2113 -91 
Q 1303 -91 875 529 
Q 447 1150 447 2328 
Q 447 3434 972 4092 
Q 1497 4750 2381 4750 
Q 2619 4750 2861 4703 
Q 3103 4656 3366 4563 
z
" transform="scale(0.015625)"/>
       </defs>
       <use xlink:href="#DejaVuSans-36"/>
       <use xlink:href="#DejaVuSans-30" x="63.623047"/>
       <use xlink:href="#DejaVuSans-30" x="127.246094"/>
       <use xlink:href="#DejaVuSans-30" x="190.869141"/>
      </g>
     </g>
    </g>
    <g id="xtick_5">
     <g id="line2d_5">
      <path d="M 333.543375 307.584 
L 333.543375 41.472 
" clip-path="url(#pd86f9711c8)" style="fill: none; stroke: #ffffff; stroke-width: 0.8; stroke-linecap: round"/>
     </g>
     <g id="text_5">
      <!-- 8000 -->
      <g style="fill: #262626" transform="translate(320.818375 322.182437) scale(0.1 -0.1)">
       <defs>
        <path id="DejaVuSans-38" d="M 2034 2216 
Q 1584 2216 1326 1975 
Q 1069 1734 1069 1313 
Q 1069 891 1326 650 
Q 1584 409 2034 409 
Q 2484 409 2743 651 
Q 3003 894 3003 1313 
Q 3003 1734 2745 1975 
Q 2488 2216 2034 2216 
z
M 1403 2484 
Q 997 2584 770 2862 
Q 544 3141 544 3541 
Q 544 4100 942 4425 
Q 1341 4750 2034 4750 
Q 2731 4750 3128 4425 
Q 3525 4100 3525 3541 
Q 3525 3141 3298 2862 
Q 3072 2584 2669 2484 
Q 3125 2378 3379 2068 
Q 3634 1759 3634 1313 
Q 3634 634 3220 271 
Q 2806 -91 2034 -91 
Q 1263 -91 848 271 
Q 434 634 434 1313 
Q 434 1759 690 2068 
Q 947 2378 1403 2484 
z
M 1172 3481 
Q 1172 3119 1398 2916 
Q 1625 2713 2034 2713 
Q 2441 2713 2670 2916 
Q 2900 3119 2900 3481 
Q 2900 3844 2670 4047 
Q 2441 4250 2034 4250 
Q 1625 4250 1398 4047 
Q 1172 3844 1172 3481 
z
" transform="scale(0.015625)"/>
       </defs>
       <use xlink:href="#DejaVuSans-38"/>
       <use xlink:href="#DejaVuSans-30" x="63.623047"/>
       <use xlink:href="#DejaVuSans-30" x="127.246094"/>
       <use xlink:href="#DejaVuSans-30" x="190.869141"/>
      </g>
     </g>
    </g>
    <g id="xtick_6">
     <g id="line2d_6">
      <path d="M 398.487273 307.584 
L 398.487273 41.472 
" clip-path="url(#pd86f9711c8)" style="fill: none; stroke: #ffffff; stroke-width: 0.8; stroke-linecap: round"/>
     </g>
     <g id="text_6">
      <!-- 10000 -->
      <g style="fill: #262626" transform="translate(382.581023 322.182437) scale(0.1 -0.1)">
       <defs>
        <path id="DejaVuSans-31" d="M 794 531 
L 1825 531 
L 1825 4091 
L 703 3866 
L 703 4441 
L 1819 4666 
L 2450 4666 
L 2450 531 
L 3481 531 
L 3481 0 
L 794 0 
L 794 531 
z
" transform="scale(0.015625)"/>
       </defs>
       <use xlink:href="#DejaVuSans-31"/>
       <use xlink:href="#DejaVuSans-30" x="63.623047"/>
       <use xlink:href="#DejaVuSans-30" x="127.246094"/>
       <use xlink:href="#DejaVuSans-30" x="190.869141"/>
       <use xlink:href="#DejaVuSans-30" x="254.492188"/>
      </g>
     </g>
    </g>
    <g id="text_7">
     <!-- Number of modes -->
     <g style="fill: #262626" transform="translate(191.29125 335.860562) scale(0.1 -0.1)">
      <defs>
       <path id="DejaVuSans-4e" d="M 628 4666 
L 1478 4666 
L 3547 763 
L 3547 4666 
L 4159 4666 
L 4159 0 
L 3309 0 
L 1241 3903 
L 1241 0 
L 628 0 
L 628 4666 
z
" transform="scale(0.015625)"/>
       <path id="DejaVuSans-75" d="M 544 1381 
L 544 3500 
L 1119 3500 
L 1119 1403 
Q 1119 906 1312 657 
Q 1506 409 1894 409 
Q 2359 409 2629 706 
Q 2900 1003 2900 1516 
L 2900 3500 
L 3475 3500 
L 3475 0 
L 2900 0 
L 2900 538 
Q 2691 219 2414 64 
Q 2138 -91 1772 -91 
Q 1169 -91 856 284 
Q 544 659 544 1381 
z
M 1991 3584 
L 1991 3584 
z
" transform="scale(0.015625)"/>
       <path id="DejaVuSans-6d" d="M 3328 2828 
Q 3544 3216 3844 3400 
Q 4144 3584 4550 3584 
Q 5097 3584 5394 3201 
Q 5691 2819 5691 2113 
L 5691 0 
L 5113 0 
L 5113 2094 
Q 5113 2597 4934 2840 
Q 4756 3084 4391 3084 
Q 3944 3084 3684 2787 
Q 3425 2491 3425 1978 
L 3425 0 
L 2847 0 
L 2847 2094 
Q 2847 2600 2669 2842 
Q 2491 3084 2119 3084 
Q 1678 3084 1418 2786 
Q 1159 2488 1159 1978 
L 1159 0 
L 581 0 
L 581 3500 
L 1159 3500 
L 1159 2956 
Q 1356 3278 1631 3431 
Q 1906 3584 2284 3584 
Q 2666 3584 2933 3390 
Q 3200 3197 3328 2828 
z
" transform="scale(0.015625)"/>
       <path id="DejaVuSans-62" d="M 3116 1747 
Q 3116 2381 2855 2742 
Q 2594 3103 2138 3103 
Q 1681 3103 1420 2742 
Q 1159 2381 1159 1747 
Q 1159 1113 1420 752 
Q 1681 391 2138 391 
Q 2594 391 2855 752 
Q 3116 1113 3116 1747 
z
M 1159 2969 
Q 1341 3281 1617 3432 
Q 1894 3584 2278 3584 
Q 2916 3584 3314 3078 
Q 3713 2572 3713 1747 
Q 3713 922 3314 415 
Q 2916 -91 2278 -91 
Q 1894 -91 1617 61 
Q 1341 213 1159 525 
L 1159 0 
L 581 0 
L 581 4863 
L 1159 4863 
L 1159 2969 
z
" transform="scale(0.015625)"/>
       <path id="DejaVuSans-65" d="M 3597 1894 
L 3597 1613 
L 953 1613 
Q 991 1019 1311 708 
Q 1631 397 2203 397 
Q 2534 397 2845 478 
Q 3156 559 3463 722 
L 3463 178 
Q 3153 47 2828 -22 
Q 2503 -91 2169 -91 
Q 1331 -91 842 396 
Q 353 884 353 1716 
Q 353 2575 817 3079 
Q 1281 3584 2069 3584 
Q 2775 3584 3186 3129 
Q 3597 2675 3597 1894 
z
M 3022 2063 
Q 3016 2534 2758 2815 
Q 2500 3097 2075 3097 
Q 1594 3097 1305 2825 
Q 1016 2553 972 2059 
L 3022 2063 
z
" transform="scale(0.015625)"/>
       <path id="DejaVuSans-72" d="M 2631 2963 
Q 2534 3019 2420 3045 
Q 2306 3072 2169 3072 
Q 1681 3072 1420 2755 
Q 1159 2438 1159 1844 
L 1159 0 
L 581 0 
L 581 3500 
L 1159 3500 
L 1159 2956 
Q 1341 3275 1631 3429 
Q 1922 3584 2338 3584 
Q 2397 3584 2469 3576 
Q 2541 3569 2628 3553 
L 2631 2963 
z
" transform="scale(0.015625)"/>
       <path id="DejaVuSans-20" transform="scale(0.015625)"/>
       <path id="DejaVuSans-6f" d="M 1959 3097 
Q 1497 3097 1228 2736 
Q 959 2375 959 1747 
Q 959 1119 1226 758 
Q 1494 397 1959 397 
Q 2419 397 2687 759 
Q 2956 1122 2956 1747 
Q 2956 2369 2687 2733 
Q 2419 3097 1959 3097 
z
M 1959 3584 
Q 2709 3584 3137 3096 
Q 3566 2609 3566 1747 
Q 3566 888 3137 398 
Q 2709 -91 1959 -91 
Q 1206 -91 779 398 
Q 353 888 353 1747 
Q 353 2609 779 3096 
Q 1206 3584 1959 3584 
z
" transform="scale(0.015625)"/>
       <path id="DejaVuSans-66" d="M 2375 4863 
L 2375 4384 
L 1825 4384 
Q 1516 4384 1395 4259 
Q 1275 4134 1275 3809 
L 1275 3500 
L 2222 3500 
L 2222 3053 
L 1275 3053 
L 1275 0 
L 697 0 
L 697 3053 
L 147 3053 
L 147 3500 
L 697 3500 
L 697 3744 
Q 697 4328 969 4595 
Q 1241 4863 1831 4863 
L 2375 4863 
z
" transform="scale(0.015625)"/>
       <path id="DejaVuSans-64" d="M 2906 2969 
L 2906 4863 
L 3481 4863 
L 3481 0 
L 2906 0 
L 2906 525 
Q 2725 213 2448 61 
Q 2172 -91 1784 -91 
Q 1150 -91 751 415 
Q 353 922 353 1747 
Q 353 2572 751 3078 
Q 1150 3584 1784 3584 
Q 2172 3584 2448 3432 
Q 2725 3281 2906 2969 
z
M 947 1747 
Q 947 1113 1208 752 
Q 1469 391 1925 391 
Q 2381 391 2643 752 
Q 2906 1113 2906 1747 
Q 2906 2381 2643 2742 
Q 2381 3103 1925 3103 
Q 1469 3103 1208 2742 
Q 947 2381 947 1747 
z
" transform="scale(0.015625)"/>
       <path id="DejaVuSans-73" d="M 2834 3397 
L 2834 2853 
Q 2591 2978 2328 3040 
Q 2066 3103 1784 3103 
Q 1356 3103 1142 2972 
Q 928 2841 928 2578 
Q 928 2378 1081 2264 
Q 1234 2150 1697 2047 
L 1894 2003 
Q 2506 1872 2764 1633 
Q 3022 1394 3022 966 
Q 3022 478 2636 193 
Q 2250 -91 1575 -91 
Q 1294 -91 989 -36 
Q 684 19 347 128 
L 347 722 
Q 666 556 975 473 
Q 1284 391 1588 391 
Q 1994 391 2212 530 
Q 2431 669 2431 922 
Q 2431 1156 2273 1281 
Q 2116 1406 1581 1522 
L 1381 1569 
Q 847 1681 609 1914 
Q 372 2147 372 2553 
Q 372 3047 722 3315 
Q 1072 3584 1716 3584 
Q 2034 3584 2315 3537 
Q 2597 3491 2834 3397 
z
" transform="scale(0.015625)"/>
      </defs>
      <use xlink:href="#DejaVuSans-4e"/>
      <use xlink:href="#DejaVuSans-75" x="74.804688"/>
      <use xlink:href="#DejaVuSans-6d" x="138.183594"/>
      <use xlink:href="#DejaVuSans-62" x="235.595703"/>
      <use xlink:href="#DejaVuSans-65" x="299.072266"/>
      <use xlink:href="#DejaVuSans-72" x="360.595703"/>
      <use xlink:href="#DejaVuSans-20" x="401.708984"/>
      <use xlink:href="#DejaVuSans-6f" x="433.496094"/>
      <use xlink:href="#DejaVuSans-66" x="494.677734"/>
      <use xlink:href="#DejaVuSans-20" x="529.882812"/>
      <use xlink:href="#DejaVuSans-6d" x="561.669922"/>
      <use xlink:href="#DejaVuSans-6f" x="659.082031"/>
      <use xlink:href="#DejaVuSans-64" x="720.263672"/>
      <use xlink:href="#DejaVuSans-65" x="783.740234"/>
      <use xlink:href="#DejaVuSans-73" x="845.263672"/>
     </g>
    </g>
   </g>
   <g id="matplotlib.axis_2">
    <g id="ytick_1">
     <g id="line2d_7">
      <path d="M 57.6 295.488 
L 414.72 295.488 
" clip-path="url(#pd86f9711c8)" style="fill: none; stroke: #ffffff; stroke-width: 0.8; stroke-linecap: round"/>
     </g>
     <g id="text_8">
      <!-- 0.0 -->
      <g style="fill: #262626" transform="translate(34.696875 299.287219) scale(0.1 -0.1)">
       <defs>
        <path id="DejaVuSans-2e" d="M 684 794 
L 1344 794 
L 1344 0 
L 684 0 
L 684 794 
z
" transform="scale(0.015625)"/>
       </defs>
       <use xlink:href="#DejaVuSans-30"/>
       <use xlink:href="#DejaVuSans-2e" x="63.623047"/>
       <use xlink:href="#DejaVuSans-30" x="95.410156"/>
      </g>
     </g>
    </g>
    <g id="ytick_2">
     <g id="line2d_8">
      <path d="M 57.6 251.810412 
L 414.72 251.810412 
" clip-path="url(#pd86f9711c8)" style="fill: none; stroke: #ffffff; stroke-width: 0.8; stroke-linecap: round"/>
     </g>
     <g id="text_9">
      <!-- 0.1 -->
      <g style="fill: #262626" transform="translate(34.696875 255.60963) scale(0.1 -0.1)">
       <use xlink:href="#DejaVuSans-30"/>
       <use xlink:href="#DejaVuSans-2e" x="63.623047"/>
       <use xlink:href="#DejaVuSans-31" x="95.410156"/>
      </g>
     </g>
    </g>
    <g id="ytick_3">
     <g id="line2d_9">
      <path d="M 57.6 208.132823 
L 414.72 208.132823 
" clip-path="url(#pd86f9711c8)" style="fill: none; stroke: #ffffff; stroke-width: 0.8; stroke-linecap: round"/>
     </g>
     <g id="text_10">
      <!-- 0.2 -->
      <g style="fill: #262626" transform="translate(34.696875 211.932042) scale(0.1 -0.1)">
       <use xlink:href="#DejaVuSans-30"/>
       <use xlink:href="#DejaVuSans-2e" x="63.623047"/>
       <use xlink:href="#DejaVuSans-32" x="95.410156"/>
      </g>
     </g>
    </g>
    <g id="ytick_4">
     <g id="line2d_10">
      <path d="M 57.6 164.455235 
L 414.72 164.455235 
" clip-path="url(#pd86f9711c8)" style="fill: none; stroke: #ffffff; stroke-width: 0.8; stroke-linecap: round"/>
     </g>
     <g id="text_11">
      <!-- 0.3 -->
      <g style="fill: #262626" transform="translate(34.696875 168.254453) scale(0.1 -0.1)">
       <defs>
        <path id="DejaVuSans-33" d="M 2597 2516 
Q 3050 2419 3304 2112 
Q 3559 1806 3559 1356 
Q 3559 666 3084 287 
Q 2609 -91 1734 -91 
Q 1441 -91 1130 -33 
Q 819 25 488 141 
L 488 750 
Q 750 597 1062 519 
Q 1375 441 1716 441 
Q 2309 441 2620 675 
Q 2931 909 2931 1356 
Q 2931 1769 2642 2001 
Q 2353 2234 1838 2234 
L 1294 2234 
L 1294 2753 
L 1863 2753 
Q 2328 2753 2575 2939 
Q 2822 3125 2822 3475 
Q 2822 3834 2567 4026 
Q 2313 4219 1838 4219 
Q 1578 4219 1281 4162 
Q 984 4106 628 3988 
L 628 4550 
Q 988 4650 1302 4700 
Q 1616 4750 1894 4750 
Q 2613 4750 3031 4423 
Q 3450 4097 3450 3541 
Q 3450 3153 3228 2886 
Q 3006 2619 2597 2516 
z
" transform="scale(0.015625)"/>
       </defs>
       <use xlink:href="#DejaVuSans-30"/>
       <use xlink:href="#DejaVuSans-2e" x="63.623047"/>
       <use xlink:href="#DejaVuSans-33" x="95.410156"/>
      </g>
     </g>
    </g>
    <g id="ytick_5">
     <g id="line2d_11">
      <path d="M 57.6 120.777646 
L 414.72 120.777646 
" clip-path="url(#pd86f9711c8)" style="fill: none; stroke: #ffffff; stroke-width: 0.8; stroke-linecap: round"/>
     </g>
     <g id="text_12">
      <!-- 0.4 -->
      <g style="fill: #262626" transform="translate(34.696875 124.576865) scale(0.1 -0.1)">
       <use xlink:href="#DejaVuSans-30"/>
       <use xlink:href="#DejaVuSans-2e" x="63.623047"/>
       <use xlink:href="#DejaVuSans-34" x="95.410156"/>
      </g>
     </g>
    </g>
    <g id="ytick_6">
     <g id="line2d_12">
      <path d="M 57.6 77.100058 
L 414.72 77.100058 
" clip-path="url(#pd86f9711c8)" style="fill: none; stroke: #ffffff; stroke-width: 0.8; stroke-linecap: round"/>
     </g>
     <g id="text_13">
      <!-- 0.5 -->
      <g style="fill: #262626" transform="translate(34.696875 80.899276) scale(0.1 -0.1)">
       <defs>
        <path id="DejaVuSans-35" d="M 691 4666 
L 3169 4666 
L 3169 4134 
L 1269 4134 
L 1269 2991 
Q 1406 3038 1543 3061 
Q 1681 3084 1819 3084 
Q 2600 3084 3056 2656 
Q 3513 2228 3513 1497 
Q 3513 744 3044 326 
Q 2575 -91 1722 -91 
Q 1428 -91 1123 -41 
Q 819 9 494 109 
L 494 744 
Q 775 591 1075 516 
Q 1375 441 1709 441 
Q 2250 441 2565 725 
Q 2881 1009 2881 1497 
Q 2881 1984 2565 2268 
Q 2250 2553 1709 2553 
Q 1456 2553 1204 2497 
Q 953 2441 691 2322 
L 691 4666 
z
" transform="scale(0.015625)"/>
       </defs>
       <use xlink:href="#DejaVuSans-30"/>
       <use xlink:href="#DejaVuSans-2e" x="63.623047"/>
       <use xlink:href="#DejaVuSans-35" x="95.410156"/>
      </g>
     </g>
    </g>
    <g id="text_14">
     <!-- Correlation coefficient (CC) -->
     <g style="fill: #262626" transform="translate(28.617187 242.297531) rotate(-90) scale(0.1 -0.1)">
      <defs>
       <path id="DejaVuSans-43" d="M 4122 4306 
L 4122 3641 
Q 3803 3938 3442 4084 
Q 3081 4231 2675 4231 
Q 1875 4231 1450 3742 
Q 1025 3253 1025 2328 
Q 1025 1406 1450 917 
Q 1875 428 2675 428 
Q 3081 428 3442 575 
Q 3803 722 4122 1019 
L 4122 359 
Q 3791 134 3420 21 
Q 3050 -91 2638 -91 
Q 1578 -91 968 557 
Q 359 1206 359 2328 
Q 359 3453 968 4101 
Q 1578 4750 2638 4750 
Q 3056 4750 3426 4639 
Q 3797 4528 4122 4306 
z
" transform="scale(0.015625)"/>
       <path id="DejaVuSans-6c" d="M 603 4863 
L 1178 4863 
L 1178 0 
L 603 0 
L 603 4863 
z
" transform="scale(0.015625)"/>
       <path id="DejaVuSans-61" d="M 2194 1759 
Q 1497 1759 1228 1600 
Q 959 1441 959 1056 
Q 959 750 1161 570 
Q 1363 391 1709 391 
Q 2188 391 2477 730 
Q 2766 1069 2766 1631 
L 2766 1759 
L 2194 1759 
z
M 3341 1997 
L 3341 0 
L 2766 0 
L 2766 531 
Q 2569 213 2275 61 
Q 1981 -91 1556 -91 
Q 1019 -91 701 211 
Q 384 513 384 1019 
Q 384 1609 779 1909 
Q 1175 2209 1959 2209 
L 2766 2209 
L 2766 2266 
Q 2766 2663 2505 2880 
Q 2244 3097 1772 3097 
Q 1472 3097 1187 3025 
Q 903 2953 641 2809 
L 641 3341 
Q 956 3463 1253 3523 
Q 1550 3584 1831 3584 
Q 2591 3584 2966 3190 
Q 3341 2797 3341 1997 
z
" transform="scale(0.015625)"/>
       <path id="DejaVuSans-74" d="M 1172 4494 
L 1172 3500 
L 2356 3500 
L 2356 3053 
L 1172 3053 
L 1172 1153 
Q 1172 725 1289 603 
Q 1406 481 1766 481 
L 2356 481 
L 2356 0 
L 1766 0 
Q 1100 0 847 248 
Q 594 497 594 1153 
L 594 3053 
L 172 3053 
L 172 3500 
L 594 3500 
L 594 4494 
L 1172 4494 
z
" transform="scale(0.015625)"/>
       <path id="DejaVuSans-69" d="M 603 3500 
L 1178 3500 
L 1178 0 
L 603 0 
L 603 3500 
z
M 603 4863 
L 1178 4863 
L 1178 4134 
L 603 4134 
L 603 4863 
z
" transform="scale(0.015625)"/>
       <path id="DejaVuSans-6e" d="M 3513 2113 
L 3513 0 
L 2938 0 
L 2938 2094 
Q 2938 2591 2744 2837 
Q 2550 3084 2163 3084 
Q 1697 3084 1428 2787 
Q 1159 2491 1159 1978 
L 1159 0 
L 581 0 
L 581 3500 
L 1159 3500 
L 1159 2956 
Q 1366 3272 1645 3428 
Q 1925 3584 2291 3584 
Q 2894 3584 3203 3211 
Q 3513 2838 3513 2113 
z
" transform="scale(0.015625)"/>
       <path id="DejaVuSans-63" d="M 3122 3366 
L 3122 2828 
Q 2878 2963 2633 3030 
Q 2388 3097 2138 3097 
Q 1578 3097 1268 2742 
Q 959 2388 959 1747 
Q 959 1106 1268 751 
Q 1578 397 2138 397 
Q 2388 397 2633 464 
Q 2878 531 3122 666 
L 3122 134 
Q 2881 22 2623 -34 
Q 2366 -91 2075 -91 
Q 1284 -91 818 406 
Q 353 903 353 1747 
Q 353 2603 823 3093 
Q 1294 3584 2113 3584 
Q 2378 3584 2631 3529 
Q 2884 3475 3122 3366 
z
" transform="scale(0.015625)"/>
       <path id="DejaVuSans-28" d="M 1984 4856 
Q 1566 4138 1362 3434 
Q 1159 2731 1159 2009 
Q 1159 1288 1364 580 
Q 1569 -128 1984 -844 
L 1484 -844 
Q 1016 -109 783 600 
Q 550 1309 550 2009 
Q 550 2706 781 3412 
Q 1013 4119 1484 4856 
L 1984 4856 
z
" transform="scale(0.015625)"/>
       <path id="DejaVuSans-29" d="M 513 4856 
L 1013 4856 
Q 1481 4119 1714 3412 
Q 1947 2706 1947 2009 
Q 1947 1309 1714 600 
Q 1481 -109 1013 -844 
L 513 -844 
Q 928 -128 1133 580 
Q 1338 1288 1338 2009 
Q 1338 2731 1133 3434 
Q 928 4138 513 4856 
z
" transform="scale(0.015625)"/>
      </defs>
      <use xlink:href="#DejaVuSans-43"/>
      <use xlink:href="#DejaVuSans-6f" x="69.824219"/>
      <use xlink:href="#DejaVuSans-72" x="131.005859"/>
      <use xlink:href="#DejaVuSans-72" x="170.369141"/>
      <use xlink:href="#DejaVuSans-65" x="209.232422"/>
      <use xlink:href="#DejaVuSans-6c" x="270.755859"/>
      <use xlink:href="#DejaVuSans-61" x="298.539062"/>
      <use xlink:href="#DejaVuSans-74" x="359.818359"/>
      <use xlink:href="#DejaVuSans-69" x="399.027344"/>
      <use xlink:href="#DejaVuSans-6f" x="426.810547"/>
      <use xlink:href="#DejaVuSans-6e" x="487.992188"/>
      <use xlink:href="#DejaVuSans-20" x="551.371094"/>
      <use xlink:href="#DejaVuSans-63" x="583.158203"/>
      <use xlink:href="#DejaVuSans-6f" x="638.138672"/>
      <use xlink:href="#DejaVuSans-65" x="699.320312"/>
      <use xlink:href="#DejaVuSans-66" x="760.84375"/>
      <use xlink:href="#DejaVuSans-66" x="796.048828"/>
      <use xlink:href="#DejaVuSans-69" x="831.253906"/>
      <use xlink:href="#DejaVuSans-63" x="859.037109"/>
      <use xlink:href="#DejaVuSans-69" x="914.017578"/>
      <use xlink:href="#DejaVuSans-65" x="941.800781"/>
      <use xlink:href="#DejaVuSans-6e" x="1003.324219"/>
      <use xlink:href="#DejaVuSans-74" x="1066.703125"/>
      <use xlink:href="#DejaVuSans-20" x="1105.912109"/>
      <use xlink:href="#DejaVuSans-28" x="1137.699219"/>
      <use xlink:href="#DejaVuSans-43" x="1176.712891"/>
      <use xlink:href="#DejaVuSans-43" x="1246.537109"/>
      <use xlink:href="#DejaVuSans-29" x="1316.361328"/>
     </g>
    </g>
   </g>
   <g id="PolyCollection_1"/>
   <g id="line2d_13">
    <path d="M 73.832727 291.757815 
L 73.865199 288.041962 
L 73.897671 191.374771 
L 73.962615 268.895081 
L 73.995087 273.124566 
L 74.027559 271.039188 
L 74.092503 189.503319 
L 74.124975 235.22069 
L 74.157447 240.550547 
L 74.189919 236.96887 
L 74.254863 189.851682 
L 74.352278 190.062868 
L 74.417222 211.655923 
L 74.449694 206.007516 
L 74.579582 189.788116 
L 74.612054 194.439425 
L 74.70947 192.523728 
L 74.741942 194.236559 
L 74.839358 193.899569 
L 75.164077 190.814858 
L 75.261493 187.921535 
L 75.326437 188.262099 
L 75.391381 187.716111 
L 75.423853 188.034777 
L 75.456325 188.299572 
L 75.521269 187.926324 
L 75.651156 187.559987 
L 75.683628 187.716226 
L 75.748572 187.492606 
L 75.845988 187.145928 
L 76.333067 183.667394 
L 76.430483 183.451228 
L 76.527899 182.967004 
L 76.592843 183.024661 
L 76.722731 184.295076 
L 76.787675 183.833005 
L 76.982506 183.009219 
L 77.079922 182.94925 
L 77.20981 183.81787 
L 77.242282 183.453024 
L 77.307226 183.046927 
L 77.339698 183.262743 
L 77.599473 185.633909 
L 77.794305 188.386912 
L 77.859249 187.728483 
L 77.989137 187.039583 
L 78.054081 187.084126 
L 78.086553 187.15863 
L 78.508688 184.064032 
L 78.963295 183.157682 
L 79.060711 183.146174 
L 79.385431 184.848825 
L 79.54779 186.172442 
L 79.612734 185.953797 
L 79.937454 185.154176 
L 80.424533 185.16594 
L 80.781724 186.352828 
L 81.106444 188.664548 
L 81.171388 188.402499 
L 81.20386 188.276396 
L 81.268804 188.371718 
L 81.496107 188.546083 
L 81.625995 188.579424 
L 81.983186 189.16114 
L 82.178018 188.438117 
L 82.307906 188.677153 
L 82.340378 188.538601 
L 82.405322 188.279009 
L 82.470266 188.369767 
L 82.600153 188.717343 
L 83.347008 192.77268 
L 83.54184 193.154873 
L 83.574312 193.150065 
L 83.769144 192.413725 
L 84.028919 192.415245 
L 84.515998 194.164743 
L 84.970606 197.779809 
L 85.457685 199.528721 
L 85.620045 199.624762 
L 85.814876 199.751768 
L 86.594203 201.824593 
L 86.724091 202.359486 
L 86.789035 202.225839 
L 86.821507 202.161349 
L 87.081282 203.168287 
L 87.113754 203.200474 
L 87.406002 204.588972 
L 88.315216 208.211196 
L 88.347688 208.142921 
L 88.964655 207.107119 
L 88.997127 207.073502 
L 89.354319 208.25025 
L 89.938814 210.725514 
L 90.458365 212.90133 
L 90.750613 213.228469 
L 90.783085 213.079652 
L 91.140276 211.544833 
L 91.20522 211.594272 
L 91.692299 212.090143 
L 92.179378 213.264137 
L 92.601514 214.638888 
L 93.023649 216.196731 
L 93.283425 217.360883 
L 93.348369 217.267735 
L 93.932864 216.634924 
L 94.095223 216.69064 
L 94.257583 216.647074 
L 94.517359 217.664728 
L 94.842078 218.956974 
L 95.751293 222.025565 
L 95.946124 222.153177 
L 96.140956 222.560626 
L 96.335788 222.926907 
L 96.563092 223.279124 
L 97.797026 225.785348 
L 98.738712 229.536948 
L 99.972646 233.289388 
L 100.297366 234.345284 
L 100.751973 235.031311 
L 101.04422 235.562297 
L 101.920963 237.78014 
L 104.421303 244.098821 
L 104.713551 244.465915 
L 105.20063 245.550292 
L 105.460406 245.98795 
L 106.044901 247.35512 
L 106.53198 248.224284 
L 106.889171 248.85502 
L 107.376251 249.770234 
L 108.415353 250.488771 
L 108.577713 250.589342 
L 108.740072 250.627021 
L 108.934904 250.64998 
L 109.681759 251.401511 
L 110.071422 251.306351 
L 110.493558 250.515117 
L 110.623445 250.445283 
L 110.980637 250.11822 
L 111.20794 250.04135 
L 111.597604 248.949602 
L 111.727492 248.702127 
L 111.792436 248.807231 
L 111.824908 248.859674 
L 111.857379 248.79229 
L 112.344459 248.021944 
L 112.53929 248.077324 
L 112.734122 248.015842 
L 112.993898 247.881917 
L 113.253673 247.714818 
L 113.448505 247.547402 
L 113.643337 247.453219 
L 113.708281 247.390972 
L 113.740753 247.43782 
L 113.805696 247.531359 
L 113.87064 247.456809 
L 114.065472 247.388443 
L 114.325248 247.485378 
L 114.552551 247.716211 
L 114.714911 247.760623 
L 114.812327 247.805829 
L 115.20199 248.018563 
L 116.013789 248.21871 
L 117.117835 249.83963 
L 117.410083 249.858679 
L 117.734802 249.724579 
L 118.156938 249.852517 
L 118.319297 249.789299 
L 119.813007 250.195818 
L 120.722222 250.329517 
L 121.404132 250.166873 
L 121.85874 250.045798 
L 122.962786 249.374175 
L 123.742113 249.095617 
L 124.52144 248.913922 
L 124.943575 248.821433 
L 126.015149 248.192488 
L 128.970097 242.516007 
L 129.132456 242.112316 
L 129.587064 240.982683 
L 130.431334 239.975933 
L 131.8601 237.583162 
L 132.444595 236.428 
L 133.02909 235.506459 
L 134.133136 232.733072 
L 135.042351 230.109718 
L 135.886622 227.832787 
L 136.048981 227.418804 
L 136.308757 226.813624 
L 136.536061 226.147156 
L 137.867411 222.168902 
L 138.062242 221.680847 
L 138.711681 219.718462 
L 139.003929 219.300261 
L 140.789886 216.845383 
L 141.569213 214.550032 
L 141.796516 212.986081 
L 142.413483 208.915659 
L 143.387642 204.361353 
L 143.874721 201.89774 
L 145.011239 198.892553 
L 145.985398 195.414986 
L 146.375061 194.045651 
L 147.34922 190.279786 
L 147.479107 190.059069 
L 147.738883 189.509697 
L 149.102705 186.535074 
L 149.654728 185.107137 
L 150.271695 183.699131 
L 151.570573 181.122379 
L 151.732933 180.885722 
L 152.057652 179.959152 
L 152.836979 177.527058 
L 153.713722 173.110928 
L 154.200801 170.447575 
L 155.629567 164.996241 
L 156.441365 158.165942 
L 157.02586 154.973977 
L 158.487098 148.952779 
L 159.136537 147.032659 
L 160.045752 145.49114 
L 161.149798 144.02544 
L 161.896653 143.066701 
L 162.903283 141.313177 
L 163.974858 140.545895 
L 167.5143 138.630129 
L 168.391043 138.249239 
L 175.145208 135.476966 
L 177.84038 134.705063 
L 180.438136 134.030246 
L 182.191621 133.337343 
L 183.230723 132.904513 
L 187.452077 131.672999 
L 191.381182 130.691985 
L 194.076354 130.039615 
L 199.726473 129.215987 
L 203.395804 129.101346 
L 205.116817 129.230844 
L 209.143338 129.444067 
L 209.760306 129.368643 
L 214.858401 128.618258 
L 219.696722 128.067324 
L 221.320319 127.84208 
L 223.6583 127.257303 
L 224.437626 127.084462 
L 226.028752 126.713251 
L 229.113587 125.474134 
L 229.633138 125.336289 
L 238.920116 123.367194 
L 242.524502 122.702637 
L 243.401245 122.444931 
L 247.687542 121.117776 
L 252.590806 119.779462 
L 254.928786 118.915792 
L 258.370813 117.197407 
L 260.124298 116.480557 
L 262.267447 115.56883 
L 270.385434 111.012716 
L 270.969929 110.51703 
L 271.586896 109.89488 
L 272.041504 109.44675 
L 272.366223 109.164726 
L 273.048134 108.580806 
L 274.4769 107.261069 
L 275.80825 105.402729 
L 276.782408 103.988211 
L 277.918926 102.462965 
L 278.211174 102.133915 
L 279.087916 101.116377 
L 280.97129 99.653491 
L 282.107808 99.047661 
L 283.601517 98.262189 
L 287.563095 96.287695 
L 291.427257 94.383334 
L 295.746026 91.962585 
L 301.850753 88.356677 
L 302.759967 87.860398 
L 304.448509 86.892793 
L 307.111208 85.410751 
L 308.96211 84.673536 
L 309.903796 84.267139 
L 310.97537 83.881546 
L 311.949529 83.496864 
L 312.923687 83.162372 
L 313.508182 82.859143 
L 314.319981 82.200748 
L 317.826952 81.092716 
L 319.385605 80.616641 
L 320.424707 80.269365 
L 321.333922 79.972966 
L 323.217295 79.294786 
L 325.003252 78.179444 
L 325.327972 77.948767 
L 326.756738 77.082278 
L 328.477751 75.791625 
L 329.28955 75.099027 
L 329.614269 74.691475 
L 330.685843 73.278593 
L 333.12124 71.682495 
L 333.575847 71.249874 
L 335.589108 70.435874 
L 336.595738 70.020761 
L 336.952929 69.744978 
L 337.63484 69.083492 
L 342.115969 67.765257 
L 345.655412 66.658418 
L 348.642831 65.537515 
L 349.876765 65.079363 
L 352.994072 63.783164 
L 353.643511 63.613733 
L 356.988122 62.884167 
L 359.813182 62.304579 
L 363.514984 61.47447 
L 368.61308 60.13324 
L 371.470611 59.070722 
L 372.44477 58.866915 
L 375.464661 58.173777 
L 377.153202 57.771857 
L 379.978262 57.231038 
L 386.11546 56.265928 
L 389.135351 55.640002 
L 398.487273 53.568 
L 398.487273 53.568 
" clip-path="url(#pd86f9711c8)" style="fill: none; stroke: #1f77b4; stroke-width: 1.5; stroke-linecap: round"/>
   </g>
   <g id="LineCollection_1">
    <path d="M 398.454801 295.488 
L 398.454801 53.575685 
" clip-path="url(#pd86f9711c8)" style="fill: none; stroke: #000000; stroke-width: 1.5"/>
   </g>
   <g id="patch_3">
    <path d="M 57.6 307.584 
L 57.6 41.472 
" style="fill: none; stroke: #ffffff; stroke-width: 0.8; stroke-linejoin: miter; stroke-linecap: square"/>
   </g>
   <g id="patch_4">
    <path d="M 414.72 307.584 
L 414.72 41.472 
" style="fill: none; stroke: #ffffff; stroke-width: 0.8; stroke-linejoin: miter; stroke-linecap: square"/>
   </g>
   <g id="patch_5">
    <path d="M 57.6 307.584 
L 414.72 307.584 
" style="fill: none; stroke: #ffffff; stroke-width: 0.8; stroke-linejoin: miter; stroke-linecap: square"/>
   </g>
   <g id="patch_6">
    <path d="M 57.6 41.472 
L 414.72 41.472 
" style="fill: none; stroke: #ffffff; stroke-width: 0.8; stroke-linejoin: miter; stroke-linecap: square"/>
   </g>
   <g id="text_15">
    <!-- Agreement between predicted and empirical B-factors -->
    <g style="fill: #262626" transform="translate(72.837187 35.472) scale(0.12 -0.12)">
     <defs>
      <path id="DejaVuSans-41" d="M 2188 4044 
L 1331 1722 
L 3047 1722 
L 2188 4044 
z
M 1831 4666 
L 2547 4666 
L 4325 0 
L 3669 0 
L 3244 1197 
L 1141 1197 
L 716 0 
L 50 0 
L 1831 4666 
z
" transform="scale(0.015625)"/>
      <path id="DejaVuSans-67" d="M 2906 1791 
Q 2906 2416 2648 2759 
Q 2391 3103 1925 3103 
Q 1463 3103 1205 2759 
Q 947 2416 947 1791 
Q 947 1169 1205 825 
Q 1463 481 1925 481 
Q 2391 481 2648 825 
Q 2906 1169 2906 1791 
z
M 3481 434 
Q 3481 -459 3084 -895 
Q 2688 -1331 1869 -1331 
Q 1566 -1331 1297 -1286 
Q 1028 -1241 775 -1147 
L 775 -588 
Q 1028 -725 1275 -790 
Q 1522 -856 1778 -856 
Q 2344 -856 2625 -561 
Q 2906 -266 2906 331 
L 2906 616 
Q 2728 306 2450 153 
Q 2172 0 1784 0 
Q 1141 0 747 490 
Q 353 981 353 1791 
Q 353 2603 747 3093 
Q 1141 3584 1784 3584 
Q 2172 3584 2450 3431 
Q 2728 3278 2906 2969 
L 2906 3500 
L 3481 3500 
L 3481 434 
z
" transform="scale(0.015625)"/>
      <path id="DejaVuSans-77" d="M 269 3500 
L 844 3500 
L 1563 769 
L 2278 3500 
L 2956 3500 
L 3675 769 
L 4391 3500 
L 4966 3500 
L 4050 0 
L 3372 0 
L 2619 2869 
L 1863 0 
L 1184 0 
L 269 3500 
z
" transform="scale(0.015625)"/>
      <path id="DejaVuSans-70" d="M 1159 525 
L 1159 -1331 
L 581 -1331 
L 581 3500 
L 1159 3500 
L 1159 2969 
Q 1341 3281 1617 3432 
Q 1894 3584 2278 3584 
Q 2916 3584 3314 3078 
Q 3713 2572 3713 1747 
Q 3713 922 3314 415 
Q 2916 -91 2278 -91 
Q 1894 -91 1617 61 
Q 1341 213 1159 525 
z
M 3116 1747 
Q 3116 2381 2855 2742 
Q 2594 3103 2138 3103 
Q 1681 3103 1420 2742 
Q 1159 2381 1159 1747 
Q 1159 1113 1420 752 
Q 1681 391 2138 391 
Q 2594 391 2855 752 
Q 3116 1113 3116 1747 
z
" transform="scale(0.015625)"/>
      <path id="DejaVuSans-42" d="M 1259 2228 
L 1259 519 
L 2272 519 
Q 2781 519 3026 730 
Q 3272 941 3272 1375 
Q 3272 1813 3026 2020 
Q 2781 2228 2272 2228 
L 1259 2228 
z
M 1259 4147 
L 1259 2741 
L 2194 2741 
Q 2656 2741 2882 2914 
Q 3109 3088 3109 3444 
Q 3109 3797 2882 3972 
Q 2656 4147 2194 4147 
L 1259 4147 
z
M 628 4666 
L 2241 4666 
Q 2963 4666 3353 4366 
Q 3744 4066 3744 3513 
Q 3744 3084 3544 2831 
Q 3344 2578 2956 2516 
Q 3422 2416 3680 2098 
Q 3938 1781 3938 1306 
Q 3938 681 3513 340 
Q 3088 0 2303 0 
L 628 0 
L 628 4666 
z
" transform="scale(0.015625)"/>
      <path id="DejaVuSans-2d" d="M 313 2009 
L 1997 2009 
L 1997 1497 
L 313 1497 
L 313 2009 
z
" transform="scale(0.015625)"/>
     </defs>
     <use xlink:href="#DejaVuSans-41"/>
     <use xlink:href="#DejaVuSans-67" x="68.408203"/>
     <use xlink:href="#DejaVuSans-72" x="131.884766"/>
     <use xlink:href="#DejaVuSans-65" x="170.748047"/>
     <use xlink:href="#DejaVuSans-65" x="232.271484"/>
     <use xlink:href="#DejaVuSans-6d" x="293.794922"/>
     <use xlink:href="#DejaVuSans-65" x="391.207031"/>
     <use xlink:href="#DejaVuSans-6e" x="452.730469"/>
     <use xlink:href="#DejaVuSans-74" x="516.109375"/>
     <use xlink:href="#DejaVuSans-20" x="555.318359"/>
     <use xlink:href="#DejaVuSans-62" x="587.105469"/>
     <use xlink:href="#DejaVuSans-65" x="650.582031"/>
     <use xlink:href="#DejaVuSans-74" x="712.105469"/>
     <use xlink:href="#DejaVuSans-77" x="751.314453"/>
     <use xlink:href="#DejaVuSans-65" x="833.101562"/>
     <use xlink:href="#DejaVuSans-65" x="894.625"/>
     <use xlink:href="#DejaVuSans-6e" x="956.148438"/>
     <use xlink:href="#DejaVuSans-20" x="1019.527344"/>
     <use xlink:href="#DejaVuSans-70" x="1051.314453"/>
     <use xlink:href="#DejaVuSans-72" x="1114.791016"/>
     <use xlink:href="#DejaVuSans-65" x="1153.654297"/>
     <use xlink:href="#DejaVuSans-64" x="1215.177734"/>
     <use xlink:href="#DejaVuSans-69" x="1278.654297"/>
     <use xlink:href="#DejaVuSans-63" x="1306.4375"/>
     <use xlink:href="#DejaVuSans-74" x="1361.417969"/>
     <use xlink:href="#DejaVuSans-65" x="1400.626953"/>
     <use xlink:href="#DejaVuSans-64" x="1462.150391"/>
     <use xlink:href="#DejaVuSans-20" x="1525.626953"/>
     <use xlink:href="#DejaVuSans-61" x="1557.414062"/>
     <use xlink:href="#DejaVuSans-6e" x="1618.693359"/>
     <use xlink:href="#DejaVuSans-64" x="1682.072266"/>
     <use xlink:href="#DejaVuSans-20" x="1745.548828"/>
     <use xlink:href="#DejaVuSans-65" x="1777.335938"/>
     <use xlink:href="#DejaVuSans-6d" x="1838.859375"/>
     <use xlink:href="#DejaVuSans-70" x="1936.271484"/>
     <use xlink:href="#DejaVuSans-69" x="1999.748047"/>
     <use xlink:href="#DejaVuSans-72" x="2027.53125"/>
     <use xlink:href="#DejaVuSans-69" x="2068.644531"/>
     <use xlink:href="#DejaVuSans-63" x="2096.427734"/>
     <use xlink:href="#DejaVuSans-61" x="2151.408203"/>
     <use xlink:href="#DejaVuSans-6c" x="2212.6875"/>
     <use xlink:href="#DejaVuSans-20" x="2240.470703"/>
     <use xlink:href="#DejaVuSans-42" x="2272.257812"/>
     <use xlink:href="#DejaVuSans-2d" x="2340.861328"/>
     <use xlink:href="#DejaVuSans-66" x="2376.945312"/>
     <use xlink:href="#DejaVuSans-61" x="2412.150391"/>
     <use xlink:href="#DejaVuSans-63" x="2473.429688"/>
     <use xlink:href="#DejaVuSans-74" x="2528.410156"/>
     <use xlink:href="#DejaVuSans-6f" x="2567.619141"/>
     <use xlink:href="#DejaVuSans-72" x="2628.800781"/>
     <use xlink:href="#DejaVuSans-73" x="2669.914062"/>
    </g>
   </g>
  </g>
 </g>
 <defs>
  <clipPath id="pd86f9711c8">
   <rect x="57.6" y="41.472" width="357.12" height="266.112"/>
  </clipPath>
 </defs>
</svg>
