<?xml version="1.0" encoding="utf-8" standalone="no"?>
<!DOCTYPE svg PUBLIC "-//W3C//DTD SVG 1.1//EN"
  "http://www.w3.org/Graphics/SVG/1.1/DTD/svg11.dtd">
<svg xmlns:xlink="http://www.w3.org/1999/xlink" width="432pt" height="288pt" viewBox="0 0 432 288" xmlns="http://www.w3.org/2000/svg" version="1.1">
 <metadata>
  <rdf:RDF xmlns:dc="http://purl.org/dc/elements/1.1/" xmlns:cc="http://creativecommons.org/ns#" xmlns:rdf="http://www.w3.org/1999/02/22-rdf-syntax-ns#">
   <cc:Work>
    <dc:type rdf:resource="http://purl.org/dc/dcmitype/StillImage"/>
    <dc:date>2023-09-06T17:41:18.761098</dc:date>
    <dc:format>image/svg+xml</dc:format>
    <dc:creator>
     <cc:Agent>
      <dc:title>Matplotlib v3.7.1, https://matplotlib.org/</dc:title>
     </cc:Agent>
    </dc:creator>
   </cc:Work>
  </rdf:RDF>
 </metadata>
 <defs>
  <style type="text/css">*{stroke-linejoin: round; stroke-linecap: butt}</style>
 </defs>
 <g id="figure_1">
  <g id="patch_1">
   <path d="M 0 288 
L 432 288 
L 432 0 
L 0 0 
z
" style="fill: #ffffff"/>
  </g>
  <g id="axes_1">
   <g id="patch_2">
    <path d="M 54 256.32 
L 388.8 256.32 
L 388.8 34.56 
L 54 34.56 
z
" style="fill: #eaeaf2"/>
   </g>
   <g id="matplotlib.axis_1">
    <g id="xtick_1">
     <g id="line2d_1">
      <path d="M 68.584091 256.32 
L 68.584091 34.56 
" clip-path="url(#pa009a91439)" style="fill: none; stroke: #ffffff; stroke-width: 0.8; stroke-linecap: round"/>
     </g>
     <g id="text_1">
      <!-- 0 -->
      <g style="fill: #262626" transform="translate(65.803622 270.477813) scale(0.1 -0.1)">
       <defs>
        <path id="ArialMT-30" d="M 266 2259 
Q 266 3072 433 3567 
Q 600 4063 929 4331 
Q 1259 4600 1759 4600 
Q 2128 4600 2406 4451 
Q 2684 4303 2865 4023 
Q 3047 3744 3150 3342 
Q 3253 2941 3253 2259 
Q 3253 1453 3087 958 
Q 2922 463 2592 192 
Q 2263 -78 1759 -78 
Q 1097 -78 719 397 
Q 266 969 266 2259 
z
M 844 2259 
Q 844 1131 1108 757 
Q 1372 384 1759 384 
Q 2147 384 2411 759 
Q 2675 1134 2675 2259 
Q 2675 3391 2411 3762 
Q 2147 4134 1753 4134 
Q 1366 4134 1134 3806 
Q 844 3388 844 2259 
z
" transform="scale(0.015625)"/>
       </defs>
       <use xlink:href="#ArialMT-30"/>
      </g>
     </g>
    </g>
    <g id="xtick_2">
     <g id="line2d_2">
      <path d="M 131.993182 256.32 
L 131.993182 34.56 
" clip-path="url(#pa009a91439)" style="fill: none; stroke: #ffffff; stroke-width: 0.8; stroke-linecap: round"/>
     </g>
     <g id="text_2">
      <!-- 100 -->
      <g style="fill: #262626" transform="translate(123.651776 270.477813) scale(0.1 -0.1)">
       <defs>
        <path id="ArialMT-31" d="M 2384 0 
L 1822 0 
L 1822 3584 
Q 1619 3391 1289 3197 
Q 959 3003 697 2906 
L 697 3450 
Q 1169 3672 1522 3987 
Q 1875 4303 2022 4600 
L 2384 4600 
L 2384 0 
z
" transform="scale(0.015625)"/>
       </defs>
       <use xlink:href="#ArialMT-31"/>
       <use xlink:href="#ArialMT-30" x="55.615234"/>
       <use xlink:href="#ArialMT-30" x="111.230469"/>
      </g>
     </g>
    </g>
    <g id="xtick_3">
     <g id="line2d_3">
      <path d="M 195.402273 256.32 
L 195.402273 34.56 
" clip-path="url(#pa009a91439)" style="fill: none; stroke: #ffffff; stroke-width: 0.8; stroke-linecap: round"/>
     </g>
     <g id="text_3">
      <!-- 200 -->
      <g style="fill: #262626" transform="translate(187.060866 270.477813) scale(0.1 -0.1)">
       <defs>
        <path id="ArialMT-32" d="M 3222 541 
L 3222 0 
L 194 0 
Q 188 203 259 391 
Q 375 700 629 1000 
Q 884 1300 1366 1694 
Q 2113 2306 2375 2664 
Q 2638 3022 2638 3341 
Q 2638 3675 2398 3904 
Q 2159 4134 1775 4134 
Q 1369 4134 1125 3890 
Q 881 3647 878 3216 
L 300 3275 
Q 359 3922 746 4261 
Q 1134 4600 1788 4600 
Q 2447 4600 2831 4234 
Q 3216 3869 3216 3328 
Q 3216 3053 3103 2787 
Q 2991 2522 2730 2228 
Q 2469 1934 1863 1422 
Q 1356 997 1212 845 
Q 1069 694 975 541 
L 3222 541 
z
" transform="scale(0.015625)"/>
       </defs>
       <use xlink:href="#ArialMT-32"/>
       <use xlink:href="#ArialMT-30" x="55.615234"/>
       <use xlink:href="#ArialMT-30" x="111.230469"/>
      </g>
     </g>
    </g>
    <g id="xtick_4">
     <g id="line2d_4">
      <path d="M 258.811364 256.32 
L 258.811364 34.56 
" clip-path="url(#pa009a91439)" style="fill: none; stroke: #ffffff; stroke-width: 0.8; stroke-linecap: round"/>
     </g>
     <g id="text_4">
      <!-- 300 -->
      <g style="fill: #262626" transform="translate(250.469957 270.477813) scale(0.1 -0.1)">
       <defs>
        <path id="ArialMT-33" d="M 269 1209 
L 831 1284 
Q 928 806 1161 595 
Q 1394 384 1728 384 
Q 2125 384 2398 659 
Q 2672 934 2672 1341 
Q 2672 1728 2419 1979 
Q 2166 2231 1775 2231 
Q 1616 2231 1378 2169 
L 1441 2663 
Q 1497 2656 1531 2656 
Q 1891 2656 2178 2843 
Q 2466 3031 2466 3422 
Q 2466 3731 2256 3934 
Q 2047 4138 1716 4138 
Q 1388 4138 1169 3931 
Q 950 3725 888 3313 
L 325 3413 
Q 428 3978 793 4289 
Q 1159 4600 1703 4600 
Q 2078 4600 2393 4439 
Q 2709 4278 2876 4000 
Q 3044 3722 3044 3409 
Q 3044 3113 2884 2869 
Q 2725 2625 2413 2481 
Q 2819 2388 3044 2092 
Q 3269 1797 3269 1353 
Q 3269 753 2831 336 
Q 2394 -81 1725 -81 
Q 1122 -81 723 278 
Q 325 638 269 1209 
z
" transform="scale(0.015625)"/>
       </defs>
       <use xlink:href="#ArialMT-33"/>
       <use xlink:href="#ArialMT-30" x="55.615234"/>
       <use xlink:href="#ArialMT-30" x="111.230469"/>
      </g>
     </g>
    </g>
    <g id="xtick_5">
     <g id="line2d_5">
      <path d="M 322.220455 256.32 
L 322.220455 34.56 
" clip-path="url(#pa009a91439)" style="fill: none; stroke: #ffffff; stroke-width: 0.8; stroke-linecap: round"/>
     </g>
     <g id="text_5">
      <!-- 400 -->
      <g style="fill: #262626" transform="translate(313.879048 270.477813) scale(0.1 -0.1)">
       <defs>
        <path id="ArialMT-34" d="M 2069 0 
L 2069 1097 
L 81 1097 
L 81 1613 
L 2172 4581 
L 2631 4581 
L 2631 1613 
L 3250 1613 
L 3250 1097 
L 2631 1097 
L 2631 0 
L 2069 0 
z
M 2069 1613 
L 2069 3678 
L 634 1613 
L 2069 1613 
z
" transform="scale(0.015625)"/>
       </defs>
       <use xlink:href="#ArialMT-34"/>
       <use xlink:href="#ArialMT-30" x="55.615234"/>
       <use xlink:href="#ArialMT-30" x="111.230469"/>
      </g>
     </g>
    </g>
    <g id="xtick_6">
     <g id="line2d_6">
      <path d="M 385.629545 256.32 
L 385.629545 34.56 
" clip-path="url(#pa009a91439)" style="fill: none; stroke: #ffffff; stroke-width: 0.8; stroke-linecap: round"/>
     </g>
     <g id="text_6">
      <!-- 500 -->
      <g style="fill: #262626" transform="translate(377.288139 270.477813) scale(0.1 -0.1)">
       <defs>
        <path id="ArialMT-35" d="M 266 1200 
L 856 1250 
Q 922 819 1161 601 
Q 1400 384 1738 384 
Q 2144 384 2425 690 
Q 2706 997 2706 1503 
Q 2706 1984 2436 2262 
Q 2166 2541 1728 2541 
Q 1456 2541 1237 2417 
Q 1019 2294 894 2097 
L 366 2166 
L 809 4519 
L 3088 4519 
L 3088 3981 
L 1259 3981 
L 1013 2750 
Q 1425 3038 1878 3038 
Q 2478 3038 2890 2622 
Q 3303 2206 3303 1553 
Q 3303 931 2941 478 
Q 2500 -78 1738 -78 
Q 1113 -78 717 272 
Q 322 622 266 1200 
z
" transform="scale(0.015625)"/>
       </defs>
       <use xlink:href="#ArialMT-35"/>
       <use xlink:href="#ArialMT-30" x="55.615234"/>
       <use xlink:href="#ArialMT-30" x="111.230469"/>
      </g>
     </g>
    </g>
    <g id="text_7">
     <!-- Residue number -->
     <g style="fill: #262626" transform="translate(184.715625 283.623125) scale(0.1 -0.1)">
      <defs>
       <path id="ArialMT-52" d="M 503 0 
L 503 4581 
L 2534 4581 
Q 3147 4581 3465 4457 
Q 3784 4334 3975 4021 
Q 4166 3709 4166 3331 
Q 4166 2844 3850 2509 
Q 3534 2175 2875 2084 
Q 3116 1969 3241 1856 
Q 3506 1613 3744 1247 
L 4541 0 
L 3778 0 
L 3172 953 
Q 2906 1366 2734 1584 
Q 2563 1803 2427 1890 
Q 2291 1978 2150 2013 
Q 2047 2034 1813 2034 
L 1109 2034 
L 1109 0 
L 503 0 
z
M 1109 2559 
L 2413 2559 
Q 2828 2559 3062 2645 
Q 3297 2731 3419 2920 
Q 3541 3109 3541 3331 
Q 3541 3656 3305 3865 
Q 3069 4075 2559 4075 
L 1109 4075 
L 1109 2559 
z
" transform="scale(0.015625)"/>
       <path id="ArialMT-65" d="M 2694 1069 
L 3275 997 
Q 3138 488 2766 206 
Q 2394 -75 1816 -75 
Q 1088 -75 661 373 
Q 234 822 234 1631 
Q 234 2469 665 2931 
Q 1097 3394 1784 3394 
Q 2450 3394 2872 2941 
Q 3294 2488 3294 1666 
Q 3294 1616 3291 1516 
L 816 1516 
Q 847 969 1125 678 
Q 1403 388 1819 388 
Q 2128 388 2347 550 
Q 2566 713 2694 1069 
z
M 847 1978 
L 2700 1978 
Q 2663 2397 2488 2606 
Q 2219 2931 1791 2931 
Q 1403 2931 1139 2672 
Q 875 2413 847 1978 
z
" transform="scale(0.015625)"/>
       <path id="ArialMT-73" d="M 197 991 
L 753 1078 
Q 800 744 1014 566 
Q 1228 388 1613 388 
Q 2000 388 2187 545 
Q 2375 703 2375 916 
Q 2375 1106 2209 1216 
Q 2094 1291 1634 1406 
Q 1016 1563 777 1677 
Q 538 1791 414 1992 
Q 291 2194 291 2438 
Q 291 2659 392 2848 
Q 494 3038 669 3163 
Q 800 3259 1026 3326 
Q 1253 3394 1513 3394 
Q 1903 3394 2198 3281 
Q 2494 3169 2634 2976 
Q 2775 2784 2828 2463 
L 2278 2388 
Q 2241 2644 2061 2787 
Q 1881 2931 1553 2931 
Q 1166 2931 1000 2803 
Q 834 2675 834 2503 
Q 834 2394 903 2306 
Q 972 2216 1119 2156 
Q 1203 2125 1616 2013 
Q 2213 1853 2448 1751 
Q 2684 1650 2818 1456 
Q 2953 1263 2953 975 
Q 2953 694 2789 445 
Q 2625 197 2315 61 
Q 2006 -75 1616 -75 
Q 969 -75 630 194 
Q 291 463 197 991 
z
" transform="scale(0.015625)"/>
       <path id="ArialMT-69" d="M 425 3934 
L 425 4581 
L 988 4581 
L 988 3934 
L 425 3934 
z
M 425 0 
L 425 3319 
L 988 3319 
L 988 0 
L 425 0 
z
" transform="scale(0.015625)"/>
       <path id="ArialMT-64" d="M 2575 0 
L 2575 419 
Q 2259 -75 1647 -75 
Q 1250 -75 917 144 
Q 584 363 401 755 
Q 219 1147 219 1656 
Q 219 2153 384 2558 
Q 550 2963 881 3178 
Q 1213 3394 1622 3394 
Q 1922 3394 2156 3267 
Q 2391 3141 2538 2938 
L 2538 4581 
L 3097 4581 
L 3097 0 
L 2575 0 
z
M 797 1656 
Q 797 1019 1065 703 
Q 1334 388 1700 388 
Q 2069 388 2326 689 
Q 2584 991 2584 1609 
Q 2584 2291 2321 2609 
Q 2059 2928 1675 2928 
Q 1300 2928 1048 2622 
Q 797 2316 797 1656 
z
" transform="scale(0.015625)"/>
       <path id="ArialMT-75" d="M 2597 0 
L 2597 488 
Q 2209 -75 1544 -75 
Q 1250 -75 995 37 
Q 741 150 617 320 
Q 494 491 444 738 
Q 409 903 409 1263 
L 409 3319 
L 972 3319 
L 972 1478 
Q 972 1038 1006 884 
Q 1059 663 1231 536 
Q 1403 409 1656 409 
Q 1909 409 2131 539 
Q 2353 669 2445 892 
Q 2538 1116 2538 1541 
L 2538 3319 
L 3100 3319 
L 3100 0 
L 2597 0 
z
" transform="scale(0.015625)"/>
       <path id="ArialMT-20" transform="scale(0.015625)"/>
       <path id="ArialMT-6e" d="M 422 0 
L 422 3319 
L 928 3319 
L 928 2847 
Q 1294 3394 1984 3394 
Q 2284 3394 2536 3286 
Q 2788 3178 2913 3003 
Q 3038 2828 3088 2588 
Q 3119 2431 3119 2041 
L 3119 0 
L 2556 0 
L 2556 2019 
Q 2556 2363 2490 2533 
Q 2425 2703 2258 2804 
Q 2091 2906 1866 2906 
Q 1506 2906 1245 2678 
Q 984 2450 984 1813 
L 984 0 
L 422 0 
z
" transform="scale(0.015625)"/>
       <path id="ArialMT-6d" d="M 422 0 
L 422 3319 
L 925 3319 
L 925 2853 
Q 1081 3097 1340 3245 
Q 1600 3394 1931 3394 
Q 2300 3394 2536 3241 
Q 2772 3088 2869 2813 
Q 3263 3394 3894 3394 
Q 4388 3394 4653 3120 
Q 4919 2847 4919 2278 
L 4919 0 
L 4359 0 
L 4359 2091 
Q 4359 2428 4304 2576 
Q 4250 2725 4106 2815 
Q 3963 2906 3769 2906 
Q 3419 2906 3187 2673 
Q 2956 2441 2956 1928 
L 2956 0 
L 2394 0 
L 2394 2156 
Q 2394 2531 2256 2718 
Q 2119 2906 1806 2906 
Q 1569 2906 1367 2781 
Q 1166 2656 1075 2415 
Q 984 2175 984 1722 
L 984 0 
L 422 0 
z
" transform="scale(0.015625)"/>
       <path id="ArialMT-62" d="M 941 0 
L 419 0 
L 419 4581 
L 981 4581 
L 981 2947 
Q 1338 3394 1891 3394 
Q 2197 3394 2470 3270 
Q 2744 3147 2920 2923 
Q 3097 2700 3197 2384 
Q 3297 2069 3297 1709 
Q 3297 856 2875 390 
Q 2453 -75 1863 -75 
Q 1275 -75 941 416 
L 941 0 
z
M 934 1684 
Q 934 1088 1097 822 
Q 1363 388 1816 388 
Q 2184 388 2453 708 
Q 2722 1028 2722 1663 
Q 2722 2313 2464 2622 
Q 2206 2931 1841 2931 
Q 1472 2931 1203 2611 
Q 934 2291 934 1684 
z
" transform="scale(0.015625)"/>
       <path id="ArialMT-72" d="M 416 0 
L 416 3319 
L 922 3319 
L 922 2816 
Q 1116 3169 1280 3281 
Q 1444 3394 1641 3394 
Q 1925 3394 2219 3213 
L 2025 2691 
Q 1819 2813 1613 2813 
Q 1428 2813 1281 2702 
Q 1134 2591 1072 2394 
Q 978 2094 978 1738 
L 978 0 
L 416 0 
z
" transform="scale(0.015625)"/>
      </defs>
      <use xlink:href="#ArialMT-52"/>
      <use xlink:href="#ArialMT-65" x="72.216797"/>
      <use xlink:href="#ArialMT-73" x="127.832031"/>
      <use xlink:href="#ArialMT-69" x="177.832031"/>
      <use xlink:href="#ArialMT-64" x="200.048828"/>
      <use xlink:href="#ArialMT-75" x="255.664062"/>
      <use xlink:href="#ArialMT-65" x="311.279297"/>
      <use xlink:href="#ArialMT-20" x="366.894531"/>
      <use xlink:href="#ArialMT-6e" x="394.677734"/>
      <use xlink:href="#ArialMT-75" x="450.292969"/>
      <use xlink:href="#ArialMT-6d" x="505.908203"/>
      <use xlink:href="#ArialMT-62" x="589.208984"/>
      <use xlink:href="#ArialMT-65" x="644.824219"/>
      <use xlink:href="#ArialMT-72" x="700.439453"/>
     </g>
    </g>
   </g>
   <g id="matplotlib.axis_2">
    <g id="ytick_1">
     <g id="line2d_7">
      <path d="M 54 249.84 
L 388.8 249.84 
" clip-path="url(#pa009a91439)" style="fill: none; stroke: #ffffff; stroke-width: 0.8; stroke-linecap: round"/>
     </g>
     <g id="text_8">
      <!-- 20 -->
      <g style="fill: #262626" transform="translate(35.878125 253.418906) scale(0.1 -0.1)">
       <use xlink:href="#ArialMT-32"/>
       <use xlink:href="#ArialMT-30" x="55.615234"/>
      </g>
     </g>
    </g>
    <g id="ytick_2">
     <g id="line2d_8">
      <path d="M 54 214.888544 
L 388.8 214.888544 
" clip-path="url(#pa009a91439)" style="fill: none; stroke: #ffffff; stroke-width: 0.8; stroke-linecap: round"/>
     </g>
     <g id="text_9">
      <!-- 30 -->
      <g style="fill: #262626" transform="translate(35.878125 218.46745) scale(0.1 -0.1)">
       <use xlink:href="#ArialMT-33"/>
       <use xlink:href="#ArialMT-30" x="55.615234"/>
      </g>
     </g>
    </g>
    <g id="ytick_3">
     <g id="line2d_9">
      <path d="M 54 179.937087 
L 388.8 179.937087 
" clip-path="url(#pa009a91439)" style="fill: none; stroke: #ffffff; stroke-width: 0.8; stroke-linecap: round"/>
     </g>
     <g id="text_10">
      <!-- 40 -->
      <g style="fill: #262626" transform="translate(35.878125 183.515994) scale(0.1 -0.1)">
       <use xlink:href="#ArialMT-34"/>
       <use xlink:href="#ArialMT-30" x="55.615234"/>
      </g>
     </g>
    </g>
    <g id="ytick_4">
     <g id="line2d_10">
      <path d="M 54 144.985631 
L 388.8 144.985631 
" clip-path="url(#pa009a91439)" style="fill: none; stroke: #ffffff; stroke-width: 0.8; stroke-linecap: round"/>
     </g>
     <g id="text_11">
      <!-- 50 -->
      <g style="fill: #262626" transform="translate(35.878125 148.564537) scale(0.1 -0.1)">
       <use xlink:href="#ArialMT-35"/>
       <use xlink:href="#ArialMT-30" x="55.615234"/>
      </g>
     </g>
    </g>
    <g id="ytick_5">
     <g id="line2d_11">
      <path d="M 54 110.034175 
L 388.8 110.034175 
" clip-path="url(#pa009a91439)" style="fill: none; stroke: #ffffff; stroke-width: 0.8; stroke-linecap: round"/>
     </g>
     <g id="text_12">
      <!-- 60 -->
      <g style="fill: #262626" transform="translate(35.878125 113.613081) scale(0.1 -0.1)">
       <defs>
        <path id="ArialMT-36" d="M 3184 3459 
L 2625 3416 
Q 2550 3747 2413 3897 
Q 2184 4138 1850 4138 
Q 1581 4138 1378 3988 
Q 1113 3794 959 3422 
Q 806 3050 800 2363 
Q 1003 2672 1297 2822 
Q 1591 2972 1913 2972 
Q 2475 2972 2870 2558 
Q 3266 2144 3266 1488 
Q 3266 1056 3080 686 
Q 2894 316 2569 119 
Q 2244 -78 1831 -78 
Q 1128 -78 684 439 
Q 241 956 241 2144 
Q 241 3472 731 4075 
Q 1159 4600 1884 4600 
Q 2425 4600 2770 4297 
Q 3116 3994 3184 3459 
z
M 888 1484 
Q 888 1194 1011 928 
Q 1134 663 1356 523 
Q 1578 384 1822 384 
Q 2178 384 2434 671 
Q 2691 959 2691 1453 
Q 2691 1928 2437 2201 
Q 2184 2475 1800 2475 
Q 1419 2475 1153 2201 
Q 888 1928 888 1484 
z
" transform="scale(0.015625)"/>
       </defs>
       <use xlink:href="#ArialMT-36"/>
       <use xlink:href="#ArialMT-30" x="55.615234"/>
      </g>
     </g>
    </g>
    <g id="ytick_6">
     <g id="line2d_12">
      <path d="M 54 75.082718 
L 388.8 75.082718 
" clip-path="url(#pa009a91439)" style="fill: none; stroke: #ffffff; stroke-width: 0.8; stroke-linecap: round"/>
     </g>
     <g id="text_13">
      <!-- 70 -->
      <g style="fill: #262626" transform="translate(35.878125 78.661625) scale(0.1 -0.1)">
       <defs>
        <path id="ArialMT-37" d="M 303 3981 
L 303 4522 
L 3269 4522 
L 3269 4084 
Q 2831 3619 2401 2847 
Q 1972 2075 1738 1259 
Q 1569 684 1522 0 
L 944 0 
Q 953 541 1156 1306 
Q 1359 2072 1739 2783 
Q 2119 3494 2547 3981 
L 303 3981 
z
" transform="scale(0.015625)"/>
       </defs>
       <use xlink:href="#ArialMT-37"/>
       <use xlink:href="#ArialMT-30" x="55.615234"/>
      </g>
     </g>
    </g>
    <g id="ytick_7">
     <g id="line2d_13">
      <path d="M 54 40.131262 
L 388.8 40.131262 
" clip-path="url(#pa009a91439)" style="fill: none; stroke: #ffffff; stroke-width: 0.8; stroke-linecap: round"/>
     </g>
     <g id="text_14">
      <!-- 80 -->
      <g style="fill: #262626" transform="translate(35.878125 43.710168) scale(0.1 -0.1)">
       <defs>
        <path id="ArialMT-38" d="M 1131 2484 
Q 781 2613 612 2850 
Q 444 3088 444 3419 
Q 444 3919 803 4259 
Q 1163 4600 1759 4600 
Q 2359 4600 2725 4251 
Q 3091 3903 3091 3403 
Q 3091 3084 2923 2848 
Q 2756 2613 2416 2484 
Q 2838 2347 3058 2040 
Q 3278 1734 3278 1309 
Q 3278 722 2862 322 
Q 2447 -78 1769 -78 
Q 1091 -78 675 323 
Q 259 725 259 1325 
Q 259 1772 486 2073 
Q 713 2375 1131 2484 
z
M 1019 3438 
Q 1019 3113 1228 2906 
Q 1438 2700 1772 2700 
Q 2097 2700 2305 2904 
Q 2513 3109 2513 3406 
Q 2513 3716 2298 3927 
Q 2084 4138 1766 4138 
Q 1444 4138 1231 3931 
Q 1019 3725 1019 3438 
z
M 838 1322 
Q 838 1081 952 856 
Q 1066 631 1291 507 
Q 1516 384 1775 384 
Q 2178 384 2440 643 
Q 2703 903 2703 1303 
Q 2703 1709 2433 1975 
Q 2163 2241 1756 2241 
Q 1359 2241 1098 1978 
Q 838 1716 838 1322 
z
" transform="scale(0.015625)"/>
       </defs>
       <use xlink:href="#ArialMT-38"/>
       <use xlink:href="#ArialMT-30" x="55.615234"/>
      </g>
     </g>
    </g>
    <g id="text_15">
     <!-- B-factor ($\AA^2$) -->
     <g style="fill: #262626" transform="translate(29.678125 173.94) rotate(-90) scale(0.1 -0.1)">
      <defs>
       <path id="ArialMT-42" d="M 469 0 
L 469 4581 
L 2188 4581 
Q 2713 4581 3030 4442 
Q 3347 4303 3526 4014 
Q 3706 3725 3706 3409 
Q 3706 3116 3547 2856 
Q 3388 2597 3066 2438 
Q 3481 2316 3704 2022 
Q 3928 1728 3928 1328 
Q 3928 1006 3792 729 
Q 3656 453 3456 303 
Q 3256 153 2954 76 
Q 2653 0 2216 0 
L 469 0 
z
M 1075 2656 
L 2066 2656 
Q 2469 2656 2644 2709 
Q 2875 2778 2992 2937 
Q 3109 3097 3109 3338 
Q 3109 3566 3000 3739 
Q 2891 3913 2687 3977 
Q 2484 4041 1991 4041 
L 1075 4041 
L 1075 2656 
z
M 1075 541 
L 2216 541 
Q 2509 541 2628 563 
Q 2838 600 2978 687 
Q 3119 775 3209 942 
Q 3300 1109 3300 1328 
Q 3300 1584 3169 1773 
Q 3038 1963 2805 2039 
Q 2572 2116 2134 2116 
L 1075 2116 
L 1075 541 
z
" transform="scale(0.015625)"/>
       <path id="ArialMT-2d" d="M 203 1375 
L 203 1941 
L 1931 1941 
L 1931 1375 
L 203 1375 
z
" transform="scale(0.015625)"/>
       <path id="ArialMT-66" d="M 556 0 
L 556 2881 
L 59 2881 
L 59 3319 
L 556 3319 
L 556 3672 
Q 556 4006 616 4169 
Q 697 4388 901 4523 
Q 1106 4659 1475 4659 
Q 1713 4659 2000 4603 
L 1916 4113 
Q 1741 4144 1584 4144 
Q 1328 4144 1222 4034 
Q 1116 3925 1116 3625 
L 1116 3319 
L 1763 3319 
L 1763 2881 
L 1116 2881 
L 1116 0 
L 556 0 
z
" transform="scale(0.015625)"/>
       <path id="ArialMT-61" d="M 2588 409 
Q 2275 144 1986 34 
Q 1697 -75 1366 -75 
Q 819 -75 525 192 
Q 231 459 231 875 
Q 231 1119 342 1320 
Q 453 1522 633 1644 
Q 813 1766 1038 1828 
Q 1203 1872 1538 1913 
Q 2219 1994 2541 2106 
Q 2544 2222 2544 2253 
Q 2544 2597 2384 2738 
Q 2169 2928 1744 2928 
Q 1347 2928 1158 2789 
Q 969 2650 878 2297 
L 328 2372 
Q 403 2725 575 2942 
Q 747 3159 1072 3276 
Q 1397 3394 1825 3394 
Q 2250 3394 2515 3294 
Q 2781 3194 2906 3042 
Q 3031 2891 3081 2659 
Q 3109 2516 3109 2141 
L 3109 1391 
Q 3109 606 3145 398 
Q 3181 191 3288 0 
L 2700 0 
Q 2613 175 2588 409 
z
M 2541 1666 
Q 2234 1541 1622 1453 
Q 1275 1403 1131 1340 
Q 988 1278 909 1158 
Q 831 1038 831 891 
Q 831 666 1001 516 
Q 1172 366 1500 366 
Q 1825 366 2078 508 
Q 2331 650 2450 897 
Q 2541 1088 2541 1459 
L 2541 1666 
z
" transform="scale(0.015625)"/>
       <path id="ArialMT-63" d="M 2588 1216 
L 3141 1144 
Q 3050 572 2676 248 
Q 2303 -75 1759 -75 
Q 1078 -75 664 370 
Q 250 816 250 1647 
Q 250 2184 428 2587 
Q 606 2991 970 3192 
Q 1334 3394 1763 3394 
Q 2303 3394 2647 3120 
Q 2991 2847 3088 2344 
L 2541 2259 
Q 2463 2594 2264 2762 
Q 2066 2931 1784 2931 
Q 1359 2931 1093 2626 
Q 828 2322 828 1663 
Q 828 994 1084 691 
Q 1341 388 1753 388 
Q 2084 388 2306 591 
Q 2528 794 2588 1216 
z
" transform="scale(0.015625)"/>
       <path id="ArialMT-74" d="M 1650 503 
L 1731 6 
Q 1494 -44 1306 -44 
Q 1000 -44 831 53 
Q 663 150 594 308 
Q 525 466 525 972 
L 525 2881 
L 113 2881 
L 113 3319 
L 525 3319 
L 525 4141 
L 1084 4478 
L 1084 3319 
L 1650 3319 
L 1650 2881 
L 1084 2881 
L 1084 941 
Q 1084 700 1114 631 
Q 1144 563 1211 522 
Q 1278 481 1403 481 
Q 1497 481 1650 503 
z
" transform="scale(0.015625)"/>
       <path id="ArialMT-6f" d="M 213 1659 
Q 213 2581 725 3025 
Q 1153 3394 1769 3394 
Q 2453 3394 2887 2945 
Q 3322 2497 3322 1706 
Q 3322 1066 3130 698 
Q 2938 331 2570 128 
Q 2203 -75 1769 -75 
Q 1072 -75 642 372 
Q 213 819 213 1659 
z
M 791 1659 
Q 791 1022 1069 705 
Q 1347 388 1769 388 
Q 2188 388 2466 706 
Q 2744 1025 2744 1678 
Q 2744 2294 2464 2611 
Q 2184 2928 1769 2928 
Q 1347 2928 1069 2612 
Q 791 2297 791 1659 
z
" transform="scale(0.015625)"/>
       <path id="ArialMT-28" d="M 1497 -1347 
Q 1031 -759 709 28 
Q 388 816 388 1659 
Q 388 2403 628 3084 
Q 909 3875 1497 4659 
L 1900 4659 
Q 1522 4009 1400 3731 
Q 1209 3300 1100 2831 
Q 966 2247 966 1656 
Q 966 153 1900 -1347 
L 1497 -1347 
z
" transform="scale(0.015625)"/>
       <path id="DejaVuSans-Oblique-c5" d="M 3188 5081 
Q 3188 5278 3048 5417 
Q 2909 5556 2713 5556 
Q 2513 5556 2377 5420 
Q 2241 5284 2241 5081 
Q 2241 4884 2377 4746 
Q 2513 4609 2713 4609 
Q 2909 4609 3048 4746 
Q 3188 4884 3188 5081 
z
M 2203 4397 
Q 2034 4513 1945 4689 
Q 1856 4866 1856 5081 
Q 1856 5438 2106 5689 
Q 2356 5941 2713 5941 
Q 3069 5941 3320 5689 
Q 3572 5438 3572 5081 
Q 3572 4834 3458 4643 
Q 3344 4453 3128 4341 
L 3938 0 
L 3278 0 
L 3084 1197 
L 984 1197 
L 325 0 
L -341 0 
L 2203 4397 
z
M 2584 4044 
L 1275 1722 
L 2988 1722 
L 2584 4044 
z
" transform="scale(0.015625)"/>
       <path id="DejaVuSans-32" d="M 1228 531 
L 3431 531 
L 3431 0 
L 469 0 
L 469 531 
Q 828 903 1448 1529 
Q 2069 2156 2228 2338 
Q 2531 2678 2651 2914 
Q 2772 3150 2772 3378 
Q 2772 3750 2511 3984 
Q 2250 4219 1831 4219 
Q 1534 4219 1204 4116 
Q 875 4013 500 3803 
L 500 4441 
Q 881 4594 1212 4672 
Q 1544 4750 1819 4750 
Q 2544 4750 2975 4387 
Q 3406 4025 3406 3419 
Q 3406 3131 3298 2873 
Q 3191 2616 2906 2266 
Q 2828 2175 2409 1742 
Q 1991 1309 1228 531 
z
" transform="scale(0.015625)"/>
       <path id="ArialMT-29" d="M 791 -1347 
L 388 -1347 
Q 1322 153 1322 1656 
Q 1322 2244 1188 2822 
Q 1081 3291 891 3722 
Q 769 4003 388 4659 
L 791 4659 
Q 1378 3875 1659 3084 
Q 1900 2403 1900 1659 
Q 1900 816 1576 28 
Q 1253 -759 791 -1347 
z
" transform="scale(0.015625)"/>
      </defs>
      <use xlink:href="#ArialMT-42" transform="translate(0 0.171875)"/>
      <use xlink:href="#ArialMT-2d" transform="translate(66.699219 0.171875)"/>
      <use xlink:href="#ArialMT-66" transform="translate(100 0.171875)"/>
      <use xlink:href="#ArialMT-61" transform="translate(127.783203 0.171875)"/>
      <use xlink:href="#ArialMT-63" transform="translate(183.398438 0.171875)"/>
      <use xlink:href="#ArialMT-74" transform="translate(233.398438 0.171875)"/>
      <use xlink:href="#ArialMT-6f" transform="translate(261.181641 0.171875)"/>
      <use xlink:href="#ArialMT-72" transform="translate(316.796875 0.171875)"/>
      <use xlink:href="#ArialMT-20" transform="translate(350.097656 0.171875)"/>
      <use xlink:href="#ArialMT-28" transform="translate(377.880859 0.171875)"/>
      <use xlink:href="#DejaVuSans-Oblique-c5" transform="translate(411.181641 0.171875)"/>
      <use xlink:href="#DejaVuSans-32" transform="translate(489.395677 38.453125) scale(0.7)"/>
      <use xlink:href="#ArialMT-29" transform="translate(536.666185 0.171875)"/>
     </g>
    </g>
   </g>
   <g id="PolyCollection_1"/>
   <g id="PolyCollection_2"/>
   <g id="line2d_14">
    <path d="M 69.218182 194.159923 
L 69.852273 208.689011 
L 70.486364 204.426894 
L 71.120455 209.095812 
L 71.754545 203.053542 
L 72.388636 202.456228 
L 73.022727 204.355024 
L 73.656818 197.256013 
L 74.290909 193.087826 
L 74.925 200.184141 
L 75.559091 205.125193 
L 76.827273 212.539874 
L 77.461364 215.013086 
L 78.095455 220.379556 
L 78.729545 216.258244 
L 79.997727 204.834418 
L 80.631818 195.511096 
L 81.265909 191.936394 
L 81.9 179.672493 
L 83.168182 172.238068 
L 83.802273 170.460969 
L 84.436364 171.881068 
L 85.070455 177.256376 
L 85.704545 173.651241 
L 86.338636 181.289958 
L 86.972727 180.217519 
L 87.606818 184.666514 
L 88.240909 186.664293 
L 88.875 190.542389 
L 90.777273 214.889075 
L 91.411364 220.633298 
L 92.045455 220.914033 
L 92.679545 230.62353 
L 93.313636 222.983487 
L 94.581818 225.922179 
L 95.215909 231.69959 
L 95.85 232.980553 
L 96.484091 226.351744 
L 97.118182 224.872621 
L 97.752273 227.788395 
L 98.386364 222.855736 
L 99.020455 219.211549 
L 100.288636 219.158563 
L 100.922727 219.872599 
L 101.556818 219.13591 
L 102.190909 217.309403 
L 102.825 214.369939 
L 103.459091 213.165571 
L 104.093182 210.579232 
L 104.727273 209.347185 
L 105.361364 202.972628 
L 106.629545 197.695068 
L 107.263636 195.127655 
L 107.897727 196.469513 
L 109.165909 184.929391 
L 109.8 190.290297 
L 110.434091 188.731845 
L 111.068182 195.17361 
L 111.702273 194.241947 
L 112.336364 201.322099 
L 112.970455 195.42967 
L 113.604545 196.101968 
L 114.238636 202.455897 
L 114.872727 192.682643 
L 115.506818 188.784271 
L 116.140909 181.672357 
L 116.775 185.777276 
L 117.409091 185.521601 
L 118.043182 191.823307 
L 118.677273 194.979736 
L 119.311364 195.175948 
L 119.945455 202.745444 
L 120.579545 205.412157 
L 121.213636 204.72338 
L 121.847727 206.130572 
L 122.481818 217.437158 
L 123.75 206.708164 
L 124.384091 207.683466 
L 125.018182 203.375647 
L 125.652273 204.079469 
L 126.286364 208.923185 
L 126.920455 218.121725 
L 127.554545 229.509556 
L 128.188636 217.85358 
L 128.822727 213.045955 
L 129.456818 214.251463 
L 130.090909 213.054518 
L 130.725 218.008085 
L 131.359091 220.126197 
L 131.993182 220.609593 
L 132.627273 223.018334 
L 133.261364 224.69982 
L 133.895455 223.604001 
L 134.529545 222.176244 
L 135.163636 221.296455 
L 135.797727 220.032601 
L 137.065909 218.065976 
L 137.7 215.17238 
L 138.334091 211.338419 
L 138.968182 210.799479 
L 139.602273 207.889084 
L 140.236364 205.73827 
L 141.504545 199.656096 
L 142.138636 192.92862 
L 142.772727 191.665029 
L 143.406818 188.064806 
L 144.040909 186.516268 
L 144.675 184.256867 
L 145.309091 179.964812 
L 145.943182 180.940725 
L 147.211364 172.318981 
L 147.845455 174.827779 
L 148.479545 176.550422 
L 150.381818 192.110452 
L 151.015909 201.050637 
L 151.65 203.230504 
L 152.284091 207.528621 
L 152.918182 213.314065 
L 153.552273 215.909721 
L 154.186364 217.035824 
L 154.820455 217.491686 
L 155.454545 214.646679 
L 156.088636 214.588385 
L 156.722727 213.551958 
L 157.356818 211.308802 
L 157.990909 222.827788 
L 158.625 220.406487 
L 159.259091 225.173634 
L 160.527273 219.789993 
L 161.161364 222.162538 
L 161.795455 223.652621 
L 162.429545 226.870174 
L 163.063636 232.866028 
L 163.697727 233.010006 
L 164.331818 235.731191 
L 164.965909 170.171676 
L 165.6 170.313133 
L 166.234091 182.256707 
L 166.868182 183.71539 
L 167.502273 190.691213 
L 168.136364 196.334241 
L 168.770455 203.573243 
L 169.404545 206.961886 
L 170.038636 220.770605 
L 170.672727 231.343464 
L 171.306818 231.629084 
L 171.940909 229.051905 
L 172.575 228.482233 
L 173.209091 230.787727 
L 173.843182 233.718219 
L 174.477273 235.623699 
L 175.111364 233.57853 
L 175.745455 229.035539 
L 176.379545 225.406287 
L 177.013636 218.993555 
L 177.647727 217.066789 
L 178.281818 208.724238 
L 178.915909 206.14878 
L 180.818182 217.961043 
L 181.452273 220.706213 
L 182.086364 221.531799 
L 182.720455 224.668889 
L 183.354545 224.587859 
L 183.988636 216.185446 
L 184.622727 211.639255 
L 185.256818 202.429964 
L 185.890909 199.322793 
L 186.525 186.542579 
L 187.159091 182.670374 
L 187.793182 177.866894 
L 188.427273 175.499467 
L 189.061364 176.699183 
L 189.695455 182.092266 
L 190.329545 178.95902 
L 190.963636 187.222181 
L 191.597727 186.470914 
L 192.231818 191.676448 
L 192.865909 195.020801 
L 193.5 197.383213 
L 194.134091 204.069418 
L 194.768182 209.178613 
L 195.402273 216.743106 
L 196.036364 221.024947 
L 196.670455 220.526905 
L 197.304545 225.903143 
L 197.938636 222.008623 
L 198.572727 223.512415 
L 199.206818 225.323621 
L 199.840909 230.221685 
L 200.475 230.385865 
L 201.109091 226.502454 
L 201.743182 225.733732 
L 202.377273 226.188156 
L 203.011364 223.142924 
L 203.645455 222.37091 
L 204.279545 223.214322 
L 204.913636 223.357535 
L 205.547727 225.138023 
L 206.181818 223.827692 
L 206.815909 223.448197 
L 207.45 220.540591 
L 208.084091 219.254209 
L 208.718182 217.095564 
L 209.352273 215.87343 
L 209.986364 210.919724 
L 210.620455 208.753175 
L 211.888636 201.964967 
L 212.522727 204.374208 
L 213.156818 198.891848 
L 213.790909 190.694268 
L 214.425 192.580412 
L 215.059091 193.2969 
L 215.693182 199.36065 
L 216.327273 200.184353 
L 216.961364 207.597792 
L 217.595455 201.663728 
L 218.229545 203.470509 
L 218.863636 207.974026 
L 219.497727 199.330554 
L 220.131818 195.398023 
L 220.765909 188.632779 
L 221.4 192.452135 
L 222.034091 192.087076 
L 222.668182 198.172609 
L 223.302273 200.976067 
L 223.936364 201.745847 
L 224.570455 208.776185 
L 225.204545 209.909715 
L 225.838636 209.499428 
L 226.472727 210.048442 
L 227.106818 218.925373 
L 227.740909 220.643937 
L 228.375 214.094969 
L 229.009091 214.944473 
L 229.643182 207.23864 
L 230.277273 206.443442 
L 230.911364 204.665892 
L 231.545455 209.876894 
L 232.179545 210.944576 
L 232.813636 225.971993 
L 233.447727 215.918184 
L 234.081818 222.401146 
L 234.715909 222.289638 
L 235.35 226.965393 
L 235.984091 226.503794 
L 236.618182 225.242262 
L 237.252273 228.5359 
L 237.886364 226.366892 
L 238.520455 226.894588 
L 239.788636 224.395798 
L 240.422727 226.18701 
L 241.056818 221.86659 
L 241.690909 221.007204 
L 242.325 217.984944 
L 242.959091 215.712319 
L 243.593182 215.250245 
L 244.227273 211.517871 
L 244.861364 210.164277 
L 246.129545 205.320116 
L 246.763636 200.911827 
L 247.397727 198.4275 
L 248.031818 194.689631 
L 248.665909 192.516154 
L 249.3 189.876382 
L 249.934091 184.678569 
L 250.568182 185.54014 
L 251.202273 179.634145 
L 251.836364 177.250952 
L 253.104545 183.121795 
L 255.006818 199.876953 
L 255.640909 208.62771 
L 256.275 210.260821 
L 256.909091 213.763913 
L 257.543182 219.144761 
L 258.177273 221.409123 
L 258.811364 223.032557 
L 259.445455 222.795461 
L 260.079545 220.972144 
L 261.347727 218.888164 
L 261.981818 217.058492 
L 262.615909 222.543099 
L 263.25 217.521555 
L 263.884091 223.500038 
L 264.518182 214.923696 
L 265.152273 210.222953 
L 265.786364 209.129873 
L 266.420455 208.57872 
L 267.054545 211.76131 
L 267.688636 205.500212 
L 268.322727 214.208675 
L 268.956818 201.048055 
L 269.590909 170.116921 
L 270.225 169.976566 
L 270.859091 181.549112 
L 271.493182 183.092382 
L 272.127273 190.486283 
L 272.761364 196.19789 
L 273.395455 207.668759 
L 274.029545 207.407206 
L 274.663636 222.205826 
L 275.297727 232.35905 
L 275.931818 232.534464 
L 276.565909 229.567727 
L 277.2 229.161652 
L 277.834091 231.325024 
L 278.468182 234.291228 
L 279.102273 234.861592 
L 279.736364 232.137349 
L 281.004545 223.912354 
L 281.638636 217.359823 
L 282.272727 215.127131 
L 282.906818 207.365487 
L 283.540909 202.848871 
L 284.809091 211.902119 
L 286.077273 218.575808 
L 286.711364 218.089874 
L 287.345455 216.843362 
L 287.979545 214.791001 
L 289.247727 206.10048 
L 289.881818 197.749224 
L 290.515909 194.561504 
L 291.15 182.282561 
L 292.418182 175.530068 
L 293.052273 173.48101 
L 293.686364 175.021835 
L 294.320455 181.158934 
L 294.954545 177.809372 
L 295.588636 186.550487 
L 296.222727 185.181856 
L 296.856818 189.238038 
L 297.490909 190.115272 
L 298.125 191.386722 
L 298.759091 196.229017 
L 299.393182 196.701465 
L 300.027273 200.931509 
L 300.661364 203.272031 
L 301.295455 198.88778 
L 301.929545 201.114684 
L 302.563636 205.684188 
L 303.197727 208.646217 
L 303.831818 213.777871 
L 304.465909 225.700179 
L 305.1 227.789583 
L 305.734091 218.875869 
L 306.368182 217.429135 
L 307.002273 222.998492 
L 307.636364 221.187813 
L 308.270455 219.006982 
L 308.904545 220.674408 
L 309.538636 221.849876 
L 310.172727 223.596979 
L 310.806818 222.525815 
L 311.440909 221.148087 
L 312.075 217.983025 
L 312.709091 216.745068 
L 313.343182 214.004442 
L 313.977273 213.47991 
L 314.611364 207.757373 
L 315.245455 205.779166 
L 315.879545 202.453071 
L 316.513636 199.747707 
L 317.147727 200.744267 
L 317.781818 195.821782 
L 318.415909 188.526373 
L 319.05 190.675759 
L 319.684091 191.707453 
L 320.318182 199.132605 
L 320.952273 198.781085 
L 321.586364 206.291883 
L 322.220455 199.181844 
L 322.854545 199.966511 
L 323.488636 205.058806 
L 324.122727 196.17621 
L 324.756818 195.276151 
L 325.390909 188.62611 
L 326.025 193.535864 
L 326.659091 192.224548 
L 327.293182 199.603782 
L 327.927273 202.805288 
L 328.561364 202.512022 
L 329.195455 210.238999 
L 329.829545 213.389932 
L 330.463636 211.174023 
L 331.097727 210.113468 
L 331.731818 218.402692 
L 332.365909 219.49129 
L 333 213.257795 
L 333.634091 213.259816 
L 334.268182 205.862641 
L 334.902273 201.938724 
L 335.536364 203.222776 
L 336.170455 209.187611 
L 336.804545 210.998397 
L 337.438636 227.231389 
L 338.072727 214.70827 
L 338.706818 221.23722 
L 339.340909 220.826483 
L 339.975 225.476103 
L 340.609091 225.238946 
L 341.243182 227.158379 
L 341.877273 225.005892 
L 342.511364 229.877933 
L 343.145455 227.438874 
L 343.779545 226.132593 
L 344.413636 220.221305 
L 345.047727 222.119402 
L 345.681818 216.643072 
L 346.315909 215.486943 
L 346.95 211.229441 
L 347.584091 208.946282 
L 348.218182 208.614995 
L 348.852273 203.484294 
L 349.486364 203.178847 
L 350.120455 201.86335 
L 350.754545 200.211162 
L 351.388636 196.495628 
L 352.022727 195.022134 
L 353.925 188.945228 
L 354.559091 183.382312 
L 355.193182 184.331978 
L 355.827273 177.848129 
L 356.461364 175.318596 
L 357.095455 177.690559 
L 357.729545 179.443064 
L 358.363636 184.195662 
L 359.631818 195.761582 
L 360.265909 205.011277 
L 360.9 206.352684 
L 361.534091 209.945228 
L 362.168182 214.575089 
L 363.436364 219.534271 
L 364.070455 219.887097 
L 364.704545 218.747841 
L 365.972727 217.043495 
L 366.606818 216.458072 
L 367.240909 225.108304 
L 367.875 222.934932 
L 368.509091 227.076383 
L 369.143182 222.59284 
L 369.777273 219.475802 
L 371.045455 222.375848 
L 371.679545 225.70993 
L 372.313636 232.580693 
L 372.947727 232.608029 
L 373.581818 235.282173 
L 373.581818 235.282173 
" clip-path="url(#pa009a91439)" style="fill: none; stroke: #1f77b4; stroke-width: 1.5; stroke-linecap: round"/>
   </g>
   <g id="line2d_15">
    <path d="M 69.218182 44.64 
L 69.852273 64.667184 
L 71.754545 170.465243 
L 72.388636 175.218641 
L 73.022727 193.008932 
L 73.656818 192.904078 
L 74.290909 185.074951 
L 74.925 198.321553 
L 75.559091 207.548738 
L 76.193182 214.539029 
L 76.827273 224.709903 
L 77.461364 225.478835 
L 78.095455 232.888544 
L 78.729545 232.364272 
L 79.363636 225.82835 
L 79.997727 227.960388 
L 81.265909 213.175922 
L 81.9 210.170097 
L 82.534091 206.045825 
L 83.168182 196.08466 
L 83.802273 175.043883 
L 84.436364 188.744854 
L 85.070455 195.525437 
L 85.704545 207.933204 
L 86.972727 218.453592 
L 87.606818 227.99534 
L 88.240909 230.581748 
L 88.875 222.822524 
L 89.509091 220.900194 
L 90.143182 211.987573 
L 90.777273 220.480777 
L 91.411364 210.309903 
L 92.045455 189.373981 
L 92.679545 177.245825 
L 93.313636 200.313786 
L 93.947727 196.399223 
L 94.581818 199.370097 
L 95.215909 200.663301 
L 95.85 199.544854 
L 96.484091 201.991456 
L 97.118182 211.288544 
L 97.752273 218.87301 
L 98.386364 224.080777 
L 99.020455 213.490485 
L 99.654545 229.498252 
L 100.288636 232.818641 
L 100.922727 237.047767 
L 101.556818 246.24 
L 102.190909 244.107961 
L 102.825 241.486602 
L 104.093182 228.519612 
L 105.361364 220.131262 
L 105.995455 217.719612 
L 106.629545 211.218641 
L 108.531818 157.078835 
L 109.165909 170.849709 
L 109.8 191.436117 
L 110.434091 220.166214 
L 111.068182 226.492427 
L 111.702273 234.321553 
L 112.336364 234.740971 
L 112.970455 238.375922 
L 114.238636 217.544854 
L 114.872727 228.274951 
L 115.506818 215.377864 
L 116.140909 199.370097 
L 116.775 203.52932 
L 117.409091 214.224466 
L 118.043182 222.333204 
L 118.677273 226.597282 
L 119.311364 226.911845 
L 119.945455 228.379806 
L 120.579545 227.471068 
L 121.213636 236.838058 
L 121.847727 234.845825 
L 122.481818 235.509903 
L 123.115909 239.424466 
L 123.75 236.139029 
L 124.384091 216.00699 
L 125.018182 190.911845 
L 125.652273 187.556505 
L 126.286364 174.72932 
L 126.920455 164.348738 
L 127.554545 129.292427 
L 128.188636 132.682718 
L 128.822727 163.894369 
L 129.456818 201.257476 
L 130.090909 222.542913 
L 130.725 213.001165 
L 131.359091 229.987573 
L 131.993182 226.282718 
L 132.627273 215.27301 
L 133.261364 223.346796 
L 133.895455 223.45165 
L 134.529545 217.300194 
L 135.163636 221.04 
L 135.797727 228.72932 
L 136.431818 225.82835 
L 137.065909 224.779806 
L 137.7 215.133204 
L 138.334091 225.199223 
L 138.968182 230.616699 
L 139.602273 227.331262 
L 140.236364 224.919612 
L 140.870455 217.649709 
L 141.504545 230.931262 
L 142.138636 235.265243 
L 142.772727 240.857476 
L 143.406818 237.152621 
L 144.040909 237.222524 
L 144.675 227.960388 
L 145.309091 212.686602 
L 145.943182 206.814757 
L 147.211364 208.911845 
L 147.845455 207.583689 
L 148.479545 204.053592 
L 149.113636 189.933204 
L 149.747727 201.152621 
L 150.381818 202.131262 
L 151.015909 226.457476 
L 151.65 234.880777 
L 152.284091 233.937087 
L 152.918182 238.026408 
L 153.552273 243.548738 
L 154.186364 237.746796 
L 154.820455 242.709903 
L 156.088636 221.005049 
L 156.722727 208.876893 
L 157.356818 178.993398 
L 157.990909 159.385631 
L 158.625 122.40699 
L 159.259091 96.997282 
L 159.893182 91.964272 
L 160.527273 114.193398 
L 161.161364 165.292427 
L 161.795455 199.474951 
L 162.429545 200.977864 
L 163.063636 193.847767 
L 163.697727 167.04 
L 164.331818 145.789515 
L 164.965909 65.436117 
L 165.6 94.515728 
L 166.234091 137.05165 
L 167.502273 180.111845 
L 168.136364 195.630291 
L 168.770455 189.618641 
L 169.404545 195.979806 
L 170.038636 174.030291 
L 170.672727 173.261359 
L 172.575 218.313786 
L 173.209091 213.805049 
L 173.843182 204.123495 
L 174.477273 191.226408 
L 175.111364 174.274951 
L 175.745455 188.674951 
L 176.379545 200.208932 
L 177.013636 186.298252 
L 177.647727 195.979806 
L 178.281818 192.274951 
L 178.915909 177.071068 
L 180.184091 200.803107 
L 180.818182 205.836117 
L 181.452273 214.608932 
L 182.720455 224.360388 
L 183.354545 228.24 
L 184.622727 224.535146 
L 185.256818 215.02835 
L 185.890909 209.05165 
L 186.525 207.443883 
L 187.793182 194.896311 
L 188.427273 172.80699 
L 189.061364 184.935146 
L 189.695455 188.744854 
L 190.329545 200.803107 
L 190.963636 207.373981 
L 191.597727 217.020583 
L 192.231818 230.65165 
L 192.865909 230.476893 
L 193.5 222.787573 
L 194.134091 219.327379 
L 194.768182 213.84 
L 195.402273 220.760388 
L 196.036364 206.325437 
L 196.670455 176.546796 
L 197.304545 167.983689 
L 197.938636 194.791456 
L 198.572727 196.014757 
L 199.206818 197.482718 
L 199.840909 199.44 
L 200.475 214.469126 
L 201.109091 209.75068 
L 201.743182 214.119612 
L 202.377273 217.474951 
L 203.011364 217.474951 
L 203.645455 205.032233 
L 204.279545 218.558447 
L 204.913636 220.131262 
L 205.547727 225.339029 
L 206.181818 234.566214 
L 207.45 230.057476 
L 208.084091 226.56233 
L 208.718182 217.020583 
L 209.352273 215.692427 
L 210.620455 210.24 
L 211.254545 203.739029 
L 211.888636 193.218641 
L 212.522727 172.876893 
L 213.156818 147.012816 
L 213.790909 152.465243 
L 214.425 169.556505 
L 215.059091 200.313786 
L 215.693182 210.030291 
L 216.327273 223.696311 
L 216.961364 228.379806 
L 217.595455 228.519612 
L 218.863636 204.647767 
L 219.497727 218.104078 
L 220.765909 196.154563 
L 221.4 200.942913 
L 222.034091 213.315728 
L 222.668182 217.544854 
L 223.302273 219.537087 
L 223.936364 217.894369 
L 225.204545 220.166214 
L 225.838636 227.75068 
L 226.472727 225.094369 
L 227.106818 224.709903 
L 227.740909 229.91767 
L 228.375 229.91767 
L 229.643182 169.731262 
L 230.911364 152.045825 
L 231.545455 149.494369 
L 232.179545 126.671068 
L 232.813636 155.156505 
L 233.447727 172.56233 
L 234.081818 201.152621 
L 234.715909 217.92932 
L 235.35 213.175922 
L 235.984091 218.523495 
L 236.618182 206.045825 
L 237.252273 187.20699 
L 237.886364 193.533204 
L 238.520455 201.047767 
L 239.154545 192.205049 
L 239.788636 198.356505 
L 240.422727 215.867184 
L 241.056818 217.160388 
L 241.690909 222.22835 
L 242.325 210.624466 
L 243.593182 227.226408 
L 244.227273 227.436117 
L 244.861364 221.319612 
L 245.495455 210.065243 
L 246.129545 226.772039 
L 246.763636 227.331262 
L 247.397727 232.119612 
L 248.031818 232.608932 
L 248.665909 232.049709 
L 249.3 222.123495 
L 249.934091 207.933204 
L 250.568182 196.783689 
L 251.202273 197.27301 
L 251.836364 200.139029 
L 252.470455 203.773981 
L 253.104545 200.278835 
L 253.738636 185.179806 
L 254.372727 198.985631 
L 255.006818 199.649709 
L 255.640909 222.403107 
L 256.275 227.296311 
L 256.909091 225.688544 
L 257.543182 231.490485 
L 258.177273 234.531262 
L 258.811364 225.164272 
L 259.445455 228.344854 
L 260.079545 220.935146 
L 261.347727 216.601165 
L 261.981818 189.304078 
L 262.615909 187.172039 
L 263.25 191.680777 
L 263.884091 183.152621 
L 264.518182 158.966214 
L 265.152273 167.389515 
L 265.786364 196.08466 
L 266.420455 218.733204 
L 267.054545 215.937087 
L 267.688636 194.232233 
L 268.322727 153.82835 
L 268.956818 81.583689 
L 269.590909 65.191456 
L 270.225 89.063301 
L 270.859091 126.706019 
L 272.761364 203.389515 
L 273.395455 190.003107 
L 274.029545 195.979806 
L 274.663636 173.226408 
L 275.297727 171.164272 
L 276.565909 205.311845 
L 277.2 216.566214 
L 277.834091 214.923495 
L 279.102273 189.758447 
L 279.736364 173.226408 
L 281.004545 204.507961 
L 281.638636 191.401165 
L 282.272727 199.649709 
L 282.906818 196.853592 
L 283.540909 183.502136 
L 284.175 188.605049 
L 284.809091 195.315728 
L 285.443182 195.315728 
L 286.077273 207.933204 
L 286.711364 210.659417 
L 287.345455 218.139029 
L 287.979545 216.880777 
L 288.613636 217.160388 
L 289.247727 219.676893 
L 289.881818 211.218641 
L 290.515909 205.241942 
L 291.15 203.179806 
L 291.784091 202.79534 
L 292.418182 193.707961 
L 293.052273 175.91767 
L 293.686364 190.772039 
L 294.320455 195.071068 
L 294.954545 207.793398 
L 295.588636 211.777864 
L 296.222727 213.909903 
L 296.856818 219.36233 
L 297.490909 220.900194 
L 298.125 212.057476 
L 298.759091 207.968155 
L 299.393182 198.496311 
L 300.027273 193.043883 
L 301.295455 136.737087 
L 301.929545 130.480777 
L 302.563636 159.175922 
L 303.197727 168.752621 
L 304.465909 156.834175 
L 305.734091 172.282718 
L 307.002273 202.830291 
L 307.636364 211.533204 
L 308.270455 201.886602 
L 308.904545 215.657476 
L 309.538636 219.641942 
L 310.172727 229.253592 
L 310.806818 236.208932 
L 311.440909 234.740971 
L 312.075 232.154563 
L 312.709091 225.793398 
L 313.343182 215.203107 
L 313.977273 215.552621 
L 314.611364 205.836117 
L 315.245455 201.60699 
L 315.879545 195.525437 
L 316.513636 178.504078 
L 317.147727 154.80699 
L 317.781818 137.401165 
L 318.415909 150.22835 
L 319.05 171.548738 
L 319.684091 204.927379 
L 320.318182 214.434175 
L 320.952273 226.07301 
L 321.586364 227.366214 
L 322.220455 231.210874 
L 323.488636 203.704078 
L 324.122727 215.098252 
L 325.390909 191.610874 
L 326.025 200.173981 
L 326.659091 212.232233 
L 327.293182 219.11767 
L 327.927273 222.053592 
L 328.561364 223.172039 
L 329.195455 219.781748 
L 329.829545 221.354563 
L 330.463636 225.199223 
L 331.731818 216.531262 
L 332.365909 229.183689 
L 333 233.622524 
L 333.634091 208.07301 
L 334.268182 171.164272 
L 334.902273 155.05165 
L 335.536364 149.773981 
L 336.170455 149.599223 
L 336.804545 130.096311 
L 337.438636 158.197282 
L 338.072727 178.713786 
L 338.706818 203.389515 
L 339.340909 216.775922 
L 339.975 214.643883 
L 340.609091 224.500194 
L 341.243182 222.822524 
L 341.877273 208.56233 
L 342.511364 212.826408 
L 343.145455 214.259417 
L 343.779545 204.333204 
L 345.047727 219.85165 
L 345.681818 210.48466 
L 346.315909 212.791456 
L 346.95 204.333204 
L 348.218182 223.696311 
L 348.852273 225.304078 
L 349.486364 222.158447 
L 350.120455 210.939029 
L 350.754545 222.333204 
L 351.388636 223.661359 
L 352.022727 229.148738 
L 352.656818 227.086602 
L 353.290909 230.511845 
L 353.925 223.346796 
L 354.559091 208.352621 
L 355.193182 200.698252 
L 355.827273 200.977864 
L 356.461364 203.983689 
L 357.095455 204.22835 
L 357.729545 197.27301 
L 358.363636 181.894369 
L 358.997727 199.370097 
L 359.631818 202.79534 
L 360.265909 225.059417 
L 360.9 225.513786 
L 361.534091 223.591456 
L 362.168182 226.80699 
L 362.802273 231.210874 
L 363.436364 223.871068 
L 364.070455 227.226408 
L 365.338636 206.500194 
L 365.972727 202.306019 
L 366.606818 174.170097 
L 367.240909 165.711845 
L 367.875 139.218641 
L 368.509091 119.296311 
L 369.143182 119.436117 
L 369.777273 134.535146 
L 370.411364 178.049709 
L 371.045455 207.059417 
L 371.679545 211.183689 
L 372.313636 203.564272 
L 373.581818 156.135146 
L 373.581818 156.135146 
" clip-path="url(#pa009a91439)" style="fill: none; stroke: #ff7f0e; stroke-width: 1.5; stroke-linecap: round"/>
   </g>
   <g id="patch_3">
    <path d="M 54 256.32 
L 54 34.56 
" style="fill: none; stroke: #ffffff; stroke-width: 0.8; stroke-linejoin: miter; stroke-linecap: square"/>
   </g>
   <g id="patch_4">
    <path d="M 388.8 256.32 
L 388.8 34.56 
" style="fill: none; stroke: #ffffff; stroke-width: 0.8; stroke-linejoin: miter; stroke-linecap: square"/>
   </g>
   <g id="patch_5">
    <path d="M 54 256.32 
L 388.8 256.32 
" style="fill: none; stroke: #ffffff; stroke-width: 0.8; stroke-linejoin: miter; stroke-linecap: square"/>
   </g>
   <g id="patch_6">
    <path d="M 54 34.56 
L 388.8 34.56 
" style="fill: none; stroke: #ffffff; stroke-width: 0.8; stroke-linejoin: miter; stroke-linecap: square"/>
   </g>
   <g id="text_16">
    <!-- Protein complex's vibration profile (asymmetric unit) -->
    <g style="fill: #262626" transform="translate(84.216563 28.56) scale(0.12 -0.12)">
     <defs>
      <path id="ArialMT-50" d="M 494 0 
L 494 4581 
L 2222 4581 
Q 2678 4581 2919 4538 
Q 3256 4481 3484 4323 
Q 3713 4166 3852 3881 
Q 3991 3597 3991 3256 
Q 3991 2672 3619 2267 
Q 3247 1863 2275 1863 
L 1100 1863 
L 1100 0 
L 494 0 
z
M 1100 2403 
L 2284 2403 
Q 2872 2403 3119 2622 
Q 3366 2841 3366 3238 
Q 3366 3525 3220 3729 
Q 3075 3934 2838 4000 
Q 2684 4041 2272 4041 
L 1100 4041 
L 1100 2403 
z
" transform="scale(0.015625)"/>
      <path id="ArialMT-70" d="M 422 -1272 
L 422 3319 
L 934 3319 
L 934 2888 
Q 1116 3141 1344 3267 
Q 1572 3394 1897 3394 
Q 2322 3394 2647 3175 
Q 2972 2956 3137 2557 
Q 3303 2159 3303 1684 
Q 3303 1175 3120 767 
Q 2938 359 2589 142 
Q 2241 -75 1856 -75 
Q 1575 -75 1351 44 
Q 1128 163 984 344 
L 984 -1272 
L 422 -1272 
z
M 931 1641 
Q 931 1000 1190 694 
Q 1450 388 1819 388 
Q 2194 388 2461 705 
Q 2728 1022 2728 1688 
Q 2728 2322 2467 2637 
Q 2206 2953 1844 2953 
Q 1484 2953 1207 2617 
Q 931 2281 931 1641 
z
" transform="scale(0.015625)"/>
      <path id="ArialMT-6c" d="M 409 0 
L 409 4581 
L 972 4581 
L 972 0 
L 409 0 
z
" transform="scale(0.015625)"/>
      <path id="ArialMT-78" d="M 47 0 
L 1259 1725 
L 138 3319 
L 841 3319 
L 1350 2541 
Q 1494 2319 1581 2169 
Q 1719 2375 1834 2534 
L 2394 3319 
L 3066 3319 
L 1919 1756 
L 3153 0 
L 2463 0 
L 1781 1031 
L 1600 1309 
L 728 0 
L 47 0 
z
" transform="scale(0.015625)"/>
      <path id="ArialMT-27" d="M 425 2959 
L 281 3816 
L 281 4581 
L 922 4581 
L 922 3816 
L 772 2959 
L 425 2959 
z
" transform="scale(0.015625)"/>
      <path id="ArialMT-76" d="M 1344 0 
L 81 3319 
L 675 3319 
L 1388 1331 
Q 1503 1009 1600 663 
Q 1675 925 1809 1294 
L 2547 3319 
L 3125 3319 
L 1869 0 
L 1344 0 
z
" transform="scale(0.015625)"/>
      <path id="ArialMT-79" d="M 397 -1278 
L 334 -750 
Q 519 -800 656 -800 
Q 844 -800 956 -737 
Q 1069 -675 1141 -563 
Q 1194 -478 1313 -144 
Q 1328 -97 1363 -6 
L 103 3319 
L 709 3319 
L 1400 1397 
Q 1534 1031 1641 628 
Q 1738 1016 1872 1384 
L 2581 3319 
L 3144 3319 
L 1881 -56 
Q 1678 -603 1566 -809 
Q 1416 -1088 1222 -1217 
Q 1028 -1347 759 -1347 
Q 597 -1347 397 -1278 
z
" transform="scale(0.015625)"/>
     </defs>
     <use xlink:href="#ArialMT-50"/>
     <use xlink:href="#ArialMT-72" x="66.699219"/>
     <use xlink:href="#ArialMT-6f" x="100"/>
     <use xlink:href="#ArialMT-74" x="155.615234"/>
     <use xlink:href="#ArialMT-65" x="183.398438"/>
     <use xlink:href="#ArialMT-69" x="239.013672"/>
     <use xlink:href="#ArialMT-6e" x="261.230469"/>
     <use xlink:href="#ArialMT-20" x="316.845703"/>
     <use xlink:href="#ArialMT-63" x="344.628906"/>
     <use xlink:href="#ArialMT-6f" x="394.628906"/>
     <use xlink:href="#ArialMT-6d" x="450.244141"/>
     <use xlink:href="#ArialMT-70" x="533.544922"/>
     <use xlink:href="#ArialMT-6c" x="589.160156"/>
     <use xlink:href="#ArialMT-65" x="611.376953"/>
     <use xlink:href="#ArialMT-78" x="666.992188"/>
     <use xlink:href="#ArialMT-27" x="716.992188"/>
     <use xlink:href="#ArialMT-73" x="736.083984"/>
     <use xlink:href="#ArialMT-20" x="786.083984"/>
     <use xlink:href="#ArialMT-76" x="813.867188"/>
     <use xlink:href="#ArialMT-69" x="863.867188"/>
     <use xlink:href="#ArialMT-62" x="886.083984"/>
     <use xlink:href="#ArialMT-72" x="941.699219"/>
     <use xlink:href="#ArialMT-61" x="975"/>
     <use xlink:href="#ArialMT-74" x="1030.615234"/>
     <use xlink:href="#ArialMT-69" x="1058.398438"/>
     <use xlink:href="#ArialMT-6f" x="1080.615234"/>
     <use xlink:href="#ArialMT-6e" x="1136.230469"/>
     <use xlink:href="#ArialMT-20" x="1191.845703"/>
     <use xlink:href="#ArialMT-70" x="1219.628906"/>
     <use xlink:href="#ArialMT-72" x="1275.244141"/>
     <use xlink:href="#ArialMT-6f" x="1308.544922"/>
     <use xlink:href="#ArialMT-66" x="1364.160156"/>
     <use xlink:href="#ArialMT-69" x="1391.943359"/>
     <use xlink:href="#ArialMT-6c" x="1414.160156"/>
     <use xlink:href="#ArialMT-65" x="1436.376953"/>
     <use xlink:href="#ArialMT-20" x="1491.992188"/>
     <use xlink:href="#ArialMT-28" x="1519.775391"/>
     <use xlink:href="#ArialMT-61" x="1553.076172"/>
     <use xlink:href="#ArialMT-73" x="1608.691406"/>
     <use xlink:href="#ArialMT-79" x="1658.691406"/>
     <use xlink:href="#ArialMT-6d" x="1708.691406"/>
     <use xlink:href="#ArialMT-6d" x="1791.992188"/>
     <use xlink:href="#ArialMT-65" x="1875.292969"/>
     <use xlink:href="#ArialMT-74" x="1930.908203"/>
     <use xlink:href="#ArialMT-72" x="1958.691406"/>
     <use xlink:href="#ArialMT-69" x="1991.992188"/>
     <use xlink:href="#ArialMT-63" x="2014.208984"/>
     <use xlink:href="#ArialMT-20" x="2064.208984"/>
     <use xlink:href="#ArialMT-75" x="2091.992188"/>
     <use xlink:href="#ArialMT-6e" x="2147.607422"/>
     <use xlink:href="#ArialMT-69" x="2203.222656"/>
     <use xlink:href="#ArialMT-74" x="2225.439453"/>
     <use xlink:href="#ArialMT-29" x="2253.222656"/>
    </g>
   </g>
   <g id="legend_1">
    <g id="line2d_16">
     <path d="M 293.44375 47.217813 
L 303.44375 47.217813 
L 313.44375 47.217813 
" style="fill: none; stroke: #1f77b4; stroke-width: 1.5; stroke-linecap: round"/>
    </g>
    <g id="text_17">
     <!-- Predicted -->
     <g style="fill: #262626" transform="translate(321.44375 50.717813) scale(0.1 -0.1)">
      <use xlink:href="#ArialMT-50"/>
      <use xlink:href="#ArialMT-72" x="66.699219"/>
      <use xlink:href="#ArialMT-65" x="100"/>
      <use xlink:href="#ArialMT-64" x="155.615234"/>
      <use xlink:href="#ArialMT-69" x="211.230469"/>
      <use xlink:href="#ArialMT-63" x="233.447266"/>
      <use xlink:href="#ArialMT-74" x="283.447266"/>
      <use xlink:href="#ArialMT-65" x="311.230469"/>
      <use xlink:href="#ArialMT-64" x="366.845703"/>
     </g>
    </g>
    <g id="line2d_17">
     <path d="M 293.44375 61.363125 
L 303.44375 61.363125 
L 313.44375 61.363125 
" style="fill: none; stroke: #ff7f0e; stroke-width: 1.5; stroke-linecap: round"/>
    </g>
    <g id="text_18">
     <!-- Experimental -->
     <g style="fill: #262626" transform="translate(321.44375 64.863125) scale(0.1 -0.1)">
      <defs>
       <path id="ArialMT-45" d="M 506 0 
L 506 4581 
L 3819 4581 
L 3819 4041 
L 1113 4041 
L 1113 2638 
L 3647 2638 
L 3647 2100 
L 1113 2100 
L 1113 541 
L 3925 541 
L 3925 0 
L 506 0 
z
" transform="scale(0.015625)"/>
      </defs>
      <use xlink:href="#ArialMT-45"/>
      <use xlink:href="#ArialMT-78" x="66.699219"/>
      <use xlink:href="#ArialMT-70" x="116.699219"/>
      <use xlink:href="#ArialMT-65" x="172.314453"/>
      <use xlink:href="#ArialMT-72" x="227.929688"/>
      <use xlink:href="#ArialMT-69" x="261.230469"/>
      <use xlink:href="#ArialMT-6d" x="283.447266"/>
      <use xlink:href="#ArialMT-65" x="366.748047"/>
      <use xlink:href="#ArialMT-6e" x="422.363281"/>
      <use xlink:href="#ArialMT-74" x="477.978516"/>
      <use xlink:href="#ArialMT-61" x="505.761719"/>
      <use xlink:href="#ArialMT-6c" x="561.376953"/>
     </g>
    </g>
   </g>
  </g>
 </g>
 <defs>
  <clipPath id="pa009a91439">
   <rect x="54" y="34.56" width="334.8" height="221.76"/>
  </clipPath>
 </defs>
</svg>
