<?xml version="1.0" encoding="utf-8" standalone="no"?>
<!DOCTYPE svg PUBLIC "-//W3C//DTD SVG 1.1//EN"
  "http://www.w3.org/Graphics/SVG/1.1/DTD/svg11.dtd">
<svg xmlns:xlink="http://www.w3.org/1999/xlink" width="432pt" height="288pt" viewBox="0 0 432 288" xmlns="http://www.w3.org/2000/svg" version="1.1">
 <metadata>
  <rdf:RDF xmlns:dc="http://purl.org/dc/elements/1.1/" xmlns:cc="http://creativecommons.org/ns#" xmlns:rdf="http://www.w3.org/1999/02/22-rdf-syntax-ns#">
   <cc:Work>
    <dc:type rdf:resource="http://purl.org/dc/dcmitype/StillImage"/>
    <dc:date>2023-09-12T18:15:02.440578</dc:date>
    <dc:format>image/svg+xml</dc:format>
    <dc:creator>
     <cc:Agent>
      <dc:title>Matplotlib v3.7.2, https://matplotlib.org/</dc:title>
     </cc:Agent>
    </dc:creator>
   </cc:Work>
  </rdf:RDF>
 </metadata>
 <defs>
  <style type="text/css">*{stroke-linejoin: round; stroke-linecap: butt}</style>
 </defs>
 <g id="figure_1">
  <g id="patch_1">
   <path d="M 0 288 
L 432 288 
L 432 0 
L 0 0 
z
" style="fill: #ffffff"/>
  </g>
  <g id="axes_1">
   <g id="patch_2">
    <path d="M 54 256.32 
L 388.8 256.32 
L 388.8 34.56 
L 54 34.56 
z
" style="fill: #eaeaf2"/>
   </g>
   <g id="matplotlib.axis_1">
    <g id="xtick_1">
     <g id="line2d_1">
      <path d="M 68.584091 256.32 
L 68.584091 34.56 
" clip-path="url(#pa7e609294d)" style="fill: none; stroke: #ffffff; stroke-width: 0.8; stroke-linecap: round"/>
     </g>
     <g id="text_1">
      <!-- 0 -->
      <g style="fill: #262626" transform="translate(65.402841 270.918437) scale(0.1 -0.1)">
       <defs>
        <path id="DejaVuSans-30" d="M 2034 4250 
Q 1547 4250 1301 3770 
Q 1056 3291 1056 2328 
Q 1056 1369 1301 889 
Q 1547 409 2034 409 
Q 2525 409 2770 889 
Q 3016 1369 3016 2328 
Q 3016 3291 2770 3770 
Q 2525 4250 2034 4250 
z
M 2034 4750 
Q 2819 4750 3233 4129 
Q 3647 3509 3647 2328 
Q 3647 1150 3233 529 
Q 2819 -91 2034 -91 
Q 1250 -91 836 529 
Q 422 1150 422 2328 
Q 422 3509 836 4129 
Q 1250 4750 2034 4750 
z
" transform="scale(0.015625)"/>
       </defs>
       <use xlink:href="#DejaVuSans-30"/>
      </g>
     </g>
    </g>
    <g id="xtick_2">
     <g id="line2d_2">
      <path d="M 131.993182 256.32 
L 131.993182 34.56 
" clip-path="url(#pa7e609294d)" style="fill: none; stroke: #ffffff; stroke-width: 0.8; stroke-linecap: round"/>
     </g>
     <g id="text_2">
      <!-- 100 -->
      <g style="fill: #262626" transform="translate(122.449432 270.918437) scale(0.1 -0.1)">
       <defs>
        <path id="DejaVuSans-31" d="M 794 531 
L 1825 531 
L 1825 4091 
L 703 3866 
L 703 4441 
L 1819 4666 
L 2450 4666 
L 2450 531 
L 3481 531 
L 3481 0 
L 794 0 
L 794 531 
z
" transform="scale(0.015625)"/>
       </defs>
       <use xlink:href="#DejaVuSans-31"/>
       <use xlink:href="#DejaVuSans-30" x="63.623047"/>
       <use xlink:href="#DejaVuSans-30" x="127.246094"/>
      </g>
     </g>
    </g>
    <g id="xtick_3">
     <g id="line2d_3">
      <path d="M 195.402273 256.32 
L 195.402273 34.56 
" clip-path="url(#pa7e609294d)" style="fill: none; stroke: #ffffff; stroke-width: 0.8; stroke-linecap: round"/>
     </g>
     <g id="text_3">
      <!-- 200 -->
      <g style="fill: #262626" transform="translate(185.858523 270.918437) scale(0.1 -0.1)">
       <defs>
        <path id="DejaVuSans-32" d="M 1228 531 
L 3431 531 
L 3431 0 
L 469 0 
L 469 531 
Q 828 903 1448 1529 
Q 2069 2156 2228 2338 
Q 2531 2678 2651 2914 
Q 2772 3150 2772 3378 
Q 2772 3750 2511 3984 
Q 2250 4219 1831 4219 
Q 1534 4219 1204 4116 
Q 875 4013 500 3803 
L 500 4441 
Q 881 4594 1212 4672 
Q 1544 4750 1819 4750 
Q 2544 4750 2975 4387 
Q 3406 4025 3406 3419 
Q 3406 3131 3298 2873 
Q 3191 2616 2906 2266 
Q 2828 2175 2409 1742 
Q 1991 1309 1228 531 
z
" transform="scale(0.015625)"/>
       </defs>
       <use xlink:href="#DejaVuSans-32"/>
       <use xlink:href="#DejaVuSans-30" x="63.623047"/>
       <use xlink:href="#DejaVuSans-30" x="127.246094"/>
      </g>
     </g>
    </g>
    <g id="xtick_4">
     <g id="line2d_4">
      <path d="M 258.811364 256.32 
L 258.811364 34.56 
" clip-path="url(#pa7e609294d)" style="fill: none; stroke: #ffffff; stroke-width: 0.8; stroke-linecap: round"/>
     </g>
     <g id="text_4">
      <!-- 300 -->
      <g style="fill: #262626" transform="translate(249.267614 270.918437) scale(0.1 -0.1)">
       <defs>
        <path id="DejaVuSans-33" d="M 2597 2516 
Q 3050 2419 3304 2112 
Q 3559 1806 3559 1356 
Q 3559 666 3084 287 
Q 2609 -91 1734 -91 
Q 1441 -91 1130 -33 
Q 819 25 488 141 
L 488 750 
Q 750 597 1062 519 
Q 1375 441 1716 441 
Q 2309 441 2620 675 
Q 2931 909 2931 1356 
Q 2931 1769 2642 2001 
Q 2353 2234 1838 2234 
L 1294 2234 
L 1294 2753 
L 1863 2753 
Q 2328 2753 2575 2939 
Q 2822 3125 2822 3475 
Q 2822 3834 2567 4026 
Q 2313 4219 1838 4219 
Q 1578 4219 1281 4162 
Q 984 4106 628 3988 
L 628 4550 
Q 988 4650 1302 4700 
Q 1616 4750 1894 4750 
Q 2613 4750 3031 4423 
Q 3450 4097 3450 3541 
Q 3450 3153 3228 2886 
Q 3006 2619 2597 2516 
z
" transform="scale(0.015625)"/>
       </defs>
       <use xlink:href="#DejaVuSans-33"/>
       <use xlink:href="#DejaVuSans-30" x="63.623047"/>
       <use xlink:href="#DejaVuSans-30" x="127.246094"/>
      </g>
     </g>
    </g>
    <g id="xtick_5">
     <g id="line2d_5">
      <path d="M 322.220455 256.32 
L 322.220455 34.56 
" clip-path="url(#pa7e609294d)" style="fill: none; stroke: #ffffff; stroke-width: 0.8; stroke-linecap: round"/>
     </g>
     <g id="text_5">
      <!-- 400 -->
      <g style="fill: #262626" transform="translate(312.676705 270.918437) scale(0.1 -0.1)">
       <defs>
        <path id="DejaVuSans-34" d="M 2419 4116 
L 825 1625 
L 2419 1625 
L 2419 4116 
z
M 2253 4666 
L 3047 4666 
L 3047 1625 
L 3713 1625 
L 3713 1100 
L 3047 1100 
L 3047 0 
L 2419 0 
L 2419 1100 
L 313 1100 
L 313 1709 
L 2253 4666 
z
" transform="scale(0.015625)"/>
       </defs>
       <use xlink:href="#DejaVuSans-34"/>
       <use xlink:href="#DejaVuSans-30" x="63.623047"/>
       <use xlink:href="#DejaVuSans-30" x="127.246094"/>
      </g>
     </g>
    </g>
    <g id="xtick_6">
     <g id="line2d_6">
      <path d="M 385.629545 256.32 
L 385.629545 34.56 
" clip-path="url(#pa7e609294d)" style="fill: none; stroke: #ffffff; stroke-width: 0.8; stroke-linecap: round"/>
     </g>
     <g id="text_6">
      <!-- 500 -->
      <g style="fill: #262626" transform="translate(376.085795 270.918437) scale(0.1 -0.1)">
       <defs>
        <path id="DejaVuSans-35" d="M 691 4666 
L 3169 4666 
L 3169 4134 
L 1269 4134 
L 1269 2991 
Q 1406 3038 1543 3061 
Q 1681 3084 1819 3084 
Q 2600 3084 3056 2656 
Q 3513 2228 3513 1497 
Q 3513 744 3044 326 
Q 2575 -91 1722 -91 
Q 1428 -91 1123 -41 
Q 819 9 494 109 
L 494 744 
Q 775 591 1075 516 
Q 1375 441 1709 441 
Q 2250 441 2565 725 
Q 2881 1009 2881 1497 
Q 2881 1984 2565 2268 
Q 2250 2553 1709 2553 
Q 1456 2553 1204 2497 
Q 953 2441 691 2322 
L 691 4666 
z
" transform="scale(0.015625)"/>
       </defs>
       <use xlink:href="#DejaVuSans-35"/>
       <use xlink:href="#DejaVuSans-30" x="63.623047"/>
       <use xlink:href="#DejaVuSans-30" x="127.246094"/>
      </g>
     </g>
    </g>
    <g id="text_7">
     <!-- Residue number -->
     <g style="fill: #262626" transform="translate(180.557813 284.596563) scale(0.1 -0.1)">
      <defs>
       <path id="DejaVuSans-52" d="M 2841 2188 
Q 3044 2119 3236 1894 
Q 3428 1669 3622 1275 
L 4263 0 
L 3584 0 
L 2988 1197 
Q 2756 1666 2539 1819 
Q 2322 1972 1947 1972 
L 1259 1972 
L 1259 0 
L 628 0 
L 628 4666 
L 2053 4666 
Q 2853 4666 3247 4331 
Q 3641 3997 3641 3322 
Q 3641 2881 3436 2590 
Q 3231 2300 2841 2188 
z
M 1259 4147 
L 1259 2491 
L 2053 2491 
Q 2509 2491 2742 2702 
Q 2975 2913 2975 3322 
Q 2975 3731 2742 3939 
Q 2509 4147 2053 4147 
L 1259 4147 
z
" transform="scale(0.015625)"/>
       <path id="DejaVuSans-65" d="M 3597 1894 
L 3597 1613 
L 953 1613 
Q 991 1019 1311 708 
Q 1631 397 2203 397 
Q 2534 397 2845 478 
Q 3156 559 3463 722 
L 3463 178 
Q 3153 47 2828 -22 
Q 2503 -91 2169 -91 
Q 1331 -91 842 396 
Q 353 884 353 1716 
Q 353 2575 817 3079 
Q 1281 3584 2069 3584 
Q 2775 3584 3186 3129 
Q 3597 2675 3597 1894 
z
M 3022 2063 
Q 3016 2534 2758 2815 
Q 2500 3097 2075 3097 
Q 1594 3097 1305 2825 
Q 1016 2553 972 2059 
L 3022 2063 
z
" transform="scale(0.015625)"/>
       <path id="DejaVuSans-73" d="M 2834 3397 
L 2834 2853 
Q 2591 2978 2328 3040 
Q 2066 3103 1784 3103 
Q 1356 3103 1142 2972 
Q 928 2841 928 2578 
Q 928 2378 1081 2264 
Q 1234 2150 1697 2047 
L 1894 2003 
Q 2506 1872 2764 1633 
Q 3022 1394 3022 966 
Q 3022 478 2636 193 
Q 2250 -91 1575 -91 
Q 1294 -91 989 -36 
Q 684 19 347 128 
L 347 722 
Q 666 556 975 473 
Q 1284 391 1588 391 
Q 1994 391 2212 530 
Q 2431 669 2431 922 
Q 2431 1156 2273 1281 
Q 2116 1406 1581 1522 
L 1381 1569 
Q 847 1681 609 1914 
Q 372 2147 372 2553 
Q 372 3047 722 3315 
Q 1072 3584 1716 3584 
Q 2034 3584 2315 3537 
Q 2597 3491 2834 3397 
z
" transform="scale(0.015625)"/>
       <path id="DejaVuSans-69" d="M 603 3500 
L 1178 3500 
L 1178 0 
L 603 0 
L 603 3500 
z
M 603 4863 
L 1178 4863 
L 1178 4134 
L 603 4134 
L 603 4863 
z
" transform="scale(0.015625)"/>
       <path id="DejaVuSans-64" d="M 2906 2969 
L 2906 4863 
L 3481 4863 
L 3481 0 
L 2906 0 
L 2906 525 
Q 2725 213 2448 61 
Q 2172 -91 1784 -91 
Q 1150 -91 751 415 
Q 353 922 353 1747 
Q 353 2572 751 3078 
Q 1150 3584 1784 3584 
Q 2172 3584 2448 3432 
Q 2725 3281 2906 2969 
z
M 947 1747 
Q 947 1113 1208 752 
Q 1469 391 1925 391 
Q 2381 391 2643 752 
Q 2906 1113 2906 1747 
Q 2906 2381 2643 2742 
Q 2381 3103 1925 3103 
Q 1469 3103 1208 2742 
Q 947 2381 947 1747 
z
" transform="scale(0.015625)"/>
       <path id="DejaVuSans-75" d="M 544 1381 
L 544 3500 
L 1119 3500 
L 1119 1403 
Q 1119 906 1312 657 
Q 1506 409 1894 409 
Q 2359 409 2629 706 
Q 2900 1003 2900 1516 
L 2900 3500 
L 3475 3500 
L 3475 0 
L 2900 0 
L 2900 538 
Q 2691 219 2414 64 
Q 2138 -91 1772 -91 
Q 1169 -91 856 284 
Q 544 659 544 1381 
z
M 1991 3584 
L 1991 3584 
z
" transform="scale(0.015625)"/>
       <path id="DejaVuSans-20" transform="scale(0.015625)"/>
       <path id="DejaVuSans-6e" d="M 3513 2113 
L 3513 0 
L 2938 0 
L 2938 2094 
Q 2938 2591 2744 2837 
Q 2550 3084 2163 3084 
Q 1697 3084 1428 2787 
Q 1159 2491 1159 1978 
L 1159 0 
L 581 0 
L 581 3500 
L 1159 3500 
L 1159 2956 
Q 1366 3272 1645 3428 
Q 1925 3584 2291 3584 
Q 2894 3584 3203 3211 
Q 3513 2838 3513 2113 
z
" transform="scale(0.015625)"/>
       <path id="DejaVuSans-6d" d="M 3328 2828 
Q 3544 3216 3844 3400 
Q 4144 3584 4550 3584 
Q 5097 3584 5394 3201 
Q 5691 2819 5691 2113 
L 5691 0 
L 5113 0 
L 5113 2094 
Q 5113 2597 4934 2840 
Q 4756 3084 4391 3084 
Q 3944 3084 3684 2787 
Q 3425 2491 3425 1978 
L 3425 0 
L 2847 0 
L 2847 2094 
Q 2847 2600 2669 2842 
Q 2491 3084 2119 3084 
Q 1678 3084 1418 2786 
Q 1159 2488 1159 1978 
L 1159 0 
L 581 0 
L 581 3500 
L 1159 3500 
L 1159 2956 
Q 1356 3278 1631 3431 
Q 1906 3584 2284 3584 
Q 2666 3584 2933 3390 
Q 3200 3197 3328 2828 
z
" transform="scale(0.015625)"/>
       <path id="DejaVuSans-62" d="M 3116 1747 
Q 3116 2381 2855 2742 
Q 2594 3103 2138 3103 
Q 1681 3103 1420 2742 
Q 1159 2381 1159 1747 
Q 1159 1113 1420 752 
Q 1681 391 2138 391 
Q 2594 391 2855 752 
Q 3116 1113 3116 1747 
z
M 1159 2969 
Q 1341 3281 1617 3432 
Q 1894 3584 2278 3584 
Q 2916 3584 3314 3078 
Q 3713 2572 3713 1747 
Q 3713 922 3314 415 
Q 2916 -91 2278 -91 
Q 1894 -91 1617 61 
Q 1341 213 1159 525 
L 1159 0 
L 581 0 
L 581 4863 
L 1159 4863 
L 1159 2969 
z
" transform="scale(0.015625)"/>
       <path id="DejaVuSans-72" d="M 2631 2963 
Q 2534 3019 2420 3045 
Q 2306 3072 2169 3072 
Q 1681 3072 1420 2755 
Q 1159 2438 1159 1844 
L 1159 0 
L 581 0 
L 581 3500 
L 1159 3500 
L 1159 2956 
Q 1341 3275 1631 3429 
Q 1922 3584 2338 3584 
Q 2397 3584 2469 3576 
Q 2541 3569 2628 3553 
L 2631 2963 
z
" transform="scale(0.015625)"/>
      </defs>
      <use xlink:href="#DejaVuSans-52"/>
      <use xlink:href="#DejaVuSans-65" x="64.982422"/>
      <use xlink:href="#DejaVuSans-73" x="126.505859"/>
      <use xlink:href="#DejaVuSans-69" x="178.605469"/>
      <use xlink:href="#DejaVuSans-64" x="206.388672"/>
      <use xlink:href="#DejaVuSans-75" x="269.865234"/>
      <use xlink:href="#DejaVuSans-65" x="333.244141"/>
      <use xlink:href="#DejaVuSans-20" x="394.767578"/>
      <use xlink:href="#DejaVuSans-6e" x="426.554688"/>
      <use xlink:href="#DejaVuSans-75" x="489.933594"/>
      <use xlink:href="#DejaVuSans-6d" x="553.3125"/>
      <use xlink:href="#DejaVuSans-62" x="650.724609"/>
      <use xlink:href="#DejaVuSans-65" x="714.201172"/>
      <use xlink:href="#DejaVuSans-72" x="775.724609"/>
     </g>
    </g>
   </g>
   <g id="matplotlib.axis_2">
    <g id="ytick_1">
     <g id="line2d_7">
      <path d="M 54 249.157575 
L 388.8 249.157575 
" clip-path="url(#pa7e609294d)" style="fill: none; stroke: #ffffff; stroke-width: 0.8; stroke-linecap: round"/>
     </g>
     <g id="text_8">
      <!-- 20 -->
      <g style="fill: #262626" transform="translate(34.275 252.956794) scale(0.1 -0.1)">
       <use xlink:href="#DejaVuSans-32"/>
       <use xlink:href="#DejaVuSans-30" x="63.623047"/>
      </g>
     </g>
    </g>
    <g id="ytick_2">
     <g id="line2d_8">
      <path d="M 54 220.831601 
L 388.8 220.831601 
" clip-path="url(#pa7e609294d)" style="fill: none; stroke: #ffffff; stroke-width: 0.8; stroke-linecap: round"/>
     </g>
     <g id="text_9">
      <!-- 30 -->
      <g style="fill: #262626" transform="translate(34.275 224.630819) scale(0.1 -0.1)">
       <use xlink:href="#DejaVuSans-33"/>
       <use xlink:href="#DejaVuSans-30" x="63.623047"/>
      </g>
     </g>
    </g>
    <g id="ytick_3">
     <g id="line2d_9">
      <path d="M 54 192.505626 
L 388.8 192.505626 
" clip-path="url(#pa7e609294d)" style="fill: none; stroke: #ffffff; stroke-width: 0.8; stroke-linecap: round"/>
     </g>
     <g id="text_10">
      <!-- 40 -->
      <g style="fill: #262626" transform="translate(34.275 196.304845) scale(0.1 -0.1)">
       <use xlink:href="#DejaVuSans-34"/>
       <use xlink:href="#DejaVuSans-30" x="63.623047"/>
      </g>
     </g>
    </g>
    <g id="ytick_4">
     <g id="line2d_10">
      <path d="M 54 164.179651 
L 388.8 164.179651 
" clip-path="url(#pa7e609294d)" style="fill: none; stroke: #ffffff; stroke-width: 0.8; stroke-linecap: round"/>
     </g>
     <g id="text_11">
      <!-- 50 -->
      <g style="fill: #262626" transform="translate(34.275 167.97887) scale(0.1 -0.1)">
       <use xlink:href="#DejaVuSans-35"/>
       <use xlink:href="#DejaVuSans-30" x="63.623047"/>
      </g>
     </g>
    </g>
    <g id="ytick_5">
     <g id="line2d_11">
      <path d="M 54 135.853677 
L 388.8 135.853677 
" clip-path="url(#pa7e609294d)" style="fill: none; stroke: #ffffff; stroke-width: 0.8; stroke-linecap: round"/>
     </g>
     <g id="text_12">
      <!-- 60 -->
      <g style="fill: #262626" transform="translate(34.275 139.652895) scale(0.1 -0.1)">
       <defs>
        <path id="DejaVuSans-36" d="M 2113 2584 
Q 1688 2584 1439 2293 
Q 1191 2003 1191 1497 
Q 1191 994 1439 701 
Q 1688 409 2113 409 
Q 2538 409 2786 701 
Q 3034 994 3034 1497 
Q 3034 2003 2786 2293 
Q 2538 2584 2113 2584 
z
M 3366 4563 
L 3366 3988 
Q 3128 4100 2886 4159 
Q 2644 4219 2406 4219 
Q 1781 4219 1451 3797 
Q 1122 3375 1075 2522 
Q 1259 2794 1537 2939 
Q 1816 3084 2150 3084 
Q 2853 3084 3261 2657 
Q 3669 2231 3669 1497 
Q 3669 778 3244 343 
Q 2819 -91 2113 -91 
Q 1303 -91 875 529 
Q 447 1150 447 2328 
Q 447 3434 972 4092 
Q 1497 4750 2381 4750 
Q 2619 4750 2861 4703 
Q 3103 4656 3366 4563 
z
" transform="scale(0.015625)"/>
       </defs>
       <use xlink:href="#DejaVuSans-36"/>
       <use xlink:href="#DejaVuSans-30" x="63.623047"/>
      </g>
     </g>
    </g>
    <g id="ytick_6">
     <g id="line2d_12">
      <path d="M 54 107.527702 
L 388.8 107.527702 
" clip-path="url(#pa7e609294d)" style="fill: none; stroke: #ffffff; stroke-width: 0.8; stroke-linecap: round"/>
     </g>
     <g id="text_13">
      <!-- 70 -->
      <g style="fill: #262626" transform="translate(34.275 111.326921) scale(0.1 -0.1)">
       <defs>
        <path id="DejaVuSans-37" d="M 525 4666 
L 3525 4666 
L 3525 4397 
L 1831 0 
L 1172 0 
L 2766 4134 
L 525 4134 
L 525 4666 
z
" transform="scale(0.015625)"/>
       </defs>
       <use xlink:href="#DejaVuSans-37"/>
       <use xlink:href="#DejaVuSans-30" x="63.623047"/>
      </g>
     </g>
    </g>
    <g id="ytick_7">
     <g id="line2d_13">
      <path d="M 54 79.201727 
L 388.8 79.201727 
" clip-path="url(#pa7e609294d)" style="fill: none; stroke: #ffffff; stroke-width: 0.8; stroke-linecap: round"/>
     </g>
     <g id="text_14">
      <!-- 80 -->
      <g style="fill: #262626" transform="translate(34.275 83.000946) scale(0.1 -0.1)">
       <defs>
        <path id="DejaVuSans-38" d="M 2034 2216 
Q 1584 2216 1326 1975 
Q 1069 1734 1069 1313 
Q 1069 891 1326 650 
Q 1584 409 2034 409 
Q 2484 409 2743 651 
Q 3003 894 3003 1313 
Q 3003 1734 2745 1975 
Q 2488 2216 2034 2216 
z
M 1403 2484 
Q 997 2584 770 2862 
Q 544 3141 544 3541 
Q 544 4100 942 4425 
Q 1341 4750 2034 4750 
Q 2731 4750 3128 4425 
Q 3525 4100 3525 3541 
Q 3525 3141 3298 2862 
Q 3072 2584 2669 2484 
Q 3125 2378 3379 2068 
Q 3634 1759 3634 1313 
Q 3634 634 3220 271 
Q 2806 -91 2034 -91 
Q 1263 -91 848 271 
Q 434 634 434 1313 
Q 434 1759 690 2068 
Q 947 2378 1403 2484 
z
M 1172 3481 
Q 1172 3119 1398 2916 
Q 1625 2713 2034 2713 
Q 2441 2713 2670 2916 
Q 2900 3119 2900 3481 
Q 2900 3844 2670 4047 
Q 2441 4250 2034 4250 
Q 1625 4250 1398 4047 
Q 1172 3844 1172 3481 
z
" transform="scale(0.015625)"/>
       </defs>
       <use xlink:href="#DejaVuSans-38"/>
       <use xlink:href="#DejaVuSans-30" x="63.623047"/>
      </g>
     </g>
    </g>
    <g id="ytick_8">
     <g id="line2d_14">
      <path d="M 54 50.875753 
L 388.8 50.875753 
" clip-path="url(#pa7e609294d)" style="fill: none; stroke: #ffffff; stroke-width: 0.8; stroke-linecap: round"/>
     </g>
     <g id="text_15">
      <!-- 90 -->
      <g style="fill: #262626" transform="translate(34.275 54.674971) scale(0.1 -0.1)">
       <defs>
        <path id="DejaVuSans-39" d="M 703 97 
L 703 672 
Q 941 559 1184 500 
Q 1428 441 1663 441 
Q 2288 441 2617 861 
Q 2947 1281 2994 2138 
Q 2813 1869 2534 1725 
Q 2256 1581 1919 1581 
Q 1219 1581 811 2004 
Q 403 2428 403 3163 
Q 403 3881 828 4315 
Q 1253 4750 1959 4750 
Q 2769 4750 3195 4129 
Q 3622 3509 3622 2328 
Q 3622 1225 3098 567 
Q 2575 -91 1691 -91 
Q 1453 -91 1209 -44 
Q 966 3 703 97 
z
M 1959 2075 
Q 2384 2075 2632 2365 
Q 2881 2656 2881 3163 
Q 2881 3666 2632 3958 
Q 2384 4250 1959 4250 
Q 1534 4250 1286 3958 
Q 1038 3666 1038 3163 
Q 1038 2656 1286 2365 
Q 1534 2075 1959 2075 
z
" transform="scale(0.015625)"/>
       </defs>
       <use xlink:href="#DejaVuSans-39"/>
       <use xlink:href="#DejaVuSans-30" x="63.623047"/>
      </g>
     </g>
    </g>
    <g id="text_16">
     <!-- B-factor ($\AA^2$) -->
     <g style="fill: #262626" transform="translate(28.195312 177.09) rotate(-90) scale(0.1 -0.1)">
      <defs>
       <path id="DejaVuSans-42" d="M 1259 2228 
L 1259 519 
L 2272 519 
Q 2781 519 3026 730 
Q 3272 941 3272 1375 
Q 3272 1813 3026 2020 
Q 2781 2228 2272 2228 
L 1259 2228 
z
M 1259 4147 
L 1259 2741 
L 2194 2741 
Q 2656 2741 2882 2914 
Q 3109 3088 3109 3444 
Q 3109 3797 2882 3972 
Q 2656 4147 2194 4147 
L 1259 4147 
z
M 628 4666 
L 2241 4666 
Q 2963 4666 3353 4366 
Q 3744 4066 3744 3513 
Q 3744 3084 3544 2831 
Q 3344 2578 2956 2516 
Q 3422 2416 3680 2098 
Q 3938 1781 3938 1306 
Q 3938 681 3513 340 
Q 3088 0 2303 0 
L 628 0 
L 628 4666 
z
" transform="scale(0.015625)"/>
       <path id="DejaVuSans-2d" d="M 313 2009 
L 1997 2009 
L 1997 1497 
L 313 1497 
L 313 2009 
z
" transform="scale(0.015625)"/>
       <path id="DejaVuSans-66" d="M 2375 4863 
L 2375 4384 
L 1825 4384 
Q 1516 4384 1395 4259 
Q 1275 4134 1275 3809 
L 1275 3500 
L 2222 3500 
L 2222 3053 
L 1275 3053 
L 1275 0 
L 697 0 
L 697 3053 
L 147 3053 
L 147 3500 
L 697 3500 
L 697 3744 
Q 697 4328 969 4595 
Q 1241 4863 1831 4863 
L 2375 4863 
z
" transform="scale(0.015625)"/>
       <path id="DejaVuSans-61" d="M 2194 1759 
Q 1497 1759 1228 1600 
Q 959 1441 959 1056 
Q 959 750 1161 570 
Q 1363 391 1709 391 
Q 2188 391 2477 730 
Q 2766 1069 2766 1631 
L 2766 1759 
L 2194 1759 
z
M 3341 1997 
L 3341 0 
L 2766 0 
L 2766 531 
Q 2569 213 2275 61 
Q 1981 -91 1556 -91 
Q 1019 -91 701 211 
Q 384 513 384 1019 
Q 384 1609 779 1909 
Q 1175 2209 1959 2209 
L 2766 2209 
L 2766 2266 
Q 2766 2663 2505 2880 
Q 2244 3097 1772 3097 
Q 1472 3097 1187 3025 
Q 903 2953 641 2809 
L 641 3341 
Q 956 3463 1253 3523 
Q 1550 3584 1831 3584 
Q 2591 3584 2966 3190 
Q 3341 2797 3341 1997 
z
" transform="scale(0.015625)"/>
       <path id="DejaVuSans-63" d="M 3122 3366 
L 3122 2828 
Q 2878 2963 2633 3030 
Q 2388 3097 2138 3097 
Q 1578 3097 1268 2742 
Q 959 2388 959 1747 
Q 959 1106 1268 751 
Q 1578 397 2138 397 
Q 2388 397 2633 464 
Q 2878 531 3122 666 
L 3122 134 
Q 2881 22 2623 -34 
Q 2366 -91 2075 -91 
Q 1284 -91 818 406 
Q 353 903 353 1747 
Q 353 2603 823 3093 
Q 1294 3584 2113 3584 
Q 2378 3584 2631 3529 
Q 2884 3475 3122 3366 
z
" transform="scale(0.015625)"/>
       <path id="DejaVuSans-74" d="M 1172 4494 
L 1172 3500 
L 2356 3500 
L 2356 3053 
L 1172 3053 
L 1172 1153 
Q 1172 725 1289 603 
Q 1406 481 1766 481 
L 2356 481 
L 2356 0 
L 1766 0 
Q 1100 0 847 248 
Q 594 497 594 1153 
L 594 3053 
L 172 3053 
L 172 3500 
L 594 3500 
L 594 4494 
L 1172 4494 
z
" transform="scale(0.015625)"/>
       <path id="DejaVuSans-6f" d="M 1959 3097 
Q 1497 3097 1228 2736 
Q 959 2375 959 1747 
Q 959 1119 1226 758 
Q 1494 397 1959 397 
Q 2419 397 2687 759 
Q 2956 1122 2956 1747 
Q 2956 2369 2687 2733 
Q 2419 3097 1959 3097 
z
M 1959 3584 
Q 2709 3584 3137 3096 
Q 3566 2609 3566 1747 
Q 3566 888 3137 398 
Q 2709 -91 1959 -91 
Q 1206 -91 779 398 
Q 353 888 353 1747 
Q 353 2609 779 3096 
Q 1206 3584 1959 3584 
z
" transform="scale(0.015625)"/>
       <path id="DejaVuSans-28" d="M 1984 4856 
Q 1566 4138 1362 3434 
Q 1159 2731 1159 2009 
Q 1159 1288 1364 580 
Q 1569 -128 1984 -844 
L 1484 -844 
Q 1016 -109 783 600 
Q 550 1309 550 2009 
Q 550 2706 781 3412 
Q 1013 4119 1484 4856 
L 1984 4856 
z
" transform="scale(0.015625)"/>
       <path id="DejaVuSans-Oblique-c5" d="M 3188 5081 
Q 3188 5278 3048 5417 
Q 2909 5556 2713 5556 
Q 2513 5556 2377 5420 
Q 2241 5284 2241 5081 
Q 2241 4884 2377 4746 
Q 2513 4609 2713 4609 
Q 2909 4609 3048 4746 
Q 3188 4884 3188 5081 
z
M 2203 4397 
Q 2034 4513 1945 4689 
Q 1856 4866 1856 5081 
Q 1856 5438 2106 5689 
Q 2356 5941 2713 5941 
Q 3069 5941 3320 5689 
Q 3572 5438 3572 5081 
Q 3572 4834 3458 4643 
Q 3344 4453 3128 4341 
L 3938 0 
L 3278 0 
L 3084 1197 
L 984 1197 
L 325 0 
L -341 0 
L 2203 4397 
z
M 2584 4044 
L 1275 1722 
L 2988 1722 
L 2584 4044 
z
" transform="scale(0.015625)"/>
       <path id="DejaVuSans-29" d="M 513 4856 
L 1013 4856 
Q 1481 4119 1714 3412 
Q 1947 2706 1947 2009 
Q 1947 1309 1714 600 
Q 1481 -109 1013 -844 
L 513 -844 
Q 928 -128 1133 580 
Q 1338 1288 1338 2009 
Q 1338 2731 1133 3434 
Q 928 4138 513 4856 
z
" transform="scale(0.015625)"/>
      </defs>
      <use xlink:href="#DejaVuSans-42" transform="translate(0 0.171875)"/>
      <use xlink:href="#DejaVuSans-2d" transform="translate(68.603516 0.171875)"/>
      <use xlink:href="#DejaVuSans-66" transform="translate(104.6875 0.171875)"/>
      <use xlink:href="#DejaVuSans-61" transform="translate(139.892578 0.171875)"/>
      <use xlink:href="#DejaVuSans-63" transform="translate(201.171875 0.171875)"/>
      <use xlink:href="#DejaVuSans-74" transform="translate(256.152344 0.171875)"/>
      <use xlink:href="#DejaVuSans-6f" transform="translate(295.361328 0.171875)"/>
      <use xlink:href="#DejaVuSans-72" transform="translate(356.542969 0.171875)"/>
      <use xlink:href="#DejaVuSans-20" transform="translate(397.65625 0.171875)"/>
      <use xlink:href="#DejaVuSans-28" transform="translate(429.443359 0.171875)"/>
      <use xlink:href="#DejaVuSans-Oblique-c5" transform="translate(468.457031 0.171875)"/>
      <use xlink:href="#DejaVuSans-32" transform="translate(546.671068 38.453125) scale(0.7)"/>
      <use xlink:href="#DejaVuSans-29" transform="translate(593.941576 0.171875)"/>
     </g>
    </g>
   </g>
   <g id="PolyCollection_1"/>
   <g id="PolyCollection_2"/>
   <g id="line2d_15">
    <path d="M 69.218182 44.64 
L 69.852273 178.17086 
L 70.486364 168.988127 
L 71.120455 209.61186 
L 71.754545 203.958785 
L 72.388636 205.724202 
L 73.022727 211.450776 
L 74.290909 151.231213 
L 74.925 184.386257 
L 75.559091 208.609175 
L 76.193182 221.022212 
L 76.827273 230.349521 
L 78.095455 235.699757 
L 78.729545 229.705184 
L 79.363636 218.586183 
L 80.631818 200.986635 
L 81.265909 199.544826 
L 81.9 181.220979 
L 82.534091 184.685001 
L 83.168182 193.395589 
L 83.802273 188.374261 
L 84.436364 192.082784 
L 85.070455 203.026643 
L 85.704545 202.157148 
L 86.338636 217.124357 
L 86.972727 216.357156 
L 87.606818 213.490092 
L 88.240909 209.823494 
L 88.875 197.071894 
L 89.509091 205.182018 
L 90.143182 188.653838 
L 90.777273 189.594685 
L 91.411364 186.656221 
L 92.045455 151.743903 
L 92.679545 197.932143 
L 93.313636 189.709289 
L 93.947727 197.52764 
L 94.581818 207.276346 
L 95.215909 232.638737 
L 95.85 235.601211 
L 96.484091 222.916935 
L 97.118182 225.472008 
L 97.752273 233.488874 
L 98.386364 234.189637 
L 99.020455 231.360888 
L 99.654545 235.031691 
L 100.288636 234.663745 
L 100.922727 234.494694 
L 101.556818 237.051144 
L 102.190909 235.867515 
L 102.825 236.047804 
L 103.459091 233.224687 
L 104.093182 232.148042 
L 104.727273 229.826693 
L 105.361364 224.702004 
L 105.995455 223.349262 
L 106.629545 225.03322 
L 107.263636 218.590301 
L 107.897727 220.662169 
L 108.531818 205.756818 
L 109.165909 206.630076 
L 109.8 213.517077 
L 110.434091 217.833582 
L 111.068182 226.523931 
L 111.702273 227.43951 
L 112.336364 233.562315 
L 112.970455 222.362594 
L 114.238636 217.440813 
L 114.872727 200.516505 
L 115.506818 187.346649 
L 116.140909 148.478075 
L 117.409091 204.742222 
L 118.043182 209.991838 
L 118.677273 206.895265 
L 119.311364 213.975408 
L 119.945455 226.497176 
L 120.579545 225.971547 
L 121.213636 222.986507 
L 121.847727 233.228647 
L 122.481818 237.709637 
L 123.115909 234.527052 
L 123.75 234.109839 
L 124.384091 232.274785 
L 125.018182 221.775801 
L 125.652273 214.056602 
L 126.286364 201.947639 
L 126.920455 207.073525 
L 127.554545 217.745011 
L 128.188636 210.704335 
L 129.456818 233.53818 
L 130.725 235.081079 
L 131.359091 235.125917 
L 131.993182 232.967263 
L 132.627273 229.892065 
L 133.261364 233.715785 
L 133.895455 234.86035 
L 134.529545 231.480762 
L 135.163636 229.36237 
L 135.797727 228.147376 
L 136.431818 224.748828 
L 137.065909 223.554661 
L 137.7 210.646892 
L 138.334091 204.700063 
L 138.968182 207.840862 
L 139.602273 209.111266 
L 140.236364 190.428768 
L 140.870455 203.552572 
L 141.504545 211.739466 
L 142.138636 211.590771 
L 142.772727 217.373745 
L 143.406818 221.154404 
L 144.040909 221.695837 
L 144.675 219.175624 
L 145.309091 210.223708 
L 145.943182 206.387784 
L 146.577273 198.786805 
L 147.211364 192.597134 
L 147.845455 195.34766 
L 148.479545 186.890591 
L 149.113636 185.965024 
L 149.747727 192.90372 
L 150.381818 210.794655 
L 151.015909 217.791358 
L 151.65 217.982714 
L 152.284091 222.544592 
L 152.918182 228.887985 
L 154.186364 236.836292 
L 154.820455 237.374398 
L 155.454545 234.524214 
L 156.088636 232.807948 
L 156.722727 227.310853 
L 157.356818 213.968414 
L 157.990909 224.078201 
L 158.625 203.926692 
L 159.259091 217.259252 
L 159.893182 223.293497 
L 160.527273 218.292975 
L 161.161364 217.925481 
L 161.795455 220.491781 
L 162.429545 204.374055 
L 163.697727 234.008363 
L 164.331818 235.524712 
L 164.965909 127.964114 
L 165.6 128.124948 
L 166.234091 192.313391 
L 167.502273 210.59411 
L 168.136364 224.477145 
L 168.770455 228.005175 
L 169.404545 233.248725 
L 170.672727 239.535633 
L 171.306818 241.66259 
L 171.940909 241.454401 
L 172.575 242.469435 
L 173.843182 239.304732 
L 174.477273 233.423356 
L 175.111364 216.296561 
L 175.745455 213.250468 
L 176.379545 207.666819 
L 177.013636 205.355378 
L 177.647727 213.155519 
L 178.281818 166.623356 
L 178.915909 141.796552 
L 179.55 180.941291 
L 180.184091 211.361749 
L 180.818182 224.862884 
L 181.452273 231.833874 
L 182.086364 235.16829 
L 182.720455 236.882927 
L 183.354545 235.910599 
L 183.988636 222.694698 
L 184.622727 215.375418 
L 185.256818 206.707781 
L 185.890909 211.75253 
L 186.525 186.553048 
L 187.159091 188.436575 
L 187.793182 193.674086 
L 188.427273 187.633284 
L 189.061364 191.732395 
L 189.695455 203.725267 
L 190.329545 202.846522 
L 190.963636 220.182082 
L 191.597727 220.155393 
L 192.231818 220.75614 
L 192.865909 224.211662 
L 193.5 210.528813 
L 194.134091 213.985481 
L 194.768182 197.789533 
L 195.402273 193.887388 
L 196.036364 187.601721 
L 196.670455 161.854115 
L 197.304545 181.893931 
L 197.938636 187.347532 
L 199.206818 204.193164 
L 199.840909 235.927906 
L 200.475 239.120408 
L 201.109091 229.172924 
L 201.743182 229.373312 
L 202.377273 233.055339 
L 203.011364 235.166703 
L 203.645455 233.669666 
L 204.279545 236.47848 
L 204.913636 233.48717 
L 205.547727 234.784725 
L 206.181818 238.146002 
L 206.815909 240.496687 
L 207.45 241.441938 
L 208.718182 236.505644 
L 209.986364 226.305221 
L 210.620455 224.233579 
L 211.254545 223.766824 
L 211.888636 203.678759 
L 212.522727 207.118857 
L 213.156818 153.481854 
L 213.790909 200.17152 
L 215.693182 229.184922 
L 216.327273 232.547413 
L 216.961364 238.100019 
L 217.595455 227.287885 
L 218.229545 225.885683 
L 218.863636 221.117632 
L 219.497727 205.111675 
L 220.131818 192.488099 
L 220.765909 152.632196 
L 222.034091 208.712737 
L 222.668182 214.010389 
L 223.302273 212.138905 
L 224.570455 229.35534 
L 225.204545 227.408352 
L 225.838636 228.701686 
L 226.472727 234.922213 
L 227.106818 237.07594 
L 227.740909 240.492601 
L 228.375 239.542895 
L 229.009091 238.795317 
L 229.643182 223.019358 
L 230.277273 215.857635 
L 230.911364 183.78 
L 231.545455 181.580442 
L 232.179545 147.03897 
L 232.813636 227.865483 
L 233.447727 223.683013 
L 234.081818 241.103194 
L 234.715909 241.765079 
L 235.35 241.880389 
L 235.984091 237.309149 
L 236.618182 225.371702 
L 237.252273 224.260397 
L 237.886364 216.65398 
L 238.520455 231.670084 
L 239.154545 227.107203 
L 239.788636 229.939911 
L 240.422727 235.823395 
L 241.056818 228.212146 
L 241.690909 226.953336 
L 242.325 212.484299 
L 242.959091 207.763112 
L 244.227273 213.306129 
L 244.861364 190.393615 
L 245.495455 205.755878 
L 246.129545 215.805157 
L 246.763636 219.518779 
L 247.397727 224.918814 
L 248.031818 226.486176 
L 248.665909 226.708547 
L 249.3 222.522134 
L 249.934091 211.530319 
L 250.568182 207.276206 
L 251.202273 196.45404 
L 251.836364 192.487213 
L 252.470455 196.542609 
L 253.104545 190.235345 
L 253.738636 191.80288 
L 254.372727 199.009969 
L 255.006818 215.835707 
L 255.640909 221.950751 
L 256.275 222.247743 
L 256.909091 226.88568 
L 257.543182 232.840764 
L 258.811364 239.817897 
L 259.445455 239.062866 
L 260.079545 236.053512 
L 260.713636 234.098105 
L 261.347727 228.623634 
L 261.981818 215.963411 
L 262.615909 227.917242 
L 263.25 211.152793 
L 263.884091 231.914084 
L 265.152273 218.68382 
L 265.786364 219.762186 
L 266.420455 219.6871 
L 267.054545 216.517331 
L 267.688636 189.482263 
L 268.322727 208.199386 
L 268.956818 127.11518 
L 269.590909 127.878826 
L 270.225 127.534433 
L 270.859091 191.379183 
L 272.127273 210.356304 
L 272.761364 224.411325 
L 273.395455 231.336948 
L 274.029545 233.719568 
L 274.663636 237.844183 
L 275.297727 240.855246 
L 275.931818 238.81779 
L 276.565909 241.050215 
L 277.2 241.848918 
L 277.834091 240.250133 
L 278.468182 234.88652 
L 279.102273 231.115699 
L 279.736364 214.008093 
L 280.370455 214.018102 
L 281.004545 209.107893 
L 281.638636 207.104571 
L 282.272727 214.307774 
L 283.540909 150.890804 
L 284.175 183.178375 
L 284.809091 209.370386 
L 285.443182 222.152243 
L 286.077273 230.635631 
L 286.711364 232.016553 
L 287.979545 227.407259 
L 288.613636 217.050166 
L 289.881818 201.921354 
L 290.515909 200.885004 
L 291.15 181.26751 
L 291.784091 183.990258 
L 292.418182 191.717936 
L 293.052273 186.038871 
L 293.686364 190.585012 
L 294.320455 202.612243 
L 294.954545 201.525442 
L 295.588636 218.364184 
L 296.222727 217.115022 
L 296.856818 214.914773 
L 297.490909 211.263926 
L 298.125 198.730225 
L 298.759091 205.7558 
L 299.393182 188.911137 
L 300.027273 183.501684 
L 300.661364 171.499987 
L 301.295455 128.706905 
L 301.929545 132.024896 
L 302.563636 172.859918 
L 303.197727 182.962577 
L 303.831818 198.235053 
L 304.465909 232.750943 
L 305.1 235.050636 
L 305.734091 222.243443 
L 306.368182 224.018017 
L 307.002273 232.978973 
L 307.636364 235.709889 
L 308.270455 231.729769 
L 308.904545 235.551848 
L 309.538636 234.104917 
L 310.172727 234.682619 
L 310.806818 237.858427 
L 311.440909 238.867462 
L 312.075 239.600427 
L 313.343182 234.337685 
L 313.977273 230.487366 
L 314.611364 223.633864 
L 315.245455 221.481933 
L 315.879545 214.891724 
L 316.513636 197.055094 
L 317.147727 198.69033 
L 317.781818 140.088988 
L 318.415909 197.7996 
L 319.684091 219.420029 
L 320.318182 229.519362 
L 320.952273 230.671198 
L 321.586364 236.661912 
L 322.220455 224.085489 
L 323.488636 218.790487 
L 324.122727 202.000335 
L 324.756818 190.72555 
L 325.390909 149.2422 
L 326.659091 207.823883 
L 327.293182 214.32024 
L 327.927273 211.789214 
L 329.195455 229.797222 
L 329.829545 229.686576 
L 330.463636 226.308928 
L 331.097727 234.598848 
L 331.731818 235.955896 
L 332.365909 239.629162 
L 333 238.879986 
L 333.634091 237.828126 
L 334.268182 222.159489 
L 334.902273 211.85655 
L 335.536364 181.134541 
L 336.170455 179.259751 
L 336.804545 142.518903 
L 337.438636 227.599718 
L 338.072727 222.687782 
L 338.706818 240.439689 
L 339.340909 240.862965 
L 339.975 240.658044 
L 340.609091 236.524915 
L 341.243182 233.53018 
L 341.877273 218.279742 
L 342.511364 227.055328 
L 343.145455 234.142738 
L 344.413636 225.39269 
L 345.047727 230.538776 
L 345.681818 224.458243 
L 346.315909 223.708818 
L 346.95 209.528565 
L 347.584091 204.054651 
L 348.852273 210.265709 
L 349.486364 189.232196 
L 350.120455 203.690407 
L 350.754545 212.43665 
L 351.388636 214.144082 
L 352.022727 219.090992 
L 352.656818 223.016355 
L 353.290909 223.503905 
L 353.925 220.757061 
L 354.559091 210.620428 
L 355.193182 206.237986 
L 355.827273 195.667945 
L 356.461364 191.152032 
L 357.095455 194.516982 
L 357.729545 186.787158 
L 358.363636 186.827105 
L 358.997727 194.342426 
L 359.631818 212.406447 
L 360.265909 219.269364 
L 360.9 219.060139 
L 361.534091 223.477245 
L 362.168182 228.750922 
L 363.436364 236.942434 
L 364.070455 237.276889 
L 364.704545 235.109116 
L 365.338636 233.503373 
L 365.972727 228.059322 
L 366.606818 213.868356 
L 367.240909 226.746988 
L 367.875 203.347421 
L 368.509091 217.96794 
L 369.143182 223.374429 
L 369.777273 216.832366 
L 370.411364 218.345805 
L 371.045455 221.219256 
L 371.679545 206.612254 
L 372.313636 221.908405 
L 372.947727 233.838759 
L 373.581818 232.763146 
L 373.581818 232.763146 
" clip-path="url(#pa7e609294d)" style="fill: none; stroke: #1f77b4; stroke-width: 1.5; stroke-linecap: round"/>
   </g>
   <g id="line2d_16">
    <path d="M 69.218182 82.855778 
L 69.852273 99.086562 
L 71.754545 184.829287 
L 72.388636 188.681619 
L 73.022727 203.099541 
L 73.656818 203.014563 
L 74.290909 196.669544 
L 74.925 207.405089 
L 75.559091 214.883146 
L 76.193182 220.548341 
L 76.827273 228.7912 
L 77.461364 229.414371 
L 78.095455 235.419478 
L 78.729545 234.994588 
L 79.363636 229.697631 
L 79.997727 231.425515 
L 81.265909 219.443628 
L 81.9 217.007594 
L 82.534091 213.665129 
L 83.168182 205.592226 
L 83.802273 188.53999 
L 84.436364 199.643772 
L 85.070455 205.139011 
L 85.704545 215.194732 
L 86.972727 223.72085 
L 87.606818 231.453841 
L 88.240909 233.549963 
L 88.875 227.261597 
L 89.509091 225.703668 
L 90.143182 218.480545 
L 90.777273 225.363757 
L 91.411364 217.120898 
L 92.045455 200.153639 
L 92.679545 190.324526 
L 93.313636 209.019669 
L 93.947727 205.84716 
L 94.581818 208.254868 
L 95.215909 209.302929 
L 95.85 208.396498 
L 96.484091 210.379316 
L 97.118182 217.914025 
L 97.752273 224.060762 
L 98.386364 228.281332 
L 99.020455 219.698562 
L 99.654545 232.671858 
L 100.288636 235.362826 
L 100.922727 238.790269 
L 101.556818 246.24 
L 102.190909 244.512116 
L 102.825 242.387667 
L 104.093182 231.878731 
L 105.361364 225.080497 
L 105.995455 223.126005 
L 106.629545 217.857373 
L 108.531818 173.980439 
L 109.165909 185.140873 
L 109.8 201.824872 
L 110.434091 225.108823 
L 111.068182 230.235824 
L 111.702273 236.580843 
L 112.336364 236.920754 
L 112.970455 239.866656 
L 114.238636 222.984375 
L 114.872727 231.680449 
L 115.506818 221.228164 
L 116.140909 208.254868 
L 116.775 211.625659 
L 117.409091 220.293407 
L 118.043182 226.865033 
L 118.677273 230.320802 
L 119.311364 230.575736 
L 119.945455 231.765427 
L 120.579545 231.028952 
L 121.213636 238.620313 
L 121.847727 237.005732 
L 122.481818 237.543926 
L 123.115909 240.716435 
L 123.75 238.053793 
L 124.384091 221.738032 
L 125.018182 201.399982 
L 125.652273 198.680689 
L 126.286364 188.285056 
L 126.920455 179.872241 
L 127.554545 151.461289 
L 128.188636 154.208908 
L 128.822727 179.504004 
L 129.456818 209.784471 
L 130.090909 227.034989 
L 130.725 219.301998 
L 131.359091 233.068422 
L 131.993182 230.065868 
L 132.627273 221.143186 
L 133.261364 227.686487 
L 133.895455 227.771465 
L 134.529545 222.786093 
L 135.163636 225.816972 
L 135.797727 232.048687 
L 136.431818 229.697631 
L 137.065909 228.847852 
L 137.7 221.029883 
L 138.334091 229.187763 
L 138.968182 233.578289 
L 139.602273 230.915648 
L 140.236364 228.961155 
L 140.870455 223.069353 
L 141.504545 233.833223 
L 142.138636 237.345644 
L 142.772727 241.8778 
L 143.406818 238.875247 
L 144.040909 238.931899 
L 144.675 231.425515 
L 145.309091 219.047064 
L 145.943182 214.288301 
L 147.211364 215.987859 
L 147.845455 214.911472 
L 148.479545 212.050549 
L 149.113636 200.606855 
L 149.747727 209.699493 
L 150.381818 210.49262 
L 151.015909 230.207498 
L 151.65 237.034058 
L 152.284091 236.269257 
L 152.918182 239.583396 
L 153.552273 244.0589 
L 154.186364 239.356788 
L 154.820455 243.379077 
L 156.088636 225.788646 
L 156.722727 215.959533 
L 157.356818 191.740825 
L 157.990909 175.849953 
L 158.625 145.881072 
L 159.259091 125.288088 
L 159.893182 121.209148 
L 160.527273 139.224468 
L 161.161364 180.637043 
L 161.795455 208.339846 
L 162.429545 209.557863 
L 163.063636 203.779364 
L 163.697727 182.053341 
L 164.331818 164.831149 
L 164.965909 99.709733 
L 165.6 123.276944 
L 166.234091 157.749655 
L 167.502273 192.647256 
L 168.136364 205.223989 
L 168.770455 200.351921 
L 169.404545 205.507248 
L 170.038636 187.718536 
L 170.672727 187.095365 
L 172.575 223.607546 
L 173.209091 219.953495 
L 173.843182 212.107201 
L 174.477273 201.654916 
L 175.111364 187.916818 
L 175.745455 199.58712 
L 176.379545 208.934691 
L 177.013636 197.660953 
L 177.647727 205.507248 
L 178.281818 202.504695 
L 178.915909 190.182896 
L 180.184091 209.416233 
L 180.818182 213.495173 
L 181.452273 220.604993 
L 182.720455 228.50794 
L 183.354545 231.652123 
L 184.622727 228.64957 
L 185.256818 220.944905 
L 185.890909 216.101163 
L 186.525 214.798168 
L 187.793182 204.629143 
L 188.427273 186.727127 
L 189.061364 196.55624 
L 189.695455 199.643772 
L 190.329545 209.416233 
L 190.963636 214.741516 
L 191.597727 222.559485 
L 192.231818 233.606615 
L 192.865909 233.464985 
L 193.5 227.233271 
L 194.134091 224.428999 
L 194.768182 219.981821 
L 195.402273 225.590364 
L 196.036364 213.891737 
L 196.670455 189.758006 
L 197.304545 182.818143 
L 197.938636 204.544165 
L 199.206818 206.725265 
L 199.840909 208.31152 
L 200.475 220.491689 
L 201.109091 216.667682 
L 201.743182 220.208429 
L 202.377273 222.927723 
L 203.011364 222.927723 
L 203.645455 212.843676 
L 204.279545 223.805828 
L 204.913636 225.080497 
L 205.547727 229.301067 
L 206.181818 236.779124 
L 207.45 233.125074 
L 208.084091 230.292476 
L 208.718182 222.559485 
L 209.352273 221.483098 
L 210.620455 217.064246 
L 211.254545 211.795615 
L 211.888636 203.269496 
L 212.522727 186.783779 
L 213.156818 165.822558 
L 213.790909 170.24141 
L 214.425 184.092812 
L 215.059091 209.019669 
L 215.693182 216.89429 
L 216.327273 227.969746 
L 216.961364 231.765427 
L 217.595455 231.878731 
L 218.863636 212.53209 
L 219.497727 223.43759 
L 220.765909 205.648878 
L 221.4 209.529537 
L 222.034091 219.556932 
L 222.668182 222.984375 
L 223.302273 224.598955 
L 223.936364 223.267635 
L 225.204545 225.108823 
L 225.838636 231.255559 
L 226.472727 229.102785 
L 227.106818 228.7912 
L 227.740909 233.01177 
L 228.375 233.01177 
L 229.643182 184.234441 
L 230.911364 169.901498 
L 231.545455 167.833702 
L 232.179545 149.336841 
L 232.813636 172.42251 
L 233.447727 186.528845 
L 234.081818 209.699493 
L 234.715909 223.295961 
L 235.35 219.443628 
L 235.984091 223.777502 
L 236.618182 213.665129 
L 237.252273 198.397429 
L 237.886364 203.52443 
L 238.520455 209.614515 
L 239.154545 202.448043 
L 239.788636 207.433415 
L 240.422727 221.624728 
L 241.056818 222.672789 
L 241.690909 226.780055 
L 242.325 217.375832 
L 243.593182 230.83067 
L 244.227273 231.000626 
L 244.861364 226.04358 
L 245.495455 216.922616 
L 246.129545 230.462432 
L 246.763636 230.915648 
L 247.397727 234.796306 
L 248.031818 235.19287 
L 248.665909 234.739654 
L 249.3 226.695077 
L 249.934091 215.194732 
L 250.568182 206.158746 
L 251.202273 206.555309 
L 251.836364 208.878039 
L 252.470455 211.823941 
L 253.104545 208.991343 
L 253.738636 196.754522 
L 254.372727 207.943282 
L 255.006818 208.481476 
L 255.640909 226.921685 
L 256.275 230.887322 
L 256.909091 229.584327 
L 257.543182 234.286439 
L 258.177273 236.750798 
L 258.811364 229.159437 
L 259.445455 231.737101 
L 260.079545 225.731994 
L 261.347727 222.219573 
L 261.981818 200.096987 
L 262.615909 198.369103 
L 263.25 202.023154 
L 263.884091 195.111616 
L 264.518182 175.510041 
L 265.152273 182.336601 
L 265.786364 205.592226 
L 266.420455 223.947458 
L 267.054545 221.68138 
L 267.688636 204.09095 
L 268.322727 171.346123 
L 268.956818 112.796333 
L 269.590909 99.511451 
L 270.225 118.858092 
L 270.859091 149.365167 
L 272.761364 211.512355 
L 273.395455 200.663507 
L 274.029545 205.507248 
L 274.663636 187.067039 
L 275.297727 185.395806 
L 276.565909 213.070284 
L 277.2 222.191247 
L 277.834091 220.859927 
L 279.102273 200.465225 
L 279.736364 187.067039 
L 281.004545 212.418786 
L 281.638636 201.796546 
L 282.272727 208.481476 
L 282.906818 206.215398 
L 283.540909 195.394875 
L 284.175 199.530468 
L 284.809091 204.969055 
L 285.443182 204.969055 
L 286.077273 215.194732 
L 286.711364 217.404158 
L 287.345455 223.465916 
L 287.979545 222.446181 
L 288.613636 222.672789 
L 289.247727 224.712259 
L 289.881818 217.857373 
L 290.515909 213.013632 
L 291.15 211.342399 
L 291.784091 211.030813 
L 292.418182 203.66606 
L 293.052273 189.248139 
L 293.686364 201.286678 
L 294.320455 204.770773 
L 294.954545 215.081428 
L 295.588636 218.310589 
L 296.222727 220.038473 
L 296.856818 224.457325 
L 297.490909 225.703668 
L 298.125 218.537197 
L 298.759091 215.223058 
L 299.393182 207.546719 
L 300.027273 203.127867 
L 301.295455 157.494721 
L 301.929545 152.424372 
L 302.563636 175.679997 
L 303.197727 183.441314 
L 304.465909 173.782157 
L 305.734091 186.302238 
L 307.002273 211.059139 
L 307.636364 218.112307 
L 308.270455 210.294338 
L 308.904545 221.454772 
L 309.538636 224.683933 
L 310.172727 232.473576 
L 310.806818 238.110445 
L 311.440909 236.920754 
L 312.075 234.824632 
L 312.709091 229.669305 
L 313.343182 221.086534 
L 313.977273 221.369794 
L 314.611364 213.495173 
L 315.245455 210.06773 
L 315.879545 205.139011 
L 316.513636 191.344261 
L 317.147727 172.13925 
L 317.781818 158.032915 
L 318.415909 168.428548 
L 319.05 185.707392 
L 319.684091 212.758698 
L 320.318182 220.463363 
L 320.952273 229.895913 
L 321.586364 230.943974 
L 322.220455 234.059831 
L 323.488636 211.767289 
L 324.122727 221.001557 
L 325.390909 201.966502 
L 326.025 208.906365 
L 326.659091 218.678827 
L 327.293182 224.259044 
L 327.927273 226.638426 
L 328.561364 227.544857 
L 329.195455 224.797237 
L 329.829545 226.071906 
L 330.463636 229.187763 
L 331.731818 222.162922 
L 332.365909 232.416924 
L 333 236.014323 
L 333.634091 215.308036 
L 334.268182 185.395806 
L 334.902273 172.337532 
L 335.536364 168.06031 
L 336.170455 167.91868 
L 336.804545 152.112786 
L 337.438636 174.88687 
L 338.072727 191.514217 
L 338.706818 211.512355 
L 339.340909 222.361203 
L 339.975 220.633319 
L 340.609091 228.621244 
L 341.243182 227.261597 
L 341.877273 215.704599 
L 342.511364 219.160368 
L 343.145455 220.321733 
L 343.779545 212.277156 
L 345.047727 224.853889 
L 345.681818 217.262528 
L 346.315909 219.132042 
L 346.95 212.277156 
L 348.218182 227.969746 
L 348.852273 229.272741 
L 349.486364 226.723403 
L 350.120455 217.630766 
L 350.754545 226.865033 
L 351.388636 227.94142 
L 352.022727 232.388598 
L 352.656818 230.717366 
L 353.290909 233.493311 
L 353.925 227.686487 
L 354.559091 215.534643 
L 355.193182 209.331255 
L 355.827273 209.557863 
L 356.461364 211.993897 
L 357.095455 212.192178 
L 357.729545 206.555309 
L 358.363636 194.091881 
L 358.997727 208.254868 
L 359.631818 211.030813 
L 360.265909 229.074459 
L 360.9 229.442697 
L 361.534091 227.884768 
L 362.168182 230.490758 
L 362.802273 234.059831 
L 363.436364 228.111376 
L 364.070455 230.83067 
L 365.338636 214.033367 
L 365.972727 210.63425 
L 366.606818 187.83184 
L 367.240909 180.976954 
L 367.875 159.505866 
L 368.509091 143.36006 
L 369.143182 143.473364 
L 369.777273 155.710185 
L 370.411364 190.976023 
L 371.045455 214.486582 
L 371.679545 217.829047 
L 372.313636 211.653985 
L 373.581818 173.215637 
L 373.581818 173.215637 
" clip-path="url(#pa7e609294d)" style="fill: none; stroke: #ff7f0e; stroke-width: 1.5; stroke-linecap: round"/>
   </g>
   <g id="patch_3">
    <path d="M 54 256.32 
L 54 34.56 
" style="fill: none; stroke: #ffffff; stroke-width: 0.8; stroke-linejoin: miter; stroke-linecap: square"/>
   </g>
   <g id="patch_4">
    <path d="M 388.8 256.32 
L 388.8 34.56 
" style="fill: none; stroke: #ffffff; stroke-width: 0.8; stroke-linejoin: miter; stroke-linecap: square"/>
   </g>
   <g id="patch_5">
    <path d="M 54 256.32 
L 388.8 256.32 
" style="fill: none; stroke: #ffffff; stroke-width: 0.8; stroke-linejoin: miter; stroke-linecap: square"/>
   </g>
   <g id="patch_6">
    <path d="M 54 34.56 
L 388.8 34.56 
" style="fill: none; stroke: #ffffff; stroke-width: 0.8; stroke-linejoin: miter; stroke-linecap: square"/>
   </g>
   <g id="text_17">
    <!-- Protein complex's vibration profile (asymmetric unit) -->
    <g style="fill: #262626" transform="translate(63.195 28.56) scale(0.12 -0.12)">
     <defs>
      <path id="DejaVuSans-50" d="M 1259 4147 
L 1259 2394 
L 2053 2394 
Q 2494 2394 2734 2622 
Q 2975 2850 2975 3272 
Q 2975 3691 2734 3919 
Q 2494 4147 2053 4147 
L 1259 4147 
z
M 628 4666 
L 2053 4666 
Q 2838 4666 3239 4311 
Q 3641 3956 3641 3272 
Q 3641 2581 3239 2228 
Q 2838 1875 2053 1875 
L 1259 1875 
L 1259 0 
L 628 0 
L 628 4666 
z
" transform="scale(0.015625)"/>
      <path id="DejaVuSans-70" d="M 1159 525 
L 1159 -1331 
L 581 -1331 
L 581 3500 
L 1159 3500 
L 1159 2969 
Q 1341 3281 1617 3432 
Q 1894 3584 2278 3584 
Q 2916 3584 3314 3078 
Q 3713 2572 3713 1747 
Q 3713 922 3314 415 
Q 2916 -91 2278 -91 
Q 1894 -91 1617 61 
Q 1341 213 1159 525 
z
M 3116 1747 
Q 3116 2381 2855 2742 
Q 2594 3103 2138 3103 
Q 1681 3103 1420 2742 
Q 1159 2381 1159 1747 
Q 1159 1113 1420 752 
Q 1681 391 2138 391 
Q 2594 391 2855 752 
Q 3116 1113 3116 1747 
z
" transform="scale(0.015625)"/>
      <path id="DejaVuSans-6c" d="M 603 4863 
L 1178 4863 
L 1178 0 
L 603 0 
L 603 4863 
z
" transform="scale(0.015625)"/>
      <path id="DejaVuSans-78" d="M 3513 3500 
L 2247 1797 
L 3578 0 
L 2900 0 
L 1881 1375 
L 863 0 
L 184 0 
L 1544 1831 
L 300 3500 
L 978 3500 
L 1906 2253 
L 2834 3500 
L 3513 3500 
z
" transform="scale(0.015625)"/>
      <path id="DejaVuSans-27" d="M 1147 4666 
L 1147 2931 
L 616 2931 
L 616 4666 
L 1147 4666 
z
" transform="scale(0.015625)"/>
      <path id="DejaVuSans-76" d="M 191 3500 
L 800 3500 
L 1894 563 
L 2988 3500 
L 3597 3500 
L 2284 0 
L 1503 0 
L 191 3500 
z
" transform="scale(0.015625)"/>
      <path id="DejaVuSans-79" d="M 2059 -325 
Q 1816 -950 1584 -1140 
Q 1353 -1331 966 -1331 
L 506 -1331 
L 506 -850 
L 844 -850 
Q 1081 -850 1212 -737 
Q 1344 -625 1503 -206 
L 1606 56 
L 191 3500 
L 800 3500 
L 1894 763 
L 2988 3500 
L 3597 3500 
L 2059 -325 
z
" transform="scale(0.015625)"/>
     </defs>
     <use xlink:href="#DejaVuSans-50"/>
     <use xlink:href="#DejaVuSans-72" x="58.552734"/>
     <use xlink:href="#DejaVuSans-6f" x="97.416016"/>
     <use xlink:href="#DejaVuSans-74" x="158.597656"/>
     <use xlink:href="#DejaVuSans-65" x="197.806641"/>
     <use xlink:href="#DejaVuSans-69" x="259.330078"/>
     <use xlink:href="#DejaVuSans-6e" x="287.113281"/>
     <use xlink:href="#DejaVuSans-20" x="350.492188"/>
     <use xlink:href="#DejaVuSans-63" x="382.279297"/>
     <use xlink:href="#DejaVuSans-6f" x="437.259766"/>
     <use xlink:href="#DejaVuSans-6d" x="498.441406"/>
     <use xlink:href="#DejaVuSans-70" x="595.853516"/>
     <use xlink:href="#DejaVuSans-6c" x="659.330078"/>
     <use xlink:href="#DejaVuSans-65" x="687.113281"/>
     <use xlink:href="#DejaVuSans-78" x="746.886719"/>
     <use xlink:href="#DejaVuSans-27" x="806.066406"/>
     <use xlink:href="#DejaVuSans-73" x="833.556641"/>
     <use xlink:href="#DejaVuSans-20" x="885.65625"/>
     <use xlink:href="#DejaVuSans-76" x="917.443359"/>
     <use xlink:href="#DejaVuSans-69" x="976.623047"/>
     <use xlink:href="#DejaVuSans-62" x="1004.40625"/>
     <use xlink:href="#DejaVuSans-72" x="1067.882812"/>
     <use xlink:href="#DejaVuSans-61" x="1108.996094"/>
     <use xlink:href="#DejaVuSans-74" x="1170.275391"/>
     <use xlink:href="#DejaVuSans-69" x="1209.484375"/>
     <use xlink:href="#DejaVuSans-6f" x="1237.267578"/>
     <use xlink:href="#DejaVuSans-6e" x="1298.449219"/>
     <use xlink:href="#DejaVuSans-20" x="1361.828125"/>
     <use xlink:href="#DejaVuSans-70" x="1393.615234"/>
     <use xlink:href="#DejaVuSans-72" x="1457.091797"/>
     <use xlink:href="#DejaVuSans-6f" x="1495.955078"/>
     <use xlink:href="#DejaVuSans-66" x="1557.136719"/>
     <use xlink:href="#DejaVuSans-69" x="1592.341797"/>
     <use xlink:href="#DejaVuSans-6c" x="1620.125"/>
     <use xlink:href="#DejaVuSans-65" x="1647.908203"/>
     <use xlink:href="#DejaVuSans-20" x="1709.431641"/>
     <use xlink:href="#DejaVuSans-28" x="1741.21875"/>
     <use xlink:href="#DejaVuSans-61" x="1780.232422"/>
     <use xlink:href="#DejaVuSans-73" x="1841.511719"/>
     <use xlink:href="#DejaVuSans-79" x="1893.611328"/>
     <use xlink:href="#DejaVuSans-6d" x="1952.791016"/>
     <use xlink:href="#DejaVuSans-6d" x="2050.203125"/>
     <use xlink:href="#DejaVuSans-65" x="2147.615234"/>
     <use xlink:href="#DejaVuSans-74" x="2209.138672"/>
     <use xlink:href="#DejaVuSans-72" x="2248.347656"/>
     <use xlink:href="#DejaVuSans-69" x="2289.460938"/>
     <use xlink:href="#DejaVuSans-63" x="2317.244141"/>
     <use xlink:href="#DejaVuSans-20" x="2372.224609"/>
     <use xlink:href="#DejaVuSans-75" x="2404.011719"/>
     <use xlink:href="#DejaVuSans-6e" x="2467.390625"/>
     <use xlink:href="#DejaVuSans-69" x="2530.769531"/>
     <use xlink:href="#DejaVuSans-74" x="2558.552734"/>
     <use xlink:href="#DejaVuSans-29" x="2597.761719"/>
    </g>
   </g>
   <g id="legend_1">
    <g id="line2d_17">
     <path d="M 285.114062 47.658437 
L 295.114062 47.658437 
L 305.114062 47.658437 
" style="fill: none; stroke: #1f77b4; stroke-width: 1.5; stroke-linecap: round"/>
    </g>
    <g id="text_18">
     <!-- Predicted -->
     <g style="fill: #262626" transform="translate(313.114062 51.158437) scale(0.1 -0.1)">
      <use xlink:href="#DejaVuSans-50"/>
      <use xlink:href="#DejaVuSans-72" x="58.552734"/>
      <use xlink:href="#DejaVuSans-65" x="97.416016"/>
      <use xlink:href="#DejaVuSans-64" x="158.939453"/>
      <use xlink:href="#DejaVuSans-69" x="222.416016"/>
      <use xlink:href="#DejaVuSans-63" x="250.199219"/>
      <use xlink:href="#DejaVuSans-74" x="305.179688"/>
      <use xlink:href="#DejaVuSans-65" x="344.388672"/>
      <use xlink:href="#DejaVuSans-64" x="405.912109"/>
     </g>
    </g>
    <g id="line2d_18">
     <path d="M 285.114062 62.336562 
L 295.114062 62.336562 
L 305.114062 62.336562 
" style="fill: none; stroke: #ff7f0e; stroke-width: 1.5; stroke-linecap: round"/>
    </g>
    <g id="text_19">
     <!-- Experimental -->
     <g style="fill: #262626" transform="translate(313.114062 65.836562) scale(0.1 -0.1)">
      <defs>
       <path id="DejaVuSans-45" d="M 628 4666 
L 3578 4666 
L 3578 4134 
L 1259 4134 
L 1259 2753 
L 3481 2753 
L 3481 2222 
L 1259 2222 
L 1259 531 
L 3634 531 
L 3634 0 
L 628 0 
L 628 4666 
z
" transform="scale(0.015625)"/>
      </defs>
      <use xlink:href="#DejaVuSans-45"/>
      <use xlink:href="#DejaVuSans-78" x="63.183594"/>
      <use xlink:href="#DejaVuSans-70" x="122.363281"/>
      <use xlink:href="#DejaVuSans-65" x="185.839844"/>
      <use xlink:href="#DejaVuSans-72" x="247.363281"/>
      <use xlink:href="#DejaVuSans-69" x="288.476562"/>
      <use xlink:href="#DejaVuSans-6d" x="316.259766"/>
      <use xlink:href="#DejaVuSans-65" x="413.671875"/>
      <use xlink:href="#DejaVuSans-6e" x="475.195312"/>
      <use xlink:href="#DejaVuSans-74" x="538.574219"/>
      <use xlink:href="#DejaVuSans-61" x="577.783203"/>
      <use xlink:href="#DejaVuSans-6c" x="639.0625"/>
     </g>
    </g>
   </g>
  </g>
 </g>
 <defs>
  <clipPath id="pa7e609294d">
   <rect x="54" y="34.56" width="334.8" height="221.76"/>
  </clipPath>
 </defs>
</svg>
