<?xml version="1.0" encoding="utf-8" standalone="no"?>
<!DOCTYPE svg PUBLIC "-//W3C//DTD SVG 1.1//EN"
  "http://www.w3.org/Graphics/SVG/1.1/DTD/svg11.dtd">
<svg xmlns:xlink="http://www.w3.org/1999/xlink" width="432pt" height="216pt" viewBox="0 0 432 216" xmlns="http://www.w3.org/2000/svg" version="1.1">
 <metadata>
  <rdf:RDF xmlns:dc="http://purl.org/dc/elements/1.1/" xmlns:cc="http://creativecommons.org/ns#" xmlns:rdf="http://www.w3.org/1999/02/22-rdf-syntax-ns#">
   <cc:Work>
    <dc:type rdf:resource="http://purl.org/dc/dcmitype/StillImage"/>
    <dc:date>2023-10-16T17:29:05.252167</dc:date>
    <dc:format>image/svg+xml</dc:format>
    <dc:creator>
     <cc:Agent>
      <dc:title>Matplotlib v3.7.2, https://matplotlib.org/</dc:title>
     </cc:Agent>
    </dc:creator>
   </cc:Work>
  </rdf:RDF>
 </metadata>
 <defs>
  <style type="text/css">*{stroke-linejoin: round; stroke-linecap: butt}</style>
 </defs>
 <g id="figure_1">
  <g id="patch_1">
   <path d="M 0 216 
L 432 216 
L 432 0 
L 0 0 
z
" style="fill: #ffffff"/>
  </g>
  <g id="axes_1">
   <g id="patch_2">
    <path d="M 44.66 96.478182 
L 421.2 96.478182 
L 421.2 32.4 
L 44.66 32.4 
z
" style="fill: #eaeaf2"/>
   </g>
   <g id="matplotlib.axis_1">
    <g id="xtick_1">
     <g id="line2d_1">
      <path d="M 58.306106 96.478182 
L 58.306106 32.4 
" clip-path="url(#p3aa73e2556)" style="fill: none; stroke: #ffffff; stroke-width: 0.8; stroke-linecap: round"/>
     </g>
    </g>
    <g id="xtick_2">
     <g id="line2d_2">
      <path d="M 116.128587 96.478182 
L 116.128587 32.4 
" clip-path="url(#p3aa73e2556)" style="fill: none; stroke: #ffffff; stroke-width: 0.8; stroke-linecap: round"/>
     </g>
    </g>
    <g id="xtick_3">
     <g id="line2d_3">
      <path d="M 173.951069 96.478182 
L 173.951069 32.4 
" clip-path="url(#p3aa73e2556)" style="fill: none; stroke: #ffffff; stroke-width: 0.8; stroke-linecap: round"/>
     </g>
    </g>
    <g id="xtick_4">
     <g id="line2d_4">
      <path d="M 231.77355 96.478182 
L 231.77355 32.4 
" clip-path="url(#p3aa73e2556)" style="fill: none; stroke: #ffffff; stroke-width: 0.8; stroke-linecap: round"/>
     </g>
    </g>
    <g id="xtick_5">
     <g id="line2d_5">
      <path d="M 289.596032 96.478182 
L 289.596032 32.4 
" clip-path="url(#p3aa73e2556)" style="fill: none; stroke: #ffffff; stroke-width: 0.8; stroke-linecap: round"/>
     </g>
    </g>
    <g id="xtick_6">
     <g id="line2d_6">
      <path d="M 347.418514 96.478182 
L 347.418514 32.4 
" clip-path="url(#p3aa73e2556)" style="fill: none; stroke: #ffffff; stroke-width: 0.8; stroke-linecap: round"/>
     </g>
    </g>
    <g id="xtick_7">
     <g id="line2d_7">
      <path d="M 405.240995 96.478182 
L 405.240995 32.4 
" clip-path="url(#p3aa73e2556)" style="fill: none; stroke: #ffffff; stroke-width: 0.8; stroke-linecap: round"/>
     </g>
    </g>
   </g>
   <g id="matplotlib.axis_2">
    <g id="ytick_1">
     <g id="line2d_8">
      <path d="M 44.66 93.565537 
L 421.2 93.565537 
" clip-path="url(#p3aa73e2556)" style="fill: none; stroke: #ffffff; stroke-width: 0.8; stroke-linecap: round"/>
     </g>
     <g id="text_1">
      <!-- 0 -->
      <g style="fill: #262626" transform="translate(31.2975 97.364756) scale(0.1 -0.1)">
       <defs>
        <path id="DejaVuSans-30" d="M 2034 4250 
Q 1547 4250 1301 3770 
Q 1056 3291 1056 2328 
Q 1056 1369 1301 889 
Q 1547 409 2034 409 
Q 2525 409 2770 889 
Q 3016 1369 3016 2328 
Q 3016 3291 2770 3770 
Q 2525 4250 2034 4250 
z
M 2034 4750 
Q 2819 4750 3233 4129 
Q 3647 3509 3647 2328 
Q 3647 1150 3233 529 
Q 2819 -91 2034 -91 
Q 1250 -91 836 529 
Q 422 1150 422 2328 
Q 422 3509 836 4129 
Q 1250 4750 2034 4750 
z
" transform="scale(0.015625)"/>
       </defs>
       <use xlink:href="#DejaVuSans-30"/>
      </g>
     </g>
    </g>
    <g id="ytick_2">
     <g id="line2d_9">
      <path d="M 44.66 65.592846 
L 421.2 65.592846 
" clip-path="url(#p3aa73e2556)" style="fill: none; stroke: #ffffff; stroke-width: 0.8; stroke-linecap: round"/>
     </g>
     <g id="text_2">
      <!-- 10 -->
      <g style="fill: #262626" transform="translate(24.935 69.392064) scale(0.1 -0.1)">
       <defs>
        <path id="DejaVuSans-31" d="M 794 531 
L 1825 531 
L 1825 4091 
L 703 3866 
L 703 4441 
L 1819 4666 
L 2450 4666 
L 2450 531 
L 3481 531 
L 3481 0 
L 794 0 
L 794 531 
z
" transform="scale(0.015625)"/>
       </defs>
       <use xlink:href="#DejaVuSans-31"/>
       <use xlink:href="#DejaVuSans-30" x="63.623047"/>
      </g>
     </g>
    </g>
    <g id="ytick_3">
     <g id="line2d_10">
      <path d="M 44.66 37.620154 
L 421.2 37.620154 
" clip-path="url(#p3aa73e2556)" style="fill: none; stroke: #ffffff; stroke-width: 0.8; stroke-linecap: round"/>
     </g>
     <g id="text_3">
      <!-- 20 -->
      <g style="fill: #262626" transform="translate(24.935 41.419373) scale(0.1 -0.1)">
       <defs>
        <path id="DejaVuSans-32" d="M 1228 531 
L 3431 531 
L 3431 0 
L 469 0 
L 469 531 
Q 828 903 1448 1529 
Q 2069 2156 2228 2338 
Q 2531 2678 2651 2914 
Q 2772 3150 2772 3378 
Q 2772 3750 2511 3984 
Q 2250 4219 1831 4219 
Q 1534 4219 1204 4116 
Q 875 4013 500 3803 
L 500 4441 
Q 881 4594 1212 4672 
Q 1544 4750 1819 4750 
Q 2544 4750 2975 4387 
Q 3406 4025 3406 3419 
Q 3406 3131 3298 2873 
Q 3191 2616 2906 2266 
Q 2828 2175 2409 1742 
Q 1991 1309 1228 531 
z
" transform="scale(0.015625)"/>
       </defs>
       <use xlink:href="#DejaVuSans-32"/>
       <use xlink:href="#DejaVuSans-30" x="63.623047"/>
      </g>
     </g>
    </g>
    <g id="text_4">
     <!-- Quality score -->
     <g style="fill: #262626" transform="translate(18.855313 97.327372) rotate(-90) scale(0.1 -0.1)">
      <defs>
       <path id="DejaVuSans-51" d="M 2522 4238 
Q 1834 4238 1429 3725 
Q 1025 3213 1025 2328 
Q 1025 1447 1429 934 
Q 1834 422 2522 422 
Q 3209 422 3611 934 
Q 4013 1447 4013 2328 
Q 4013 3213 3611 3725 
Q 3209 4238 2522 4238 
z
M 3406 84 
L 4238 -825 
L 3475 -825 
L 2784 -78 
Q 2681 -84 2626 -87 
Q 2572 -91 2522 -91 
Q 1538 -91 948 567 
Q 359 1225 359 2328 
Q 359 3434 948 4092 
Q 1538 4750 2522 4750 
Q 3503 4750 4090 4092 
Q 4678 3434 4678 2328 
Q 4678 1516 4351 937 
Q 4025 359 3406 84 
z
" transform="scale(0.015625)"/>
       <path id="DejaVuSans-75" d="M 544 1381 
L 544 3500 
L 1119 3500 
L 1119 1403 
Q 1119 906 1312 657 
Q 1506 409 1894 409 
Q 2359 409 2629 706 
Q 2900 1003 2900 1516 
L 2900 3500 
L 3475 3500 
L 3475 0 
L 2900 0 
L 2900 538 
Q 2691 219 2414 64 
Q 2138 -91 1772 -91 
Q 1169 -91 856 284 
Q 544 659 544 1381 
z
M 1991 3584 
L 1991 3584 
z
" transform="scale(0.015625)"/>
       <path id="DejaVuSans-61" d="M 2194 1759 
Q 1497 1759 1228 1600 
Q 959 1441 959 1056 
Q 959 750 1161 570 
Q 1363 391 1709 391 
Q 2188 391 2477 730 
Q 2766 1069 2766 1631 
L 2766 1759 
L 2194 1759 
z
M 3341 1997 
L 3341 0 
L 2766 0 
L 2766 531 
Q 2569 213 2275 61 
Q 1981 -91 1556 -91 
Q 1019 -91 701 211 
Q 384 513 384 1019 
Q 384 1609 779 1909 
Q 1175 2209 1959 2209 
L 2766 2209 
L 2766 2266 
Q 2766 2663 2505 2880 
Q 2244 3097 1772 3097 
Q 1472 3097 1187 3025 
Q 903 2953 641 2809 
L 641 3341 
Q 956 3463 1253 3523 
Q 1550 3584 1831 3584 
Q 2591 3584 2966 3190 
Q 3341 2797 3341 1997 
z
" transform="scale(0.015625)"/>
       <path id="DejaVuSans-6c" d="M 603 4863 
L 1178 4863 
L 1178 0 
L 603 0 
L 603 4863 
z
" transform="scale(0.015625)"/>
       <path id="DejaVuSans-69" d="M 603 3500 
L 1178 3500 
L 1178 0 
L 603 0 
L 603 3500 
z
M 603 4863 
L 1178 4863 
L 1178 4134 
L 603 4134 
L 603 4863 
z
" transform="scale(0.015625)"/>
       <path id="DejaVuSans-74" d="M 1172 4494 
L 1172 3500 
L 2356 3500 
L 2356 3053 
L 1172 3053 
L 1172 1153 
Q 1172 725 1289 603 
Q 1406 481 1766 481 
L 2356 481 
L 2356 0 
L 1766 0 
Q 1100 0 847 248 
Q 594 497 594 1153 
L 594 3053 
L 172 3053 
L 172 3500 
L 594 3500 
L 594 4494 
L 1172 4494 
z
" transform="scale(0.015625)"/>
       <path id="DejaVuSans-79" d="M 2059 -325 
Q 1816 -950 1584 -1140 
Q 1353 -1331 966 -1331 
L 506 -1331 
L 506 -850 
L 844 -850 
Q 1081 -850 1212 -737 
Q 1344 -625 1503 -206 
L 1606 56 
L 191 3500 
L 800 3500 
L 1894 763 
L 2988 3500 
L 3597 3500 
L 2059 -325 
z
" transform="scale(0.015625)"/>
       <path id="DejaVuSans-20" transform="scale(0.015625)"/>
       <path id="DejaVuSans-73" d="M 2834 3397 
L 2834 2853 
Q 2591 2978 2328 3040 
Q 2066 3103 1784 3103 
Q 1356 3103 1142 2972 
Q 928 2841 928 2578 
Q 928 2378 1081 2264 
Q 1234 2150 1697 2047 
L 1894 2003 
Q 2506 1872 2764 1633 
Q 3022 1394 3022 966 
Q 3022 478 2636 193 
Q 2250 -91 1575 -91 
Q 1294 -91 989 -36 
Q 684 19 347 128 
L 347 722 
Q 666 556 975 473 
Q 1284 391 1588 391 
Q 1994 391 2212 530 
Q 2431 669 2431 922 
Q 2431 1156 2273 1281 
Q 2116 1406 1581 1522 
L 1381 1569 
Q 847 1681 609 1914 
Q 372 2147 372 2553 
Q 372 3047 722 3315 
Q 1072 3584 1716 3584 
Q 2034 3584 2315 3537 
Q 2597 3491 2834 3397 
z
" transform="scale(0.015625)"/>
       <path id="DejaVuSans-63" d="M 3122 3366 
L 3122 2828 
Q 2878 2963 2633 3030 
Q 2388 3097 2138 3097 
Q 1578 3097 1268 2742 
Q 959 2388 959 1747 
Q 959 1106 1268 751 
Q 1578 397 2138 397 
Q 2388 397 2633 464 
Q 2878 531 3122 666 
L 3122 134 
Q 2881 22 2623 -34 
Q 2366 -91 2075 -91 
Q 1284 -91 818 406 
Q 353 903 353 1747 
Q 353 2603 823 3093 
Q 1294 3584 2113 3584 
Q 2378 3584 2631 3529 
Q 2884 3475 3122 3366 
z
" transform="scale(0.015625)"/>
       <path id="DejaVuSans-6f" d="M 1959 3097 
Q 1497 3097 1228 2736 
Q 959 2375 959 1747 
Q 959 1119 1226 758 
Q 1494 397 1959 397 
Q 2419 397 2687 759 
Q 2956 1122 2956 1747 
Q 2956 2369 2687 2733 
Q 2419 3097 1959 3097 
z
M 1959 3584 
Q 2709 3584 3137 3096 
Q 3566 2609 3566 1747 
Q 3566 888 3137 398 
Q 2709 -91 1959 -91 
Q 1206 -91 779 398 
Q 353 888 353 1747 
Q 353 2609 779 3096 
Q 1206 3584 1959 3584 
z
" transform="scale(0.015625)"/>
       <path id="DejaVuSans-72" d="M 2631 2963 
Q 2534 3019 2420 3045 
Q 2306 3072 2169 3072 
Q 1681 3072 1420 2755 
Q 1159 2438 1159 1844 
L 1159 0 
L 581 0 
L 581 3500 
L 1159 3500 
L 1159 2956 
Q 1341 3275 1631 3429 
Q 1922 3584 2338 3584 
Q 2397 3584 2469 3576 
Q 2541 3569 2628 3553 
L 2631 2963 
z
" transform="scale(0.015625)"/>
       <path id="DejaVuSans-65" d="M 3597 1894 
L 3597 1613 
L 953 1613 
Q 991 1019 1311 708 
Q 1631 397 2203 397 
Q 2534 397 2845 478 
Q 3156 559 3463 722 
L 3463 178 
Q 3153 47 2828 -22 
Q 2503 -91 2169 -91 
Q 1331 -91 842 396 
Q 353 884 353 1716 
Q 353 2575 817 3079 
Q 1281 3584 2069 3584 
Q 2775 3584 3186 3129 
Q 3597 2675 3597 1894 
z
M 3022 2063 
Q 3016 2534 2758 2815 
Q 2500 3097 2075 3097 
Q 1594 3097 1305 2825 
Q 1016 2553 972 2059 
L 3022 2063 
z
" transform="scale(0.015625)"/>
      </defs>
      <use xlink:href="#DejaVuSans-51"/>
      <use xlink:href="#DejaVuSans-75" x="78.710938"/>
      <use xlink:href="#DejaVuSans-61" x="142.089844"/>
      <use xlink:href="#DejaVuSans-6c" x="203.369141"/>
      <use xlink:href="#DejaVuSans-69" x="231.152344"/>
      <use xlink:href="#DejaVuSans-74" x="258.935547"/>
      <use xlink:href="#DejaVuSans-79" x="298.144531"/>
      <use xlink:href="#DejaVuSans-20" x="357.324219"/>
      <use xlink:href="#DejaVuSans-73" x="389.111328"/>
      <use xlink:href="#DejaVuSans-63" x="441.210938"/>
      <use xlink:href="#DejaVuSans-6f" x="496.191406"/>
      <use xlink:href="#DejaVuSans-72" x="557.373047"/>
      <use xlink:href="#DejaVuSans-65" x="596.236328"/>
     </g>
    </g>
   </g>
   <g id="PolyCollection_1"/>
   <g id="line2d_11">
    <path d="M 61.775455 83.451738 
L 62.931904 84.845365 
L 64.088354 84.794626 
L 65.244803 82.133734 
L 66.401253 84.694816 
L 67.557703 85.754458 
L 68.714152 85.462773 
L 69.870602 85.669077 
L 71.027052 85.762195 
L 72.183501 86.045095 
L 73.339951 85.819766 
L 74.4964 85.910368 
L 75.65285 85.081623 
L 76.8093 83.747326 
L 77.965749 83.320288 
L 79.122199 83.325481 
L 80.278649 81.780576 
L 81.435098 79.706554 
L 82.591548 76.507207 
L 83.747998 78.612836 
L 86.060897 81.814398 
L 87.217346 82.531672 
L 88.373796 82.992786 
L 89.530246 83.077729 
L 90.686695 82.932108 
L 91.843145 83.10746 
L 92.999595 82.689217 
L 94.156044 82.038136 
L 95.312494 82.242964 
L 97.625393 81.775102 
L 98.781843 82.388686 
L 99.938292 82.57442 
L 101.094742 82.875878 
L 102.251192 82.689461 
L 103.407641 83.009435 
L 104.564091 83.554899 
L 105.720541 83.651223 
L 106.87699 83.280701 
L 108.03344 83.660738 
L 109.189889 84.297174 
L 110.346339 84.350648 
L 111.502789 84.874475 
L 112.659238 84.700692 
L 114.972138 84.6883 
L 116.128587 84.849324 
L 117.285037 84.777447 
L 119.597936 84.955742 
L 120.754386 83.896608 
L 121.910835 83.732549 
L 123.067285 83.910775 
L 124.223735 84.402055 
L 125.380184 84.230298 
L 126.536634 84.719776 
L 127.693084 84.824428 
L 128.849533 84.650131 
L 130.005983 84.619873 
L 131.162432 84.238103 
L 132.318882 82.746452 
L 133.475332 82.556322 
L 134.631781 82.79777 
L 136.944681 81.832067 
L 138.10113 82.22753 
L 140.414029 81.531624 
L 141.570479 81.644366 
L 143.883378 80.651557 
L 145.039828 80.459231 
L 146.196278 80.383042 
L 147.352727 80.483979 
L 148.509177 79.950095 
L 149.665627 79.806694 
L 150.822076 79.493661 
L 151.978526 78.829546 
L 153.134975 79.036503 
L 154.291425 79.606152 
L 156.604324 78.694162 
L 157.760774 77.773518 
L 158.917224 77.911393 
L 160.073673 76.547646 
L 161.230123 76.482521 
L 162.386572 77.159393 
L 163.543022 76.668453 
L 164.699472 75.304386 
L 165.855921 76.182248 
L 167.012371 76.321412 
L 168.168821 78.094561 
L 169.32527 78.866547 
L 170.48172 79.096131 
L 171.63817 79.661553 
L 173.951069 79.676054 
L 176.263968 79.787075 
L 177.420418 79.945893 
L 178.576867 79.709412 
L 179.733317 79.037017 
L 182.046216 79.288303 
L 184.359115 80.189862 
L 186.672015 80.616926 
L 187.828464 81.106008 
L 188.984914 80.757515 
L 190.141364 80.811691 
L 191.297813 81.085895 
L 192.454263 80.808835 
L 193.610713 80.859965 
L 194.767162 81.226302 
L 195.923612 80.924643 
L 197.080061 80.893199 
L 198.236511 81.492609 
L 200.54941 80.524825 
L 201.70586 81.300408 
L 202.86231 80.451445 
L 204.018759 81.040543 
L 205.175209 81.843653 
L 206.331658 81.056952 
L 208.644558 78.245073 
L 209.801007 78.502072 
L 212.113907 77.545114 
L 213.270356 76.765852 
L 214.426806 78.032438 
L 215.583256 74.55777 
L 216.739705 77.083649 
L 217.896155 69.957427 
L 219.052604 71.329779 
L 220.209054 70.815064 
L 221.365504 71.366119 
L 222.521953 72.288444 
L 223.678403 71.495251 
L 224.834853 69.422966 
L 225.991302 69.918503 
L 227.147752 68.854834 
L 228.304201 68.577497 
L 229.460651 68.022125 
L 230.617101 66.623178 
L 231.77355 65.713205 
L 232.93 65.959256 
L 234.08645 66.803741 
L 235.242899 67.278593 
L 237.555799 67.99445 
L 238.712248 69.153717 
L 239.868698 68.841077 
L 241.025147 69.438764 
L 242.181597 70.519083 
L 243.338047 71.858511 
L 244.494496 71.138335 
L 245.650946 68.250917 
L 246.807396 67.088821 
L 247.963845 67.011056 
L 249.120295 68.027336 
L 250.276744 66.794639 
L 251.433194 65.33765 
L 252.589644 64.135899 
L 253.746093 63.831598 
L 254.902543 62.274498 
L 256.058993 63.119813 
L 257.215442 62.070791 
L 258.371892 60.221348 
L 259.528342 60.624165 
L 260.684791 59.877473 
L 261.841241 57.330407 
L 262.99769 52.933587 
L 264.15414 48.994231 
L 265.31059 46.337285 
L 266.467039 45.152543 
L 267.623489 45.777027 
L 271.092838 47.17462 
L 274.562187 47.592609 
L 275.718636 48.588618 
L 276.875086 48.430838 
L 278.031536 48.146803 
L 279.187985 47.40049 
L 280.344435 46.955216 
L 281.500885 46.993427 
L 282.657334 45.993597 
L 283.813784 44.59021 
L 284.970233 45.178907 
L 286.126683 46.164056 
L 287.283133 46.583357 
L 288.439582 47.140249 
L 289.596032 47.929161 
L 290.752482 47.465377 
L 291.908931 48.2928 
L 293.065381 47.349396 
L 294.22183 47.187821 
L 295.37828 44.390261 
L 296.53473 48.110274 
L 297.691179 44.559014 
L 298.847629 38.633465 
L 300.004079 37.586758 
L 301.160528 35.312645 
L 303.473428 39.553571 
L 305.786327 43.603319 
L 306.942776 45.884028 
L 308.099226 47.477904 
L 309.255676 48.510961 
L 310.412125 50.223175 
L 311.568575 51.540662 
L 312.725025 52.444478 
L 315.037924 54.966038 
L 316.194373 55.307856 
L 317.350823 55.780614 
L 318.507273 55.836582 
L 319.663722 56.036486 
L 320.820172 56.79021 
L 321.976622 57.220378 
L 323.133071 58.579063 
L 324.289521 58.365172 
L 325.445971 59.22749 
L 326.60242 59.583155 
L 327.75887 59.654859 
L 328.915319 60.007753 
L 330.071769 60.81734 
L 331.228219 61.084921 
L 332.384668 61.507771 
L 333.541118 61.729136 
L 334.697568 61.04602 
L 335.854017 61.699898 
L 337.010467 63.170796 
L 338.166916 63.378116 
L 339.323366 63.465171 
L 340.479816 63.392919 
L 341.636265 63.791676 
L 345.105614 64.216521 
L 347.418514 65.464582 
L 348.574963 65.46264 
L 349.731413 65.618896 
L 353.200762 65.198986 
L 354.357211 64.703114 
L 357.82656 64.504908 
L 360.139459 64.855928 
L 362.452359 64.978034 
L 364.765258 64.694199 
L 365.921708 64.792522 
L 367.078157 64.323062 
L 368.234607 64.427406 
L 369.391057 64.318914 
L 371.703956 63.835625 
L 372.860405 63.430563 
L 374.016855 63.250627 
L 376.329754 62.64337 
L 377.486204 62.498063 
L 378.642654 62.493528 
L 379.799103 62.348548 
L 382.112002 60.838202 
L 384.424902 61.40175 
L 386.737801 61.821648 
L 387.894251 62.199065 
L 389.0507 62.411896 
L 390.20715 62.819517 
L 392.520049 63.060474 
L 393.676499 63.345338 
L 397.145848 63.637378 
L 400.615197 63.696046 
L 401.771646 63.88519 
L 404.084545 63.872379 
L 404.084545 63.872379 
" clip-path="url(#p3aa73e2556)" style="fill: none; stroke: #1f77b4; stroke-width: 1.5; stroke-linecap: round"/>
   </g>
   <g id="LineCollection_1">
    <path d="M 301.160528 93.565537 
L 301.160528 35.312645 
" clip-path="url(#p3aa73e2556)" style="fill: none; stroke: #000000; stroke-width: 1.5"/>
   </g>
   <g id="patch_3">
    <path d="M 44.66 96.478182 
L 44.66 32.4 
" style="fill: none; stroke: #ffffff; stroke-width: 0.8; stroke-linejoin: miter; stroke-linecap: square"/>
   </g>
   <g id="patch_4">
    <path d="M 421.2 96.478182 
L 421.2 32.4 
" style="fill: none; stroke: #ffffff; stroke-width: 0.8; stroke-linejoin: miter; stroke-linecap: square"/>
   </g>
   <g id="patch_5">
    <path d="M 44.66 96.478182 
L 421.2 96.478182 
" style="fill: none; stroke: #ffffff; stroke-width: 0.8; stroke-linejoin: miter; stroke-linecap: square"/>
   </g>
   <g id="patch_6">
    <path d="M 44.66 32.4 
L 421.2 32.4 
" style="fill: none; stroke: #ffffff; stroke-width: 0.8; stroke-linejoin: miter; stroke-linecap: square"/>
   </g>
  </g>
  <g id="axes_2">
   <g id="patch_7">
    <path d="M 44.66 174.04 
L 421.2 174.04 
L 421.2 109.961818 
L 44.66 109.961818 
z
" style="fill: #eaeaf2"/>
   </g>
   <g id="matplotlib.axis_3">
    <g id="xtick_8">
     <g id="line2d_12">
      <path d="M 58.306106 174.04 
L 58.306106 109.961818 
" clip-path="url(#p5eb7f81682)" style="fill: none; stroke: #ffffff; stroke-width: 0.8; stroke-linecap: round"/>
     </g>
     <g id="text_5">
      <!-- 0 -->
      <g style="fill: #262626" transform="translate(55.124856 188.638437) scale(0.1 -0.1)">
       <use xlink:href="#DejaVuSans-30"/>
      </g>
     </g>
    </g>
    <g id="xtick_9">
     <g id="line2d_13">
      <path d="M 116.128587 174.04 
L 116.128587 109.961818 
" clip-path="url(#p5eb7f81682)" style="fill: none; stroke: #ffffff; stroke-width: 0.8; stroke-linecap: round"/>
     </g>
     <g id="text_6">
      <!-- 100 -->
      <g style="fill: #262626" transform="translate(106.584837 188.638437) scale(0.1 -0.1)">
       <use xlink:href="#DejaVuSans-31"/>
       <use xlink:href="#DejaVuSans-30" x="63.623047"/>
       <use xlink:href="#DejaVuSans-30" x="127.246094"/>
      </g>
     </g>
    </g>
    <g id="xtick_10">
     <g id="line2d_14">
      <path d="M 173.951069 174.04 
L 173.951069 109.961818 
" clip-path="url(#p5eb7f81682)" style="fill: none; stroke: #ffffff; stroke-width: 0.8; stroke-linecap: round"/>
     </g>
     <g id="text_7">
      <!-- 200 -->
      <g style="fill: #262626" transform="translate(164.407319 188.638437) scale(0.1 -0.1)">
       <use xlink:href="#DejaVuSans-32"/>
       <use xlink:href="#DejaVuSans-30" x="63.623047"/>
       <use xlink:href="#DejaVuSans-30" x="127.246094"/>
      </g>
     </g>
    </g>
    <g id="xtick_11">
     <g id="line2d_15">
      <path d="M 231.77355 174.04 
L 231.77355 109.961818 
" clip-path="url(#p5eb7f81682)" style="fill: none; stroke: #ffffff; stroke-width: 0.8; stroke-linecap: round"/>
     </g>
     <g id="text_8">
      <!-- 300 -->
      <g style="fill: #262626" transform="translate(222.2298 188.638437) scale(0.1 -0.1)">
       <defs>
        <path id="DejaVuSans-33" d="M 2597 2516 
Q 3050 2419 3304 2112 
Q 3559 1806 3559 1356 
Q 3559 666 3084 287 
Q 2609 -91 1734 -91 
Q 1441 -91 1130 -33 
Q 819 25 488 141 
L 488 750 
Q 750 597 1062 519 
Q 1375 441 1716 441 
Q 2309 441 2620 675 
Q 2931 909 2931 1356 
Q 2931 1769 2642 2001 
Q 2353 2234 1838 2234 
L 1294 2234 
L 1294 2753 
L 1863 2753 
Q 2328 2753 2575 2939 
Q 2822 3125 2822 3475 
Q 2822 3834 2567 4026 
Q 2313 4219 1838 4219 
Q 1578 4219 1281 4162 
Q 984 4106 628 3988 
L 628 4550 
Q 988 4650 1302 4700 
Q 1616 4750 1894 4750 
Q 2613 4750 3031 4423 
Q 3450 4097 3450 3541 
Q 3450 3153 3228 2886 
Q 3006 2619 2597 2516 
z
" transform="scale(0.015625)"/>
       </defs>
       <use xlink:href="#DejaVuSans-33"/>
       <use xlink:href="#DejaVuSans-30" x="63.623047"/>
       <use xlink:href="#DejaVuSans-30" x="127.246094"/>
      </g>
     </g>
    </g>
    <g id="xtick_12">
     <g id="line2d_16">
      <path d="M 289.596032 174.04 
L 289.596032 109.961818 
" clip-path="url(#p5eb7f81682)" style="fill: none; stroke: #ffffff; stroke-width: 0.8; stroke-linecap: round"/>
     </g>
     <g id="text_9">
      <!-- 400 -->
      <g style="fill: #262626" transform="translate(280.052282 188.638437) scale(0.1 -0.1)">
       <defs>
        <path id="DejaVuSans-34" d="M 2419 4116 
L 825 1625 
L 2419 1625 
L 2419 4116 
z
M 2253 4666 
L 3047 4666 
L 3047 1625 
L 3713 1625 
L 3713 1100 
L 3047 1100 
L 3047 0 
L 2419 0 
L 2419 1100 
L 313 1100 
L 313 1709 
L 2253 4666 
z
" transform="scale(0.015625)"/>
       </defs>
       <use xlink:href="#DejaVuSans-34"/>
       <use xlink:href="#DejaVuSans-30" x="63.623047"/>
       <use xlink:href="#DejaVuSans-30" x="127.246094"/>
      </g>
     </g>
    </g>
    <g id="xtick_13">
     <g id="line2d_17">
      <path d="M 347.418514 174.04 
L 347.418514 109.961818 
" clip-path="url(#p5eb7f81682)" style="fill: none; stroke: #ffffff; stroke-width: 0.8; stroke-linecap: round"/>
     </g>
     <g id="text_10">
      <!-- 500 -->
      <g style="fill: #262626" transform="translate(337.874764 188.638437) scale(0.1 -0.1)">
       <defs>
        <path id="DejaVuSans-35" d="M 691 4666 
L 3169 4666 
L 3169 4134 
L 1269 4134 
L 1269 2991 
Q 1406 3038 1543 3061 
Q 1681 3084 1819 3084 
Q 2600 3084 3056 2656 
Q 3513 2228 3513 1497 
Q 3513 744 3044 326 
Q 2575 -91 1722 -91 
Q 1428 -91 1123 -41 
Q 819 9 494 109 
L 494 744 
Q 775 591 1075 516 
Q 1375 441 1709 441 
Q 2250 441 2565 725 
Q 2881 1009 2881 1497 
Q 2881 1984 2565 2268 
Q 2250 2553 1709 2553 
Q 1456 2553 1204 2497 
Q 953 2441 691 2322 
L 691 4666 
z
" transform="scale(0.015625)"/>
       </defs>
       <use xlink:href="#DejaVuSans-35"/>
       <use xlink:href="#DejaVuSans-30" x="63.623047"/>
       <use xlink:href="#DejaVuSans-30" x="127.246094"/>
      </g>
     </g>
    </g>
    <g id="xtick_14">
     <g id="line2d_18">
      <path d="M 405.240995 174.04 
L 405.240995 109.961818 
" clip-path="url(#p5eb7f81682)" style="fill: none; stroke: #ffffff; stroke-width: 0.8; stroke-linecap: round"/>
     </g>
     <g id="text_11">
      <!-- 600 -->
      <g style="fill: #262626" transform="translate(395.697245 188.638437) scale(0.1 -0.1)">
       <defs>
        <path id="DejaVuSans-36" d="M 2113 2584 
Q 1688 2584 1439 2293 
Q 1191 2003 1191 1497 
Q 1191 994 1439 701 
Q 1688 409 2113 409 
Q 2538 409 2786 701 
Q 3034 994 3034 1497 
Q 3034 2003 2786 2293 
Q 2538 2584 2113 2584 
z
M 3366 4563 
L 3366 3988 
Q 3128 4100 2886 4159 
Q 2644 4219 2406 4219 
Q 1781 4219 1451 3797 
Q 1122 3375 1075 2522 
Q 1259 2794 1537 2939 
Q 1816 3084 2150 3084 
Q 2853 3084 3261 2657 
Q 3669 2231 3669 1497 
Q 3669 778 3244 343 
Q 2819 -91 2113 -91 
Q 1303 -91 875 529 
Q 447 1150 447 2328 
Q 447 3434 972 4092 
Q 1497 4750 2381 4750 
Q 2619 4750 2861 4703 
Q 3103 4656 3366 4563 
z
" transform="scale(0.015625)"/>
       </defs>
       <use xlink:href="#DejaVuSans-36"/>
       <use xlink:href="#DejaVuSans-30" x="63.623047"/>
       <use xlink:href="#DejaVuSans-30" x="127.246094"/>
      </g>
     </g>
    </g>
    <g id="text_12">
     <!-- Number of clusters -->
     <g style="fill: #262626" transform="translate(185.237813 202.316562) scale(0.1 -0.1)">
      <defs>
       <path id="DejaVuSans-4e" d="M 628 4666 
L 1478 4666 
L 3547 763 
L 3547 4666 
L 4159 4666 
L 4159 0 
L 3309 0 
L 1241 3903 
L 1241 0 
L 628 0 
L 628 4666 
z
" transform="scale(0.015625)"/>
       <path id="DejaVuSans-6d" d="M 3328 2828 
Q 3544 3216 3844 3400 
Q 4144 3584 4550 3584 
Q 5097 3584 5394 3201 
Q 5691 2819 5691 2113 
L 5691 0 
L 5113 0 
L 5113 2094 
Q 5113 2597 4934 2840 
Q 4756 3084 4391 3084 
Q 3944 3084 3684 2787 
Q 3425 2491 3425 1978 
L 3425 0 
L 2847 0 
L 2847 2094 
Q 2847 2600 2669 2842 
Q 2491 3084 2119 3084 
Q 1678 3084 1418 2786 
Q 1159 2488 1159 1978 
L 1159 0 
L 581 0 
L 581 3500 
L 1159 3500 
L 1159 2956 
Q 1356 3278 1631 3431 
Q 1906 3584 2284 3584 
Q 2666 3584 2933 3390 
Q 3200 3197 3328 2828 
z
" transform="scale(0.015625)"/>
       <path id="DejaVuSans-62" d="M 3116 1747 
Q 3116 2381 2855 2742 
Q 2594 3103 2138 3103 
Q 1681 3103 1420 2742 
Q 1159 2381 1159 1747 
Q 1159 1113 1420 752 
Q 1681 391 2138 391 
Q 2594 391 2855 752 
Q 3116 1113 3116 1747 
z
M 1159 2969 
Q 1341 3281 1617 3432 
Q 1894 3584 2278 3584 
Q 2916 3584 3314 3078 
Q 3713 2572 3713 1747 
Q 3713 922 3314 415 
Q 2916 -91 2278 -91 
Q 1894 -91 1617 61 
Q 1341 213 1159 525 
L 1159 0 
L 581 0 
L 581 4863 
L 1159 4863 
L 1159 2969 
z
" transform="scale(0.015625)"/>
       <path id="DejaVuSans-66" d="M 2375 4863 
L 2375 4384 
L 1825 4384 
Q 1516 4384 1395 4259 
Q 1275 4134 1275 3809 
L 1275 3500 
L 2222 3500 
L 2222 3053 
L 1275 3053 
L 1275 0 
L 697 0 
L 697 3053 
L 147 3053 
L 147 3500 
L 697 3500 
L 697 3744 
Q 697 4328 969 4595 
Q 1241 4863 1831 4863 
L 2375 4863 
z
" transform="scale(0.015625)"/>
      </defs>
      <use xlink:href="#DejaVuSans-4e"/>
      <use xlink:href="#DejaVuSans-75" x="74.804688"/>
      <use xlink:href="#DejaVuSans-6d" x="138.183594"/>
      <use xlink:href="#DejaVuSans-62" x="235.595703"/>
      <use xlink:href="#DejaVuSans-65" x="299.072266"/>
      <use xlink:href="#DejaVuSans-72" x="360.595703"/>
      <use xlink:href="#DejaVuSans-20" x="401.708984"/>
      <use xlink:href="#DejaVuSans-6f" x="433.496094"/>
      <use xlink:href="#DejaVuSans-66" x="494.677734"/>
      <use xlink:href="#DejaVuSans-20" x="529.882812"/>
      <use xlink:href="#DejaVuSans-63" x="561.669922"/>
      <use xlink:href="#DejaVuSans-6c" x="616.650391"/>
      <use xlink:href="#DejaVuSans-75" x="644.433594"/>
      <use xlink:href="#DejaVuSans-73" x="707.8125"/>
      <use xlink:href="#DejaVuSans-74" x="759.912109"/>
      <use xlink:href="#DejaVuSans-65" x="799.121094"/>
      <use xlink:href="#DejaVuSans-72" x="860.644531"/>
      <use xlink:href="#DejaVuSans-73" x="901.757812"/>
     </g>
    </g>
   </g>
   <g id="matplotlib.axis_4">
    <g id="ytick_4">
     <g id="line2d_19">
      <path d="M 44.66 173.76921 
L 421.2 173.76921 
" clip-path="url(#p5eb7f81682)" style="fill: none; stroke: #ffffff; stroke-width: 0.8; stroke-linecap: round"/>
     </g>
     <g id="text_13">
      <!-- 0 -->
      <g style="fill: #262626" transform="translate(31.2975 177.568429) scale(0.1 -0.1)">
       <use xlink:href="#DejaVuSans-30"/>
      </g>
     </g>
    </g>
    <g id="ytick_5">
     <g id="line2d_20">
      <path d="M 44.66 147.350665 
L 421.2 147.350665 
" clip-path="url(#p5eb7f81682)" style="fill: none; stroke: #ffffff; stroke-width: 0.8; stroke-linecap: round"/>
     </g>
     <g id="text_14">
      <!-- 10 -->
      <g style="fill: #262626" transform="translate(24.935 151.149883) scale(0.1 -0.1)">
       <use xlink:href="#DejaVuSans-31"/>
       <use xlink:href="#DejaVuSans-30" x="63.623047"/>
      </g>
     </g>
    </g>
    <g id="ytick_6">
     <g id="line2d_21">
      <path d="M 44.66 120.932119 
L 421.2 120.932119 
" clip-path="url(#p5eb7f81682)" style="fill: none; stroke: #ffffff; stroke-width: 0.8; stroke-linecap: round"/>
     </g>
     <g id="text_15">
      <!-- 20 -->
      <g style="fill: #262626" transform="translate(24.935 124.731338) scale(0.1 -0.1)">
       <use xlink:href="#DejaVuSans-32"/>
       <use xlink:href="#DejaVuSans-30" x="63.623047"/>
      </g>
     </g>
    </g>
    <g id="text_16">
     <!-- Unique clusters -->
     <g style="fill: #262626" transform="translate(18.855313 180.835284) rotate(-90) scale(0.1 -0.1)">
      <defs>
       <path id="DejaVuSans-55" d="M 556 4666 
L 1191 4666 
L 1191 1831 
Q 1191 1081 1462 751 
Q 1734 422 2344 422 
Q 2950 422 3222 751 
Q 3494 1081 3494 1831 
L 3494 4666 
L 4128 4666 
L 4128 1753 
Q 4128 841 3676 375 
Q 3225 -91 2344 -91 
Q 1459 -91 1007 375 
Q 556 841 556 1753 
L 556 4666 
z
" transform="scale(0.015625)"/>
       <path id="DejaVuSans-6e" d="M 3513 2113 
L 3513 0 
L 2938 0 
L 2938 2094 
Q 2938 2591 2744 2837 
Q 2550 3084 2163 3084 
Q 1697 3084 1428 2787 
Q 1159 2491 1159 1978 
L 1159 0 
L 581 0 
L 581 3500 
L 1159 3500 
L 1159 2956 
Q 1366 3272 1645 3428 
Q 1925 3584 2291 3584 
Q 2894 3584 3203 3211 
Q 3513 2838 3513 2113 
z
" transform="scale(0.015625)"/>
       <path id="DejaVuSans-71" d="M 947 1747 
Q 947 1113 1208 752 
Q 1469 391 1925 391 
Q 2381 391 2643 752 
Q 2906 1113 2906 1747 
Q 2906 2381 2643 2742 
Q 2381 3103 1925 3103 
Q 1469 3103 1208 2742 
Q 947 2381 947 1747 
z
M 2906 525 
Q 2725 213 2448 61 
Q 2172 -91 1784 -91 
Q 1150 -91 751 415 
Q 353 922 353 1747 
Q 353 2572 751 3078 
Q 1150 3584 1784 3584 
Q 2172 3584 2448 3432 
Q 2725 3281 2906 2969 
L 2906 3500 
L 3481 3500 
L 3481 -1331 
L 2906 -1331 
L 2906 525 
z
" transform="scale(0.015625)"/>
      </defs>
      <use xlink:href="#DejaVuSans-55"/>
      <use xlink:href="#DejaVuSans-6e" x="73.193359"/>
      <use xlink:href="#DejaVuSans-69" x="136.572266"/>
      <use xlink:href="#DejaVuSans-71" x="164.355469"/>
      <use xlink:href="#DejaVuSans-75" x="227.832031"/>
      <use xlink:href="#DejaVuSans-65" x="291.210938"/>
      <use xlink:href="#DejaVuSans-20" x="352.734375"/>
      <use xlink:href="#DejaVuSans-63" x="384.521484"/>
      <use xlink:href="#DejaVuSans-6c" x="439.501953"/>
      <use xlink:href="#DejaVuSans-75" x="467.285156"/>
      <use xlink:href="#DejaVuSans-73" x="530.664062"/>
      <use xlink:href="#DejaVuSans-74" x="582.763672"/>
      <use xlink:href="#DejaVuSans-65" x="621.972656"/>
      <use xlink:href="#DejaVuSans-72" x="683.496094"/>
      <use xlink:href="#DejaVuSans-73" x="724.609375"/>
     </g>
    </g>
   </g>
   <g id="PolyCollection_2"/>
   <g id="line2d_22">
    <path d="M 61.775455 168.485501 
L 62.931904 160.559937 
L 64.088354 160.559937 
L 65.244803 171.127355 
L 66.401253 160.559937 
L 67.557703 155.276228 
L 68.714152 157.918083 
L 69.870602 155.276228 
L 71.027052 155.276228 
L 72.183501 152.634374 
L 73.339951 147.350665 
L 74.4964 152.634374 
L 75.65285 139.425101 
L 76.8093 136.783246 
L 77.965749 147.350665 
L 80.278649 147.350665 
L 82.591548 168.485501 
L 83.747998 168.485501 
L 84.904447 163.201792 
L 86.060897 160.559937 
L 87.217346 139.425101 
L 88.373796 142.066955 
L 90.686695 136.783246 
L 91.843145 142.066955 
L 92.999595 142.066955 
L 94.156044 149.992519 
L 95.312494 144.70881 
L 96.468943 149.992519 
L 98.781843 149.992519 
L 99.938292 147.350665 
L 101.094742 147.350665 
L 102.251192 149.992519 
L 103.407641 147.350665 
L 104.564091 139.425101 
L 106.87699 134.141392 
L 108.03344 134.141392 
L 109.189889 142.066955 
L 110.346339 131.499537 
L 111.502789 134.141392 
L 112.659238 131.499537 
L 113.815688 131.499537 
L 114.972138 134.141392 
L 116.128587 134.141392 
L 117.285037 131.499537 
L 118.441486 131.499537 
L 119.597936 128.857683 
L 120.754386 131.499537 
L 121.910835 142.066955 
L 123.067285 134.141392 
L 124.223735 136.783246 
L 125.380184 115.64841 
L 126.536634 123.573974 
L 127.693084 118.290265 
L 128.849533 126.215828 
L 130.005983 123.573974 
L 131.162432 118.290265 
L 132.318882 131.499537 
L 133.475332 131.499537 
L 134.631781 139.425101 
L 135.788231 144.70881 
L 136.944681 142.066955 
L 138.10113 142.066955 
L 139.25758 144.70881 
L 140.414029 152.634374 
L 141.570479 136.783246 
L 142.726929 136.783246 
L 143.883378 142.066955 
L 145.039828 152.634374 
L 146.196278 149.992519 
L 147.352727 149.992519 
L 148.509177 142.066955 
L 149.665627 142.066955 
L 150.822076 136.783246 
L 151.978526 142.066955 
L 153.134975 136.783246 
L 155.447875 142.066955 
L 157.760774 142.066955 
L 158.917224 147.350665 
L 160.073673 149.992519 
L 161.230123 131.499537 
L 162.386572 142.066955 
L 163.543022 136.783246 
L 164.699472 147.350665 
L 165.855921 136.783246 
L 167.012371 134.141392 
L 168.168821 136.783246 
L 169.32527 142.066955 
L 170.48172 136.783246 
L 171.63817 136.783246 
L 172.794619 134.141392 
L 173.951069 136.783246 
L 175.107518 134.141392 
L 176.263968 139.425101 
L 177.420418 134.141392 
L 178.576867 131.499537 
L 179.733317 147.350665 
L 180.889767 142.066955 
L 182.046216 131.499537 
L 183.202666 128.857683 
L 184.359115 139.425101 
L 185.515565 123.573974 
L 186.672015 147.350665 
L 187.828464 131.499537 
L 188.984914 120.932119 
L 190.141364 134.141392 
L 191.297813 123.573974 
L 193.610713 123.573974 
L 194.767162 126.215828 
L 195.923612 131.499537 
L 197.080061 126.215828 
L 198.236511 126.215828 
L 199.392961 120.932119 
L 200.54941 126.215828 
L 201.70586 123.573974 
L 202.86231 126.215828 
L 204.018759 134.141392 
L 205.175209 131.499537 
L 206.331658 120.932119 
L 208.644558 136.783246 
L 209.801007 139.425101 
L 210.957457 136.783246 
L 212.113907 131.499537 
L 213.270356 131.499537 
L 214.426806 139.425101 
L 215.583256 142.066955 
L 216.739705 136.783246 
L 217.896155 149.992519 
L 219.052604 139.425101 
L 220.209054 144.70881 
L 221.365504 136.783246 
L 222.521953 134.141392 
L 224.834853 139.425101 
L 225.991302 128.857683 
L 227.147752 134.141392 
L 228.304201 136.783246 
L 229.460651 142.066955 
L 230.617101 144.70881 
L 231.77355 152.634374 
L 232.93 152.634374 
L 234.08645 142.066955 
L 235.242899 152.634374 
L 236.399349 147.350665 
L 237.555799 149.992519 
L 239.868698 139.425101 
L 241.025147 139.425101 
L 242.181597 134.141392 
L 243.338047 131.499537 
L 244.494496 126.215828 
L 245.650946 134.141392 
L 246.807396 131.499537 
L 247.963845 131.499537 
L 249.120295 144.70881 
L 250.276744 136.783246 
L 251.433194 142.066955 
L 252.589644 142.066955 
L 254.902543 147.350665 
L 256.058993 134.141392 
L 257.215442 144.70881 
L 258.371892 142.066955 
L 259.528342 144.70881 
L 260.684791 136.783246 
L 261.841241 147.350665 
L 262.99769 144.70881 
L 264.15414 136.783246 
L 265.31059 142.066955 
L 266.467039 157.918083 
L 267.623489 155.276228 
L 268.779939 155.276228 
L 269.936388 152.634374 
L 273.405737 152.634374 
L 274.562187 147.350665 
L 275.718636 152.634374 
L 276.875086 155.276228 
L 278.031536 152.634374 
L 279.187985 157.918083 
L 280.344435 152.634374 
L 282.657334 152.634374 
L 283.813784 160.559937 
L 284.970233 160.559937 
L 286.126683 157.918083 
L 287.283133 160.559937 
L 289.596032 160.559937 
L 290.752482 157.918083 
L 291.908931 157.918083 
L 293.065381 163.201792 
L 294.22183 163.201792 
L 295.37828 160.559937 
L 296.53473 163.201792 
L 297.691179 160.559937 
L 300.004079 160.559937 
L 301.160528 163.201792 
L 302.316978 163.201792 
L 303.473428 165.843646 
L 306.942776 165.843646 
L 308.099226 163.201792 
L 309.255676 165.843646 
L 310.412125 163.201792 
L 311.568575 163.201792 
L 312.725025 157.918083 
L 313.881474 149.992519 
L 315.037924 149.992519 
L 316.194373 147.350665 
L 317.350823 147.350665 
L 318.507273 149.992519 
L 319.663722 136.783246 
L 321.976622 136.783246 
L 323.133071 134.141392 
L 324.289521 136.783246 
L 325.445971 142.066955 
L 326.60242 144.70881 
L 327.75887 139.425101 
L 328.915319 136.783246 
L 331.228219 142.066955 
L 332.384668 139.425101 
L 334.697568 144.70881 
L 335.854017 142.066955 
L 338.166916 142.066955 
L 339.323366 139.425101 
L 343.949165 139.425101 
L 345.105614 142.066955 
L 346.262064 139.425101 
L 347.418514 139.425101 
L 348.574963 136.783246 
L 349.731413 142.066955 
L 353.200762 134.141392 
L 354.357211 134.141392 
L 355.513661 139.425101 
L 356.670111 134.141392 
L 357.82656 139.425101 
L 360.139459 139.425101 
L 361.295909 142.066955 
L 362.452359 136.783246 
L 363.608808 134.141392 
L 365.921708 139.425101 
L 367.078157 136.783246 
L 368.234607 136.783246 
L 369.391057 134.141392 
L 370.547506 136.783246 
L 374.016855 136.783246 
L 375.173305 139.425101 
L 376.329754 136.783246 
L 377.486204 136.783246 
L 378.642654 142.066955 
L 379.799103 144.70881 
L 380.955553 149.992519 
L 382.112002 157.918083 
L 383.268452 157.918083 
L 384.424902 152.634374 
L 385.581351 157.918083 
L 386.737801 152.634374 
L 389.0507 152.634374 
L 390.20715 139.425101 
L 391.3636 149.992519 
L 392.520049 149.992519 
L 394.832948 144.70881 
L 395.989398 149.992519 
L 397.145848 144.70881 
L 398.302297 144.70881 
L 399.458747 139.425101 
L 400.615197 144.70881 
L 401.771646 142.066955 
L 402.928096 147.350665 
L 404.084545 144.70881 
L 404.084545 144.70881 
" clip-path="url(#p5eb7f81682)" style="fill: none; stroke: #1f77b4; stroke-width: 1.5; stroke-linecap: round"/>
   </g>
   <g id="LineCollection_2">
    <path d="M 301.160528 163.201792 
L 301.160528 112.874463 
" clip-path="url(#p5eb7f81682)" style="fill: none; stroke: #000000; stroke-width: 1.5"/>
   </g>
   <g id="patch_8">
    <path d="M 44.66 174.04 
L 44.66 109.961818 
" style="fill: none; stroke: #ffffff; stroke-width: 0.8; stroke-linejoin: miter; stroke-linecap: square"/>
   </g>
   <g id="patch_9">
    <path d="M 421.2 174.04 
L 421.2 109.961818 
" style="fill: none; stroke: #ffffff; stroke-width: 0.8; stroke-linejoin: miter; stroke-linecap: square"/>
   </g>
   <g id="patch_10">
    <path d="M 44.66 174.04 
L 421.2 174.04 
" style="fill: none; stroke: #ffffff; stroke-width: 0.8; stroke-linejoin: miter; stroke-linecap: square"/>
   </g>
   <g id="patch_11">
    <path d="M 44.66 109.961818 
L 421.2 109.961818 
" style="fill: none; stroke: #ffffff; stroke-width: 0.8; stroke-linejoin: miter; stroke-linecap: square"/>
   </g>
  </g>
  <g id="text_17">
   <!-- Cluster quality score analysis -->
   <g style="fill: #262626" transform="translate(128.046562 13.438125) scale(0.12 -0.12)">
    <defs>
     <path id="DejaVuSans-43" d="M 4122 4306 
L 4122 3641 
Q 3803 3938 3442 4084 
Q 3081 4231 2675 4231 
Q 1875 4231 1450 3742 
Q 1025 3253 1025 2328 
Q 1025 1406 1450 917 
Q 1875 428 2675 428 
Q 3081 428 3442 575 
Q 3803 722 4122 1019 
L 4122 359 
Q 3791 134 3420 21 
Q 3050 -91 2638 -91 
Q 1578 -91 968 557 
Q 359 1206 359 2328 
Q 359 3453 968 4101 
Q 1578 4750 2638 4750 
Q 3056 4750 3426 4639 
Q 3797 4528 4122 4306 
z
" transform="scale(0.015625)"/>
    </defs>
    <use xlink:href="#DejaVuSans-43"/>
    <use xlink:href="#DejaVuSans-6c" x="69.824219"/>
    <use xlink:href="#DejaVuSans-75" x="97.607422"/>
    <use xlink:href="#DejaVuSans-73" x="160.986328"/>
    <use xlink:href="#DejaVuSans-74" x="213.085938"/>
    <use xlink:href="#DejaVuSans-65" x="252.294922"/>
    <use xlink:href="#DejaVuSans-72" x="313.818359"/>
    <use xlink:href="#DejaVuSans-20" x="354.931641"/>
    <use xlink:href="#DejaVuSans-71" x="386.71875"/>
    <use xlink:href="#DejaVuSans-75" x="450.195312"/>
    <use xlink:href="#DejaVuSans-61" x="513.574219"/>
    <use xlink:href="#DejaVuSans-6c" x="574.853516"/>
    <use xlink:href="#DejaVuSans-69" x="602.636719"/>
    <use xlink:href="#DejaVuSans-74" x="630.419922"/>
    <use xlink:href="#DejaVuSans-79" x="669.628906"/>
    <use xlink:href="#DejaVuSans-20" x="728.808594"/>
    <use xlink:href="#DejaVuSans-73" x="760.595703"/>
    <use xlink:href="#DejaVuSans-63" x="812.695312"/>
    <use xlink:href="#DejaVuSans-6f" x="867.675781"/>
    <use xlink:href="#DejaVuSans-72" x="928.857422"/>
    <use xlink:href="#DejaVuSans-65" x="967.720703"/>
    <use xlink:href="#DejaVuSans-20" x="1029.244141"/>
    <use xlink:href="#DejaVuSans-61" x="1061.03125"/>
    <use xlink:href="#DejaVuSans-6e" x="1122.310547"/>
    <use xlink:href="#DejaVuSans-61" x="1185.689453"/>
    <use xlink:href="#DejaVuSans-6c" x="1246.96875"/>
    <use xlink:href="#DejaVuSans-79" x="1274.751953"/>
    <use xlink:href="#DejaVuSans-73" x="1333.931641"/>
    <use xlink:href="#DejaVuSans-69" x="1386.03125"/>
    <use xlink:href="#DejaVuSans-73" x="1413.814453"/>
   </g>
  </g>
 </g>
 <defs>
  <clipPath id="p3aa73e2556">
   <rect x="44.66" y="32.4" width="376.54" height="64.078182"/>
  </clipPath>
  <clipPath id="p5eb7f81682">
   <rect x="44.66" y="109.961818" width="376.54" height="64.078182"/>
  </clipPath>
 </defs>
</svg>
