<?xml version="1.0" encoding="utf-8" standalone="no"?>
<!DOCTYPE svg PUBLIC "-//W3C//DTD SVG 1.1//EN"
  "http://www.w3.org/Graphics/SVG/1.1/DTD/svg11.dtd">
<svg xmlns:xlink="http://www.w3.org/1999/xlink" width="432pt" height="288pt" viewBox="0 0 432 288" xmlns="http://www.w3.org/2000/svg" version="1.1">
 <metadata>
  <rdf:RDF xmlns:dc="http://purl.org/dc/elements/1.1/" xmlns:cc="http://creativecommons.org/ns#" xmlns:rdf="http://www.w3.org/1999/02/22-rdf-syntax-ns#">
   <cc:Work>
    <dc:type rdf:resource="http://purl.org/dc/dcmitype/StillImage"/>
    <dc:date>2023-10-16T17:28:43.864833</dc:date>
    <dc:format>image/svg+xml</dc:format>
    <dc:creator>
     <cc:Agent>
      <dc:title>Matplotlib v3.7.2, https://matplotlib.org/</dc:title>
     </cc:Agent>
    </dc:creator>
   </cc:Work>
  </rdf:RDF>
 </metadata>
 <defs>
  <style type="text/css">*{stroke-linejoin: round; stroke-linecap: butt}</style>
 </defs>
 <g id="figure_1">
  <g id="patch_1">
   <path d="M 0 288 
L 432 288 
L 432 0 
L 0 0 
z
" style="fill: #ffffff"/>
  </g>
  <g id="axes_1">
   <g id="patch_2">
    <path d="M 54 256.32 
L 388.8 256.32 
L 388.8 34.56 
L 54 34.56 
z
" style="fill: #eaeaf2"/>
   </g>
   <g id="matplotlib.axis_1">
    <g id="xtick_1">
     <g id="line2d_1">
      <path d="M 69.113625 256.32 
L 69.113625 34.56 
" clip-path="url(#pb2c26b5ec7)" style="fill: none; stroke: #ffffff; stroke-width: 0.8; stroke-linecap: round"/>
     </g>
     <g id="text_1">
      <!-- 0 -->
      <g style="fill: #262626" transform="translate(65.932375 270.918437) scale(0.1 -0.1)">
       <defs>
        <path id="DejaVuSans-30" d="M 2034 4250 
Q 1547 4250 1301 3770 
Q 1056 3291 1056 2328 
Q 1056 1369 1301 889 
Q 1547 409 2034 409 
Q 2525 409 2770 889 
Q 3016 1369 3016 2328 
Q 3016 3291 2770 3770 
Q 2525 4250 2034 4250 
z
M 2034 4750 
Q 2819 4750 3233 4129 
Q 3647 3509 3647 2328 
Q 3647 1150 3233 529 
Q 2819 -91 2034 -91 
Q 1250 -91 836 529 
Q 422 1150 422 2328 
Q 422 3509 836 4129 
Q 1250 4750 2034 4750 
z
" transform="scale(0.015625)"/>
       </defs>
       <use xlink:href="#DejaVuSans-30"/>
      </g>
     </g>
    </g>
    <g id="xtick_2">
     <g id="line2d_2">
      <path d="M 121.391818 256.32 
L 121.391818 34.56 
" clip-path="url(#pb2c26b5ec7)" style="fill: none; stroke: #ffffff; stroke-width: 0.8; stroke-linecap: round"/>
     </g>
     <g id="text_2">
      <!-- 500 -->
      <g style="fill: #262626" transform="translate(111.848068 270.918437) scale(0.1 -0.1)">
       <defs>
        <path id="DejaVuSans-35" d="M 691 4666 
L 3169 4666 
L 3169 4134 
L 1269 4134 
L 1269 2991 
Q 1406 3038 1543 3061 
Q 1681 3084 1819 3084 
Q 2600 3084 3056 2656 
Q 3513 2228 3513 1497 
Q 3513 744 3044 326 
Q 2575 -91 1722 -91 
Q 1428 -91 1123 -41 
Q 819 9 494 109 
L 494 744 
Q 775 591 1075 516 
Q 1375 441 1709 441 
Q 2250 441 2565 725 
Q 2881 1009 2881 1497 
Q 2881 1984 2565 2268 
Q 2250 2553 1709 2553 
Q 1456 2553 1204 2497 
Q 953 2441 691 2322 
L 691 4666 
z
" transform="scale(0.015625)"/>
       </defs>
       <use xlink:href="#DejaVuSans-35"/>
       <use xlink:href="#DejaVuSans-30" x="63.623047"/>
       <use xlink:href="#DejaVuSans-30" x="127.246094"/>
      </g>
     </g>
    </g>
    <g id="xtick_3">
     <g id="line2d_3">
      <path d="M 173.67001 256.32 
L 173.67001 34.56 
" clip-path="url(#pb2c26b5ec7)" style="fill: none; stroke: #ffffff; stroke-width: 0.8; stroke-linecap: round"/>
     </g>
     <g id="text_3">
      <!-- 1000 -->
      <g style="fill: #262626" transform="translate(160.94501 270.918437) scale(0.1 -0.1)">
       <defs>
        <path id="DejaVuSans-31" d="M 794 531 
L 1825 531 
L 1825 4091 
L 703 3866 
L 703 4441 
L 1819 4666 
L 2450 4666 
L 2450 531 
L 3481 531 
L 3481 0 
L 794 0 
L 794 531 
z
" transform="scale(0.015625)"/>
       </defs>
       <use xlink:href="#DejaVuSans-31"/>
       <use xlink:href="#DejaVuSans-30" x="63.623047"/>
       <use xlink:href="#DejaVuSans-30" x="127.246094"/>
       <use xlink:href="#DejaVuSans-30" x="190.869141"/>
      </g>
     </g>
    </g>
    <g id="xtick_4">
     <g id="line2d_4">
      <path d="M 225.948203 256.32 
L 225.948203 34.56 
" clip-path="url(#pb2c26b5ec7)" style="fill: none; stroke: #ffffff; stroke-width: 0.8; stroke-linecap: round"/>
     </g>
     <g id="text_4">
      <!-- 1500 -->
      <g style="fill: #262626" transform="translate(213.223203 270.918437) scale(0.1 -0.1)">
       <use xlink:href="#DejaVuSans-31"/>
       <use xlink:href="#DejaVuSans-35" x="63.623047"/>
       <use xlink:href="#DejaVuSans-30" x="127.246094"/>
       <use xlink:href="#DejaVuSans-30" x="190.869141"/>
      </g>
     </g>
    </g>
    <g id="xtick_5">
     <g id="line2d_5">
      <path d="M 278.226395 256.32 
L 278.226395 34.56 
" clip-path="url(#pb2c26b5ec7)" style="fill: none; stroke: #ffffff; stroke-width: 0.8; stroke-linecap: round"/>
     </g>
     <g id="text_5">
      <!-- 2000 -->
      <g style="fill: #262626" transform="translate(265.501395 270.918437) scale(0.1 -0.1)">
       <defs>
        <path id="DejaVuSans-32" d="M 1228 531 
L 3431 531 
L 3431 0 
L 469 0 
L 469 531 
Q 828 903 1448 1529 
Q 2069 2156 2228 2338 
Q 2531 2678 2651 2914 
Q 2772 3150 2772 3378 
Q 2772 3750 2511 3984 
Q 2250 4219 1831 4219 
Q 1534 4219 1204 4116 
Q 875 4013 500 3803 
L 500 4441 
Q 881 4594 1212 4672 
Q 1544 4750 1819 4750 
Q 2544 4750 2975 4387 
Q 3406 4025 3406 3419 
Q 3406 3131 3298 2873 
Q 3191 2616 2906 2266 
Q 2828 2175 2409 1742 
Q 1991 1309 1228 531 
z
" transform="scale(0.015625)"/>
       </defs>
       <use xlink:href="#DejaVuSans-32"/>
       <use xlink:href="#DejaVuSans-30" x="63.623047"/>
       <use xlink:href="#DejaVuSans-30" x="127.246094"/>
       <use xlink:href="#DejaVuSans-30" x="190.869141"/>
      </g>
     </g>
    </g>
    <g id="xtick_6">
     <g id="line2d_6">
      <path d="M 330.504588 256.32 
L 330.504588 34.56 
" clip-path="url(#pb2c26b5ec7)" style="fill: none; stroke: #ffffff; stroke-width: 0.8; stroke-linecap: round"/>
     </g>
     <g id="text_6">
      <!-- 2500 -->
      <g style="fill: #262626" transform="translate(317.779588 270.918437) scale(0.1 -0.1)">
       <use xlink:href="#DejaVuSans-32"/>
       <use xlink:href="#DejaVuSans-35" x="63.623047"/>
       <use xlink:href="#DejaVuSans-30" x="127.246094"/>
       <use xlink:href="#DejaVuSans-30" x="190.869141"/>
      </g>
     </g>
    </g>
    <g id="xtick_7">
     <g id="line2d_7">
      <path d="M 382.78278 256.32 
L 382.78278 34.56 
" clip-path="url(#pb2c26b5ec7)" style="fill: none; stroke: #ffffff; stroke-width: 0.8; stroke-linecap: round"/>
     </g>
     <g id="text_7">
      <!-- 3000 -->
      <g style="fill: #262626" transform="translate(370.05778 270.918437) scale(0.1 -0.1)">
       <defs>
        <path id="DejaVuSans-33" d="M 2597 2516 
Q 3050 2419 3304 2112 
Q 3559 1806 3559 1356 
Q 3559 666 3084 287 
Q 2609 -91 1734 -91 
Q 1441 -91 1130 -33 
Q 819 25 488 141 
L 488 750 
Q 750 597 1062 519 
Q 1375 441 1716 441 
Q 2309 441 2620 675 
Q 2931 909 2931 1356 
Q 2931 1769 2642 2001 
Q 2353 2234 1838 2234 
L 1294 2234 
L 1294 2753 
L 1863 2753 
Q 2328 2753 2575 2939 
Q 2822 3125 2822 3475 
Q 2822 3834 2567 4026 
Q 2313 4219 1838 4219 
Q 1578 4219 1281 4162 
Q 984 4106 628 3988 
L 628 4550 
Q 988 4650 1302 4700 
Q 1616 4750 1894 4750 
Q 2613 4750 3031 4423 
Q 3450 4097 3450 3541 
Q 3450 3153 3228 2886 
Q 3006 2619 2597 2516 
z
" transform="scale(0.015625)"/>
       </defs>
       <use xlink:href="#DejaVuSans-33"/>
       <use xlink:href="#DejaVuSans-30" x="63.623047"/>
       <use xlink:href="#DejaVuSans-30" x="127.246094"/>
       <use xlink:href="#DejaVuSans-30" x="190.869141"/>
      </g>
     </g>
    </g>
    <g id="text_8">
     <!-- Residue number -->
     <g style="fill: #262626" transform="translate(180.557813 284.596563) scale(0.1 -0.1)">
      <defs>
       <path id="DejaVuSans-52" d="M 2841 2188 
Q 3044 2119 3236 1894 
Q 3428 1669 3622 1275 
L 4263 0 
L 3584 0 
L 2988 1197 
Q 2756 1666 2539 1819 
Q 2322 1972 1947 1972 
L 1259 1972 
L 1259 0 
L 628 0 
L 628 4666 
L 2053 4666 
Q 2853 4666 3247 4331 
Q 3641 3997 3641 3322 
Q 3641 2881 3436 2590 
Q 3231 2300 2841 2188 
z
M 1259 4147 
L 1259 2491 
L 2053 2491 
Q 2509 2491 2742 2702 
Q 2975 2913 2975 3322 
Q 2975 3731 2742 3939 
Q 2509 4147 2053 4147 
L 1259 4147 
z
" transform="scale(0.015625)"/>
       <path id="DejaVuSans-65" d="M 3597 1894 
L 3597 1613 
L 953 1613 
Q 991 1019 1311 708 
Q 1631 397 2203 397 
Q 2534 397 2845 478 
Q 3156 559 3463 722 
L 3463 178 
Q 3153 47 2828 -22 
Q 2503 -91 2169 -91 
Q 1331 -91 842 396 
Q 353 884 353 1716 
Q 353 2575 817 3079 
Q 1281 3584 2069 3584 
Q 2775 3584 3186 3129 
Q 3597 2675 3597 1894 
z
M 3022 2063 
Q 3016 2534 2758 2815 
Q 2500 3097 2075 3097 
Q 1594 3097 1305 2825 
Q 1016 2553 972 2059 
L 3022 2063 
z
" transform="scale(0.015625)"/>
       <path id="DejaVuSans-73" d="M 2834 3397 
L 2834 2853 
Q 2591 2978 2328 3040 
Q 2066 3103 1784 3103 
Q 1356 3103 1142 2972 
Q 928 2841 928 2578 
Q 928 2378 1081 2264 
Q 1234 2150 1697 2047 
L 1894 2003 
Q 2506 1872 2764 1633 
Q 3022 1394 3022 966 
Q 3022 478 2636 193 
Q 2250 -91 1575 -91 
Q 1294 -91 989 -36 
Q 684 19 347 128 
L 347 722 
Q 666 556 975 473 
Q 1284 391 1588 391 
Q 1994 391 2212 530 
Q 2431 669 2431 922 
Q 2431 1156 2273 1281 
Q 2116 1406 1581 1522 
L 1381 1569 
Q 847 1681 609 1914 
Q 372 2147 372 2553 
Q 372 3047 722 3315 
Q 1072 3584 1716 3584 
Q 2034 3584 2315 3537 
Q 2597 3491 2834 3397 
z
" transform="scale(0.015625)"/>
       <path id="DejaVuSans-69" d="M 603 3500 
L 1178 3500 
L 1178 0 
L 603 0 
L 603 3500 
z
M 603 4863 
L 1178 4863 
L 1178 4134 
L 603 4134 
L 603 4863 
z
" transform="scale(0.015625)"/>
       <path id="DejaVuSans-64" d="M 2906 2969 
L 2906 4863 
L 3481 4863 
L 3481 0 
L 2906 0 
L 2906 525 
Q 2725 213 2448 61 
Q 2172 -91 1784 -91 
Q 1150 -91 751 415 
Q 353 922 353 1747 
Q 353 2572 751 3078 
Q 1150 3584 1784 3584 
Q 2172 3584 2448 3432 
Q 2725 3281 2906 2969 
z
M 947 1747 
Q 947 1113 1208 752 
Q 1469 391 1925 391 
Q 2381 391 2643 752 
Q 2906 1113 2906 1747 
Q 2906 2381 2643 2742 
Q 2381 3103 1925 3103 
Q 1469 3103 1208 2742 
Q 947 2381 947 1747 
z
" transform="scale(0.015625)"/>
       <path id="DejaVuSans-75" d="M 544 1381 
L 544 3500 
L 1119 3500 
L 1119 1403 
Q 1119 906 1312 657 
Q 1506 409 1894 409 
Q 2359 409 2629 706 
Q 2900 1003 2900 1516 
L 2900 3500 
L 3475 3500 
L 3475 0 
L 2900 0 
L 2900 538 
Q 2691 219 2414 64 
Q 2138 -91 1772 -91 
Q 1169 -91 856 284 
Q 544 659 544 1381 
z
M 1991 3584 
L 1991 3584 
z
" transform="scale(0.015625)"/>
       <path id="DejaVuSans-20" transform="scale(0.015625)"/>
       <path id="DejaVuSans-6e" d="M 3513 2113 
L 3513 0 
L 2938 0 
L 2938 2094 
Q 2938 2591 2744 2837 
Q 2550 3084 2163 3084 
Q 1697 3084 1428 2787 
Q 1159 2491 1159 1978 
L 1159 0 
L 581 0 
L 581 3500 
L 1159 3500 
L 1159 2956 
Q 1366 3272 1645 3428 
Q 1925 3584 2291 3584 
Q 2894 3584 3203 3211 
Q 3513 2838 3513 2113 
z
" transform="scale(0.015625)"/>
       <path id="DejaVuSans-6d" d="M 3328 2828 
Q 3544 3216 3844 3400 
Q 4144 3584 4550 3584 
Q 5097 3584 5394 3201 
Q 5691 2819 5691 2113 
L 5691 0 
L 5113 0 
L 5113 2094 
Q 5113 2597 4934 2840 
Q 4756 3084 4391 3084 
Q 3944 3084 3684 2787 
Q 3425 2491 3425 1978 
L 3425 0 
L 2847 0 
L 2847 2094 
Q 2847 2600 2669 2842 
Q 2491 3084 2119 3084 
Q 1678 3084 1418 2786 
Q 1159 2488 1159 1978 
L 1159 0 
L 581 0 
L 581 3500 
L 1159 3500 
L 1159 2956 
Q 1356 3278 1631 3431 
Q 1906 3584 2284 3584 
Q 2666 3584 2933 3390 
Q 3200 3197 3328 2828 
z
" transform="scale(0.015625)"/>
       <path id="DejaVuSans-62" d="M 3116 1747 
Q 3116 2381 2855 2742 
Q 2594 3103 2138 3103 
Q 1681 3103 1420 2742 
Q 1159 2381 1159 1747 
Q 1159 1113 1420 752 
Q 1681 391 2138 391 
Q 2594 391 2855 752 
Q 3116 1113 3116 1747 
z
M 1159 2969 
Q 1341 3281 1617 3432 
Q 1894 3584 2278 3584 
Q 2916 3584 3314 3078 
Q 3713 2572 3713 1747 
Q 3713 922 3314 415 
Q 2916 -91 2278 -91 
Q 1894 -91 1617 61 
Q 1341 213 1159 525 
L 1159 0 
L 581 0 
L 581 4863 
L 1159 4863 
L 1159 2969 
z
" transform="scale(0.015625)"/>
       <path id="DejaVuSans-72" d="M 2631 2963 
Q 2534 3019 2420 3045 
Q 2306 3072 2169 3072 
Q 1681 3072 1420 2755 
Q 1159 2438 1159 1844 
L 1159 0 
L 581 0 
L 581 3500 
L 1159 3500 
L 1159 2956 
Q 1341 3275 1631 3429 
Q 1922 3584 2338 3584 
Q 2397 3584 2469 3576 
Q 2541 3569 2628 3553 
L 2631 2963 
z
" transform="scale(0.015625)"/>
      </defs>
      <use xlink:href="#DejaVuSans-52"/>
      <use xlink:href="#DejaVuSans-65" x="64.982422"/>
      <use xlink:href="#DejaVuSans-73" x="126.505859"/>
      <use xlink:href="#DejaVuSans-69" x="178.605469"/>
      <use xlink:href="#DejaVuSans-64" x="206.388672"/>
      <use xlink:href="#DejaVuSans-75" x="269.865234"/>
      <use xlink:href="#DejaVuSans-65" x="333.244141"/>
      <use xlink:href="#DejaVuSans-20" x="394.767578"/>
      <use xlink:href="#DejaVuSans-6e" x="426.554688"/>
      <use xlink:href="#DejaVuSans-75" x="489.933594"/>
      <use xlink:href="#DejaVuSans-6d" x="553.3125"/>
      <use xlink:href="#DejaVuSans-62" x="650.724609"/>
      <use xlink:href="#DejaVuSans-65" x="714.201172"/>
      <use xlink:href="#DejaVuSans-72" x="775.724609"/>
     </g>
    </g>
   </g>
   <g id="matplotlib.axis_2">
    <g id="ytick_1">
     <g id="line2d_8">
      <path d="M 54 246.24 
L 388.8 246.24 
" clip-path="url(#pb2c26b5ec7)" style="fill: none; stroke: #ffffff; stroke-width: 0.8; stroke-linecap: round"/>
     </g>
     <g id="text_9">
      <!-- 0.0 -->
      <g style="fill: #262626" transform="translate(31.096875 250.039219) scale(0.1 -0.1)">
       <defs>
        <path id="DejaVuSans-2e" d="M 684 794 
L 1344 794 
L 1344 0 
L 684 0 
L 684 794 
z
" transform="scale(0.015625)"/>
       </defs>
       <use xlink:href="#DejaVuSans-30"/>
       <use xlink:href="#DejaVuSans-2e" x="63.623047"/>
       <use xlink:href="#DejaVuSans-30" x="95.410156"/>
      </g>
     </g>
    </g>
    <g id="ytick_2">
     <g id="line2d_9">
      <path d="M 54 212.930062 
L 388.8 212.930062 
" clip-path="url(#pb2c26b5ec7)" style="fill: none; stroke: #ffffff; stroke-width: 0.8; stroke-linecap: round"/>
     </g>
     <g id="text_10">
      <!-- 0.5 -->
      <g style="fill: #262626" transform="translate(31.096875 216.729281) scale(0.1 -0.1)">
       <use xlink:href="#DejaVuSans-30"/>
       <use xlink:href="#DejaVuSans-2e" x="63.623047"/>
       <use xlink:href="#DejaVuSans-35" x="95.410156"/>
      </g>
     </g>
    </g>
    <g id="ytick_3">
     <g id="line2d_10">
      <path d="M 54 179.620125 
L 388.8 179.620125 
" clip-path="url(#pb2c26b5ec7)" style="fill: none; stroke: #ffffff; stroke-width: 0.8; stroke-linecap: round"/>
     </g>
     <g id="text_11">
      <!-- 1.0 -->
      <g style="fill: #262626" transform="translate(31.096875 183.419343) scale(0.1 -0.1)">
       <use xlink:href="#DejaVuSans-31"/>
       <use xlink:href="#DejaVuSans-2e" x="63.623047"/>
       <use xlink:href="#DejaVuSans-30" x="95.410156"/>
      </g>
     </g>
    </g>
    <g id="ytick_4">
     <g id="line2d_11">
      <path d="M 54 146.310187 
L 388.8 146.310187 
" clip-path="url(#pb2c26b5ec7)" style="fill: none; stroke: #ffffff; stroke-width: 0.8; stroke-linecap: round"/>
     </g>
     <g id="text_12">
      <!-- 1.5 -->
      <g style="fill: #262626" transform="translate(31.096875 150.109406) scale(0.1 -0.1)">
       <use xlink:href="#DejaVuSans-31"/>
       <use xlink:href="#DejaVuSans-2e" x="63.623047"/>
       <use xlink:href="#DejaVuSans-35" x="95.410156"/>
      </g>
     </g>
    </g>
    <g id="ytick_5">
     <g id="line2d_12">
      <path d="M 54 113.000249 
L 388.8 113.000249 
" clip-path="url(#pb2c26b5ec7)" style="fill: none; stroke: #ffffff; stroke-width: 0.8; stroke-linecap: round"/>
     </g>
     <g id="text_13">
      <!-- 2.0 -->
      <g style="fill: #262626" transform="translate(31.096875 116.799468) scale(0.1 -0.1)">
       <use xlink:href="#DejaVuSans-32"/>
       <use xlink:href="#DejaVuSans-2e" x="63.623047"/>
       <use xlink:href="#DejaVuSans-30" x="95.410156"/>
      </g>
     </g>
    </g>
    <g id="ytick_6">
     <g id="line2d_13">
      <path d="M 54 79.690312 
L 388.8 79.690312 
" clip-path="url(#pb2c26b5ec7)" style="fill: none; stroke: #ffffff; stroke-width: 0.8; stroke-linecap: round"/>
     </g>
     <g id="text_14">
      <!-- 2.5 -->
      <g style="fill: #262626" transform="translate(31.096875 83.48953) scale(0.1 -0.1)">
       <use xlink:href="#DejaVuSans-32"/>
       <use xlink:href="#DejaVuSans-2e" x="63.623047"/>
       <use xlink:href="#DejaVuSans-35" x="95.410156"/>
      </g>
     </g>
    </g>
    <g id="ytick_7">
     <g id="line2d_14">
      <path d="M 54 46.380374 
L 388.8 46.380374 
" clip-path="url(#pb2c26b5ec7)" style="fill: none; stroke: #ffffff; stroke-width: 0.8; stroke-linecap: round"/>
     </g>
     <g id="text_15">
      <!-- 3.0 -->
      <g style="fill: #262626" transform="translate(31.096875 50.179593) scale(0.1 -0.1)">
       <use xlink:href="#DejaVuSans-33"/>
       <use xlink:href="#DejaVuSans-2e" x="63.623047"/>
       <use xlink:href="#DejaVuSans-30" x="95.410156"/>
      </g>
     </g>
    </g>
    <g id="text_16">
     <!-- B-factor ($\AA^2$) -->
     <g style="fill: #262626" transform="translate(25.017187 177.09) rotate(-90) scale(0.1 -0.1)">
      <defs>
       <path id="DejaVuSans-42" d="M 1259 2228 
L 1259 519 
L 2272 519 
Q 2781 519 3026 730 
Q 3272 941 3272 1375 
Q 3272 1813 3026 2020 
Q 2781 2228 2272 2228 
L 1259 2228 
z
M 1259 4147 
L 1259 2741 
L 2194 2741 
Q 2656 2741 2882 2914 
Q 3109 3088 3109 3444 
Q 3109 3797 2882 3972 
Q 2656 4147 2194 4147 
L 1259 4147 
z
M 628 4666 
L 2241 4666 
Q 2963 4666 3353 4366 
Q 3744 4066 3744 3513 
Q 3744 3084 3544 2831 
Q 3344 2578 2956 2516 
Q 3422 2416 3680 2098 
Q 3938 1781 3938 1306 
Q 3938 681 3513 340 
Q 3088 0 2303 0 
L 628 0 
L 628 4666 
z
" transform="scale(0.015625)"/>
       <path id="DejaVuSans-2d" d="M 313 2009 
L 1997 2009 
L 1997 1497 
L 313 1497 
L 313 2009 
z
" transform="scale(0.015625)"/>
       <path id="DejaVuSans-66" d="M 2375 4863 
L 2375 4384 
L 1825 4384 
Q 1516 4384 1395 4259 
Q 1275 4134 1275 3809 
L 1275 3500 
L 2222 3500 
L 2222 3053 
L 1275 3053 
L 1275 0 
L 697 0 
L 697 3053 
L 147 3053 
L 147 3500 
L 697 3500 
L 697 3744 
Q 697 4328 969 4595 
Q 1241 4863 1831 4863 
L 2375 4863 
z
" transform="scale(0.015625)"/>
       <path id="DejaVuSans-61" d="M 2194 1759 
Q 1497 1759 1228 1600 
Q 959 1441 959 1056 
Q 959 750 1161 570 
Q 1363 391 1709 391 
Q 2188 391 2477 730 
Q 2766 1069 2766 1631 
L 2766 1759 
L 2194 1759 
z
M 3341 1997 
L 3341 0 
L 2766 0 
L 2766 531 
Q 2569 213 2275 61 
Q 1981 -91 1556 -91 
Q 1019 -91 701 211 
Q 384 513 384 1019 
Q 384 1609 779 1909 
Q 1175 2209 1959 2209 
L 2766 2209 
L 2766 2266 
Q 2766 2663 2505 2880 
Q 2244 3097 1772 3097 
Q 1472 3097 1187 3025 
Q 903 2953 641 2809 
L 641 3341 
Q 956 3463 1253 3523 
Q 1550 3584 1831 3584 
Q 2591 3584 2966 3190 
Q 3341 2797 3341 1997 
z
" transform="scale(0.015625)"/>
       <path id="DejaVuSans-63" d="M 3122 3366 
L 3122 2828 
Q 2878 2963 2633 3030 
Q 2388 3097 2138 3097 
Q 1578 3097 1268 2742 
Q 959 2388 959 1747 
Q 959 1106 1268 751 
Q 1578 397 2138 397 
Q 2388 397 2633 464 
Q 2878 531 3122 666 
L 3122 134 
Q 2881 22 2623 -34 
Q 2366 -91 2075 -91 
Q 1284 -91 818 406 
Q 353 903 353 1747 
Q 353 2603 823 3093 
Q 1294 3584 2113 3584 
Q 2378 3584 2631 3529 
Q 2884 3475 3122 3366 
z
" transform="scale(0.015625)"/>
       <path id="DejaVuSans-74" d="M 1172 4494 
L 1172 3500 
L 2356 3500 
L 2356 3053 
L 1172 3053 
L 1172 1153 
Q 1172 725 1289 603 
Q 1406 481 1766 481 
L 2356 481 
L 2356 0 
L 1766 0 
Q 1100 0 847 248 
Q 594 497 594 1153 
L 594 3053 
L 172 3053 
L 172 3500 
L 594 3500 
L 594 4494 
L 1172 4494 
z
" transform="scale(0.015625)"/>
       <path id="DejaVuSans-6f" d="M 1959 3097 
Q 1497 3097 1228 2736 
Q 959 2375 959 1747 
Q 959 1119 1226 758 
Q 1494 397 1959 397 
Q 2419 397 2687 759 
Q 2956 1122 2956 1747 
Q 2956 2369 2687 2733 
Q 2419 3097 1959 3097 
z
M 1959 3584 
Q 2709 3584 3137 3096 
Q 3566 2609 3566 1747 
Q 3566 888 3137 398 
Q 2709 -91 1959 -91 
Q 1206 -91 779 398 
Q 353 888 353 1747 
Q 353 2609 779 3096 
Q 1206 3584 1959 3584 
z
" transform="scale(0.015625)"/>
       <path id="DejaVuSans-28" d="M 1984 4856 
Q 1566 4138 1362 3434 
Q 1159 2731 1159 2009 
Q 1159 1288 1364 580 
Q 1569 -128 1984 -844 
L 1484 -844 
Q 1016 -109 783 600 
Q 550 1309 550 2009 
Q 550 2706 781 3412 
Q 1013 4119 1484 4856 
L 1984 4856 
z
" transform="scale(0.015625)"/>
       <path id="DejaVuSans-Oblique-c5" d="M 3188 5081 
Q 3188 5278 3048 5417 
Q 2909 5556 2713 5556 
Q 2513 5556 2377 5420 
Q 2241 5284 2241 5081 
Q 2241 4884 2377 4746 
Q 2513 4609 2713 4609 
Q 2909 4609 3048 4746 
Q 3188 4884 3188 5081 
z
M 2203 4397 
Q 2034 4513 1945 4689 
Q 1856 4866 1856 5081 
Q 1856 5438 2106 5689 
Q 2356 5941 2713 5941 
Q 3069 5941 3320 5689 
Q 3572 5438 3572 5081 
Q 3572 4834 3458 4643 
Q 3344 4453 3128 4341 
L 3938 0 
L 3278 0 
L 3084 1197 
L 984 1197 
L 325 0 
L -341 0 
L 2203 4397 
z
M 2584 4044 
L 1275 1722 
L 2988 1722 
L 2584 4044 
z
" transform="scale(0.015625)"/>
       <path id="DejaVuSans-29" d="M 513 4856 
L 1013 4856 
Q 1481 4119 1714 3412 
Q 1947 2706 1947 2009 
Q 1947 1309 1714 600 
Q 1481 -109 1013 -844 
L 513 -844 
Q 928 -128 1133 580 
Q 1338 1288 1338 2009 
Q 1338 2731 1133 3434 
Q 928 4138 513 4856 
z
" transform="scale(0.015625)"/>
      </defs>
      <use xlink:href="#DejaVuSans-42" transform="translate(0 0.171875)"/>
      <use xlink:href="#DejaVuSans-2d" transform="translate(68.603516 0.171875)"/>
      <use xlink:href="#DejaVuSans-66" transform="translate(104.6875 0.171875)"/>
      <use xlink:href="#DejaVuSans-61" transform="translate(139.892578 0.171875)"/>
      <use xlink:href="#DejaVuSans-63" transform="translate(201.171875 0.171875)"/>
      <use xlink:href="#DejaVuSans-74" transform="translate(256.152344 0.171875)"/>
      <use xlink:href="#DejaVuSans-6f" transform="translate(295.361328 0.171875)"/>
      <use xlink:href="#DejaVuSans-72" transform="translate(356.542969 0.171875)"/>
      <use xlink:href="#DejaVuSans-20" transform="translate(397.65625 0.171875)"/>
      <use xlink:href="#DejaVuSans-28" transform="translate(429.443359 0.171875)"/>
      <use xlink:href="#DejaVuSans-Oblique-c5" transform="translate(468.457031 0.171875)"/>
      <use xlink:href="#DejaVuSans-32" transform="translate(546.671068 38.453125) scale(0.7)"/>
      <use xlink:href="#DejaVuSans-29" transform="translate(593.941576 0.171875)"/>
     </g>
    </g>
   </g>
   <g id="PolyCollection_1"/>
   <g id="PolyCollection_2"/>
   <g id="line2d_15">
    <path d="M 69.218182 54.7411 
L 69.322738 54.735802 
L 69.740964 69.326745 
L 70.577415 126.924004 
L 70.681971 126.901627 
L 70.99564 150.233258 
L 71.204753 165.864251 
L 71.30931 160.654236 
L 71.622979 179.699817 
L 71.832091 186.675999 
L 71.936648 186.449678 
L 72.041204 186.826795 
L 72.250317 188.560243 
L 72.354873 188.851789 
L 72.45943 188.60393 
L 72.773099 186.875132 
L 72.982212 189.093096 
L 73.295881 194.30576 
L 73.923219 188.099271 
L 74.027776 189.575267 
L 74.132332 188.650524 
L 74.236888 195.428023 
L 74.446001 194.163457 
L 74.550557 194.28965 
L 75.073339 188.842747 
L 75.177896 189.264031 
L 75.282452 188.523562 
L 75.387009 188.686524 
L 75.491565 187.987336 
L 75.700678 189.440574 
L 75.805234 189.591699 
L 76.118903 192.034413 
L 76.432572 193.29846 
L 76.641685 192.957551 
L 76.850798 190.350669 
L 77.059911 186.85293 
L 77.478136 183.858413 
L 77.582693 183.797334 
L 77.687249 182.603665 
L 78.000918 168.540276 
L 78.419144 122.832546 
L 78.628256 130.809278 
L 78.732813 123.201239 
L 79.046482 130.434249 
L 79.778377 155.413639 
L 80.614828 182.902249 
L 80.719384 180.959284 
L 80.823941 181.876747 
L 80.928497 184.708068 
L 81.13761 181.537989 
L 81.451279 180.410925 
L 81.555835 182.531229 
L 81.660392 181.658327 
L 81.764948 181.947713 
L 81.974061 178.975013 
L 82.183174 174.761345 
L 82.392286 172.496364 
L 82.496843 173.16292 
L 82.601399 172.491005 
L 82.810512 170.849152 
L 82.915068 169.791983 
L 83.124181 171.15434 
L 83.333294 174.283037 
L 84.065188 185.83749 
L 84.169745 190.196031 
L 84.274301 188.64982 
L 84.378858 189.005359 
L 84.58797 191.373148 
L 84.692527 189.657407 
L 84.797083 190.071381 
L 84.90164 189.115773 
L 85.215309 184.189055 
L 85.319865 184.770483 
L 85.528978 180.295001 
L 85.633534 175.123733 
L 85.738091 175.806245 
L 85.842647 175.495907 
L 86.260873 165.678888 
L 86.365429 166.745664 
L 86.469985 166.010071 
L 86.679098 163.209153 
L 86.783654 166.557883 
L 86.992767 161.249356 
L 87.410993 155.871094 
L 87.515549 155.11787 
L 87.829218 170.483415 
L 87.933775 186.262672 
L 88.142887 176.509123 
L 88.561113 159.122801 
L 88.665669 159.683711 
L 88.874782 153.147335 
L 88.979339 153.049454 
L 89.397564 149.472622 
L 89.606677 154.167639 
L 89.920346 168.636134 
L 90.024902 168.966823 
L 90.234015 172.977113 
L 90.338572 173.238095 
L 90.652241 177.875676 
L 90.96591 176.887801 
L 91.175023 175.179944 
L 91.697805 171.231089 
L 92.011474 167.790839 
L 92.220586 168.209057 
L 92.429699 167.479361 
L 92.534256 167.655472 
L 93.161594 173.768991 
L 93.370707 178.685312 
L 93.475263 179.185047 
L 93.579819 178.389205 
L 93.684376 180.009469 
L 93.893489 172.16104 
L 94.102601 168.47245 
L 94.311714 168.02943 
L 94.625383 169.622453 
L 94.72994 171.132004 
L 95.461834 191.379596 
L 95.775504 194.234734 
L 95.88006 193.49352 
L 95.984616 193.639988 
L 96.089173 194.098068 
L 96.298286 192.847024 
L 96.507398 194.413921 
L 96.611955 194.731314 
L 96.716511 194.548117 
L 96.925624 193.259143 
L 97.03018 192.764187 
L 97.762075 176.768563 
L 97.971188 174.253686 
L 98.1803 170.970328 
L 98.284857 171.150216 
L 98.49397 169.05191 
L 98.598526 168.654888 
L 98.807639 169.962696 
L 99.225864 180.667554 
L 99.64409 187.118813 
L 99.853203 184.009347 
L 100.166872 180.082973 
L 100.480541 177.335015 
L 100.898766 182.438047 
L 101.003323 182.429591 
L 101.107879 181.073966 
L 101.421548 186.647587 
L 101.526105 186.421092 
L 101.735218 183.784397 
L 101.839774 185.983217 
L 101.94433 185.5026 
L 102.153443 188.920415 
L 102.467112 191.211459 
L 102.676225 189.013393 
L 102.780781 188.818986 
L 102.989894 184.428551 
L 103.094451 184.877865 
L 103.40812 178.466699 
L 103.617232 170.657722 
L 103.826345 172.81594 
L 103.930902 173.318445 
L 104.140014 179.900442 
L 104.244571 181.690899 
L 104.349127 181.279579 
L 104.662796 176.110601 
L 104.976465 169.508091 
L 105.185578 167.931723 
L 105.290135 167.961463 
L 105.394691 168.610464 
L 105.499247 167.96111 
L 105.70836 169.2492 
L 105.812917 169.46834 
L 106.022029 170.52622 
L 106.126586 171.124647 
L 106.231142 172.456402 
L 106.335698 171.520833 
L 106.963037 176.460694 
L 107.17215 176.420651 
L 107.381262 177.983816 
L 108.008601 188.115959 
L 108.113157 189.165678 
L 108.217713 188.670724 
L 108.32227 190.031072 
L 108.426826 189.858279 
L 108.635939 188.588596 
L 109.054164 185.074765 
L 109.158721 185.808825 
L 109.263277 184.96037 
L 109.367834 185.048606 
L 109.47239 184.938861 
L 109.576946 185.454964 
L 110.099728 190.367004 
L 110.308841 185.392857 
L 110.413397 184.238399 
L 110.936179 186.401889 
L 111.354405 191.447005 
L 111.458961 191.324526 
L 111.563518 191.563063 
L 111.77263 190.05203 
L 111.877187 188.425035 
L 112.190856 181.251547 
L 112.609082 174.610915 
L 112.818194 90.046978 
L 113.027307 95.761737 
L 113.131863 103.456396 
L 113.23642 102.593537 
L 114.38654 165.299016 
L 114.491096 167.503572 
L 114.804766 180.378704 
L 115.013878 184.80468 
L 115.118435 184.865413 
L 115.327548 191.119266 
L 115.432104 190.282697 
L 115.53666 190.941911 
L 115.850329 194.922626 
L 116.163999 196.10719 
L 116.268555 196.17534 
L 116.477668 196.096971 
L 116.582224 196.843393 
L 116.686781 196.753863 
L 116.895893 196.981235 
L 117.209562 196.034889 
L 117.418675 194.202053 
L 117.627788 194.961674 
L 117.732344 194.826603 
L 117.941457 194.090443 
L 118.046014 194.163146 
L 118.15057 194.860567 
L 118.359683 192.832191 
L 118.464239 192.133031 
L 118.568795 192.287303 
L 118.882465 194.707763 
L 118.987021 193.620363 
L 119.091577 195.124176 
L 119.196134 195.100847 
L 119.405247 196.224391 
L 119.718916 196.723958 
L 119.928028 197.074894 
L 120.137141 196.60376 
L 120.346254 197.294053 
L 121.287261 183.306295 
L 121.496374 164.31511 
L 121.810043 136.720792 
L 122.123713 147.369764 
L 122.228269 142.781767 
L 122.437382 153.461227 
L 122.541938 151.404412 
L 122.855607 169.264213 
L 122.960164 166.108599 
L 123.273833 180.245812 
L 123.378389 177.744516 
L 123.482946 184.421456 
L 123.587502 184.417184 
L 124.005727 190.951758 
L 124.21484 191.754577 
L 124.319397 191.826719 
L 124.423953 193.176909 
L 124.842179 188.934106 
L 124.946735 189.451496 
L 125.051291 191.322905 
L 125.469517 188.90058 
L 125.67863 185.39313 
L 125.887742 183.334866 
L 125.992299 183.772766 
L 126.096855 183.505309 
L 126.305968 181.940525 
L 126.515081 181.536936 
L 127.351532 192.177109 
L 127.456088 191.378771 
L 127.560645 192.350696 
L 127.665201 194.860151 
L 127.874314 193.622742 
L 128.083427 195.095685 
L 128.187983 193.717333 
L 128.292539 194.156352 
L 128.397096 193.347874 
L 128.710765 188.000637 
L 128.815321 188.489112 
L 128.919878 186.42952 
L 129.024434 187.946477 
L 129.338103 186.304093 
L 129.44266 186.808955 
L 129.651772 189.658765 
L 129.756329 188.596234 
L 129.965441 184.814188 
L 130.069998 185.844238 
L 130.279111 183.134766 
L 130.383667 183.431367 
L 130.697336 176.147985 
L 130.906449 172.843289 
L 131.011005 172.446617 
L 131.429231 181.922266 
L 131.533787 181.278196 
L 131.638344 182.031905 
L 132.056569 171.006885 
L 132.161126 171.709967 
L 132.265682 170.215434 
L 132.788464 146.324396 
L 132.997577 153.708515 
L 133.311246 184.866002 
L 133.415802 181.066791 
L 133.520359 184.602789 
L 133.624915 183.411805 
L 133.938584 186.775119 
L 134.147697 190.249419 
L 134.252253 192.022873 
L 134.461366 190.380721 
L 134.565922 191.266412 
L 134.879592 185.020675 
L 135.193261 181.367735 
L 135.50693 175.145751 
L 135.611486 175.196373 
L 135.820599 174.177965 
L 135.925155 174.251874 
L 136.029712 174.593875 
L 136.866163 186.51132 
L 137.075276 188.299905 
L 137.179832 187.550999 
L 137.388945 179.428712 
L 137.702614 174.841569 
L 137.80717 174.760973 
L 137.911727 175.234748 
L 138.016283 174.84557 
L 138.225396 177.70465 
L 138.852734 194.733869 
L 139.166403 196.966947 
L 139.27096 197.009306 
L 139.480072 196.833617 
L 139.584629 196.853033 
L 139.689185 196.318497 
L 139.898298 194.224282 
L 140.107411 196.422943 
L 140.211967 196.608261 
L 140.42108 197.086893 
L 140.525636 196.625414 
L 140.734749 189.914489 
L 140.943862 185.562827 
L 141.884869 175.339476 
L 142.093982 174.484058 
L 142.198538 174.84712 
L 142.303095 175.616418 
L 142.72132 184.808554 
L 143.139546 190.74946 
L 143.348659 187.778205 
L 143.453215 186.158652 
L 143.557771 186.284358 
L 143.766884 183.660986 
L 143.975997 182.286333 
L 144.394223 188.261779 
L 144.498779 188.261175 
L 144.603335 186.86732 
L 144.917004 193.238053 
L 145.230674 188.133768 
L 145.33523 189.886632 
L 145.439786 189.254167 
L 145.753456 193.319741 
L 145.858012 193.453751 
L 145.962568 194.473008 
L 146.171681 192.405451 
L 146.276237 192.046928 
L 146.48535 187.964636 
L 146.589907 188.658193 
L 146.903576 183.036453 
L 147.112689 176.871958 
L 147.740027 188.389624 
L 147.844583 188.958096 
L 148.576478 175.367106 
L 148.785591 174.293478 
L 148.890147 174.728073 
L 148.994703 174.034068 
L 149.203816 175.560443 
L 149.308373 176.143866 
L 149.622042 179.961204 
L 149.726598 182.724693 
L 149.831155 181.989516 
L 150.144824 186.258761 
L 150.353936 188.852968 
L 150.458493 188.788367 
L 150.563049 188.358422 
L 150.667606 188.640113 
L 150.876718 190.721215 
L 150.981275 190.88183 
L 152.026839 196.399089 
L 152.549621 190.950055 
L 152.86329 188.335156 
L 152.967846 188.43774 
L 153.072402 188.333103 
L 153.176959 187.892398 
L 153.281515 188.389411 
L 153.386072 188.337992 
L 153.490628 189.781586 
L 153.595184 188.246622 
L 153.699741 188.273394 
L 153.804297 188.147493 
L 154.01341 188.866044 
L 154.536192 195.845101 
L 154.745305 196.584834 
L 154.849861 195.414881 
L 154.954417 195.570343 
L 155.058974 194.136531 
L 155.16353 194.84514 
L 155.477199 191.523231 
L 155.581756 191.643598 
L 155.999981 187.241176 
L 156.104538 185.202731 
L 156.31365 117.334258 
L 156.522763 122.334774 
L 156.62732 128.516992 
L 156.731876 128.337663 
L 157.568327 170.175247 
L 157.672883 168.579706 
L 158.509334 191.380862 
L 158.613891 190.456932 
L 158.823004 192.177573 
L 158.92756 191.865129 
L 159.032116 192.050412 
L 159.345786 193.83375 
L 159.450342 193.963379 
L 159.554898 193.780379 
L 159.868568 190.301026 
L 159.973124 190.851267 
L 160.391349 195.770102 
L 160.495906 195.839611 
L 160.600462 195.656533 
L 160.809575 196.541608 
L 161.018688 197.497878 
L 161.227801 196.430123 
L 161.332357 194.973954 
L 161.54147 195.198465 
L 161.646026 196.137477 
L 161.959695 193.820434 
L 162.064252 193.952113 
L 162.482477 196.498068 
L 162.587034 196.39267 
L 162.69159 194.799466 
L 162.900703 195.555304 
L 163.005259 195.574804 
L 163.109815 195.478665 
L 163.423485 196.62165 
L 163.632597 195.92828 
L 163.84171 196.570123 
L 164.050823 194.162783 
L 164.259936 192.504164 
L 164.782718 181.890759 
L 165.3055 151.772767 
L 165.619169 159.349222 
L 165.723725 157.650745 
L 165.932838 164.738947 
L 166.037394 163.910872 
L 166.351063 182.16153 
L 166.45562 176.571876 
L 166.769289 187.959587 
L 166.873845 185.651908 
L 166.978402 190.395792 
L 167.082958 190.080452 
L 167.396627 192.844516 
L 167.501184 192.62257 
L 167.60574 192.583145 
L 167.919409 191.617338 
L 168.233078 186.790831 
L 168.337635 182.476016 
L 168.442191 183.05306 
L 168.546747 187.97202 
L 169.069529 181.99544 
L 169.174086 181.555755 
L 169.278642 180.371061 
L 169.383199 180.496541 
L 169.592311 180.06152 
L 169.90598 178.976194 
L 170.010537 179.241601 
L 170.21965 182.311876 
L 170.324206 182.361843 
L 170.428762 181.567321 
L 170.533319 181.588366 
L 170.637875 183.763105 
L 170.742432 182.446848 
L 170.846988 182.531148 
L 171.056101 184.09554 
L 171.265213 182.463744 
L 171.36977 183.847748 
L 171.474326 182.934888 
L 171.683439 177.876551 
L 172.206221 194.69889 
L 172.310777 194.296111 
L 172.624446 191.111537 
L 172.729003 189.886737 
L 172.938116 190.845637 
L 173.147228 194.219316 
L 173.356341 190.802059 
L 173.460898 190.967298 
L 173.565454 192.588056 
L 173.774567 188.171727 
L 173.879123 188.538435 
L 174.088236 190.413982 
L 174.297349 190.868118 
L 174.401905 193.486595 
L 174.611018 191.226122 
L 174.820131 190.947475 
L 174.924687 190.951461 
L 175.238356 191.476363 
L 175.342912 191.296324 
L 175.447469 191.682656 
L 175.552025 191.602063 
L 175.656582 191.824459 
L 175.865694 192.489461 
L 176.074807 192.025612 
L 176.179364 191.936759 
L 176.28392 190.267369 
L 176.388476 190.4972 
L 176.493033 191.108999 
L 176.702145 193.295387 
L 177.015815 191.394436 
L 177.120371 191.095299 
L 177.224927 191.226851 
L 177.43404 192.630518 
L 177.538597 194.242955 
L 177.643153 194.139365 
L 177.747709 194.955559 
L 177.956822 190.470375 
L 179.002386 163.007788 
L 179.211499 161.194143 
L 179.316055 161.330453 
L 179.525168 162.969568 
L 180.152506 174.299618 
L 180.466175 178.405081 
L 180.675288 172.806467 
L 180.988957 165.518201 
L 181.19807 163.188143 
L 181.302626 162.825361 
L 181.407183 163.110703 
L 181.511739 162.141769 
L 181.720852 166.098868 
L 182.452747 194.642001 
L 182.661859 195.787806 
L 183.080085 195.523538 
L 183.184641 195.381168 
L 183.49831 195.921671 
L 183.602867 196.022548 
L 183.81198 195.670057 
L 184.021092 195.241852 
L 184.857543 164.678536 
L 184.9621 164.081177 
L 185.066656 164.387927 
L 185.275769 160.833657 
L 185.380325 161.633053 
L 185.693995 159.798173 
L 185.798551 159.89863 
L 185.903107 158.297872 
L 186.007664 158.982355 
L 186.11222 156.988927 
L 186.635002 164.955966 
L 186.844115 160.211237 
L 187.366897 153.510839 
L 187.471453 154.53536 
L 187.576009 153.271579 
L 187.680566 153.435784 
L 187.785122 155.279014 
L 187.994235 153.552524 
L 188.098791 153.521586 
L 188.307904 157.111573 
L 188.412461 168.57972 
L 188.517017 160.017934 
L 188.621573 160.037554 
L 188.72613 160.379239 
L 188.830686 162.820172 
L 188.935242 161.568691 
L 189.248912 173.077043 
L 189.353468 171.101686 
L 189.667137 163.907151 
L 190.085363 159.261464 
L 190.189919 159.281061 
L 190.294476 159.785594 
L 190.399032 159.390241 
L 190.608145 161.006133 
L 190.712701 162.236065 
L 191.130927 178.877912 
L 191.235483 178.259863 
L 191.340039 179.788245 
L 191.549152 177.240472 
L 191.862821 165.873651 
L 192.385603 160.684521 
L 192.594716 159.827929 
L 192.803829 161.720042 
L 193.012942 164.789544 
L 193.849393 184.537875 
L 193.953949 184.889299 
L 194.058505 188.235114 
L 194.267618 187.644893 
L 194.685844 192.418303 
L 194.7904 192.158215 
L 194.894956 191.408091 
L 195.208626 194.50178 
L 195.313182 194.931337 
L 195.417738 194.835683 
L 195.522295 194.989759 
L 196.045077 190.628517 
L 196.358746 187.258595 
L 196.463302 187.519957 
L 196.567859 187.175117 
L 196.672415 186.079601 
L 196.776971 187.725901 
L 196.881528 187.130708 
L 197.090641 188.987682 
L 197.299753 187.617871 
L 197.40431 187.723509 
L 198.136204 195.367379 
L 198.240761 195.757748 
L 198.449874 194.969976 
L 198.55443 192.80496 
L 198.658986 193.395539 
L 198.972655 187.807729 
L 199.077212 187.715266 
L 199.286325 185.684521 
L 199.599994 181.348404 
L 199.809107 91.670354 
L 200.018219 97.486087 
L 200.122776 105.345761 
L 200.227332 104.429697 
L 201.16834 155.742659 
L 201.900234 186.315693 
L 202.31846 192.263026 
L 202.423016 191.616669 
L 202.527573 191.895236 
L 202.736685 193.727593 
L 202.841242 194.046931 
L 203.259467 191.581198 
L 203.364024 191.686386 
L 203.573136 193.140073 
L 203.782249 194.984505 
L 203.886806 195.709889 
L 203.991362 195.176722 
L 204.200475 193.496493 
L 204.409587 191.834136 
L 204.723257 193.183729 
L 204.827813 192.921413 
L 205.141482 183.723711 
L 205.455151 171.924511 
L 205.559708 172.10821 
L 205.76882 178.095221 
L 206.187046 191.937244 
L 206.814384 196.36471 
L 207.023497 195.898196 
L 207.128053 195.719649 
L 207.337166 196.078104 
L 207.441723 195.765881 
L 208.278174 188.525425 
L 208.800956 139.280728 
L 208.905512 144.548917 
L 209.114625 150.023184 
L 209.219181 145.22109 
L 209.428294 155.960368 
L 209.53285 153.776053 
L 209.846519 171.507535 
L 209.951076 168.430477 
L 210.264745 183.910987 
L 210.369301 179.316332 
L 210.682971 186.967755 
L 211.101196 191.485817 
L 211.205752 190.873227 
L 211.310309 190.98853 
L 211.414865 191.972307 
L 211.833091 185.262012 
L 211.937647 186.638728 
L 212.042204 189.748005 
L 212.460429 185.793112 
L 212.669542 181.220149 
L 212.878655 178.752176 
L 212.983211 179.294532 
L 213.087767 179.102912 
L 213.29688 177.26176 
L 213.401437 176.906703 
L 213.505993 176.949336 
L 214.342444 188.216629 
L 214.551557 190.441777 
L 214.656113 193.954833 
L 214.76067 192.508623 
L 214.865226 192.737762 
L 214.969782 193.474771 
L 215.074339 195.076636 
L 215.178895 193.869141 
L 215.283451 194.454289 
L 215.492564 191.584699 
L 215.701677 188.609423 
L 215.806233 188.601817 
L 215.91079 188.150375 
L 216.119903 188.516017 
L 216.433572 185.500025 
L 216.538128 185.019678 
L 216.642684 185.136495 
L 216.747241 181.856013 
L 216.956354 182.356163 
L 217.165466 179.67095 
L 217.270023 179.829408 
L 217.583692 181.455544 
L 217.688248 183.939257 
L 217.792805 183.709795 
L 217.897361 187.087402 
L 218.001917 184.733832 
L 218.106474 186.335198 
L 218.21103 186.32704 
L 218.315587 184.891539 
L 218.629256 186.645192 
L 219.256594 183.037406 
L 219.36115 180.8901 
L 219.465707 180.89703 
L 219.67482 179.010931 
L 219.883932 181.585275 
L 220.093045 188.241008 
L 220.197602 186.813975 
L 220.302158 186.999587 
L 220.615827 186.184633 
L 220.720383 186.990783 
L 220.82494 186.422171 
L 220.929496 187.422769 
L 221.034053 192.244997 
L 221.138609 187.691485 
L 221.347722 190.043219 
L 221.765947 175.978025 
L 222.497842 168.172272 
L 222.706955 169.410409 
L 222.916068 168.282565 
L 223.020624 168.226694 
L 223.229737 169.012578 
L 223.647962 174.071948 
L 223.857075 179.828981 
L 223.961631 181.995772 
L 224.066188 181.064645 
L 224.379857 172.379913 
L 224.693526 168.798133 
L 224.798083 168.915626 
L 225.111752 171.158331 
L 225.216308 172.743039 
L 225.843646 193.46415 
L 226.052759 194.646077 
L 226.157316 194.803414 
L 226.261872 195.402064 
L 226.470985 194.310721 
L 226.575541 194.442629 
L 227.098323 195.929442 
L 227.307436 195.20851 
L 227.411992 195.197491 
L 227.621105 192.745531 
L 228.666669 173.749809 
L 228.771225 173.946031 
L 228.980338 171.107432 
L 229.084894 170.625094 
L 229.294007 172.239535 
L 229.607676 183.968931 
L 229.712233 184.566718 
L 230.130458 191.128541 
L 230.339571 187.907278 
L 230.65324 184.772687 
L 230.966909 182.866585 
L 231.385135 188.823548 
L 231.489691 188.400393 
L 231.594248 187.1304 
L 231.907917 191.043155 
L 232.117029 189.690961 
L 232.221586 188.271995 
L 232.326142 190.163147 
L 232.430699 189.585621 
L 232.744368 193.911782 
L 232.848924 194.353564 
L 232.953481 194.270338 
L 233.26715 192.561899 
L 233.476262 187.553984 
L 233.789932 184.978872 
L 234.103601 172.370102 
L 234.208157 174.531857 
L 234.312714 174.420013 
L 234.41727 174.941179 
L 234.626383 183.58821 
L 234.835495 186.410045 
L 235.358277 171.461718 
L 235.671947 169.045225 
L 235.776503 169.298355 
L 235.881059 170.256026 
L 235.985616 169.563521 
L 236.090172 171.070132 
L 236.299285 170.774171 
L 236.403841 171.671338 
L 236.508398 171.566322 
L 236.612954 171.919961 
L 236.71751 173.51458 
L 236.822067 172.052256 
L 237.03118 174.930565 
L 237.240292 178.835821 
L 238.076743 191.852254 
L 238.1813 192.944457 
L 238.285856 192.911365 
L 238.390413 193.045581 
L 238.599525 194.396712 
L 238.704082 194.891005 
L 239.33142 193.436759 
L 239.540533 192.652359 
L 239.645089 193.21638 
L 239.749646 192.523825 
L 239.854202 193.921788 
L 239.958758 193.032638 
L 240.167871 194.531376 
L 240.376984 194.245278 
L 240.48154 194.8265 
L 240.899766 192.289686 
L 241.004322 192.133445 
L 241.422548 193.997156 
L 241.736217 195.838211 
L 241.840773 195.899704 
L 241.94533 195.416945 
L 242.049886 194.179174 
L 242.154442 194.860605 
L 242.990893 182.263769 
L 243.09545 180.470565 
L 243.200006 44.64 
L 243.304563 50.195757 
L 243.513675 70.399713 
L 243.618232 73.093056 
L 244.036457 113.801626 
L 244.559239 152.474483 
L 244.663796 154.41014 
L 245.082021 175.798772 
L 245.186578 178.558929 
L 245.39569 186.793512 
L 245.500247 188.34103 
L 245.604803 187.60006 
L 245.813916 192.912007 
L 245.918472 192.331362 
L 246.336698 194.441873 
L 246.545811 194.074639 
L 246.650367 194.265137 
L 246.754923 195.509938 
L 246.85948 195.233321 
L 247.277705 198.11612 
L 247.382262 198.237001 
L 247.591374 197.978672 
L 247.800487 197.385802 
L 248.0096 193.4498 
L 248.114156 194.228098 
L 248.323269 192.639206 
L 248.427825 191.890677 
L 248.636938 193.375851 
L 248.741495 193.172016 
L 248.950607 191.934676 
L 249.055164 191.839868 
L 249.368833 194.391753 
L 249.577946 196.264087 
L 249.891615 197.693035 
L 250.205284 197.918915 
L 250.30984 197.627712 
L 250.414397 196.955987 
L 250.518953 197.355957 
L 250.62351 197.308978 
L 251.459961 177.056712 
L 251.564517 176.883576 
L 251.669073 177.552264 
L 251.77363 177.111079 
L 252.087299 169.120883 
L 252.296412 158.202702 
L 252.400968 156.018414 
L 252.505524 156.571472 
L 252.610081 160.505096 
L 252.714637 152.683373 
L 252.92375 159.810064 
L 253.028306 156.999752 
L 253.655645 188.493555 
L 253.864758 183.593701 
L 254.07387 191.399487 
L 254.178427 191.01962 
L 254.492096 194.298124 
L 254.596652 194.436996 
L 254.805765 194.31627 
L 254.910321 194.541615 
L 255.433103 190.1427 
L 255.53766 192.635551 
L 255.851329 190.221083 
L 255.955885 190.328419 
L 256.164998 187.611161 
L 256.374111 185.88177 
L 256.478667 186.199449 
L 256.583224 186.014365 
L 256.792336 184.686634 
L 257.001449 184.385836 
L 257.419675 187.952005 
L 257.524231 188.583315 
L 257.8379 192.089837 
L 257.942457 192.019223 
L 258.151569 193.760121 
L 258.256126 193.268561 
L 258.465238 193.913842 
L 258.569795 193.888821 
L 258.674351 193.319684 
L 258.778908 193.955832 
L 258.98802 192.889439 
L 259.197133 190.941984 
L 259.30169 191.344775 
L 259.406246 190.990139 
L 259.510802 191.297088 
L 259.615359 191.257491 
L 259.824471 190.389919 
L 259.929028 190.348403 
L 260.138141 192.938992 
L 260.242697 191.930649 
L 260.45181 189.096967 
L 260.556366 189.908982 
L 260.765479 186.59446 
L 260.870035 186.829145 
L 261.288261 180.432403 
L 261.392817 179.577002 
L 261.497374 183.006918 
L 261.60193 180.039866 
L 261.706486 180.560983 
L 261.811043 182.273283 
L 262.020156 188.304731 
L 262.124712 187.962688 
L 262.438381 178.17564 
L 262.542937 175.234192 
L 262.647494 176.764398 
L 262.75205 175.477495 
L 262.961163 167.063852 
L 263.065719 163.01533 
L 263.274832 166.753114 
L 263.797614 189.54371 
L 263.90217 189.933226 
L 264.006727 189.577936 
L 264.111283 188.190459 
L 264.424952 190.659312 
L 264.634065 195.11093 
L 264.738622 195.421856 
L 264.947734 194.131644 
L 265.052291 193.866275 
L 265.36596 185.976933 
L 265.679629 181.977561 
L 265.993298 176.227675 
L 266.097855 176.345843 
L 266.411524 175.732674 
L 266.51608 176.229276 
L 267.143418 184.478514 
L 267.352531 188.917539 
L 267.457088 188.623548 
L 267.561644 189.299887 
L 267.6662 189.170645 
L 267.770757 186.882906 
L 267.979869 179.854724 
L 268.188982 176.874124 
L 268.293539 176.536894 
L 268.398095 176.980116 
L 268.502651 176.507929 
L 268.711764 179.579186 
L 269.339102 196.195365 
L 269.548215 197.711307 
L 269.757328 197.850036 
L 269.966441 197.519021 
L 270.175554 195.411299 
L 270.384666 193.867401 
L 270.698335 196.964806 
L 270.802892 197.592991 
L 270.907448 197.297881 
L 271.012005 197.385845 
L 271.116561 195.792873 
L 271.43023 187.135608 
L 271.848456 181.594778 
L 272.371238 176.910357 
L 272.58035 175.979046 
L 272.684907 176.291725 
L 272.789463 176.998427 
L 273.207689 185.443886 
L 273.625914 190.829948 
L 273.939583 186.518574 
L 274.04414 186.370072 
L 274.357809 182.452167 
L 274.462365 181.703535 
L 274.880591 184.673667 
L 274.985147 184.672937 
L 275.089704 184.440367 
L 275.403373 193.371032 
L 275.612486 189.180223 
L 275.717042 188.078483 
L 275.821598 189.920085 
L 275.926155 189.504147 
L 276.135267 192.565859 
L 276.448937 193.433674 
L 276.658049 192.219927 
L 276.762606 191.89567 
L 276.971719 188.617829 
L 277.076275 189.142961 
L 277.389944 184.080874 
L 277.599057 178.097986 
L 278.226395 189.417217 
L 278.330952 190.159393 
L 279.062846 177.266872 
L 279.271959 175.903217 
L 279.376515 176.195667 
L 279.481072 175.469369 
L 279.690185 176.819739 
L 279.794741 177.328395 
L 280.10841 180.641353 
L 280.212966 183.458196 
L 280.317523 182.530284 
L 280.631192 187.446762 
L 280.840305 191.163891 
L 280.944861 191.383897 
L 281.049418 190.90709 
L 281.153974 191.120102 
L 281.676756 194.006908 
L 282.094981 195.034125 
L 282.199538 194.881126 
L 282.304094 194.693482 
L 282.617763 188.740985 
L 283.035989 179.860461 
L 283.245102 178.677586 
L 283.454214 180.419223 
L 283.663327 184.920326 
L 283.87244 186.189989 
L 284.081553 181.844789 
L 284.186109 180.948568 
L 284.395222 178.18097 
L 284.499778 178.143922 
L 284.708891 180.537156 
L 285.440786 196.112555 
L 285.545342 195.455886 
L 285.649899 196.140397 
L 285.963568 192.753687 
L 286.068124 192.954358 
L 286.590906 187.63147 
L 286.695462 101.820254 
L 286.800019 101.821154 
L 287.009132 107.657437 
L 287.113688 115.235211 
L 287.218244 114.603962 
L 288.054695 162.128069 
L 288.159252 163.736014 
L 288.78659 186.319482 
L 288.995703 189.896376 
L 289.100259 189.642174 
L 289.309372 191.701318 
L 289.413928 191.247362 
L 289.518485 191.319056 
L 290.145823 196.061919 
L 290.250379 195.979342 
L 290.354936 196.847319 
L 290.459492 196.195052 
L 290.564049 197.000418 
L 290.668605 196.369571 
L 290.773161 196.657236 
L 290.877718 195.905245 
L 290.982274 195.923592 
L 291.086831 195.792617 
L 291.295943 196.980612 
L 291.505056 193.466767 
L 291.818725 186.126482 
L 291.923282 185.853674 
L 292.027838 187.092669 
L 292.132394 186.818517 
L 292.55062 175.079071 
L 292.655176 174.3151 
L 292.864289 179.378738 
L 293.282515 194.797709 
L 293.491627 195.480971 
L 293.596184 195.370738 
L 293.805297 196.109954 
L 293.909853 196.274465 
L 294.118966 196.840766 
L 294.223522 196.733266 
L 294.746304 190.648865 
L 295.16453 182.427556 
L 295.373642 175.096193 
L 295.791868 146.608018 
L 296.000981 156.037956 
L 296.105537 156.828324 
L 296.210093 154.17763 
L 296.419206 164.929552 
L 296.523763 163.923112 
L 296.628319 168.693612 
L 296.837432 180.755287 
L 296.941988 177.030698 
L 297.255657 187.337128 
L 297.360214 184.823028 
L 297.46477 189.097588 
L 297.569326 189.080279 
L 297.987552 191.787464 
L 298.092108 191.836498 
L 298.405777 191.368255 
L 298.928559 185.295508 
L 299.033116 188.294738 
L 299.869567 178.384228 
L 300.07868 178.598113 
L 300.287792 176.9527 
L 300.392349 176.712329 
L 300.496905 177.003055 
L 300.706018 180.508857 
L 300.810574 180.713891 
L 300.915131 179.999731 
L 301.019687 180.516663 
L 301.124243 182.893686 
L 301.2288 181.671606 
L 301.333356 181.906621 
L 301.542469 184.196676 
L 301.751582 181.809559 
L 301.856138 183.427388 
L 301.960695 181.568714 
L 302.169807 176.479454 
L 302.692589 191.053434 
L 302.797146 191.596661 
L 302.901702 191.128061 
L 303.006258 189.659091 
L 303.110815 189.948907 
L 303.215371 188.569407 
L 303.424484 189.040817 
L 303.633597 191.977406 
L 303.947266 188.484533 
L 304.051822 189.976655 
L 304.260935 185.617616 
L 304.365491 185.971951 
L 304.574604 187.089442 
L 304.783717 186.713176 
L 304.888273 187.240932 
L 304.99283 186.726679 
L 305.201942 187.576625 
L 305.306499 187.879773 
L 305.515612 188.817319 
L 305.620168 189.119518 
L 305.829281 187.169188 
L 305.933837 185.923034 
L 306.038394 186.031089 
L 306.14295 186.496463 
L 306.352063 185.550368 
L 306.561175 186.958237 
L 306.979401 192.916232 
L 307.083957 194.06628 
L 307.29307 191.118382 
L 307.397627 190.886928 
L 307.606739 189.179186 
L 307.815852 189.743757 
L 308.024965 193.668531 
L 308.129521 193.646844 
L 308.234078 193.523739 
L 308.338634 192.910751 
L 308.547747 190.394044 
L 308.861416 181.476851 
L 309.175085 177.451966 
L 309.593311 168.267639 
L 309.697867 167.612141 
L 309.90698 169.158726 
L 311.0571 185.906875 
L 311.161656 185.480097 
L 311.684438 171.589374 
L 311.788995 170.614733 
L 311.893551 170.748008 
L 311.998107 169.179696 
L 312.20722 173.672808 
L 312.730002 192.721585 
L 313.148228 196.030198 
L 313.252784 196.214473 
L 313.461897 195.771658 
L 313.566453 195.775238 
L 313.67101 195.613184 
L 313.775566 195.16711 
L 314.089235 196.466522 
L 314.298348 195.926118 
L 314.402904 195.899965 
L 314.507461 195.289631 
L 314.612017 193.013237 
L 314.82113 181.13775 
L 314.925686 178.509134 
L 315.030243 170.468312 
L 315.134799 174.784259 
L 315.343912 167.4619 
L 315.448468 167.770353 
L 315.553025 169.874216 
L 315.762137 165.408811 
L 315.866694 167.693252 
L 316.284919 164.860525 
L 316.598588 153.744651 
L 316.807701 156.553376 
L 317.016814 159.839771 
L 317.12137 161.615747 
L 317.330483 156.674306 
L 317.853265 147.064 
L 317.957821 149.195986 
L 318.166934 143.739527 
L 318.271491 145.858117 
L 318.480603 140.932445 
L 318.58516 141.505211 
L 318.689716 144.609105 
L 318.794273 141.969793 
L 318.898829 142.490525 
L 319.317054 157.703509 
L 319.421611 157.490616 
L 319.73528 168.59871 
L 319.839836 167.775643 
L 320.048949 162.262212 
L 320.362618 157.954999 
L 320.571731 156.623203 
L 320.676287 156.986724 
L 320.8854 159.780516 
L 321.094513 165.964071 
L 321.199069 166.511877 
L 321.617295 182.924072 
L 321.721851 181.544083 
L 321.826408 185.189468 
L 322.871972 166.796974 
L 323.081084 165.125943 
L 323.394753 168.426567 
L 324.544874 187.378974 
L 324.753986 187.173808 
L 325.276768 191.580689 
L 325.381325 191.077595 
L 325.590438 192.975309 
L 325.79955 194.480909 
L 325.904107 194.294446 
L 326.008663 194.486304 
L 327.367896 178.634945 
L 327.472452 179.343789 
L 327.890678 185.641692 
L 327.995234 186.466766 
L 328.308904 191.452325 
L 328.727129 195.021939 
L 328.936242 194.182765 
L 329.040798 192.612487 
L 329.145355 193.147084 
L 329.249911 192.842035 
L 329.459024 188.029594 
L 329.56358 187.598293 
L 329.877249 184.233835 
L 329.981806 183.730058 
L 330.086362 180.850355 
L 330.295475 108.280706 
L 330.504588 113.226877 
L 330.609144 120.037834 
L 330.7137 119.190028 
L 331.863821 173.495997 
L 331.968377 175.388086 
L 332.386603 193.993156 
L 332.491159 195.305228 
L 332.595715 193.5721 
L 332.700272 195.170126 
L 332.909384 194.772204 
L 333.118497 194.95425 
L 333.432166 194.833813 
L 333.641279 194.45536 
L 333.850392 194.874693 
L 334.059505 195.07128 
L 334.164061 194.67244 
L 334.373174 195.090805 
L 334.47773 195.169912 
L 334.686843 195.889449 
L 334.791399 196.223446 
L 334.895956 194.985487 
L 335.000512 190.89856 
L 335.105069 190.904862 
L 335.209625 189.173403 
L 335.314181 190.504303 
L 335.418738 190.074738 
L 335.62785 191.600875 
L 335.732407 191.130072 
L 335.836963 191.327773 
L 335.94152 190.966371 
L 336.046076 191.393269 
L 336.150632 190.894844 
L 336.255189 191.625983 
L 336.359745 191.04252 
L 336.464302 185.821501 
L 336.673414 191.275743 
L 336.882527 193.708624 
L 337.300753 195.884053 
L 337.405309 195.593735 
L 337.614422 194.970996 
L 337.823535 195.878058 
L 338.555429 186.270218 
L 338.764542 185.286698 
L 338.973655 171.680196 
L 339.287324 149.334945 
L 339.600993 158.579115 
L 339.705549 154.729938 
L 339.914662 164.369419 
L 340.019219 162.533058 
L 340.332888 178.32743 
L 340.437444 174.677233 
L 340.751113 185.589856 
L 340.85567 183.105898 
L 341.064782 187.505494 
L 341.483008 191.38178 
L 341.587564 191.560164 
L 341.796677 190.88712 
L 341.901234 191.282031 
L 342.319459 184.206246 
L 342.424015 184.385673 
L 342.528572 188.253308 
L 342.842241 185.082486 
L 342.946797 185.229855 
L 343.15591 182.313959 
L 343.365023 180.62381 
L 343.469579 181.096891 
L 343.574136 180.893393 
L 343.783248 179.542386 
L 343.887805 178.982259 
L 343.992361 179.427073 
L 344.201474 181.943349 
L 344.30603 183.974606 
L 344.410587 182.471823 
L 344.515143 182.981633 
L 344.6197 185.738449 
L 344.724256 184.125567 
L 344.828812 184.448279 
L 345.037925 186.753138 
L 345.247038 184.117911 
L 345.456151 188.38931 
L 345.560707 181.228574 
L 345.665263 181.809761 
L 346.083489 196.20651 
L 346.188045 195.113572 
L 346.292602 195.146054 
L 346.397158 197.196804 
L 346.710827 194.175676 
L 346.91994 194.606194 
L 347.129053 194.845104 
L 347.233609 194.560832 
L 347.338166 193.626499 
L 347.442722 194.420362 
L 347.756391 193.300549 
L 347.860948 193.036434 
L 348.383729 199.856853 
L 348.488286 199.837818 
L 348.906511 196.542051 
L 349.011068 197.029635 
L 349.115624 196.77714 
L 349.429293 200.329164 
L 349.53385 199.741715 
L 349.742962 200.154811 
L 349.847519 200.676079 
L 349.952075 200.436946 
L 350.161188 201.057196 
L 350.370301 200.443363 
L 350.474857 200.341354 
L 350.579414 200.072819 
L 350.68397 200.111786 
L 350.788526 199.839473 
L 350.997639 196.582369 
L 351.102195 196.042511 
L 351.311308 196.136044 
L 351.415865 195.565855 
L 351.520421 196.406312 
L 351.624977 196.234005 
L 352.461428 173.908939 
L 352.565985 173.245387 
L 353.088767 167.390393 
L 353.29788 167.685546 
L 353.402436 167.913284 
L 353.925218 172.397655 
L 354.657113 183.473863 
L 354.866225 174.829711 
L 355.179894 169.731998 
L 355.284451 169.129819 
L 355.389007 169.439129 
L 355.493564 168.769942 
L 355.702676 172.398092 
L 356.330015 192.581133 
L 356.539127 193.504994 
L 356.643684 193.483259 
L 356.852797 193.084886 
L 357.061909 192.591728 
L 357.166466 192.712216 
L 357.375579 193.268906 
L 357.480135 192.580783 
L 357.689248 192.83359 
L 357.793804 192.877681 
L 357.89836 192.463174 
L 358.002917 192.694174 
L 358.107473 190.894766 
L 358.421142 180.263494 
L 358.525699 176.09221 
L 358.630255 176.969616 
L 358.943924 171.397785 
L 359.048481 171.182831 
L 359.257593 168.440016 
L 359.36215 168.663484 
L 359.675819 167.214927 
L 359.780375 167.342697 
L 359.884932 167.109681 
L 359.989488 168.576578 
L 360.094045 167.983818 
L 360.407714 170.696875 
L 360.616826 174.206963 
L 360.825939 170.480505 
L 361.139608 167.759323 
L 361.244165 167.51006 
L 361.348721 166.796415 
L 361.66239 168.613622 
L 361.976059 172.092266 
L 362.080616 169.306657 
L 362.289729 170.308174 
L 362.394285 173.10837 
L 362.498841 170.350556 
L 362.603398 170.393486 
L 362.707954 170.714448 
L 362.812511 172.214253 
L 362.917067 171.506682 
L 363.230736 178.909123 
L 363.335292 178.278671 
L 363.544405 174.390594 
L 363.648962 174.163388 
L 363.858074 171.295912 
L 363.962631 170.472244 
L 364.067187 172.4951 
L 364.2763 169.757241 
L 364.485413 167.834719 
L 364.589969 167.576581 
L 364.694525 168.481903 
L 365.321864 184.394281 
L 365.949202 171.161455 
L 366.367428 167.525772 
L 366.471984 166.793818 
L 366.681097 167.089195 
L 366.994766 169.096797 
L 367.622104 176.3802 
L 367.935773 183.566348 
L 368.144886 191.082209 
L 368.249443 190.643985 
L 368.563112 194.518932 
L 368.772224 194.246288 
L 368.876781 193.144455 
L 369.085894 194.819961 
L 369.19045 195.29604 
L 369.295006 195.228536 
L 369.608676 194.412568 
L 370.445127 187.010429 
L 370.549683 187.084919 
L 370.654239 186.406202 
L 370.758796 186.435618 
L 370.863352 185.893156 
L 370.967909 186.309055 
L 371.072465 186.203808 
L 371.281578 186.884301 
L 371.595247 189.500705 
L 372.222585 195.577856 
L 372.431698 195.048795 
L 372.536254 193.461732 
L 372.640811 193.864757 
L 372.849923 190.729761 
L 372.95448 188.614398 
L 373.059036 189.54942 
L 373.581818 182.084186 
L 373.581818 182.084186 
" clip-path="url(#pb2c26b5ec7)" style="fill: none; stroke: #1f77b4; stroke-width: 1.5; stroke-linecap: round"/>
   </g>
   <g id="line2d_16">
    <path d="M 69.218182 246.24 
L 373.581818 246.24 
L 373.581818 246.24 
" clip-path="url(#pb2c26b5ec7)" style="fill: none; stroke: #ff7f0e; stroke-width: 1.5; stroke-linecap: round"/>
   </g>
   <g id="patch_3">
    <path d="M 54 256.32 
L 54 34.56 
" style="fill: none; stroke: #ffffff; stroke-width: 0.8; stroke-linejoin: miter; stroke-linecap: square"/>
   </g>
   <g id="patch_4">
    <path d="M 388.8 256.32 
L 388.8 34.56 
" style="fill: none; stroke: #ffffff; stroke-width: 0.8; stroke-linejoin: miter; stroke-linecap: square"/>
   </g>
   <g id="patch_5">
    <path d="M 54 256.32 
L 388.8 256.32 
" style="fill: none; stroke: #ffffff; stroke-width: 0.8; stroke-linejoin: miter; stroke-linecap: square"/>
   </g>
   <g id="patch_6">
    <path d="M 54 34.56 
L 388.8 34.56 
" style="fill: none; stroke: #ffffff; stroke-width: 0.8; stroke-linejoin: miter; stroke-linecap: square"/>
   </g>
   <g id="text_17">
    <!-- Protein complex's vibration profile (asymmetric unit) -->
    <g style="fill: #262626" transform="translate(63.195 28.56) scale(0.12 -0.12)">
     <defs>
      <path id="DejaVuSans-50" d="M 1259 4147 
L 1259 2394 
L 2053 2394 
Q 2494 2394 2734 2622 
Q 2975 2850 2975 3272 
Q 2975 3691 2734 3919 
Q 2494 4147 2053 4147 
L 1259 4147 
z
M 628 4666 
L 2053 4666 
Q 2838 4666 3239 4311 
Q 3641 3956 3641 3272 
Q 3641 2581 3239 2228 
Q 2838 1875 2053 1875 
L 1259 1875 
L 1259 0 
L 628 0 
L 628 4666 
z
" transform="scale(0.015625)"/>
      <path id="DejaVuSans-70" d="M 1159 525 
L 1159 -1331 
L 581 -1331 
L 581 3500 
L 1159 3500 
L 1159 2969 
Q 1341 3281 1617 3432 
Q 1894 3584 2278 3584 
Q 2916 3584 3314 3078 
Q 3713 2572 3713 1747 
Q 3713 922 3314 415 
Q 2916 -91 2278 -91 
Q 1894 -91 1617 61 
Q 1341 213 1159 525 
z
M 3116 1747 
Q 3116 2381 2855 2742 
Q 2594 3103 2138 3103 
Q 1681 3103 1420 2742 
Q 1159 2381 1159 1747 
Q 1159 1113 1420 752 
Q 1681 391 2138 391 
Q 2594 391 2855 752 
Q 3116 1113 3116 1747 
z
" transform="scale(0.015625)"/>
      <path id="DejaVuSans-6c" d="M 603 4863 
L 1178 4863 
L 1178 0 
L 603 0 
L 603 4863 
z
" transform="scale(0.015625)"/>
      <path id="DejaVuSans-78" d="M 3513 3500 
L 2247 1797 
L 3578 0 
L 2900 0 
L 1881 1375 
L 863 0 
L 184 0 
L 1544 1831 
L 300 3500 
L 978 3500 
L 1906 2253 
L 2834 3500 
L 3513 3500 
z
" transform="scale(0.015625)"/>
      <path id="DejaVuSans-27" d="M 1147 4666 
L 1147 2931 
L 616 2931 
L 616 4666 
L 1147 4666 
z
" transform="scale(0.015625)"/>
      <path id="DejaVuSans-76" d="M 191 3500 
L 800 3500 
L 1894 563 
L 2988 3500 
L 3597 3500 
L 2284 0 
L 1503 0 
L 191 3500 
z
" transform="scale(0.015625)"/>
      <path id="DejaVuSans-79" d="M 2059 -325 
Q 1816 -950 1584 -1140 
Q 1353 -1331 966 -1331 
L 506 -1331 
L 506 -850 
L 844 -850 
Q 1081 -850 1212 -737 
Q 1344 -625 1503 -206 
L 1606 56 
L 191 3500 
L 800 3500 
L 1894 763 
L 2988 3500 
L 3597 3500 
L 2059 -325 
z
" transform="scale(0.015625)"/>
     </defs>
     <use xlink:href="#DejaVuSans-50"/>
     <use xlink:href="#DejaVuSans-72" x="58.552734"/>
     <use xlink:href="#DejaVuSans-6f" x="97.416016"/>
     <use xlink:href="#DejaVuSans-74" x="158.597656"/>
     <use xlink:href="#DejaVuSans-65" x="197.806641"/>
     <use xlink:href="#DejaVuSans-69" x="259.330078"/>
     <use xlink:href="#DejaVuSans-6e" x="287.113281"/>
     <use xlink:href="#DejaVuSans-20" x="350.492188"/>
     <use xlink:href="#DejaVuSans-63" x="382.279297"/>
     <use xlink:href="#DejaVuSans-6f" x="437.259766"/>
     <use xlink:href="#DejaVuSans-6d" x="498.441406"/>
     <use xlink:href="#DejaVuSans-70" x="595.853516"/>
     <use xlink:href="#DejaVuSans-6c" x="659.330078"/>
     <use xlink:href="#DejaVuSans-65" x="687.113281"/>
     <use xlink:href="#DejaVuSans-78" x="746.886719"/>
     <use xlink:href="#DejaVuSans-27" x="806.066406"/>
     <use xlink:href="#DejaVuSans-73" x="833.556641"/>
     <use xlink:href="#DejaVuSans-20" x="885.65625"/>
     <use xlink:href="#DejaVuSans-76" x="917.443359"/>
     <use xlink:href="#DejaVuSans-69" x="976.623047"/>
     <use xlink:href="#DejaVuSans-62" x="1004.40625"/>
     <use xlink:href="#DejaVuSans-72" x="1067.882812"/>
     <use xlink:href="#DejaVuSans-61" x="1108.996094"/>
     <use xlink:href="#DejaVuSans-74" x="1170.275391"/>
     <use xlink:href="#DejaVuSans-69" x="1209.484375"/>
     <use xlink:href="#DejaVuSans-6f" x="1237.267578"/>
     <use xlink:href="#DejaVuSans-6e" x="1298.449219"/>
     <use xlink:href="#DejaVuSans-20" x="1361.828125"/>
     <use xlink:href="#DejaVuSans-70" x="1393.615234"/>
     <use xlink:href="#DejaVuSans-72" x="1457.091797"/>
     <use xlink:href="#DejaVuSans-6f" x="1495.955078"/>
     <use xlink:href="#DejaVuSans-66" x="1557.136719"/>
     <use xlink:href="#DejaVuSans-69" x="1592.341797"/>
     <use xlink:href="#DejaVuSans-6c" x="1620.125"/>
     <use xlink:href="#DejaVuSans-65" x="1647.908203"/>
     <use xlink:href="#DejaVuSans-20" x="1709.431641"/>
     <use xlink:href="#DejaVuSans-28" x="1741.21875"/>
     <use xlink:href="#DejaVuSans-61" x="1780.232422"/>
     <use xlink:href="#DejaVuSans-73" x="1841.511719"/>
     <use xlink:href="#DejaVuSans-79" x="1893.611328"/>
     <use xlink:href="#DejaVuSans-6d" x="1952.791016"/>
     <use xlink:href="#DejaVuSans-6d" x="2050.203125"/>
     <use xlink:href="#DejaVuSans-65" x="2147.615234"/>
     <use xlink:href="#DejaVuSans-74" x="2209.138672"/>
     <use xlink:href="#DejaVuSans-72" x="2248.347656"/>
     <use xlink:href="#DejaVuSans-69" x="2289.460938"/>
     <use xlink:href="#DejaVuSans-63" x="2317.244141"/>
     <use xlink:href="#DejaVuSans-20" x="2372.224609"/>
     <use xlink:href="#DejaVuSans-75" x="2404.011719"/>
     <use xlink:href="#DejaVuSans-6e" x="2467.390625"/>
     <use xlink:href="#DejaVuSans-69" x="2530.769531"/>
     <use xlink:href="#DejaVuSans-74" x="2558.552734"/>
     <use xlink:href="#DejaVuSans-29" x="2597.761719"/>
    </g>
   </g>
   <g id="legend_1">
    <g id="line2d_17">
     <path d="M 285.114062 47.658437 
L 295.114062 47.658437 
L 305.114062 47.658437 
" style="fill: none; stroke: #1f77b4; stroke-width: 1.5; stroke-linecap: round"/>
    </g>
    <g id="text_18">
     <!-- Predicted -->
     <g style="fill: #262626" transform="translate(313.114062 51.158437) scale(0.1 -0.1)">
      <use xlink:href="#DejaVuSans-50"/>
      <use xlink:href="#DejaVuSans-72" x="58.552734"/>
      <use xlink:href="#DejaVuSans-65" x="97.416016"/>
      <use xlink:href="#DejaVuSans-64" x="158.939453"/>
      <use xlink:href="#DejaVuSans-69" x="222.416016"/>
      <use xlink:href="#DejaVuSans-63" x="250.199219"/>
      <use xlink:href="#DejaVuSans-74" x="305.179688"/>
      <use xlink:href="#DejaVuSans-65" x="344.388672"/>
      <use xlink:href="#DejaVuSans-64" x="405.912109"/>
     </g>
    </g>
    <g id="line2d_18">
     <path d="M 285.114062 62.336562 
L 295.114062 62.336562 
L 305.114062 62.336562 
" style="fill: none; stroke: #ff7f0e; stroke-width: 1.5; stroke-linecap: round"/>
    </g>
    <g id="text_19">
     <!-- Experimental -->
     <g style="fill: #262626" transform="translate(313.114062 65.836562) scale(0.1 -0.1)">
      <defs>
       <path id="DejaVuSans-45" d="M 628 4666 
L 3578 4666 
L 3578 4134 
L 1259 4134 
L 1259 2753 
L 3481 2753 
L 3481 2222 
L 1259 2222 
L 1259 531 
L 3634 531 
L 3634 0 
L 628 0 
L 628 4666 
z
" transform="scale(0.015625)"/>
      </defs>
      <use xlink:href="#DejaVuSans-45"/>
      <use xlink:href="#DejaVuSans-78" x="63.183594"/>
      <use xlink:href="#DejaVuSans-70" x="122.363281"/>
      <use xlink:href="#DejaVuSans-65" x="185.839844"/>
      <use xlink:href="#DejaVuSans-72" x="247.363281"/>
      <use xlink:href="#DejaVuSans-69" x="288.476562"/>
      <use xlink:href="#DejaVuSans-6d" x="316.259766"/>
      <use xlink:href="#DejaVuSans-65" x="413.671875"/>
      <use xlink:href="#DejaVuSans-6e" x="475.195312"/>
      <use xlink:href="#DejaVuSans-74" x="538.574219"/>
      <use xlink:href="#DejaVuSans-61" x="577.783203"/>
      <use xlink:href="#DejaVuSans-6c" x="639.0625"/>
     </g>
    </g>
   </g>
  </g>
 </g>
 <defs>
  <clipPath id="pb2c26b5ec7">
   <rect x="54" y="34.56" width="334.8" height="221.76"/>
  </clipPath>
 </defs>
</svg>
