<?xml version="1.0" encoding="utf-8" standalone="no"?>
<!DOCTYPE svg PUBLIC "-//W3C//DTD SVG 1.1//EN"
  "http://www.w3.org/Graphics/SVG/1.1/DTD/svg11.dtd">
<svg xmlns:xlink="http://www.w3.org/1999/xlink" width="432pt" height="216pt" viewBox="0 0 432 216" xmlns="http://www.w3.org/2000/svg" version="1.1">
 <metadata>
  <rdf:RDF xmlns:dc="http://purl.org/dc/elements/1.1/" xmlns:cc="http://creativecommons.org/ns#" xmlns:rdf="http://www.w3.org/1999/02/22-rdf-syntax-ns#">
   <cc:Work>
    <dc:type rdf:resource="http://purl.org/dc/dcmitype/StillImage"/>
    <dc:date>2023-09-06T10:38:39.198107</dc:date>
    <dc:format>image/svg+xml</dc:format>
    <dc:creator>
     <cc:Agent>
      <dc:title>Matplotlib v3.7.2, https://matplotlib.org/</dc:title>
     </cc:Agent>
    </dc:creator>
   </cc:Work>
  </rdf:RDF>
 </metadata>
 <defs>
  <style type="text/css">*{stroke-linejoin: round; stroke-linecap: butt}</style>
 </defs>
 <g id="figure_1">
  <g id="patch_1">
   <path d="M 0 216 
L 432 216 
L 432 0 
L 0 0 
z
" style="fill: #ffffff"/>
  </g>
  <g id="axes_1">
   <g id="patch_2">
    <path d="M 44.66 96.478182 
L 421.2 96.478182 
L 421.2 32.4 
L 44.66 32.4 
z
" style="fill: #eaeaf2"/>
   </g>
   <g id="matplotlib.axis_1">
    <g id="xtick_1">
     <g id="line2d_1">
      <path d="M 58.807457 96.478182 
L 58.807457 32.4 
" clip-path="url(#pdbcd1d8b0c)" style="fill: none; stroke: #ffffff; stroke-width: 0.8; stroke-linecap: round"/>
     </g>
    </g>
    <g id="xtick_2">
     <g id="line2d_2">
      <path d="M 108.274088 96.478182 
L 108.274088 32.4 
" clip-path="url(#pdbcd1d8b0c)" style="fill: none; stroke: #ffffff; stroke-width: 0.8; stroke-linecap: round"/>
     </g>
    </g>
    <g id="xtick_3">
     <g id="line2d_3">
      <path d="M 157.74072 96.478182 
L 157.74072 32.4 
" clip-path="url(#pdbcd1d8b0c)" style="fill: none; stroke: #ffffff; stroke-width: 0.8; stroke-linecap: round"/>
     </g>
    </g>
    <g id="xtick_4">
     <g id="line2d_4">
      <path d="M 207.207352 96.478182 
L 207.207352 32.4 
" clip-path="url(#pdbcd1d8b0c)" style="fill: none; stroke: #ffffff; stroke-width: 0.8; stroke-linecap: round"/>
     </g>
    </g>
    <g id="xtick_5">
     <g id="line2d_5">
      <path d="M 256.673983 96.478182 
L 256.673983 32.4 
" clip-path="url(#pdbcd1d8b0c)" style="fill: none; stroke: #ffffff; stroke-width: 0.8; stroke-linecap: round"/>
     </g>
    </g>
    <g id="xtick_6">
     <g id="line2d_6">
      <path d="M 306.140615 96.478182 
L 306.140615 32.4 
" clip-path="url(#pdbcd1d8b0c)" style="fill: none; stroke: #ffffff; stroke-width: 0.8; stroke-linecap: round"/>
     </g>
    </g>
    <g id="xtick_7">
     <g id="line2d_7">
      <path d="M 355.607246 96.478182 
L 355.607246 32.4 
" clip-path="url(#pdbcd1d8b0c)" style="fill: none; stroke: #ffffff; stroke-width: 0.8; stroke-linecap: round"/>
     </g>
    </g>
    <g id="xtick_8">
     <g id="line2d_8">
      <path d="M 405.073878 96.478182 
L 405.073878 32.4 
" clip-path="url(#pdbcd1d8b0c)" style="fill: none; stroke: #ffffff; stroke-width: 0.8; stroke-linecap: round"/>
     </g>
    </g>
   </g>
   <g id="matplotlib.axis_2">
    <g id="ytick_1">
     <g id="line2d_9">
      <path d="M 44.66 93.565537 
L 421.2 93.565537 
" clip-path="url(#pdbcd1d8b0c)" style="fill: none; stroke: #ffffff; stroke-width: 0.8; stroke-linecap: round"/>
     </g>
     <g id="text_1">
      <!-- 0 -->
      <g style="fill: #262626" transform="translate(31.2975 97.364756) scale(0.1 -0.1)">
       <defs>
        <path id="DejaVuSans-30" d="M 2034 4250 
Q 1547 4250 1301 3770 
Q 1056 3291 1056 2328 
Q 1056 1369 1301 889 
Q 1547 409 2034 409 
Q 2525 409 2770 889 
Q 3016 1369 3016 2328 
Q 3016 3291 2770 3770 
Q 2525 4250 2034 4250 
z
M 2034 4750 
Q 2819 4750 3233 4129 
Q 3647 3509 3647 2328 
Q 3647 1150 3233 529 
Q 2819 -91 2034 -91 
Q 1250 -91 836 529 
Q 422 1150 422 2328 
Q 422 3509 836 4129 
Q 1250 4750 2034 4750 
z
" transform="scale(0.015625)"/>
       </defs>
       <use xlink:href="#DejaVuSans-30"/>
      </g>
     </g>
    </g>
    <g id="ytick_2">
     <g id="line2d_10">
      <path d="M 44.66 72.088398 
L 421.2 72.088398 
" clip-path="url(#pdbcd1d8b0c)" style="fill: none; stroke: #ffffff; stroke-width: 0.8; stroke-linecap: round"/>
     </g>
     <g id="text_2">
      <!-- 5 -->
      <g style="fill: #262626" transform="translate(31.2975 75.887617) scale(0.1 -0.1)">
       <defs>
        <path id="DejaVuSans-35" d="M 691 4666 
L 3169 4666 
L 3169 4134 
L 1269 4134 
L 1269 2991 
Q 1406 3038 1543 3061 
Q 1681 3084 1819 3084 
Q 2600 3084 3056 2656 
Q 3513 2228 3513 1497 
Q 3513 744 3044 326 
Q 2575 -91 1722 -91 
Q 1428 -91 1123 -41 
Q 819 9 494 109 
L 494 744 
Q 775 591 1075 516 
Q 1375 441 1709 441 
Q 2250 441 2565 725 
Q 2881 1009 2881 1497 
Q 2881 1984 2565 2268 
Q 2250 2553 1709 2553 
Q 1456 2553 1204 2497 
Q 953 2441 691 2322 
L 691 4666 
z
" transform="scale(0.015625)"/>
       </defs>
       <use xlink:href="#DejaVuSans-35"/>
      </g>
     </g>
    </g>
    <g id="ytick_3">
     <g id="line2d_11">
      <path d="M 44.66 50.61126 
L 421.2 50.61126 
" clip-path="url(#pdbcd1d8b0c)" style="fill: none; stroke: #ffffff; stroke-width: 0.8; stroke-linecap: round"/>
     </g>
     <g id="text_3">
      <!-- 10 -->
      <g style="fill: #262626" transform="translate(24.935 54.410478) scale(0.1 -0.1)">
       <defs>
        <path id="DejaVuSans-31" d="M 794 531 
L 1825 531 
L 1825 4091 
L 703 3866 
L 703 4441 
L 1819 4666 
L 2450 4666 
L 2450 531 
L 3481 531 
L 3481 0 
L 794 0 
L 794 531 
z
" transform="scale(0.015625)"/>
       </defs>
       <use xlink:href="#DejaVuSans-31"/>
       <use xlink:href="#DejaVuSans-30" x="63.623047"/>
      </g>
     </g>
    </g>
    <g id="text_4">
     <!-- Quality score -->
     <g style="fill: #262626" transform="translate(18.855313 97.327372) rotate(-90) scale(0.1 -0.1)">
      <defs>
       <path id="DejaVuSans-51" d="M 2522 4238 
Q 1834 4238 1429 3725 
Q 1025 3213 1025 2328 
Q 1025 1447 1429 934 
Q 1834 422 2522 422 
Q 3209 422 3611 934 
Q 4013 1447 4013 2328 
Q 4013 3213 3611 3725 
Q 3209 4238 2522 4238 
z
M 3406 84 
L 4238 -825 
L 3475 -825 
L 2784 -78 
Q 2681 -84 2626 -87 
Q 2572 -91 2522 -91 
Q 1538 -91 948 567 
Q 359 1225 359 2328 
Q 359 3434 948 4092 
Q 1538 4750 2522 4750 
Q 3503 4750 4090 4092 
Q 4678 3434 4678 2328 
Q 4678 1516 4351 937 
Q 4025 359 3406 84 
z
" transform="scale(0.015625)"/>
       <path id="DejaVuSans-75" d="M 544 1381 
L 544 3500 
L 1119 3500 
L 1119 1403 
Q 1119 906 1312 657 
Q 1506 409 1894 409 
Q 2359 409 2629 706 
Q 2900 1003 2900 1516 
L 2900 3500 
L 3475 3500 
L 3475 0 
L 2900 0 
L 2900 538 
Q 2691 219 2414 64 
Q 2138 -91 1772 -91 
Q 1169 -91 856 284 
Q 544 659 544 1381 
z
M 1991 3584 
L 1991 3584 
z
" transform="scale(0.015625)"/>
       <path id="DejaVuSans-61" d="M 2194 1759 
Q 1497 1759 1228 1600 
Q 959 1441 959 1056 
Q 959 750 1161 570 
Q 1363 391 1709 391 
Q 2188 391 2477 730 
Q 2766 1069 2766 1631 
L 2766 1759 
L 2194 1759 
z
M 3341 1997 
L 3341 0 
L 2766 0 
L 2766 531 
Q 2569 213 2275 61 
Q 1981 -91 1556 -91 
Q 1019 -91 701 211 
Q 384 513 384 1019 
Q 384 1609 779 1909 
Q 1175 2209 1959 2209 
L 2766 2209 
L 2766 2266 
Q 2766 2663 2505 2880 
Q 2244 3097 1772 3097 
Q 1472 3097 1187 3025 
Q 903 2953 641 2809 
L 641 3341 
Q 956 3463 1253 3523 
Q 1550 3584 1831 3584 
Q 2591 3584 2966 3190 
Q 3341 2797 3341 1997 
z
" transform="scale(0.015625)"/>
       <path id="DejaVuSans-6c" d="M 603 4863 
L 1178 4863 
L 1178 0 
L 603 0 
L 603 4863 
z
" transform="scale(0.015625)"/>
       <path id="DejaVuSans-69" d="M 603 3500 
L 1178 3500 
L 1178 0 
L 603 0 
L 603 3500 
z
M 603 4863 
L 1178 4863 
L 1178 4134 
L 603 4134 
L 603 4863 
z
" transform="scale(0.015625)"/>
       <path id="DejaVuSans-74" d="M 1172 4494 
L 1172 3500 
L 2356 3500 
L 2356 3053 
L 1172 3053 
L 1172 1153 
Q 1172 725 1289 603 
Q 1406 481 1766 481 
L 2356 481 
L 2356 0 
L 1766 0 
Q 1100 0 847 248 
Q 594 497 594 1153 
L 594 3053 
L 172 3053 
L 172 3500 
L 594 3500 
L 594 4494 
L 1172 4494 
z
" transform="scale(0.015625)"/>
       <path id="DejaVuSans-79" d="M 2059 -325 
Q 1816 -950 1584 -1140 
Q 1353 -1331 966 -1331 
L 506 -1331 
L 506 -850 
L 844 -850 
Q 1081 -850 1212 -737 
Q 1344 -625 1503 -206 
L 1606 56 
L 191 3500 
L 800 3500 
L 1894 763 
L 2988 3500 
L 3597 3500 
L 2059 -325 
z
" transform="scale(0.015625)"/>
       <path id="DejaVuSans-20" transform="scale(0.015625)"/>
       <path id="DejaVuSans-73" d="M 2834 3397 
L 2834 2853 
Q 2591 2978 2328 3040 
Q 2066 3103 1784 3103 
Q 1356 3103 1142 2972 
Q 928 2841 928 2578 
Q 928 2378 1081 2264 
Q 1234 2150 1697 2047 
L 1894 2003 
Q 2506 1872 2764 1633 
Q 3022 1394 3022 966 
Q 3022 478 2636 193 
Q 2250 -91 1575 -91 
Q 1294 -91 989 -36 
Q 684 19 347 128 
L 347 722 
Q 666 556 975 473 
Q 1284 391 1588 391 
Q 1994 391 2212 530 
Q 2431 669 2431 922 
Q 2431 1156 2273 1281 
Q 2116 1406 1581 1522 
L 1381 1569 
Q 847 1681 609 1914 
Q 372 2147 372 2553 
Q 372 3047 722 3315 
Q 1072 3584 1716 3584 
Q 2034 3584 2315 3537 
Q 2597 3491 2834 3397 
z
" transform="scale(0.015625)"/>
       <path id="DejaVuSans-63" d="M 3122 3366 
L 3122 2828 
Q 2878 2963 2633 3030 
Q 2388 3097 2138 3097 
Q 1578 3097 1268 2742 
Q 959 2388 959 1747 
Q 959 1106 1268 751 
Q 1578 397 2138 397 
Q 2388 397 2633 464 
Q 2878 531 3122 666 
L 3122 134 
Q 2881 22 2623 -34 
Q 2366 -91 2075 -91 
Q 1284 -91 818 406 
Q 353 903 353 1747 
Q 353 2603 823 3093 
Q 1294 3584 2113 3584 
Q 2378 3584 2631 3529 
Q 2884 3475 3122 3366 
z
" transform="scale(0.015625)"/>
       <path id="DejaVuSans-6f" d="M 1959 3097 
Q 1497 3097 1228 2736 
Q 959 2375 959 1747 
Q 959 1119 1226 758 
Q 1494 397 1959 397 
Q 2419 397 2687 759 
Q 2956 1122 2956 1747 
Q 2956 2369 2687 2733 
Q 2419 3097 1959 3097 
z
M 1959 3584 
Q 2709 3584 3137 3096 
Q 3566 2609 3566 1747 
Q 3566 888 3137 398 
Q 2709 -91 1959 -91 
Q 1206 -91 779 398 
Q 353 888 353 1747 
Q 353 2609 779 3096 
Q 1206 3584 1959 3584 
z
" transform="scale(0.015625)"/>
       <path id="DejaVuSans-72" d="M 2631 2963 
Q 2534 3019 2420 3045 
Q 2306 3072 2169 3072 
Q 1681 3072 1420 2755 
Q 1159 2438 1159 1844 
L 1159 0 
L 581 0 
L 581 3500 
L 1159 3500 
L 1159 2956 
Q 1341 3275 1631 3429 
Q 1922 3584 2338 3584 
Q 2397 3584 2469 3576 
Q 2541 3569 2628 3553 
L 2631 2963 
z
" transform="scale(0.015625)"/>
       <path id="DejaVuSans-65" d="M 3597 1894 
L 3597 1613 
L 953 1613 
Q 991 1019 1311 708 
Q 1631 397 2203 397 
Q 2534 397 2845 478 
Q 3156 559 3463 722 
L 3463 178 
Q 3153 47 2828 -22 
Q 2503 -91 2169 -91 
Q 1331 -91 842 396 
Q 353 884 353 1716 
Q 353 2575 817 3079 
Q 1281 3584 2069 3584 
Q 2775 3584 3186 3129 
Q 3597 2675 3597 1894 
z
M 3022 2063 
Q 3016 2534 2758 2815 
Q 2500 3097 2075 3097 
Q 1594 3097 1305 2825 
Q 1016 2553 972 2059 
L 3022 2063 
z
" transform="scale(0.015625)"/>
      </defs>
      <use xlink:href="#DejaVuSans-51"/>
      <use xlink:href="#DejaVuSans-75" x="78.710938"/>
      <use xlink:href="#DejaVuSans-61" x="142.089844"/>
      <use xlink:href="#DejaVuSans-6c" x="203.369141"/>
      <use xlink:href="#DejaVuSans-69" x="231.152344"/>
      <use xlink:href="#DejaVuSans-74" x="258.935547"/>
      <use xlink:href="#DejaVuSans-79" x="298.144531"/>
      <use xlink:href="#DejaVuSans-20" x="357.324219"/>
      <use xlink:href="#DejaVuSans-73" x="389.111328"/>
      <use xlink:href="#DejaVuSans-63" x="441.210938"/>
      <use xlink:href="#DejaVuSans-6f" x="496.191406"/>
      <use xlink:href="#DejaVuSans-72" x="557.373047"/>
      <use xlink:href="#DejaVuSans-65" x="596.236328"/>
     </g>
    </g>
   </g>
   <g id="PolyCollection_1"/>
   <g id="line2d_12">
    <path d="M 61.775455 73.190519 
L 62.764787 79.99147 
L 63.75412 79.852381 
L 64.743452 75.530379 
L 65.732785 79.971993 
L 66.722118 82.300363 
L 67.71145 81.707349 
L 68.700783 81.646433 
L 69.690116 81.951779 
L 70.679448 82.127974 
L 72.658114 81.923393 
L 73.647446 79.934248 
L 74.636779 79.437318 
L 75.626111 81.674703 
L 76.615444 82.253418 
L 77.604777 81.52384 
L 78.594109 80.615394 
L 79.583442 79.431954 
L 80.572775 80.911511 
L 81.562107 81.623081 
L 82.55144 82.135411 
L 84.530105 82.367788 
L 86.50877 81.593247 
L 87.498103 81.49776 
L 88.487436 81.009821 
L 89.476768 80.726111 
L 90.466101 80.635887 
L 91.455434 80.042862 
L 92.444766 79.189076 
L 93.434099 79.142376 
L 94.423431 79.860044 
L 95.412764 79.429526 
L 97.391429 80.112836 
L 99.370095 78.221845 
L 100.359427 77.89766 
L 101.34876 78.127373 
L 102.338092 78.122028 
L 103.327425 77.606261 
L 104.316758 77.518402 
L 106.295423 78.237586 
L 108.274088 79.766358 
L 109.263421 79.297857 
L 111.242086 80.23422 
L 113.220751 80.495537 
L 114.210084 80.59354 
L 115.199417 80.455335 
L 116.188749 80.802661 
L 118.167415 81.001743 
L 120.14608 80.325159 
L 121.135413 80.792982 
L 122.124745 79.59527 
L 124.10341 79.097307 
L 126.082076 80.07305 
L 128.060741 80.676127 
L 129.050074 80.629013 
L 130.039406 80.767958 
L 131.028739 81.072423 
L 132.018071 80.922946 
L 133.007404 81.188372 
L 133.996737 81.246916 
L 134.986069 81.611461 
L 136.964735 81.40166 
L 137.954067 81.463994 
L 138.9434 81.407714 
L 139.932733 81.55104 
L 141.911398 81.36551 
L 143.890063 81.537585 
L 145.868728 80.992024 
L 146.858061 81.223946 
L 147.847394 80.853883 
L 149.826059 80.652711 
L 150.815391 81.157612 
L 151.804724 80.978153 
L 152.794057 80.551628 
L 153.783389 80.440466 
L 154.772722 79.986578 
L 155.762055 78.950401 
L 156.751387 79.731084 
L 157.74072 80.055858 
L 158.730053 79.778221 
L 159.719385 79.864118 
L 160.708718 79.35798 
L 161.69805 79.410191 
L 162.687383 79.31562 
L 163.676716 79.476807 
L 168.623379 79.699536 
L 170.602044 79.273518 
L 171.591377 79.33812 
L 172.580709 79.105099 
L 173.570042 79.134371 
L 175.548707 78.527976 
L 176.53804 77.957144 
L 177.527373 77.814217 
L 178.516705 78.121144 
L 181.484703 78.082704 
L 182.474036 78.421909 
L 186.431366 78.187676 
L 188.410032 78.283176 
L 189.399364 77.765008 
L 190.388697 77.662024 
L 191.378029 77.439491 
L 192.367362 77.433626 
L 193.356695 77.748022 
L 198.303358 78.056721 
L 199.29269 78.006562 
L 200.282023 78.227803 
L 201.271356 77.992614 
L 202.260688 78.055128 
L 203.250021 77.857378 
L 205.228686 77.999853 
L 206.218019 77.707373 
L 207.207352 77.910814 
L 209.186017 77.931121 
L 210.175349 77.490883 
L 211.164682 77.630053 
L 213.143347 77.375117 
L 214.13268 77.50895 
L 215.122013 77.759101 
L 216.111345 78.208215 
L 217.100678 77.346922 
L 218.090011 77.799724 
L 219.079343 77.936434 
L 220.068676 77.549015 
L 221.058008 77.660377 
L 222.047341 77.985147 
L 223.036674 77.31298 
L 224.026006 77.550318 
L 225.015339 77.124746 
L 226.004672 76.824935 
L 226.994004 76.759254 
L 227.983337 76.558701 
L 228.972669 77.413288 
L 230.951335 76.259867 
L 232.93 76.374718 
L 233.919333 76.865616 
L 234.908665 75.407115 
L 235.897998 75.485897 
L 236.887331 74.989179 
L 237.876663 73.592942 
L 238.865996 74.747851 
L 239.855328 74.383934 
L 240.844661 73.202745 
L 241.833994 73.928923 
L 242.823326 74.907533 
L 244.801992 72.995579 
L 246.780657 74.174621 
L 248.759322 73.345392 
L 249.748655 71.794818 
L 250.737987 68.02594 
L 251.72732 70.128114 
L 252.716653 69.426551 
L 253.705985 66.442556 
L 254.695318 64.566435 
L 255.684651 66.669859 
L 256.673983 65.610869 
L 257.663316 67.844221 
L 258.652648 65.94267 
L 259.641981 63.090114 
L 260.631314 68.686445 
L 261.620646 60.856886 
L 262.609979 64.746798 
L 263.599312 62.299275 
L 264.588644 65.085206 
L 265.577977 61.916635 
L 266.56731 63.835174 
L 267.556642 62.612915 
L 268.545975 59.86514 
L 269.535307 60.038168 
L 270.52464 57.099724 
L 271.513973 51.070247 
L 272.503305 53.270211 
L 273.492638 53.435998 
L 274.481971 52.281424 
L 275.471303 54.605701 
L 276.460636 54.911906 
L 277.449968 57.09132 
L 278.439301 63.582707 
L 279.428634 61.887015 
L 280.417966 61.017723 
L 281.407299 57.577269 
L 282.396632 55.342105 
L 283.385964 58.487286 
L 284.375297 58.820628 
L 285.36463 58.816551 
L 286.353962 58.686774 
L 287.343295 59.85717 
L 288.332627 64.270962 
L 289.32196 52.998662 
L 290.311293 54.50384 
L 291.300625 48.313332 
L 292.289958 48.339263 
L 293.279291 48.921667 
L 294.268623 45.391133 
L 295.257956 47.409725 
L 296.247288 42.585775 
L 297.236621 42.9025 
L 298.225954 35.312645 
L 299.215286 43.141066 
L 300.204619 47.241301 
L 301.193952 45.695509 
L 302.183284 47.338814 
L 303.172617 45.698919 
L 304.16195 47.355722 
L 305.151282 44.744372 
L 306.140615 44.686936 
L 308.11928 49.793697 
L 309.108613 56.879376 
L 311.087278 53.730179 
L 312.076611 52.777203 
L 313.065943 57.126159 
L 314.055276 56.848794 
L 315.044609 57.015895 
L 316.033941 59.847304 
L 317.023274 57.748816 
L 318.012606 57.348804 
L 319.001939 55.90206 
L 320.980604 61.752658 
L 321.969937 60.063268 
L 322.95927 59.022 
L 323.948602 60.147827 
L 325.927267 61.498952 
L 326.9166 61.211635 
L 327.905933 61.137343 
L 329.884598 62.693109 
L 330.873931 62.954493 
L 332.852596 62.705154 
L 333.841929 62.9319 
L 334.831261 63.505992 
L 335.820594 62.886958 
L 336.809926 64.843275 
L 337.799259 63.914343 
L 338.788592 64.089693 
L 339.777924 63.213483 
L 340.767257 63.450144 
L 341.75659 63.343879 
L 342.745922 64.103786 
L 344.724587 64.233725 
L 345.71392 64.676562 
L 346.703253 64.303664 
L 347.692585 65.468619 
L 348.681918 65.259906 
L 349.671251 66.136188 
L 350.660583 67.40221 
L 352.639249 65.749434 
L 353.628581 65.352669 
L 354.617914 66.917774 
L 355.607246 68.187831 
L 356.596579 68.584111 
L 357.585912 69.366089 
L 358.575244 67.396117 
L 359.564577 69.254612 
L 360.55391 68.697813 
L 361.543242 69.225241 
L 362.532575 67.512626 
L 363.521908 67.598519 
L 364.51124 69.800447 
L 365.500573 65.101007 
L 366.489905 63.203773 
L 367.479238 61.063615 
L 368.468571 61.506199 
L 369.457903 62.637403 
L 370.447236 64.010547 
L 371.436569 65.162914 
L 372.425901 60.873498 
L 373.415234 63.929256 
L 374.404566 65.862843 
L 375.393899 65.744318 
L 376.383232 66.260928 
L 377.372564 64.415656 
L 378.361897 68.200815 
L 379.35123 66.094034 
L 380.340562 67.35848 
L 381.329895 67.270321 
L 382.319228 66.564584 
L 383.30856 66.177675 
L 384.297893 67.615604 
L 385.287225 63.782453 
L 387.265891 67.831268 
L 388.255223 65.911078 
L 389.244556 67.552194 
L 390.233889 67.313244 
L 391.223221 67.238235 
L 392.212554 67.484036 
L 393.201886 67.888462 
L 394.191219 67.756934 
L 395.180552 68.018179 
L 396.169884 70.854345 
L 397.159217 68.077132 
L 398.14855 68.501929 
L 399.137882 69.765566 
L 400.127215 69.971842 
L 401.116548 69.74173 
L 402.10588 68.524198 
L 403.095213 69.7634 
L 404.084545 68.929509 
L 404.084545 68.929509 
" clip-path="url(#pdbcd1d8b0c)" style="fill: none; stroke: #1f77b4; stroke-width: 1.5; stroke-linecap: round"/>
   </g>
   <g id="LineCollection_1">
    <path d="M 298.225954 93.565537 
L 298.225954 35.312645 
" clip-path="url(#pdbcd1d8b0c)" style="fill: none; stroke: #000000; stroke-width: 1.5"/>
   </g>
   <g id="patch_3">
    <path d="M 44.66 96.478182 
L 44.66 32.4 
" style="fill: none; stroke: #ffffff; stroke-width: 0.8; stroke-linejoin: miter; stroke-linecap: square"/>
   </g>
   <g id="patch_4">
    <path d="M 421.2 96.478182 
L 421.2 32.4 
" style="fill: none; stroke: #ffffff; stroke-width: 0.8; stroke-linejoin: miter; stroke-linecap: square"/>
   </g>
   <g id="patch_5">
    <path d="M 44.66 96.478182 
L 421.2 96.478182 
" style="fill: none; stroke: #ffffff; stroke-width: 0.8; stroke-linejoin: miter; stroke-linecap: square"/>
   </g>
   <g id="patch_6">
    <path d="M 44.66 32.4 
L 421.2 32.4 
" style="fill: none; stroke: #ffffff; stroke-width: 0.8; stroke-linejoin: miter; stroke-linecap: square"/>
   </g>
  </g>
  <g id="axes_2">
   <g id="patch_7">
    <path d="M 44.66 174.04 
L 421.2 174.04 
L 421.2 109.961818 
L 44.66 109.961818 
z
" style="fill: #eaeaf2"/>
   </g>
   <g id="matplotlib.axis_3">
    <g id="xtick_9">
     <g id="line2d_13">
      <path d="M 58.807457 174.04 
L 58.807457 109.961818 
" clip-path="url(#pce50c2b2ab)" style="fill: none; stroke: #ffffff; stroke-width: 0.8; stroke-linecap: round"/>
     </g>
     <g id="text_5">
      <!-- 0 -->
      <g style="fill: #262626" transform="translate(55.626207 188.638437) scale(0.1 -0.1)">
       <use xlink:href="#DejaVuSans-30"/>
      </g>
     </g>
    </g>
    <g id="xtick_10">
     <g id="line2d_14">
      <path d="M 108.274088 174.04 
L 108.274088 109.961818 
" clip-path="url(#pce50c2b2ab)" style="fill: none; stroke: #ffffff; stroke-width: 0.8; stroke-linecap: round"/>
     </g>
     <g id="text_6">
      <!-- 100 -->
      <g style="fill: #262626" transform="translate(98.730338 188.638437) scale(0.1 -0.1)">
       <use xlink:href="#DejaVuSans-31"/>
       <use xlink:href="#DejaVuSans-30" x="63.623047"/>
       <use xlink:href="#DejaVuSans-30" x="127.246094"/>
      </g>
     </g>
    </g>
    <g id="xtick_11">
     <g id="line2d_15">
      <path d="M 157.74072 174.04 
L 157.74072 109.961818 
" clip-path="url(#pce50c2b2ab)" style="fill: none; stroke: #ffffff; stroke-width: 0.8; stroke-linecap: round"/>
     </g>
     <g id="text_7">
      <!-- 200 -->
      <g style="fill: #262626" transform="translate(148.19697 188.638437) scale(0.1 -0.1)">
       <defs>
        <path id="DejaVuSans-32" d="M 1228 531 
L 3431 531 
L 3431 0 
L 469 0 
L 469 531 
Q 828 903 1448 1529 
Q 2069 2156 2228 2338 
Q 2531 2678 2651 2914 
Q 2772 3150 2772 3378 
Q 2772 3750 2511 3984 
Q 2250 4219 1831 4219 
Q 1534 4219 1204 4116 
Q 875 4013 500 3803 
L 500 4441 
Q 881 4594 1212 4672 
Q 1544 4750 1819 4750 
Q 2544 4750 2975 4387 
Q 3406 4025 3406 3419 
Q 3406 3131 3298 2873 
Q 3191 2616 2906 2266 
Q 2828 2175 2409 1742 
Q 1991 1309 1228 531 
z
" transform="scale(0.015625)"/>
       </defs>
       <use xlink:href="#DejaVuSans-32"/>
       <use xlink:href="#DejaVuSans-30" x="63.623047"/>
       <use xlink:href="#DejaVuSans-30" x="127.246094"/>
      </g>
     </g>
    </g>
    <g id="xtick_12">
     <g id="line2d_16">
      <path d="M 207.207352 174.04 
L 207.207352 109.961818 
" clip-path="url(#pce50c2b2ab)" style="fill: none; stroke: #ffffff; stroke-width: 0.8; stroke-linecap: round"/>
     </g>
     <g id="text_8">
      <!-- 300 -->
      <g style="fill: #262626" transform="translate(197.663602 188.638437) scale(0.1 -0.1)">
       <defs>
        <path id="DejaVuSans-33" d="M 2597 2516 
Q 3050 2419 3304 2112 
Q 3559 1806 3559 1356 
Q 3559 666 3084 287 
Q 2609 -91 1734 -91 
Q 1441 -91 1130 -33 
Q 819 25 488 141 
L 488 750 
Q 750 597 1062 519 
Q 1375 441 1716 441 
Q 2309 441 2620 675 
Q 2931 909 2931 1356 
Q 2931 1769 2642 2001 
Q 2353 2234 1838 2234 
L 1294 2234 
L 1294 2753 
L 1863 2753 
Q 2328 2753 2575 2939 
Q 2822 3125 2822 3475 
Q 2822 3834 2567 4026 
Q 2313 4219 1838 4219 
Q 1578 4219 1281 4162 
Q 984 4106 628 3988 
L 628 4550 
Q 988 4650 1302 4700 
Q 1616 4750 1894 4750 
Q 2613 4750 3031 4423 
Q 3450 4097 3450 3541 
Q 3450 3153 3228 2886 
Q 3006 2619 2597 2516 
z
" transform="scale(0.015625)"/>
       </defs>
       <use xlink:href="#DejaVuSans-33"/>
       <use xlink:href="#DejaVuSans-30" x="63.623047"/>
       <use xlink:href="#DejaVuSans-30" x="127.246094"/>
      </g>
     </g>
    </g>
    <g id="xtick_13">
     <g id="line2d_17">
      <path d="M 256.673983 174.04 
L 256.673983 109.961818 
" clip-path="url(#pce50c2b2ab)" style="fill: none; stroke: #ffffff; stroke-width: 0.8; stroke-linecap: round"/>
     </g>
     <g id="text_9">
      <!-- 400 -->
      <g style="fill: #262626" transform="translate(247.130233 188.638437) scale(0.1 -0.1)">
       <defs>
        <path id="DejaVuSans-34" d="M 2419 4116 
L 825 1625 
L 2419 1625 
L 2419 4116 
z
M 2253 4666 
L 3047 4666 
L 3047 1625 
L 3713 1625 
L 3713 1100 
L 3047 1100 
L 3047 0 
L 2419 0 
L 2419 1100 
L 313 1100 
L 313 1709 
L 2253 4666 
z
" transform="scale(0.015625)"/>
       </defs>
       <use xlink:href="#DejaVuSans-34"/>
       <use xlink:href="#DejaVuSans-30" x="63.623047"/>
       <use xlink:href="#DejaVuSans-30" x="127.246094"/>
      </g>
     </g>
    </g>
    <g id="xtick_14">
     <g id="line2d_18">
      <path d="M 306.140615 174.04 
L 306.140615 109.961818 
" clip-path="url(#pce50c2b2ab)" style="fill: none; stroke: #ffffff; stroke-width: 0.8; stroke-linecap: round"/>
     </g>
     <g id="text_10">
      <!-- 500 -->
      <g style="fill: #262626" transform="translate(296.596865 188.638437) scale(0.1 -0.1)">
       <use xlink:href="#DejaVuSans-35"/>
       <use xlink:href="#DejaVuSans-30" x="63.623047"/>
       <use xlink:href="#DejaVuSans-30" x="127.246094"/>
      </g>
     </g>
    </g>
    <g id="xtick_15">
     <g id="line2d_19">
      <path d="M 355.607246 174.04 
L 355.607246 109.961818 
" clip-path="url(#pce50c2b2ab)" style="fill: none; stroke: #ffffff; stroke-width: 0.8; stroke-linecap: round"/>
     </g>
     <g id="text_11">
      <!-- 600 -->
      <g style="fill: #262626" transform="translate(346.063496 188.638437) scale(0.1 -0.1)">
       <defs>
        <path id="DejaVuSans-36" d="M 2113 2584 
Q 1688 2584 1439 2293 
Q 1191 2003 1191 1497 
Q 1191 994 1439 701 
Q 1688 409 2113 409 
Q 2538 409 2786 701 
Q 3034 994 3034 1497 
Q 3034 2003 2786 2293 
Q 2538 2584 2113 2584 
z
M 3366 4563 
L 3366 3988 
Q 3128 4100 2886 4159 
Q 2644 4219 2406 4219 
Q 1781 4219 1451 3797 
Q 1122 3375 1075 2522 
Q 1259 2794 1537 2939 
Q 1816 3084 2150 3084 
Q 2853 3084 3261 2657 
Q 3669 2231 3669 1497 
Q 3669 778 3244 343 
Q 2819 -91 2113 -91 
Q 1303 -91 875 529 
Q 447 1150 447 2328 
Q 447 3434 972 4092 
Q 1497 4750 2381 4750 
Q 2619 4750 2861 4703 
Q 3103 4656 3366 4563 
z
" transform="scale(0.015625)"/>
       </defs>
       <use xlink:href="#DejaVuSans-36"/>
       <use xlink:href="#DejaVuSans-30" x="63.623047"/>
       <use xlink:href="#DejaVuSans-30" x="127.246094"/>
      </g>
     </g>
    </g>
    <g id="xtick_16">
     <g id="line2d_20">
      <path d="M 405.073878 174.04 
L 405.073878 109.961818 
" clip-path="url(#pce50c2b2ab)" style="fill: none; stroke: #ffffff; stroke-width: 0.8; stroke-linecap: round"/>
     </g>
     <g id="text_12">
      <!-- 700 -->
      <g style="fill: #262626" transform="translate(395.530128 188.638437) scale(0.1 -0.1)">
       <defs>
        <path id="DejaVuSans-37" d="M 525 4666 
L 3525 4666 
L 3525 4397 
L 1831 0 
L 1172 0 
L 2766 4134 
L 525 4134 
L 525 4666 
z
" transform="scale(0.015625)"/>
       </defs>
       <use xlink:href="#DejaVuSans-37"/>
       <use xlink:href="#DejaVuSans-30" x="63.623047"/>
       <use xlink:href="#DejaVuSans-30" x="127.246094"/>
      </g>
     </g>
    </g>
    <g id="text_13">
     <!-- Number of clusters -->
     <g style="fill: #262626" transform="translate(185.237813 202.316562) scale(0.1 -0.1)">
      <defs>
       <path id="DejaVuSans-4e" d="M 628 4666 
L 1478 4666 
L 3547 763 
L 3547 4666 
L 4159 4666 
L 4159 0 
L 3309 0 
L 1241 3903 
L 1241 0 
L 628 0 
L 628 4666 
z
" transform="scale(0.015625)"/>
       <path id="DejaVuSans-6d" d="M 3328 2828 
Q 3544 3216 3844 3400 
Q 4144 3584 4550 3584 
Q 5097 3584 5394 3201 
Q 5691 2819 5691 2113 
L 5691 0 
L 5113 0 
L 5113 2094 
Q 5113 2597 4934 2840 
Q 4756 3084 4391 3084 
Q 3944 3084 3684 2787 
Q 3425 2491 3425 1978 
L 3425 0 
L 2847 0 
L 2847 2094 
Q 2847 2600 2669 2842 
Q 2491 3084 2119 3084 
Q 1678 3084 1418 2786 
Q 1159 2488 1159 1978 
L 1159 0 
L 581 0 
L 581 3500 
L 1159 3500 
L 1159 2956 
Q 1356 3278 1631 3431 
Q 1906 3584 2284 3584 
Q 2666 3584 2933 3390 
Q 3200 3197 3328 2828 
z
" transform="scale(0.015625)"/>
       <path id="DejaVuSans-62" d="M 3116 1747 
Q 3116 2381 2855 2742 
Q 2594 3103 2138 3103 
Q 1681 3103 1420 2742 
Q 1159 2381 1159 1747 
Q 1159 1113 1420 752 
Q 1681 391 2138 391 
Q 2594 391 2855 752 
Q 3116 1113 3116 1747 
z
M 1159 2969 
Q 1341 3281 1617 3432 
Q 1894 3584 2278 3584 
Q 2916 3584 3314 3078 
Q 3713 2572 3713 1747 
Q 3713 922 3314 415 
Q 2916 -91 2278 -91 
Q 1894 -91 1617 61 
Q 1341 213 1159 525 
L 1159 0 
L 581 0 
L 581 4863 
L 1159 4863 
L 1159 2969 
z
" transform="scale(0.015625)"/>
       <path id="DejaVuSans-66" d="M 2375 4863 
L 2375 4384 
L 1825 4384 
Q 1516 4384 1395 4259 
Q 1275 4134 1275 3809 
L 1275 3500 
L 2222 3500 
L 2222 3053 
L 1275 3053 
L 1275 0 
L 697 0 
L 697 3053 
L 147 3053 
L 147 3500 
L 697 3500 
L 697 3744 
Q 697 4328 969 4595 
Q 1241 4863 1831 4863 
L 2375 4863 
z
" transform="scale(0.015625)"/>
      </defs>
      <use xlink:href="#DejaVuSans-4e"/>
      <use xlink:href="#DejaVuSans-75" x="74.804688"/>
      <use xlink:href="#DejaVuSans-6d" x="138.183594"/>
      <use xlink:href="#DejaVuSans-62" x="235.595703"/>
      <use xlink:href="#DejaVuSans-65" x="299.072266"/>
      <use xlink:href="#DejaVuSans-72" x="360.595703"/>
      <use xlink:href="#DejaVuSans-20" x="401.708984"/>
      <use xlink:href="#DejaVuSans-6f" x="433.496094"/>
      <use xlink:href="#DejaVuSans-66" x="494.677734"/>
      <use xlink:href="#DejaVuSans-20" x="529.882812"/>
      <use xlink:href="#DejaVuSans-63" x="561.669922"/>
      <use xlink:href="#DejaVuSans-6c" x="616.650391"/>
      <use xlink:href="#DejaVuSans-75" x="644.433594"/>
      <use xlink:href="#DejaVuSans-73" x="707.8125"/>
      <use xlink:href="#DejaVuSans-74" x="759.912109"/>
      <use xlink:href="#DejaVuSans-65" x="799.121094"/>
      <use xlink:href="#DejaVuSans-72" x="860.644531"/>
      <use xlink:href="#DejaVuSans-73" x="901.757812"/>
     </g>
    </g>
   </g>
   <g id="matplotlib.axis_4">
    <g id="ytick_4">
     <g id="line2d_21">
      <path d="M 44.66 172.976654 
L 421.2 172.976654 
" clip-path="url(#pce50c2b2ab)" style="fill: none; stroke: #ffffff; stroke-width: 0.8; stroke-linecap: round"/>
     </g>
     <g id="text_14">
      <!-- 0 -->
      <g style="fill: #262626" transform="translate(31.2975 176.775872) scale(0.1 -0.1)">
       <use xlink:href="#DejaVuSans-30"/>
      </g>
     </g>
    </g>
    <g id="ytick_5">
     <g id="line2d_22">
      <path d="M 44.66 135.99069 
L 421.2 135.99069 
" clip-path="url(#pce50c2b2ab)" style="fill: none; stroke: #ffffff; stroke-width: 0.8; stroke-linecap: round"/>
     </g>
     <g id="text_15">
      <!-- 20 -->
      <g style="fill: #262626" transform="translate(24.935 139.789909) scale(0.1 -0.1)">
       <use xlink:href="#DejaVuSans-32"/>
       <use xlink:href="#DejaVuSans-30" x="63.623047"/>
      </g>
     </g>
    </g>
    <g id="text_16">
     <!-- Unique clusters -->
     <g style="fill: #262626" transform="translate(18.855313 180.835284) rotate(-90) scale(0.1 -0.1)">
      <defs>
       <path id="DejaVuSans-55" d="M 556 4666 
L 1191 4666 
L 1191 1831 
Q 1191 1081 1462 751 
Q 1734 422 2344 422 
Q 2950 422 3222 751 
Q 3494 1081 3494 1831 
L 3494 4666 
L 4128 4666 
L 4128 1753 
Q 4128 841 3676 375 
Q 3225 -91 2344 -91 
Q 1459 -91 1007 375 
Q 556 841 556 1753 
L 556 4666 
z
" transform="scale(0.015625)"/>
       <path id="DejaVuSans-6e" d="M 3513 2113 
L 3513 0 
L 2938 0 
L 2938 2094 
Q 2938 2591 2744 2837 
Q 2550 3084 2163 3084 
Q 1697 3084 1428 2787 
Q 1159 2491 1159 1978 
L 1159 0 
L 581 0 
L 581 3500 
L 1159 3500 
L 1159 2956 
Q 1366 3272 1645 3428 
Q 1925 3584 2291 3584 
Q 2894 3584 3203 3211 
Q 3513 2838 3513 2113 
z
" transform="scale(0.015625)"/>
       <path id="DejaVuSans-71" d="M 947 1747 
Q 947 1113 1208 752 
Q 1469 391 1925 391 
Q 2381 391 2643 752 
Q 2906 1113 2906 1747 
Q 2906 2381 2643 2742 
Q 2381 3103 1925 3103 
Q 1469 3103 1208 2742 
Q 947 2381 947 1747 
z
M 2906 525 
Q 2725 213 2448 61 
Q 2172 -91 1784 -91 
Q 1150 -91 751 415 
Q 353 922 353 1747 
Q 353 2572 751 3078 
Q 1150 3584 1784 3584 
Q 2172 3584 2448 3432 
Q 2725 3281 2906 2969 
L 2906 3500 
L 3481 3500 
L 3481 -1331 
L 2906 -1331 
L 2906 525 
z
" transform="scale(0.015625)"/>
      </defs>
      <use xlink:href="#DejaVuSans-55"/>
      <use xlink:href="#DejaVuSans-6e" x="73.193359"/>
      <use xlink:href="#DejaVuSans-69" x="136.572266"/>
      <use xlink:href="#DejaVuSans-71" x="164.355469"/>
      <use xlink:href="#DejaVuSans-75" x="227.832031"/>
      <use xlink:href="#DejaVuSans-65" x="291.210938"/>
      <use xlink:href="#DejaVuSans-20" x="352.734375"/>
      <use xlink:href="#DejaVuSans-63" x="384.521484"/>
      <use xlink:href="#DejaVuSans-6c" x="439.501953"/>
      <use xlink:href="#DejaVuSans-75" x="467.285156"/>
      <use xlink:href="#DejaVuSans-73" x="530.664062"/>
      <use xlink:href="#DejaVuSans-74" x="582.763672"/>
      <use xlink:href="#DejaVuSans-65" x="621.972656"/>
      <use xlink:href="#DejaVuSans-72" x="683.496094"/>
      <use xlink:href="#DejaVuSans-73" x="724.609375"/>
     </g>
    </g>
   </g>
   <g id="PolyCollection_2"/>
   <g id="line2d_23">
    <path d="M 61.775455 171.127355 
L 62.764787 167.428759 
L 63.75412 167.428759 
L 64.743452 171.127355 
L 65.732785 165.579461 
L 66.722118 167.428759 
L 67.71145 163.730163 
L 68.700783 161.880864 
L 69.690116 165.579461 
L 71.668781 161.880864 
L 73.647446 161.880864 
L 74.636779 167.428759 
L 75.626111 160.031566 
L 76.615444 160.031566 
L 77.604777 158.182268 
L 78.594109 158.182268 
L 79.583442 165.579461 
L 80.572775 156.33297 
L 81.562107 148.935777 
L 82.55144 158.182268 
L 83.540772 154.483672 
L 84.530105 161.880864 
L 85.519438 150.785075 
L 86.50877 148.935777 
L 87.498103 150.785075 
L 88.487436 148.935777 
L 89.476768 156.33297 
L 90.466101 156.33297 
L 92.444766 148.935777 
L 93.434099 148.935777 
L 94.423431 145.237181 
L 95.412764 145.237181 
L 96.402097 150.785075 
L 97.391429 150.785075 
L 98.380762 147.086479 
L 99.370095 145.237181 
L 100.359427 145.237181 
L 102.338092 152.634374 
L 103.327425 150.785075 
L 104.316758 152.634374 
L 105.30609 152.634374 
L 106.295423 156.33297 
L 107.284756 143.387883 
L 108.274088 152.634374 
L 109.263421 152.634374 
L 110.252754 143.387883 
L 111.242086 141.538585 
L 112.231419 143.387883 
L 113.220751 141.538585 
L 114.210084 141.538585 
L 115.199417 143.387883 
L 118.167415 143.387883 
L 119.156747 147.086479 
L 121.135413 143.387883 
L 122.124745 147.086479 
L 123.114078 158.182268 
L 124.10341 165.579461 
L 125.092743 165.579461 
L 126.082076 154.483672 
L 127.071408 158.182268 
L 128.060741 145.237181 
L 129.050074 152.634374 
L 130.039406 147.086479 
L 131.028739 143.387883 
L 132.018071 143.387883 
L 133.007404 135.99069 
L 133.996737 141.538585 
L 134.986069 139.689286 
L 135.975402 135.99069 
L 136.964735 143.387883 
L 137.954067 137.839988 
L 138.9434 137.839988 
L 139.932733 134.141392 
L 140.922065 135.99069 
L 141.911398 145.237181 
L 142.90073 141.538585 
L 143.890063 139.689286 
L 144.879396 141.538585 
L 145.868728 135.99069 
L 147.847394 139.689286 
L 148.836726 135.99069 
L 149.826059 137.839988 
L 150.815391 135.99069 
L 151.804724 141.538585 
L 152.794057 137.839988 
L 154.772722 137.839988 
L 155.762055 145.237181 
L 156.751387 143.387883 
L 158.730053 147.086479 
L 159.719385 145.237181 
L 162.687383 145.237181 
L 164.666048 148.935777 
L 165.655381 143.387883 
L 166.644714 147.086479 
L 167.634046 145.237181 
L 168.623379 147.086479 
L 171.591377 141.538585 
L 173.570042 141.538585 
L 174.559375 135.99069 
L 175.548707 137.839988 
L 176.53804 143.387883 
L 177.527373 154.483672 
L 178.516705 130.442795 
L 179.506038 137.839988 
L 180.49537 137.839988 
L 181.484703 141.538585 
L 182.474036 139.689286 
L 183.463368 135.99069 
L 184.452701 139.689286 
L 186.431366 139.689286 
L 187.420699 137.839988 
L 188.410032 137.839988 
L 189.399364 135.99069 
L 190.388697 135.99069 
L 191.378029 141.538585 
L 192.367362 141.538585 
L 193.356695 137.839988 
L 194.346027 137.839988 
L 195.33536 135.99069 
L 196.324693 141.538585 
L 197.314025 139.689286 
L 198.303358 139.689286 
L 199.29269 137.839988 
L 200.282023 134.141392 
L 201.271356 137.839988 
L 202.260688 137.839988 
L 203.250021 139.689286 
L 204.239354 135.99069 
L 205.228686 137.839988 
L 206.218019 135.99069 
L 207.207352 135.99069 
L 208.196684 139.689286 
L 209.186017 132.292094 
L 211.164682 135.99069 
L 212.154015 134.141392 
L 214.13268 137.839988 
L 215.122013 132.292094 
L 217.100678 132.292094 
L 218.090011 134.141392 
L 219.079343 130.442795 
L 220.068676 132.292094 
L 222.047341 128.593497 
L 223.036674 132.292094 
L 224.026006 128.593497 
L 225.015339 128.593497 
L 226.004672 132.292094 
L 226.994004 132.292094 
L 227.983337 130.442795 
L 228.972669 130.442795 
L 229.962002 134.141392 
L 230.951335 134.141392 
L 231.940667 130.442795 
L 232.93 134.141392 
L 234.908665 134.141392 
L 235.897998 130.442795 
L 236.887331 132.292094 
L 237.876663 137.839988 
L 238.865996 135.99069 
L 239.855328 132.292094 
L 241.833994 128.593497 
L 242.823326 130.442795 
L 243.812659 128.593497 
L 244.801992 130.442795 
L 245.791324 128.593497 
L 246.780657 132.292094 
L 248.759322 124.894901 
L 249.748655 128.593497 
L 250.737987 130.442795 
L 251.72732 128.593497 
L 252.716653 124.894901 
L 253.705985 132.292094 
L 254.695318 124.894901 
L 255.684651 126.744199 
L 256.673983 134.141392 
L 257.663316 126.744199 
L 258.652648 126.744199 
L 259.641981 128.593497 
L 260.631314 126.744199 
L 261.620646 130.442795 
L 262.609979 130.442795 
L 264.588644 126.744199 
L 265.577977 130.442795 
L 266.56731 132.292094 
L 267.556642 130.442795 
L 268.545975 134.141392 
L 269.535307 130.442795 
L 270.52464 130.442795 
L 271.513973 135.99069 
L 272.503305 132.292094 
L 273.492638 132.292094 
L 274.481971 134.141392 
L 275.471303 128.593497 
L 276.460636 132.292094 
L 278.439301 132.292094 
L 279.428634 130.442795 
L 281.407299 134.141392 
L 282.396632 132.292094 
L 283.385964 135.99069 
L 284.375297 135.99069 
L 285.36463 130.442795 
L 287.343295 134.141392 
L 288.332627 132.292094 
L 289.32196 139.689286 
L 292.289958 134.141392 
L 293.279291 139.689286 
L 294.268623 139.689286 
L 295.257956 137.839988 
L 296.247288 139.689286 
L 297.236621 143.387883 
L 298.225954 161.880864 
L 299.215286 145.237181 
L 300.204619 141.538585 
L 301.193952 135.99069 
L 302.183284 135.99069 
L 303.172617 132.292094 
L 304.16195 137.839988 
L 305.151282 135.99069 
L 306.140615 141.538585 
L 307.129947 130.442795 
L 308.11928 126.744199 
L 310.097945 123.045603 
L 311.087278 124.894901 
L 312.076611 124.894901 
L 313.065943 121.196305 
L 314.055276 121.196305 
L 315.044609 123.045603 
L 316.033941 123.045603 
L 317.023274 121.196305 
L 318.012606 130.442795 
L 319.001939 134.141392 
L 319.991272 121.196305 
L 320.980604 117.497708 
L 321.969937 126.744199 
L 322.95927 128.593497 
L 323.948602 126.744199 
L 324.937935 123.045603 
L 325.927267 126.744199 
L 326.9166 121.196305 
L 327.905933 132.292094 
L 328.895265 123.045603 
L 329.884598 126.744199 
L 330.873931 124.894901 
L 332.852596 128.593497 
L 333.841929 134.141392 
L 334.831261 126.744199 
L 335.820594 135.99069 
L 336.809926 126.744199 
L 337.799259 134.141392 
L 339.777924 134.141392 
L 340.767257 130.442795 
L 341.75659 132.292094 
L 342.745922 135.99069 
L 343.735255 128.593497 
L 344.724587 137.839988 
L 346.703253 134.141392 
L 347.692585 124.894901 
L 348.681918 134.141392 
L 349.671251 130.442795 
L 350.660583 134.141392 
L 351.649916 132.292094 
L 352.639249 134.141392 
L 353.628581 137.839988 
L 354.617914 135.99069 
L 355.607246 130.442795 
L 356.596579 132.292094 
L 357.585912 126.744199 
L 358.575244 134.141392 
L 359.564577 132.292094 
L 360.55391 132.292094 
L 361.543242 130.442795 
L 362.532575 132.292094 
L 363.521908 128.593497 
L 364.51124 126.744199 
L 365.500573 135.99069 
L 368.468571 130.442795 
L 369.457903 132.292094 
L 371.436569 132.292094 
L 372.425901 134.141392 
L 373.415234 132.292094 
L 374.404566 132.292094 
L 375.393899 130.442795 
L 376.383232 132.292094 
L 377.372564 132.292094 
L 378.361897 130.442795 
L 379.35123 130.442795 
L 380.340562 132.292094 
L 381.329895 128.593497 
L 382.319228 123.045603 
L 383.30856 128.593497 
L 385.287225 128.593497 
L 386.276558 126.744199 
L 387.265891 121.196305 
L 388.255223 123.045603 
L 389.244556 121.196305 
L 390.233889 121.196305 
L 391.223221 117.497708 
L 392.212554 117.497708 
L 393.201886 123.045603 
L 395.180552 119.347006 
L 396.169884 123.045603 
L 398.14855 123.045603 
L 400.127215 119.347006 
L 401.116548 119.347006 
L 403.095213 115.64841 
L 404.084545 123.045603 
L 404.084545 123.045603 
" clip-path="url(#pce50c2b2ab)" style="fill: none; stroke: #1f77b4; stroke-width: 1.5; stroke-linecap: round"/>
   </g>
   <g id="LineCollection_2">
    <path d="M 298.225954 161.880864 
L 298.225954 112.874463 
" clip-path="url(#pce50c2b2ab)" style="fill: none; stroke: #000000; stroke-width: 1.5"/>
   </g>
   <g id="patch_8">
    <path d="M 44.66 174.04 
L 44.66 109.961818 
" style="fill: none; stroke: #ffffff; stroke-width: 0.8; stroke-linejoin: miter; stroke-linecap: square"/>
   </g>
   <g id="patch_9">
    <path d="M 421.2 174.04 
L 421.2 109.961818 
" style="fill: none; stroke: #ffffff; stroke-width: 0.8; stroke-linejoin: miter; stroke-linecap: square"/>
   </g>
   <g id="patch_10">
    <path d="M 44.66 174.04 
L 421.2 174.04 
" style="fill: none; stroke: #ffffff; stroke-width: 0.8; stroke-linejoin: miter; stroke-linecap: square"/>
   </g>
   <g id="patch_11">
    <path d="M 44.66 109.961818 
L 421.2 109.961818 
" style="fill: none; stroke: #ffffff; stroke-width: 0.8; stroke-linejoin: miter; stroke-linecap: square"/>
   </g>
  </g>
  <g id="text_17">
   <!-- Cluster quality score analysis -->
   <g style="fill: #262626" transform="translate(128.046562 13.438125) scale(0.12 -0.12)">
    <defs>
     <path id="DejaVuSans-43" d="M 4122 4306 
L 4122 3641 
Q 3803 3938 3442 4084 
Q 3081 4231 2675 4231 
Q 1875 4231 1450 3742 
Q 1025 3253 1025 2328 
Q 1025 1406 1450 917 
Q 1875 428 2675 428 
Q 3081 428 3442 575 
Q 3803 722 4122 1019 
L 4122 359 
Q 3791 134 3420 21 
Q 3050 -91 2638 -91 
Q 1578 -91 968 557 
Q 359 1206 359 2328 
Q 359 3453 968 4101 
Q 1578 4750 2638 4750 
Q 3056 4750 3426 4639 
Q 3797 4528 4122 4306 
z
" transform="scale(0.015625)"/>
    </defs>
    <use xlink:href="#DejaVuSans-43"/>
    <use xlink:href="#DejaVuSans-6c" x="69.824219"/>
    <use xlink:href="#DejaVuSans-75" x="97.607422"/>
    <use xlink:href="#DejaVuSans-73" x="160.986328"/>
    <use xlink:href="#DejaVuSans-74" x="213.085938"/>
    <use xlink:href="#DejaVuSans-65" x="252.294922"/>
    <use xlink:href="#DejaVuSans-72" x="313.818359"/>
    <use xlink:href="#DejaVuSans-20" x="354.931641"/>
    <use xlink:href="#DejaVuSans-71" x="386.71875"/>
    <use xlink:href="#DejaVuSans-75" x="450.195312"/>
    <use xlink:href="#DejaVuSans-61" x="513.574219"/>
    <use xlink:href="#DejaVuSans-6c" x="574.853516"/>
    <use xlink:href="#DejaVuSans-69" x="602.636719"/>
    <use xlink:href="#DejaVuSans-74" x="630.419922"/>
    <use xlink:href="#DejaVuSans-79" x="669.628906"/>
    <use xlink:href="#DejaVuSans-20" x="728.808594"/>
    <use xlink:href="#DejaVuSans-73" x="760.595703"/>
    <use xlink:href="#DejaVuSans-63" x="812.695312"/>
    <use xlink:href="#DejaVuSans-6f" x="867.675781"/>
    <use xlink:href="#DejaVuSans-72" x="928.857422"/>
    <use xlink:href="#DejaVuSans-65" x="967.720703"/>
    <use xlink:href="#DejaVuSans-20" x="1029.244141"/>
    <use xlink:href="#DejaVuSans-61" x="1061.03125"/>
    <use xlink:href="#DejaVuSans-6e" x="1122.310547"/>
    <use xlink:href="#DejaVuSans-61" x="1185.689453"/>
    <use xlink:href="#DejaVuSans-6c" x="1246.96875"/>
    <use xlink:href="#DejaVuSans-79" x="1274.751953"/>
    <use xlink:href="#DejaVuSans-73" x="1333.931641"/>
    <use xlink:href="#DejaVuSans-69" x="1386.03125"/>
    <use xlink:href="#DejaVuSans-73" x="1413.814453"/>
   </g>
  </g>
 </g>
 <defs>
  <clipPath id="pdbcd1d8b0c">
   <rect x="44.66" y="32.4" width="376.54" height="64.078182"/>
  </clipPath>
  <clipPath id="pce50c2b2ab">
   <rect x="44.66" y="109.961818" width="376.54" height="64.078182"/>
  </clipPath>
 </defs>
</svg>
