<?xml version="1.0" encoding="utf-8" standalone="no"?>
<!DOCTYPE svg PUBLIC "-//W3C//DTD SVG 1.1//EN"
  "http://www.w3.org/Graphics/SVG/1.1/DTD/svg11.dtd">
<svg xmlns:xlink="http://www.w3.org/1999/xlink" width="432pt" height="216pt" viewBox="0 0 432 216" xmlns="http://www.w3.org/2000/svg" version="1.1">
 <metadata>
  <rdf:RDF xmlns:dc="http://purl.org/dc/elements/1.1/" xmlns:cc="http://creativecommons.org/ns#" xmlns:rdf="http://www.w3.org/1999/02/22-rdf-syntax-ns#">
   <cc:Work>
    <dc:type rdf:resource="http://purl.org/dc/dcmitype/StillImage"/>
    <dc:date>2023-08-23T17:57:19.699474</dc:date>
    <dc:format>image/svg+xml</dc:format>
    <dc:creator>
     <cc:Agent>
      <dc:title>Matplotlib v3.7.1, https://matplotlib.org/</dc:title>
     </cc:Agent>
    </dc:creator>
   </cc:Work>
  </rdf:RDF>
 </metadata>
 <defs>
  <style type="text/css">*{stroke-linejoin: round; stroke-linecap: butt}</style>
 </defs>
 <g id="figure_1">
  <g id="patch_1">
   <path d="M 0 216 
L 432 216 
L 432 0 
L 0 0 
z
" style="fill: #ffffff"/>
  </g>
  <g id="axes_1">
   <g id="patch_2">
    <path d="M 41.8925 98.306307 
L 421.2 98.306307 
L 421.2 32.45625 
L 41.8925 32.45625 
z
" style="fill: #eaeaf2"/>
   </g>
   <g id="matplotlib.axis_1">
    <g id="xtick_1">
     <g id="line2d_1">
      <path d="M 54.442253 98.306307 
L 54.442253 32.45625 
" clip-path="url(#p14ca9254e1)" style="fill: none; stroke: #ffffff; stroke-width: 0.8; stroke-linecap: round"/>
     </g>
    </g>
    <g id="xtick_2">
     <g id="line2d_2">
      <path d="M 113.085961 98.306307 
L 113.085961 32.45625 
" clip-path="url(#p14ca9254e1)" style="fill: none; stroke: #ffffff; stroke-width: 0.8; stroke-linecap: round"/>
     </g>
    </g>
    <g id="xtick_3">
     <g id="line2d_3">
      <path d="M 171.729668 98.306307 
L 171.729668 32.45625 
" clip-path="url(#p14ca9254e1)" style="fill: none; stroke: #ffffff; stroke-width: 0.8; stroke-linecap: round"/>
     </g>
    </g>
    <g id="xtick_4">
     <g id="line2d_4">
      <path d="M 230.373376 98.306307 
L 230.373376 32.45625 
" clip-path="url(#p14ca9254e1)" style="fill: none; stroke: #ffffff; stroke-width: 0.8; stroke-linecap: round"/>
     </g>
    </g>
    <g id="xtick_5">
     <g id="line2d_5">
      <path d="M 289.017083 98.306307 
L 289.017083 32.45625 
" clip-path="url(#p14ca9254e1)" style="fill: none; stroke: #ffffff; stroke-width: 0.8; stroke-linecap: round"/>
     </g>
    </g>
    <g id="xtick_6">
     <g id="line2d_6">
      <path d="M 347.660791 98.306307 
L 347.660791 32.45625 
" clip-path="url(#p14ca9254e1)" style="fill: none; stroke: #ffffff; stroke-width: 0.8; stroke-linecap: round"/>
     </g>
    </g>
    <g id="xtick_7">
     <g id="line2d_7">
      <path d="M 406.304498 98.306307 
L 406.304498 32.45625 
" clip-path="url(#p14ca9254e1)" style="fill: none; stroke: #ffffff; stroke-width: 0.8; stroke-linecap: round"/>
     </g>
    </g>
   </g>
   <g id="matplotlib.axis_2">
    <g id="ytick_1">
     <g id="line2d_8">
      <path d="M 41.8925 95.313122 
L 421.2 95.313122 
" clip-path="url(#p14ca9254e1)" style="fill: none; stroke: #ffffff; stroke-width: 0.8; stroke-linecap: round"/>
     </g>
     <g id="text_1">
      <!-- 0 -->
      <g style="fill: #262626" transform="translate(29.331563 98.892029) scale(0.1 -0.1)">
       <defs>
        <path id="ArialMT-30" d="M 266 2259 
Q 266 3072 433 3567 
Q 600 4063 929 4331 
Q 1259 4600 1759 4600 
Q 2128 4600 2406 4451 
Q 2684 4303 2865 4023 
Q 3047 3744 3150 3342 
Q 3253 2941 3253 2259 
Q 3253 1453 3087 958 
Q 2922 463 2592 192 
Q 2263 -78 1759 -78 
Q 1097 -78 719 397 
Q 266 969 266 2259 
z
M 844 2259 
Q 844 1131 1108 757 
Q 1372 384 1759 384 
Q 2147 384 2411 759 
Q 2675 1134 2675 2259 
Q 2675 3391 2411 3762 
Q 2147 4134 1753 4134 
Q 1366 4134 1134 3806 
Q 844 3388 844 2259 
z
" transform="scale(0.015625)"/>
       </defs>
       <use xlink:href="#ArialMT-30"/>
      </g>
     </g>
    </g>
    <g id="ytick_2">
     <g id="line2d_9">
      <path d="M 41.8925 56.265061 
L 421.2 56.265061 
" clip-path="url(#p14ca9254e1)" style="fill: none; stroke: #ffffff; stroke-width: 0.8; stroke-linecap: round"/>
     </g>
     <g id="text_2">
      <!-- 5 -->
      <g style="fill: #262626" transform="translate(29.331563 59.843967) scale(0.1 -0.1)">
       <defs>
        <path id="ArialMT-35" d="M 266 1200 
L 856 1250 
Q 922 819 1161 601 
Q 1400 384 1738 384 
Q 2144 384 2425 690 
Q 2706 997 2706 1503 
Q 2706 1984 2436 2262 
Q 2166 2541 1728 2541 
Q 1456 2541 1237 2417 
Q 1019 2294 894 2097 
L 366 2166 
L 809 4519 
L 3088 4519 
L 3088 3981 
L 1259 3981 
L 1013 2750 
Q 1425 3038 1878 3038 
Q 2478 3038 2890 2622 
Q 3303 2206 3303 1553 
Q 3303 931 2941 478 
Q 2500 -78 1738 -78 
Q 1113 -78 717 272 
Q 322 622 266 1200 
z
" transform="scale(0.015625)"/>
       </defs>
       <use xlink:href="#ArialMT-35"/>
      </g>
     </g>
    </g>
    <g id="text_3">
     <!-- Quality score -->
     <g style="fill: #262626" transform="translate(23.226875 94.55706) rotate(-90) scale(0.1 -0.1)">
      <defs>
       <path id="ArialMT-51" d="M 3966 491 
Q 4388 200 4744 66 
L 4566 -356 
Q 4072 -178 3581 206 
Q 3072 -78 2456 -78 
Q 1834 -78 1328 222 
Q 822 522 548 1065 
Q 275 1609 275 2291 
Q 275 2969 550 3525 
Q 825 4081 1333 4372 
Q 1841 4663 2469 4663 
Q 3103 4663 3612 4361 
Q 4122 4059 4389 3517 
Q 4656 2975 4656 2294 
Q 4656 1728 4484 1276 
Q 4313 825 3966 491 
z
M 2631 1266 
Q 3156 1119 3497 828 
Q 4031 1316 4031 2294 
Q 4031 2850 3842 3265 
Q 3653 3681 3289 3911 
Q 2925 4141 2472 4141 
Q 1794 4141 1347 3677 
Q 900 3213 900 2291 
Q 900 1397 1342 919 
Q 1784 441 2472 441 
Q 2797 441 3084 563 
Q 2800 747 2484 825 
L 2631 1266 
z
" transform="scale(0.015625)"/>
       <path id="ArialMT-75" d="M 2597 0 
L 2597 488 
Q 2209 -75 1544 -75 
Q 1250 -75 995 37 
Q 741 150 617 320 
Q 494 491 444 738 
Q 409 903 409 1263 
L 409 3319 
L 972 3319 
L 972 1478 
Q 972 1038 1006 884 
Q 1059 663 1231 536 
Q 1403 409 1656 409 
Q 1909 409 2131 539 
Q 2353 669 2445 892 
Q 2538 1116 2538 1541 
L 2538 3319 
L 3100 3319 
L 3100 0 
L 2597 0 
z
" transform="scale(0.015625)"/>
       <path id="ArialMT-61" d="M 2588 409 
Q 2275 144 1986 34 
Q 1697 -75 1366 -75 
Q 819 -75 525 192 
Q 231 459 231 875 
Q 231 1119 342 1320 
Q 453 1522 633 1644 
Q 813 1766 1038 1828 
Q 1203 1872 1538 1913 
Q 2219 1994 2541 2106 
Q 2544 2222 2544 2253 
Q 2544 2597 2384 2738 
Q 2169 2928 1744 2928 
Q 1347 2928 1158 2789 
Q 969 2650 878 2297 
L 328 2372 
Q 403 2725 575 2942 
Q 747 3159 1072 3276 
Q 1397 3394 1825 3394 
Q 2250 3394 2515 3294 
Q 2781 3194 2906 3042 
Q 3031 2891 3081 2659 
Q 3109 2516 3109 2141 
L 3109 1391 
Q 3109 606 3145 398 
Q 3181 191 3288 0 
L 2700 0 
Q 2613 175 2588 409 
z
M 2541 1666 
Q 2234 1541 1622 1453 
Q 1275 1403 1131 1340 
Q 988 1278 909 1158 
Q 831 1038 831 891 
Q 831 666 1001 516 
Q 1172 366 1500 366 
Q 1825 366 2078 508 
Q 2331 650 2450 897 
Q 2541 1088 2541 1459 
L 2541 1666 
z
" transform="scale(0.015625)"/>
       <path id="ArialMT-6c" d="M 409 0 
L 409 4581 
L 972 4581 
L 972 0 
L 409 0 
z
" transform="scale(0.015625)"/>
       <path id="ArialMT-69" d="M 425 3934 
L 425 4581 
L 988 4581 
L 988 3934 
L 425 3934 
z
M 425 0 
L 425 3319 
L 988 3319 
L 988 0 
L 425 0 
z
" transform="scale(0.015625)"/>
       <path id="ArialMT-74" d="M 1650 503 
L 1731 6 
Q 1494 -44 1306 -44 
Q 1000 -44 831 53 
Q 663 150 594 308 
Q 525 466 525 972 
L 525 2881 
L 113 2881 
L 113 3319 
L 525 3319 
L 525 4141 
L 1084 4478 
L 1084 3319 
L 1650 3319 
L 1650 2881 
L 1084 2881 
L 1084 941 
Q 1084 700 1114 631 
Q 1144 563 1211 522 
Q 1278 481 1403 481 
Q 1497 481 1650 503 
z
" transform="scale(0.015625)"/>
       <path id="ArialMT-79" d="M 397 -1278 
L 334 -750 
Q 519 -800 656 -800 
Q 844 -800 956 -737 
Q 1069 -675 1141 -563 
Q 1194 -478 1313 -144 
Q 1328 -97 1363 -6 
L 103 3319 
L 709 3319 
L 1400 1397 
Q 1534 1031 1641 628 
Q 1738 1016 1872 1384 
L 2581 3319 
L 3144 3319 
L 1881 -56 
Q 1678 -603 1566 -809 
Q 1416 -1088 1222 -1217 
Q 1028 -1347 759 -1347 
Q 597 -1347 397 -1278 
z
" transform="scale(0.015625)"/>
       <path id="ArialMT-20" transform="scale(0.015625)"/>
       <path id="ArialMT-73" d="M 197 991 
L 753 1078 
Q 800 744 1014 566 
Q 1228 388 1613 388 
Q 2000 388 2187 545 
Q 2375 703 2375 916 
Q 2375 1106 2209 1216 
Q 2094 1291 1634 1406 
Q 1016 1563 777 1677 
Q 538 1791 414 1992 
Q 291 2194 291 2438 
Q 291 2659 392 2848 
Q 494 3038 669 3163 
Q 800 3259 1026 3326 
Q 1253 3394 1513 3394 
Q 1903 3394 2198 3281 
Q 2494 3169 2634 2976 
Q 2775 2784 2828 2463 
L 2278 2388 
Q 2241 2644 2061 2787 
Q 1881 2931 1553 2931 
Q 1166 2931 1000 2803 
Q 834 2675 834 2503 
Q 834 2394 903 2306 
Q 972 2216 1119 2156 
Q 1203 2125 1616 2013 
Q 2213 1853 2448 1751 
Q 2684 1650 2818 1456 
Q 2953 1263 2953 975 
Q 2953 694 2789 445 
Q 2625 197 2315 61 
Q 2006 -75 1616 -75 
Q 969 -75 630 194 
Q 291 463 197 991 
z
" transform="scale(0.015625)"/>
       <path id="ArialMT-63" d="M 2588 1216 
L 3141 1144 
Q 3050 572 2676 248 
Q 2303 -75 1759 -75 
Q 1078 -75 664 370 
Q 250 816 250 1647 
Q 250 2184 428 2587 
Q 606 2991 970 3192 
Q 1334 3394 1763 3394 
Q 2303 3394 2647 3120 
Q 2991 2847 3088 2344 
L 2541 2259 
Q 2463 2594 2264 2762 
Q 2066 2931 1784 2931 
Q 1359 2931 1093 2626 
Q 828 2322 828 1663 
Q 828 994 1084 691 
Q 1341 388 1753 388 
Q 2084 388 2306 591 
Q 2528 794 2588 1216 
z
" transform="scale(0.015625)"/>
       <path id="ArialMT-6f" d="M 213 1659 
Q 213 2581 725 3025 
Q 1153 3394 1769 3394 
Q 2453 3394 2887 2945 
Q 3322 2497 3322 1706 
Q 3322 1066 3130 698 
Q 2938 331 2570 128 
Q 2203 -75 1769 -75 
Q 1072 -75 642 372 
Q 213 819 213 1659 
z
M 791 1659 
Q 791 1022 1069 705 
Q 1347 388 1769 388 
Q 2188 388 2466 706 
Q 2744 1025 2744 1678 
Q 2744 2294 2464 2611 
Q 2184 2928 1769 2928 
Q 1347 2928 1069 2612 
Q 791 2297 791 1659 
z
" transform="scale(0.015625)"/>
       <path id="ArialMT-72" d="M 416 0 
L 416 3319 
L 922 3319 
L 922 2816 
Q 1116 3169 1280 3281 
Q 1444 3394 1641 3394 
Q 1925 3394 2219 3213 
L 2025 2691 
Q 1819 2813 1613 2813 
Q 1428 2813 1281 2702 
Q 1134 2591 1072 2394 
Q 978 2094 978 1738 
L 978 0 
L 416 0 
z
" transform="scale(0.015625)"/>
       <path id="ArialMT-65" d="M 2694 1069 
L 3275 997 
Q 3138 488 2766 206 
Q 2394 -75 1816 -75 
Q 1088 -75 661 373 
Q 234 822 234 1631 
Q 234 2469 665 2931 
Q 1097 3394 1784 3394 
Q 2450 3394 2872 2941 
Q 3294 2488 3294 1666 
Q 3294 1616 3291 1516 
L 816 1516 
Q 847 969 1125 678 
Q 1403 388 1819 388 
Q 2128 388 2347 550 
Q 2566 713 2694 1069 
z
M 847 1978 
L 2700 1978 
Q 2663 2397 2488 2606 
Q 2219 2931 1791 2931 
Q 1403 2931 1139 2672 
Q 875 2413 847 1978 
z
" transform="scale(0.015625)"/>
      </defs>
      <use xlink:href="#ArialMT-51"/>
      <use xlink:href="#ArialMT-75" x="77.783203"/>
      <use xlink:href="#ArialMT-61" x="133.398438"/>
      <use xlink:href="#ArialMT-6c" x="189.013672"/>
      <use xlink:href="#ArialMT-69" x="211.230469"/>
      <use xlink:href="#ArialMT-74" x="233.447266"/>
      <use xlink:href="#ArialMT-79" x="261.230469"/>
      <use xlink:href="#ArialMT-20" x="311.230469"/>
      <use xlink:href="#ArialMT-73" x="339.013672"/>
      <use xlink:href="#ArialMT-63" x="389.013672"/>
      <use xlink:href="#ArialMT-6f" x="439.013672"/>
      <use xlink:href="#ArialMT-72" x="494.628906"/>
      <use xlink:href="#ArialMT-65" x="527.929688"/>
     </g>
    </g>
   </g>
   <g id="PolyCollection_1"/>
   <g id="line2d_10">
    <path d="M 59.13375 72.270288 
L 61.479498 65.719458 
L 63.825247 69.346544 
L 66.170995 63.896414 
L 68.516743 35.449434 
L 70.862491 62.832657 
L 73.20824 72.716921 
L 75.553988 71.336524 
L 77.899736 73.203888 
L 80.245485 73.855265 
L 82.591233 74.228665 
L 84.936981 73.036556 
L 87.28273 73.683364 
L 89.628478 71.162795 
L 94.319974 71.860112 
L 96.665723 72.534187 
L 99.011471 70.602177 
L 101.357219 68.920718 
L 103.702968 67.890287 
L 106.048716 68.760467 
L 108.394464 70.15678 
L 110.740213 70.103192 
L 113.085961 69.30093 
L 115.431709 68.360322 
L 117.777457 68.055079 
L 120.123206 70.66412 
L 122.468954 69.452478 
L 124.814702 66.548292 
L 127.160451 65.334249 
L 129.506199 62.519489 
L 131.851947 64.311938 
L 134.197696 65.591945 
L 136.543444 66.59826 
L 138.889192 67.016119 
L 141.23494 68.557958 
L 143.580689 69.869798 
L 145.926437 70.150866 
L 148.272185 71.145354 
L 152.963682 70.69766 
L 155.30943 70.933277 
L 157.655179 70.433951 
L 160.000927 69.784148 
L 164.692423 69.397019 
L 167.038172 68.349243 
L 169.38392 67.486629 
L 171.729668 67.554744 
L 174.075417 67.158486 
L 178.766913 67.721789 
L 181.112662 67.737636 
L 183.45841 67.90797 
L 185.804158 69.562475 
L 190.495655 69.851447 
L 192.841403 70.532434 
L 195.187151 69.969786 
L 197.5329 70.119842 
L 199.878648 69.677033 
L 202.224396 69.638631 
L 204.570145 69.287176 
L 209.261641 68.146101 
L 211.607389 68.793832 
L 213.953138 69.55747 
L 216.298886 69.993679 
L 218.644634 70.124907 
L 220.990383 70.665373 
L 223.336131 70.625723 
L 225.681879 70.314015 
L 228.027628 70.78294 
L 230.373376 71.042218 
L 232.719124 70.783398 
L 237.410621 70.810223 
L 239.756369 70.172444 
L 244.447866 70.881364 
L 246.793614 70.649448 
L 249.139362 70.695296 
L 251.485111 70.623631 
L 253.830859 69.572764 
L 258.522355 68.359931 
L 260.868104 68.043021 
L 263.213852 67.131629 
L 265.5596 66.586007 
L 267.905349 66.296429 
L 272.596845 65.977626 
L 274.942594 65.668142 
L 277.288342 66.018744 
L 279.63409 65.390714 
L 281.979838 65.597689 
L 284.325587 64.806626 
L 286.671335 65.356091 
L 289.017083 65.181541 
L 291.362832 64.496283 
L 293.70858 65.010983 
L 296.054328 64.273669 
L 298.400077 62.68747 
L 300.745825 62.148027 
L 303.091573 61.326898 
L 307.78307 58.375477 
L 310.128818 59.13812 
L 312.474566 58.699742 
L 314.820315 58.655241 
L 319.511811 57.071411 
L 321.85756 56.598813 
L 324.203308 55.835891 
L 326.549056 54.489922 
L 328.894804 54.753606 
L 331.240553 52.934146 
L 333.586301 51.493231 
L 335.932049 52.577836 
L 338.277798 51.349026 
L 340.623546 49.858673 
L 342.969294 50.839792 
L 345.315043 52.514011 
L 350.006539 55.644165 
L 352.352287 56.769924 
L 354.698036 57.178156 
L 359.389532 59.449119 
L 361.735281 61.170348 
L 364.081029 62.199417 
L 366.426777 62.288673 
L 368.772526 63.463881 
L 371.118274 63.973175 
L 373.464022 64.794251 
L 378.155519 65.955464 
L 380.501267 66.32013 
L 382.847015 66.887532 
L 385.192764 67.109499 
L 387.538512 67.503959 
L 392.230009 67.465113 
L 394.575757 67.692631 
L 396.921505 68.101287 
L 399.267253 68.042948 
L 401.613002 68.278881 
L 403.95875 68.369143 
L 403.95875 68.369143 
" clip-path="url(#p14ca9254e1)" style="fill: none; stroke: #1f77b4; stroke-width: 1.5; stroke-linecap: round"/>
   </g>
   <g id="LineCollection_1">
    <path d="M 68.516743 95.313122 
L 68.516743 35.449434 
" clip-path="url(#p14ca9254e1)" style="fill: none; stroke: #000000; stroke-width: 1.5"/>
   </g>
   <g id="patch_3">
    <path d="M 41.8925 98.306307 
L 41.8925 32.45625 
" style="fill: none; stroke: #ffffff; stroke-width: 0.8; stroke-linejoin: miter; stroke-linecap: square"/>
   </g>
   <g id="patch_4">
    <path d="M 421.2 98.306307 
L 421.2 32.45625 
" style="fill: none; stroke: #ffffff; stroke-width: 0.8; stroke-linejoin: miter; stroke-linecap: square"/>
   </g>
   <g id="patch_5">
    <path d="M 41.8925 98.306307 
L 421.2 98.306307 
" style="fill: none; stroke: #ffffff; stroke-width: 0.8; stroke-linejoin: miter; stroke-linecap: square"/>
   </g>
   <g id="patch_6">
    <path d="M 41.8925 32.45625 
L 421.2 32.45625 
" style="fill: none; stroke: #ffffff; stroke-width: 0.8; stroke-linejoin: miter; stroke-linecap: square"/>
   </g>
  </g>
  <g id="axes_2">
   <g id="patch_7">
    <path d="M 41.8925 176.92 
L 421.2 176.92 
L 421.2 111.069943 
L 41.8925 111.069943 
z
" style="fill: #eaeaf2"/>
   </g>
   <g id="matplotlib.axis_3">
    <g id="xtick_8">
     <g id="line2d_11">
      <path d="M 54.442253 176.92 
L 54.442253 111.069943 
" clip-path="url(#p317f1401ae)" style="fill: none; stroke: #ffffff; stroke-width: 0.8; stroke-linecap: round"/>
     </g>
     <g id="text_4">
      <!-- 0 -->
      <g style="fill: #262626" transform="translate(51.661785 191.077812) scale(0.1 -0.1)">
       <use xlink:href="#ArialMT-30"/>
      </g>
     </g>
    </g>
    <g id="xtick_9">
     <g id="line2d_12">
      <path d="M 113.085961 176.92 
L 113.085961 111.069943 
" clip-path="url(#p317f1401ae)" style="fill: none; stroke: #ffffff; stroke-width: 0.8; stroke-linecap: round"/>
     </g>
     <g id="text_5">
      <!-- 50 -->
      <g style="fill: #262626" transform="translate(107.525023 191.077812) scale(0.1 -0.1)">
       <use xlink:href="#ArialMT-35"/>
       <use xlink:href="#ArialMT-30" x="55.615234"/>
      </g>
     </g>
    </g>
    <g id="xtick_10">
     <g id="line2d_13">
      <path d="M 171.729668 176.92 
L 171.729668 111.069943 
" clip-path="url(#p317f1401ae)" style="fill: none; stroke: #ffffff; stroke-width: 0.8; stroke-linecap: round"/>
     </g>
     <g id="text_6">
      <!-- 100 -->
      <g style="fill: #262626" transform="translate(163.388262 191.077812) scale(0.1 -0.1)">
       <defs>
        <path id="ArialMT-31" d="M 2384 0 
L 1822 0 
L 1822 3584 
Q 1619 3391 1289 3197 
Q 959 3003 697 2906 
L 697 3450 
Q 1169 3672 1522 3987 
Q 1875 4303 2022 4600 
L 2384 4600 
L 2384 0 
z
" transform="scale(0.015625)"/>
       </defs>
       <use xlink:href="#ArialMT-31"/>
       <use xlink:href="#ArialMT-30" x="55.615234"/>
       <use xlink:href="#ArialMT-30" x="111.230469"/>
      </g>
     </g>
    </g>
    <g id="xtick_11">
     <g id="line2d_14">
      <path d="M 230.373376 176.92 
L 230.373376 111.069943 
" clip-path="url(#p317f1401ae)" style="fill: none; stroke: #ffffff; stroke-width: 0.8; stroke-linecap: round"/>
     </g>
     <g id="text_7">
      <!-- 150 -->
      <g style="fill: #262626" transform="translate(222.03197 191.077812) scale(0.1 -0.1)">
       <use xlink:href="#ArialMT-31"/>
       <use xlink:href="#ArialMT-35" x="55.615234"/>
       <use xlink:href="#ArialMT-30" x="111.230469"/>
      </g>
     </g>
    </g>
    <g id="xtick_12">
     <g id="line2d_15">
      <path d="M 289.017083 176.92 
L 289.017083 111.069943 
" clip-path="url(#p317f1401ae)" style="fill: none; stroke: #ffffff; stroke-width: 0.8; stroke-linecap: round"/>
     </g>
     <g id="text_8">
      <!-- 200 -->
      <g style="fill: #262626" transform="translate(280.675677 191.077812) scale(0.1 -0.1)">
       <defs>
        <path id="ArialMT-32" d="M 3222 541 
L 3222 0 
L 194 0 
Q 188 203 259 391 
Q 375 700 629 1000 
Q 884 1300 1366 1694 
Q 2113 2306 2375 2664 
Q 2638 3022 2638 3341 
Q 2638 3675 2398 3904 
Q 2159 4134 1775 4134 
Q 1369 4134 1125 3890 
Q 881 3647 878 3216 
L 300 3275 
Q 359 3922 746 4261 
Q 1134 4600 1788 4600 
Q 2447 4600 2831 4234 
Q 3216 3869 3216 3328 
Q 3216 3053 3103 2787 
Q 2991 2522 2730 2228 
Q 2469 1934 1863 1422 
Q 1356 997 1212 845 
Q 1069 694 975 541 
L 3222 541 
z
" transform="scale(0.015625)"/>
       </defs>
       <use xlink:href="#ArialMT-32"/>
       <use xlink:href="#ArialMT-30" x="55.615234"/>
       <use xlink:href="#ArialMT-30" x="111.230469"/>
      </g>
     </g>
    </g>
    <g id="xtick_13">
     <g id="line2d_16">
      <path d="M 347.660791 176.92 
L 347.660791 111.069943 
" clip-path="url(#p317f1401ae)" style="fill: none; stroke: #ffffff; stroke-width: 0.8; stroke-linecap: round"/>
     </g>
     <g id="text_9">
      <!-- 250 -->
      <g style="fill: #262626" transform="translate(339.319385 191.077812) scale(0.1 -0.1)">
       <use xlink:href="#ArialMT-32"/>
       <use xlink:href="#ArialMT-35" x="55.615234"/>
       <use xlink:href="#ArialMT-30" x="111.230469"/>
      </g>
     </g>
    </g>
    <g id="xtick_14">
     <g id="line2d_17">
      <path d="M 406.304498 176.92 
L 406.304498 111.069943 
" clip-path="url(#p317f1401ae)" style="fill: none; stroke: #ffffff; stroke-width: 0.8; stroke-linecap: round"/>
     </g>
     <g id="text_10">
      <!-- 300 -->
      <g style="fill: #262626" transform="translate(397.963092 191.077812) scale(0.1 -0.1)">
       <defs>
        <path id="ArialMT-33" d="M 269 1209 
L 831 1284 
Q 928 806 1161 595 
Q 1394 384 1728 384 
Q 2125 384 2398 659 
Q 2672 934 2672 1341 
Q 2672 1728 2419 1979 
Q 2166 2231 1775 2231 
Q 1616 2231 1378 2169 
L 1441 2663 
Q 1497 2656 1531 2656 
Q 1891 2656 2178 2843 
Q 2466 3031 2466 3422 
Q 2466 3731 2256 3934 
Q 2047 4138 1716 4138 
Q 1388 4138 1169 3931 
Q 950 3725 888 3313 
L 325 3413 
Q 428 3978 793 4289 
Q 1159 4600 1703 4600 
Q 2078 4600 2393 4439 
Q 2709 4278 2876 4000 
Q 3044 3722 3044 3409 
Q 3044 3113 2884 2869 
Q 2725 2625 2413 2481 
Q 2819 2388 3044 2092 
Q 3269 1797 3269 1353 
Q 3269 753 2831 336 
Q 2394 -81 1725 -81 
Q 1122 -81 723 278 
Q 325 638 269 1209 
z
" transform="scale(0.015625)"/>
       </defs>
       <use xlink:href="#ArialMT-33"/>
       <use xlink:href="#ArialMT-30" x="55.615234"/>
       <use xlink:href="#ArialMT-30" x="111.230469"/>
      </g>
     </g>
    </g>
    <g id="text_11">
     <!-- Number of clusters -->
     <g style="fill: #262626" transform="translate(189.590781 204.223125) scale(0.1 -0.1)">
      <defs>
       <path id="ArialMT-4e" d="M 488 0 
L 488 4581 
L 1109 4581 
L 3516 984 
L 3516 4581 
L 4097 4581 
L 4097 0 
L 3475 0 
L 1069 3600 
L 1069 0 
L 488 0 
z
" transform="scale(0.015625)"/>
       <path id="ArialMT-6d" d="M 422 0 
L 422 3319 
L 925 3319 
L 925 2853 
Q 1081 3097 1340 3245 
Q 1600 3394 1931 3394 
Q 2300 3394 2536 3241 
Q 2772 3088 2869 2813 
Q 3263 3394 3894 3394 
Q 4388 3394 4653 3120 
Q 4919 2847 4919 2278 
L 4919 0 
L 4359 0 
L 4359 2091 
Q 4359 2428 4304 2576 
Q 4250 2725 4106 2815 
Q 3963 2906 3769 2906 
Q 3419 2906 3187 2673 
Q 2956 2441 2956 1928 
L 2956 0 
L 2394 0 
L 2394 2156 
Q 2394 2531 2256 2718 
Q 2119 2906 1806 2906 
Q 1569 2906 1367 2781 
Q 1166 2656 1075 2415 
Q 984 2175 984 1722 
L 984 0 
L 422 0 
z
" transform="scale(0.015625)"/>
       <path id="ArialMT-62" d="M 941 0 
L 419 0 
L 419 4581 
L 981 4581 
L 981 2947 
Q 1338 3394 1891 3394 
Q 2197 3394 2470 3270 
Q 2744 3147 2920 2923 
Q 3097 2700 3197 2384 
Q 3297 2069 3297 1709 
Q 3297 856 2875 390 
Q 2453 -75 1863 -75 
Q 1275 -75 941 416 
L 941 0 
z
M 934 1684 
Q 934 1088 1097 822 
Q 1363 388 1816 388 
Q 2184 388 2453 708 
Q 2722 1028 2722 1663 
Q 2722 2313 2464 2622 
Q 2206 2931 1841 2931 
Q 1472 2931 1203 2611 
Q 934 2291 934 1684 
z
" transform="scale(0.015625)"/>
       <path id="ArialMT-66" d="M 556 0 
L 556 2881 
L 59 2881 
L 59 3319 
L 556 3319 
L 556 3672 
Q 556 4006 616 4169 
Q 697 4388 901 4523 
Q 1106 4659 1475 4659 
Q 1713 4659 2000 4603 
L 1916 4113 
Q 1741 4144 1584 4144 
Q 1328 4144 1222 4034 
Q 1116 3925 1116 3625 
L 1116 3319 
L 1763 3319 
L 1763 2881 
L 1116 2881 
L 1116 0 
L 556 0 
z
" transform="scale(0.015625)"/>
      </defs>
      <use xlink:href="#ArialMT-4e"/>
      <use xlink:href="#ArialMT-75" x="72.216797"/>
      <use xlink:href="#ArialMT-6d" x="127.832031"/>
      <use xlink:href="#ArialMT-62" x="211.132812"/>
      <use xlink:href="#ArialMT-65" x="266.748047"/>
      <use xlink:href="#ArialMT-72" x="322.363281"/>
      <use xlink:href="#ArialMT-20" x="355.664062"/>
      <use xlink:href="#ArialMT-6f" x="383.447266"/>
      <use xlink:href="#ArialMT-66" x="439.0625"/>
      <use xlink:href="#ArialMT-20" x="466.845703"/>
      <use xlink:href="#ArialMT-63" x="494.628906"/>
      <use xlink:href="#ArialMT-6c" x="544.628906"/>
      <use xlink:href="#ArialMT-75" x="566.845703"/>
      <use xlink:href="#ArialMT-73" x="622.460938"/>
      <use xlink:href="#ArialMT-74" x="672.460938"/>
      <use xlink:href="#ArialMT-65" x="700.244141"/>
      <use xlink:href="#ArialMT-72" x="755.859375"/>
      <use xlink:href="#ArialMT-73" x="789.160156"/>
     </g>
    </g>
   </g>
   <g id="matplotlib.axis_4">
    <g id="ytick_3">
     <g id="line2d_18">
      <path d="M 41.8925 176.03841 
L 421.2 176.03841 
" clip-path="url(#p317f1401ae)" style="fill: none; stroke: #ffffff; stroke-width: 0.8; stroke-linecap: round"/>
     </g>
     <g id="text_12">
      <!-- 0 -->
      <g style="fill: #262626" transform="translate(29.331563 179.617316) scale(0.1 -0.1)">
       <use xlink:href="#ArialMT-30"/>
      </g>
     </g>
    </g>
    <g id="ytick_4">
     <g id="line2d_19">
      <path d="M 41.8925 133.806531 
L 421.2 133.806531 
" clip-path="url(#p317f1401ae)" style="fill: none; stroke: #ffffff; stroke-width: 0.8; stroke-linecap: round"/>
     </g>
     <g id="text_13">
      <!-- 20 -->
      <g style="fill: #262626" transform="translate(23.770625 137.385437) scale(0.1 -0.1)">
       <use xlink:href="#ArialMT-32"/>
       <use xlink:href="#ArialMT-30" x="55.615234"/>
      </g>
     </g>
    </g>
    <g id="text_14">
     <!-- Unique clusters -->
     <g style="fill: #262626" transform="translate(17.783125 178.453565) rotate(-90) scale(0.1 -0.1)">
      <defs>
       <path id="ArialMT-55" d="M 3500 4581 
L 4106 4581 
L 4106 1934 
Q 4106 1244 3950 837 
Q 3794 431 3386 176 
Q 2978 -78 2316 -78 
Q 1672 -78 1262 144 
Q 853 366 678 786 
Q 503 1206 503 1934 
L 503 4581 
L 1109 4581 
L 1109 1938 
Q 1109 1341 1220 1058 
Q 1331 775 1601 622 
Q 1872 469 2263 469 
Q 2931 469 3215 772 
Q 3500 1075 3500 1938 
L 3500 4581 
z
" transform="scale(0.015625)"/>
       <path id="ArialMT-6e" d="M 422 0 
L 422 3319 
L 928 3319 
L 928 2847 
Q 1294 3394 1984 3394 
Q 2284 3394 2536 3286 
Q 2788 3178 2913 3003 
Q 3038 2828 3088 2588 
Q 3119 2431 3119 2041 
L 3119 0 
L 2556 0 
L 2556 2019 
Q 2556 2363 2490 2533 
Q 2425 2703 2258 2804 
Q 2091 2906 1866 2906 
Q 1506 2906 1245 2678 
Q 984 2450 984 1813 
L 984 0 
L 422 0 
z
" transform="scale(0.015625)"/>
       <path id="ArialMT-71" d="M 2538 -1272 
L 2538 353 
Q 2406 169 2170 47 
Q 1934 -75 1669 -75 
Q 1078 -75 651 397 
Q 225 869 225 1691 
Q 225 2191 398 2587 
Q 572 2984 901 3189 
Q 1231 3394 1625 3394 
Q 2241 3394 2594 2875 
L 2594 3319 
L 3100 3319 
L 3100 -1272 
L 2538 -1272 
z
M 803 1669 
Q 803 1028 1072 708 
Q 1341 388 1716 388 
Q 2075 388 2334 692 
Q 2594 997 2594 1619 
Q 2594 2281 2320 2615 
Q 2047 2950 1678 2950 
Q 1313 2950 1058 2639 
Q 803 2328 803 1669 
z
" transform="scale(0.015625)"/>
      </defs>
      <use xlink:href="#ArialMT-55"/>
      <use xlink:href="#ArialMT-6e" x="72.216797"/>
      <use xlink:href="#ArialMT-69" x="127.832031"/>
      <use xlink:href="#ArialMT-71" x="150.048828"/>
      <use xlink:href="#ArialMT-75" x="205.664062"/>
      <use xlink:href="#ArialMT-65" x="261.279297"/>
      <use xlink:href="#ArialMT-20" x="316.894531"/>
      <use xlink:href="#ArialMT-63" x="344.677734"/>
      <use xlink:href="#ArialMT-6c" x="394.677734"/>
      <use xlink:href="#ArialMT-75" x="416.894531"/>
      <use xlink:href="#ArialMT-73" x="472.509766"/>
      <use xlink:href="#ArialMT-74" x="522.509766"/>
      <use xlink:href="#ArialMT-65" x="550.292969"/>
      <use xlink:href="#ArialMT-72" x="605.908203"/>
      <use xlink:href="#ArialMT-73" x="639.208984"/>
     </g>
    </g>
   </g>
   <g id="PolyCollection_2"/>
   <g id="line2d_20">
    <path d="M 59.13375 173.926816 
L 61.479498 169.703628 
L 66.170995 165.48044 
L 68.516743 173.926816 
L 70.862491 161.257252 
L 73.20824 159.145658 
L 75.553988 161.257252 
L 77.899736 154.92247 
L 80.245485 163.368846 
L 82.591233 159.145658 
L 84.936981 159.145658 
L 89.628478 163.368846 
L 91.974226 167.592034 
L 94.319974 154.92247 
L 96.665723 159.145658 
L 106.048716 159.145658 
L 108.394464 157.034064 
L 110.740213 159.145658 
L 113.085961 157.034064 
L 115.431709 157.034064 
L 117.777457 152.810876 
L 120.123206 150.699282 
L 122.468954 157.034064 
L 124.814702 154.92247 
L 127.160451 150.699282 
L 129.506199 165.48044 
L 131.851947 152.810876 
L 134.197696 154.92247 
L 136.543444 154.92247 
L 138.889192 167.592034 
L 141.23494 157.034064 
L 143.580689 157.034064 
L 145.926437 154.92247 
L 148.272185 150.699282 
L 150.617934 152.810876 
L 152.963682 152.810876 
L 157.655179 148.587688 
L 160.000927 152.810876 
L 162.346675 148.587688 
L 164.692423 146.476094 
L 167.038172 152.810876 
L 169.38392 150.699282 
L 171.729668 150.699282 
L 174.075417 146.476094 
L 178.766913 150.699282 
L 188.149906 133.806531 
L 190.495655 135.918125 
L 192.841403 140.141313 
L 195.187151 131.694937 
L 197.5329 135.918125 
L 199.878648 133.806531 
L 202.224396 129.583343 
L 204.570145 133.806531 
L 206.915893 133.806531 
L 209.261641 142.252907 
L 211.607389 144.364501 
L 213.953138 140.141313 
L 216.298886 140.141313 
L 218.644634 127.471749 
L 220.990383 129.583343 
L 223.336131 125.360155 
L 225.681879 127.471749 
L 228.027628 121.136967 
L 230.373376 116.913779 
L 232.719124 125.360155 
L 235.064872 116.913779 
L 237.410621 127.471749 
L 239.756369 140.141313 
L 242.102117 131.694937 
L 244.447866 135.918125 
L 246.793614 133.806531 
L 249.139362 121.136967 
L 251.485111 121.136967 
L 253.830859 131.694937 
L 256.176607 131.694937 
L 258.522355 129.583343 
L 260.868104 133.806531 
L 263.213852 142.252907 
L 265.5596 148.587688 
L 267.905349 150.699282 
L 270.251097 144.364501 
L 272.596845 142.252907 
L 274.942594 144.364501 
L 277.288342 142.252907 
L 279.63409 142.252907 
L 281.979838 140.141313 
L 284.325587 140.141313 
L 286.671335 138.029719 
L 289.017083 140.141313 
L 291.362832 135.918125 
L 293.70858 133.806531 
L 298.400077 133.806531 
L 300.745825 138.029719 
L 303.091573 138.029719 
L 307.78307 150.699282 
L 310.128818 148.587688 
L 312.474566 138.029719 
L 314.820315 135.918125 
L 321.85756 135.918125 
L 324.203308 142.252907 
L 326.549056 146.476094 
L 328.894804 146.476094 
L 331.240553 150.699282 
L 333.586301 150.699282 
L 335.932049 157.034064 
L 338.277798 159.145658 
L 340.623546 167.592034 
L 342.969294 165.48044 
L 345.315043 165.48044 
L 347.660791 157.034064 
L 350.006539 163.368846 
L 352.352287 163.368846 
L 354.698036 167.592034 
L 357.043784 163.368846 
L 359.389532 154.92247 
L 361.735281 144.364501 
L 364.081029 146.476094 
L 366.426777 152.810876 
L 368.772526 150.699282 
L 371.118274 144.364501 
L 373.464022 154.92247 
L 375.80977 148.587688 
L 378.155519 150.699282 
L 380.501267 129.583343 
L 382.847015 133.806531 
L 385.192764 129.583343 
L 389.88426 129.583343 
L 392.230009 125.360155 
L 394.575757 129.583343 
L 396.921505 127.471749 
L 399.267253 129.583343 
L 401.613002 125.360155 
L 403.95875 123.248561 
L 403.95875 123.248561 
" clip-path="url(#p317f1401ae)" style="fill: none; stroke: #1f77b4; stroke-width: 1.5; stroke-linecap: round"/>
   </g>
   <g id="LineCollection_2">
    <path d="M 68.516743 173.926816 
L 68.516743 114.063128 
" clip-path="url(#p317f1401ae)" style="fill: none; stroke: #000000; stroke-width: 1.5"/>
   </g>
   <g id="patch_8">
    <path d="M 41.8925 176.92 
L 41.8925 111.069943 
" style="fill: none; stroke: #ffffff; stroke-width: 0.8; stroke-linejoin: miter; stroke-linecap: square"/>
   </g>
   <g id="patch_9">
    <path d="M 421.2 176.92 
L 421.2 111.069943 
" style="fill: none; stroke: #ffffff; stroke-width: 0.8; stroke-linejoin: miter; stroke-linecap: square"/>
   </g>
   <g id="patch_10">
    <path d="M 41.8925 176.92 
L 421.2 176.92 
" style="fill: none; stroke: #ffffff; stroke-width: 0.8; stroke-linejoin: miter; stroke-linecap: square"/>
   </g>
   <g id="patch_11">
    <path d="M 41.8925 111.069943 
L 421.2 111.069943 
" style="fill: none; stroke: #ffffff; stroke-width: 0.8; stroke-linejoin: miter; stroke-linecap: square"/>
   </g>
  </g>
  <g id="text_15">
   <!-- Cluster quality score analysis -->
   <g style="fill: #262626" transform="translate(138.305625 13.055625) scale(0.12 -0.12)">
    <defs>
     <path id="ArialMT-43" d="M 3763 1606 
L 4369 1453 
Q 4178 706 3683 314 
Q 3188 -78 2472 -78 
Q 1731 -78 1267 223 
Q 803 525 561 1097 
Q 319 1669 319 2325 
Q 319 3041 592 3573 
Q 866 4106 1370 4382 
Q 1875 4659 2481 4659 
Q 3169 4659 3637 4309 
Q 4106 3959 4291 3325 
L 3694 3184 
Q 3534 3684 3231 3912 
Q 2928 4141 2469 4141 
Q 1941 4141 1586 3887 
Q 1231 3634 1087 3207 
Q 944 2781 944 2328 
Q 944 1744 1114 1308 
Q 1284 872 1643 656 
Q 2003 441 2422 441 
Q 2931 441 3284 734 
Q 3638 1028 3763 1606 
z
" transform="scale(0.015625)"/>
    </defs>
    <use xlink:href="#ArialMT-43"/>
    <use xlink:href="#ArialMT-6c" x="72.216797"/>
    <use xlink:href="#ArialMT-75" x="94.433594"/>
    <use xlink:href="#ArialMT-73" x="150.048828"/>
    <use xlink:href="#ArialMT-74" x="200.048828"/>
    <use xlink:href="#ArialMT-65" x="227.832031"/>
    <use xlink:href="#ArialMT-72" x="283.447266"/>
    <use xlink:href="#ArialMT-20" x="316.748047"/>
    <use xlink:href="#ArialMT-71" x="344.53125"/>
    <use xlink:href="#ArialMT-75" x="400.146484"/>
    <use xlink:href="#ArialMT-61" x="455.761719"/>
    <use xlink:href="#ArialMT-6c" x="511.376953"/>
    <use xlink:href="#ArialMT-69" x="533.59375"/>
    <use xlink:href="#ArialMT-74" x="555.810547"/>
    <use xlink:href="#ArialMT-79" x="583.59375"/>
    <use xlink:href="#ArialMT-20" x="633.59375"/>
    <use xlink:href="#ArialMT-73" x="661.376953"/>
    <use xlink:href="#ArialMT-63" x="711.376953"/>
    <use xlink:href="#ArialMT-6f" x="761.376953"/>
    <use xlink:href="#ArialMT-72" x="816.992188"/>
    <use xlink:href="#ArialMT-65" x="850.292969"/>
    <use xlink:href="#ArialMT-20" x="905.908203"/>
    <use xlink:href="#ArialMT-61" x="933.691406"/>
    <use xlink:href="#ArialMT-6e" x="989.306641"/>
    <use xlink:href="#ArialMT-61" x="1044.921875"/>
    <use xlink:href="#ArialMT-6c" x="1100.537109"/>
    <use xlink:href="#ArialMT-79" x="1122.753906"/>
    <use xlink:href="#ArialMT-73" x="1172.753906"/>
    <use xlink:href="#ArialMT-69" x="1222.753906"/>
    <use xlink:href="#ArialMT-73" x="1244.970703"/>
   </g>
  </g>
 </g>
 <defs>
  <clipPath id="p14ca9254e1">
   <rect x="41.8925" y="32.45625" width="379.3075" height="65.850057"/>
  </clipPath>
  <clipPath id="p317f1401ae">
   <rect x="41.8925" y="111.069943" width="379.3075" height="65.850057"/>
  </clipPath>
 </defs>
</svg>
