<?xml version="1.0" encoding="utf-8" standalone="no"?>
<!DOCTYPE svg PUBLIC "-//W3C//DTD SVG 1.1//EN"
  "http://www.w3.org/Graphics/SVG/1.1/DTD/svg11.dtd">
<svg xmlns:xlink="http://www.w3.org/1999/xlink" width="432pt" height="288pt" viewBox="0 0 432 288" xmlns="http://www.w3.org/2000/svg" version="1.1">
 <metadata>
  <rdf:RDF xmlns:dc="http://purl.org/dc/elements/1.1/" xmlns:cc="http://creativecommons.org/ns#" xmlns:rdf="http://www.w3.org/1999/02/22-rdf-syntax-ns#">
   <cc:Work>
    <dc:type rdf:resource="http://purl.org/dc/dcmitype/StillImage"/>
    <dc:date>2023-08-28T15:25:48.803559</dc:date>
    <dc:format>image/svg+xml</dc:format>
    <dc:creator>
     <cc:Agent>
      <dc:title>Matplotlib v3.7.1, https://matplotlib.org/</dc:title>
     </cc:Agent>
    </dc:creator>
   </cc:Work>
  </rdf:RDF>
 </metadata>
 <defs>
  <style type="text/css">*{stroke-linejoin: round; stroke-linecap: butt}</style>
 </defs>
 <g id="figure_1">
  <g id="patch_1">
   <path d="M 0 288 
L 432 288 
L 432 0 
L 0 0 
z
" style="fill: #ffffff"/>
  </g>
  <g id="axes_1">
   <g id="patch_2">
    <path d="M 54 256.32 
L 388.8 256.32 
L 388.8 34.56 
L 54 34.56 
z
" style="fill: #eaeaf2"/>
   </g>
   <g id="matplotlib.axis_1">
    <g id="xtick_1">
     <g id="line2d_1">
      <path d="M 68.836774 256.32 
L 68.836774 34.56 
" clip-path="url(#p3a7c18c40c)" style="fill: none; stroke: #ffffff; stroke-width: 0.8; stroke-linecap: round"/>
     </g>
     <g id="text_1">
      <!-- 0 -->
      <g style="fill: #262626" transform="translate(66.056305 270.477813) scale(0.1 -0.1)">
       <defs>
        <path id="ArialMT-30" d="M 266 2259 
Q 266 3072 433 3567 
Q 600 4063 929 4331 
Q 1259 4600 1759 4600 
Q 2128 4600 2406 4451 
Q 2684 4303 2865 4023 
Q 3047 3744 3150 3342 
Q 3253 2941 3253 2259 
Q 3253 1453 3087 958 
Q 2922 463 2592 192 
Q 2263 -78 1759 -78 
Q 1097 -78 719 397 
Q 266 969 266 2259 
z
M 844 2259 
Q 844 1131 1108 757 
Q 1372 384 1759 384 
Q 2147 384 2411 759 
Q 2675 1134 2675 2259 
Q 2675 3391 2411 3762 
Q 2147 4134 1753 4134 
Q 1366 4134 1134 3806 
Q 844 3388 844 2259 
z
" transform="scale(0.015625)"/>
       </defs>
       <use xlink:href="#ArialMT-30"/>
      </g>
     </g>
    </g>
    <g id="xtick_2">
     <g id="line2d_2">
      <path d="M 106.97758 256.32 
L 106.97758 34.56 
" clip-path="url(#p3a7c18c40c)" style="fill: none; stroke: #ffffff; stroke-width: 0.8; stroke-linecap: round"/>
     </g>
     <g id="text_2">
      <!-- 100 -->
      <g style="fill: #262626" transform="translate(98.636174 270.477813) scale(0.1 -0.1)">
       <defs>
        <path id="ArialMT-31" d="M 2384 0 
L 1822 0 
L 1822 3584 
Q 1619 3391 1289 3197 
Q 959 3003 697 2906 
L 697 3450 
Q 1169 3672 1522 3987 
Q 1875 4303 2022 4600 
L 2384 4600 
L 2384 0 
z
" transform="scale(0.015625)"/>
       </defs>
       <use xlink:href="#ArialMT-31"/>
       <use xlink:href="#ArialMT-30" x="55.615234"/>
       <use xlink:href="#ArialMT-30" x="111.230469"/>
      </g>
     </g>
    </g>
    <g id="xtick_3">
     <g id="line2d_3">
      <path d="M 145.118387 256.32 
L 145.118387 34.56 
" clip-path="url(#p3a7c18c40c)" style="fill: none; stroke: #ffffff; stroke-width: 0.8; stroke-linecap: round"/>
     </g>
     <g id="text_3">
      <!-- 200 -->
      <g style="fill: #262626" transform="translate(136.776981 270.477813) scale(0.1 -0.1)">
       <defs>
        <path id="ArialMT-32" d="M 3222 541 
L 3222 0 
L 194 0 
Q 188 203 259 391 
Q 375 700 629 1000 
Q 884 1300 1366 1694 
Q 2113 2306 2375 2664 
Q 2638 3022 2638 3341 
Q 2638 3675 2398 3904 
Q 2159 4134 1775 4134 
Q 1369 4134 1125 3890 
Q 881 3647 878 3216 
L 300 3275 
Q 359 3922 746 4261 
Q 1134 4600 1788 4600 
Q 2447 4600 2831 4234 
Q 3216 3869 3216 3328 
Q 3216 3053 3103 2787 
Q 2991 2522 2730 2228 
Q 2469 1934 1863 1422 
Q 1356 997 1212 845 
Q 1069 694 975 541 
L 3222 541 
z
" transform="scale(0.015625)"/>
       </defs>
       <use xlink:href="#ArialMT-32"/>
       <use xlink:href="#ArialMT-30" x="55.615234"/>
       <use xlink:href="#ArialMT-30" x="111.230469"/>
      </g>
     </g>
    </g>
    <g id="xtick_4">
     <g id="line2d_4">
      <path d="M 183.259193 256.32 
L 183.259193 34.56 
" clip-path="url(#p3a7c18c40c)" style="fill: none; stroke: #ffffff; stroke-width: 0.8; stroke-linecap: round"/>
     </g>
     <g id="text_4">
      <!-- 300 -->
      <g style="fill: #262626" transform="translate(174.917787 270.477813) scale(0.1 -0.1)">
       <defs>
        <path id="ArialMT-33" d="M 269 1209 
L 831 1284 
Q 928 806 1161 595 
Q 1394 384 1728 384 
Q 2125 384 2398 659 
Q 2672 934 2672 1341 
Q 2672 1728 2419 1979 
Q 2166 2231 1775 2231 
Q 1616 2231 1378 2169 
L 1441 2663 
Q 1497 2656 1531 2656 
Q 1891 2656 2178 2843 
Q 2466 3031 2466 3422 
Q 2466 3731 2256 3934 
Q 2047 4138 1716 4138 
Q 1388 4138 1169 3931 
Q 950 3725 888 3313 
L 325 3413 
Q 428 3978 793 4289 
Q 1159 4600 1703 4600 
Q 2078 4600 2393 4439 
Q 2709 4278 2876 4000 
Q 3044 3722 3044 3409 
Q 3044 3113 2884 2869 
Q 2725 2625 2413 2481 
Q 2819 2388 3044 2092 
Q 3269 1797 3269 1353 
Q 3269 753 2831 336 
Q 2394 -81 1725 -81 
Q 1122 -81 723 278 
Q 325 638 269 1209 
z
" transform="scale(0.015625)"/>
       </defs>
       <use xlink:href="#ArialMT-33"/>
       <use xlink:href="#ArialMT-30" x="55.615234"/>
       <use xlink:href="#ArialMT-30" x="111.230469"/>
      </g>
     </g>
    </g>
    <g id="xtick_5">
     <g id="line2d_5">
      <path d="M 221.4 256.32 
L 221.4 34.56 
" clip-path="url(#p3a7c18c40c)" style="fill: none; stroke: #ffffff; stroke-width: 0.8; stroke-linecap: round"/>
     </g>
     <g id="text_5">
      <!-- 400 -->
      <g style="fill: #262626" transform="translate(213.058594 270.477813) scale(0.1 -0.1)">
       <defs>
        <path id="ArialMT-34" d="M 2069 0 
L 2069 1097 
L 81 1097 
L 81 1613 
L 2172 4581 
L 2631 4581 
L 2631 1613 
L 3250 1613 
L 3250 1097 
L 2631 1097 
L 2631 0 
L 2069 0 
z
M 2069 1613 
L 2069 3678 
L 634 1613 
L 2069 1613 
z
" transform="scale(0.015625)"/>
       </defs>
       <use xlink:href="#ArialMT-34"/>
       <use xlink:href="#ArialMT-30" x="55.615234"/>
       <use xlink:href="#ArialMT-30" x="111.230469"/>
      </g>
     </g>
    </g>
    <g id="xtick_6">
     <g id="line2d_6">
      <path d="M 259.540807 256.32 
L 259.540807 34.56 
" clip-path="url(#p3a7c18c40c)" style="fill: none; stroke: #ffffff; stroke-width: 0.8; stroke-linecap: round"/>
     </g>
     <g id="text_6">
      <!-- 500 -->
      <g style="fill: #262626" transform="translate(251.1994 270.477813) scale(0.1 -0.1)">
       <defs>
        <path id="ArialMT-35" d="M 266 1200 
L 856 1250 
Q 922 819 1161 601 
Q 1400 384 1738 384 
Q 2144 384 2425 690 
Q 2706 997 2706 1503 
Q 2706 1984 2436 2262 
Q 2166 2541 1728 2541 
Q 1456 2541 1237 2417 
Q 1019 2294 894 2097 
L 366 2166 
L 809 4519 
L 3088 4519 
L 3088 3981 
L 1259 3981 
L 1013 2750 
Q 1425 3038 1878 3038 
Q 2478 3038 2890 2622 
Q 3303 2206 3303 1553 
Q 3303 931 2941 478 
Q 2500 -78 1738 -78 
Q 1113 -78 717 272 
Q 322 622 266 1200 
z
" transform="scale(0.015625)"/>
       </defs>
       <use xlink:href="#ArialMT-35"/>
       <use xlink:href="#ArialMT-30" x="55.615234"/>
       <use xlink:href="#ArialMT-30" x="111.230469"/>
      </g>
     </g>
    </g>
    <g id="xtick_7">
     <g id="line2d_7">
      <path d="M 297.681613 256.32 
L 297.681613 34.56 
" clip-path="url(#p3a7c18c40c)" style="fill: none; stroke: #ffffff; stroke-width: 0.8; stroke-linecap: round"/>
     </g>
     <g id="text_7">
      <!-- 600 -->
      <g style="fill: #262626" transform="translate(289.340207 270.477813) scale(0.1 -0.1)">
       <defs>
        <path id="ArialMT-36" d="M 3184 3459 
L 2625 3416 
Q 2550 3747 2413 3897 
Q 2184 4138 1850 4138 
Q 1581 4138 1378 3988 
Q 1113 3794 959 3422 
Q 806 3050 800 2363 
Q 1003 2672 1297 2822 
Q 1591 2972 1913 2972 
Q 2475 2972 2870 2558 
Q 3266 2144 3266 1488 
Q 3266 1056 3080 686 
Q 2894 316 2569 119 
Q 2244 -78 1831 -78 
Q 1128 -78 684 439 
Q 241 956 241 2144 
Q 241 3472 731 4075 
Q 1159 4600 1884 4600 
Q 2425 4600 2770 4297 
Q 3116 3994 3184 3459 
z
M 888 1484 
Q 888 1194 1011 928 
Q 1134 663 1356 523 
Q 1578 384 1822 384 
Q 2178 384 2434 671 
Q 2691 959 2691 1453 
Q 2691 1928 2437 2201 
Q 2184 2475 1800 2475 
Q 1419 2475 1153 2201 
Q 888 1928 888 1484 
z
" transform="scale(0.015625)"/>
       </defs>
       <use xlink:href="#ArialMT-36"/>
       <use xlink:href="#ArialMT-30" x="55.615234"/>
       <use xlink:href="#ArialMT-30" x="111.230469"/>
      </g>
     </g>
    </g>
    <g id="xtick_8">
     <g id="line2d_8">
      <path d="M 335.82242 256.32 
L 335.82242 34.56 
" clip-path="url(#p3a7c18c40c)" style="fill: none; stroke: #ffffff; stroke-width: 0.8; stroke-linecap: round"/>
     </g>
     <g id="text_8">
      <!-- 700 -->
      <g style="fill: #262626" transform="translate(327.481013 270.477813) scale(0.1 -0.1)">
       <defs>
        <path id="ArialMT-37" d="M 303 3981 
L 303 4522 
L 3269 4522 
L 3269 4084 
Q 2831 3619 2401 2847 
Q 1972 2075 1738 1259 
Q 1569 684 1522 0 
L 944 0 
Q 953 541 1156 1306 
Q 1359 2072 1739 2783 
Q 2119 3494 2547 3981 
L 303 3981 
z
" transform="scale(0.015625)"/>
       </defs>
       <use xlink:href="#ArialMT-37"/>
       <use xlink:href="#ArialMT-30" x="55.615234"/>
       <use xlink:href="#ArialMT-30" x="111.230469"/>
      </g>
     </g>
    </g>
    <g id="xtick_9">
     <g id="line2d_9">
      <path d="M 373.963226 256.32 
L 373.963226 34.56 
" clip-path="url(#p3a7c18c40c)" style="fill: none; stroke: #ffffff; stroke-width: 0.8; stroke-linecap: round"/>
     </g>
     <g id="text_9">
      <!-- 800 -->
      <g style="fill: #262626" transform="translate(365.62182 270.477813) scale(0.1 -0.1)">
       <defs>
        <path id="ArialMT-38" d="M 1131 2484 
Q 781 2613 612 2850 
Q 444 3088 444 3419 
Q 444 3919 803 4259 
Q 1163 4600 1759 4600 
Q 2359 4600 2725 4251 
Q 3091 3903 3091 3403 
Q 3091 3084 2923 2848 
Q 2756 2613 2416 2484 
Q 2838 2347 3058 2040 
Q 3278 1734 3278 1309 
Q 3278 722 2862 322 
Q 2447 -78 1769 -78 
Q 1091 -78 675 323 
Q 259 725 259 1325 
Q 259 1772 486 2073 
Q 713 2375 1131 2484 
z
M 1019 3438 
Q 1019 3113 1228 2906 
Q 1438 2700 1772 2700 
Q 2097 2700 2305 2904 
Q 2513 3109 2513 3406 
Q 2513 3716 2298 3927 
Q 2084 4138 1766 4138 
Q 1444 4138 1231 3931 
Q 1019 3725 1019 3438 
z
M 838 1322 
Q 838 1081 952 856 
Q 1066 631 1291 507 
Q 1516 384 1775 384 
Q 2178 384 2440 643 
Q 2703 903 2703 1303 
Q 2703 1709 2433 1975 
Q 2163 2241 1756 2241 
Q 1359 2241 1098 1978 
Q 838 1716 838 1322 
z
" transform="scale(0.015625)"/>
       </defs>
       <use xlink:href="#ArialMT-38"/>
       <use xlink:href="#ArialMT-30" x="55.615234"/>
       <use xlink:href="#ArialMT-30" x="111.230469"/>
      </g>
     </g>
    </g>
    <g id="text_10">
     <!-- Residue number -->
     <g style="fill: #262626" transform="translate(184.715625 283.623125) scale(0.1 -0.1)">
      <defs>
       <path id="ArialMT-52" d="M 503 0 
L 503 4581 
L 2534 4581 
Q 3147 4581 3465 4457 
Q 3784 4334 3975 4021 
Q 4166 3709 4166 3331 
Q 4166 2844 3850 2509 
Q 3534 2175 2875 2084 
Q 3116 1969 3241 1856 
Q 3506 1613 3744 1247 
L 4541 0 
L 3778 0 
L 3172 953 
Q 2906 1366 2734 1584 
Q 2563 1803 2427 1890 
Q 2291 1978 2150 2013 
Q 2047 2034 1813 2034 
L 1109 2034 
L 1109 0 
L 503 0 
z
M 1109 2559 
L 2413 2559 
Q 2828 2559 3062 2645 
Q 3297 2731 3419 2920 
Q 3541 3109 3541 3331 
Q 3541 3656 3305 3865 
Q 3069 4075 2559 4075 
L 1109 4075 
L 1109 2559 
z
" transform="scale(0.015625)"/>
       <path id="ArialMT-65" d="M 2694 1069 
L 3275 997 
Q 3138 488 2766 206 
Q 2394 -75 1816 -75 
Q 1088 -75 661 373 
Q 234 822 234 1631 
Q 234 2469 665 2931 
Q 1097 3394 1784 3394 
Q 2450 3394 2872 2941 
Q 3294 2488 3294 1666 
Q 3294 1616 3291 1516 
L 816 1516 
Q 847 969 1125 678 
Q 1403 388 1819 388 
Q 2128 388 2347 550 
Q 2566 713 2694 1069 
z
M 847 1978 
L 2700 1978 
Q 2663 2397 2488 2606 
Q 2219 2931 1791 2931 
Q 1403 2931 1139 2672 
Q 875 2413 847 1978 
z
" transform="scale(0.015625)"/>
       <path id="ArialMT-73" d="M 197 991 
L 753 1078 
Q 800 744 1014 566 
Q 1228 388 1613 388 
Q 2000 388 2187 545 
Q 2375 703 2375 916 
Q 2375 1106 2209 1216 
Q 2094 1291 1634 1406 
Q 1016 1563 777 1677 
Q 538 1791 414 1992 
Q 291 2194 291 2438 
Q 291 2659 392 2848 
Q 494 3038 669 3163 
Q 800 3259 1026 3326 
Q 1253 3394 1513 3394 
Q 1903 3394 2198 3281 
Q 2494 3169 2634 2976 
Q 2775 2784 2828 2463 
L 2278 2388 
Q 2241 2644 2061 2787 
Q 1881 2931 1553 2931 
Q 1166 2931 1000 2803 
Q 834 2675 834 2503 
Q 834 2394 903 2306 
Q 972 2216 1119 2156 
Q 1203 2125 1616 2013 
Q 2213 1853 2448 1751 
Q 2684 1650 2818 1456 
Q 2953 1263 2953 975 
Q 2953 694 2789 445 
Q 2625 197 2315 61 
Q 2006 -75 1616 -75 
Q 969 -75 630 194 
Q 291 463 197 991 
z
" transform="scale(0.015625)"/>
       <path id="ArialMT-69" d="M 425 3934 
L 425 4581 
L 988 4581 
L 988 3934 
L 425 3934 
z
M 425 0 
L 425 3319 
L 988 3319 
L 988 0 
L 425 0 
z
" transform="scale(0.015625)"/>
       <path id="ArialMT-64" d="M 2575 0 
L 2575 419 
Q 2259 -75 1647 -75 
Q 1250 -75 917 144 
Q 584 363 401 755 
Q 219 1147 219 1656 
Q 219 2153 384 2558 
Q 550 2963 881 3178 
Q 1213 3394 1622 3394 
Q 1922 3394 2156 3267 
Q 2391 3141 2538 2938 
L 2538 4581 
L 3097 4581 
L 3097 0 
L 2575 0 
z
M 797 1656 
Q 797 1019 1065 703 
Q 1334 388 1700 388 
Q 2069 388 2326 689 
Q 2584 991 2584 1609 
Q 2584 2291 2321 2609 
Q 2059 2928 1675 2928 
Q 1300 2928 1048 2622 
Q 797 2316 797 1656 
z
" transform="scale(0.015625)"/>
       <path id="ArialMT-75" d="M 2597 0 
L 2597 488 
Q 2209 -75 1544 -75 
Q 1250 -75 995 37 
Q 741 150 617 320 
Q 494 491 444 738 
Q 409 903 409 1263 
L 409 3319 
L 972 3319 
L 972 1478 
Q 972 1038 1006 884 
Q 1059 663 1231 536 
Q 1403 409 1656 409 
Q 1909 409 2131 539 
Q 2353 669 2445 892 
Q 2538 1116 2538 1541 
L 2538 3319 
L 3100 3319 
L 3100 0 
L 2597 0 
z
" transform="scale(0.015625)"/>
       <path id="ArialMT-20" transform="scale(0.015625)"/>
       <path id="ArialMT-6e" d="M 422 0 
L 422 3319 
L 928 3319 
L 928 2847 
Q 1294 3394 1984 3394 
Q 2284 3394 2536 3286 
Q 2788 3178 2913 3003 
Q 3038 2828 3088 2588 
Q 3119 2431 3119 2041 
L 3119 0 
L 2556 0 
L 2556 2019 
Q 2556 2363 2490 2533 
Q 2425 2703 2258 2804 
Q 2091 2906 1866 2906 
Q 1506 2906 1245 2678 
Q 984 2450 984 1813 
L 984 0 
L 422 0 
z
" transform="scale(0.015625)"/>
       <path id="ArialMT-6d" d="M 422 0 
L 422 3319 
L 925 3319 
L 925 2853 
Q 1081 3097 1340 3245 
Q 1600 3394 1931 3394 
Q 2300 3394 2536 3241 
Q 2772 3088 2869 2813 
Q 3263 3394 3894 3394 
Q 4388 3394 4653 3120 
Q 4919 2847 4919 2278 
L 4919 0 
L 4359 0 
L 4359 2091 
Q 4359 2428 4304 2576 
Q 4250 2725 4106 2815 
Q 3963 2906 3769 2906 
Q 3419 2906 3187 2673 
Q 2956 2441 2956 1928 
L 2956 0 
L 2394 0 
L 2394 2156 
Q 2394 2531 2256 2718 
Q 2119 2906 1806 2906 
Q 1569 2906 1367 2781 
Q 1166 2656 1075 2415 
Q 984 2175 984 1722 
L 984 0 
L 422 0 
z
" transform="scale(0.015625)"/>
       <path id="ArialMT-62" d="M 941 0 
L 419 0 
L 419 4581 
L 981 4581 
L 981 2947 
Q 1338 3394 1891 3394 
Q 2197 3394 2470 3270 
Q 2744 3147 2920 2923 
Q 3097 2700 3197 2384 
Q 3297 2069 3297 1709 
Q 3297 856 2875 390 
Q 2453 -75 1863 -75 
Q 1275 -75 941 416 
L 941 0 
z
M 934 1684 
Q 934 1088 1097 822 
Q 1363 388 1816 388 
Q 2184 388 2453 708 
Q 2722 1028 2722 1663 
Q 2722 2313 2464 2622 
Q 2206 2931 1841 2931 
Q 1472 2931 1203 2611 
Q 934 2291 934 1684 
z
" transform="scale(0.015625)"/>
       <path id="ArialMT-72" d="M 416 0 
L 416 3319 
L 922 3319 
L 922 2816 
Q 1116 3169 1280 3281 
Q 1444 3394 1641 3394 
Q 1925 3394 2219 3213 
L 2025 2691 
Q 1819 2813 1613 2813 
Q 1428 2813 1281 2702 
Q 1134 2591 1072 2394 
Q 978 2094 978 1738 
L 978 0 
L 416 0 
z
" transform="scale(0.015625)"/>
      </defs>
      <use xlink:href="#ArialMT-52"/>
      <use xlink:href="#ArialMT-65" x="72.216797"/>
      <use xlink:href="#ArialMT-73" x="127.832031"/>
      <use xlink:href="#ArialMT-69" x="177.832031"/>
      <use xlink:href="#ArialMT-64" x="200.048828"/>
      <use xlink:href="#ArialMT-75" x="255.664062"/>
      <use xlink:href="#ArialMT-65" x="311.279297"/>
      <use xlink:href="#ArialMT-20" x="366.894531"/>
      <use xlink:href="#ArialMT-6e" x="394.677734"/>
      <use xlink:href="#ArialMT-75" x="450.292969"/>
      <use xlink:href="#ArialMT-6d" x="505.908203"/>
      <use xlink:href="#ArialMT-62" x="589.208984"/>
      <use xlink:href="#ArialMT-65" x="644.824219"/>
      <use xlink:href="#ArialMT-72" x="700.439453"/>
     </g>
    </g>
   </g>
   <g id="matplotlib.axis_2">
    <g id="ytick_1">
     <g id="line2d_10">
      <path d="M 54 230.647431 
L 388.8 230.647431 
" clip-path="url(#p3a7c18c40c)" style="fill: none; stroke: #ffffff; stroke-width: 0.8; stroke-linecap: round"/>
     </g>
     <g id="text_11">
      <!-- 50 -->
      <g style="fill: #262626" transform="translate(35.878125 234.226337) scale(0.1 -0.1)">
       <use xlink:href="#ArialMT-35"/>
       <use xlink:href="#ArialMT-30" x="55.615234"/>
      </g>
     </g>
    </g>
    <g id="ytick_2">
     <g id="line2d_11">
      <path d="M 54 199.819892 
L 388.8 199.819892 
" clip-path="url(#p3a7c18c40c)" style="fill: none; stroke: #ffffff; stroke-width: 0.8; stroke-linecap: round"/>
     </g>
     <g id="text_12">
      <!-- 100 -->
      <g style="fill: #262626" transform="translate(30.317187 203.398798) scale(0.1 -0.1)">
       <use xlink:href="#ArialMT-31"/>
       <use xlink:href="#ArialMT-30" x="55.615234"/>
       <use xlink:href="#ArialMT-30" x="111.230469"/>
      </g>
     </g>
    </g>
    <g id="ytick_3">
     <g id="line2d_12">
      <path d="M 54 168.992353 
L 388.8 168.992353 
" clip-path="url(#p3a7c18c40c)" style="fill: none; stroke: #ffffff; stroke-width: 0.8; stroke-linecap: round"/>
     </g>
     <g id="text_13">
      <!-- 150 -->
      <g style="fill: #262626" transform="translate(30.317187 172.57126) scale(0.1 -0.1)">
       <use xlink:href="#ArialMT-31"/>
       <use xlink:href="#ArialMT-35" x="55.615234"/>
       <use xlink:href="#ArialMT-30" x="111.230469"/>
      </g>
     </g>
    </g>
    <g id="ytick_4">
     <g id="line2d_13">
      <path d="M 54 138.164815 
L 388.8 138.164815 
" clip-path="url(#p3a7c18c40c)" style="fill: none; stroke: #ffffff; stroke-width: 0.8; stroke-linecap: round"/>
     </g>
     <g id="text_14">
      <!-- 200 -->
      <g style="fill: #262626" transform="translate(30.317187 141.743721) scale(0.1 -0.1)">
       <use xlink:href="#ArialMT-32"/>
       <use xlink:href="#ArialMT-30" x="55.615234"/>
       <use xlink:href="#ArialMT-30" x="111.230469"/>
      </g>
     </g>
    </g>
    <g id="ytick_5">
     <g id="line2d_14">
      <path d="M 54 107.337276 
L 388.8 107.337276 
" clip-path="url(#p3a7c18c40c)" style="fill: none; stroke: #ffffff; stroke-width: 0.8; stroke-linecap: round"/>
     </g>
     <g id="text_15">
      <!-- 250 -->
      <g style="fill: #262626" transform="translate(30.317187 110.916182) scale(0.1 -0.1)">
       <use xlink:href="#ArialMT-32"/>
       <use xlink:href="#ArialMT-35" x="55.615234"/>
       <use xlink:href="#ArialMT-30" x="111.230469"/>
      </g>
     </g>
    </g>
    <g id="ytick_6">
     <g id="line2d_15">
      <path d="M 54 76.509737 
L 388.8 76.509737 
" clip-path="url(#p3a7c18c40c)" style="fill: none; stroke: #ffffff; stroke-width: 0.8; stroke-linecap: round"/>
     </g>
     <g id="text_16">
      <!-- 300 -->
      <g style="fill: #262626" transform="translate(30.317187 80.088643) scale(0.1 -0.1)">
       <use xlink:href="#ArialMT-33"/>
       <use xlink:href="#ArialMT-30" x="55.615234"/>
       <use xlink:href="#ArialMT-30" x="111.230469"/>
      </g>
     </g>
    </g>
    <g id="ytick_7">
     <g id="line2d_16">
      <path d="M 54 45.682198 
L 388.8 45.682198 
" clip-path="url(#p3a7c18c40c)" style="fill: none; stroke: #ffffff; stroke-width: 0.8; stroke-linecap: round"/>
     </g>
     <g id="text_17">
      <!-- 350 -->
      <g style="fill: #262626" transform="translate(30.317187 49.261105) scale(0.1 -0.1)">
       <use xlink:href="#ArialMT-33"/>
       <use xlink:href="#ArialMT-35" x="55.615234"/>
       <use xlink:href="#ArialMT-30" x="111.230469"/>
      </g>
     </g>
    </g>
    <g id="text_18">
     <!-- B-factor ($\AA^2$) -->
     <g style="fill: #262626" transform="translate(24.117188 173.94) rotate(-90) scale(0.1 -0.1)">
      <defs>
       <path id="ArialMT-42" d="M 469 0 
L 469 4581 
L 2188 4581 
Q 2713 4581 3030 4442 
Q 3347 4303 3526 4014 
Q 3706 3725 3706 3409 
Q 3706 3116 3547 2856 
Q 3388 2597 3066 2438 
Q 3481 2316 3704 2022 
Q 3928 1728 3928 1328 
Q 3928 1006 3792 729 
Q 3656 453 3456 303 
Q 3256 153 2954 76 
Q 2653 0 2216 0 
L 469 0 
z
M 1075 2656 
L 2066 2656 
Q 2469 2656 2644 2709 
Q 2875 2778 2992 2937 
Q 3109 3097 3109 3338 
Q 3109 3566 3000 3739 
Q 2891 3913 2687 3977 
Q 2484 4041 1991 4041 
L 1075 4041 
L 1075 2656 
z
M 1075 541 
L 2216 541 
Q 2509 541 2628 563 
Q 2838 600 2978 687 
Q 3119 775 3209 942 
Q 3300 1109 3300 1328 
Q 3300 1584 3169 1773 
Q 3038 1963 2805 2039 
Q 2572 2116 2134 2116 
L 1075 2116 
L 1075 541 
z
" transform="scale(0.015625)"/>
       <path id="ArialMT-2d" d="M 203 1375 
L 203 1941 
L 1931 1941 
L 1931 1375 
L 203 1375 
z
" transform="scale(0.015625)"/>
       <path id="ArialMT-66" d="M 556 0 
L 556 2881 
L 59 2881 
L 59 3319 
L 556 3319 
L 556 3672 
Q 556 4006 616 4169 
Q 697 4388 901 4523 
Q 1106 4659 1475 4659 
Q 1713 4659 2000 4603 
L 1916 4113 
Q 1741 4144 1584 4144 
Q 1328 4144 1222 4034 
Q 1116 3925 1116 3625 
L 1116 3319 
L 1763 3319 
L 1763 2881 
L 1116 2881 
L 1116 0 
L 556 0 
z
" transform="scale(0.015625)"/>
       <path id="ArialMT-61" d="M 2588 409 
Q 2275 144 1986 34 
Q 1697 -75 1366 -75 
Q 819 -75 525 192 
Q 231 459 231 875 
Q 231 1119 342 1320 
Q 453 1522 633 1644 
Q 813 1766 1038 1828 
Q 1203 1872 1538 1913 
Q 2219 1994 2541 2106 
Q 2544 2222 2544 2253 
Q 2544 2597 2384 2738 
Q 2169 2928 1744 2928 
Q 1347 2928 1158 2789 
Q 969 2650 878 2297 
L 328 2372 
Q 403 2725 575 2942 
Q 747 3159 1072 3276 
Q 1397 3394 1825 3394 
Q 2250 3394 2515 3294 
Q 2781 3194 2906 3042 
Q 3031 2891 3081 2659 
Q 3109 2516 3109 2141 
L 3109 1391 
Q 3109 606 3145 398 
Q 3181 191 3288 0 
L 2700 0 
Q 2613 175 2588 409 
z
M 2541 1666 
Q 2234 1541 1622 1453 
Q 1275 1403 1131 1340 
Q 988 1278 909 1158 
Q 831 1038 831 891 
Q 831 666 1001 516 
Q 1172 366 1500 366 
Q 1825 366 2078 508 
Q 2331 650 2450 897 
Q 2541 1088 2541 1459 
L 2541 1666 
z
" transform="scale(0.015625)"/>
       <path id="ArialMT-63" d="M 2588 1216 
L 3141 1144 
Q 3050 572 2676 248 
Q 2303 -75 1759 -75 
Q 1078 -75 664 370 
Q 250 816 250 1647 
Q 250 2184 428 2587 
Q 606 2991 970 3192 
Q 1334 3394 1763 3394 
Q 2303 3394 2647 3120 
Q 2991 2847 3088 2344 
L 2541 2259 
Q 2463 2594 2264 2762 
Q 2066 2931 1784 2931 
Q 1359 2931 1093 2626 
Q 828 2322 828 1663 
Q 828 994 1084 691 
Q 1341 388 1753 388 
Q 2084 388 2306 591 
Q 2528 794 2588 1216 
z
" transform="scale(0.015625)"/>
       <path id="ArialMT-74" d="M 1650 503 
L 1731 6 
Q 1494 -44 1306 -44 
Q 1000 -44 831 53 
Q 663 150 594 308 
Q 525 466 525 972 
L 525 2881 
L 113 2881 
L 113 3319 
L 525 3319 
L 525 4141 
L 1084 4478 
L 1084 3319 
L 1650 3319 
L 1650 2881 
L 1084 2881 
L 1084 941 
Q 1084 700 1114 631 
Q 1144 563 1211 522 
Q 1278 481 1403 481 
Q 1497 481 1650 503 
z
" transform="scale(0.015625)"/>
       <path id="ArialMT-6f" d="M 213 1659 
Q 213 2581 725 3025 
Q 1153 3394 1769 3394 
Q 2453 3394 2887 2945 
Q 3322 2497 3322 1706 
Q 3322 1066 3130 698 
Q 2938 331 2570 128 
Q 2203 -75 1769 -75 
Q 1072 -75 642 372 
Q 213 819 213 1659 
z
M 791 1659 
Q 791 1022 1069 705 
Q 1347 388 1769 388 
Q 2188 388 2466 706 
Q 2744 1025 2744 1678 
Q 2744 2294 2464 2611 
Q 2184 2928 1769 2928 
Q 1347 2928 1069 2612 
Q 791 2297 791 1659 
z
" transform="scale(0.015625)"/>
       <path id="ArialMT-28" d="M 1497 -1347 
Q 1031 -759 709 28 
Q 388 816 388 1659 
Q 388 2403 628 3084 
Q 909 3875 1497 4659 
L 1900 4659 
Q 1522 4009 1400 3731 
Q 1209 3300 1100 2831 
Q 966 2247 966 1656 
Q 966 153 1900 -1347 
L 1497 -1347 
z
" transform="scale(0.015625)"/>
       <path id="DejaVuSans-Oblique-c5" d="M 3188 5081 
Q 3188 5278 3048 5417 
Q 2909 5556 2713 5556 
Q 2513 5556 2377 5420 
Q 2241 5284 2241 5081 
Q 2241 4884 2377 4746 
Q 2513 4609 2713 4609 
Q 2909 4609 3048 4746 
Q 3188 4884 3188 5081 
z
M 2203 4397 
Q 2034 4513 1945 4689 
Q 1856 4866 1856 5081 
Q 1856 5438 2106 5689 
Q 2356 5941 2713 5941 
Q 3069 5941 3320 5689 
Q 3572 5438 3572 5081 
Q 3572 4834 3458 4643 
Q 3344 4453 3128 4341 
L 3938 0 
L 3278 0 
L 3084 1197 
L 984 1197 
L 325 0 
L -341 0 
L 2203 4397 
z
M 2584 4044 
L 1275 1722 
L 2988 1722 
L 2584 4044 
z
" transform="scale(0.015625)"/>
       <path id="DejaVuSans-32" d="M 1228 531 
L 3431 531 
L 3431 0 
L 469 0 
L 469 531 
Q 828 903 1448 1529 
Q 2069 2156 2228 2338 
Q 2531 2678 2651 2914 
Q 2772 3150 2772 3378 
Q 2772 3750 2511 3984 
Q 2250 4219 1831 4219 
Q 1534 4219 1204 4116 
Q 875 4013 500 3803 
L 500 4441 
Q 881 4594 1212 4672 
Q 1544 4750 1819 4750 
Q 2544 4750 2975 4387 
Q 3406 4025 3406 3419 
Q 3406 3131 3298 2873 
Q 3191 2616 2906 2266 
Q 2828 2175 2409 1742 
Q 1991 1309 1228 531 
z
" transform="scale(0.015625)"/>
       <path id="ArialMT-29" d="M 791 -1347 
L 388 -1347 
Q 1322 153 1322 1656 
Q 1322 2244 1188 2822 
Q 1081 3291 891 3722 
Q 769 4003 388 4659 
L 791 4659 
Q 1378 3875 1659 3084 
Q 1900 2403 1900 1659 
Q 1900 816 1576 28 
Q 1253 -759 791 -1347 
z
" transform="scale(0.015625)"/>
      </defs>
      <use xlink:href="#ArialMT-42" transform="translate(0 0.171875)"/>
      <use xlink:href="#ArialMT-2d" transform="translate(66.699219 0.171875)"/>
      <use xlink:href="#ArialMT-66" transform="translate(100 0.171875)"/>
      <use xlink:href="#ArialMT-61" transform="translate(127.783203 0.171875)"/>
      <use xlink:href="#ArialMT-63" transform="translate(183.398438 0.171875)"/>
      <use xlink:href="#ArialMT-74" transform="translate(233.398438 0.171875)"/>
      <use xlink:href="#ArialMT-6f" transform="translate(261.181641 0.171875)"/>
      <use xlink:href="#ArialMT-72" transform="translate(316.796875 0.171875)"/>
      <use xlink:href="#ArialMT-20" transform="translate(350.097656 0.171875)"/>
      <use xlink:href="#ArialMT-28" transform="translate(377.880859 0.171875)"/>
      <use xlink:href="#DejaVuSans-Oblique-c5" transform="translate(411.181641 0.171875)"/>
      <use xlink:href="#DejaVuSans-32" transform="translate(489.395677 38.453125) scale(0.7)"/>
      <use xlink:href="#ArialMT-29" transform="translate(536.666185 0.171875)"/>
     </g>
    </g>
   </g>
   <g id="PolyCollection_1"/>
   <g id="PolyCollection_2"/>
   <g id="line2d_17">
    <path d="M 69.218182 242.662954 
L 69.59959 242.585004 
L 70.743814 243.279275 
L 71.125222 242.686394 
L 71.50663 242.775413 
L 71.888038 242.719674 
L 72.269446 242.867606 
L 72.650854 243.146844 
L 73.795079 242.453724 
L 74.176487 242.411545 
L 74.557895 242.501399 
L 74.939303 242.112113 
L 75.320711 242.229977 
L 75.702119 242.142785 
L 76.083527 242.216085 
L 76.464935 242.486705 
L 76.846343 242.360586 
L 77.227751 242.418725 
L 77.609159 242.188443 
L 77.990567 242.273325 
L 78.371975 241.92959 
L 79.134792 242.948048 
L 79.5162 243.300021 
L 79.897608 243.405151 
L 80.279016 243.805314 
L 81.041832 244.048517 
L 81.42324 244.260821 
L 82.186056 243.968623 
L 82.567464 244.119805 
L 83.33028 243.929796 
L 83.711688 243.843885 
L 84.474504 243.202001 
L 84.855913 242.480111 
L 85.237321 242.369388 
L 86.000137 240.448959 
L 86.381545 240.062983 
L 86.762953 239.250309 
L 87.144361 239.418178 
L 88.288585 236.701246 
L 88.669993 237.437756 
L 89.814217 229.682677 
L 90.195625 225.76709 
L 90.577033 212.31918 
L 90.958442 206.684488 
L 91.721258 202.785324 
L 92.484074 194.427489 
L 92.865482 192.530515 
L 93.24689 194.850449 
L 93.628298 200.355585 
L 94.391114 225.507505 
L 94.772522 230.304508 
L 95.15393 231.74488 
L 95.535338 236.60396 
L 96.298154 240.455218 
L 97.823787 242.867486 
L 98.586603 241.367624 
L 98.968011 238.117512 
L 99.349419 238.079425 
L 100.112235 233.921507 
L 100.493643 238.37741 
L 100.875051 237.814682 
L 101.256459 239.323167 
L 101.637867 237.138272 
L 102.019275 237.267124 
L 102.400684 235.000708 
L 102.782092 233.73285 
L 103.544908 220.635329 
L 103.926316 207.394994 
L 104.307724 201.999224 
L 104.689132 188.888518 
L 105.07054 188.105947 
L 105.451948 179.693322 
L 105.833356 184.039895 
L 106.214764 185.93715 
L 107.358988 207.612036 
L 108.121805 234.699942 
L 108.503213 233.851352 
L 108.884621 239.262614 
L 109.266029 240.452806 
L 109.647437 242.360341 
L 110.028845 242.361884 
L 110.410253 242.889082 
L 110.791661 242.681516 
L 111.554477 242.679415 
L 111.935885 242.978421 
L 112.698701 243.15468 
L 113.080109 243.656477 
L 113.461517 243.602712 
L 113.842925 244.284462 
L 114.605742 244.65007 
L 116.131374 243.633319 
L 116.512782 243.104956 
L 116.89419 242.824266 
L 118.038414 240.952237 
L 118.419822 240.504746 
L 118.80123 240.254775 
L 119.564046 241.155761 
L 119.945455 241.236412 
L 120.326863 241.891793 
L 120.708271 241.372483 
L 121.852495 242.050625 
L 122.233903 242.737404 
L 122.615311 243.000581 
L 122.996719 243.533425 
L 123.378127 243.579606 
L 123.759535 243.758133 
L 124.140943 243.486275 
L 124.522351 242.235993 
L 124.903759 240.508967 
L 125.285167 240.818822 
L 125.666576 237.994889 
L 126.429392 237.30884 
L 126.8108 237.368933 
L 127.192208 237.272588 
L 127.573616 238.608978 
L 127.955024 238.720922 
L 128.336432 237.0375 
L 129.099248 236.894535 
L 129.480656 237.467689 
L 129.862064 237.744612 
L 130.62488 239.91998 
L 131.006288 240.028985 
L 131.769105 242.662173 
L 132.150513 243.508049 
L 132.531921 243.552653 
L 133.294737 242.794584 
L 133.676145 242.91844 
L 134.057553 242.775156 
L 134.820369 243.422768 
L 135.201777 242.510021 
L 135.583185 242.749695 
L 135.964593 243.301778 
L 136.346001 242.980285 
L 137.108817 243.414845 
L 137.490226 243.363285 
L 137.871634 243.571539 
L 138.63445 243.605813 
L 139.015858 244.14112 
L 139.397266 243.86761 
L 139.778674 244.058542 
L 140.160082 243.908896 
L 140.54149 244.163189 
L 140.922898 243.948298 
L 141.304306 244.430346 
L 141.685714 244.390523 
L 142.44853 243.357338 
L 142.829938 241.670065 
L 143.211347 241.698907 
L 143.592755 241.241144 
L 143.974163 241.671154 
L 144.355571 241.561311 
L 144.736979 242.240174 
L 145.118387 241.649848 
L 145.499795 241.58192 
L 145.881203 240.516529 
L 146.262611 240.560487 
L 146.644019 240.958166 
L 147.025427 238.181174 
L 147.406835 239.548431 
L 147.788243 240.317596 
L 148.169651 240.765205 
L 148.551059 242.256867 
L 148.932468 242.417427 
L 149.313876 243.883448 
L 149.695284 243.874228 
L 150.076692 243.57563 
L 150.4581 243.69891 
L 152.746548 240.098212 
L 153.127956 239.951712 
L 153.509364 240.260819 
L 154.27218 237.123853 
L 155.416405 235.096033 
L 155.797813 235.083384 
L 156.179221 232.906535 
L 156.560629 233.382501 
L 156.942037 234.167095 
L 157.323445 236.934529 
L 158.086261 239.778973 
L 159.993301 243.19506 
L 160.756118 243.967082 
L 161.518934 244.076875 
L 161.900342 244.413859 
L 162.28175 244.473562 
L 162.663158 244.342467 
L 164.18879 243.302656 
L 164.570198 242.696576 
L 164.951606 242.780957 
L 165.333014 241.645695 
L 165.714422 240.930231 
L 166.09583 240.749951 
L 166.477239 239.155824 
L 166.858647 238.887737 
L 167.240055 236.902104 
L 167.621463 244.067961 
L 168.002871 244.506936 
L 168.384279 244.485208 
L 169.147095 244.752316 
L 169.528503 244.642549 
L 169.909911 244.746841 
L 170.291319 244.558996 
L 170.672727 244.179057 
L 171.054135 244.072369 
L 171.435543 244.544576 
L 171.816951 244.288978 
L 172.19836 243.827999 
L 172.579768 243.679241 
L 172.961176 243.217973 
L 173.342584 243.443521 
L 173.723992 243.497417 
L 174.1054 243.315895 
L 174.486808 243.664828 
L 175.631032 243.860214 
L 176.01244 243.417777 
L 177.538072 243.199207 
L 177.919481 242.90343 
L 178.300889 243.241597 
L 178.682297 243.163724 
L 179.063705 243.342632 
L 179.445113 243.221884 
L 179.826521 242.726148 
L 180.207929 243.014586 
L 180.589337 242.622455 
L 180.970745 243.155603 
L 181.733561 243.765728 
L 182.114969 243.556772 
L 182.496377 244.033689 
L 183.259193 244.071685 
L 183.640602 243.772312 
L 184.02201 243.771061 
L 184.403418 243.374345 
L 184.784826 242.748971 
L 185.166234 243.151273 
L 185.547642 242.923171 
L 186.691866 242.590131 
L 187.073274 242.256926 
L 187.83609 239.115443 
L 188.598906 213.403308 
L 189.361722 137.68173 
L 189.743131 101.374986 
L 190.124539 84.150701 
L 190.505947 80.321228 
L 190.887355 80.776238 
L 191.650171 44.64 
L 192.031579 60.388592 
L 192.412987 60.401807 
L 192.794395 93.177507 
L 193.175803 115.549512 
L 193.557211 179.438891 
L 193.938619 195.348989 
L 194.320027 233.118165 
L 194.701435 234.780251 
L 195.082843 239.549277 
L 195.464252 240.657064 
L 195.84566 241.30412 
L 196.227068 240.212844 
L 196.608476 240.545896 
L 196.989884 237.974554 
L 197.7527 236.562952 
L 198.134108 237.465207 
L 198.515516 237.920003 
L 198.896924 238.550268 
L 199.278332 239.610458 
L 199.65974 238.986223 
L 200.041148 239.636331 
L 200.422556 240.558715 
L 200.803964 241.134483 
L 201.185373 241.250866 
L 201.566781 242.098942 
L 201.948189 242.433041 
L 202.329597 242.226374 
L 202.711005 241.652813 
L 203.092413 240.74181 
L 203.473821 239.033736 
L 203.855229 241.240443 
L 204.618045 241.818016 
L 204.999453 241.844463 
L 205.380861 242.588493 
L 206.143677 242.353376 
L 206.906494 242.966551 
L 207.66931 242.99363 
L 208.050718 243.647739 
L 208.432126 243.418259 
L 208.813534 243.718011 
L 209.194942 243.264551 
L 209.57635 243.056802 
L 209.957758 242.994675 
L 210.339166 242.552765 
L 211.48339 242.475504 
L 212.627614 242.130311 
L 213.009023 242.527147 
L 213.771839 242.68663 
L 214.534655 243.17304 
L 214.916063 243.253832 
L 215.297471 243.70431 
L 215.678879 243.358048 
L 216.060287 242.841856 
L 217.204511 240.762603 
L 217.585919 240.397329 
L 217.967327 240.252332 
L 218.348735 240.274205 
L 218.730144 240.730072 
L 219.111552 240.654854 
L 219.49296 241.370146 
L 220.255776 240.40548 
L 220.637184 239.739797 
L 221.018592 238.567099 
L 221.4 238.862003 
L 221.781408 238.430696 
L 222.162816 238.323482 
L 222.925632 238.898531 
L 223.30704 240.939887 
L 223.688448 239.708492 
L 224.069856 239.997521 
L 224.832673 241.376415 
L 225.214081 240.839449 
L 225.595489 241.013053 
L 225.976897 240.640894 
L 226.739713 240.769082 
L 227.121121 241.363076 
L 227.502529 241.490095 
L 227.883937 242.685452 
L 228.646753 242.525535 
L 229.409569 243.268696 
L 229.790977 242.751254 
L 230.172386 242.696728 
L 230.935202 242.372066 
L 233.22365 242.827069 
L 233.605058 243.351989 
L 233.986466 243.548665 
L 234.367874 243.503348 
L 234.749282 243.169219 
L 235.13069 243.062856 
L 235.512098 243.118217 
L 235.893506 242.873868 
L 236.274915 242.772072 
L 237.037731 240.878115 
L 237.419139 240.618999 
L 237.800547 241.386143 
L 238.181955 241.768753 
L 238.563363 241.893718 
L 238.944771 242.288455 
L 239.326179 242.172717 
L 239.707587 241.610744 
L 240.088995 241.465106 
L 240.470403 240.844287 
L 240.851811 240.503712 
L 241.233219 240.351315 
L 241.614627 239.691388 
L 241.996036 239.698946 
L 242.377444 239.513642 
L 242.758852 240.459834 
L 243.14026 240.718333 
L 243.521668 241.403588 
L 243.903076 241.392111 
L 244.284484 242.061946 
L 245.428708 242.918937 
L 245.810116 242.520931 
L 246.572932 242.894995 
L 247.335748 241.742107 
L 247.717157 241.491799 
L 248.098565 242.188344 
L 248.479973 241.573387 
L 248.861381 241.322052 
L 249.242789 240.937521 
L 249.624197 240.829053 
L 250.005605 241.744951 
L 250.387013 242.054889 
L 250.768421 242.563979 
L 252.294053 242.371192 
L 253.438278 243.308561 
L 253.819686 243.313805 
L 254.201094 243.444367 
L 254.582502 243.887406 
L 254.96391 243.842065 
L 255.726726 243.120678 
L 256.108134 242.034808 
L 256.489542 241.288935 
L 256.87095 239.696775 
L 257.252358 240.375055 
L 257.633766 238.111097 
L 258.015174 237.645748 
L 258.396582 240.494739 
L 258.77799 241.227636 
L 259.540807 241.107105 
L 259.922215 241.437283 
L 260.303623 241.076237 
L 261.447847 242.889604 
L 261.829255 241.720804 
L 262.210663 241.697112 
L 262.592071 241.473696 
L 262.973479 241.031655 
L 263.354887 241.101115 
L 264.117703 241.819878 
L 264.880519 241.859497 
L 265.261928 242.174428 
L 266.024744 242.017534 
L 266.406152 242.253585 
L 266.78756 242.152313 
L 267.168968 242.218716 
L 267.550376 242.082175 
L 267.931784 242.223381 
L 268.313192 241.696134 
L 269.457416 242.835184 
L 269.838824 242.528143 
L 270.220232 242.569827 
L 270.60164 242.325393 
L 270.983049 242.941488 
L 271.745865 242.689228 
L 272.127273 243.029758 
L 272.890089 242.629351 
L 273.271497 242.884481 
L 274.415721 244.155037 
L 275.178537 244.46866 
L 275.559945 244.532625 
L 276.322761 243.724039 
L 276.70417 243.870481 
L 277.085578 243.872217 
L 277.848394 242.495112 
L 278.229802 242.12566 
L 278.992618 240.971067 
L 279.374026 240.435306 
L 279.755434 240.184759 
L 280.136842 239.062553 
L 280.51825 239.837715 
L 280.899658 239.981843 
L 281.281066 239.773801 
L 281.662474 239.70065 
L 282.043882 238.351762 
L 282.42529 238.905723 
L 282.806699 238.753223 
L 283.188107 239.400747 
L 283.569515 239.32083 
L 283.950923 238.296822 
L 284.332331 238.45736 
L 284.713739 238.353816 
L 285.095147 239.229995 
L 285.857963 240.317468 
L 286.239371 240.994715 
L 286.620779 241.22516 
L 287.002187 240.823067 
L 287.383595 240.752315 
L 287.765003 241.507089 
L 288.146411 241.154994 
L 288.52782 240.270565 
L 288.909228 240.696937 
L 289.290636 239.633187 
L 291.960492 243.800123 
L 292.3419 243.572905 
L 292.723308 243.484069 
L 293.104716 243.797476 
L 293.867532 243.54006 
L 294.248941 243.1076 
L 294.630349 242.870305 
L 295.011757 243.157044 
L 295.393165 242.616926 
L 295.774573 243.319868 
L 296.537389 243.793022 
L 296.918797 243.77304 
L 298.063021 242.904712 
L 298.444429 242.32032 
L 298.825837 242.026392 
L 299.207245 241.565677 
L 299.970062 241.384048 
L 300.35147 242.236604 
L 300.732878 242.443023 
L 301.114286 243.113512 
L 301.495694 243.331893 
L 303.402734 241.676199 
L 303.784142 241.213969 
L 304.546958 241.315096 
L 304.928366 241.846169 
L 305.309774 241.542047 
L 305.691183 241.499595 
L 306.072591 241.619421 
L 306.453999 241.556848 
L 306.835407 240.930686 
L 307.216815 238.813543 
L 307.979631 236.393156 
L 308.361039 234.484358 
L 308.742447 233.819452 
L 309.123855 234.03503 
L 309.505263 233.106659 
L 309.886671 234.71652 
L 310.268079 232.66453 
L 310.649487 232.364625 
L 311.030895 230.72532 
L 311.412303 226.924269 
L 311.793712 228.263092 
L 312.17512 224.834997 
L 312.556528 226.098562 
L 312.937936 226.651744 
L 313.319344 225.938239 
L 313.700752 225.57137 
L 314.08216 228.751458 
L 314.463568 230.926504 
L 314.844976 236.26212 
L 315.226384 235.612532 
L 315.607792 237.675683 
L 315.9892 238.262495 
L 316.370608 237.703891 
L 316.752016 237.484073 
L 317.133424 236.971154 
L 317.514833 237.632468 
L 317.896241 239.035855 
L 318.277649 237.54227 
L 318.659057 237.223537 
L 319.040465 235.78154 
L 319.421873 235.733155 
L 319.803281 236.069783 
L 320.184689 235.463501 
L 320.566097 233.158406 
L 321.328913 209.894761 
L 321.710321 202.167018 
L 322.473137 194.588455 
L 322.854545 194.801601 
L 323.235954 199.929543 
L 323.617362 198.917141 
L 323.99877 203.484716 
L 324.380178 214.018476 
L 324.761586 217.058356 
L 325.142994 228.413757 
L 325.524402 233.49811 
L 326.287218 236.429171 
L 326.668626 238.403806 
L 327.050034 239.102688 
L 327.431442 238.749131 
L 327.81285 239.672582 
L 328.194258 241.748759 
L 328.575666 241.419674 
L 328.957075 241.604648 
L 329.338483 242.327186 
L 329.719891 242.462984 
L 330.482707 243.078284 
L 331.245523 242.527149 
L 331.626931 242.265198 
L 332.389747 242.251049 
L 333.152563 242.329175 
L 333.533971 242.732437 
L 333.915379 242.90994 
L 334.296787 242.780663 
L 335.059604 242.163552 
L 335.441012 242.019939 
L 337.348052 242.827896 
L 338.110868 243.598118 
L 338.873684 243.79498 
L 339.255092 244.282843 
L 340.017908 243.495421 
L 340.780725 243.537225 
L 341.162133 243.157233 
L 341.543541 243.261234 
L 341.924949 242.312703 
L 342.687765 242.661646 
L 343.069173 241.577048 
L 343.450581 242.047935 
L 343.831989 241.173159 
L 344.594805 240.632265 
L 344.976213 240.211234 
L 345.357621 240.123778 
L 345.739029 239.775663 
L 346.120437 239.985725 
L 346.883254 241.214027 
L 347.264662 240.400709 
L 347.64607 241.222274 
L 348.408886 242.118626 
L 348.790294 242.148899 
L 349.171702 241.851297 
L 349.55311 242.028306 
L 349.934518 241.89669 
L 350.315926 241.567654 
L 350.697334 240.358523 
L 351.078742 240.05009 
L 351.46015 241.031672 
L 351.841558 240.49462 
L 352.222967 240.64733 
L 352.604375 241.079586 
L 352.985783 241.250794 
L 354.511415 243.614653 
L 354.892823 243.541243 
L 355.274231 243.654611 
L 355.655639 243.982583 
L 356.037047 243.938099 
L 356.799863 243.327459 
L 357.181271 242.717318 
L 357.944087 241.884446 
L 358.325496 241.470171 
L 358.706904 241.696398 
L 359.088312 240.709301 
L 359.46972 239.210397 
L 359.851128 238.443312 
L 360.232536 238.584043 
L 360.613944 243.669752 
L 361.37676 243.919829 
L 362.139576 243.380975 
L 362.520984 243.477783 
L 362.902392 243.111664 
L 363.2838 243.167011 
L 363.665208 243.398792 
L 364.046617 243.415596 
L 364.428025 243.640931 
L 364.809433 243.106466 
L 365.190841 243.129159 
L 365.572249 242.586129 
L 366.335065 243.0223 
L 366.716473 242.956475 
L 367.097881 243.035741 
L 367.479289 243.329757 
L 368.242105 242.683742 
L 368.623513 242.598933 
L 369.004921 241.247582 
L 369.386329 241.00015 
L 369.767738 238.65206 
L 370.149146 227.544805 
L 370.530554 229.926256 
L 370.911962 234.900677 
L 371.29337 235.5674 
L 371.674778 240.154673 
L 372.437594 241.864496 
L 372.819002 241.78437 
L 373.20041 242.018291 
L 373.581818 241.634317 
L 373.581818 241.634317 
" clip-path="url(#p3a7c18c40c)" style="fill: none; stroke: #1f77b4; stroke-width: 1.5; stroke-linecap: round"/>
   </g>
   <g id="line2d_18">
    <path d="M 69.218182 240.191637 
L 69.59959 241.548049 
L 69.980998 238.711915 
L 70.362406 240.949994 
L 70.743814 239.630576 
L 71.50663 240.000506 
L 71.888038 240.869843 
L 72.269446 234.883135 
L 72.650854 233.588378 
L 73.032262 231.245485 
L 73.795079 240.438257 
L 74.557895 240.012837 
L 74.939303 237.879571 
L 75.320711 238.089199 
L 75.702119 239.396286 
L 76.083527 239.192825 
L 76.464935 239.858699 
L 76.846343 241.948807 
L 77.227751 231.936022 
L 77.990567 236.381353 
L 78.371975 235.752471 
L 78.753383 233.853495 
L 79.134792 230.752245 
L 79.5162 233.088972 
L 80.279016 240.684878 
L 80.660424 241.282932 
L 81.041832 242.590019 
L 81.42324 242.929122 
L 81.804648 241.332256 
L 82.186056 242.035124 
L 82.567464 240.062161 
L 82.948872 242.23242 
L 83.33028 239.44561 
L 83.711688 240.876008 
L 84.093096 241.017815 
L 84.474504 242.035124 
L 84.855913 241.572711 
L 85.237321 242.047455 
L 85.618729 240.47525 
L 86.381545 241.905648 
L 86.762953 239.13117 
L 87.144361 242.096779 
L 87.525769 240.364271 
L 87.907177 236.184057 
L 88.288585 237.528138 
L 88.669993 236.52316 
L 89.051401 237.004069 
L 89.814217 239.316135 
L 90.195625 236.134733 
L 90.577033 234.64268 
L 90.958442 233.921316 
L 91.33985 235.080431 
L 91.721258 224.580571 
L 92.102666 235.018776 
L 92.484074 229.401998 
L 92.865482 229.161544 
L 93.24689 228.409352 
L 93.628298 228.988909 
L 94.009706 228.193559 
L 94.391114 235.820292 
L 94.772522 233.773343 
L 95.15393 237.941227 
L 95.535338 240.10532 
L 96.679563 239.470272 
L 97.442379 243.194239 
L 97.823787 241.511056 
L 98.205195 242.700999 
L 98.586603 242.466709 
L 98.968011 240.635553 
L 99.349419 241.067139 
L 100.112235 240.962325 
L 100.493643 238.872218 
L 101.256459 241.171953 
L 101.637867 239.02019 
L 102.019275 239.649072 
L 102.400684 239.667569 
L 102.782092 239.19899 
L 103.1635 234.722832 
L 103.544908 233.378751 
L 103.926316 235.512017 
L 104.689132 205.264035 
L 105.07054 200.652236 
L 105.451948 199.819892 
L 105.833356 207.489784 
L 106.214764 208.013852 
L 106.596172 231.387292 
L 106.97758 237.817916 
L 107.358988 237.330841 
L 107.740396 239.951182 
L 108.121805 240.253292 
L 108.503213 239.266811 
L 109.266029 239.44561 
L 110.028845 240.623222 
L 110.410253 240.765029 
L 110.791661 241.93031 
L 111.173069 242.127606 
L 111.554477 241.141125 
L 111.935885 241.011649 
L 112.317293 240.068327 
L 113.080109 243.212736 
L 113.461517 243.274391 
L 113.842925 243.897107 
L 114.224334 246.24 
L 114.605742 243.354542 
L 114.98715 245.191864 
L 116.131374 240.617057 
L 116.512782 243.305218 
L 116.89419 241.141125 
L 117.275598 242.164599 
L 117.657006 238.551612 
L 118.419822 237.306179 
L 118.80123 233.989136 
L 119.182638 227.798966 
L 119.564046 226.214431 
L 119.945455 232.51558 
L 120.326863 231.461278 
L 120.708271 237.74393 
L 121.089679 241.017815 
L 121.471087 240.795857 
L 121.852495 242.220089 
L 122.233903 241.56038 
L 122.615311 242.423551 
L 122.996719 240.074492 
L 123.378127 242.688668 
L 123.759535 239.457941 
L 124.140943 239.698396 
L 124.522351 234.938624 
L 124.903759 240.610891 
L 125.285167 235.894278 
L 125.666576 234.753659 
L 126.047984 238.415971 
L 126.429392 239.032521 
L 126.8108 238.681087 
L 127.192208 240.031334 
L 127.573616 240.234795 
L 127.955024 236.609477 
L 128.336432 234.568694 
L 128.71784 235.888112 
L 129.862064 242.084448 
L 130.243472 238.693419 
L 130.62488 241.807 
L 131.006288 237.842578 
L 131.387697 235.431865 
L 131.769105 237.31851 
L 132.150513 239.797044 
L 132.531921 240.882174 
L 132.913329 238.785901 
L 133.294737 238.970866 
L 133.676145 239.994341 
L 134.057553 239.704562 
L 134.438961 240.499912 
L 135.201777 233.280103 
L 136.346001 239.550424 
L 136.727409 239.303804 
L 137.108817 240.111485 
L 137.490226 242.787316 
L 137.871634 243.163412 
L 138.253042 242.848971 
L 138.63445 243.416197 
L 139.015858 242.922957 
L 139.397266 244.384182 
L 139.778674 244.032748 
L 140.160082 241.856324 
L 140.54149 241.979634 
L 140.922898 244.378017 
L 141.685714 241.807 
L 142.067122 242.331068 
L 142.44853 241.50489 
L 142.829938 241.208946 
L 143.211347 240.401264 
L 143.592755 241.4494 
L 143.974163 241.054808 
L 144.355571 239.575086 
L 144.736979 238.59477 
L 145.118387 235.444196 
L 145.499795 225.412915 
L 145.881203 224.124324 
L 146.262611 221.608797 
L 146.644019 229.371171 
L 147.025427 239.618245 
L 147.406835 242.05362 
L 147.788243 240.450588 
L 148.169651 240.462919 
L 148.551059 236.64647 
L 148.932468 235.0681 
L 149.313876 236.856097 
L 149.695284 242.23242 
L 150.076692 240.47525 
L 150.4581 244.020417 
L 150.839508 243.551839 
L 151.602324 240.641719 
L 151.983732 241.745345 
L 152.746548 240.820519 
L 153.127956 236.905421 
L 153.509364 236.177891 
L 153.890772 237.244524 
L 154.27218 237.941227 
L 154.653589 237.361669 
L 155.034997 228.594317 
L 155.797813 202.082633 
L 156.179221 199.819892 
L 156.560629 199.819892 
L 156.942037 221.4115 
L 157.323445 227.225574 
L 157.704853 236.375188 
L 158.086261 239.938851 
L 158.467669 240.610891 
L 158.849077 242.115275 
L 159.230485 244.476665 
L 159.611893 242.429716 
L 159.993301 242.941453 
L 160.37471 241.893317 
L 160.756118 242.651674 
L 161.137526 241.4494 
L 161.518934 238.909211 
L 161.900342 242.398889 
L 162.28175 244.088238 
L 162.663158 243.13875 
L 163.044566 242.787316 
L 163.425974 238.681087 
L 163.807382 240.000506 
L 164.18879 241.825496 
L 164.570198 241.548049 
L 164.951606 242.201592 
L 165.333014 239.864865 
L 165.714422 241.393911 
L 166.09583 240.555402 
L 166.477239 238.04604 
L 166.858647 234.636514 
L 167.240055 202.316923 
L 167.621463 223.402959 
L 168.384279 239.044852 
L 168.765687 238.915377 
L 169.147095 240.986987 
L 169.528503 240.086823 
L 169.909911 242.528364 
L 170.291319 240.629388 
L 170.672727 237.152042 
L 171.054135 238.483791 
L 171.435543 238.946204 
L 171.816951 237.873406 
L 172.19836 240.604726 
L 172.579768 241.948807 
L 173.342584 239.975844 
L 173.723992 242.065951 
L 174.1054 240.876008 
L 174.486808 241.430904 
L 175.249624 235.37021 
L 175.631032 238.607101 
L 176.01244 240.28412 
L 176.393848 239.457941 
L 176.775256 239.229818 
L 177.156664 239.155832 
L 177.919481 241.56038 
L 178.300889 244.038914 
L 178.682297 242.127606 
L 179.063705 242.392723 
L 179.445113 240.771195 
L 179.826521 240.715705 
L 180.207929 241.776172 
L 180.589337 238.113861 
L 180.970745 242.65784 
L 181.352153 242.226254 
L 181.733561 243.292887 
L 182.114969 242.676337 
L 182.496377 241.215111 
L 182.877785 242.318737 
L 183.259193 240.47525 
L 183.640602 240.210133 
L 184.02201 241.609704 
L 184.403418 241.430904 
L 184.784826 239.519597 
L 185.166234 239.02019 
L 185.547642 241.20278 
L 185.92905 239.482604 
L 186.310458 239.846368 
L 186.691866 239.815541 
L 187.073274 242.744157 
L 187.454682 243.13875 
L 187.83609 241.073305 
L 188.217498 241.208946 
L 188.598906 237.589793 
L 189.361722 199.819892 
L 192.794395 199.819892 
L 193.175803 206.947219 
L 193.557211 227.102264 
L 193.938619 235.462692 
L 194.320027 240.456754 
L 194.701435 240.740367 
L 195.082843 239.494935 
L 195.464252 237.355503 
L 195.84566 237.842578 
L 196.608476 228.125738 
L 196.989884 217.40392 
L 197.371292 210.091628 
L 197.7527 225.634873 
L 198.134108 232.719041 
L 198.896924 237.410993 
L 199.278332 235.968264 
L 199.65974 238.656425 
L 200.041148 238.736577 
L 200.422556 240.610891 
L 200.803964 238.120026 
L 201.185373 236.862263 
L 201.566781 238.748908 
L 201.948189 238.422136 
L 202.329597 239.328466 
L 202.711005 237.238359 
L 203.092413 237.663779 
L 203.473821 241.430904 
L 203.855229 241.418573 
L 204.236637 242.244751 
L 204.618045 244.088238 
L 204.999453 243.397701 
L 205.380861 241.905648 
L 205.762269 240.980822 
L 206.143677 242.645509 
L 206.525085 243.440859 
L 207.287902 242.83664 
L 207.66931 241.153456 
L 208.050718 242.664006 
L 208.432126 242.238585 
L 208.813534 244.143727 
L 209.57635 243.151081 
L 209.957758 244.020417 
L 210.339166 243.058598 
L 210.720574 239.55659 
L 211.48339 241.412407 
L 211.864798 243.656652 
L 212.246206 242.879798 
L 212.627614 243.009274 
L 213.009023 241.572711 
L 213.390431 242.115275 
L 213.771839 236.70196 
L 214.153247 240.333444 
L 214.534655 239.25448 
L 214.916063 239.223652 
L 215.297471 239.365459 
L 215.678879 241.733014 
L 216.060287 240.647884 
L 216.441695 242.953784 
L 216.823103 241.097967 
L 217.204511 241.954972 
L 217.585919 242.05362 
L 217.967327 241.880986 
L 218.348735 242.213923 
L 218.730144 242.133772 
L 219.111552 242.559192 
L 219.49296 240.894505 
L 219.874368 240.327278 
L 220.255776 240.586229 
L 220.637184 237.0164 
L 221.018592 232.250463 
L 221.4 234.870804 
L 221.781408 234.581025 
L 222.544224 239.143501 
L 222.925632 238.711915 
L 223.30704 239.852534 
L 223.688448 238.113861 
L 224.069856 240.290285 
L 224.451265 240.210133 
L 224.832673 240.660215 
L 225.214081 242.725661 
L 225.595489 243.582666 
L 225.976897 244.075907 
L 226.358305 242.374227 
L 226.739713 243.816955 
L 227.121121 242.294075 
L 227.502529 241.252104 
L 227.883937 240.684878 
L 228.265345 241.68369 
L 228.646753 237.386331 
L 229.028161 241.492559 
L 229.409569 238.755074 
L 229.790977 242.522199 
L 230.172386 241.967303 
L 230.553794 237.756261 
L 230.935202 243.594997 
L 231.31661 241.831662 
L 231.698018 241.289097 
L 232.079426 240.265623 
L 232.460834 241.529552 
L 232.842242 240.691043 
L 233.22365 241.13496 
L 233.605058 241.060973 
L 233.986466 243.447025 
L 234.367874 242.035124 
L 234.749282 241.991965 
L 235.13069 242.522199 
L 235.512098 241.893317 
L 235.893506 240.247126 
L 236.656323 235.512017 
L 237.037731 226.010969 
L 237.419139 210.2396 
L 238.181955 234.087784 
L 238.944771 239.026356 
L 239.326179 237.417158 
L 240.088995 237.503476 
L 240.470403 241.387745 
L 240.851811 242.35573 
L 241.233219 241.646697 
L 241.614627 241.319925 
L 241.996036 240.253292 
L 242.377444 241.110298 
L 242.758852 235.179079 
L 243.14026 238.341985 
L 243.521668 230.998865 
L 243.903076 236.480001 
L 244.284484 239.359293 
L 244.665892 240.160809 
L 245.0473 238.804398 
L 245.428708 238.083033 
L 245.810116 232.799193 
L 246.191524 221.393004 
L 246.572932 228.668303 
L 246.95434 233.415744 
L 247.335748 227.971601 
L 247.717157 229.747267 
L 248.098565 238.144688 
L 248.479973 238.187847 
L 248.861381 240.684878 
L 249.242789 242.170765 
L 249.624197 241.794669 
L 250.005605 243.064764 
L 250.387013 243.7553 
L 250.768421 243.619659 
L 251.531237 240.90067 
L 251.912645 236.085409 
L 252.294053 240.037499 
L 252.675461 241.757676 
L 253.056869 241.412407 
L 253.438278 243.188074 
L 253.819686 244.353355 
L 254.201094 242.195427 
L 254.582502 241.788503 
L 254.96391 243.761466 
L 255.345318 238.212509 
L 255.726726 240.481416 
L 256.108134 236.960911 
L 256.489542 238.132357 
L 256.87095 236.443008 
L 257.252358 240.364271 
L 257.633766 235.105093 
L 258.396582 208.328293 
L 258.77799 237.337007 
L 259.159398 240.962325 
L 259.540807 239.229818 
L 259.922215 239.938851 
L 260.303623 238.637929 
L 260.685031 241.32609 
L 261.066439 242.380392 
L 261.447847 242.343399 
L 261.829255 242.620847 
L 262.210663 241.073305 
L 262.592071 243.539508 
L 262.973479 241.905648 
L 263.354887 241.406242 
L 263.736295 242.935288 
L 264.117703 242.226254 
L 264.499111 243.040101 
L 264.880519 241.467897 
L 265.261928 239.211321 
L 265.643336 240.253292 
L 266.024744 242.010462 
L 266.406152 243.003108 
L 266.78756 241.893317 
L 267.168968 243.594997 
L 267.550376 241.640531 
L 267.931784 241.159622 
L 268.313192 235.142086 
L 268.6946 237.423324 
L 269.076008 238.089199 
L 269.457416 238.157019 
L 269.838824 233.54522 
L 270.220232 234.21726 
L 270.60164 237.965889 
L 270.983049 237.694606 
L 271.364457 238.378978 
L 271.745865 241.13496 
L 272.508681 237.090386 
L 272.890089 240.388933 
L 273.271497 241.25827 
L 273.652905 242.466709 
L 274.034313 242.855136 
L 274.415721 244.378017 
L 275.178537 239.846368 
L 275.559945 243.366873 
L 275.941353 241.665193 
L 276.322761 242.41122 
L 276.70417 242.60235 
L 277.085578 239.174328 
L 277.466986 243.132584 
L 277.848394 242.898295 
L 278.229802 244.149893 
L 278.61121 242.516033 
L 278.992618 242.750323 
L 279.374026 240.358106 
L 279.755434 241.437069 
L 280.136842 239.840203 
L 280.51825 241.110298 
L 280.899658 238.995528 
L 281.281066 238.120026 
L 281.662474 235.992926 
L 282.043882 237.31851 
L 282.42529 240.203968 
L 282.806699 238.940039 
L 283.188107 239.969679 
L 283.950923 241.276766 
L 284.332331 241.313759 
L 284.713739 240.851346 
L 285.095147 239.235983 
L 285.476555 240.025168 
L 285.857963 241.455566 
L 286.239371 241.097967 
L 286.620779 241.720683 
L 287.002187 238.835225 
L 287.383595 239.846368 
L 287.765003 237.842578 
L 288.146411 234.414556 
L 288.52782 235.586003 
L 288.909228 236.085409 
L 289.672044 240.376602 
L 290.053452 239.13117 
L 290.43486 235.641492 
L 290.816268 236.270374 
L 291.197676 238.946204 
L 291.579084 242.41122 
L 291.960492 242.022793 
L 292.3419 241.270601 
L 292.723308 240.986987 
L 293.104716 242.059786 
L 293.486124 242.768819 
L 293.867532 241.887152 
L 294.248941 241.850158 
L 294.630349 242.374227 
L 295.011757 243.853948 
L 295.393165 244.2917 
L 295.774573 242.565357 
L 296.155981 242.873633 
L 296.537389 241.936476 
L 297.300205 245.629615 
L 297.681613 244.846595 
L 298.063021 241.165787 
L 298.444429 241.282932 
L 298.825837 240.660215 
L 299.207245 241.541883 
L 299.588653 239.211321 
L 299.970062 240.851346 
L 300.35147 240.580064 
L 300.732878 236.208719 
L 301.114286 238.681087 
L 301.495694 238.194012 
L 301.877102 236.843766 
L 302.639918 241.696021 
L 303.021326 241.264435 
L 303.402734 241.535718 
L 303.784142 241.153456 
L 304.16555 241.578876 
L 304.546958 241.424738 
L 304.928366 242.984612 
L 305.309774 242.774985 
L 305.691183 242.201592 
L 307.216815 238.113861 
L 307.598223 234.334405 
L 307.979631 233.088972 
L 308.361039 233.557551 
L 308.742447 232.719041 
L 309.123855 228.951916 
L 309.505263 228.218221 
L 309.886671 230.770741 
L 310.268079 230.807734 
L 310.649487 230.400811 
L 311.030895 227.786635 
L 311.412303 232.916338 
L 311.793712 230.622769 
L 312.17512 229.414329 
L 312.556528 233.088972 
L 312.937936 231.54143 
L 313.319344 232.201139 
L 314.08216 226.87414 
L 314.844976 238.600936 
L 315.226384 240.586229 
L 315.607792 235.518182 
L 315.9892 232.971827 
L 316.370608 236.110071 
L 316.752016 235.752471 
L 317.133424 236.917752 
L 317.514833 240.277954 
L 317.896241 240.40743 
L 318.277649 240.203968 
L 318.659057 241.418573 
L 319.040465 236.122402 
L 319.421873 237.571296 
L 319.803281 238.033709 
L 320.184689 238.674922 
L 320.566097 239.889527 
L 320.947505 236.615642 
L 321.328913 234.759825 
L 321.710321 236.264208 
L 322.091729 235.0681 
L 322.473137 233.502061 
L 322.854545 238.841391 
L 323.617362 235.592168 
L 323.99877 226.701506 
L 324.380178 232.219635 
L 324.761586 235.444196 
L 325.142994 236.060747 
L 325.524402 239.6799 
L 325.90581 239.094177 
L 326.287218 240.839015 
L 326.668626 240.869843 
L 327.050034 242.269413 
L 327.431442 241.856324 
L 327.81285 238.847556 
L 328.194258 240.117651 
L 328.575666 239.297638 
L 328.957075 240.999318 
L 329.338483 241.50489 
L 329.719891 240.59856 
L 330.101299 240.388933 
L 330.864115 242.633178 
L 331.245523 241.825496 
L 331.626931 242.855136 
L 332.008339 242.368061 
L 332.389747 242.331068 
L 332.771155 241.393911 
L 333.152563 239.834037 
L 333.533971 239.6799 
L 333.915379 238.397474 
L 334.296787 237.639117 
L 334.678195 240.580064 
L 335.441012 240.296451 
L 335.82242 242.805812 
L 336.203828 240.210133 
L 336.585236 243.243563 
L 336.966644 242.756488 
L 337.348052 244.920581 
L 337.72946 245.321339 
L 338.110868 243.514846 
L 338.492276 244.735616 
L 338.873684 243.693645 
L 339.255092 241.56038 
L 339.6365 244.396513 
L 340.017908 241.917979 
L 340.399316 242.503702 
L 340.780725 242.300241 
L 341.162133 240.099154 
L 341.543541 240.931498 
L 341.924949 235.450361 
L 342.687765 240.308782 
L 343.069173 240.419761 
L 343.450581 242.207758 
L 344.213397 243.440859 
L 344.594805 240.660215 
L 344.976213 241.171953 
L 345.739029 241.147291 
L 346.120437 241.264435 
L 346.501846 241.030146 
L 346.883254 242.028958 
L 347.264662 239.180494 
L 347.64607 241.091801 
L 348.408886 237.454151 
L 348.790294 232.823855 
L 349.171702 234.013798 
L 349.55311 237.170538 
L 349.934518 237.805585 
L 350.315926 238.841391 
L 350.697334 234.8893 
L 351.078742 233.625371 
L 351.46015 238.600936 
L 351.841558 239.760051 
L 352.222967 242.078282 
L 352.604375 241.097967 
L 352.985783 241.720683 
L 353.367191 241.874821 
L 353.748599 242.201592 
L 354.130007 241.178118 
L 354.511415 241.319925 
L 354.892823 241.874821 
L 355.274231 238.82906 
L 355.655639 241.856324 
L 356.037047 243.397701 
L 356.418455 244.05741 
L 356.799863 244.038914 
L 357.181271 243.410032 
L 357.562679 243.003108 
L 357.944087 242.28791 
L 358.325496 240.456754 
L 358.706904 239.741555 
L 359.088312 238.409805 
L 359.46972 234.032295 
L 359.851128 227.811297 
L 360.232536 204.28372 
L 360.995352 236.16556 
L 361.37676 238.625598 
L 361.758168 237.515807 
L 362.139576 240.185471 
L 362.520984 235.209907 
L 362.902392 207.878211 
L 363.2838 213.612133 
L 363.665208 217.558058 
L 364.046617 233.939812 
L 364.428025 240.006672 
L 364.809433 240.506078 
L 365.190841 242.127606 
L 365.572249 238.810563 
L 365.953657 240.259457 
L 366.335065 240.382768 
L 366.716473 240.037499 
L 367.097881 240.179306 
L 367.479289 239.457941 
L 367.860697 239.969679 
L 368.242105 238.736577 
L 368.623513 239.975844 
L 369.004921 230.394645 
L 369.386329 204.863277 
L 369.767738 199.819892 
L 370.530554 199.819892 
L 370.911962 206.084048 
L 371.29337 217.539561 
L 371.674778 220.474343 
L 372.056186 232.349111 
L 372.437594 233.73635 
L 372.819002 239.334631 
L 373.20041 238.181681 
L 373.581818 225.616377 
L 373.581818 225.616377 
" clip-path="url(#p3a7c18c40c)" style="fill: none; stroke: #ff7f0e; stroke-width: 1.5; stroke-linecap: round"/>
   </g>
   <g id="patch_3">
    <path d="M 54 256.32 
L 54 34.56 
" style="fill: none; stroke: #ffffff; stroke-width: 0.8; stroke-linejoin: miter; stroke-linecap: square"/>
   </g>
   <g id="patch_4">
    <path d="M 388.8 256.32 
L 388.8 34.56 
" style="fill: none; stroke: #ffffff; stroke-width: 0.8; stroke-linejoin: miter; stroke-linecap: square"/>
   </g>
   <g id="patch_5">
    <path d="M 54 256.32 
L 388.8 256.32 
" style="fill: none; stroke: #ffffff; stroke-width: 0.8; stroke-linejoin: miter; stroke-linecap: square"/>
   </g>
   <g id="patch_6">
    <path d="M 54 34.56 
L 388.8 34.56 
" style="fill: none; stroke: #ffffff; stroke-width: 0.8; stroke-linejoin: miter; stroke-linecap: square"/>
   </g>
   <g id="text_19">
    <!-- Protein complex's vibration profile (asymmetric unit) -->
    <g style="fill: #262626" transform="translate(84.216563 28.56) scale(0.12 -0.12)">
     <defs>
      <path id="ArialMT-50" d="M 494 0 
L 494 4581 
L 2222 4581 
Q 2678 4581 2919 4538 
Q 3256 4481 3484 4323 
Q 3713 4166 3852 3881 
Q 3991 3597 3991 3256 
Q 3991 2672 3619 2267 
Q 3247 1863 2275 1863 
L 1100 1863 
L 1100 0 
L 494 0 
z
M 1100 2403 
L 2284 2403 
Q 2872 2403 3119 2622 
Q 3366 2841 3366 3238 
Q 3366 3525 3220 3729 
Q 3075 3934 2838 4000 
Q 2684 4041 2272 4041 
L 1100 4041 
L 1100 2403 
z
" transform="scale(0.015625)"/>
      <path id="ArialMT-70" d="M 422 -1272 
L 422 3319 
L 934 3319 
L 934 2888 
Q 1116 3141 1344 3267 
Q 1572 3394 1897 3394 
Q 2322 3394 2647 3175 
Q 2972 2956 3137 2557 
Q 3303 2159 3303 1684 
Q 3303 1175 3120 767 
Q 2938 359 2589 142 
Q 2241 -75 1856 -75 
Q 1575 -75 1351 44 
Q 1128 163 984 344 
L 984 -1272 
L 422 -1272 
z
M 931 1641 
Q 931 1000 1190 694 
Q 1450 388 1819 388 
Q 2194 388 2461 705 
Q 2728 1022 2728 1688 
Q 2728 2322 2467 2637 
Q 2206 2953 1844 2953 
Q 1484 2953 1207 2617 
Q 931 2281 931 1641 
z
" transform="scale(0.015625)"/>
      <path id="ArialMT-6c" d="M 409 0 
L 409 4581 
L 972 4581 
L 972 0 
L 409 0 
z
" transform="scale(0.015625)"/>
      <path id="ArialMT-78" d="M 47 0 
L 1259 1725 
L 138 3319 
L 841 3319 
L 1350 2541 
Q 1494 2319 1581 2169 
Q 1719 2375 1834 2534 
L 2394 3319 
L 3066 3319 
L 1919 1756 
L 3153 0 
L 2463 0 
L 1781 1031 
L 1600 1309 
L 728 0 
L 47 0 
z
" transform="scale(0.015625)"/>
      <path id="ArialMT-27" d="M 425 2959 
L 281 3816 
L 281 4581 
L 922 4581 
L 922 3816 
L 772 2959 
L 425 2959 
z
" transform="scale(0.015625)"/>
      <path id="ArialMT-76" d="M 1344 0 
L 81 3319 
L 675 3319 
L 1388 1331 
Q 1503 1009 1600 663 
Q 1675 925 1809 1294 
L 2547 3319 
L 3125 3319 
L 1869 0 
L 1344 0 
z
" transform="scale(0.015625)"/>
      <path id="ArialMT-79" d="M 397 -1278 
L 334 -750 
Q 519 -800 656 -800 
Q 844 -800 956 -737 
Q 1069 -675 1141 -563 
Q 1194 -478 1313 -144 
Q 1328 -97 1363 -6 
L 103 3319 
L 709 3319 
L 1400 1397 
Q 1534 1031 1641 628 
Q 1738 1016 1872 1384 
L 2581 3319 
L 3144 3319 
L 1881 -56 
Q 1678 -603 1566 -809 
Q 1416 -1088 1222 -1217 
Q 1028 -1347 759 -1347 
Q 597 -1347 397 -1278 
z
" transform="scale(0.015625)"/>
     </defs>
     <use xlink:href="#ArialMT-50"/>
     <use xlink:href="#ArialMT-72" x="66.699219"/>
     <use xlink:href="#ArialMT-6f" x="100"/>
     <use xlink:href="#ArialMT-74" x="155.615234"/>
     <use xlink:href="#ArialMT-65" x="183.398438"/>
     <use xlink:href="#ArialMT-69" x="239.013672"/>
     <use xlink:href="#ArialMT-6e" x="261.230469"/>
     <use xlink:href="#ArialMT-20" x="316.845703"/>
     <use xlink:href="#ArialMT-63" x="344.628906"/>
     <use xlink:href="#ArialMT-6f" x="394.628906"/>
     <use xlink:href="#ArialMT-6d" x="450.244141"/>
     <use xlink:href="#ArialMT-70" x="533.544922"/>
     <use xlink:href="#ArialMT-6c" x="589.160156"/>
     <use xlink:href="#ArialMT-65" x="611.376953"/>
     <use xlink:href="#ArialMT-78" x="666.992188"/>
     <use xlink:href="#ArialMT-27" x="716.992188"/>
     <use xlink:href="#ArialMT-73" x="736.083984"/>
     <use xlink:href="#ArialMT-20" x="786.083984"/>
     <use xlink:href="#ArialMT-76" x="813.867188"/>
     <use xlink:href="#ArialMT-69" x="863.867188"/>
     <use xlink:href="#ArialMT-62" x="886.083984"/>
     <use xlink:href="#ArialMT-72" x="941.699219"/>
     <use xlink:href="#ArialMT-61" x="975"/>
     <use xlink:href="#ArialMT-74" x="1030.615234"/>
     <use xlink:href="#ArialMT-69" x="1058.398438"/>
     <use xlink:href="#ArialMT-6f" x="1080.615234"/>
     <use xlink:href="#ArialMT-6e" x="1136.230469"/>
     <use xlink:href="#ArialMT-20" x="1191.845703"/>
     <use xlink:href="#ArialMT-70" x="1219.628906"/>
     <use xlink:href="#ArialMT-72" x="1275.244141"/>
     <use xlink:href="#ArialMT-6f" x="1308.544922"/>
     <use xlink:href="#ArialMT-66" x="1364.160156"/>
     <use xlink:href="#ArialMT-69" x="1391.943359"/>
     <use xlink:href="#ArialMT-6c" x="1414.160156"/>
     <use xlink:href="#ArialMT-65" x="1436.376953"/>
     <use xlink:href="#ArialMT-20" x="1491.992188"/>
     <use xlink:href="#ArialMT-28" x="1519.775391"/>
     <use xlink:href="#ArialMT-61" x="1553.076172"/>
     <use xlink:href="#ArialMT-73" x="1608.691406"/>
     <use xlink:href="#ArialMT-79" x="1658.691406"/>
     <use xlink:href="#ArialMT-6d" x="1708.691406"/>
     <use xlink:href="#ArialMT-6d" x="1791.992188"/>
     <use xlink:href="#ArialMT-65" x="1875.292969"/>
     <use xlink:href="#ArialMT-74" x="1930.908203"/>
     <use xlink:href="#ArialMT-72" x="1958.691406"/>
     <use xlink:href="#ArialMT-69" x="1991.992188"/>
     <use xlink:href="#ArialMT-63" x="2014.208984"/>
     <use xlink:href="#ArialMT-20" x="2064.208984"/>
     <use xlink:href="#ArialMT-75" x="2091.992188"/>
     <use xlink:href="#ArialMT-6e" x="2147.607422"/>
     <use xlink:href="#ArialMT-69" x="2203.222656"/>
     <use xlink:href="#ArialMT-74" x="2225.439453"/>
     <use xlink:href="#ArialMT-29" x="2253.222656"/>
    </g>
   </g>
   <g id="legend_1">
    <g id="line2d_19">
     <path d="M 293.44375 47.217813 
L 303.44375 47.217813 
L 313.44375 47.217813 
" style="fill: none; stroke: #1f77b4; stroke-width: 1.5; stroke-linecap: round"/>
    </g>
    <g id="text_20">
     <!-- Predicted -->
     <g style="fill: #262626" transform="translate(321.44375 50.717813) scale(0.1 -0.1)">
      <use xlink:href="#ArialMT-50"/>
      <use xlink:href="#ArialMT-72" x="66.699219"/>
      <use xlink:href="#ArialMT-65" x="100"/>
      <use xlink:href="#ArialMT-64" x="155.615234"/>
      <use xlink:href="#ArialMT-69" x="211.230469"/>
      <use xlink:href="#ArialMT-63" x="233.447266"/>
      <use xlink:href="#ArialMT-74" x="283.447266"/>
      <use xlink:href="#ArialMT-65" x="311.230469"/>
      <use xlink:href="#ArialMT-64" x="366.845703"/>
     </g>
    </g>
    <g id="line2d_20">
     <path d="M 293.44375 61.363125 
L 303.44375 61.363125 
L 313.44375 61.363125 
" style="fill: none; stroke: #ff7f0e; stroke-width: 1.5; stroke-linecap: round"/>
    </g>
    <g id="text_21">
     <!-- Experimental -->
     <g style="fill: #262626" transform="translate(321.44375 64.863125) scale(0.1 -0.1)">
      <defs>
       <path id="ArialMT-45" d="M 506 0 
L 506 4581 
L 3819 4581 
L 3819 4041 
L 1113 4041 
L 1113 2638 
L 3647 2638 
L 3647 2100 
L 1113 2100 
L 1113 541 
L 3925 541 
L 3925 0 
L 506 0 
z
" transform="scale(0.015625)"/>
      </defs>
      <use xlink:href="#ArialMT-45"/>
      <use xlink:href="#ArialMT-78" x="66.699219"/>
      <use xlink:href="#ArialMT-70" x="116.699219"/>
      <use xlink:href="#ArialMT-65" x="172.314453"/>
      <use xlink:href="#ArialMT-72" x="227.929688"/>
      <use xlink:href="#ArialMT-69" x="261.230469"/>
      <use xlink:href="#ArialMT-6d" x="283.447266"/>
      <use xlink:href="#ArialMT-65" x="366.748047"/>
      <use xlink:href="#ArialMT-6e" x="422.363281"/>
      <use xlink:href="#ArialMT-74" x="477.978516"/>
      <use xlink:href="#ArialMT-61" x="505.761719"/>
      <use xlink:href="#ArialMT-6c" x="561.376953"/>
     </g>
    </g>
   </g>
  </g>
 </g>
 <defs>
  <clipPath id="p3a7c18c40c">
   <rect x="54" y="34.56" width="334.8" height="221.76"/>
  </clipPath>
 </defs>
</svg>
