<?xml version="1.0" encoding="utf-8" standalone="no"?>
<!DOCTYPE svg PUBLIC "-//W3C//DTD SVG 1.1//EN"
  "http://www.w3.org/Graphics/SVG/1.1/DTD/svg11.dtd">
<svg xmlns:xlink="http://www.w3.org/1999/xlink" width="432pt" height="288pt" viewBox="0 0 432 288" xmlns="http://www.w3.org/2000/svg" version="1.1">
 <metadata>
  <rdf:RDF xmlns:dc="http://purl.org/dc/elements/1.1/" xmlns:cc="http://creativecommons.org/ns#" xmlns:rdf="http://www.w3.org/1999/02/22-rdf-syntax-ns#">
   <cc:Work>
    <dc:type rdf:resource="http://purl.org/dc/dcmitype/StillImage"/>
    <dc:date>2023-10-06T16:16:34.377017</dc:date>
    <dc:format>image/svg+xml</dc:format>
    <dc:creator>
     <cc:Agent>
      <dc:title>Matplotlib v3.7.2, https://matplotlib.org/</dc:title>
     </cc:Agent>
    </dc:creator>
   </cc:Work>
  </rdf:RDF>
 </metadata>
 <defs>
  <style type="text/css">*{stroke-linejoin: round; stroke-linecap: butt}</style>
 </defs>
 <g id="figure_1">
  <g id="patch_1">
   <path d="M 0 288 
L 432 288 
L 432 0 
L 0 0 
z
" style="fill: #ffffff"/>
  </g>
  <g id="axes_1">
   <g id="patch_2">
    <path d="M 54 256.32 
L 388.8 256.32 
L 388.8 34.56 
L 54 34.56 
z
" style="fill: #eaeaf2"/>
   </g>
   <g id="matplotlib.axis_1">
    <g id="xtick_1">
     <g id="line2d_1">
      <path d="M 68.830951 256.32 
L 68.830951 34.56 
" clip-path="url(#pbe8620f01f)" style="fill: none; stroke: #ffffff; stroke-width: 0.8; stroke-linecap: round"/>
     </g>
     <g id="text_1">
      <!-- 0 -->
      <g style="fill: #262626" transform="translate(65.649701 270.918437) scale(0.1 -0.1)">
       <defs>
        <path id="DejaVuSans-30" d="M 2034 4250 
Q 1547 4250 1301 3770 
Q 1056 3291 1056 2328 
Q 1056 1369 1301 889 
Q 1547 409 2034 409 
Q 2525 409 2770 889 
Q 3016 1369 3016 2328 
Q 3016 3291 2770 3770 
Q 2525 4250 2034 4250 
z
M 2034 4750 
Q 2819 4750 3233 4129 
Q 3647 3509 3647 2328 
Q 3647 1150 3233 529 
Q 2819 -91 2034 -91 
Q 1250 -91 836 529 
Q 422 1150 422 2328 
Q 422 3509 836 4129 
Q 1250 4750 2034 4750 
z
" transform="scale(0.015625)"/>
       </defs>
       <use xlink:href="#DejaVuSans-30"/>
      </g>
     </g>
    </g>
    <g id="xtick_2">
     <g id="line2d_2">
      <path d="M 107.55406 256.32 
L 107.55406 34.56 
" clip-path="url(#pbe8620f01f)" style="fill: none; stroke: #ffffff; stroke-width: 0.8; stroke-linecap: round"/>
     </g>
     <g id="text_2">
      <!-- 100 -->
      <g style="fill: #262626" transform="translate(98.01031 270.918437) scale(0.1 -0.1)">
       <defs>
        <path id="DejaVuSans-31" d="M 794 531 
L 1825 531 
L 1825 4091 
L 703 3866 
L 703 4441 
L 1819 4666 
L 2450 4666 
L 2450 531 
L 3481 531 
L 3481 0 
L 794 0 
L 794 531 
z
" transform="scale(0.015625)"/>
       </defs>
       <use xlink:href="#DejaVuSans-31"/>
       <use xlink:href="#DejaVuSans-30" x="63.623047"/>
       <use xlink:href="#DejaVuSans-30" x="127.246094"/>
      </g>
     </g>
    </g>
    <g id="xtick_3">
     <g id="line2d_3">
      <path d="M 146.277169 256.32 
L 146.277169 34.56 
" clip-path="url(#pbe8620f01f)" style="fill: none; stroke: #ffffff; stroke-width: 0.8; stroke-linecap: round"/>
     </g>
     <g id="text_3">
      <!-- 200 -->
      <g style="fill: #262626" transform="translate(136.733419 270.918437) scale(0.1 -0.1)">
       <defs>
        <path id="DejaVuSans-32" d="M 1228 531 
L 3431 531 
L 3431 0 
L 469 0 
L 469 531 
Q 828 903 1448 1529 
Q 2069 2156 2228 2338 
Q 2531 2678 2651 2914 
Q 2772 3150 2772 3378 
Q 2772 3750 2511 3984 
Q 2250 4219 1831 4219 
Q 1534 4219 1204 4116 
Q 875 4013 500 3803 
L 500 4441 
Q 881 4594 1212 4672 
Q 1544 4750 1819 4750 
Q 2544 4750 2975 4387 
Q 3406 4025 3406 3419 
Q 3406 3131 3298 2873 
Q 3191 2616 2906 2266 
Q 2828 2175 2409 1742 
Q 1991 1309 1228 531 
z
" transform="scale(0.015625)"/>
       </defs>
       <use xlink:href="#DejaVuSans-32"/>
       <use xlink:href="#DejaVuSans-30" x="63.623047"/>
       <use xlink:href="#DejaVuSans-30" x="127.246094"/>
      </g>
     </g>
    </g>
    <g id="xtick_4">
     <g id="line2d_4">
      <path d="M 185.000278 256.32 
L 185.000278 34.56 
" clip-path="url(#pbe8620f01f)" style="fill: none; stroke: #ffffff; stroke-width: 0.8; stroke-linecap: round"/>
     </g>
     <g id="text_4">
      <!-- 300 -->
      <g style="fill: #262626" transform="translate(175.456528 270.918437) scale(0.1 -0.1)">
       <defs>
        <path id="DejaVuSans-33" d="M 2597 2516 
Q 3050 2419 3304 2112 
Q 3559 1806 3559 1356 
Q 3559 666 3084 287 
Q 2609 -91 1734 -91 
Q 1441 -91 1130 -33 
Q 819 25 488 141 
L 488 750 
Q 750 597 1062 519 
Q 1375 441 1716 441 
Q 2309 441 2620 675 
Q 2931 909 2931 1356 
Q 2931 1769 2642 2001 
Q 2353 2234 1838 2234 
L 1294 2234 
L 1294 2753 
L 1863 2753 
Q 2328 2753 2575 2939 
Q 2822 3125 2822 3475 
Q 2822 3834 2567 4026 
Q 2313 4219 1838 4219 
Q 1578 4219 1281 4162 
Q 984 4106 628 3988 
L 628 4550 
Q 988 4650 1302 4700 
Q 1616 4750 1894 4750 
Q 2613 4750 3031 4423 
Q 3450 4097 3450 3541 
Q 3450 3153 3228 2886 
Q 3006 2619 2597 2516 
z
" transform="scale(0.015625)"/>
       </defs>
       <use xlink:href="#DejaVuSans-33"/>
       <use xlink:href="#DejaVuSans-30" x="63.623047"/>
       <use xlink:href="#DejaVuSans-30" x="127.246094"/>
      </g>
     </g>
    </g>
    <g id="xtick_5">
     <g id="line2d_5">
      <path d="M 223.723387 256.32 
L 223.723387 34.56 
" clip-path="url(#pbe8620f01f)" style="fill: none; stroke: #ffffff; stroke-width: 0.8; stroke-linecap: round"/>
     </g>
     <g id="text_5">
      <!-- 400 -->
      <g style="fill: #262626" transform="translate(214.179637 270.918437) scale(0.1 -0.1)">
       <defs>
        <path id="DejaVuSans-34" d="M 2419 4116 
L 825 1625 
L 2419 1625 
L 2419 4116 
z
M 2253 4666 
L 3047 4666 
L 3047 1625 
L 3713 1625 
L 3713 1100 
L 3047 1100 
L 3047 0 
L 2419 0 
L 2419 1100 
L 313 1100 
L 313 1709 
L 2253 4666 
z
" transform="scale(0.015625)"/>
       </defs>
       <use xlink:href="#DejaVuSans-34"/>
       <use xlink:href="#DejaVuSans-30" x="63.623047"/>
       <use xlink:href="#DejaVuSans-30" x="127.246094"/>
      </g>
     </g>
    </g>
    <g id="xtick_6">
     <g id="line2d_6">
      <path d="M 262.446495 256.32 
L 262.446495 34.56 
" clip-path="url(#pbe8620f01f)" style="fill: none; stroke: #ffffff; stroke-width: 0.8; stroke-linecap: round"/>
     </g>
     <g id="text_6">
      <!-- 500 -->
      <g style="fill: #262626" transform="translate(252.902745 270.918437) scale(0.1 -0.1)">
       <defs>
        <path id="DejaVuSans-35" d="M 691 4666 
L 3169 4666 
L 3169 4134 
L 1269 4134 
L 1269 2991 
Q 1406 3038 1543 3061 
Q 1681 3084 1819 3084 
Q 2600 3084 3056 2656 
Q 3513 2228 3513 1497 
Q 3513 744 3044 326 
Q 2575 -91 1722 -91 
Q 1428 -91 1123 -41 
Q 819 9 494 109 
L 494 744 
Q 775 591 1075 516 
Q 1375 441 1709 441 
Q 2250 441 2565 725 
Q 2881 1009 2881 1497 
Q 2881 1984 2565 2268 
Q 2250 2553 1709 2553 
Q 1456 2553 1204 2497 
Q 953 2441 691 2322 
L 691 4666 
z
" transform="scale(0.015625)"/>
       </defs>
       <use xlink:href="#DejaVuSans-35"/>
       <use xlink:href="#DejaVuSans-30" x="63.623047"/>
       <use xlink:href="#DejaVuSans-30" x="127.246094"/>
      </g>
     </g>
    </g>
    <g id="xtick_7">
     <g id="line2d_7">
      <path d="M 301.169604 256.32 
L 301.169604 34.56 
" clip-path="url(#pbe8620f01f)" style="fill: none; stroke: #ffffff; stroke-width: 0.8; stroke-linecap: round"/>
     </g>
     <g id="text_7">
      <!-- 600 -->
      <g style="fill: #262626" transform="translate(291.625854 270.918437) scale(0.1 -0.1)">
       <defs>
        <path id="DejaVuSans-36" d="M 2113 2584 
Q 1688 2584 1439 2293 
Q 1191 2003 1191 1497 
Q 1191 994 1439 701 
Q 1688 409 2113 409 
Q 2538 409 2786 701 
Q 3034 994 3034 1497 
Q 3034 2003 2786 2293 
Q 2538 2584 2113 2584 
z
M 3366 4563 
L 3366 3988 
Q 3128 4100 2886 4159 
Q 2644 4219 2406 4219 
Q 1781 4219 1451 3797 
Q 1122 3375 1075 2522 
Q 1259 2794 1537 2939 
Q 1816 3084 2150 3084 
Q 2853 3084 3261 2657 
Q 3669 2231 3669 1497 
Q 3669 778 3244 343 
Q 2819 -91 2113 -91 
Q 1303 -91 875 529 
Q 447 1150 447 2328 
Q 447 3434 972 4092 
Q 1497 4750 2381 4750 
Q 2619 4750 2861 4703 
Q 3103 4656 3366 4563 
z
" transform="scale(0.015625)"/>
       </defs>
       <use xlink:href="#DejaVuSans-36"/>
       <use xlink:href="#DejaVuSans-30" x="63.623047"/>
       <use xlink:href="#DejaVuSans-30" x="127.246094"/>
      </g>
     </g>
    </g>
    <g id="xtick_8">
     <g id="line2d_8">
      <path d="M 339.892713 256.32 
L 339.892713 34.56 
" clip-path="url(#pbe8620f01f)" style="fill: none; stroke: #ffffff; stroke-width: 0.8; stroke-linecap: round"/>
     </g>
     <g id="text_8">
      <!-- 700 -->
      <g style="fill: #262626" transform="translate(330.348963 270.918437) scale(0.1 -0.1)">
       <defs>
        <path id="DejaVuSans-37" d="M 525 4666 
L 3525 4666 
L 3525 4397 
L 1831 0 
L 1172 0 
L 2766 4134 
L 525 4134 
L 525 4666 
z
" transform="scale(0.015625)"/>
       </defs>
       <use xlink:href="#DejaVuSans-37"/>
       <use xlink:href="#DejaVuSans-30" x="63.623047"/>
       <use xlink:href="#DejaVuSans-30" x="127.246094"/>
      </g>
     </g>
    </g>
    <g id="xtick_9">
     <g id="line2d_9">
      <path d="M 378.615822 256.32 
L 378.615822 34.56 
" clip-path="url(#pbe8620f01f)" style="fill: none; stroke: #ffffff; stroke-width: 0.8; stroke-linecap: round"/>
     </g>
     <g id="text_9">
      <!-- 800 -->
      <g style="fill: #262626" transform="translate(369.072072 270.918437) scale(0.1 -0.1)">
       <defs>
        <path id="DejaVuSans-38" d="M 2034 2216 
Q 1584 2216 1326 1975 
Q 1069 1734 1069 1313 
Q 1069 891 1326 650 
Q 1584 409 2034 409 
Q 2484 409 2743 651 
Q 3003 894 3003 1313 
Q 3003 1734 2745 1975 
Q 2488 2216 2034 2216 
z
M 1403 2484 
Q 997 2584 770 2862 
Q 544 3141 544 3541 
Q 544 4100 942 4425 
Q 1341 4750 2034 4750 
Q 2731 4750 3128 4425 
Q 3525 4100 3525 3541 
Q 3525 3141 3298 2862 
Q 3072 2584 2669 2484 
Q 3125 2378 3379 2068 
Q 3634 1759 3634 1313 
Q 3634 634 3220 271 
Q 2806 -91 2034 -91 
Q 1263 -91 848 271 
Q 434 634 434 1313 
Q 434 1759 690 2068 
Q 947 2378 1403 2484 
z
M 1172 3481 
Q 1172 3119 1398 2916 
Q 1625 2713 2034 2713 
Q 2441 2713 2670 2916 
Q 2900 3119 2900 3481 
Q 2900 3844 2670 4047 
Q 2441 4250 2034 4250 
Q 1625 4250 1398 4047 
Q 1172 3844 1172 3481 
z
" transform="scale(0.015625)"/>
       </defs>
       <use xlink:href="#DejaVuSans-38"/>
       <use xlink:href="#DejaVuSans-30" x="63.623047"/>
       <use xlink:href="#DejaVuSans-30" x="127.246094"/>
      </g>
     </g>
    </g>
    <g id="text_10">
     <!-- Residue number -->
     <g style="fill: #262626" transform="translate(180.557813 284.596563) scale(0.1 -0.1)">
      <defs>
       <path id="DejaVuSans-52" d="M 2841 2188 
Q 3044 2119 3236 1894 
Q 3428 1669 3622 1275 
L 4263 0 
L 3584 0 
L 2988 1197 
Q 2756 1666 2539 1819 
Q 2322 1972 1947 1972 
L 1259 1972 
L 1259 0 
L 628 0 
L 628 4666 
L 2053 4666 
Q 2853 4666 3247 4331 
Q 3641 3997 3641 3322 
Q 3641 2881 3436 2590 
Q 3231 2300 2841 2188 
z
M 1259 4147 
L 1259 2491 
L 2053 2491 
Q 2509 2491 2742 2702 
Q 2975 2913 2975 3322 
Q 2975 3731 2742 3939 
Q 2509 4147 2053 4147 
L 1259 4147 
z
" transform="scale(0.015625)"/>
       <path id="DejaVuSans-65" d="M 3597 1894 
L 3597 1613 
L 953 1613 
Q 991 1019 1311 708 
Q 1631 397 2203 397 
Q 2534 397 2845 478 
Q 3156 559 3463 722 
L 3463 178 
Q 3153 47 2828 -22 
Q 2503 -91 2169 -91 
Q 1331 -91 842 396 
Q 353 884 353 1716 
Q 353 2575 817 3079 
Q 1281 3584 2069 3584 
Q 2775 3584 3186 3129 
Q 3597 2675 3597 1894 
z
M 3022 2063 
Q 3016 2534 2758 2815 
Q 2500 3097 2075 3097 
Q 1594 3097 1305 2825 
Q 1016 2553 972 2059 
L 3022 2063 
z
" transform="scale(0.015625)"/>
       <path id="DejaVuSans-73" d="M 2834 3397 
L 2834 2853 
Q 2591 2978 2328 3040 
Q 2066 3103 1784 3103 
Q 1356 3103 1142 2972 
Q 928 2841 928 2578 
Q 928 2378 1081 2264 
Q 1234 2150 1697 2047 
L 1894 2003 
Q 2506 1872 2764 1633 
Q 3022 1394 3022 966 
Q 3022 478 2636 193 
Q 2250 -91 1575 -91 
Q 1294 -91 989 -36 
Q 684 19 347 128 
L 347 722 
Q 666 556 975 473 
Q 1284 391 1588 391 
Q 1994 391 2212 530 
Q 2431 669 2431 922 
Q 2431 1156 2273 1281 
Q 2116 1406 1581 1522 
L 1381 1569 
Q 847 1681 609 1914 
Q 372 2147 372 2553 
Q 372 3047 722 3315 
Q 1072 3584 1716 3584 
Q 2034 3584 2315 3537 
Q 2597 3491 2834 3397 
z
" transform="scale(0.015625)"/>
       <path id="DejaVuSans-69" d="M 603 3500 
L 1178 3500 
L 1178 0 
L 603 0 
L 603 3500 
z
M 603 4863 
L 1178 4863 
L 1178 4134 
L 603 4134 
L 603 4863 
z
" transform="scale(0.015625)"/>
       <path id="DejaVuSans-64" d="M 2906 2969 
L 2906 4863 
L 3481 4863 
L 3481 0 
L 2906 0 
L 2906 525 
Q 2725 213 2448 61 
Q 2172 -91 1784 -91 
Q 1150 -91 751 415 
Q 353 922 353 1747 
Q 353 2572 751 3078 
Q 1150 3584 1784 3584 
Q 2172 3584 2448 3432 
Q 2725 3281 2906 2969 
z
M 947 1747 
Q 947 1113 1208 752 
Q 1469 391 1925 391 
Q 2381 391 2643 752 
Q 2906 1113 2906 1747 
Q 2906 2381 2643 2742 
Q 2381 3103 1925 3103 
Q 1469 3103 1208 2742 
Q 947 2381 947 1747 
z
" transform="scale(0.015625)"/>
       <path id="DejaVuSans-75" d="M 544 1381 
L 544 3500 
L 1119 3500 
L 1119 1403 
Q 1119 906 1312 657 
Q 1506 409 1894 409 
Q 2359 409 2629 706 
Q 2900 1003 2900 1516 
L 2900 3500 
L 3475 3500 
L 3475 0 
L 2900 0 
L 2900 538 
Q 2691 219 2414 64 
Q 2138 -91 1772 -91 
Q 1169 -91 856 284 
Q 544 659 544 1381 
z
M 1991 3584 
L 1991 3584 
z
" transform="scale(0.015625)"/>
       <path id="DejaVuSans-20" transform="scale(0.015625)"/>
       <path id="DejaVuSans-6e" d="M 3513 2113 
L 3513 0 
L 2938 0 
L 2938 2094 
Q 2938 2591 2744 2837 
Q 2550 3084 2163 3084 
Q 1697 3084 1428 2787 
Q 1159 2491 1159 1978 
L 1159 0 
L 581 0 
L 581 3500 
L 1159 3500 
L 1159 2956 
Q 1366 3272 1645 3428 
Q 1925 3584 2291 3584 
Q 2894 3584 3203 3211 
Q 3513 2838 3513 2113 
z
" transform="scale(0.015625)"/>
       <path id="DejaVuSans-6d" d="M 3328 2828 
Q 3544 3216 3844 3400 
Q 4144 3584 4550 3584 
Q 5097 3584 5394 3201 
Q 5691 2819 5691 2113 
L 5691 0 
L 5113 0 
L 5113 2094 
Q 5113 2597 4934 2840 
Q 4756 3084 4391 3084 
Q 3944 3084 3684 2787 
Q 3425 2491 3425 1978 
L 3425 0 
L 2847 0 
L 2847 2094 
Q 2847 2600 2669 2842 
Q 2491 3084 2119 3084 
Q 1678 3084 1418 2786 
Q 1159 2488 1159 1978 
L 1159 0 
L 581 0 
L 581 3500 
L 1159 3500 
L 1159 2956 
Q 1356 3278 1631 3431 
Q 1906 3584 2284 3584 
Q 2666 3584 2933 3390 
Q 3200 3197 3328 2828 
z
" transform="scale(0.015625)"/>
       <path id="DejaVuSans-62" d="M 3116 1747 
Q 3116 2381 2855 2742 
Q 2594 3103 2138 3103 
Q 1681 3103 1420 2742 
Q 1159 2381 1159 1747 
Q 1159 1113 1420 752 
Q 1681 391 2138 391 
Q 2594 391 2855 752 
Q 3116 1113 3116 1747 
z
M 1159 2969 
Q 1341 3281 1617 3432 
Q 1894 3584 2278 3584 
Q 2916 3584 3314 3078 
Q 3713 2572 3713 1747 
Q 3713 922 3314 415 
Q 2916 -91 2278 -91 
Q 1894 -91 1617 61 
Q 1341 213 1159 525 
L 1159 0 
L 581 0 
L 581 4863 
L 1159 4863 
L 1159 2969 
z
" transform="scale(0.015625)"/>
       <path id="DejaVuSans-72" d="M 2631 2963 
Q 2534 3019 2420 3045 
Q 2306 3072 2169 3072 
Q 1681 3072 1420 2755 
Q 1159 2438 1159 1844 
L 1159 0 
L 581 0 
L 581 3500 
L 1159 3500 
L 1159 2956 
Q 1341 3275 1631 3429 
Q 1922 3584 2338 3584 
Q 2397 3584 2469 3576 
Q 2541 3569 2628 3553 
L 2631 2963 
z
" transform="scale(0.015625)"/>
      </defs>
      <use xlink:href="#DejaVuSans-52"/>
      <use xlink:href="#DejaVuSans-65" x="64.982422"/>
      <use xlink:href="#DejaVuSans-73" x="126.505859"/>
      <use xlink:href="#DejaVuSans-69" x="178.605469"/>
      <use xlink:href="#DejaVuSans-64" x="206.388672"/>
      <use xlink:href="#DejaVuSans-75" x="269.865234"/>
      <use xlink:href="#DejaVuSans-65" x="333.244141"/>
      <use xlink:href="#DejaVuSans-20" x="394.767578"/>
      <use xlink:href="#DejaVuSans-6e" x="426.554688"/>
      <use xlink:href="#DejaVuSans-75" x="489.933594"/>
      <use xlink:href="#DejaVuSans-6d" x="553.3125"/>
      <use xlink:href="#DejaVuSans-62" x="650.724609"/>
      <use xlink:href="#DejaVuSans-65" x="714.201172"/>
      <use xlink:href="#DejaVuSans-72" x="775.724609"/>
     </g>
    </g>
   </g>
   <g id="matplotlib.axis_2">
    <g id="ytick_1">
     <g id="line2d_10">
      <path d="M 54 217.95722 
L 388.8 217.95722 
" clip-path="url(#pbe8620f01f)" style="fill: none; stroke: #ffffff; stroke-width: 0.8; stroke-linecap: round"/>
     </g>
     <g id="text_11">
      <!-- 20 -->
      <g style="fill: #262626" transform="translate(34.275 221.756438) scale(0.1 -0.1)">
       <use xlink:href="#DejaVuSans-32"/>
       <use xlink:href="#DejaVuSans-30" x="63.623047"/>
      </g>
     </g>
    </g>
    <g id="ytick_2">
     <g id="line2d_11">
      <path d="M 54 175.362671 
L 388.8 175.362671 
" clip-path="url(#pbe8620f01f)" style="fill: none; stroke: #ffffff; stroke-width: 0.8; stroke-linecap: round"/>
     </g>
     <g id="text_12">
      <!-- 40 -->
      <g style="fill: #262626" transform="translate(34.275 179.161889) scale(0.1 -0.1)">
       <use xlink:href="#DejaVuSans-34"/>
       <use xlink:href="#DejaVuSans-30" x="63.623047"/>
      </g>
     </g>
    </g>
    <g id="ytick_3">
     <g id="line2d_12">
      <path d="M 54 132.768122 
L 388.8 132.768122 
" clip-path="url(#pbe8620f01f)" style="fill: none; stroke: #ffffff; stroke-width: 0.8; stroke-linecap: round"/>
     </g>
     <g id="text_13">
      <!-- 60 -->
      <g style="fill: #262626" transform="translate(34.275 136.56734) scale(0.1 -0.1)">
       <use xlink:href="#DejaVuSans-36"/>
       <use xlink:href="#DejaVuSans-30" x="63.623047"/>
      </g>
     </g>
    </g>
    <g id="ytick_4">
     <g id="line2d_13">
      <path d="M 54 90.173573 
L 388.8 90.173573 
" clip-path="url(#pbe8620f01f)" style="fill: none; stroke: #ffffff; stroke-width: 0.8; stroke-linecap: round"/>
     </g>
     <g id="text_14">
      <!-- 80 -->
      <g style="fill: #262626" transform="translate(34.275 93.972792) scale(0.1 -0.1)">
       <use xlink:href="#DejaVuSans-38"/>
       <use xlink:href="#DejaVuSans-30" x="63.623047"/>
      </g>
     </g>
    </g>
    <g id="ytick_5">
     <g id="line2d_14">
      <path d="M 54 47.579024 
L 388.8 47.579024 
" clip-path="url(#pbe8620f01f)" style="fill: none; stroke: #ffffff; stroke-width: 0.8; stroke-linecap: round"/>
     </g>
     <g id="text_15">
      <!-- 100 -->
      <g style="fill: #262626" transform="translate(27.9125 51.378243) scale(0.1 -0.1)">
       <use xlink:href="#DejaVuSans-31"/>
       <use xlink:href="#DejaVuSans-30" x="63.623047"/>
       <use xlink:href="#DejaVuSans-30" x="127.246094"/>
      </g>
     </g>
    </g>
    <g id="text_16">
     <!-- B-factor ($\AA^2$) -->
     <g style="fill: #262626" transform="translate(21.832812 177.09) rotate(-90) scale(0.1 -0.1)">
      <defs>
       <path id="DejaVuSans-42" d="M 1259 2228 
L 1259 519 
L 2272 519 
Q 2781 519 3026 730 
Q 3272 941 3272 1375 
Q 3272 1813 3026 2020 
Q 2781 2228 2272 2228 
L 1259 2228 
z
M 1259 4147 
L 1259 2741 
L 2194 2741 
Q 2656 2741 2882 2914 
Q 3109 3088 3109 3444 
Q 3109 3797 2882 3972 
Q 2656 4147 2194 4147 
L 1259 4147 
z
M 628 4666 
L 2241 4666 
Q 2963 4666 3353 4366 
Q 3744 4066 3744 3513 
Q 3744 3084 3544 2831 
Q 3344 2578 2956 2516 
Q 3422 2416 3680 2098 
Q 3938 1781 3938 1306 
Q 3938 681 3513 340 
Q 3088 0 2303 0 
L 628 0 
L 628 4666 
z
" transform="scale(0.015625)"/>
       <path id="DejaVuSans-2d" d="M 313 2009 
L 1997 2009 
L 1997 1497 
L 313 1497 
L 313 2009 
z
" transform="scale(0.015625)"/>
       <path id="DejaVuSans-66" d="M 2375 4863 
L 2375 4384 
L 1825 4384 
Q 1516 4384 1395 4259 
Q 1275 4134 1275 3809 
L 1275 3500 
L 2222 3500 
L 2222 3053 
L 1275 3053 
L 1275 0 
L 697 0 
L 697 3053 
L 147 3053 
L 147 3500 
L 697 3500 
L 697 3744 
Q 697 4328 969 4595 
Q 1241 4863 1831 4863 
L 2375 4863 
z
" transform="scale(0.015625)"/>
       <path id="DejaVuSans-61" d="M 2194 1759 
Q 1497 1759 1228 1600 
Q 959 1441 959 1056 
Q 959 750 1161 570 
Q 1363 391 1709 391 
Q 2188 391 2477 730 
Q 2766 1069 2766 1631 
L 2766 1759 
L 2194 1759 
z
M 3341 1997 
L 3341 0 
L 2766 0 
L 2766 531 
Q 2569 213 2275 61 
Q 1981 -91 1556 -91 
Q 1019 -91 701 211 
Q 384 513 384 1019 
Q 384 1609 779 1909 
Q 1175 2209 1959 2209 
L 2766 2209 
L 2766 2266 
Q 2766 2663 2505 2880 
Q 2244 3097 1772 3097 
Q 1472 3097 1187 3025 
Q 903 2953 641 2809 
L 641 3341 
Q 956 3463 1253 3523 
Q 1550 3584 1831 3584 
Q 2591 3584 2966 3190 
Q 3341 2797 3341 1997 
z
" transform="scale(0.015625)"/>
       <path id="DejaVuSans-63" d="M 3122 3366 
L 3122 2828 
Q 2878 2963 2633 3030 
Q 2388 3097 2138 3097 
Q 1578 3097 1268 2742 
Q 959 2388 959 1747 
Q 959 1106 1268 751 
Q 1578 397 2138 397 
Q 2388 397 2633 464 
Q 2878 531 3122 666 
L 3122 134 
Q 2881 22 2623 -34 
Q 2366 -91 2075 -91 
Q 1284 -91 818 406 
Q 353 903 353 1747 
Q 353 2603 823 3093 
Q 1294 3584 2113 3584 
Q 2378 3584 2631 3529 
Q 2884 3475 3122 3366 
z
" transform="scale(0.015625)"/>
       <path id="DejaVuSans-74" d="M 1172 4494 
L 1172 3500 
L 2356 3500 
L 2356 3053 
L 1172 3053 
L 1172 1153 
Q 1172 725 1289 603 
Q 1406 481 1766 481 
L 2356 481 
L 2356 0 
L 1766 0 
Q 1100 0 847 248 
Q 594 497 594 1153 
L 594 3053 
L 172 3053 
L 172 3500 
L 594 3500 
L 594 4494 
L 1172 4494 
z
" transform="scale(0.015625)"/>
       <path id="DejaVuSans-6f" d="M 1959 3097 
Q 1497 3097 1228 2736 
Q 959 2375 959 1747 
Q 959 1119 1226 758 
Q 1494 397 1959 397 
Q 2419 397 2687 759 
Q 2956 1122 2956 1747 
Q 2956 2369 2687 2733 
Q 2419 3097 1959 3097 
z
M 1959 3584 
Q 2709 3584 3137 3096 
Q 3566 2609 3566 1747 
Q 3566 888 3137 398 
Q 2709 -91 1959 -91 
Q 1206 -91 779 398 
Q 353 888 353 1747 
Q 353 2609 779 3096 
Q 1206 3584 1959 3584 
z
" transform="scale(0.015625)"/>
       <path id="DejaVuSans-28" d="M 1984 4856 
Q 1566 4138 1362 3434 
Q 1159 2731 1159 2009 
Q 1159 1288 1364 580 
Q 1569 -128 1984 -844 
L 1484 -844 
Q 1016 -109 783 600 
Q 550 1309 550 2009 
Q 550 2706 781 3412 
Q 1013 4119 1484 4856 
L 1984 4856 
z
" transform="scale(0.015625)"/>
       <path id="DejaVuSans-Oblique-c5" d="M 3188 5081 
Q 3188 5278 3048 5417 
Q 2909 5556 2713 5556 
Q 2513 5556 2377 5420 
Q 2241 5284 2241 5081 
Q 2241 4884 2377 4746 
Q 2513 4609 2713 4609 
Q 2909 4609 3048 4746 
Q 3188 4884 3188 5081 
z
M 2203 4397 
Q 2034 4513 1945 4689 
Q 1856 4866 1856 5081 
Q 1856 5438 2106 5689 
Q 2356 5941 2713 5941 
Q 3069 5941 3320 5689 
Q 3572 5438 3572 5081 
Q 3572 4834 3458 4643 
Q 3344 4453 3128 4341 
L 3938 0 
L 3278 0 
L 3084 1197 
L 984 1197 
L 325 0 
L -341 0 
L 2203 4397 
z
M 2584 4044 
L 1275 1722 
L 2988 1722 
L 2584 4044 
z
" transform="scale(0.015625)"/>
       <path id="DejaVuSans-29" d="M 513 4856 
L 1013 4856 
Q 1481 4119 1714 3412 
Q 1947 2706 1947 2009 
Q 1947 1309 1714 600 
Q 1481 -109 1013 -844 
L 513 -844 
Q 928 -128 1133 580 
Q 1338 1288 1338 2009 
Q 1338 2731 1133 3434 
Q 928 4138 513 4856 
z
" transform="scale(0.015625)"/>
      </defs>
      <use xlink:href="#DejaVuSans-42" transform="translate(0 0.171875)"/>
      <use xlink:href="#DejaVuSans-2d" transform="translate(68.603516 0.171875)"/>
      <use xlink:href="#DejaVuSans-66" transform="translate(104.6875 0.171875)"/>
      <use xlink:href="#DejaVuSans-61" transform="translate(139.892578 0.171875)"/>
      <use xlink:href="#DejaVuSans-63" transform="translate(201.171875 0.171875)"/>
      <use xlink:href="#DejaVuSans-74" transform="translate(256.152344 0.171875)"/>
      <use xlink:href="#DejaVuSans-6f" transform="translate(295.361328 0.171875)"/>
      <use xlink:href="#DejaVuSans-72" transform="translate(356.542969 0.171875)"/>
      <use xlink:href="#DejaVuSans-20" transform="translate(397.65625 0.171875)"/>
      <use xlink:href="#DejaVuSans-28" transform="translate(429.443359 0.171875)"/>
      <use xlink:href="#DejaVuSans-Oblique-c5" transform="translate(468.457031 0.171875)"/>
      <use xlink:href="#DejaVuSans-32" transform="translate(546.671068 38.453125) scale(0.7)"/>
      <use xlink:href="#DejaVuSans-29" transform="translate(593.941576 0.171875)"/>
     </g>
    </g>
   </g>
   <g id="PolyCollection_1"/>
   <g id="PolyCollection_2"/>
   <g id="line2d_15">
    <path d="M 69.218182 224.488106 
L 69.605413 230.755041 
L 69.992644 231.303696 
L 70.379875 233.901368 
L 70.767106 232.66929 
L 71.154337 233.03099 
L 71.541568 233.970645 
L 71.928799 232.618244 
L 72.316031 228.312596 
L 72.703262 225.590469 
L 73.090493 227.110707 
L 73.477724 230.222534 
L 74.252186 220.470428 
L 74.639417 218.603359 
L 75.026648 224.82991 
L 75.413879 216.877387 
L 75.80111 212.156236 
L 76.188341 209.52737 
L 76.575573 214.864808 
L 76.962804 217.756209 
L 77.350035 226.657801 
L 77.737266 227.88137 
L 78.124497 225.631008 
L 78.511728 231.301293 
L 78.898959 227.453664 
L 79.673421 215.834968 
L 80.060652 217.898226 
L 80.447883 212.60512 
L 81.222346 223.784163 
L 81.609577 218.237309 
L 81.996808 218.176144 
L 82.384039 215.839269 
L 82.77127 212.529354 
L 83.158501 211.449242 
L 83.545732 219.321877 
L 83.932963 218.816113 
L 84.320194 218.58806 
L 84.707425 220.629814 
L 85.094656 226.774867 
L 85.481888 226.132446 
L 85.869119 224.773397 
L 86.25635 224.296228 
L 86.643581 227.142108 
L 87.030812 231.634439 
L 87.418043 229.335752 
L 87.805274 229.284771 
L 88.192505 230.040205 
L 88.579736 230.421019 
L 88.966967 229.67602 
L 89.354198 230.04773 
L 89.74143 231.913701 
L 90.128661 230.446067 
L 90.903123 233.197302 
L 91.290354 233.735613 
L 91.677585 231.854162 
L 92.064816 231.587473 
L 92.452047 230.322854 
L 93.226509 223.795776 
L 93.61374 221.880791 
L 94.000972 222.164501 
L 94.388203 224.539957 
L 95.162665 222.077036 
L 95.937127 222.773403 
L 96.324358 225.787161 
L 96.711589 226.925225 
L 97.09882 230.733753 
L 97.486051 230.655836 
L 97.873282 232.305849 
L 98.260514 230.01155 
L 98.647745 228.633967 
L 99.034976 224.715177 
L 99.809438 213.107232 
L 100.196669 201.206727 
L 100.5839 199.404347 
L 101.358362 170.164215 
L 101.745593 156.1679 
L 102.132824 151.075694 
L 102.520056 156.323769 
L 102.907287 165.451738 
L 103.294518 183.189188 
L 103.681749 188.994117 
L 104.06898 203.66069 
L 104.456211 204.89211 
L 104.843442 213.772553 
L 105.230673 217.041758 
L 105.617904 224.467796 
L 106.005135 225.471517 
L 106.392366 230.730472 
L 106.779598 229.063357 
L 107.166829 229.866246 
L 107.941291 232.913393 
L 108.328522 233.643241 
L 108.715753 233.398936 
L 109.102984 232.947978 
L 109.490215 233.287154 
L 109.877446 233.348925 
L 110.264677 233.693338 
L 110.651908 233.173948 
L 111.039139 233.786966 
L 111.426371 233.938722 
L 111.813602 234.283486 
L 112.200833 233.829565 
L 112.588064 233.928155 
L 112.975295 233.430268 
L 113.362526 231.60907 
L 113.749757 232.1671 
L 114.136988 233.011977 
L 114.524219 232.622961 
L 114.91145 232.794396 
L 115.298681 232.784879 
L 115.685913 231.432591 
L 116.073144 230.592519 
L 116.460375 229.435752 
L 116.847606 227.616735 
L 117.234837 227.424796 
L 117.622068 230.550704 
L 118.009299 229.528829 
L 118.39653 229.573069 
L 118.783761 229.370198 
L 119.558223 230.851138 
L 119.945455 232.454431 
L 120.332686 231.799389 
L 120.719917 231.758603 
L 121.107148 231.228449 
L 121.494379 232.462738 
L 121.88161 232.777364 
L 122.268841 229.245473 
L 122.656072 228.49102 
L 123.043303 212.59858 
L 123.430534 213.183541 
L 124.204997 200.604298 
L 124.592228 197.276913 
L 125.36669 220.16167 
L 125.753921 222.014877 
L 126.141152 217.869206 
L 126.528383 217.944132 
L 126.915614 217.555603 
L 127.302845 208.791039 
L 127.690076 213.829667 
L 128.077307 216.124759 
L 128.464539 222.623691 
L 128.85177 224.966241 
L 129.239001 228.09971 
L 129.626232 234.049826 
L 130.013463 234.047494 
L 130.400694 235.085402 
L 130.787925 234.415766 
L 131.175156 234.793535 
L 131.562387 234.295365 
L 131.949618 234.32856 
L 132.336849 234.628611 
L 133.111312 231.932848 
L 133.498543 235.317361 
L 133.885774 235.016162 
L 134.660236 233.985405 
L 135.047467 233.884544 
L 135.434698 232.675248 
L 135.821929 232.934677 
L 136.20916 232.729413 
L 136.596391 232.946443 
L 136.983622 231.78951 
L 137.370854 231.27007 
L 137.758085 231.990693 
L 138.145316 231.683606 
L 138.532547 233.978284 
L 138.919778 234.379341 
L 139.307009 232.110016 
L 139.69424 234.33667 
L 140.468702 233.880181 
L 140.855933 234.087181 
L 141.243164 230.97576 
L 141.630396 228.967807 
L 142.017627 217.376285 
L 142.792089 173.145126 
L 143.17932 171.653612 
L 143.566551 157.163285 
L 143.953782 190.981622 
L 144.341013 195.396204 
L 144.728244 212.656935 
L 145.115475 221.915431 
L 145.502706 222.701474 
L 145.889938 232.44662 
L 146.277169 232.03551 
L 146.6644 231.997272 
L 147.051631 232.653097 
L 147.438862 229.711593 
L 147.826093 229.882586 
L 148.213324 228.10948 
L 148.600555 227.917139 
L 148.987786 226.419624 
L 149.375017 227.336673 
L 149.762248 226.981073 
L 150.14948 228.155083 
L 150.536711 228.540064 
L 150.923942 226.986801 
L 151.311173 224.285826 
L 151.698404 225.045326 
L 152.085635 226.498639 
L 153.247328 232.377964 
L 153.634559 233.262641 
L 154.02179 233.172206 
L 154.409022 232.289733 
L 154.796253 231.78623 
L 155.183484 227.606642 
L 155.570715 228.296351 
L 155.957946 232.295162 
L 156.345177 232.490629 
L 156.732408 233.604869 
L 157.119639 232.48522 
L 157.50687 232.827379 
L 157.894101 233.666379 
L 158.281332 234.125398 
L 158.668563 233.613951 
L 159.055795 232.259661 
L 159.830257 227.359517 
L 160.217488 227.94822 
L 160.99195 224.682321 
L 161.379181 226.140241 
L 161.766412 220.408717 
L 162.153643 212.28782 
L 162.540874 215.518167 
L 162.928105 201.315622 
L 163.315337 196.462515 
L 163.702568 184.551104 
L 164.089799 178.713035 
L 164.47703 167.720562 
L 164.864261 164.152548 
L 165.251492 171.137107 
L 165.638723 176.000551 
L 166.025954 193.496626 
L 166.413185 194.884146 
L 166.800416 211.58926 
L 167.574879 222.091718 
L 167.96211 225.509093 
L 168.349341 220.270295 
L 168.736572 217.043459 
L 169.123803 216.458797 
L 169.511034 211.423581 
L 169.898265 216.439094 
L 170.285496 214.440204 
L 170.672727 209.499763 
L 171.059958 197.847968 
L 171.447189 147.791056 
L 171.834421 147.794146 
L 172.221652 190.739888 
L 172.608883 189.340992 
L 172.996114 197.473651 
L 173.383345 210.792204 
L 173.770576 209.721529 
L 174.157807 218.133159 
L 174.545038 221.560546 
L 174.932269 226.057253 
L 175.3195 227.553472 
L 175.706731 226.782007 
L 176.093963 220.496742 
L 176.481194 216.985813 
L 176.868425 221.74317 
L 177.255656 220.080262 
L 177.642887 210.080169 
L 178.030118 216.43596 
L 178.417349 212.483679 
L 178.80458 225.481457 
L 179.191811 225.222778 
L 179.579042 225.671569 
L 179.966273 229.044229 
L 180.353505 225.598115 
L 180.740736 227.435119 
L 181.127967 223.633021 
L 181.515198 228.283861 
L 181.902429 230.534215 
L 182.28966 230.259797 
L 182.676891 229.789939 
L 183.064122 228.44076 
L 183.451353 221.99235 
L 183.838584 222.117364 
L 184.225815 223.494053 
L 184.613046 226.307404 
L 185.000278 231.691787 
L 185.387509 231.613024 
L 185.77474 230.071538 
L 186.161971 230.572165 
L 186.549202 233.257554 
L 186.936433 233.089957 
L 187.323664 234.542584 
L 188.098126 231.433064 
L 188.485357 231.258926 
L 188.872588 230.943619 
L 189.25982 231.931607 
L 189.647051 233.242414 
L 190.034282 231.596458 
L 190.421513 227.95897 
L 190.808744 222.744608 
L 191.195975 219.249765 
L 191.583206 223.464589 
L 191.970437 221.052264 
L 192.357668 224.525464 
L 192.744899 220.591192 
L 193.13213 198.693877 
L 193.519362 198.115542 
L 193.906593 191.373038 
L 194.293824 208.205447 
L 194.681055 214.821436 
L 195.068286 211.5568 
L 195.455517 226.700701 
L 195.842748 226.256865 
L 196.61721 222.148626 
L 197.004441 214.481761 
L 197.391672 209.874673 
L 197.778904 211.762386 
L 198.553366 220.892293 
L 198.940597 223.191427 
L 199.327828 224.80405 
L 199.715059 224.465457 
L 200.10229 224.929982 
L 200.489521 227.396804 
L 201.263983 230.864761 
L 201.651214 231.578126 
L 202.038446 231.295814 
L 202.812908 229.965248 
L 203.200139 226.950748 
L 203.58737 228.254273 
L 204.361832 221.53348 
L 204.749063 220.29099 
L 205.136294 215.77618 
L 205.523525 217.159777 
L 205.910756 209.237511 
L 206.297988 218.474454 
L 206.685219 220.761658 
L 207.07245 224.09512 
L 207.459681 225.545345 
L 207.846912 221.711269 
L 208.234143 223.907989 
L 209.395836 224.674169 
L 209.783067 223.748869 
L 210.170298 223.618603 
L 210.557529 224.115578 
L 211.331992 222.045709 
L 211.719223 223.146227 
L 212.106454 226.54941 
L 212.493685 220.686936 
L 212.880916 217.413914 
L 213.268147 216.461386 
L 213.655378 224.23806 
L 214.042609 223.23413 
L 214.42984 220.882543 
L 214.817071 223.703155 
L 215.204303 224.820766 
L 215.591534 224.278188 
L 215.978765 225.247797 
L 216.365996 229.119685 
L 216.753227 229.816111 
L 217.140458 229.453153 
L 217.527689 228.260272 
L 217.91492 229.819123 
L 218.302151 230.746295 
L 218.689382 231.371207 
L 220.625538 233.111882 
L 221.012769 232.538203 
L 221.4 232.68576 
L 221.787231 232.238814 
L 222.174462 234.9955 
L 222.948924 233.770553 
L 223.336155 234.255337 
L 223.723387 231.669008 
L 224.110618 231.329261 
L 224.88508 231.527291 
L 225.272311 231.85091 
L 225.659542 231.120498 
L 226.046773 232.13607 
L 226.434004 232.273711 
L 226.821235 232.234808 
L 227.208466 231.953937 
L 227.595697 228.945995 
L 227.982929 230.212993 
L 229.144622 225.523463 
L 229.531853 226.321656 
L 229.919084 228.52095 
L 230.693546 222.235452 
L 231.080777 223.985376 
L 231.468008 223.490128 
L 232.242471 219.272365 
L 232.629702 223.347647 
L 233.016933 222.91754 
L 233.404164 221.829779 
L 233.791395 221.310532 
L 234.565857 228.529517 
L 234.953088 232.308901 
L 235.340319 230.257311 
L 235.72755 230.266853 
L 236.114781 233.936012 
L 236.502012 234.340044 
L 237.276475 234.454761 
L 237.663706 234.710582 
L 238.050937 234.580617 
L 238.438168 233.686212 
L 238.825399 234.266082 
L 239.21263 235.107817 
L 239.987092 234.875276 
L 240.374323 235.117029 
L 240.761554 235.019604 
L 241.148786 235.211793 
L 241.536017 233.790684 
L 241.923248 234.288955 
L 242.310479 233.896734 
L 242.69771 234.413853 
L 243.084941 232.572584 
L 243.472172 233.060814 
L 243.859403 229.459869 
L 244.246634 231.02611 
L 244.633865 231.901803 
L 245.021096 233.789089 
L 245.408328 234.90617 
L 245.795559 232.877226 
L 246.18279 229.75288 
L 246.570021 228.44696 
L 246.957252 229.070441 
L 247.344483 226.755626 
L 247.731714 221.92261 
L 248.118945 223.320689 
L 248.506176 220.695676 
L 248.893407 222.776783 
L 249.280638 223.476151 
L 249.66787 226.672138 
L 250.055101 226.8237 
L 250.442332 230.018308 
L 250.829563 226.953166 
L 251.216794 226.97199 
L 251.604025 227.415567 
L 251.991256 227.086594 
L 252.378487 227.44965 
L 252.765718 227.021862 
L 253.152949 225.980456 
L 253.54018 227.865285 
L 253.927412 229.142846 
L 254.314643 225.250844 
L 254.701874 225.997665 
L 255.089105 226.317128 
L 255.476336 222.301936 
L 255.863567 220.187127 
L 256.250798 205.179052 
L 256.638029 209.924101 
L 257.02526 211.62155 
L 257.412491 215.475072 
L 257.799722 224.278069 
L 258.186954 226.027373 
L 258.574185 227.070378 
L 259.348647 230.608497 
L 259.735878 231.445296 
L 260.123109 232.001609 
L 260.51034 231.536332 
L 260.897571 231.797807 
L 261.284802 230.11906 
L 261.672033 229.51351 
L 262.059264 231.480885 
L 262.446495 229.42652 
L 262.833727 229.157409 
L 263.220958 229.1719 
L 263.608189 229.491962 
L 263.99542 231.988441 
L 264.769882 230.04143 
L 265.157113 227.828314 
L 266.318806 209.563728 
L 266.706037 151.459288 
L 267.093269 219.179819 
L 267.4805 217.876124 
L 267.867731 212.173809 
L 268.254962 210.350893 
L 269.029424 203.447106 
L 269.803886 222.033546 
L 270.578348 224.645748 
L 270.965579 226.980388 
L 271.352811 228.179437 
L 271.740042 230.675539 
L 272.127273 231.961642 
L 272.514504 234.170638 
L 272.901735 235.480632 
L 273.288966 234.625949 
L 273.676197 232.722824 
L 274.063428 226.066376 
L 274.450659 232.954948 
L 274.83789 232.996865 
L 275.225121 228.471669 
L 275.612353 227.48214 
L 275.999584 221.384585 
L 277.161277 213.740971 
L 277.548508 218.045958 
L 277.935739 227.530786 
L 278.32297 231.767201 
L 278.710201 232.427693 
L 279.097432 234.991046 
L 279.484663 231.853781 
L 279.871895 231.968778 
L 280.259126 227.175565 
L 280.646357 227.405459 
L 281.033588 220.716448 
L 281.420819 226.051315 
L 281.80805 223.134185 
L 282.195281 223.826331 
L 282.582512 218.240027 
L 282.969743 215.824658 
L 283.356974 216.09391 
L 283.744205 212.148173 
L 284.131437 217.965685 
L 284.518668 220.045459 
L 284.905899 227.256567 
L 285.29313 225.955593 
L 285.680361 220.72581 
L 286.067592 218.967075 
L 286.454823 219.118133 
L 287.229285 229.288076 
L 287.616516 229.142339 
L 288.003747 228.485037 
L 288.390978 228.435216 
L 288.77821 229.470046 
L 289.552672 229.123015 
L 289.939903 231.953229 
L 290.327134 231.578574 
L 291.101596 233.788174 
L 291.488827 233.943407 
L 291.876058 233.043389 
L 292.263289 232.998908 
L 292.65052 230.777954 
L 293.037752 230.234382 
L 293.424983 229.959382 
L 293.812214 227.866177 
L 294.199445 227.328729 
L 294.586676 225.34765 
L 294.973907 224.927511 
L 295.361138 221.292227 
L 295.748369 224.402981 
L 296.1356 222.530651 
L 296.522831 225.327394 
L 296.910062 219.169433 
L 297.297294 219.067087 
L 297.684525 218.715326 
L 298.071756 226.777306 
L 298.458987 226.401745 
L 298.846218 226.24932 
L 299.233449 225.437404 
L 299.62068 225.230077 
L 300.007911 228.235669 
L 300.395142 230.051303 
L 300.782373 231.24075 
L 301.169604 230.399628 
L 301.556836 230.084434 
L 301.944067 226.911321 
L 302.331298 224.726309 
L 302.718529 216.047846 
L 303.10576 210.352526 
L 303.492991 206.744079 
L 303.880222 197.919168 
L 304.267453 200.534449 
L 304.654684 201.493342 
L 305.041915 208.984929 
L 305.429146 210.271922 
L 305.816378 216.390279 
L 306.978071 228.583739 
L 307.365302 230.762165 
L 307.752533 232.205942 
L 308.139764 232.139688 
L 308.526995 230.201079 
L 308.914226 231.15243 
L 309.688688 231.6967 
L 310.07592 231.782795 
L 310.463151 232.835608 
L 310.850382 233.181536 
L 311.237613 233.11145 
L 311.624844 233.201369 
L 312.012075 232.552236 
L 312.399306 232.436906 
L 312.786537 229.148899 
L 313.173768 229.145022 
L 313.560999 230.182632 
L 314.722693 232.050427 
L 315.109924 232.12466 
L 315.497155 232.548795 
L 315.884386 232.371864 
L 316.271617 233.683821 
L 317.046079 233.327869 
L 317.43331 234.266268 
L 317.820541 233.712912 
L 318.207772 232.468373 
L 318.595003 233.040801 
L 318.982235 232.024686 
L 319.369466 232.24058 
L 319.756697 230.818199 
L 320.143928 231.278709 
L 320.531159 231.490644 
L 320.91839 232.245846 
L 321.305621 232.745034 
L 321.692852 229.019039 
L 322.080083 229.716066 
L 322.467314 226.626759 
L 323.241777 218.009415 
L 323.629008 217.69366 
L 324.016239 210.590492 
L 324.40347 211.819649 
L 324.790701 213.952502 
L 325.177932 205.831215 
L 325.565163 200.437718 
L 325.952394 187.040209 
L 326.339625 187.039425 
L 326.726856 200.281997 
L 327.114087 203.804343 
L 327.501319 214.10882 
L 327.88855 210.129528 
L 328.275781 225.453942 
L 328.663012 226.926281 
L 329.050243 233.289752 
L 329.437474 232.448617 
L 330.211936 234.549911 
L 330.599167 233.927903 
L 330.986398 233.778374 
L 331.373629 233.268271 
L 331.760861 233.824661 
L 332.535323 234.310104 
L 332.922554 234.303863 
L 333.309785 234.147762 
L 333.697016 234.584772 
L 334.084247 234.466307 
L 334.471478 233.700461 
L 335.633171 230.281422 
L 336.020402 229.578404 
L 336.407634 230.870697 
L 336.794865 228.312434 
L 337.182096 231.871689 
L 337.569327 231.065179 
L 337.956558 231.333011 
L 338.343789 230.718677 
L 338.73102 234.0878 
L 339.118251 233.622593 
L 339.505482 233.818692 
L 339.892713 233.266827 
L 340.279944 232.202938 
L 340.667176 232.256667 
L 341.441638 224.204312 
L 341.828869 212.219741 
L 342.2161 207.463162 
L 342.603331 183.284135 
L 342.990562 178.776901 
L 343.377793 157.542938 
L 343.765024 149.201803 
L 344.152255 134.933411 
L 344.539486 129.178892 
L 344.926718 159.149681 
L 346.088411 200.461101 
L 346.475642 201.79919 
L 346.862873 211.125465 
L 347.250104 211.701443 
L 347.637335 213.190421 
L 348.024566 217.296801 
L 348.411797 213.237622 
L 348.799028 213.909987 
L 349.18626 216.3317 
L 349.573491 210.783296 
L 349.960722 212.275017 
L 350.347953 199.970803 
L 350.735184 215.01492 
L 351.122415 216.20256 
L 351.509646 225.335913 
L 351.896877 227.867158 
L 352.284108 225.686972 
L 352.671339 229.819695 
L 353.05857 225.336207 
L 353.445802 226.612999 
L 353.833033 228.850132 
L 354.220264 227.819623 
L 354.607495 227.964197 
L 354.994726 225.112224 
L 355.381957 225.797027 
L 355.769188 225.957554 
L 356.156419 229.26428 
L 356.54365 225.627116 
L 357.318112 229.994462 
L 357.705344 229.456268 
L 358.092575 230.307249 
L 358.479806 225.666155 
L 358.867037 228.362143 
L 359.254268 228.01242 
L 359.641499 227.290951 
L 360.02873 225.259649 
L 360.415961 225.987753 
L 360.803192 225.430557 
L 361.190423 229.283576 
L 361.577654 230.404777 
L 362.739348 231.946034 
L 363.126579 232.549235 
L 363.51381 232.559771 
L 363.901041 232.861796 
L 364.288272 230.639935 
L 364.675503 229.141091 
L 365.062734 225.943218 
L 365.449965 224.289762 
L 365.837196 229.340764 
L 366.224427 229.620772 
L 366.611659 232.567733 
L 366.99889 232.723131 
L 367.386121 233.230415 
L 367.773352 233.929097 
L 368.160583 234.967747 
L 368.547814 233.158805 
L 368.935045 232.525787 
L 369.322276 229.72755 
L 369.709507 229.468355 
L 370.096738 229.820794 
L 370.483969 229.953447 
L 370.871201 224.361872 
L 371.258432 224.473486 
L 371.645663 218.293366 
L 373.194587 176.581079 
L 373.581818 103.574497 
L 373.581818 103.574497 
" clip-path="url(#pbe8620f01f)" style="fill: none; stroke: #1f77b4; stroke-width: 1.5; stroke-linecap: round"/>
   </g>
   <g id="line2d_16">
    <path d="M 69.218182 127.656776 
L 69.605413 212.228253 
L 69.992644 221.258297 
L 70.379875 212.292145 
L 70.767106 197.597025 
L 71.154337 206.520583 
L 71.541568 208.884581 
L 71.928799 201.579615 
L 72.316031 211.738415 
L 72.703262 204.454748 
L 73.477724 221.386081 
L 73.864955 208.841986 
L 74.252186 217.552571 
L 74.639417 218.766516 
L 75.026648 215.508033 
L 75.413879 220.938838 
L 75.80111 235.570065 
L 76.188341 215.806195 
L 76.575573 211.631929 
L 76.962804 210.162417 
L 77.350035 211.482848 
L 77.737266 222.940782 
L 78.124497 221.00273 
L 78.511728 227.029858 
L 78.898959 220.449001 
L 79.28619 230.650395 
L 79.673421 213.4209 
L 80.060652 205.327936 
L 80.447883 211.461551 
L 80.835115 215.188574 
L 81.222346 217.829436 
L 81.609577 198.874862 
L 82.384039 210.780038 
L 82.77127 201.025886 
L 83.158501 211.099497 
L 83.545732 226.476129 
L 83.932963 215.678411 
L 84.320194 226.582616 
L 84.707425 220.512892 
L 85.094656 230.863368 
L 85.481888 235.250606 
L 85.869119 235.080228 
L 86.25635 229.734612 
L 86.643581 212.356036 
L 87.030812 227.775263 
L 87.418043 223.984348 
L 87.805274 224.325105 
L 88.192505 226.923372 
L 88.579736 223.004674 
L 88.966967 221.045324 
L 89.354198 229.798504 
L 89.74143 230.011477 
L 90.128661 231.970826 
L 90.515892 230.671692 
L 90.903123 230.714287 
L 91.290354 231.246719 
L 91.677585 235.889525 
L 92.452047 227.498398 
L 92.839278 231.566178 
L 93.226509 219.000786 
L 93.61374 201.068481 
L 94.000972 220.001758 
L 94.388203 227.56229 
L 94.775434 221.428675 
L 95.162665 225.9224 
L 95.549896 233.759797 
L 95.937127 221.833323 
L 96.324358 194.658001 
L 96.711589 217.275707 
L 97.09882 223.835267 
L 97.486051 224.814942 
L 97.873282 226.412237 
L 98.260514 230.181855 
L 98.647745 223.600997 
L 99.034976 233.03569 
L 99.422207 220.789757 
L 99.809438 223.5797 
L 100.196669 210.439282 
L 100.5839 213.058846 
L 100.971131 202.133345 
L 101.358362 194.807082 
L 101.745593 197.575728 
L 102.132824 174.574671 
L 102.520056 172.018999 
L 102.907287 186.54374 
L 103.294518 183.498229 
L 103.681749 221.045324 
L 104.06898 223.750078 
L 104.456211 206.115935 
L 104.843442 211.695821 
L 105.230673 214.570953 
L 105.617904 214.741331 
L 106.005135 210.119823 
L 106.392366 209.67258 
L 106.779598 217.765544 
L 107.166829 234.845958 
L 107.55406 221.492567 
L 107.941291 234.973742 
L 108.328522 231.3958 
L 108.715753 234.611688 
L 109.102984 232.439366 
L 109.490215 229.28737 
L 109.877446 230.650395 
L 110.264677 242.72595 
L 110.651908 230.373531 
L 111.039139 228.350289 
L 111.426371 228.116019 
L 111.813602 230.778179 
L 112.200833 230.629098 
L 112.588064 229.159586 
L 112.975295 233.50423 
L 113.362526 233.525527 
L 113.749757 235.783038 
L 114.136988 228.456776 
L 114.524219 236.762713 
L 114.91145 236.230281 
L 115.298681 230.22445 
L 115.685913 233.823689 
L 116.073144 230.92726 
L 116.460375 231.779151 
L 116.847606 230.032774 
L 117.234837 226.476129 
L 117.622068 227.221534 
L 118.009299 220.363812 
L 118.39653 219.448029 
L 118.783761 217.233112 
L 119.170992 217.233112 
L 119.558223 227.924344 
L 119.945455 227.498398 
L 120.332686 233.227365 
L 120.719917 233.227365 
L 121.107148 233.844986 
L 121.494379 228.797532 
L 121.88161 230.756881 
L 122.268841 223.941754 
L 122.656072 223.281538 
L 123.043303 216.743275 
L 123.430534 216.083059 
L 123.817765 197.959079 
L 124.204997 199.833239 
L 124.592228 213.18663 
L 124.979459 208.437338 
L 125.753921 218.297976 
L 126.141152 208.991067 
L 126.528383 210.162417 
L 126.915614 202.069453 
L 127.302845 140.28606 
L 127.690076 135.068227 
L 128.077307 158.985067 
L 128.464539 168.398462 
L 128.85177 151.509723 
L 129.239001 186.841902 
L 130.400694 224.538077 
L 130.787925 230.69299 
L 131.175156 227.583588 
L 131.562387 230.778179 
L 131.949618 226.007589 
L 132.336849 237.273847 
L 132.72408 227.753966 
L 133.111312 229.031802 
L 133.498543 230.948557 
L 133.885774 223.728781 
L 134.273005 230.054071 
L 134.660236 233.653311 
L 135.047467 235.463579 
L 135.434698 232.737528 
L 135.821929 235.570065 
L 136.20916 219.000786 
L 136.596391 231.246719 
L 136.983622 233.589419 
L 137.370854 233.078284 
L 137.758085 233.26996 
L 138.145316 229.329964 
L 138.532547 227.690074 
L 138.919778 234.121851 
L 139.307009 234.20704 
L 139.69424 232.268988 
L 140.081471 235.953416 
L 140.468702 232.673636 
L 140.855933 224.388996 
L 141.243164 196.596053 
L 141.630396 183.583419 
L 142.017627 158.005392 
L 142.404858 144.353839 
L 142.792089 106.380799 
L 143.17932 46.215998 
L 143.566551 44.64 
L 144.341013 193.891299 
L 144.728244 216.509005 
L 145.115475 224.218618 
L 145.502706 222.003702 
L 145.889938 228.946613 
L 146.277169 225.964995 
L 146.6644 209.544796 
L 147.051631 227.753966 
L 147.438862 230.139261 
L 147.826093 231.225422 
L 148.213324 229.074397 
L 148.600555 233.014393 
L 148.987786 234.505202 
L 149.375017 229.329964 
L 149.762248 230.309639 
L 150.14948 228.03083 
L 150.536711 222.983376 
L 150.923942 219.767488 
L 151.311173 189.887412 
L 151.698404 221.961107 
L 152.472866 233.546824 
L 152.860097 231.672664 
L 153.247328 245.004758 
L 153.634559 234.931147 
L 154.02179 233.376446 
L 154.409022 225.624238 
L 155.183484 222.514836 
L 155.570715 227.540993 
L 155.957946 227.200237 
L 156.345177 228.371587 
L 156.732408 232.162502 
L 157.119639 237.273847 
L 157.50687 210.737443 
L 157.894101 231.672664 
L 158.281332 235.506174 
L 158.668563 241.448113 
L 159.055795 236.911794 
L 159.443026 238.679468 
L 159.830257 237.934063 
L 160.217488 233.695905 
L 160.604719 232.822717 
L 160.99195 227.583588 
L 161.766412 222.450944 
L 162.153643 226.540021 
L 162.540874 224.026943 
L 162.928105 213.250522 
L 163.315337 220.06565 
L 163.702568 205.817773 
L 164.089799 213.144035 
L 164.47703 203.006533 
L 164.864261 198.960051 
L 165.638723 141.819463 
L 166.025954 154.938584 
L 166.413185 156.216421 
L 166.800416 167.099328 
L 167.187647 170.017055 
L 167.574879 191.804166 
L 167.96211 191.825464 
L 168.349341 212.526415 
L 168.736572 224.410294 
L 169.123803 212.334739 
L 169.511034 218.447057 
L 169.898265 232.524555 
L 170.285496 206.414097 
L 170.672727 161.008308 
L 171.059958 52.839451 
L 171.447189 82.804716 
L 171.834421 48.963347 
L 172.221652 79.162882 
L 172.608883 84.189039 
L 172.996114 131.511583 
L 173.383345 142.820435 
L 174.157807 182.901906 
L 174.545038 202.197236 
L 174.932269 213.293116 
L 175.3195 217.914625 
L 175.706731 218.638732 
L 176.093963 218.809111 
L 176.481194 205.881665 
L 176.868425 197.746106 
L 177.255656 209.779066 
L 177.642887 194.487623 
L 178.030118 207.734528 
L 178.417349 185.180714 
L 178.80458 210.162417 
L 179.579042 225.666833 
L 179.966273 219.426731 
L 180.353505 222.195377 
L 180.740736 209.736472 
L 181.127967 220.576784 
L 181.515198 216.445113 
L 181.902429 214.038521 
L 182.28966 215.550628 
L 182.676891 221.70554 
L 183.064122 220.811054 
L 183.451353 224.538077 
L 183.838584 215.635817 
L 184.225815 213.740359 
L 184.613046 216.956248 
L 185.000278 227.264128 
L 185.387509 226.667805 
L 186.161971 216.317329 
L 186.549202 214.634845 
L 186.936433 216.679383 
L 187.323664 212.867171 
L 187.710895 211.142092 
L 188.098126 221.684243 
L 188.485357 219.107272 
L 188.872588 217.552571 
L 189.25982 213.761656 
L 189.647051 222.685214 
L 190.034282 203.709343 
L 190.421513 213.697765 
L 190.808744 216.764572 
L 191.195975 229.266072 
L 191.583206 208.778094 
L 191.970437 199.811942 
L 192.357668 204.028802 
L 192.744899 202.069453 
L 193.13213 207.713231 
L 193.519362 189.376277 
L 193.906593 214.933007 
L 194.293824 200.749022 
L 194.681055 219.959163 
L 195.068286 211.631929 
L 195.455517 218.19149 
L 195.842748 220.960135 
L 196.229979 193.891299 
L 196.61721 195.020055 
L 197.004441 193.678327 
L 197.391672 168.249381 
L 197.778904 158.218365 
L 198.166135 210.183714 
L 198.553366 204.923288 
L 198.940597 220.555487 
L 199.327828 223.686186 
L 199.715059 223.409322 
L 200.10229 231.992123 
L 200.489521 225.666833 
L 200.876752 227.775263 
L 201.263983 226.028887 
L 201.651214 230.842071 
L 202.038446 230.096666 
L 202.425677 222.344458 
L 202.812908 221.087919 
L 203.200139 230.203152 
L 203.58737 221.812026 
L 203.974601 227.817858 
L 204.361832 227.32802 
L 204.749063 233.078284 
L 205.136294 213.527386 
L 205.523525 224.623266 
L 205.910756 220.619379 
L 206.297988 232.907906 
L 206.685219 232.09861 
L 207.07245 235.761741 
L 207.459681 230.842071 
L 207.846912 233.206068 
L 208.234143 226.646508 
L 208.621374 235.570065 
L 209.008605 229.43645 
L 209.395836 225.539049 
L 209.783067 229.52164 
L 210.170298 222.40835 
L 210.557529 205.498314 
L 210.944761 231.523583 
L 211.331992 220.385109 
L 211.719223 231.715259 
L 212.106454 229.138289 
L 212.493685 224.04824 
L 212.880916 224.218618 
L 213.268147 214.59225 
L 213.655378 225.624238 
L 214.042609 231.715259 
L 214.42984 225.539049 
L 214.817071 231.033746 
L 215.204303 229.116991 
L 215.591534 236.272876 
L 215.978765 225.901103 
L 216.365996 234.057959 
L 216.753227 234.185743 
L 217.140458 229.542937 
L 217.527689 235.250606 
L 217.91492 227.434507 
L 218.302151 227.09375 
L 218.689382 230.799476 
L 219.076613 229.351261 
L 219.463845 234.952445 
L 219.851076 233.951473 
L 220.238307 231.736556 
L 220.625538 225.155698 
L 221.012769 222.365755 
L 221.787231 241.746275 
L 222.174462 233.930175 
L 222.561693 233.866284 
L 222.948924 232.631042 
L 223.336155 236.208984 
L 223.723387 227.647479 
L 224.110618 225.666833 
L 224.88508 240.745303 
L 225.272311 239.062819 
L 225.659542 232.694933 
L 226.046773 231.033746 
L 226.434004 234.824661 
L 226.821235 236.975686 
L 227.208466 230.437422 
L 227.595697 227.903047 
L 227.982929 227.690074 
L 228.37016 231.757853 
L 228.757391 224.133429 
L 229.144622 225.176996 
L 229.531853 221.237 
L 229.919084 210.396687 
L 230.693546 202.005561 
L 231.468008 224.836239 
L 231.855239 216.977545 
L 232.242471 214.954304 
L 233.016933 230.330936 
L 233.404164 212.526415 
L 234.178626 227.370615 
L 234.565857 242.065734 
L 234.953088 223.899159 
L 235.340319 225.858508 
L 235.72755 235.463579 
L 236.114781 237.657198 
L 236.502012 229.542937 
L 236.889244 225.389968 
L 237.276475 233.26996 
L 237.663706 236.187686 
L 238.050937 231.906934 
L 238.438168 236.0812 
L 238.825399 241.661086 
L 239.21263 233.866284 
L 239.599861 231.544881 
L 239.987092 222.536134 
L 240.374323 221.00273 
L 241.148786 227.370615 
L 241.536017 224.218618 
L 241.923248 234.718175 
L 242.310479 237.103469 
L 242.69771 233.674608 
L 243.472172 223.34543 
L 243.859403 221.620351 
L 244.246634 231.076341 
L 244.633865 231.651367 
L 245.021096 229.52164 
L 245.408328 228.158614 
L 245.795559 229.585531 
L 246.18279 234.505202 
L 246.570021 232.737528 
L 246.957252 238.360008 
L 247.344483 236.272876 
L 247.731714 231.821745 
L 248.118945 234.483905 
L 248.506176 232.609744 
L 248.893407 224.431591 
L 249.280638 224.325105 
L 249.66787 204.369558 
L 250.055101 206.052043 
L 250.442332 230.203152 
L 250.829563 219.788785 
L 251.216794 228.73364 
L 251.604025 227.029858 
L 251.991256 229.372559 
L 252.378487 230.820773 
L 253.152949 240.553628 
L 253.54018 237.550712 
L 253.927412 228.073425 
L 254.314643 231.055043 
L 254.701874 239.808223 
L 255.089105 234.824661 
L 255.476336 221.300892 
L 255.863567 215.614519 
L 256.250798 204.582531 
L 256.638029 209.842958 
L 257.02526 225.027915 
L 257.412491 216.23214 
L 257.799722 232.034718 
L 258.186954 231.693962 
L 258.574185 237.380334 
L 258.961416 236.996983 
L 259.348647 238.253522 
L 259.735878 226.092778 
L 260.123109 236.251578 
L 260.51034 226.646508 
L 260.897571 233.50423 
L 261.284802 213.144035 
L 261.672033 229.0531 
L 262.059264 225.389968 
L 262.446495 235.570065 
L 262.833727 223.707484 
L 263.220958 228.840127 
L 263.608189 223.153754 
L 263.99542 228.627154 
L 264.382651 230.756881 
L 264.769882 228.435479 
L 265.157113 220.193433 
L 265.544344 215.848789 
L 265.931575 231.3958 
L 266.318806 222.259269 
L 266.706037 202.367615 
L 267.093269 197.87389 
L 267.4805 217.978517 
L 267.867731 231.204124 
L 268.254962 222.387053 
L 268.642193 227.540993 
L 269.029424 213.442197 
L 269.416655 222.344458 
L 269.803886 222.536134 
L 270.191117 234.334824 
L 270.578348 236.507146 
L 270.965579 226.284454 
L 271.352811 235.740444 
L 271.740042 233.312554 
L 272.127273 233.844986 
L 272.514504 215.827492 
L 273.288966 225.091806 
L 273.676197 224.218618 
L 274.063428 226.710399 
L 274.450659 226.965967 
L 274.83789 232.886609 
L 275.225121 233.546824 
L 275.612353 227.519696 
L 275.999584 224.176024 
L 276.386815 231.140232 
L 276.774046 230.756881 
L 277.161277 227.306723 
L 277.548508 229.223478 
L 277.935739 227.434507 
L 278.32297 228.989208 
L 278.710201 234.632985 
L 279.097432 235.676552 
L 279.484663 221.364783 
L 279.871895 230.45872 
L 280.259126 223.707484 
L 280.646357 225.262185 
L 281.033588 237.188658 
L 281.420819 228.009533 
L 281.80805 213.825548 
L 282.195281 233.419041 
L 282.582512 232.33288 
L 282.969743 200.68513 
L 283.356974 204.412153 
L 283.744205 171.273594 
L 284.131437 213.548684 
L 284.518668 218.596138 
L 284.905899 217.72295 
L 285.29313 228.009533 
L 285.680361 211.397659 
L 286.067592 209.544796 
L 286.454823 225.389968 
L 286.842054 221.93981 
L 287.229285 228.691046 
L 287.616516 228.712343 
L 288.003747 222.621323 
L 288.390978 224.75105 
L 288.77821 209.118851 
L 289.552672 240.936979 
L 289.939903 232.396772 
L 290.327134 238.764657 
L 291.101596 226.433535 
L 291.488827 244.919569 
L 291.876058 234.824661 
L 292.65052 229.968882 
L 293.037752 224.708456 
L 293.424983 233.844986 
L 293.812214 232.652339 
L 294.199445 235.335795 
L 294.586676 216.104357 
L 294.973907 209.885553 
L 295.361138 224.942726 
L 295.748369 219.043381 
L 296.1356 230.69299 
L 296.522831 230.139261 
L 296.910062 230.330936 
L 297.297294 229.20218 
L 297.684525 232.162502 
L 298.071756 231.289313 
L 298.458987 234.015364 
L 298.846218 218.276679 
L 300.007911 236.528443 
L 300.395142 224.197321 
L 300.782373 229.010505 
L 301.169604 229.266072 
L 301.556836 225.879806 
L 301.944067 219.511921 
L 302.331298 230.139261 
L 302.718529 217.850733 
L 303.10576 222.024999 
L 303.492991 189.908709 
L 303.880222 187.672495 
L 304.267453 217.190518 
L 304.654684 188.545683 
L 305.041915 217.297004 
L 305.816378 225.666833 
L 306.203609 240.660114 
L 306.59084 229.0531 
L 306.978071 228.201209 
L 307.365302 231.502286 
L 307.752533 232.758825 
L 308.914226 237.295145 
L 309.301457 231.3958 
L 309.688688 233.802392 
L 310.07592 242.406491 
L 310.463151 225.411266 
L 310.850382 231.949529 
L 311.237613 232.545853 
L 312.012075 239.211899 
L 312.399306 232.141204 
L 312.786537 232.205096 
L 313.173768 240.212871 
L 313.560999 230.92726 
L 313.94823 237.444226 
L 314.335461 235.910822 
L 314.722693 236.677524 
L 315.109924 233.97277 
L 315.497155 232.652339 
L 315.884386 236.592335 
L 316.271617 237.167361 
L 316.658848 230.629098 
L 317.046079 235.335795 
L 317.43331 229.372559 
L 317.820541 233.482933 
L 318.207772 232.205096 
L 318.595003 239.382278 
L 318.982235 235.548768 
L 319.369466 229.883693 
L 319.756697 246.24 
L 320.143928 238.935035 
L 320.531159 236.485848 
L 320.91839 239.446169 
L 321.305621 228.96791 
L 321.692852 230.309639 
L 322.080083 232.460663 
L 322.467314 237.657198 
L 322.854545 231.289313 
L 323.241777 231.438394 
L 324.016239 204.603828 
L 324.40347 224.026943 
L 324.790701 213.633873 
L 325.177932 211.291173 
L 325.565163 217.552571 
L 325.952394 203.560262 
L 326.339625 210.801335 
L 326.726856 223.81397 
L 327.114087 232.354177 
L 327.501319 233.887581 
L 327.88855 215.316357 
L 328.275781 223.281538 
L 328.663012 223.81397 
L 329.050243 225.986292 
L 329.437474 231.86434 
L 329.824705 230.22445 
L 330.599167 221.620351 
L 331.373629 237.380334 
L 331.760861 233.206068 
L 332.148092 235.527471 
L 332.535323 222.812998 
L 332.922554 213.995926 
L 333.309785 215.742303 
L 333.697016 216.274735 
L 334.084247 228.222506 
L 334.471478 228.094722 
L 334.858709 231.480989 
L 335.24594 229.585531 
L 335.633171 225.943697 
L 336.020402 236.507146 
L 336.407634 234.590391 
L 337.569327 218.468354 
L 337.956558 233.163473 
L 338.343789 237.891468 
L 338.73102 231.16153 
L 339.118251 234.270932 
L 339.505482 235.463579 
L 339.892713 231.736556 
L 340.279944 239.723034 
L 340.667176 221.00273 
L 341.054407 228.414181 
L 341.441638 225.815914 
L 341.828869 220.53419 
L 342.2161 209.459607 
L 342.603331 211.31247 
L 342.990562 208.820689 
L 343.377793 205.200152 
L 343.765024 189.610547 
L 344.152255 181.432394 
L 344.539486 176.171967 
L 344.926718 203.517667 
L 345.313949 216.253438 
L 345.70118 215.401547 
L 346.088411 221.961107 
L 346.475642 212.973657 
L 346.862873 217.467382 
L 347.250104 214.890412 
L 347.637335 199.471185 
L 348.024566 219.746191 
L 348.411797 208.629013 
L 348.799028 224.154726 
L 349.18626 228.201209 
L 349.573491 219.426731 
L 349.960722 183.64731 
L 350.347953 216.764572 
L 350.735184 229.20218 
L 351.122415 225.752022 
L 351.509646 208.778094 
L 351.896877 231.268016 
L 352.284108 233.056987 
L 352.671339 236.54974 
L 353.05857 246.218703 
L 353.445802 237.103469 
L 353.833033 233.206068 
L 354.220264 238.65817 
L 354.607495 240.596222 
L 354.994726 228.754938 
L 355.381957 233.312554 
L 355.769188 232.354177 
L 356.156419 223.622295 
L 356.54365 227.306723 
L 357.318112 238.296117 
L 357.705344 231.16153 
L 358.092575 233.50423 
L 358.479806 213.719062 
L 358.867037 225.794617 
L 359.254268 226.433535 
L 359.641499 229.585531 
L 360.02873 224.04824 
L 360.415961 215.167277 
L 360.803192 233.120879 
L 361.190423 232.865312 
L 361.577654 231.949529 
L 361.964885 235.655255 
L 362.352117 236.54974 
L 362.739348 244.83438 
L 363.126579 232.119907 
L 363.51381 244.493623 
L 363.901041 235.335795 
L 364.288272 238.061847 
L 364.675503 229.223478 
L 365.062734 199.875834 
L 365.449965 221.00273 
L 365.837196 224.28251 
L 366.224427 234.356121 
L 366.611659 231.012449 
L 366.99889 232.183799 
L 367.386121 228.158614 
L 367.773352 229.031802 
L 368.160583 229.031802 
L 368.547814 221.045324 
L 368.935045 233.802392 
L 369.322276 227.029858 
L 369.709507 229.713315 
L 370.096738 227.157642 
L 370.483969 234.249634 
L 370.871201 229.926288 
L 371.258432 216.530302 
L 371.645663 220.938838 
L 372.032894 215.209871 
L 372.420125 215.039493 
L 372.807356 191.804166 
L 373.581818 119.286947 
L 373.581818 119.286947 
" clip-path="url(#pbe8620f01f)" style="fill: none; stroke: #ff7f0e; stroke-width: 1.5; stroke-linecap: round"/>
   </g>
   <g id="patch_3">
    <path d="M 54 256.32 
L 54 34.56 
" style="fill: none; stroke: #ffffff; stroke-width: 0.8; stroke-linejoin: miter; stroke-linecap: square"/>
   </g>
   <g id="patch_4">
    <path d="M 388.8 256.32 
L 388.8 34.56 
" style="fill: none; stroke: #ffffff; stroke-width: 0.8; stroke-linejoin: miter; stroke-linecap: square"/>
   </g>
   <g id="patch_5">
    <path d="M 54 256.32 
L 388.8 256.32 
" style="fill: none; stroke: #ffffff; stroke-width: 0.8; stroke-linejoin: miter; stroke-linecap: square"/>
   </g>
   <g id="patch_6">
    <path d="M 54 34.56 
L 388.8 34.56 
" style="fill: none; stroke: #ffffff; stroke-width: 0.8; stroke-linejoin: miter; stroke-linecap: square"/>
   </g>
   <g id="text_17">
    <!-- Protein complex's vibration profile (asymmetric unit) -->
    <g style="fill: #262626" transform="translate(63.195 28.56) scale(0.12 -0.12)">
     <defs>
      <path id="DejaVuSans-50" d="M 1259 4147 
L 1259 2394 
L 2053 2394 
Q 2494 2394 2734 2622 
Q 2975 2850 2975 3272 
Q 2975 3691 2734 3919 
Q 2494 4147 2053 4147 
L 1259 4147 
z
M 628 4666 
L 2053 4666 
Q 2838 4666 3239 4311 
Q 3641 3956 3641 3272 
Q 3641 2581 3239 2228 
Q 2838 1875 2053 1875 
L 1259 1875 
L 1259 0 
L 628 0 
L 628 4666 
z
" transform="scale(0.015625)"/>
      <path id="DejaVuSans-70" d="M 1159 525 
L 1159 -1331 
L 581 -1331 
L 581 3500 
L 1159 3500 
L 1159 2969 
Q 1341 3281 1617 3432 
Q 1894 3584 2278 3584 
Q 2916 3584 3314 3078 
Q 3713 2572 3713 1747 
Q 3713 922 3314 415 
Q 2916 -91 2278 -91 
Q 1894 -91 1617 61 
Q 1341 213 1159 525 
z
M 3116 1747 
Q 3116 2381 2855 2742 
Q 2594 3103 2138 3103 
Q 1681 3103 1420 2742 
Q 1159 2381 1159 1747 
Q 1159 1113 1420 752 
Q 1681 391 2138 391 
Q 2594 391 2855 752 
Q 3116 1113 3116 1747 
z
" transform="scale(0.015625)"/>
      <path id="DejaVuSans-6c" d="M 603 4863 
L 1178 4863 
L 1178 0 
L 603 0 
L 603 4863 
z
" transform="scale(0.015625)"/>
      <path id="DejaVuSans-78" d="M 3513 3500 
L 2247 1797 
L 3578 0 
L 2900 0 
L 1881 1375 
L 863 0 
L 184 0 
L 1544 1831 
L 300 3500 
L 978 3500 
L 1906 2253 
L 2834 3500 
L 3513 3500 
z
" transform="scale(0.015625)"/>
      <path id="DejaVuSans-27" d="M 1147 4666 
L 1147 2931 
L 616 2931 
L 616 4666 
L 1147 4666 
z
" transform="scale(0.015625)"/>
      <path id="DejaVuSans-76" d="M 191 3500 
L 800 3500 
L 1894 563 
L 2988 3500 
L 3597 3500 
L 2284 0 
L 1503 0 
L 191 3500 
z
" transform="scale(0.015625)"/>
      <path id="DejaVuSans-79" d="M 2059 -325 
Q 1816 -950 1584 -1140 
Q 1353 -1331 966 -1331 
L 506 -1331 
L 506 -850 
L 844 -850 
Q 1081 -850 1212 -737 
Q 1344 -625 1503 -206 
L 1606 56 
L 191 3500 
L 800 3500 
L 1894 763 
L 2988 3500 
L 3597 3500 
L 2059 -325 
z
" transform="scale(0.015625)"/>
     </defs>
     <use xlink:href="#DejaVuSans-50"/>
     <use xlink:href="#DejaVuSans-72" x="58.552734"/>
     <use xlink:href="#DejaVuSans-6f" x="97.416016"/>
     <use xlink:href="#DejaVuSans-74" x="158.597656"/>
     <use xlink:href="#DejaVuSans-65" x="197.806641"/>
     <use xlink:href="#DejaVuSans-69" x="259.330078"/>
     <use xlink:href="#DejaVuSans-6e" x="287.113281"/>
     <use xlink:href="#DejaVuSans-20" x="350.492188"/>
     <use xlink:href="#DejaVuSans-63" x="382.279297"/>
     <use xlink:href="#DejaVuSans-6f" x="437.259766"/>
     <use xlink:href="#DejaVuSans-6d" x="498.441406"/>
     <use xlink:href="#DejaVuSans-70" x="595.853516"/>
     <use xlink:href="#DejaVuSans-6c" x="659.330078"/>
     <use xlink:href="#DejaVuSans-65" x="687.113281"/>
     <use xlink:href="#DejaVuSans-78" x="746.886719"/>
     <use xlink:href="#DejaVuSans-27" x="806.066406"/>
     <use xlink:href="#DejaVuSans-73" x="833.556641"/>
     <use xlink:href="#DejaVuSans-20" x="885.65625"/>
     <use xlink:href="#DejaVuSans-76" x="917.443359"/>
     <use xlink:href="#DejaVuSans-69" x="976.623047"/>
     <use xlink:href="#DejaVuSans-62" x="1004.40625"/>
     <use xlink:href="#DejaVuSans-72" x="1067.882812"/>
     <use xlink:href="#DejaVuSans-61" x="1108.996094"/>
     <use xlink:href="#DejaVuSans-74" x="1170.275391"/>
     <use xlink:href="#DejaVuSans-69" x="1209.484375"/>
     <use xlink:href="#DejaVuSans-6f" x="1237.267578"/>
     <use xlink:href="#DejaVuSans-6e" x="1298.449219"/>
     <use xlink:href="#DejaVuSans-20" x="1361.828125"/>
     <use xlink:href="#DejaVuSans-70" x="1393.615234"/>
     <use xlink:href="#DejaVuSans-72" x="1457.091797"/>
     <use xlink:href="#DejaVuSans-6f" x="1495.955078"/>
     <use xlink:href="#DejaVuSans-66" x="1557.136719"/>
     <use xlink:href="#DejaVuSans-69" x="1592.341797"/>
     <use xlink:href="#DejaVuSans-6c" x="1620.125"/>
     <use xlink:href="#DejaVuSans-65" x="1647.908203"/>
     <use xlink:href="#DejaVuSans-20" x="1709.431641"/>
     <use xlink:href="#DejaVuSans-28" x="1741.21875"/>
     <use xlink:href="#DejaVuSans-61" x="1780.232422"/>
     <use xlink:href="#DejaVuSans-73" x="1841.511719"/>
     <use xlink:href="#DejaVuSans-79" x="1893.611328"/>
     <use xlink:href="#DejaVuSans-6d" x="1952.791016"/>
     <use xlink:href="#DejaVuSans-6d" x="2050.203125"/>
     <use xlink:href="#DejaVuSans-65" x="2147.615234"/>
     <use xlink:href="#DejaVuSans-74" x="2209.138672"/>
     <use xlink:href="#DejaVuSans-72" x="2248.347656"/>
     <use xlink:href="#DejaVuSans-69" x="2289.460938"/>
     <use xlink:href="#DejaVuSans-63" x="2317.244141"/>
     <use xlink:href="#DejaVuSans-20" x="2372.224609"/>
     <use xlink:href="#DejaVuSans-75" x="2404.011719"/>
     <use xlink:href="#DejaVuSans-6e" x="2467.390625"/>
     <use xlink:href="#DejaVuSans-69" x="2530.769531"/>
     <use xlink:href="#DejaVuSans-74" x="2558.552734"/>
     <use xlink:href="#DejaVuSans-29" x="2597.761719"/>
    </g>
   </g>
   <g id="legend_1">
    <g id="line2d_17">
     <path d="M 285.114062 47.658437 
L 295.114062 47.658437 
L 305.114062 47.658437 
" style="fill: none; stroke: #1f77b4; stroke-width: 1.5; stroke-linecap: round"/>
    </g>
    <g id="text_18">
     <!-- Predicted -->
     <g style="fill: #262626" transform="translate(313.114062 51.158437) scale(0.1 -0.1)">
      <use xlink:href="#DejaVuSans-50"/>
      <use xlink:href="#DejaVuSans-72" x="58.552734"/>
      <use xlink:href="#DejaVuSans-65" x="97.416016"/>
      <use xlink:href="#DejaVuSans-64" x="158.939453"/>
      <use xlink:href="#DejaVuSans-69" x="222.416016"/>
      <use xlink:href="#DejaVuSans-63" x="250.199219"/>
      <use xlink:href="#DejaVuSans-74" x="305.179688"/>
      <use xlink:href="#DejaVuSans-65" x="344.388672"/>
      <use xlink:href="#DejaVuSans-64" x="405.912109"/>
     </g>
    </g>
    <g id="line2d_18">
     <path d="M 285.114062 62.336562 
L 295.114062 62.336562 
L 305.114062 62.336562 
" style="fill: none; stroke: #ff7f0e; stroke-width: 1.5; stroke-linecap: round"/>
    </g>
    <g id="text_19">
     <!-- Experimental -->
     <g style="fill: #262626" transform="translate(313.114062 65.836562) scale(0.1 -0.1)">
      <defs>
       <path id="DejaVuSans-45" d="M 628 4666 
L 3578 4666 
L 3578 4134 
L 1259 4134 
L 1259 2753 
L 3481 2753 
L 3481 2222 
L 1259 2222 
L 1259 531 
L 3634 531 
L 3634 0 
L 628 0 
L 628 4666 
z
" transform="scale(0.015625)"/>
      </defs>
      <use xlink:href="#DejaVuSans-45"/>
      <use xlink:href="#DejaVuSans-78" x="63.183594"/>
      <use xlink:href="#DejaVuSans-70" x="122.363281"/>
      <use xlink:href="#DejaVuSans-65" x="185.839844"/>
      <use xlink:href="#DejaVuSans-72" x="247.363281"/>
      <use xlink:href="#DejaVuSans-69" x="288.476562"/>
      <use xlink:href="#DejaVuSans-6d" x="316.259766"/>
      <use xlink:href="#DejaVuSans-65" x="413.671875"/>
      <use xlink:href="#DejaVuSans-6e" x="475.195312"/>
      <use xlink:href="#DejaVuSans-74" x="538.574219"/>
      <use xlink:href="#DejaVuSans-61" x="577.783203"/>
      <use xlink:href="#DejaVuSans-6c" x="639.0625"/>
     </g>
    </g>
   </g>
  </g>
 </g>
 <defs>
  <clipPath id="pbe8620f01f">
   <rect x="54" y="34.56" width="334.8" height="221.76"/>
  </clipPath>
 </defs>
</svg>
