<?xml version="1.0" encoding="utf-8" standalone="no"?>
<!DOCTYPE svg PUBLIC "-//W3C//DTD SVG 1.1//EN"
  "http://www.w3.org/Graphics/SVG/1.1/DTD/svg11.dtd">
<svg xmlns:xlink="http://www.w3.org/1999/xlink" width="432pt" height="288pt" viewBox="0 0 432 288" xmlns="http://www.w3.org/2000/svg" version="1.1">
 <metadata>
  <rdf:RDF xmlns:dc="http://purl.org/dc/elements/1.1/" xmlns:cc="http://creativecommons.org/ns#" xmlns:rdf="http://www.w3.org/1999/02/22-rdf-syntax-ns#">
   <cc:Work>
    <dc:type rdf:resource="http://purl.org/dc/dcmitype/StillImage"/>
    <dc:date>2023-08-23T17:57:15.933119</dc:date>
    <dc:format>image/svg+xml</dc:format>
    <dc:creator>
     <cc:Agent>
      <dc:title>Matplotlib v3.7.1, https://matplotlib.org/</dc:title>
     </cc:Agent>
    </dc:creator>
   </cc:Work>
  </rdf:RDF>
 </metadata>
 <defs>
  <style type="text/css">*{stroke-linejoin: round; stroke-linecap: butt}</style>
 </defs>
 <g id="figure_1">
  <g id="patch_1">
   <path d="M 0 288 
L 432 288 
L 432 0 
L 0 0 
z
" style="fill: #ffffff"/>
  </g>
  <g id="axes_1">
   <g id="patch_2">
    <path d="M 54 256.32 
L 388.8 256.32 
L 388.8 34.56 
L 54 34.56 
z
" style="fill: #eaeaf2"/>
   </g>
   <g id="matplotlib.axis_1">
    <g id="xtick_1">
     <g id="line2d_1">
      <path d="M 68.830951 256.32 
L 68.830951 34.56 
" clip-path="url(#pd60818ae71)" style="fill: none; stroke: #ffffff; stroke-width: 0.8; stroke-linecap: round"/>
     </g>
     <g id="text_1">
      <!-- 0 -->
      <g style="fill: #262626" transform="translate(66.050482 270.477813) scale(0.1 -0.1)">
       <defs>
        <path id="ArialMT-30" d="M 266 2259 
Q 266 3072 433 3567 
Q 600 4063 929 4331 
Q 1259 4600 1759 4600 
Q 2128 4600 2406 4451 
Q 2684 4303 2865 4023 
Q 3047 3744 3150 3342 
Q 3253 2941 3253 2259 
Q 3253 1453 3087 958 
Q 2922 463 2592 192 
Q 2263 -78 1759 -78 
Q 1097 -78 719 397 
Q 266 969 266 2259 
z
M 844 2259 
Q 844 1131 1108 757 
Q 1372 384 1759 384 
Q 2147 384 2411 759 
Q 2675 1134 2675 2259 
Q 2675 3391 2411 3762 
Q 2147 4134 1753 4134 
Q 1366 4134 1134 3806 
Q 844 3388 844 2259 
z
" transform="scale(0.015625)"/>
       </defs>
       <use xlink:href="#ArialMT-30"/>
      </g>
     </g>
    </g>
    <g id="xtick_2">
     <g id="line2d_2">
      <path d="M 107.55406 256.32 
L 107.55406 34.56 
" clip-path="url(#pd60818ae71)" style="fill: none; stroke: #ffffff; stroke-width: 0.8; stroke-linecap: round"/>
     </g>
     <g id="text_2">
      <!-- 100 -->
      <g style="fill: #262626" transform="translate(99.212653 270.477813) scale(0.1 -0.1)">
       <defs>
        <path id="ArialMT-31" d="M 2384 0 
L 1822 0 
L 1822 3584 
Q 1619 3391 1289 3197 
Q 959 3003 697 2906 
L 697 3450 
Q 1169 3672 1522 3987 
Q 1875 4303 2022 4600 
L 2384 4600 
L 2384 0 
z
" transform="scale(0.015625)"/>
       </defs>
       <use xlink:href="#ArialMT-31"/>
       <use xlink:href="#ArialMT-30" x="55.615234"/>
       <use xlink:href="#ArialMT-30" x="111.230469"/>
      </g>
     </g>
    </g>
    <g id="xtick_3">
     <g id="line2d_3">
      <path d="M 146.277169 256.32 
L 146.277169 34.56 
" clip-path="url(#pd60818ae71)" style="fill: none; stroke: #ffffff; stroke-width: 0.8; stroke-linecap: round"/>
     </g>
     <g id="text_3">
      <!-- 200 -->
      <g style="fill: #262626" transform="translate(137.935762 270.477813) scale(0.1 -0.1)">
       <defs>
        <path id="ArialMT-32" d="M 3222 541 
L 3222 0 
L 194 0 
Q 188 203 259 391 
Q 375 700 629 1000 
Q 884 1300 1366 1694 
Q 2113 2306 2375 2664 
Q 2638 3022 2638 3341 
Q 2638 3675 2398 3904 
Q 2159 4134 1775 4134 
Q 1369 4134 1125 3890 
Q 881 3647 878 3216 
L 300 3275 
Q 359 3922 746 4261 
Q 1134 4600 1788 4600 
Q 2447 4600 2831 4234 
Q 3216 3869 3216 3328 
Q 3216 3053 3103 2787 
Q 2991 2522 2730 2228 
Q 2469 1934 1863 1422 
Q 1356 997 1212 845 
Q 1069 694 975 541 
L 3222 541 
z
" transform="scale(0.015625)"/>
       </defs>
       <use xlink:href="#ArialMT-32"/>
       <use xlink:href="#ArialMT-30" x="55.615234"/>
       <use xlink:href="#ArialMT-30" x="111.230469"/>
      </g>
     </g>
    </g>
    <g id="xtick_4">
     <g id="line2d_4">
      <path d="M 185.000278 256.32 
L 185.000278 34.56 
" clip-path="url(#pd60818ae71)" style="fill: none; stroke: #ffffff; stroke-width: 0.8; stroke-linecap: round"/>
     </g>
     <g id="text_4">
      <!-- 300 -->
      <g style="fill: #262626" transform="translate(176.658871 270.477813) scale(0.1 -0.1)">
       <defs>
        <path id="ArialMT-33" d="M 269 1209 
L 831 1284 
Q 928 806 1161 595 
Q 1394 384 1728 384 
Q 2125 384 2398 659 
Q 2672 934 2672 1341 
Q 2672 1728 2419 1979 
Q 2166 2231 1775 2231 
Q 1616 2231 1378 2169 
L 1441 2663 
Q 1497 2656 1531 2656 
Q 1891 2656 2178 2843 
Q 2466 3031 2466 3422 
Q 2466 3731 2256 3934 
Q 2047 4138 1716 4138 
Q 1388 4138 1169 3931 
Q 950 3725 888 3313 
L 325 3413 
Q 428 3978 793 4289 
Q 1159 4600 1703 4600 
Q 2078 4600 2393 4439 
Q 2709 4278 2876 4000 
Q 3044 3722 3044 3409 
Q 3044 3113 2884 2869 
Q 2725 2625 2413 2481 
Q 2819 2388 3044 2092 
Q 3269 1797 3269 1353 
Q 3269 753 2831 336 
Q 2394 -81 1725 -81 
Q 1122 -81 723 278 
Q 325 638 269 1209 
z
" transform="scale(0.015625)"/>
       </defs>
       <use xlink:href="#ArialMT-33"/>
       <use xlink:href="#ArialMT-30" x="55.615234"/>
       <use xlink:href="#ArialMT-30" x="111.230469"/>
      </g>
     </g>
    </g>
    <g id="xtick_5">
     <g id="line2d_5">
      <path d="M 223.723387 256.32 
L 223.723387 34.56 
" clip-path="url(#pd60818ae71)" style="fill: none; stroke: #ffffff; stroke-width: 0.8; stroke-linecap: round"/>
     </g>
     <g id="text_5">
      <!-- 400 -->
      <g style="fill: #262626" transform="translate(215.38198 270.477813) scale(0.1 -0.1)">
       <defs>
        <path id="ArialMT-34" d="M 2069 0 
L 2069 1097 
L 81 1097 
L 81 1613 
L 2172 4581 
L 2631 4581 
L 2631 1613 
L 3250 1613 
L 3250 1097 
L 2631 1097 
L 2631 0 
L 2069 0 
z
M 2069 1613 
L 2069 3678 
L 634 1613 
L 2069 1613 
z
" transform="scale(0.015625)"/>
       </defs>
       <use xlink:href="#ArialMT-34"/>
       <use xlink:href="#ArialMT-30" x="55.615234"/>
       <use xlink:href="#ArialMT-30" x="111.230469"/>
      </g>
     </g>
    </g>
    <g id="xtick_6">
     <g id="line2d_6">
      <path d="M 262.446495 256.32 
L 262.446495 34.56 
" clip-path="url(#pd60818ae71)" style="fill: none; stroke: #ffffff; stroke-width: 0.8; stroke-linecap: round"/>
     </g>
     <g id="text_6">
      <!-- 500 -->
      <g style="fill: #262626" transform="translate(254.105089 270.477813) scale(0.1 -0.1)">
       <defs>
        <path id="ArialMT-35" d="M 266 1200 
L 856 1250 
Q 922 819 1161 601 
Q 1400 384 1738 384 
Q 2144 384 2425 690 
Q 2706 997 2706 1503 
Q 2706 1984 2436 2262 
Q 2166 2541 1728 2541 
Q 1456 2541 1237 2417 
Q 1019 2294 894 2097 
L 366 2166 
L 809 4519 
L 3088 4519 
L 3088 3981 
L 1259 3981 
L 1013 2750 
Q 1425 3038 1878 3038 
Q 2478 3038 2890 2622 
Q 3303 2206 3303 1553 
Q 3303 931 2941 478 
Q 2500 -78 1738 -78 
Q 1113 -78 717 272 
Q 322 622 266 1200 
z
" transform="scale(0.015625)"/>
       </defs>
       <use xlink:href="#ArialMT-35"/>
       <use xlink:href="#ArialMT-30" x="55.615234"/>
       <use xlink:href="#ArialMT-30" x="111.230469"/>
      </g>
     </g>
    </g>
    <g id="xtick_7">
     <g id="line2d_7">
      <path d="M 301.169604 256.32 
L 301.169604 34.56 
" clip-path="url(#pd60818ae71)" style="fill: none; stroke: #ffffff; stroke-width: 0.8; stroke-linecap: round"/>
     </g>
     <g id="text_7">
      <!-- 600 -->
      <g style="fill: #262626" transform="translate(292.828198 270.477813) scale(0.1 -0.1)">
       <defs>
        <path id="ArialMT-36" d="M 3184 3459 
L 2625 3416 
Q 2550 3747 2413 3897 
Q 2184 4138 1850 4138 
Q 1581 4138 1378 3988 
Q 1113 3794 959 3422 
Q 806 3050 800 2363 
Q 1003 2672 1297 2822 
Q 1591 2972 1913 2972 
Q 2475 2972 2870 2558 
Q 3266 2144 3266 1488 
Q 3266 1056 3080 686 
Q 2894 316 2569 119 
Q 2244 -78 1831 -78 
Q 1128 -78 684 439 
Q 241 956 241 2144 
Q 241 3472 731 4075 
Q 1159 4600 1884 4600 
Q 2425 4600 2770 4297 
Q 3116 3994 3184 3459 
z
M 888 1484 
Q 888 1194 1011 928 
Q 1134 663 1356 523 
Q 1578 384 1822 384 
Q 2178 384 2434 671 
Q 2691 959 2691 1453 
Q 2691 1928 2437 2201 
Q 2184 2475 1800 2475 
Q 1419 2475 1153 2201 
Q 888 1928 888 1484 
z
" transform="scale(0.015625)"/>
       </defs>
       <use xlink:href="#ArialMT-36"/>
       <use xlink:href="#ArialMT-30" x="55.615234"/>
       <use xlink:href="#ArialMT-30" x="111.230469"/>
      </g>
     </g>
    </g>
    <g id="xtick_8">
     <g id="line2d_8">
      <path d="M 339.892713 256.32 
L 339.892713 34.56 
" clip-path="url(#pd60818ae71)" style="fill: none; stroke: #ffffff; stroke-width: 0.8; stroke-linecap: round"/>
     </g>
     <g id="text_8">
      <!-- 700 -->
      <g style="fill: #262626" transform="translate(331.551307 270.477813) scale(0.1 -0.1)">
       <defs>
        <path id="ArialMT-37" d="M 303 3981 
L 303 4522 
L 3269 4522 
L 3269 4084 
Q 2831 3619 2401 2847 
Q 1972 2075 1738 1259 
Q 1569 684 1522 0 
L 944 0 
Q 953 541 1156 1306 
Q 1359 2072 1739 2783 
Q 2119 3494 2547 3981 
L 303 3981 
z
" transform="scale(0.015625)"/>
       </defs>
       <use xlink:href="#ArialMT-37"/>
       <use xlink:href="#ArialMT-30" x="55.615234"/>
       <use xlink:href="#ArialMT-30" x="111.230469"/>
      </g>
     </g>
    </g>
    <g id="xtick_9">
     <g id="line2d_9">
      <path d="M 378.615822 256.32 
L 378.615822 34.56 
" clip-path="url(#pd60818ae71)" style="fill: none; stroke: #ffffff; stroke-width: 0.8; stroke-linecap: round"/>
     </g>
     <g id="text_9">
      <!-- 800 -->
      <g style="fill: #262626" transform="translate(370.274416 270.477813) scale(0.1 -0.1)">
       <defs>
        <path id="ArialMT-38" d="M 1131 2484 
Q 781 2613 612 2850 
Q 444 3088 444 3419 
Q 444 3919 803 4259 
Q 1163 4600 1759 4600 
Q 2359 4600 2725 4251 
Q 3091 3903 3091 3403 
Q 3091 3084 2923 2848 
Q 2756 2613 2416 2484 
Q 2838 2347 3058 2040 
Q 3278 1734 3278 1309 
Q 3278 722 2862 322 
Q 2447 -78 1769 -78 
Q 1091 -78 675 323 
Q 259 725 259 1325 
Q 259 1772 486 2073 
Q 713 2375 1131 2484 
z
M 1019 3438 
Q 1019 3113 1228 2906 
Q 1438 2700 1772 2700 
Q 2097 2700 2305 2904 
Q 2513 3109 2513 3406 
Q 2513 3716 2298 3927 
Q 2084 4138 1766 4138 
Q 1444 4138 1231 3931 
Q 1019 3725 1019 3438 
z
M 838 1322 
Q 838 1081 952 856 
Q 1066 631 1291 507 
Q 1516 384 1775 384 
Q 2178 384 2440 643 
Q 2703 903 2703 1303 
Q 2703 1709 2433 1975 
Q 2163 2241 1756 2241 
Q 1359 2241 1098 1978 
Q 838 1716 838 1322 
z
" transform="scale(0.015625)"/>
       </defs>
       <use xlink:href="#ArialMT-38"/>
       <use xlink:href="#ArialMT-30" x="55.615234"/>
       <use xlink:href="#ArialMT-30" x="111.230469"/>
      </g>
     </g>
    </g>
    <g id="text_10">
     <!-- Residue number -->
     <g style="fill: #262626" transform="translate(184.715625 283.623125) scale(0.1 -0.1)">
      <defs>
       <path id="ArialMT-52" d="M 503 0 
L 503 4581 
L 2534 4581 
Q 3147 4581 3465 4457 
Q 3784 4334 3975 4021 
Q 4166 3709 4166 3331 
Q 4166 2844 3850 2509 
Q 3534 2175 2875 2084 
Q 3116 1969 3241 1856 
Q 3506 1613 3744 1247 
L 4541 0 
L 3778 0 
L 3172 953 
Q 2906 1366 2734 1584 
Q 2563 1803 2427 1890 
Q 2291 1978 2150 2013 
Q 2047 2034 1813 2034 
L 1109 2034 
L 1109 0 
L 503 0 
z
M 1109 2559 
L 2413 2559 
Q 2828 2559 3062 2645 
Q 3297 2731 3419 2920 
Q 3541 3109 3541 3331 
Q 3541 3656 3305 3865 
Q 3069 4075 2559 4075 
L 1109 4075 
L 1109 2559 
z
" transform="scale(0.015625)"/>
       <path id="ArialMT-65" d="M 2694 1069 
L 3275 997 
Q 3138 488 2766 206 
Q 2394 -75 1816 -75 
Q 1088 -75 661 373 
Q 234 822 234 1631 
Q 234 2469 665 2931 
Q 1097 3394 1784 3394 
Q 2450 3394 2872 2941 
Q 3294 2488 3294 1666 
Q 3294 1616 3291 1516 
L 816 1516 
Q 847 969 1125 678 
Q 1403 388 1819 388 
Q 2128 388 2347 550 
Q 2566 713 2694 1069 
z
M 847 1978 
L 2700 1978 
Q 2663 2397 2488 2606 
Q 2219 2931 1791 2931 
Q 1403 2931 1139 2672 
Q 875 2413 847 1978 
z
" transform="scale(0.015625)"/>
       <path id="ArialMT-73" d="M 197 991 
L 753 1078 
Q 800 744 1014 566 
Q 1228 388 1613 388 
Q 2000 388 2187 545 
Q 2375 703 2375 916 
Q 2375 1106 2209 1216 
Q 2094 1291 1634 1406 
Q 1016 1563 777 1677 
Q 538 1791 414 1992 
Q 291 2194 291 2438 
Q 291 2659 392 2848 
Q 494 3038 669 3163 
Q 800 3259 1026 3326 
Q 1253 3394 1513 3394 
Q 1903 3394 2198 3281 
Q 2494 3169 2634 2976 
Q 2775 2784 2828 2463 
L 2278 2388 
Q 2241 2644 2061 2787 
Q 1881 2931 1553 2931 
Q 1166 2931 1000 2803 
Q 834 2675 834 2503 
Q 834 2394 903 2306 
Q 972 2216 1119 2156 
Q 1203 2125 1616 2013 
Q 2213 1853 2448 1751 
Q 2684 1650 2818 1456 
Q 2953 1263 2953 975 
Q 2953 694 2789 445 
Q 2625 197 2315 61 
Q 2006 -75 1616 -75 
Q 969 -75 630 194 
Q 291 463 197 991 
z
" transform="scale(0.015625)"/>
       <path id="ArialMT-69" d="M 425 3934 
L 425 4581 
L 988 4581 
L 988 3934 
L 425 3934 
z
M 425 0 
L 425 3319 
L 988 3319 
L 988 0 
L 425 0 
z
" transform="scale(0.015625)"/>
       <path id="ArialMT-64" d="M 2575 0 
L 2575 419 
Q 2259 -75 1647 -75 
Q 1250 -75 917 144 
Q 584 363 401 755 
Q 219 1147 219 1656 
Q 219 2153 384 2558 
Q 550 2963 881 3178 
Q 1213 3394 1622 3394 
Q 1922 3394 2156 3267 
Q 2391 3141 2538 2938 
L 2538 4581 
L 3097 4581 
L 3097 0 
L 2575 0 
z
M 797 1656 
Q 797 1019 1065 703 
Q 1334 388 1700 388 
Q 2069 388 2326 689 
Q 2584 991 2584 1609 
Q 2584 2291 2321 2609 
Q 2059 2928 1675 2928 
Q 1300 2928 1048 2622 
Q 797 2316 797 1656 
z
" transform="scale(0.015625)"/>
       <path id="ArialMT-75" d="M 2597 0 
L 2597 488 
Q 2209 -75 1544 -75 
Q 1250 -75 995 37 
Q 741 150 617 320 
Q 494 491 444 738 
Q 409 903 409 1263 
L 409 3319 
L 972 3319 
L 972 1478 
Q 972 1038 1006 884 
Q 1059 663 1231 536 
Q 1403 409 1656 409 
Q 1909 409 2131 539 
Q 2353 669 2445 892 
Q 2538 1116 2538 1541 
L 2538 3319 
L 3100 3319 
L 3100 0 
L 2597 0 
z
" transform="scale(0.015625)"/>
       <path id="ArialMT-20" transform="scale(0.015625)"/>
       <path id="ArialMT-6e" d="M 422 0 
L 422 3319 
L 928 3319 
L 928 2847 
Q 1294 3394 1984 3394 
Q 2284 3394 2536 3286 
Q 2788 3178 2913 3003 
Q 3038 2828 3088 2588 
Q 3119 2431 3119 2041 
L 3119 0 
L 2556 0 
L 2556 2019 
Q 2556 2363 2490 2533 
Q 2425 2703 2258 2804 
Q 2091 2906 1866 2906 
Q 1506 2906 1245 2678 
Q 984 2450 984 1813 
L 984 0 
L 422 0 
z
" transform="scale(0.015625)"/>
       <path id="ArialMT-6d" d="M 422 0 
L 422 3319 
L 925 3319 
L 925 2853 
Q 1081 3097 1340 3245 
Q 1600 3394 1931 3394 
Q 2300 3394 2536 3241 
Q 2772 3088 2869 2813 
Q 3263 3394 3894 3394 
Q 4388 3394 4653 3120 
Q 4919 2847 4919 2278 
L 4919 0 
L 4359 0 
L 4359 2091 
Q 4359 2428 4304 2576 
Q 4250 2725 4106 2815 
Q 3963 2906 3769 2906 
Q 3419 2906 3187 2673 
Q 2956 2441 2956 1928 
L 2956 0 
L 2394 0 
L 2394 2156 
Q 2394 2531 2256 2718 
Q 2119 2906 1806 2906 
Q 1569 2906 1367 2781 
Q 1166 2656 1075 2415 
Q 984 2175 984 1722 
L 984 0 
L 422 0 
z
" transform="scale(0.015625)"/>
       <path id="ArialMT-62" d="M 941 0 
L 419 0 
L 419 4581 
L 981 4581 
L 981 2947 
Q 1338 3394 1891 3394 
Q 2197 3394 2470 3270 
Q 2744 3147 2920 2923 
Q 3097 2700 3197 2384 
Q 3297 2069 3297 1709 
Q 3297 856 2875 390 
Q 2453 -75 1863 -75 
Q 1275 -75 941 416 
L 941 0 
z
M 934 1684 
Q 934 1088 1097 822 
Q 1363 388 1816 388 
Q 2184 388 2453 708 
Q 2722 1028 2722 1663 
Q 2722 2313 2464 2622 
Q 2206 2931 1841 2931 
Q 1472 2931 1203 2611 
Q 934 2291 934 1684 
z
" transform="scale(0.015625)"/>
       <path id="ArialMT-72" d="M 416 0 
L 416 3319 
L 922 3319 
L 922 2816 
Q 1116 3169 1280 3281 
Q 1444 3394 1641 3394 
Q 1925 3394 2219 3213 
L 2025 2691 
Q 1819 2813 1613 2813 
Q 1428 2813 1281 2702 
Q 1134 2591 1072 2394 
Q 978 2094 978 1738 
L 978 0 
L 416 0 
z
" transform="scale(0.015625)"/>
      </defs>
      <use xlink:href="#ArialMT-52"/>
      <use xlink:href="#ArialMT-65" x="72.216797"/>
      <use xlink:href="#ArialMT-73" x="127.832031"/>
      <use xlink:href="#ArialMT-69" x="177.832031"/>
      <use xlink:href="#ArialMT-64" x="200.048828"/>
      <use xlink:href="#ArialMT-75" x="255.664062"/>
      <use xlink:href="#ArialMT-65" x="311.279297"/>
      <use xlink:href="#ArialMT-20" x="366.894531"/>
      <use xlink:href="#ArialMT-6e" x="394.677734"/>
      <use xlink:href="#ArialMT-75" x="450.292969"/>
      <use xlink:href="#ArialMT-6d" x="505.908203"/>
      <use xlink:href="#ArialMT-62" x="589.208984"/>
      <use xlink:href="#ArialMT-65" x="644.824219"/>
      <use xlink:href="#ArialMT-72" x="700.439453"/>
     </g>
    </g>
   </g>
   <g id="matplotlib.axis_2">
    <g id="ytick_1">
     <g id="line2d_10">
      <path d="M 54 217.95722 
L 388.8 217.95722 
" clip-path="url(#pd60818ae71)" style="fill: none; stroke: #ffffff; stroke-width: 0.8; stroke-linecap: round"/>
     </g>
     <g id="text_11">
      <!-- 20 -->
      <g style="fill: #262626" transform="translate(35.878125 221.536126) scale(0.1 -0.1)">
       <use xlink:href="#ArialMT-32"/>
       <use xlink:href="#ArialMT-30" x="55.615234"/>
      </g>
     </g>
    </g>
    <g id="ytick_2">
     <g id="line2d_11">
      <path d="M 54 175.362671 
L 388.8 175.362671 
" clip-path="url(#pd60818ae71)" style="fill: none; stroke: #ffffff; stroke-width: 0.8; stroke-linecap: round"/>
     </g>
     <g id="text_12">
      <!-- 40 -->
      <g style="fill: #262626" transform="translate(35.878125 178.941577) scale(0.1 -0.1)">
       <use xlink:href="#ArialMT-34"/>
       <use xlink:href="#ArialMT-30" x="55.615234"/>
      </g>
     </g>
    </g>
    <g id="ytick_3">
     <g id="line2d_12">
      <path d="M 54 132.768122 
L 388.8 132.768122 
" clip-path="url(#pd60818ae71)" style="fill: none; stroke: #ffffff; stroke-width: 0.8; stroke-linecap: round"/>
     </g>
     <g id="text_13">
      <!-- 60 -->
      <g style="fill: #262626" transform="translate(35.878125 136.347028) scale(0.1 -0.1)">
       <use xlink:href="#ArialMT-36"/>
       <use xlink:href="#ArialMT-30" x="55.615234"/>
      </g>
     </g>
    </g>
    <g id="ytick_4">
     <g id="line2d_13">
      <path d="M 54 90.173573 
L 388.8 90.173573 
" clip-path="url(#pd60818ae71)" style="fill: none; stroke: #ffffff; stroke-width: 0.8; stroke-linecap: round"/>
     </g>
     <g id="text_14">
      <!-- 80 -->
      <g style="fill: #262626" transform="translate(35.878125 93.752479) scale(0.1 -0.1)">
       <use xlink:href="#ArialMT-38"/>
       <use xlink:href="#ArialMT-30" x="55.615234"/>
      </g>
     </g>
    </g>
    <g id="ytick_5">
     <g id="line2d_14">
      <path d="M 54 47.579024 
L 388.8 47.579024 
" clip-path="url(#pd60818ae71)" style="fill: none; stroke: #ffffff; stroke-width: 0.8; stroke-linecap: round"/>
     </g>
     <g id="text_15">
      <!-- 100 -->
      <g style="fill: #262626" transform="translate(30.317187 51.15793) scale(0.1 -0.1)">
       <use xlink:href="#ArialMT-31"/>
       <use xlink:href="#ArialMT-30" x="55.615234"/>
       <use xlink:href="#ArialMT-30" x="111.230469"/>
      </g>
     </g>
    </g>
    <g id="text_16">
     <!-- B-factor ($\AA^2$) -->
     <g style="fill: #262626" transform="translate(24.117188 173.94) rotate(-90) scale(0.1 -0.1)">
      <defs>
       <path id="ArialMT-42" d="M 469 0 
L 469 4581 
L 2188 4581 
Q 2713 4581 3030 4442 
Q 3347 4303 3526 4014 
Q 3706 3725 3706 3409 
Q 3706 3116 3547 2856 
Q 3388 2597 3066 2438 
Q 3481 2316 3704 2022 
Q 3928 1728 3928 1328 
Q 3928 1006 3792 729 
Q 3656 453 3456 303 
Q 3256 153 2954 76 
Q 2653 0 2216 0 
L 469 0 
z
M 1075 2656 
L 2066 2656 
Q 2469 2656 2644 2709 
Q 2875 2778 2992 2937 
Q 3109 3097 3109 3338 
Q 3109 3566 3000 3739 
Q 2891 3913 2687 3977 
Q 2484 4041 1991 4041 
L 1075 4041 
L 1075 2656 
z
M 1075 541 
L 2216 541 
Q 2509 541 2628 563 
Q 2838 600 2978 687 
Q 3119 775 3209 942 
Q 3300 1109 3300 1328 
Q 3300 1584 3169 1773 
Q 3038 1963 2805 2039 
Q 2572 2116 2134 2116 
L 1075 2116 
L 1075 541 
z
" transform="scale(0.015625)"/>
       <path id="ArialMT-2d" d="M 203 1375 
L 203 1941 
L 1931 1941 
L 1931 1375 
L 203 1375 
z
" transform="scale(0.015625)"/>
       <path id="ArialMT-66" d="M 556 0 
L 556 2881 
L 59 2881 
L 59 3319 
L 556 3319 
L 556 3672 
Q 556 4006 616 4169 
Q 697 4388 901 4523 
Q 1106 4659 1475 4659 
Q 1713 4659 2000 4603 
L 1916 4113 
Q 1741 4144 1584 4144 
Q 1328 4144 1222 4034 
Q 1116 3925 1116 3625 
L 1116 3319 
L 1763 3319 
L 1763 2881 
L 1116 2881 
L 1116 0 
L 556 0 
z
" transform="scale(0.015625)"/>
       <path id="ArialMT-61" d="M 2588 409 
Q 2275 144 1986 34 
Q 1697 -75 1366 -75 
Q 819 -75 525 192 
Q 231 459 231 875 
Q 231 1119 342 1320 
Q 453 1522 633 1644 
Q 813 1766 1038 1828 
Q 1203 1872 1538 1913 
Q 2219 1994 2541 2106 
Q 2544 2222 2544 2253 
Q 2544 2597 2384 2738 
Q 2169 2928 1744 2928 
Q 1347 2928 1158 2789 
Q 969 2650 878 2297 
L 328 2372 
Q 403 2725 575 2942 
Q 747 3159 1072 3276 
Q 1397 3394 1825 3394 
Q 2250 3394 2515 3294 
Q 2781 3194 2906 3042 
Q 3031 2891 3081 2659 
Q 3109 2516 3109 2141 
L 3109 1391 
Q 3109 606 3145 398 
Q 3181 191 3288 0 
L 2700 0 
Q 2613 175 2588 409 
z
M 2541 1666 
Q 2234 1541 1622 1453 
Q 1275 1403 1131 1340 
Q 988 1278 909 1158 
Q 831 1038 831 891 
Q 831 666 1001 516 
Q 1172 366 1500 366 
Q 1825 366 2078 508 
Q 2331 650 2450 897 
Q 2541 1088 2541 1459 
L 2541 1666 
z
" transform="scale(0.015625)"/>
       <path id="ArialMT-63" d="M 2588 1216 
L 3141 1144 
Q 3050 572 2676 248 
Q 2303 -75 1759 -75 
Q 1078 -75 664 370 
Q 250 816 250 1647 
Q 250 2184 428 2587 
Q 606 2991 970 3192 
Q 1334 3394 1763 3394 
Q 2303 3394 2647 3120 
Q 2991 2847 3088 2344 
L 2541 2259 
Q 2463 2594 2264 2762 
Q 2066 2931 1784 2931 
Q 1359 2931 1093 2626 
Q 828 2322 828 1663 
Q 828 994 1084 691 
Q 1341 388 1753 388 
Q 2084 388 2306 591 
Q 2528 794 2588 1216 
z
" transform="scale(0.015625)"/>
       <path id="ArialMT-74" d="M 1650 503 
L 1731 6 
Q 1494 -44 1306 -44 
Q 1000 -44 831 53 
Q 663 150 594 308 
Q 525 466 525 972 
L 525 2881 
L 113 2881 
L 113 3319 
L 525 3319 
L 525 4141 
L 1084 4478 
L 1084 3319 
L 1650 3319 
L 1650 2881 
L 1084 2881 
L 1084 941 
Q 1084 700 1114 631 
Q 1144 563 1211 522 
Q 1278 481 1403 481 
Q 1497 481 1650 503 
z
" transform="scale(0.015625)"/>
       <path id="ArialMT-6f" d="M 213 1659 
Q 213 2581 725 3025 
Q 1153 3394 1769 3394 
Q 2453 3394 2887 2945 
Q 3322 2497 3322 1706 
Q 3322 1066 3130 698 
Q 2938 331 2570 128 
Q 2203 -75 1769 -75 
Q 1072 -75 642 372 
Q 213 819 213 1659 
z
M 791 1659 
Q 791 1022 1069 705 
Q 1347 388 1769 388 
Q 2188 388 2466 706 
Q 2744 1025 2744 1678 
Q 2744 2294 2464 2611 
Q 2184 2928 1769 2928 
Q 1347 2928 1069 2612 
Q 791 2297 791 1659 
z
" transform="scale(0.015625)"/>
       <path id="ArialMT-28" d="M 1497 -1347 
Q 1031 -759 709 28 
Q 388 816 388 1659 
Q 388 2403 628 3084 
Q 909 3875 1497 4659 
L 1900 4659 
Q 1522 4009 1400 3731 
Q 1209 3300 1100 2831 
Q 966 2247 966 1656 
Q 966 153 1900 -1347 
L 1497 -1347 
z
" transform="scale(0.015625)"/>
       <path id="DejaVuSans-Oblique-c5" d="M 3188 5081 
Q 3188 5278 3048 5417 
Q 2909 5556 2713 5556 
Q 2513 5556 2377 5420 
Q 2241 5284 2241 5081 
Q 2241 4884 2377 4746 
Q 2513 4609 2713 4609 
Q 2909 4609 3048 4746 
Q 3188 4884 3188 5081 
z
M 2203 4397 
Q 2034 4513 1945 4689 
Q 1856 4866 1856 5081 
Q 1856 5438 2106 5689 
Q 2356 5941 2713 5941 
Q 3069 5941 3320 5689 
Q 3572 5438 3572 5081 
Q 3572 4834 3458 4643 
Q 3344 4453 3128 4341 
L 3938 0 
L 3278 0 
L 3084 1197 
L 984 1197 
L 325 0 
L -341 0 
L 2203 4397 
z
M 2584 4044 
L 1275 1722 
L 2988 1722 
L 2584 4044 
z
" transform="scale(0.015625)"/>
       <path id="DejaVuSans-32" d="M 1228 531 
L 3431 531 
L 3431 0 
L 469 0 
L 469 531 
Q 828 903 1448 1529 
Q 2069 2156 2228 2338 
Q 2531 2678 2651 2914 
Q 2772 3150 2772 3378 
Q 2772 3750 2511 3984 
Q 2250 4219 1831 4219 
Q 1534 4219 1204 4116 
Q 875 4013 500 3803 
L 500 4441 
Q 881 4594 1212 4672 
Q 1544 4750 1819 4750 
Q 2544 4750 2975 4387 
Q 3406 4025 3406 3419 
Q 3406 3131 3298 2873 
Q 3191 2616 2906 2266 
Q 2828 2175 2409 1742 
Q 1991 1309 1228 531 
z
" transform="scale(0.015625)"/>
       <path id="ArialMT-29" d="M 791 -1347 
L 388 -1347 
Q 1322 153 1322 1656 
Q 1322 2244 1188 2822 
Q 1081 3291 891 3722 
Q 769 4003 388 4659 
L 791 4659 
Q 1378 3875 1659 3084 
Q 1900 2403 1900 1659 
Q 1900 816 1576 28 
Q 1253 -759 791 -1347 
z
" transform="scale(0.015625)"/>
      </defs>
      <use xlink:href="#ArialMT-42" transform="translate(0 0.171875)"/>
      <use xlink:href="#ArialMT-2d" transform="translate(66.699219 0.171875)"/>
      <use xlink:href="#ArialMT-66" transform="translate(100 0.171875)"/>
      <use xlink:href="#ArialMT-61" transform="translate(127.783203 0.171875)"/>
      <use xlink:href="#ArialMT-63" transform="translate(183.398438 0.171875)"/>
      <use xlink:href="#ArialMT-74" transform="translate(233.398438 0.171875)"/>
      <use xlink:href="#ArialMT-6f" transform="translate(261.181641 0.171875)"/>
      <use xlink:href="#ArialMT-72" transform="translate(316.796875 0.171875)"/>
      <use xlink:href="#ArialMT-20" transform="translate(350.097656 0.171875)"/>
      <use xlink:href="#ArialMT-28" transform="translate(377.880859 0.171875)"/>
      <use xlink:href="#DejaVuSans-Oblique-c5" transform="translate(411.181641 0.171875)"/>
      <use xlink:href="#DejaVuSans-32" transform="translate(489.395677 38.453125) scale(0.7)"/>
      <use xlink:href="#ArialMT-29" transform="translate(536.666185 0.171875)"/>
     </g>
    </g>
   </g>
   <g id="PolyCollection_1"/>
   <g id="PolyCollection_2"/>
   <g id="line2d_15">
    <path d="M 69.218182 226.541341 
L 69.605413 228.77641 
L 69.992644 229.476036 
L 70.379875 230.891635 
L 70.767106 230.671688 
L 71.154337 231.272182 
L 71.541568 231.427258 
L 72.703262 228.724969 
L 73.477724 230.232987 
L 73.864955 229.368685 
L 74.252186 227.824161 
L 74.639417 227.233082 
L 75.026648 228.857848 
L 75.80111 225.619906 
L 76.188341 225.009655 
L 76.575573 225.844235 
L 76.962804 225.97445 
L 77.350035 227.736879 
L 77.737266 228.253797 
L 78.124497 227.953332 
L 78.511728 229.858014 
L 78.898959 228.765801 
L 79.28619 226.634963 
L 79.673421 226.212965 
L 80.060652 225.567865 
L 80.447883 224.480011 
L 80.835115 226.259565 
L 81.222346 226.733435 
L 81.609577 224.670299 
L 81.996808 224.191034 
L 83.158501 224.364838 
L 83.545732 226.561606 
L 84.320194 226.687851 
L 84.707425 227.331445 
L 85.094656 228.848177 
L 85.481888 228.897304 
L 85.869119 228.59019 
L 86.25635 228.449973 
L 86.643581 228.944344 
L 87.030812 230.007044 
L 87.418043 228.700095 
L 87.805274 228.926941 
L 88.579736 229.637193 
L 89.354198 229.674989 
L 89.74143 230.47036 
L 90.128661 230.196783 
L 90.903123 230.94077 
L 91.290354 231.019763 
L 91.677585 230.110796 
L 92.064816 229.750367 
L 92.452047 229.121815 
L 94.000972 224.125105 
L 94.388203 225.274837 
L 94.775434 223.376291 
L 95.162665 222.132331 
L 95.937127 220.876243 
L 96.324358 222.240197 
L 96.711589 223.164361 
L 97.09882 225.955033 
L 97.486051 226.440173 
L 97.873282 228.425267 
L 98.647745 225.803986 
L 99.034976 222.17825 
L 99.809438 210.44936 
L 100.196669 200.379217 
L 100.5839 196.214421 
L 101.358362 169.221376 
L 101.745593 161.222577 
L 102.132824 157.812583 
L 102.520056 159.977118 
L 102.907287 165.129227 
L 103.294518 176.450931 
L 103.681749 179.907311 
L 104.06898 196.231611 
L 104.456211 198.76808 
L 104.843442 210.008429 
L 105.230673 214.942964 
L 105.617904 222.332671 
L 106.005135 223.667375 
L 106.392366 227.109931 
L 106.779598 226.785402 
L 107.55406 228.556278 
L 107.941291 230.318239 
L 108.328522 230.927795 
L 108.715753 230.783515 
L 109.102984 229.890626 
L 109.877446 230.629345 
L 110.264677 230.750108 
L 110.651908 230.348282 
L 111.039139 231.087821 
L 111.426371 231.10114 
L 111.813602 231.335274 
L 112.200833 230.875019 
L 112.975295 230.994414 
L 113.362526 230.619107 
L 114.136988 231.218994 
L 114.91145 230.770665 
L 115.298681 230.640179 
L 115.685913 229.874926 
L 116.460375 228.948015 
L 116.847606 227.926945 
L 117.234837 228.117692 
L 117.622068 229.814498 
L 118.009299 229.283853 
L 118.39653 229.565966 
L 119.170992 229.313747 
L 119.558223 229.474892 
L 119.945455 229.833028 
L 121.107148 227.939302 
L 121.494379 228.579935 
L 121.88161 228.410452 
L 122.268841 225.043438 
L 122.656072 224.591189 
L 123.043303 214.81388 
L 123.430534 216.13065 
L 124.204997 208.877409 
L 124.592228 207.168153 
L 125.753921 220.065219 
L 126.141152 218.628058 
L 126.528383 220.241187 
L 126.915614 220.692897 
L 127.302845 220.119591 
L 127.690076 222.881618 
L 128.077307 223.892215 
L 128.464539 222.758229 
L 128.85177 227.220392 
L 129.239001 228.327693 
L 129.626232 231.117343 
L 130.013463 230.425088 
L 130.400694 231.220494 
L 130.787925 230.4558 
L 131.175156 230.879427 
L 131.562387 230.592423 
L 131.949618 230.906147 
L 132.336849 231.526006 
L 132.72408 230.834671 
L 133.111312 230.470313 
L 133.498543 232.425964 
L 133.885774 231.896618 
L 134.273005 231.584521 
L 134.660236 231.116635 
L 135.047467 231.075581 
L 135.434698 230.839883 
L 136.20916 231.110537 
L 136.596391 231.263278 
L 136.983622 230.989341 
L 138.145316 229.445606 
L 138.532547 230.79816 
L 138.919778 230.990668 
L 139.307009 230.209156 
L 139.69424 231.009977 
L 140.468702 230.2245 
L 140.855933 230.604567 
L 141.243164 228.310007 
L 141.630396 227.296628 
L 142.017627 221.188096 
L 142.404858 208.903716 
L 142.792089 200.174611 
L 143.17932 198.269304 
L 143.566551 193.263362 
L 143.953782 206.244226 
L 144.341013 207.357205 
L 145.115475 221.795178 
L 145.502706 221.601298 
L 145.889938 228.512287 
L 146.6644 227.885861 
L 147.051631 228.608339 
L 147.438862 225.712862 
L 147.826093 225.286185 
L 148.213324 224.11955 
L 148.600555 224.560219 
L 148.987786 224.266507 
L 149.375017 225.470596 
L 149.762248 225.679679 
L 150.14948 226.915699 
L 150.536711 227.399253 
L 150.923942 227.484802 
L 151.311173 226.129663 
L 151.698404 226.722673 
L 152.472866 228.59322 
L 152.860097 229.684113 
L 153.634559 230.915509 
L 154.02179 231.015747 
L 154.409022 230.727832 
L 154.796253 230.635084 
L 155.183484 229.428118 
L 155.570715 229.530648 
L 155.957946 230.706876 
L 156.345177 230.54765 
L 156.732408 230.902947 
L 157.119639 230.514365 
L 157.50687 230.716602 
L 158.281332 231.510049 
L 158.668563 231.388734 
L 159.055795 230.591539 
L 159.443026 228.834511 
L 159.830257 225.979147 
L 160.217488 225.422647 
L 160.604719 223.149829 
L 160.99195 219.674203 
L 161.379181 221.172933 
L 162.153643 204.955085 
L 162.540874 205.749345 
L 162.928105 190.928788 
L 163.315337 185.592856 
L 163.702568 173.574672 
L 164.47703 164.676723 
L 164.864261 161.912967 
L 165.638723 171.027705 
L 166.025954 183.375634 
L 166.413185 190.271406 
L 167.187647 218.692619 
L 167.574879 224.220345 
L 167.96211 227.59386 
L 168.736572 224.855077 
L 169.123803 223.897612 
L 169.511034 223.648434 
L 169.898265 224.87861 
L 170.285496 223.840557 
L 170.672727 222.469777 
L 171.059958 220.37341 
L 171.447189 212.247399 
L 171.834421 212.248316 
L 172.221652 219.768247 
L 172.608883 219.031214 
L 172.996114 220.137419 
L 173.383345 222.557318 
L 173.770576 221.677762 
L 174.157807 224.144805 
L 174.545038 224.983251 
L 174.932269 227.183424 
L 175.3195 228.336374 
L 175.706731 228.911411 
L 176.481194 227.109791 
L 176.868425 228.590292 
L 177.255656 228.256034 
L 177.642887 225.862447 
L 178.030118 227.337474 
L 178.417349 226.493665 
L 178.80458 229.398665 
L 179.191811 229.472056 
L 179.579042 229.388813 
L 179.966273 230.103718 
L 180.353505 229.62732 
L 180.740736 230.293134 
L 181.127967 229.071818 
L 181.515198 230.041227 
L 181.902429 230.579891 
L 182.676891 229.10196 
L 183.064122 227.939483 
L 183.451353 225.650942 
L 183.838584 225.83736 
L 184.613046 227.481787 
L 185.000278 229.493109 
L 185.387509 229.386424 
L 185.77474 228.513422 
L 186.161971 228.656433 
L 186.549202 230.179195 
L 186.936433 230.532068 
L 187.323664 231.835059 
L 187.710895 231.25919 
L 188.098126 231.095109 
L 188.872588 230.395331 
L 189.25982 230.555298 
L 189.647051 230.861517 
L 190.034282 230.556634 
L 190.421513 229.838846 
L 191.195975 227.772438 
L 191.583206 228.506441 
L 191.970437 227.557358 
L 192.357668 227.729979 
L 192.744899 226.998082 
L 193.13213 222.937657 
L 193.519362 222.798751 
L 193.906593 221.609499 
L 194.293824 224.544746 
L 194.681055 225.334585 
L 195.068286 224.922291 
L 195.455517 228.35214 
L 196.229979 227.197643 
L 196.61721 227.565756 
L 197.004441 226.632677 
L 197.391672 226.82645 
L 197.778904 227.48393 
L 198.166135 227.839047 
L 198.553366 228.569295 
L 198.940597 228.467531 
L 199.327828 227.813294 
L 199.715059 228.129869 
L 200.489521 228.216641 
L 200.876752 228.47208 
L 201.263983 229.446257 
L 201.651214 229.296758 
L 202.425677 228.633882 
L 202.812908 227.936467 
L 203.200139 226.36369 
L 203.58737 227.054559 
L 203.974601 224.339239 
L 204.361832 222.539702 
L 204.749063 221.522658 
L 205.136294 218.923958 
L 205.523525 219.322647 
L 205.910756 215.035381 
L 206.297988 219.471691 
L 206.685219 220.701365 
L 207.459681 225.035866 
L 207.846912 221.708269 
L 208.234143 223.751109 
L 208.621374 223.347712 
L 209.783067 226.200853 
L 210.170298 226.65358 
L 210.557529 226.892569 
L 211.331992 226.207657 
L 211.719223 226.319752 
L 212.106454 227.555475 
L 212.493685 226.412074 
L 212.880916 225.781367 
L 213.268147 225.656343 
L 213.655378 228.343749 
L 214.042609 227.338904 
L 214.42984 226.72552 
L 214.817071 227.926169 
L 215.204303 228.030996 
L 215.591534 226.966839 
L 215.978765 227.27473 
L 216.365996 226.377326 
L 216.753227 227.131022 
L 217.140458 226.366267 
L 217.527689 226.65034 
L 218.302151 228.314841 
L 218.689382 228.61069 
L 219.076613 229.070919 
L 219.851076 229.146968 
L 220.625538 229.513546 
L 221.012769 229.055669 
L 221.4 229.327802 
L 221.787231 228.929058 
L 222.174462 231.26265 
L 222.561693 230.618703 
L 222.948924 231.014673 
L 223.336155 230.809522 
L 223.723387 229.153216 
L 224.110618 228.190063 
L 224.88508 227.296928 
L 225.272311 227.382325 
L 225.659542 227.115216 
L 226.046773 228.290017 
L 226.434004 228.695133 
L 226.821235 229.462544 
L 227.208466 229.628108 
L 227.595697 229.08329 
L 227.982929 229.558583 
L 228.37016 229.312996 
L 229.144622 228.600975 
L 229.531853 228.332391 
L 229.919084 229.558059 
L 230.306315 227.58797 
L 230.693546 226.731375 
L 231.080777 226.378525 
L 231.468008 227.481292 
L 231.855239 227.188862 
L 232.242471 226.418127 
L 232.629702 227.533385 
L 233.016933 227.676397 
L 233.791395 226.452771 
L 234.178626 228.152266 
L 234.565857 228.502428 
L 234.953088 230.837166 
L 235.340319 230.111911 
L 235.72755 229.87289 
L 236.114781 231.235499 
L 236.502012 231.642328 
L 236.889244 231.594412 
L 237.276475 231.009512 
L 237.663706 230.713699 
L 238.050937 230.56699 
L 238.438168 229.143989 
L 238.825399 229.620031 
L 239.21263 230.291541 
L 239.987092 230.567816 
L 240.374323 231.711267 
L 240.761554 231.403133 
L 241.148786 231.666581 
L 241.536017 230.254161 
L 241.923248 230.574584 
L 242.310479 230.298042 
L 242.69771 230.531637 
L 243.084941 229.690595 
L 243.472172 230.060295 
L 243.859403 229.134364 
L 244.246634 229.176067 
L 244.633865 229.746539 
L 245.021096 230.611191 
L 245.408328 231.123725 
L 246.18279 229.00091 
L 246.570021 227.575774 
L 246.957252 227.762564 
L 247.344483 226.333655 
L 247.731714 224.263273 
L 248.118945 224.183446 
L 248.506176 223.198459 
L 248.893407 225.358177 
L 249.280638 225.757752 
L 249.66787 227.763504 
L 250.055101 228.166 
L 250.442332 228.957668 
L 250.829563 228.235964 
L 251.216794 228.005026 
L 251.604025 227.509367 
L 252.378487 225.872509 
L 252.765718 225.35881 
L 253.152949 223.989181 
L 253.54018 225.28299 
L 253.927412 225.529237 
L 254.314643 223.023502 
L 255.089105 224.57518 
L 255.476336 222.877731 
L 255.863567 222.504054 
L 256.250798 215.430813 
L 256.638029 216.941829 
L 257.02526 217.549705 
L 257.412491 219.372406 
L 257.799722 224.190396 
L 258.186954 225.470471 
L 258.574185 225.903584 
L 259.348647 228.171889 
L 259.735878 228.711604 
L 260.51034 228.926348 
L 260.897571 228.883993 
L 261.284802 228.048374 
L 261.672033 227.646252 
L 262.059264 228.450813 
L 262.446495 227.398676 
L 262.833727 227.380195 
L 263.220958 227.555586 
L 263.608189 227.558729 
L 263.99542 227.750731 
L 264.769882 225.063664 
L 265.157113 224.006962 
L 265.931575 223.595024 
L 266.318806 221.172003 
L 266.706037 213.27403 
L 267.093269 227.52187 
L 267.4805 227.430351 
L 267.867731 226.228356 
L 268.254962 225.846609 
L 268.642193 225.041576 
L 269.029424 223.217873 
L 269.416655 224.060805 
L 269.803886 226.048678 
L 270.191117 226.064522 
L 270.578348 226.52453 
L 270.965579 227.640359 
L 271.352811 228.271347 
L 271.740042 229.516852 
L 272.127273 230.170048 
L 272.514504 231.215464 
L 272.901735 231.812749 
L 273.288966 231.490216 
L 273.676197 230.669887 
L 274.063428 229.450019 
L 274.450659 231.055343 
L 274.83789 231.15967 
L 275.225121 230.062322 
L 275.612353 229.641781 
L 275.999584 228.290063 
L 277.161277 226.658018 
L 277.548508 227.454571 
L 277.935739 229.565948 
L 278.32297 230.7052 
L 278.710201 231.040113 
L 279.097432 231.662015 
L 279.484663 231.002314 
L 279.871895 230.983339 
L 280.259126 229.612097 
L 280.646357 229.835612 
L 281.033588 227.651792 
L 281.420819 229.213311 
L 281.80805 228.316577 
L 282.195281 228.42567 
L 282.582512 226.944536 
L 282.969743 226.407216 
L 283.356974 226.635164 
L 283.744205 225.64437 
L 284.131437 226.921223 
L 284.518668 227.399035 
L 284.905899 229.07375 
L 285.29313 228.866989 
L 285.680361 227.87855 
L 286.067592 227.388709 
L 286.454823 227.475216 
L 286.842054 227.984543 
L 287.229285 229.365143 
L 288.390978 228.346684 
L 288.77821 228.315634 
L 289.165441 229.006789 
L 289.552672 228.685491 
L 289.939903 229.748852 
L 290.327134 229.513661 
L 291.101596 231.01139 
L 291.488827 231.463194 
L 291.876058 231.108221 
L 292.263289 231.43889 
L 292.65052 230.354524 
L 293.037752 229.982191 
L 293.812214 228.078796 
L 294.199445 227.658169 
L 294.586676 226.825142 
L 294.973907 226.61893 
L 295.361138 224.387357 
L 295.748369 224.995053 
L 296.1356 222.775005 
L 296.522831 224.475479 
L 296.910062 218.020435 
L 297.297294 217.804977 
L 297.684525 215.929028 
L 298.071756 223.474119 
L 298.846218 219.699673 
L 299.233449 219.047836 
L 299.62068 220.295779 
L 300.782373 230.665752 
L 301.169604 230.192476 
L 301.556836 230.183708 
L 301.944067 227.88631 
L 302.331298 226.287346 
L 303.10576 215.194216 
L 303.492991 214.463832 
L 303.880222 206.065491 
L 304.267453 205.558714 
L 304.654684 208.455114 
L 305.041915 209.092088 
L 305.429146 208.794609 
L 305.816378 212.962946 
L 306.203609 220.489596 
L 307.365302 230.141826 
L 307.752533 230.943109 
L 308.139764 230.929578 
L 308.526995 230.152454 
L 309.301457 230.550212 
L 309.688688 230.792961 
L 310.07592 230.422363 
L 310.463151 230.929501 
L 310.850382 231.163552 
L 311.237613 231.102547 
L 311.624844 230.923791 
L 312.012075 230.434631 
L 312.399306 230.194044 
L 312.786537 228.589535 
L 313.173768 228.636461 
L 313.94823 229.48439 
L 314.722693 230.209961 
L 315.497155 230.356623 
L 316.271617 229.738522 
L 316.658848 229.966516 
L 317.046079 230.031294 
L 317.43331 231.155069 
L 317.820541 231.220754 
L 318.207772 230.481769 
L 318.595003 230.773432 
L 318.982235 229.849543 
L 319.369466 229.253238 
L 319.756697 227.250664 
L 320.143928 226.905293 
L 320.531159 226.005402 
L 321.305621 226.553129 
L 321.692852 222.683378 
L 322.080083 224.058216 
L 322.467314 221.478843 
L 322.854545 216.446832 
L 323.241777 213.587818 
L 323.629008 212.632407 
L 324.016239 206.777258 
L 324.40347 207.549613 
L 324.790701 209.222013 
L 325.177932 204.657899 
L 325.565163 201.831216 
L 325.952394 195.312051 
L 326.339625 195.312983 
L 326.726856 203.342707 
L 327.114087 205.605449 
L 327.501319 212.1048 
L 327.88855 208.795373 
L 328.275781 221.328552 
L 328.663012 222.379082 
L 329.050243 230.119904 
L 329.437474 227.844518 
L 329.824705 227.96375 
L 330.211936 229.837775 
L 330.599167 229.229444 
L 330.986398 229.518613 
L 331.373629 229.312318 
L 332.148092 230.743325 
L 332.535323 231.283162 
L 332.922554 231.508367 
L 333.697016 231.643018 
L 334.471478 230.900823 
L 334.858709 230.235764 
L 336.020402 229.022938 
L 336.407634 229.696519 
L 336.794865 228.671418 
L 337.182096 229.91588 
L 337.569327 229.001098 
L 337.956558 229.350656 
L 338.343789 229.158896 
L 338.73102 230.839343 
L 339.118251 230.609564 
L 339.505482 230.850705 
L 339.892713 230.644547 
L 340.279944 230.133531 
L 340.667176 230.626253 
L 341.054407 227.59458 
L 341.441638 222.605619 
L 341.828869 210.863964 
L 342.2161 208.695189 
L 342.603331 189.039306 
L 342.990562 186.007427 
L 343.377793 172.416042 
L 343.765024 169.354336 
L 344.152255 162.208745 
L 344.539486 159.930199 
L 345.70118 183.162378 
L 346.088411 198.575063 
L 346.475642 202.456154 
L 346.862873 211.431476 
L 347.637335 215.073162 
L 348.024566 215.41971 
L 348.411797 210.745478 
L 348.799028 211.60184 
L 349.18626 215.280957 
L 349.573491 215.461521 
L 349.960722 217.574807 
L 350.347953 212.882429 
L 350.735184 217.879697 
L 351.122415 219.451377 
L 351.509646 225.689772 
L 351.896877 227.249007 
L 352.284108 224.159664 
L 352.671339 225.672096 
L 353.05857 220.347365 
L 353.445802 220.536307 
L 353.833033 222.282045 
L 354.220264 221.531336 
L 354.607495 222.777943 
L 354.994726 221.395109 
L 355.381957 223.631839 
L 355.769188 224.291659 
L 356.156419 227.538358 
L 356.54365 225.921536 
L 356.930881 227.869934 
L 357.318112 229.233747 
L 357.705344 228.915808 
L 358.092575 229.131502 
L 358.479806 226.458977 
L 358.867037 227.905843 
L 359.254268 227.530705 
L 359.641499 226.953972 
L 360.02873 225.686624 
L 360.415961 227.082876 
L 360.803192 226.929593 
L 361.190423 228.347194 
L 361.964885 229.732242 
L 362.739348 230.591729 
L 363.126579 230.778141 
L 363.901041 230.379127 
L 364.288272 228.960847 
L 364.675503 228.378434 
L 365.062734 226.71686 
L 365.449965 226.316039 
L 365.837196 228.512572 
L 366.224427 228.718459 
L 366.611659 230.440985 
L 367.386121 231.00355 
L 367.773352 231.371041 
L 368.160583 231.459432 
L 368.547814 230.367839 
L 368.935045 229.786934 
L 369.322276 226.467009 
L 369.709507 226.535299 
L 370.096738 226.134459 
L 370.483969 226.890082 
L 370.871201 221.387282 
L 371.258432 222.389844 
L 371.645663 217.340479 
L 372.420125 202.645507 
L 373.581818 181.816419 
L 373.581818 181.816419 
" clip-path="url(#pd60818ae71)" style="fill: none; stroke: #1f77b4; stroke-width: 1.5; stroke-linecap: round"/>
   </g>
   <g id="line2d_16">
    <path d="M 69.218182 127.656776 
L 69.605413 212.228253 
L 69.992644 221.258297 
L 70.379875 212.292145 
L 70.767106 197.597025 
L 71.154337 206.520583 
L 71.541568 208.884581 
L 71.928799 201.579615 
L 72.316031 211.738415 
L 72.703262 204.454748 
L 73.477724 221.386081 
L 73.864955 208.841986 
L 74.252186 217.552571 
L 74.639417 218.766516 
L 75.026648 215.508033 
L 75.413879 220.938838 
L 75.80111 235.570065 
L 76.188341 215.806195 
L 76.575573 211.631929 
L 76.962804 210.162417 
L 77.350035 211.482848 
L 77.737266 222.940782 
L 78.124497 221.00273 
L 78.511728 227.029858 
L 78.898959 220.449001 
L 79.28619 230.650395 
L 79.673421 213.4209 
L 80.060652 205.327936 
L 80.447883 211.461551 
L 80.835115 215.188574 
L 81.222346 217.829436 
L 81.609577 198.874862 
L 82.384039 210.780038 
L 82.77127 201.025886 
L 83.158501 211.099497 
L 83.545732 226.476129 
L 83.932963 215.678411 
L 84.320194 226.582616 
L 84.707425 220.512892 
L 85.094656 230.863368 
L 85.481888 235.250606 
L 85.869119 235.080228 
L 86.25635 229.734612 
L 86.643581 212.356036 
L 87.030812 227.775263 
L 87.418043 223.984348 
L 87.805274 224.325105 
L 88.192505 226.923372 
L 88.579736 223.004674 
L 88.966967 221.045324 
L 89.354198 229.798504 
L 89.74143 230.011477 
L 90.128661 231.970826 
L 90.515892 230.671692 
L 90.903123 230.714287 
L 91.290354 231.246719 
L 91.677585 235.889525 
L 92.452047 227.498398 
L 92.839278 231.566178 
L 93.226509 219.000786 
L 93.61374 201.068481 
L 94.000972 220.001758 
L 94.388203 227.56229 
L 94.775434 221.428675 
L 95.162665 225.9224 
L 95.549896 233.759797 
L 95.937127 221.833323 
L 96.324358 194.658001 
L 96.711589 217.275707 
L 97.09882 223.835267 
L 97.486051 224.814942 
L 97.873282 226.412237 
L 98.260514 230.181855 
L 98.647745 223.600997 
L 99.034976 233.03569 
L 99.422207 220.789757 
L 99.809438 223.5797 
L 100.196669 210.439282 
L 100.5839 213.058846 
L 100.971131 202.133345 
L 101.358362 194.807082 
L 101.745593 197.575728 
L 102.132824 174.574671 
L 102.520056 172.018999 
L 102.907287 186.54374 
L 103.294518 183.498229 
L 103.681749 221.045324 
L 104.06898 223.750078 
L 104.456211 206.115935 
L 104.843442 211.695821 
L 105.230673 214.570953 
L 105.617904 214.741331 
L 106.005135 210.119823 
L 106.392366 209.67258 
L 106.779598 217.765544 
L 107.166829 234.845958 
L 107.55406 221.492567 
L 107.941291 234.973742 
L 108.328522 231.3958 
L 108.715753 234.611688 
L 109.102984 232.439366 
L 109.490215 229.28737 
L 109.877446 230.650395 
L 110.264677 242.72595 
L 110.651908 230.373531 
L 111.039139 228.350289 
L 111.426371 228.116019 
L 111.813602 230.778179 
L 112.200833 230.629098 
L 112.588064 229.159586 
L 112.975295 233.50423 
L 113.362526 233.525527 
L 113.749757 235.783038 
L 114.136988 228.456776 
L 114.524219 236.762713 
L 114.91145 236.230281 
L 115.298681 230.22445 
L 115.685913 233.823689 
L 116.073144 230.92726 
L 116.460375 231.779151 
L 116.847606 230.032774 
L 117.234837 226.476129 
L 117.622068 227.221534 
L 118.009299 220.363812 
L 118.39653 219.448029 
L 118.783761 217.233112 
L 119.170992 217.233112 
L 119.558223 227.924344 
L 119.945455 227.498398 
L 120.332686 233.227365 
L 120.719917 233.227365 
L 121.107148 233.844986 
L 121.494379 228.797532 
L 121.88161 230.756881 
L 122.268841 223.941754 
L 122.656072 223.281538 
L 123.043303 216.743275 
L 123.430534 216.083059 
L 123.817765 197.959079 
L 124.204997 199.833239 
L 124.592228 213.18663 
L 124.979459 208.437338 
L 125.753921 218.297976 
L 126.141152 208.991067 
L 126.528383 210.162417 
L 126.915614 202.069453 
L 127.302845 140.28606 
L 127.690076 135.068227 
L 128.077307 158.985067 
L 128.464539 168.398462 
L 128.85177 151.509723 
L 129.239001 186.841902 
L 130.400694 224.538077 
L 130.787925 230.69299 
L 131.175156 227.583588 
L 131.562387 230.778179 
L 131.949618 226.007589 
L 132.336849 237.273847 
L 132.72408 227.753966 
L 133.111312 229.031802 
L 133.498543 230.948557 
L 133.885774 223.728781 
L 134.273005 230.054071 
L 134.660236 233.653311 
L 135.047467 235.463579 
L 135.434698 232.737528 
L 135.821929 235.570065 
L 136.20916 219.000786 
L 136.596391 231.246719 
L 136.983622 233.589419 
L 137.370854 233.078284 
L 137.758085 233.26996 
L 138.145316 229.329964 
L 138.532547 227.690074 
L 138.919778 234.121851 
L 139.307009 234.20704 
L 139.69424 232.268988 
L 140.081471 235.953416 
L 140.468702 232.673636 
L 140.855933 224.388996 
L 141.243164 196.596053 
L 141.630396 183.583419 
L 142.017627 158.005392 
L 142.404858 144.353839 
L 142.792089 106.380799 
L 143.17932 46.215998 
L 143.566551 44.64 
L 144.341013 193.891299 
L 144.728244 216.509005 
L 145.115475 224.218618 
L 145.502706 222.003702 
L 145.889938 228.946613 
L 146.277169 225.964995 
L 146.6644 209.544796 
L 147.051631 227.753966 
L 147.438862 230.139261 
L 147.826093 231.225422 
L 148.213324 229.074397 
L 148.600555 233.014393 
L 148.987786 234.505202 
L 149.375017 229.329964 
L 149.762248 230.309639 
L 150.14948 228.03083 
L 150.536711 222.983376 
L 150.923942 219.767488 
L 151.311173 189.887412 
L 151.698404 221.961107 
L 152.472866 233.546824 
L 152.860097 231.672664 
L 153.247328 245.004758 
L 153.634559 234.931147 
L 154.02179 233.376446 
L 154.409022 225.624238 
L 155.183484 222.514836 
L 155.570715 227.540993 
L 155.957946 227.200237 
L 156.345177 228.371587 
L 156.732408 232.162502 
L 157.119639 237.273847 
L 157.50687 210.737443 
L 157.894101 231.672664 
L 158.281332 235.506174 
L 158.668563 241.448113 
L 159.055795 236.911794 
L 159.443026 238.679468 
L 159.830257 237.934063 
L 160.217488 233.695905 
L 160.604719 232.822717 
L 160.99195 227.583588 
L 161.766412 222.450944 
L 162.153643 226.540021 
L 162.540874 224.026943 
L 162.928105 213.250522 
L 163.315337 220.06565 
L 163.702568 205.817773 
L 164.089799 213.144035 
L 164.47703 203.006533 
L 164.864261 198.960051 
L 165.638723 141.819463 
L 166.025954 154.938584 
L 166.413185 156.216421 
L 166.800416 167.099328 
L 167.187647 170.017055 
L 167.574879 191.804166 
L 167.96211 191.825464 
L 168.349341 212.526415 
L 168.736572 224.410294 
L 169.123803 212.334739 
L 169.511034 218.447057 
L 169.898265 232.524555 
L 170.285496 206.414097 
L 170.672727 161.008308 
L 171.059958 52.839451 
L 171.447189 82.804716 
L 171.834421 48.963347 
L 172.221652 79.162882 
L 172.608883 84.189039 
L 172.996114 131.511583 
L 173.383345 142.820435 
L 174.157807 182.901906 
L 174.545038 202.197236 
L 174.932269 213.293116 
L 175.3195 217.914625 
L 175.706731 218.638732 
L 176.093963 218.809111 
L 176.481194 205.881665 
L 176.868425 197.746106 
L 177.255656 209.779066 
L 177.642887 194.487623 
L 178.030118 207.734528 
L 178.417349 185.180714 
L 178.80458 210.162417 
L 179.579042 225.666833 
L 179.966273 219.426731 
L 180.353505 222.195377 
L 180.740736 209.736472 
L 181.127967 220.576784 
L 181.515198 216.445113 
L 181.902429 214.038521 
L 182.28966 215.550628 
L 182.676891 221.70554 
L 183.064122 220.811054 
L 183.451353 224.538077 
L 183.838584 215.635817 
L 184.225815 213.740359 
L 184.613046 216.956248 
L 185.000278 227.264128 
L 185.387509 226.667805 
L 186.161971 216.317329 
L 186.549202 214.634845 
L 186.936433 216.679383 
L 187.323664 212.867171 
L 187.710895 211.142092 
L 188.098126 221.684243 
L 188.485357 219.107272 
L 188.872588 217.552571 
L 189.25982 213.761656 
L 189.647051 222.685214 
L 190.034282 203.709343 
L 190.421513 213.697765 
L 190.808744 216.764572 
L 191.195975 229.266072 
L 191.583206 208.778094 
L 191.970437 199.811942 
L 192.357668 204.028802 
L 192.744899 202.069453 
L 193.13213 207.713231 
L 193.519362 189.376277 
L 193.906593 214.933007 
L 194.293824 200.749022 
L 194.681055 219.959163 
L 195.068286 211.631929 
L 195.455517 218.19149 
L 195.842748 220.960135 
L 196.229979 193.891299 
L 196.61721 195.020055 
L 197.004441 193.678327 
L 197.391672 168.249381 
L 197.778904 158.218365 
L 198.166135 210.183714 
L 198.553366 204.923288 
L 198.940597 220.555487 
L 199.327828 223.686186 
L 199.715059 223.409322 
L 200.10229 231.992123 
L 200.489521 225.666833 
L 200.876752 227.775263 
L 201.263983 226.028887 
L 201.651214 230.842071 
L 202.038446 230.096666 
L 202.425677 222.344458 
L 202.812908 221.087919 
L 203.200139 230.203152 
L 203.58737 221.812026 
L 203.974601 227.817858 
L 204.361832 227.32802 
L 204.749063 233.078284 
L 205.136294 213.527386 
L 205.523525 224.623266 
L 205.910756 220.619379 
L 206.297988 232.907906 
L 206.685219 232.09861 
L 207.07245 235.761741 
L 207.459681 230.842071 
L 207.846912 233.206068 
L 208.234143 226.646508 
L 208.621374 235.570065 
L 209.008605 229.43645 
L 209.395836 225.539049 
L 209.783067 229.52164 
L 210.170298 222.40835 
L 210.557529 205.498314 
L 210.944761 231.523583 
L 211.331992 220.385109 
L 211.719223 231.715259 
L 212.106454 229.138289 
L 212.493685 224.04824 
L 212.880916 224.218618 
L 213.268147 214.59225 
L 213.655378 225.624238 
L 214.042609 231.715259 
L 214.42984 225.539049 
L 214.817071 231.033746 
L 215.204303 229.116991 
L 215.591534 236.272876 
L 215.978765 225.901103 
L 216.365996 234.057959 
L 216.753227 234.185743 
L 217.140458 229.542937 
L 217.527689 235.250606 
L 217.91492 227.434507 
L 218.302151 227.09375 
L 218.689382 230.799476 
L 219.076613 229.351261 
L 219.463845 234.952445 
L 219.851076 233.951473 
L 220.238307 231.736556 
L 220.625538 225.155698 
L 221.012769 222.365755 
L 221.787231 241.746275 
L 222.174462 233.930175 
L 222.561693 233.866284 
L 222.948924 232.631042 
L 223.336155 236.208984 
L 223.723387 227.647479 
L 224.110618 225.666833 
L 224.88508 240.745303 
L 225.272311 239.062819 
L 225.659542 232.694933 
L 226.046773 231.033746 
L 226.434004 234.824661 
L 226.821235 236.975686 
L 227.208466 230.437422 
L 227.595697 227.903047 
L 227.982929 227.690074 
L 228.37016 231.757853 
L 228.757391 224.133429 
L 229.144622 225.176996 
L 229.531853 221.237 
L 229.919084 210.396687 
L 230.693546 202.005561 
L 231.468008 224.836239 
L 231.855239 216.977545 
L 232.242471 214.954304 
L 233.016933 230.330936 
L 233.404164 212.526415 
L 234.178626 227.370615 
L 234.565857 242.065734 
L 234.953088 223.899159 
L 235.340319 225.858508 
L 235.72755 235.463579 
L 236.114781 237.657198 
L 236.502012 229.542937 
L 236.889244 225.389968 
L 237.276475 233.26996 
L 237.663706 236.187686 
L 238.050937 231.906934 
L 238.438168 236.0812 
L 238.825399 241.661086 
L 239.21263 233.866284 
L 239.599861 231.544881 
L 239.987092 222.536134 
L 240.374323 221.00273 
L 241.148786 227.370615 
L 241.536017 224.218618 
L 241.923248 234.718175 
L 242.310479 237.103469 
L 242.69771 233.674608 
L 243.472172 223.34543 
L 243.859403 221.620351 
L 244.246634 231.076341 
L 244.633865 231.651367 
L 245.021096 229.52164 
L 245.408328 228.158614 
L 245.795559 229.585531 
L 246.18279 234.505202 
L 246.570021 232.737528 
L 246.957252 238.360008 
L 247.344483 236.272876 
L 247.731714 231.821745 
L 248.118945 234.483905 
L 248.506176 232.609744 
L 248.893407 224.431591 
L 249.280638 224.325105 
L 249.66787 204.369558 
L 250.055101 206.052043 
L 250.442332 230.203152 
L 250.829563 219.788785 
L 251.216794 228.73364 
L 251.604025 227.029858 
L 251.991256 229.372559 
L 252.378487 230.820773 
L 253.152949 240.553628 
L 253.54018 237.550712 
L 253.927412 228.073425 
L 254.314643 231.055043 
L 254.701874 239.808223 
L 255.089105 234.824661 
L 255.476336 221.300892 
L 255.863567 215.614519 
L 256.250798 204.582531 
L 256.638029 209.842958 
L 257.02526 225.027915 
L 257.412491 216.23214 
L 257.799722 232.034718 
L 258.186954 231.693962 
L 258.574185 237.380334 
L 258.961416 236.996983 
L 259.348647 238.253522 
L 259.735878 226.092778 
L 260.123109 236.251578 
L 260.51034 226.646508 
L 260.897571 233.50423 
L 261.284802 213.144035 
L 261.672033 229.0531 
L 262.059264 225.389968 
L 262.446495 235.570065 
L 262.833727 223.707484 
L 263.220958 228.840127 
L 263.608189 223.153754 
L 263.99542 228.627154 
L 264.382651 230.756881 
L 264.769882 228.435479 
L 265.157113 220.193433 
L 265.544344 215.848789 
L 265.931575 231.3958 
L 266.318806 222.259269 
L 266.706037 202.367615 
L 267.093269 197.87389 
L 267.4805 217.978517 
L 267.867731 231.204124 
L 268.254962 222.387053 
L 268.642193 227.540993 
L 269.029424 213.442197 
L 269.416655 222.344458 
L 269.803886 222.536134 
L 270.191117 234.334824 
L 270.578348 236.507146 
L 270.965579 226.284454 
L 271.352811 235.740444 
L 271.740042 233.312554 
L 272.127273 233.844986 
L 272.514504 215.827492 
L 273.288966 225.091806 
L 273.676197 224.218618 
L 274.063428 226.710399 
L 274.450659 226.965967 
L 274.83789 232.886609 
L 275.225121 233.546824 
L 275.612353 227.519696 
L 275.999584 224.176024 
L 276.386815 231.140232 
L 276.774046 230.756881 
L 277.161277 227.306723 
L 277.548508 229.223478 
L 277.935739 227.434507 
L 278.32297 228.989208 
L 278.710201 234.632985 
L 279.097432 235.676552 
L 279.484663 221.364783 
L 279.871895 230.45872 
L 280.259126 223.707484 
L 280.646357 225.262185 
L 281.033588 237.188658 
L 281.420819 228.009533 
L 281.80805 213.825548 
L 282.195281 233.419041 
L 282.582512 232.33288 
L 282.969743 200.68513 
L 283.356974 204.412153 
L 283.744205 171.273594 
L 284.131437 213.548684 
L 284.518668 218.596138 
L 284.905899 217.72295 
L 285.29313 228.009533 
L 285.680361 211.397659 
L 286.067592 209.544796 
L 286.454823 225.389968 
L 286.842054 221.93981 
L 287.229285 228.691046 
L 287.616516 228.712343 
L 288.003747 222.621323 
L 288.390978 224.75105 
L 288.77821 209.118851 
L 289.552672 240.936979 
L 289.939903 232.396772 
L 290.327134 238.764657 
L 291.101596 226.433535 
L 291.488827 244.919569 
L 291.876058 234.824661 
L 292.65052 229.968882 
L 293.037752 224.708456 
L 293.424983 233.844986 
L 293.812214 232.652339 
L 294.199445 235.335795 
L 294.586676 216.104357 
L 294.973907 209.885553 
L 295.361138 224.942726 
L 295.748369 219.043381 
L 296.1356 230.69299 
L 296.522831 230.139261 
L 296.910062 230.330936 
L 297.297294 229.20218 
L 297.684525 232.162502 
L 298.071756 231.289313 
L 298.458987 234.015364 
L 298.846218 218.276679 
L 300.007911 236.528443 
L 300.395142 224.197321 
L 300.782373 229.010505 
L 301.169604 229.266072 
L 301.556836 225.879806 
L 301.944067 219.511921 
L 302.331298 230.139261 
L 302.718529 217.850733 
L 303.10576 222.024999 
L 303.492991 189.908709 
L 303.880222 187.672495 
L 304.267453 217.190518 
L 304.654684 188.545683 
L 305.041915 217.297004 
L 305.816378 225.666833 
L 306.203609 240.660114 
L 306.59084 229.0531 
L 306.978071 228.201209 
L 307.365302 231.502286 
L 307.752533 232.758825 
L 308.914226 237.295145 
L 309.301457 231.3958 
L 309.688688 233.802392 
L 310.07592 242.406491 
L 310.463151 225.411266 
L 310.850382 231.949529 
L 311.237613 232.545853 
L 312.012075 239.211899 
L 312.399306 232.141204 
L 312.786537 232.205096 
L 313.173768 240.212871 
L 313.560999 230.92726 
L 313.94823 237.444226 
L 314.335461 235.910822 
L 314.722693 236.677524 
L 315.109924 233.97277 
L 315.497155 232.652339 
L 315.884386 236.592335 
L 316.271617 237.167361 
L 316.658848 230.629098 
L 317.046079 235.335795 
L 317.43331 229.372559 
L 317.820541 233.482933 
L 318.207772 232.205096 
L 318.595003 239.382278 
L 318.982235 235.548768 
L 319.369466 229.883693 
L 319.756697 246.24 
L 320.143928 238.935035 
L 320.531159 236.485848 
L 320.91839 239.446169 
L 321.305621 228.96791 
L 321.692852 230.309639 
L 322.080083 232.460663 
L 322.467314 237.657198 
L 322.854545 231.289313 
L 323.241777 231.438394 
L 324.016239 204.603828 
L 324.40347 224.026943 
L 324.790701 213.633873 
L 325.177932 211.291173 
L 325.565163 217.552571 
L 325.952394 203.560262 
L 326.339625 210.801335 
L 326.726856 223.81397 
L 327.114087 232.354177 
L 327.501319 233.887581 
L 327.88855 215.316357 
L 328.275781 223.281538 
L 328.663012 223.81397 
L 329.050243 225.986292 
L 329.437474 231.86434 
L 329.824705 230.22445 
L 330.599167 221.620351 
L 331.373629 237.380334 
L 331.760861 233.206068 
L 332.148092 235.527471 
L 332.535323 222.812998 
L 332.922554 213.995926 
L 333.309785 215.742303 
L 333.697016 216.274735 
L 334.084247 228.222506 
L 334.471478 228.094722 
L 334.858709 231.480989 
L 335.24594 229.585531 
L 335.633171 225.943697 
L 336.020402 236.507146 
L 336.407634 234.590391 
L 337.569327 218.468354 
L 337.956558 233.163473 
L 338.343789 237.891468 
L 338.73102 231.16153 
L 339.118251 234.270932 
L 339.505482 235.463579 
L 339.892713 231.736556 
L 340.279944 239.723034 
L 340.667176 221.00273 
L 341.054407 228.414181 
L 341.441638 225.815914 
L 341.828869 220.53419 
L 342.2161 209.459607 
L 342.603331 211.31247 
L 342.990562 208.820689 
L 343.377793 205.200152 
L 343.765024 189.610547 
L 344.152255 181.432394 
L 344.539486 176.171967 
L 344.926718 203.517667 
L 345.313949 216.253438 
L 345.70118 215.401547 
L 346.088411 221.961107 
L 346.475642 212.973657 
L 346.862873 217.467382 
L 347.250104 214.890412 
L 347.637335 199.471185 
L 348.024566 219.746191 
L 348.411797 208.629013 
L 348.799028 224.154726 
L 349.18626 228.201209 
L 349.573491 219.426731 
L 349.960722 183.64731 
L 350.347953 216.764572 
L 350.735184 229.20218 
L 351.122415 225.752022 
L 351.509646 208.778094 
L 351.896877 231.268016 
L 352.284108 233.056987 
L 352.671339 236.54974 
L 353.05857 246.218703 
L 353.445802 237.103469 
L 353.833033 233.206068 
L 354.220264 238.65817 
L 354.607495 240.596222 
L 354.994726 228.754938 
L 355.381957 233.312554 
L 355.769188 232.354177 
L 356.156419 223.622295 
L 356.54365 227.306723 
L 357.318112 238.296117 
L 357.705344 231.16153 
L 358.092575 233.50423 
L 358.479806 213.719062 
L 358.867037 225.794617 
L 359.254268 226.433535 
L 359.641499 229.585531 
L 360.02873 224.04824 
L 360.415961 215.167277 
L 360.803192 233.120879 
L 361.190423 232.865312 
L 361.577654 231.949529 
L 361.964885 235.655255 
L 362.352117 236.54974 
L 362.739348 244.83438 
L 363.126579 232.119907 
L 363.51381 244.493623 
L 363.901041 235.335795 
L 364.288272 238.061847 
L 364.675503 229.223478 
L 365.062734 199.875834 
L 365.449965 221.00273 
L 365.837196 224.28251 
L 366.224427 234.356121 
L 366.611659 231.012449 
L 366.99889 232.183799 
L 367.386121 228.158614 
L 367.773352 229.031802 
L 368.160583 229.031802 
L 368.547814 221.045324 
L 368.935045 233.802392 
L 369.322276 227.029858 
L 369.709507 229.713315 
L 370.096738 227.157642 
L 370.483969 234.249634 
L 370.871201 229.926288 
L 371.258432 216.530302 
L 371.645663 220.938838 
L 372.032894 215.209871 
L 372.420125 215.039493 
L 372.807356 191.804166 
L 373.581818 119.286947 
L 373.581818 119.286947 
" clip-path="url(#pd60818ae71)" style="fill: none; stroke: #ff7f0e; stroke-width: 1.5; stroke-linecap: round"/>
   </g>
   <g id="patch_3">
    <path d="M 54 256.32 
L 54 34.56 
" style="fill: none; stroke: #ffffff; stroke-width: 0.8; stroke-linejoin: miter; stroke-linecap: square"/>
   </g>
   <g id="patch_4">
    <path d="M 388.8 256.32 
L 388.8 34.56 
" style="fill: none; stroke: #ffffff; stroke-width: 0.8; stroke-linejoin: miter; stroke-linecap: square"/>
   </g>
   <g id="patch_5">
    <path d="M 54 256.32 
L 388.8 256.32 
" style="fill: none; stroke: #ffffff; stroke-width: 0.8; stroke-linejoin: miter; stroke-linecap: square"/>
   </g>
   <g id="patch_6">
    <path d="M 54 34.56 
L 388.8 34.56 
" style="fill: none; stroke: #ffffff; stroke-width: 0.8; stroke-linejoin: miter; stroke-linecap: square"/>
   </g>
   <g id="text_17">
    <!-- Protein complex's vibration profile (asymmetric unit) -->
    <g style="fill: #262626" transform="translate(84.216563 28.56) scale(0.12 -0.12)">
     <defs>
      <path id="ArialMT-50" d="M 494 0 
L 494 4581 
L 2222 4581 
Q 2678 4581 2919 4538 
Q 3256 4481 3484 4323 
Q 3713 4166 3852 3881 
Q 3991 3597 3991 3256 
Q 3991 2672 3619 2267 
Q 3247 1863 2275 1863 
L 1100 1863 
L 1100 0 
L 494 0 
z
M 1100 2403 
L 2284 2403 
Q 2872 2403 3119 2622 
Q 3366 2841 3366 3238 
Q 3366 3525 3220 3729 
Q 3075 3934 2838 4000 
Q 2684 4041 2272 4041 
L 1100 4041 
L 1100 2403 
z
" transform="scale(0.015625)"/>
      <path id="ArialMT-70" d="M 422 -1272 
L 422 3319 
L 934 3319 
L 934 2888 
Q 1116 3141 1344 3267 
Q 1572 3394 1897 3394 
Q 2322 3394 2647 3175 
Q 2972 2956 3137 2557 
Q 3303 2159 3303 1684 
Q 3303 1175 3120 767 
Q 2938 359 2589 142 
Q 2241 -75 1856 -75 
Q 1575 -75 1351 44 
Q 1128 163 984 344 
L 984 -1272 
L 422 -1272 
z
M 931 1641 
Q 931 1000 1190 694 
Q 1450 388 1819 388 
Q 2194 388 2461 705 
Q 2728 1022 2728 1688 
Q 2728 2322 2467 2637 
Q 2206 2953 1844 2953 
Q 1484 2953 1207 2617 
Q 931 2281 931 1641 
z
" transform="scale(0.015625)"/>
      <path id="ArialMT-6c" d="M 409 0 
L 409 4581 
L 972 4581 
L 972 0 
L 409 0 
z
" transform="scale(0.015625)"/>
      <path id="ArialMT-78" d="M 47 0 
L 1259 1725 
L 138 3319 
L 841 3319 
L 1350 2541 
Q 1494 2319 1581 2169 
Q 1719 2375 1834 2534 
L 2394 3319 
L 3066 3319 
L 1919 1756 
L 3153 0 
L 2463 0 
L 1781 1031 
L 1600 1309 
L 728 0 
L 47 0 
z
" transform="scale(0.015625)"/>
      <path id="ArialMT-27" d="M 425 2959 
L 281 3816 
L 281 4581 
L 922 4581 
L 922 3816 
L 772 2959 
L 425 2959 
z
" transform="scale(0.015625)"/>
      <path id="ArialMT-76" d="M 1344 0 
L 81 3319 
L 675 3319 
L 1388 1331 
Q 1503 1009 1600 663 
Q 1675 925 1809 1294 
L 2547 3319 
L 3125 3319 
L 1869 0 
L 1344 0 
z
" transform="scale(0.015625)"/>
      <path id="ArialMT-79" d="M 397 -1278 
L 334 -750 
Q 519 -800 656 -800 
Q 844 -800 956 -737 
Q 1069 -675 1141 -563 
Q 1194 -478 1313 -144 
Q 1328 -97 1363 -6 
L 103 3319 
L 709 3319 
L 1400 1397 
Q 1534 1031 1641 628 
Q 1738 1016 1872 1384 
L 2581 3319 
L 3144 3319 
L 1881 -56 
Q 1678 -603 1566 -809 
Q 1416 -1088 1222 -1217 
Q 1028 -1347 759 -1347 
Q 597 -1347 397 -1278 
z
" transform="scale(0.015625)"/>
     </defs>
     <use xlink:href="#ArialMT-50"/>
     <use xlink:href="#ArialMT-72" x="66.699219"/>
     <use xlink:href="#ArialMT-6f" x="100"/>
     <use xlink:href="#ArialMT-74" x="155.615234"/>
     <use xlink:href="#ArialMT-65" x="183.398438"/>
     <use xlink:href="#ArialMT-69" x="239.013672"/>
     <use xlink:href="#ArialMT-6e" x="261.230469"/>
     <use xlink:href="#ArialMT-20" x="316.845703"/>
     <use xlink:href="#ArialMT-63" x="344.628906"/>
     <use xlink:href="#ArialMT-6f" x="394.628906"/>
     <use xlink:href="#ArialMT-6d" x="450.244141"/>
     <use xlink:href="#ArialMT-70" x="533.544922"/>
     <use xlink:href="#ArialMT-6c" x="589.160156"/>
     <use xlink:href="#ArialMT-65" x="611.376953"/>
     <use xlink:href="#ArialMT-78" x="666.992188"/>
     <use xlink:href="#ArialMT-27" x="716.992188"/>
     <use xlink:href="#ArialMT-73" x="736.083984"/>
     <use xlink:href="#ArialMT-20" x="786.083984"/>
     <use xlink:href="#ArialMT-76" x="813.867188"/>
     <use xlink:href="#ArialMT-69" x="863.867188"/>
     <use xlink:href="#ArialMT-62" x="886.083984"/>
     <use xlink:href="#ArialMT-72" x="941.699219"/>
     <use xlink:href="#ArialMT-61" x="975"/>
     <use xlink:href="#ArialMT-74" x="1030.615234"/>
     <use xlink:href="#ArialMT-69" x="1058.398438"/>
     <use xlink:href="#ArialMT-6f" x="1080.615234"/>
     <use xlink:href="#ArialMT-6e" x="1136.230469"/>
     <use xlink:href="#ArialMT-20" x="1191.845703"/>
     <use xlink:href="#ArialMT-70" x="1219.628906"/>
     <use xlink:href="#ArialMT-72" x="1275.244141"/>
     <use xlink:href="#ArialMT-6f" x="1308.544922"/>
     <use xlink:href="#ArialMT-66" x="1364.160156"/>
     <use xlink:href="#ArialMT-69" x="1391.943359"/>
     <use xlink:href="#ArialMT-6c" x="1414.160156"/>
     <use xlink:href="#ArialMT-65" x="1436.376953"/>
     <use xlink:href="#ArialMT-20" x="1491.992188"/>
     <use xlink:href="#ArialMT-28" x="1519.775391"/>
     <use xlink:href="#ArialMT-61" x="1553.076172"/>
     <use xlink:href="#ArialMT-73" x="1608.691406"/>
     <use xlink:href="#ArialMT-79" x="1658.691406"/>
     <use xlink:href="#ArialMT-6d" x="1708.691406"/>
     <use xlink:href="#ArialMT-6d" x="1791.992188"/>
     <use xlink:href="#ArialMT-65" x="1875.292969"/>
     <use xlink:href="#ArialMT-74" x="1930.908203"/>
     <use xlink:href="#ArialMT-72" x="1958.691406"/>
     <use xlink:href="#ArialMT-69" x="1991.992188"/>
     <use xlink:href="#ArialMT-63" x="2014.208984"/>
     <use xlink:href="#ArialMT-20" x="2064.208984"/>
     <use xlink:href="#ArialMT-75" x="2091.992188"/>
     <use xlink:href="#ArialMT-6e" x="2147.607422"/>
     <use xlink:href="#ArialMT-69" x="2203.222656"/>
     <use xlink:href="#ArialMT-74" x="2225.439453"/>
     <use xlink:href="#ArialMT-29" x="2253.222656"/>
    </g>
   </g>
   <g id="legend_1">
    <g id="line2d_17">
     <path d="M 293.44375 47.217813 
L 303.44375 47.217813 
L 313.44375 47.217813 
" style="fill: none; stroke: #1f77b4; stroke-width: 1.5; stroke-linecap: round"/>
    </g>
    <g id="text_18">
     <!-- Predicted -->
     <g style="fill: #262626" transform="translate(321.44375 50.717813) scale(0.1 -0.1)">
      <use xlink:href="#ArialMT-50"/>
      <use xlink:href="#ArialMT-72" x="66.699219"/>
      <use xlink:href="#ArialMT-65" x="100"/>
      <use xlink:href="#ArialMT-64" x="155.615234"/>
      <use xlink:href="#ArialMT-69" x="211.230469"/>
      <use xlink:href="#ArialMT-63" x="233.447266"/>
      <use xlink:href="#ArialMT-74" x="283.447266"/>
      <use xlink:href="#ArialMT-65" x="311.230469"/>
      <use xlink:href="#ArialMT-64" x="366.845703"/>
     </g>
    </g>
    <g id="line2d_18">
     <path d="M 293.44375 61.363125 
L 303.44375 61.363125 
L 313.44375 61.363125 
" style="fill: none; stroke: #ff7f0e; stroke-width: 1.5; stroke-linecap: round"/>
    </g>
    <g id="text_19">
     <!-- Experimental -->
     <g style="fill: #262626" transform="translate(321.44375 64.863125) scale(0.1 -0.1)">
      <defs>
       <path id="ArialMT-45" d="M 506 0 
L 506 4581 
L 3819 4581 
L 3819 4041 
L 1113 4041 
L 1113 2638 
L 3647 2638 
L 3647 2100 
L 1113 2100 
L 1113 541 
L 3925 541 
L 3925 0 
L 506 0 
z
" transform="scale(0.015625)"/>
      </defs>
      <use xlink:href="#ArialMT-45"/>
      <use xlink:href="#ArialMT-78" x="66.699219"/>
      <use xlink:href="#ArialMT-70" x="116.699219"/>
      <use xlink:href="#ArialMT-65" x="172.314453"/>
      <use xlink:href="#ArialMT-72" x="227.929688"/>
      <use xlink:href="#ArialMT-69" x="261.230469"/>
      <use xlink:href="#ArialMT-6d" x="283.447266"/>
      <use xlink:href="#ArialMT-65" x="366.748047"/>
      <use xlink:href="#ArialMT-6e" x="422.363281"/>
      <use xlink:href="#ArialMT-74" x="477.978516"/>
      <use xlink:href="#ArialMT-61" x="505.761719"/>
      <use xlink:href="#ArialMT-6c" x="561.376953"/>
     </g>
    </g>
   </g>
  </g>
 </g>
 <defs>
  <clipPath id="pd60818ae71">
   <rect x="54" y="34.56" width="334.8" height="221.76"/>
  </clipPath>
 </defs>
</svg>
