<?xml version="1.0" encoding="utf-8" standalone="no"?>
<!DOCTYPE svg PUBLIC "-//W3C//DTD SVG 1.1//EN"
  "http://www.w3.org/Graphics/SVG/1.1/DTD/svg11.dtd">
<svg xmlns:xlink="http://www.w3.org/1999/xlink" width="432pt" height="288pt" viewBox="0 0 432 288" xmlns="http://www.w3.org/2000/svg" version="1.1">
 <metadata>
  <rdf:RDF xmlns:dc="http://purl.org/dc/elements/1.1/" xmlns:cc="http://creativecommons.org/ns#" xmlns:rdf="http://www.w3.org/1999/02/22-rdf-syntax-ns#">
   <cc:Work>
    <dc:type rdf:resource="http://purl.org/dc/dcmitype/StillImage"/>
    <dc:date>2023-08-28T14:48:24.452116</dc:date>
    <dc:format>image/svg+xml</dc:format>
    <dc:creator>
     <cc:Agent>
      <dc:title>Matplotlib v3.7.1, https://matplotlib.org/</dc:title>
     </cc:Agent>
    </dc:creator>
   </cc:Work>
  </rdf:RDF>
 </metadata>
 <defs>
  <style type="text/css">*{stroke-linejoin: round; stroke-linecap: butt}</style>
 </defs>
 <g id="figure_1">
  <g id="patch_1">
   <path d="M 0 288 
L 432 288 
L 432 0 
L 0 0 
z
" style="fill: #ffffff"/>
  </g>
  <g id="axes_1">
   <g id="patch_2">
    <path d="M 54 256.32 
L 388.8 256.32 
L 388.8 34.56 
L 54 34.56 
z
" style="fill: #eaeaf2"/>
   </g>
   <g id="matplotlib.axis_1">
    <g id="xtick_1">
     <g id="line2d_1">
      <path d="M 68.429675 256.32 
L 68.429675 34.56 
" clip-path="url(#pad56c1f42e)" style="fill: none; stroke: #ffffff; stroke-width: 0.8; stroke-linecap: round"/>
     </g>
     <g id="text_1">
      <!-- 0 -->
      <g style="fill: #262626" transform="translate(65.649206 270.477813) scale(0.1 -0.1)">
       <defs>
        <path id="ArialMT-30" d="M 266 2259 
Q 266 3072 433 3567 
Q 600 4063 929 4331 
Q 1259 4600 1759 4600 
Q 2128 4600 2406 4451 
Q 2684 4303 2865 4023 
Q 3047 3744 3150 3342 
Q 3253 2941 3253 2259 
Q 3253 1453 3087 958 
Q 2922 463 2592 192 
Q 2263 -78 1759 -78 
Q 1097 -78 719 397 
Q 266 969 266 2259 
z
M 844 2259 
Q 844 1131 1108 757 
Q 1372 384 1759 384 
Q 2147 384 2411 759 
Q 2675 1134 2675 2259 
Q 2675 3391 2411 3762 
Q 2147 4134 1753 4134 
Q 1366 4134 1134 3806 
Q 844 3388 844 2259 
z
" transform="scale(0.015625)"/>
       </defs>
       <use xlink:href="#ArialMT-30"/>
      </g>
     </g>
    </g>
    <g id="xtick_2">
     <g id="line2d_2">
      <path d="M 107.855016 256.32 
L 107.855016 34.56 
" clip-path="url(#pad56c1f42e)" style="fill: none; stroke: #ffffff; stroke-width: 0.8; stroke-linecap: round"/>
     </g>
     <g id="text_2">
      <!-- 50 -->
      <g style="fill: #262626" transform="translate(102.294079 270.477813) scale(0.1 -0.1)">
       <defs>
        <path id="ArialMT-35" d="M 266 1200 
L 856 1250 
Q 922 819 1161 601 
Q 1400 384 1738 384 
Q 2144 384 2425 690 
Q 2706 997 2706 1503 
Q 2706 1984 2436 2262 
Q 2166 2541 1728 2541 
Q 1456 2541 1237 2417 
Q 1019 2294 894 2097 
L 366 2166 
L 809 4519 
L 3088 4519 
L 3088 3981 
L 1259 3981 
L 1013 2750 
Q 1425 3038 1878 3038 
Q 2478 3038 2890 2622 
Q 3303 2206 3303 1553 
Q 3303 931 2941 478 
Q 2500 -78 1738 -78 
Q 1113 -78 717 272 
Q 322 622 266 1200 
z
" transform="scale(0.015625)"/>
       </defs>
       <use xlink:href="#ArialMT-35"/>
       <use xlink:href="#ArialMT-30" x="55.615234"/>
      </g>
     </g>
    </g>
    <g id="xtick_3">
     <g id="line2d_3">
      <path d="M 147.280358 256.32 
L 147.280358 34.56 
" clip-path="url(#pad56c1f42e)" style="fill: none; stroke: #ffffff; stroke-width: 0.8; stroke-linecap: round"/>
     </g>
     <g id="text_3">
      <!-- 100 -->
      <g style="fill: #262626" transform="translate(138.938952 270.477813) scale(0.1 -0.1)">
       <defs>
        <path id="ArialMT-31" d="M 2384 0 
L 1822 0 
L 1822 3584 
Q 1619 3391 1289 3197 
Q 959 3003 697 2906 
L 697 3450 
Q 1169 3672 1522 3987 
Q 1875 4303 2022 4600 
L 2384 4600 
L 2384 0 
z
" transform="scale(0.015625)"/>
       </defs>
       <use xlink:href="#ArialMT-31"/>
       <use xlink:href="#ArialMT-30" x="55.615234"/>
       <use xlink:href="#ArialMT-30" x="111.230469"/>
      </g>
     </g>
    </g>
    <g id="xtick_4">
     <g id="line2d_4">
      <path d="M 186.705699 256.32 
L 186.705699 34.56 
" clip-path="url(#pad56c1f42e)" style="fill: none; stroke: #ffffff; stroke-width: 0.8; stroke-linecap: round"/>
     </g>
     <g id="text_4">
      <!-- 150 -->
      <g style="fill: #262626" transform="translate(178.364293 270.477813) scale(0.1 -0.1)">
       <use xlink:href="#ArialMT-31"/>
       <use xlink:href="#ArialMT-35" x="55.615234"/>
       <use xlink:href="#ArialMT-30" x="111.230469"/>
      </g>
     </g>
    </g>
    <g id="xtick_5">
     <g id="line2d_5">
      <path d="M 226.131041 256.32 
L 226.131041 34.56 
" clip-path="url(#pad56c1f42e)" style="fill: none; stroke: #ffffff; stroke-width: 0.8; stroke-linecap: round"/>
     </g>
     <g id="text_5">
      <!-- 200 -->
      <g style="fill: #262626" transform="translate(217.789635 270.477813) scale(0.1 -0.1)">
       <defs>
        <path id="ArialMT-32" d="M 3222 541 
L 3222 0 
L 194 0 
Q 188 203 259 391 
Q 375 700 629 1000 
Q 884 1300 1366 1694 
Q 2113 2306 2375 2664 
Q 2638 3022 2638 3341 
Q 2638 3675 2398 3904 
Q 2159 4134 1775 4134 
Q 1369 4134 1125 3890 
Q 881 3647 878 3216 
L 300 3275 
Q 359 3922 746 4261 
Q 1134 4600 1788 4600 
Q 2447 4600 2831 4234 
Q 3216 3869 3216 3328 
Q 3216 3053 3103 2787 
Q 2991 2522 2730 2228 
Q 2469 1934 1863 1422 
Q 1356 997 1212 845 
Q 1069 694 975 541 
L 3222 541 
z
" transform="scale(0.015625)"/>
       </defs>
       <use xlink:href="#ArialMT-32"/>
       <use xlink:href="#ArialMT-30" x="55.615234"/>
       <use xlink:href="#ArialMT-30" x="111.230469"/>
      </g>
     </g>
    </g>
    <g id="xtick_6">
     <g id="line2d_6">
      <path d="M 265.556382 256.32 
L 265.556382 34.56 
" clip-path="url(#pad56c1f42e)" style="fill: none; stroke: #ffffff; stroke-width: 0.8; stroke-linecap: round"/>
     </g>
     <g id="text_6">
      <!-- 250 -->
      <g style="fill: #262626" transform="translate(257.214976 270.477813) scale(0.1 -0.1)">
       <use xlink:href="#ArialMT-32"/>
       <use xlink:href="#ArialMT-35" x="55.615234"/>
       <use xlink:href="#ArialMT-30" x="111.230469"/>
      </g>
     </g>
    </g>
    <g id="xtick_7">
     <g id="line2d_7">
      <path d="M 304.981724 256.32 
L 304.981724 34.56 
" clip-path="url(#pad56c1f42e)" style="fill: none; stroke: #ffffff; stroke-width: 0.8; stroke-linecap: round"/>
     </g>
     <g id="text_7">
      <!-- 300 -->
      <g style="fill: #262626" transform="translate(296.640318 270.477813) scale(0.1 -0.1)">
       <defs>
        <path id="ArialMT-33" d="M 269 1209 
L 831 1284 
Q 928 806 1161 595 
Q 1394 384 1728 384 
Q 2125 384 2398 659 
Q 2672 934 2672 1341 
Q 2672 1728 2419 1979 
Q 2166 2231 1775 2231 
Q 1616 2231 1378 2169 
L 1441 2663 
Q 1497 2656 1531 2656 
Q 1891 2656 2178 2843 
Q 2466 3031 2466 3422 
Q 2466 3731 2256 3934 
Q 2047 4138 1716 4138 
Q 1388 4138 1169 3931 
Q 950 3725 888 3313 
L 325 3413 
Q 428 3978 793 4289 
Q 1159 4600 1703 4600 
Q 2078 4600 2393 4439 
Q 2709 4278 2876 4000 
Q 3044 3722 3044 3409 
Q 3044 3113 2884 2869 
Q 2725 2625 2413 2481 
Q 2819 2388 3044 2092 
Q 3269 1797 3269 1353 
Q 3269 753 2831 336 
Q 2394 -81 1725 -81 
Q 1122 -81 723 278 
Q 325 638 269 1209 
z
" transform="scale(0.015625)"/>
       </defs>
       <use xlink:href="#ArialMT-33"/>
       <use xlink:href="#ArialMT-30" x="55.615234"/>
       <use xlink:href="#ArialMT-30" x="111.230469"/>
      </g>
     </g>
    </g>
    <g id="xtick_8">
     <g id="line2d_8">
      <path d="M 344.407065 256.32 
L 344.407065 34.56 
" clip-path="url(#pad56c1f42e)" style="fill: none; stroke: #ffffff; stroke-width: 0.8; stroke-linecap: round"/>
     </g>
     <g id="text_8">
      <!-- 350 -->
      <g style="fill: #262626" transform="translate(336.065659 270.477813) scale(0.1 -0.1)">
       <use xlink:href="#ArialMT-33"/>
       <use xlink:href="#ArialMT-35" x="55.615234"/>
       <use xlink:href="#ArialMT-30" x="111.230469"/>
      </g>
     </g>
    </g>
    <g id="xtick_9">
     <g id="line2d_9">
      <path d="M 383.832407 256.32 
L 383.832407 34.56 
" clip-path="url(#pad56c1f42e)" style="fill: none; stroke: #ffffff; stroke-width: 0.8; stroke-linecap: round"/>
     </g>
     <g id="text_9">
      <!-- 400 -->
      <g style="fill: #262626" transform="translate(375.491001 270.477813) scale(0.1 -0.1)">
       <defs>
        <path id="ArialMT-34" d="M 2069 0 
L 2069 1097 
L 81 1097 
L 81 1613 
L 2172 4581 
L 2631 4581 
L 2631 1613 
L 3250 1613 
L 3250 1097 
L 2631 1097 
L 2631 0 
L 2069 0 
z
M 2069 1613 
L 2069 3678 
L 634 1613 
L 2069 1613 
z
" transform="scale(0.015625)"/>
       </defs>
       <use xlink:href="#ArialMT-34"/>
       <use xlink:href="#ArialMT-30" x="55.615234"/>
       <use xlink:href="#ArialMT-30" x="111.230469"/>
      </g>
     </g>
    </g>
    <g id="text_10">
     <!-- Residue number -->
     <g style="fill: #262626" transform="translate(184.715625 283.623125) scale(0.1 -0.1)">
      <defs>
       <path id="ArialMT-52" d="M 503 0 
L 503 4581 
L 2534 4581 
Q 3147 4581 3465 4457 
Q 3784 4334 3975 4021 
Q 4166 3709 4166 3331 
Q 4166 2844 3850 2509 
Q 3534 2175 2875 2084 
Q 3116 1969 3241 1856 
Q 3506 1613 3744 1247 
L 4541 0 
L 3778 0 
L 3172 953 
Q 2906 1366 2734 1584 
Q 2563 1803 2427 1890 
Q 2291 1978 2150 2013 
Q 2047 2034 1813 2034 
L 1109 2034 
L 1109 0 
L 503 0 
z
M 1109 2559 
L 2413 2559 
Q 2828 2559 3062 2645 
Q 3297 2731 3419 2920 
Q 3541 3109 3541 3331 
Q 3541 3656 3305 3865 
Q 3069 4075 2559 4075 
L 1109 4075 
L 1109 2559 
z
" transform="scale(0.015625)"/>
       <path id="ArialMT-65" d="M 2694 1069 
L 3275 997 
Q 3138 488 2766 206 
Q 2394 -75 1816 -75 
Q 1088 -75 661 373 
Q 234 822 234 1631 
Q 234 2469 665 2931 
Q 1097 3394 1784 3394 
Q 2450 3394 2872 2941 
Q 3294 2488 3294 1666 
Q 3294 1616 3291 1516 
L 816 1516 
Q 847 969 1125 678 
Q 1403 388 1819 388 
Q 2128 388 2347 550 
Q 2566 713 2694 1069 
z
M 847 1978 
L 2700 1978 
Q 2663 2397 2488 2606 
Q 2219 2931 1791 2931 
Q 1403 2931 1139 2672 
Q 875 2413 847 1978 
z
" transform="scale(0.015625)"/>
       <path id="ArialMT-73" d="M 197 991 
L 753 1078 
Q 800 744 1014 566 
Q 1228 388 1613 388 
Q 2000 388 2187 545 
Q 2375 703 2375 916 
Q 2375 1106 2209 1216 
Q 2094 1291 1634 1406 
Q 1016 1563 777 1677 
Q 538 1791 414 1992 
Q 291 2194 291 2438 
Q 291 2659 392 2848 
Q 494 3038 669 3163 
Q 800 3259 1026 3326 
Q 1253 3394 1513 3394 
Q 1903 3394 2198 3281 
Q 2494 3169 2634 2976 
Q 2775 2784 2828 2463 
L 2278 2388 
Q 2241 2644 2061 2787 
Q 1881 2931 1553 2931 
Q 1166 2931 1000 2803 
Q 834 2675 834 2503 
Q 834 2394 903 2306 
Q 972 2216 1119 2156 
Q 1203 2125 1616 2013 
Q 2213 1853 2448 1751 
Q 2684 1650 2818 1456 
Q 2953 1263 2953 975 
Q 2953 694 2789 445 
Q 2625 197 2315 61 
Q 2006 -75 1616 -75 
Q 969 -75 630 194 
Q 291 463 197 991 
z
" transform="scale(0.015625)"/>
       <path id="ArialMT-69" d="M 425 3934 
L 425 4581 
L 988 4581 
L 988 3934 
L 425 3934 
z
M 425 0 
L 425 3319 
L 988 3319 
L 988 0 
L 425 0 
z
" transform="scale(0.015625)"/>
       <path id="ArialMT-64" d="M 2575 0 
L 2575 419 
Q 2259 -75 1647 -75 
Q 1250 -75 917 144 
Q 584 363 401 755 
Q 219 1147 219 1656 
Q 219 2153 384 2558 
Q 550 2963 881 3178 
Q 1213 3394 1622 3394 
Q 1922 3394 2156 3267 
Q 2391 3141 2538 2938 
L 2538 4581 
L 3097 4581 
L 3097 0 
L 2575 0 
z
M 797 1656 
Q 797 1019 1065 703 
Q 1334 388 1700 388 
Q 2069 388 2326 689 
Q 2584 991 2584 1609 
Q 2584 2291 2321 2609 
Q 2059 2928 1675 2928 
Q 1300 2928 1048 2622 
Q 797 2316 797 1656 
z
" transform="scale(0.015625)"/>
       <path id="ArialMT-75" d="M 2597 0 
L 2597 488 
Q 2209 -75 1544 -75 
Q 1250 -75 995 37 
Q 741 150 617 320 
Q 494 491 444 738 
Q 409 903 409 1263 
L 409 3319 
L 972 3319 
L 972 1478 
Q 972 1038 1006 884 
Q 1059 663 1231 536 
Q 1403 409 1656 409 
Q 1909 409 2131 539 
Q 2353 669 2445 892 
Q 2538 1116 2538 1541 
L 2538 3319 
L 3100 3319 
L 3100 0 
L 2597 0 
z
" transform="scale(0.015625)"/>
       <path id="ArialMT-20" transform="scale(0.015625)"/>
       <path id="ArialMT-6e" d="M 422 0 
L 422 3319 
L 928 3319 
L 928 2847 
Q 1294 3394 1984 3394 
Q 2284 3394 2536 3286 
Q 2788 3178 2913 3003 
Q 3038 2828 3088 2588 
Q 3119 2431 3119 2041 
L 3119 0 
L 2556 0 
L 2556 2019 
Q 2556 2363 2490 2533 
Q 2425 2703 2258 2804 
Q 2091 2906 1866 2906 
Q 1506 2906 1245 2678 
Q 984 2450 984 1813 
L 984 0 
L 422 0 
z
" transform="scale(0.015625)"/>
       <path id="ArialMT-6d" d="M 422 0 
L 422 3319 
L 925 3319 
L 925 2853 
Q 1081 3097 1340 3245 
Q 1600 3394 1931 3394 
Q 2300 3394 2536 3241 
Q 2772 3088 2869 2813 
Q 3263 3394 3894 3394 
Q 4388 3394 4653 3120 
Q 4919 2847 4919 2278 
L 4919 0 
L 4359 0 
L 4359 2091 
Q 4359 2428 4304 2576 
Q 4250 2725 4106 2815 
Q 3963 2906 3769 2906 
Q 3419 2906 3187 2673 
Q 2956 2441 2956 1928 
L 2956 0 
L 2394 0 
L 2394 2156 
Q 2394 2531 2256 2718 
Q 2119 2906 1806 2906 
Q 1569 2906 1367 2781 
Q 1166 2656 1075 2415 
Q 984 2175 984 1722 
L 984 0 
L 422 0 
z
" transform="scale(0.015625)"/>
       <path id="ArialMT-62" d="M 941 0 
L 419 0 
L 419 4581 
L 981 4581 
L 981 2947 
Q 1338 3394 1891 3394 
Q 2197 3394 2470 3270 
Q 2744 3147 2920 2923 
Q 3097 2700 3197 2384 
Q 3297 2069 3297 1709 
Q 3297 856 2875 390 
Q 2453 -75 1863 -75 
Q 1275 -75 941 416 
L 941 0 
z
M 934 1684 
Q 934 1088 1097 822 
Q 1363 388 1816 388 
Q 2184 388 2453 708 
Q 2722 1028 2722 1663 
Q 2722 2313 2464 2622 
Q 2206 2931 1841 2931 
Q 1472 2931 1203 2611 
Q 934 2291 934 1684 
z
" transform="scale(0.015625)"/>
       <path id="ArialMT-72" d="M 416 0 
L 416 3319 
L 922 3319 
L 922 2816 
Q 1116 3169 1280 3281 
Q 1444 3394 1641 3394 
Q 1925 3394 2219 3213 
L 2025 2691 
Q 1819 2813 1613 2813 
Q 1428 2813 1281 2702 
Q 1134 2591 1072 2394 
Q 978 2094 978 1738 
L 978 0 
L 416 0 
z
" transform="scale(0.015625)"/>
      </defs>
      <use xlink:href="#ArialMT-52"/>
      <use xlink:href="#ArialMT-65" x="72.216797"/>
      <use xlink:href="#ArialMT-73" x="127.832031"/>
      <use xlink:href="#ArialMT-69" x="177.832031"/>
      <use xlink:href="#ArialMT-64" x="200.048828"/>
      <use xlink:href="#ArialMT-75" x="255.664062"/>
      <use xlink:href="#ArialMT-65" x="311.279297"/>
      <use xlink:href="#ArialMT-20" x="366.894531"/>
      <use xlink:href="#ArialMT-6e" x="394.677734"/>
      <use xlink:href="#ArialMT-75" x="450.292969"/>
      <use xlink:href="#ArialMT-6d" x="505.908203"/>
      <use xlink:href="#ArialMT-62" x="589.208984"/>
      <use xlink:href="#ArialMT-65" x="644.824219"/>
      <use xlink:href="#ArialMT-72" x="700.439453"/>
     </g>
    </g>
   </g>
   <g id="matplotlib.axis_2">
    <g id="ytick_1">
     <g id="line2d_10">
      <path d="M 54 251.19941 
L 388.8 251.19941 
" clip-path="url(#pad56c1f42e)" style="fill: none; stroke: #ffffff; stroke-width: 0.8; stroke-linecap: round"/>
     </g>
     <g id="text_11">
      <!-- 0 -->
      <g style="fill: #262626" transform="translate(41.439062 254.778316) scale(0.1 -0.1)">
       <use xlink:href="#ArialMT-30"/>
      </g>
     </g>
    </g>
    <g id="ytick_2">
     <g id="line2d_11">
      <path d="M 54 226.402362 
L 388.8 226.402362 
" clip-path="url(#pad56c1f42e)" style="fill: none; stroke: #ffffff; stroke-width: 0.8; stroke-linecap: round"/>
     </g>
     <g id="text_12">
      <!-- 10 -->
      <g style="fill: #262626" transform="translate(35.878125 229.981268) scale(0.1 -0.1)">
       <use xlink:href="#ArialMT-31"/>
       <use xlink:href="#ArialMT-30" x="55.615234"/>
      </g>
     </g>
    </g>
    <g id="ytick_3">
     <g id="line2d_12">
      <path d="M 54 201.605314 
L 388.8 201.605314 
" clip-path="url(#pad56c1f42e)" style="fill: none; stroke: #ffffff; stroke-width: 0.8; stroke-linecap: round"/>
     </g>
     <g id="text_13">
      <!-- 20 -->
      <g style="fill: #262626" transform="translate(35.878125 205.18422) scale(0.1 -0.1)">
       <use xlink:href="#ArialMT-32"/>
       <use xlink:href="#ArialMT-30" x="55.615234"/>
      </g>
     </g>
    </g>
    <g id="ytick_4">
     <g id="line2d_13">
      <path d="M 54 176.808266 
L 388.8 176.808266 
" clip-path="url(#pad56c1f42e)" style="fill: none; stroke: #ffffff; stroke-width: 0.8; stroke-linecap: round"/>
     </g>
     <g id="text_14">
      <!-- 30 -->
      <g style="fill: #262626" transform="translate(35.878125 180.387172) scale(0.1 -0.1)">
       <use xlink:href="#ArialMT-33"/>
       <use xlink:href="#ArialMT-30" x="55.615234"/>
      </g>
     </g>
    </g>
    <g id="ytick_5">
     <g id="line2d_14">
      <path d="M 54 152.011218 
L 388.8 152.011218 
" clip-path="url(#pad56c1f42e)" style="fill: none; stroke: #ffffff; stroke-width: 0.8; stroke-linecap: round"/>
     </g>
     <g id="text_15">
      <!-- 40 -->
      <g style="fill: #262626" transform="translate(35.878125 155.590124) scale(0.1 -0.1)">
       <use xlink:href="#ArialMT-34"/>
       <use xlink:href="#ArialMT-30" x="55.615234"/>
      </g>
     </g>
    </g>
    <g id="ytick_6">
     <g id="line2d_15">
      <path d="M 54 127.21417 
L 388.8 127.21417 
" clip-path="url(#pad56c1f42e)" style="fill: none; stroke: #ffffff; stroke-width: 0.8; stroke-linecap: round"/>
     </g>
     <g id="text_16">
      <!-- 50 -->
      <g style="fill: #262626" transform="translate(35.878125 130.793076) scale(0.1 -0.1)">
       <use xlink:href="#ArialMT-35"/>
       <use xlink:href="#ArialMT-30" x="55.615234"/>
      </g>
     </g>
    </g>
    <g id="ytick_7">
     <g id="line2d_16">
      <path d="M 54 102.417122 
L 388.8 102.417122 
" clip-path="url(#pad56c1f42e)" style="fill: none; stroke: #ffffff; stroke-width: 0.8; stroke-linecap: round"/>
     </g>
     <g id="text_17">
      <!-- 60 -->
      <g style="fill: #262626" transform="translate(35.878125 105.996028) scale(0.1 -0.1)">
       <defs>
        <path id="ArialMT-36" d="M 3184 3459 
L 2625 3416 
Q 2550 3747 2413 3897 
Q 2184 4138 1850 4138 
Q 1581 4138 1378 3988 
Q 1113 3794 959 3422 
Q 806 3050 800 2363 
Q 1003 2672 1297 2822 
Q 1591 2972 1913 2972 
Q 2475 2972 2870 2558 
Q 3266 2144 3266 1488 
Q 3266 1056 3080 686 
Q 2894 316 2569 119 
Q 2244 -78 1831 -78 
Q 1128 -78 684 439 
Q 241 956 241 2144 
Q 241 3472 731 4075 
Q 1159 4600 1884 4600 
Q 2425 4600 2770 4297 
Q 3116 3994 3184 3459 
z
M 888 1484 
Q 888 1194 1011 928 
Q 1134 663 1356 523 
Q 1578 384 1822 384 
Q 2178 384 2434 671 
Q 2691 959 2691 1453 
Q 2691 1928 2437 2201 
Q 2184 2475 1800 2475 
Q 1419 2475 1153 2201 
Q 888 1928 888 1484 
z
" transform="scale(0.015625)"/>
       </defs>
       <use xlink:href="#ArialMT-36"/>
       <use xlink:href="#ArialMT-30" x="55.615234"/>
      </g>
     </g>
    </g>
    <g id="ytick_8">
     <g id="line2d_17">
      <path d="M 54 77.620074 
L 388.8 77.620074 
" clip-path="url(#pad56c1f42e)" style="fill: none; stroke: #ffffff; stroke-width: 0.8; stroke-linecap: round"/>
     </g>
     <g id="text_18">
      <!-- 70 -->
      <g style="fill: #262626" transform="translate(35.878125 81.19898) scale(0.1 -0.1)">
       <defs>
        <path id="ArialMT-37" d="M 303 3981 
L 303 4522 
L 3269 4522 
L 3269 4084 
Q 2831 3619 2401 2847 
Q 1972 2075 1738 1259 
Q 1569 684 1522 0 
L 944 0 
Q 953 541 1156 1306 
Q 1359 2072 1739 2783 
Q 2119 3494 2547 3981 
L 303 3981 
z
" transform="scale(0.015625)"/>
       </defs>
       <use xlink:href="#ArialMT-37"/>
       <use xlink:href="#ArialMT-30" x="55.615234"/>
      </g>
     </g>
    </g>
    <g id="ytick_9">
     <g id="line2d_18">
      <path d="M 54 52.823026 
L 388.8 52.823026 
" clip-path="url(#pad56c1f42e)" style="fill: none; stroke: #ffffff; stroke-width: 0.8; stroke-linecap: round"/>
     </g>
     <g id="text_19">
      <!-- 80 -->
      <g style="fill: #262626" transform="translate(35.878125 56.401932) scale(0.1 -0.1)">
       <defs>
        <path id="ArialMT-38" d="M 1131 2484 
Q 781 2613 612 2850 
Q 444 3088 444 3419 
Q 444 3919 803 4259 
Q 1163 4600 1759 4600 
Q 2359 4600 2725 4251 
Q 3091 3903 3091 3403 
Q 3091 3084 2923 2848 
Q 2756 2613 2416 2484 
Q 2838 2347 3058 2040 
Q 3278 1734 3278 1309 
Q 3278 722 2862 322 
Q 2447 -78 1769 -78 
Q 1091 -78 675 323 
Q 259 725 259 1325 
Q 259 1772 486 2073 
Q 713 2375 1131 2484 
z
M 1019 3438 
Q 1019 3113 1228 2906 
Q 1438 2700 1772 2700 
Q 2097 2700 2305 2904 
Q 2513 3109 2513 3406 
Q 2513 3716 2298 3927 
Q 2084 4138 1766 4138 
Q 1444 4138 1231 3931 
Q 1019 3725 1019 3438 
z
M 838 1322 
Q 838 1081 952 856 
Q 1066 631 1291 507 
Q 1516 384 1775 384 
Q 2178 384 2440 643 
Q 2703 903 2703 1303 
Q 2703 1709 2433 1975 
Q 2163 2241 1756 2241 
Q 1359 2241 1098 1978 
Q 838 1716 838 1322 
z
" transform="scale(0.015625)"/>
       </defs>
       <use xlink:href="#ArialMT-38"/>
       <use xlink:href="#ArialMT-30" x="55.615234"/>
      </g>
     </g>
    </g>
    <g id="text_20">
     <!-- B-factor ($\AA^2$) -->
     <g style="fill: #262626" transform="translate(29.678125 173.94) rotate(-90) scale(0.1 -0.1)">
      <defs>
       <path id="ArialMT-42" d="M 469 0 
L 469 4581 
L 2188 4581 
Q 2713 4581 3030 4442 
Q 3347 4303 3526 4014 
Q 3706 3725 3706 3409 
Q 3706 3116 3547 2856 
Q 3388 2597 3066 2438 
Q 3481 2316 3704 2022 
Q 3928 1728 3928 1328 
Q 3928 1006 3792 729 
Q 3656 453 3456 303 
Q 3256 153 2954 76 
Q 2653 0 2216 0 
L 469 0 
z
M 1075 2656 
L 2066 2656 
Q 2469 2656 2644 2709 
Q 2875 2778 2992 2937 
Q 3109 3097 3109 3338 
Q 3109 3566 3000 3739 
Q 2891 3913 2687 3977 
Q 2484 4041 1991 4041 
L 1075 4041 
L 1075 2656 
z
M 1075 541 
L 2216 541 
Q 2509 541 2628 563 
Q 2838 600 2978 687 
Q 3119 775 3209 942 
Q 3300 1109 3300 1328 
Q 3300 1584 3169 1773 
Q 3038 1963 2805 2039 
Q 2572 2116 2134 2116 
L 1075 2116 
L 1075 541 
z
" transform="scale(0.015625)"/>
       <path id="ArialMT-2d" d="M 203 1375 
L 203 1941 
L 1931 1941 
L 1931 1375 
L 203 1375 
z
" transform="scale(0.015625)"/>
       <path id="ArialMT-66" d="M 556 0 
L 556 2881 
L 59 2881 
L 59 3319 
L 556 3319 
L 556 3672 
Q 556 4006 616 4169 
Q 697 4388 901 4523 
Q 1106 4659 1475 4659 
Q 1713 4659 2000 4603 
L 1916 4113 
Q 1741 4144 1584 4144 
Q 1328 4144 1222 4034 
Q 1116 3925 1116 3625 
L 1116 3319 
L 1763 3319 
L 1763 2881 
L 1116 2881 
L 1116 0 
L 556 0 
z
" transform="scale(0.015625)"/>
       <path id="ArialMT-61" d="M 2588 409 
Q 2275 144 1986 34 
Q 1697 -75 1366 -75 
Q 819 -75 525 192 
Q 231 459 231 875 
Q 231 1119 342 1320 
Q 453 1522 633 1644 
Q 813 1766 1038 1828 
Q 1203 1872 1538 1913 
Q 2219 1994 2541 2106 
Q 2544 2222 2544 2253 
Q 2544 2597 2384 2738 
Q 2169 2928 1744 2928 
Q 1347 2928 1158 2789 
Q 969 2650 878 2297 
L 328 2372 
Q 403 2725 575 2942 
Q 747 3159 1072 3276 
Q 1397 3394 1825 3394 
Q 2250 3394 2515 3294 
Q 2781 3194 2906 3042 
Q 3031 2891 3081 2659 
Q 3109 2516 3109 2141 
L 3109 1391 
Q 3109 606 3145 398 
Q 3181 191 3288 0 
L 2700 0 
Q 2613 175 2588 409 
z
M 2541 1666 
Q 2234 1541 1622 1453 
Q 1275 1403 1131 1340 
Q 988 1278 909 1158 
Q 831 1038 831 891 
Q 831 666 1001 516 
Q 1172 366 1500 366 
Q 1825 366 2078 508 
Q 2331 650 2450 897 
Q 2541 1088 2541 1459 
L 2541 1666 
z
" transform="scale(0.015625)"/>
       <path id="ArialMT-63" d="M 2588 1216 
L 3141 1144 
Q 3050 572 2676 248 
Q 2303 -75 1759 -75 
Q 1078 -75 664 370 
Q 250 816 250 1647 
Q 250 2184 428 2587 
Q 606 2991 970 3192 
Q 1334 3394 1763 3394 
Q 2303 3394 2647 3120 
Q 2991 2847 3088 2344 
L 2541 2259 
Q 2463 2594 2264 2762 
Q 2066 2931 1784 2931 
Q 1359 2931 1093 2626 
Q 828 2322 828 1663 
Q 828 994 1084 691 
Q 1341 388 1753 388 
Q 2084 388 2306 591 
Q 2528 794 2588 1216 
z
" transform="scale(0.015625)"/>
       <path id="ArialMT-74" d="M 1650 503 
L 1731 6 
Q 1494 -44 1306 -44 
Q 1000 -44 831 53 
Q 663 150 594 308 
Q 525 466 525 972 
L 525 2881 
L 113 2881 
L 113 3319 
L 525 3319 
L 525 4141 
L 1084 4478 
L 1084 3319 
L 1650 3319 
L 1650 2881 
L 1084 2881 
L 1084 941 
Q 1084 700 1114 631 
Q 1144 563 1211 522 
Q 1278 481 1403 481 
Q 1497 481 1650 503 
z
" transform="scale(0.015625)"/>
       <path id="ArialMT-6f" d="M 213 1659 
Q 213 2581 725 3025 
Q 1153 3394 1769 3394 
Q 2453 3394 2887 2945 
Q 3322 2497 3322 1706 
Q 3322 1066 3130 698 
Q 2938 331 2570 128 
Q 2203 -75 1769 -75 
Q 1072 -75 642 372 
Q 213 819 213 1659 
z
M 791 1659 
Q 791 1022 1069 705 
Q 1347 388 1769 388 
Q 2188 388 2466 706 
Q 2744 1025 2744 1678 
Q 2744 2294 2464 2611 
Q 2184 2928 1769 2928 
Q 1347 2928 1069 2612 
Q 791 2297 791 1659 
z
" transform="scale(0.015625)"/>
       <path id="ArialMT-28" d="M 1497 -1347 
Q 1031 -759 709 28 
Q 388 816 388 1659 
Q 388 2403 628 3084 
Q 909 3875 1497 4659 
L 1900 4659 
Q 1522 4009 1400 3731 
Q 1209 3300 1100 2831 
Q 966 2247 966 1656 
Q 966 153 1900 -1347 
L 1497 -1347 
z
" transform="scale(0.015625)"/>
       <path id="DejaVuSans-Oblique-c5" d="M 3188 5081 
Q 3188 5278 3048 5417 
Q 2909 5556 2713 5556 
Q 2513 5556 2377 5420 
Q 2241 5284 2241 5081 
Q 2241 4884 2377 4746 
Q 2513 4609 2713 4609 
Q 2909 4609 3048 4746 
Q 3188 4884 3188 5081 
z
M 2203 4397 
Q 2034 4513 1945 4689 
Q 1856 4866 1856 5081 
Q 1856 5438 2106 5689 
Q 2356 5941 2713 5941 
Q 3069 5941 3320 5689 
Q 3572 5438 3572 5081 
Q 3572 4834 3458 4643 
Q 3344 4453 3128 4341 
L 3938 0 
L 3278 0 
L 3084 1197 
L 984 1197 
L 325 0 
L -341 0 
L 2203 4397 
z
M 2584 4044 
L 1275 1722 
L 2988 1722 
L 2584 4044 
z
" transform="scale(0.015625)"/>
       <path id="DejaVuSans-32" d="M 1228 531 
L 3431 531 
L 3431 0 
L 469 0 
L 469 531 
Q 828 903 1448 1529 
Q 2069 2156 2228 2338 
Q 2531 2678 2651 2914 
Q 2772 3150 2772 3378 
Q 2772 3750 2511 3984 
Q 2250 4219 1831 4219 
Q 1534 4219 1204 4116 
Q 875 4013 500 3803 
L 500 4441 
Q 881 4594 1212 4672 
Q 1544 4750 1819 4750 
Q 2544 4750 2975 4387 
Q 3406 4025 3406 3419 
Q 3406 3131 3298 2873 
Q 3191 2616 2906 2266 
Q 2828 2175 2409 1742 
Q 1991 1309 1228 531 
z
" transform="scale(0.015625)"/>
       <path id="ArialMT-29" d="M 791 -1347 
L 388 -1347 
Q 1322 153 1322 1656 
Q 1322 2244 1188 2822 
Q 1081 3291 891 3722 
Q 769 4003 388 4659 
L 791 4659 
Q 1378 3875 1659 3084 
Q 1900 2403 1900 1659 
Q 1900 816 1576 28 
Q 1253 -759 791 -1347 
z
" transform="scale(0.015625)"/>
      </defs>
      <use xlink:href="#ArialMT-42" transform="translate(0 0.171875)"/>
      <use xlink:href="#ArialMT-2d" transform="translate(66.699219 0.171875)"/>
      <use xlink:href="#ArialMT-66" transform="translate(100 0.171875)"/>
      <use xlink:href="#ArialMT-61" transform="translate(127.783203 0.171875)"/>
      <use xlink:href="#ArialMT-63" transform="translate(183.398438 0.171875)"/>
      <use xlink:href="#ArialMT-74" transform="translate(233.398438 0.171875)"/>
      <use xlink:href="#ArialMT-6f" transform="translate(261.181641 0.171875)"/>
      <use xlink:href="#ArialMT-72" transform="translate(316.796875 0.171875)"/>
      <use xlink:href="#ArialMT-20" transform="translate(350.097656 0.171875)"/>
      <use xlink:href="#ArialMT-28" transform="translate(377.880859 0.171875)"/>
      <use xlink:href="#DejaVuSans-Oblique-c5" transform="translate(411.181641 0.171875)"/>
      <use xlink:href="#DejaVuSans-32" transform="translate(489.395677 38.453125) scale(0.7)"/>
      <use xlink:href="#ArialMT-29" transform="translate(536.666185 0.171875)"/>
     </g>
    </g>
   </g>
   <g id="PolyCollection_1"/>
   <g id="PolyCollection_2"/>
   <g id="line2d_19">
    <path d="M 69.218182 223.517013 
L 70.006689 226.382785 
L 71.583702 227.191352 
L 72.372209 225.801204 
L 73.160716 223.846971 
L 73.949223 221.262873 
L 74.73773 215.153028 
L 75.526236 216.595448 
L 76.314743 213.123914 
L 77.10325 206.168367 
L 77.891757 192.33567 
L 78.680264 188.186101 
L 79.468771 188.479169 
L 80.257277 184.805202 
L 81.045784 190.072526 
L 81.834291 199.905399 
L 82.622798 212.447216 
L 84.199812 224.076538 
L 84.988318 225.511305 
L 85.776825 227.969459 
L 86.565332 229.273508 
L 88.142346 230.224823 
L 88.930853 230.570504 
L 90.507866 230.602764 
L 92.08488 229.903424 
L 92.873387 229.264315 
L 93.661894 228.102462 
L 94.4504 227.98278 
L 95.238907 226.4188 
L 96.027414 227.973338 
L 97.604428 228.538749 
L 98.392935 228.43568 
L 99.181441 228.125279 
L 99.969948 228.164154 
L 100.758455 228.512049 
L 101.546962 228.28197 
L 103.123976 228.677209 
L 103.912482 229.102339 
L 104.700989 228.829665 
L 105.489496 229.008762 
L 107.06651 223.857568 
L 107.855016 221.456058 
L 108.643523 220.679055 
L 109.43203 219.672431 
L 110.220537 218.993689 
L 111.009044 221.398168 
L 111.797551 222.076751 
L 113.374564 224.181139 
L 114.163071 226.236258 
L 115.740085 228.171489 
L 117.317098 228.471142 
L 118.105605 228.314953 
L 118.894112 228.350833 
L 119.682619 227.829769 
L 120.471126 226.849268 
L 122.048139 226.439034 
L 124.41366 226.338346 
L 125.990674 225.757212 
L 126.77918 226.189083 
L 127.567687 226.89641 
L 128.356194 226.21937 
L 129.144701 226.797083 
L 129.933208 227.15727 
L 130.721715 226.819887 
L 131.510221 227.118619 
L 132.298728 226.818685 
L 133.087235 227.162597 
L 133.875742 227.688738 
L 134.664249 228.051419 
L 136.241262 228.134654 
L 137.029769 227.97719 
L 137.818276 227.64472 
L 139.39529 226.1323 
L 140.183797 224.921892 
L 140.972303 224.735794 
L 141.76081 224.071938 
L 142.549317 225.355493 
L 143.337824 226.138439 
L 144.126331 226.738861 
L 145.703344 227.30259 
L 146.491851 225.791644 
L 147.280358 226.468005 
L 148.068865 226.651311 
L 148.857372 225.317695 
L 149.645878 223.625249 
L 150.434385 224.64053 
L 151.222892 224.49444 
L 152.011399 220.49815 
L 152.799906 220.682465 
L 154.376919 222.341909 
L 155.165426 218.564015 
L 155.953933 221.468685 
L 156.74244 222.733025 
L 157.530947 222.416435 
L 159.10796 223.355407 
L 159.896467 223.508611 
L 160.684974 225.759204 
L 161.473481 226.117138 
L 162.261988 224.940102 
L 163.050495 225.552075 
L 163.839001 227.189436 
L 164.627508 227.057518 
L 165.416015 226.38909 
L 166.204522 227.448803 
L 167.781536 228.644768 
L 168.570042 229.294437 
L 169.358549 228.58351 
L 170.147056 228.722657 
L 170.935563 223.137168 
L 171.72407 226.131385 
L 172.512577 226.333269 
L 173.301083 227.159331 
L 175.666604 221.125626 
L 176.455111 215.145303 
L 177.243618 216.82123 
L 178.032124 213.418961 
L 178.820631 206.565239 
L 179.609138 192.813129 
L 180.397645 188.96742 
L 181.186152 188.967599 
L 181.974659 185.300553 
L 182.763165 190.217873 
L 183.551672 200.208099 
L 184.340179 212.502847 
L 185.917193 224.209975 
L 186.705699 225.402518 
L 187.494206 228.042764 
L 188.282713 229.554153 
L 189.859727 230.549147 
L 191.43674 230.800714 
L 192.225247 230.871803 
L 193.013754 230.534528 
L 193.802261 229.844142 
L 194.590768 229.468358 
L 195.379275 228.339762 
L 196.167781 227.854095 
L 196.956288 226.135261 
L 197.744795 227.411626 
L 198.533302 228.017066 
L 200.110316 227.586717 
L 200.898822 227.075659 
L 201.687329 227.913227 
L 202.475836 228.261894 
L 203.264343 227.819028 
L 204.05285 228.109271 
L 205.629863 229.353942 
L 207.206877 229.976352 
L 207.995384 229.335873 
L 208.783891 228.237903 
L 209.572398 226.153776 
L 210.360904 225.615735 
L 211.149411 224.803963 
L 211.937918 224.371932 
L 212.726425 225.544716 
L 215.091945 227.578598 
L 215.880452 228.647246 
L 217.457466 228.914757 
L 218.245973 228.391477 
L 219.03448 228.107277 
L 219.822986 227.364651 
L 220.611493 227.324636 
L 221.4 226.764996 
L 222.188507 225.861205 
L 222.977014 225.559203 
L 223.76552 225.921003 
L 224.554027 225.508615 
L 225.342534 225.267477 
L 226.131041 225.321568 
L 226.919548 224.631144 
L 227.708055 226.123168 
L 228.496561 225.300235 
L 229.285068 224.755307 
L 230.073575 222.684925 
L 230.862082 221.705952 
L 231.650589 221.014443 
L 232.439096 221.600257 
L 233.227602 221.707013 
L 234.016109 223.126072 
L 234.804616 223.370383 
L 235.593123 224.766511 
L 237.170137 226.560246 
L 237.958643 227.053397 
L 238.74715 227.754308 
L 239.535657 228.044729 
L 240.324164 228.165165 
L 241.112671 228.111191 
L 241.901178 227.748003 
L 244.266698 227.790224 
L 245.055205 228.075714 
L 245.843712 227.996084 
L 246.632219 227.268182 
L 247.420725 227.275253 
L 248.209232 225.556089 
L 248.997739 225.837661 
L 249.786246 226.401736 
L 251.36326 223.077845 
L 252.151766 224.427898 
L 252.940273 224.162584 
L 253.72878 219.992544 
L 254.517287 220.151438 
L 255.305794 220.84216 
L 256.094301 221.979493 
L 256.882807 217.979043 
L 257.671314 220.449102 
L 258.459821 221.7511 
L 259.248328 221.593394 
L 260.036835 221.836395 
L 260.825341 222.360431 
L 261.613848 222.466298 
L 262.402355 224.973345 
L 263.190862 223.866854 
L 264.767876 224.679531 
L 265.556382 227.15332 
L 266.344889 226.870931 
L 267.133396 226.745299 
L 267.921903 227.003117 
L 268.71041 227.9984 
L 269.498917 228.773127 
L 270.287423 229.738969 
L 271.864437 229.472385 
L 272.652944 227.882888 
L 273.441451 228.807934 
L 274.229958 228.90953 
L 275.018464 229.304296 
L 275.806971 228.247067 
L 276.595478 225.808611 
L 277.383985 223.949102 
L 278.172492 218.696543 
L 278.960999 219.446997 
L 279.749505 216.68522 
L 280.538012 211.002114 
L 281.326519 204.340487 
L 282.115026 200.035703 
L 282.903533 200.039168 
L 283.69204 197.835978 
L 284.480546 202.431503 
L 285.269053 207.830152 
L 286.05756 215.892137 
L 287.634574 226.403566 
L 288.423081 227.642041 
L 289.211587 229.198278 
L 290.000094 229.715209 
L 290.788601 230.397771 
L 291.577108 230.536503 
L 292.365615 230.489242 
L 293.154122 230.293004 
L 295.519642 230.206235 
L 296.308149 229.780135 
L 297.096656 229.157179 
L 297.885163 228.787501 
L 298.673669 227.587199 
L 299.462176 228.452791 
L 300.250683 228.201619 
L 301.03919 228.230453 
L 301.827697 228.105633 
L 302.616203 227.739998 
L 303.40471 227.86684 
L 304.193217 228.483594 
L 304.981724 228.508132 
L 305.770231 228.790838 
L 306.558738 228.904947 
L 307.347244 229.277986 
L 308.135751 228.912704 
L 308.924258 229.051926 
L 310.501272 224.583551 
L 311.289779 222.660698 
L 313.655299 220.600702 
L 314.443806 222.930716 
L 316.809326 225.015228 
L 317.597833 226.619263 
L 318.38634 227.239026 
L 319.174847 228.08302 
L 319.963354 228.057541 
L 320.751861 228.290355 
L 321.540367 228.023807 
L 322.328874 228.230998 
L 323.117381 227.506046 
L 323.905888 226.520194 
L 324.694395 226.388531 
L 327.848422 226.453968 
L 328.636929 226.117641 
L 329.425436 226.095584 
L 330.213943 226.218834 
L 331.002449 226.710308 
L 331.790956 226.21129 
L 333.36797 227.230578 
L 334.156477 226.889716 
L 334.944984 226.822715 
L 335.73349 226.618007 
L 336.521997 226.670577 
L 337.310504 227.044781 
L 338.887518 227.355261 
L 340.464531 227.263554 
L 341.253038 227.219197 
L 342.041545 226.789223 
L 342.830052 226.634649 
L 343.618559 226.003447 
L 344.407065 226.337141 
L 345.195572 226.542446 
L 345.984079 227.25237 
L 346.772586 228.331051 
L 347.561093 228.175499 
L 348.3496 227.820426 
L 349.138106 227.669597 
L 349.926613 225.772767 
L 350.71512 226.271991 
L 351.503627 226.590438 
L 353.080641 223.726819 
L 353.869147 224.980771 
L 354.657654 224.286275 
L 355.446161 221.077575 
L 357.023175 221.42424 
L 357.811682 221.960306 
L 358.600188 219.512319 
L 359.388695 221.161491 
L 360.177202 221.927021 
L 360.965709 221.734788 
L 361.754216 221.9067 
L 362.542723 222.621291 
L 363.331229 223.010373 
L 364.119736 226.169096 
L 364.908243 224.068722 
L 365.69675 224.236978 
L 366.485257 224.680638 
L 367.273764 227.108622 
L 368.06227 226.668498 
L 368.850777 226.457211 
L 369.639284 226.724326 
L 370.427791 227.977071 
L 371.216298 228.593889 
L 372.004805 229.908575 
L 372.793311 229.853265 
L 373.581818 229.672098 
L 373.581818 229.672098 
" clip-path="url(#pad56c1f42e)" style="fill: none; stroke: #1f77b4; stroke-width: 1.5; stroke-linecap: round"/>
   </g>
   <g id="line2d_20">
    <path d="M 69.218182 117.964871 
L 70.006689 175.940369 
L 70.795195 223.451513 
L 71.583702 232.006494 
L 72.372209 216.235572 
L 73.160716 218.442509 
L 73.949223 241.627749 
L 74.73773 236.643542 
L 75.526236 238.875277 
L 76.314743 237.784207 
L 77.10325 191.438524 
L 77.891757 138.397638 
L 78.680264 103.929742 
L 79.468771 81.538007 
L 80.257277 69.213875 
L 81.045784 112.757491 
L 81.834291 176.808266 
L 82.622798 213.656679 
L 83.411305 209.515572 
L 84.199812 233.519114 
L 84.988318 236.643542 
L 85.776825 235.205314 
L 86.565332 226.823911 
L 87.353839 228.336531 
L 88.142346 228.138155 
L 88.930853 225.906421 
L 89.719359 212.441624 
L 91.296373 235.081328 
L 92.08488 238.230554 
L 92.873387 240.735055 
L 93.661894 245.074539 
L 94.4504 240.115129 
L 95.238907 234.436605 
L 96.027414 203.440295 
L 96.815921 211.697712 
L 97.604428 227.518229 
L 98.392935 216.781107 
L 99.181441 214.177417 
L 99.969948 217.475424 
L 100.758455 231.361771 
L 101.546962 233.46952 
L 102.335469 236.370775 
L 103.123976 240.511882 
L 103.912482 240.015941 
L 104.700989 246.24 
L 105.489496 237.486642 
L 106.278003 227.121476 
L 107.06651 205.696827 
L 107.855016 188.512472 
L 108.643523 148.812399 
L 109.43203 149.729889 
L 110.220537 150.176236 
L 111.009044 193.422288 
L 111.797551 224.691365 
L 112.586057 237.412251 
L 113.374564 240.412694 
L 114.163071 245.446494 
L 114.951578 246.24 
L 115.740085 246.24 
L 116.528592 234.783764 
L 117.317098 238.528118 
L 118.105605 241.553358 
L 118.894112 237.58583 
L 119.682619 236.767528 
L 120.471126 228.857269 
L 121.259633 216.657122 
L 122.048139 207.283838 
L 122.836646 192.777565 
L 123.625153 191.38893 
L 124.41366 183.726642 
L 125.202167 158.086494 
L 125.990674 165.674391 
L 126.77918 181.494908 
L 127.567687 192.504797 
L 128.356194 184.098598 
L 129.144701 211.077786 
L 129.933208 219.335203 
L 130.721715 222.63321 
L 131.510221 220.178303 
L 132.298728 225.931218 
L 133.087235 234.411808 
L 133.875742 236.221993 
L 134.664249 235.998819 
L 135.452756 240.387897 
L 136.241262 230.940221 
L 137.029769 217.103469 
L 137.818276 234.98214 
L 138.606783 228.857269 
L 139.39529 241.70214 
L 140.183797 241.429373 
L 140.972303 246.24 
L 141.76081 241.999705 
L 142.549317 240.735055 
L 143.337824 246.24 
L 144.126331 246.24 
L 144.914837 240.115129 
L 145.703344 241.70214 
L 146.491851 231.163395 
L 147.280358 240.015941 
L 148.068865 245.892841 
L 148.857372 222.509225 
L 149.645878 241.082214 
L 150.434385 239.048856 
L 151.222892 239.643985 
L 152.011399 244.082657 
L 152.799906 241.528561 
L 153.588413 235.726052 
L 154.376919 234.486199 
L 155.165426 238.42893 
L 155.953933 237.858598 
L 156.74244 232.13048 
L 157.530947 228.460517 
L 158.319454 216.08679 
L 159.10796 227.766199 
L 159.896467 232.824797 
L 160.684974 235.279705 
L 161.473481 239.09845 
L 162.261988 239.048856 
L 163.050495 226.352768 
L 163.839001 238.949668 
L 164.627508 246.066421 
L 165.416015 246.091218 
L 166.204522 240.387897 
L 166.993029 226.848708 
L 167.781536 207.358229 
L 168.570042 213.359114 
L 169.358549 211.300959 
L 170.147056 214.450185 
L 170.935563 79.430258 
L 173.301083 223.47631 
L 174.08959 225.608856 
L 174.878097 221.740517 
L 175.666604 240.536679 
L 176.455111 244.05786 
L 177.243618 246.24 
L 178.032124 239.024059 
L 178.820631 196.869077 
L 179.609138 146.481476 
L 180.397645 111.096089 
L 181.186152 94.03572 
L 181.974659 93.539779 
L 183.551672 190.000295 
L 184.340179 227.567823 
L 185.128686 231.510554 
L 185.917193 240.040738 
L 186.705699 243.760295 
L 187.494206 241.429373 
L 188.282713 242.54524 
L 189.07122 244.553801 
L 189.859727 213.607085 
L 190.648234 216.235572 
L 191.43674 194.637343 
L 192.225247 197.662583 
L 193.013754 230.518672 
L 193.802261 246.24 
L 194.590768 246.116015 
L 195.379275 240.139926 
L 196.167781 238.106568 
L 196.956288 244.975351 
L 197.744795 223.972251 
L 198.533302 238.453727 
L 199.321809 239.94155 
L 200.110316 238.453727 
L 200.898822 235.775646 
L 201.687329 240.338303 
L 202.475836 246.165609 
L 203.264343 243.388339 
L 204.05285 246.24 
L 204.841357 244.355424 
L 205.629863 238.230554 
L 206.41837 242.520443 
L 207.206877 230.642657 
L 207.995384 224.98893 
L 208.783891 207.135055 
L 209.572398 201.778893 
L 210.360904 187.495793 
L 211.149411 184.569742 
L 211.937918 174.799705 
L 212.726425 181.122952 
L 213.514932 222.459631 
L 214.303439 234.064649 
L 215.091945 234.808561 
L 215.880452 246.24 
L 216.668959 246.24 
L 217.457466 243.065978 
L 218.245973 240.809446 
L 219.03448 240.586273 
L 219.822986 246.24 
L 220.611493 246.24 
L 221.4 242.074096 
L 222.188507 246.24 
L 223.76552 246.24 
L 224.554027 244.380221 
L 225.342534 231.28738 
L 226.131041 227.443838 
L 226.919548 239.94155 
L 227.708055 236.395572 
L 228.496561 244.107454 
L 229.285068 243.289151 
L 230.073575 240.338303 
L 230.862082 238.602509 
L 231.650589 241.354982 
L 232.439096 242.148487 
L 233.227602 242.173284 
L 234.016109 246.24 
L 234.804616 246.24 
L 235.593123 239.396015 
L 236.38163 246.24 
L 237.170137 246.24 
L 237.958643 241.429373 
L 238.74715 224.56738 
L 239.535657 235.82524 
L 240.324164 233.667897 
L 241.112671 243.413137 
L 241.901178 244.454613 
L 242.689684 246.24 
L 243.478191 236.941107 
L 244.266698 244.47941 
L 245.055205 246.24 
L 245.843712 242.768413 
L 246.632219 242.396458 
L 247.420725 237.809004 
L 248.209232 224.666568 
L 248.997739 235.056531 
L 249.786246 241.677343 
L 250.574753 219.707159 
L 251.36326 230.692251 
L 252.940273 243.661107 
L 253.72878 244.652989 
L 254.517287 235.726052 
L 255.305794 237.139483 
L 256.094301 238.304945 
L 256.882807 234.535793 
L 257.671314 242.074096 
L 258.459821 234.585387 
L 259.248328 232.13048 
L 260.036835 211.524133 
L 260.825341 215.24369 
L 261.613848 230.345092 
L 262.402355 243.165166 
L 263.190862 240.412694 
L 263.979369 236.817122 
L 264.767876 232.403247 
L 265.556382 240.214317 
L 266.344889 239.172841 
L 267.133396 233.023173 
L 267.921903 238.478524 
L 268.71041 237.734613 
L 269.498917 231.460959 
L 270.287423 239.09845 
L 271.07593 230.568266 
L 271.864437 223.451513 
L 272.652944 109.161919 
L 274.229958 207.829373 
L 275.018464 224.418598 
L 275.806971 213.160738 
L 276.595478 217.252251 
L 277.383985 232.105683 
L 278.172492 231.857712 
L 278.960999 241.107011 
L 279.749505 229.501993 
L 281.326519 108.839557 
L 282.903533 50.144945 
L 283.69204 44.64 
L 284.480546 100.135793 
L 285.269053 165.798376 
L 286.05756 206.267159 
L 286.846067 210.606642 
L 287.634574 222.286052 
L 289.211587 237.139483 
L 290.000094 217.84738 
L 290.788601 213.185535 
L 291.577108 217.00428 
L 292.365615 198.480886 
L 293.154122 173.287085 
L 293.942628 200.861402 
L 294.731135 234.213432 
L 295.519642 241.429373 
L 296.308149 230.915424 
L 297.096656 241.230996 
L 297.885163 230.890627 
L 298.673669 231.808118 
L 299.462176 220.327085 
L 300.250683 206.217565 
L 301.03919 220.054317 
L 301.827697 231.857712 
L 302.616203 229.154834 
L 303.40471 227.146273 
L 304.193217 237.238672 
L 304.981724 238.701697 
L 305.770231 235.230111 
L 306.558738 235.676458 
L 308.135751 231.783321 
L 308.924258 230.816236 
L 310.501272 203.812251 
L 311.289779 209.763542 
L 312.078285 194.116605 
L 312.866792 171.377712 
L 313.655299 169.443542 
L 314.443806 184.148192 
L 315.232313 218.864059 
L 316.02082 226.377565 
L 316.809326 231.113801 
L 317.597833 241.206199 
L 318.38634 240.164723 
L 319.174847 241.478967 
L 319.963354 227.319852 
L 320.751861 237.089889 
L 321.540367 235.651661 
L 322.328874 238.304945 
L 323.117381 236.296384 
L 323.905888 227.369446 
L 324.694395 220.748635 
L 325.482902 209.589963 
L 326.271408 205.448856 
L 327.059915 206.16797 
L 328.636929 173.187897 
L 329.425436 178.469668 
L 330.213943 193.075129 
L 331.002449 199.2 
L 331.790956 189.529151 
L 332.579463 214.648561 
L 333.36797 228.311734 
L 334.156477 233.171956 
L 334.944984 228.088561 
L 335.73349 226.997491 
L 336.521997 225.112915 
L 337.310504 235.726052 
L 338.099011 227.096679 
L 338.887518 235.130923 
L 340.464531 210.631439 
L 341.253038 226.947897 
L 342.041545 222.558819 
L 342.830052 229.278819 
L 343.618559 229.080443 
L 344.407065 236.296384 
L 345.195572 231.014613 
L 345.984079 234.31262 
L 346.772586 239.94155 
L 347.561093 240.139926 
L 348.3496 230.791439 
L 349.138106 206.291956 
L 349.926613 201.506125 
L 350.71512 220.575055 
L 351.503627 230.270701 
L 352.292134 214.003838 
L 353.869147 236.296384 
L 354.657654 240.511882 
L 355.446161 231.237786 
L 356.234668 237.561033 
L 357.023175 228.038967 
L 357.811682 232.527232 
L 358.600188 238.056974 
L 359.388695 237.635424 
L 360.177202 228.733284 
L 360.965709 223.47631 
L 361.754216 209.094022 
L 363.331229 230.791439 
L 364.119736 235.081328 
L 364.908243 235.577269 
L 365.69675 231.882509 
L 366.485257 216.185978 
L 367.273764 237.114686 
L 368.06227 230.965018 
L 368.850777 223.848266 
L 369.639284 233.46952 
L 371.216298 220.87262 
L 372.004805 228.931661 
L 372.793311 230.543469 
L 373.581818 223.302731 
L 373.581818 223.302731 
" clip-path="url(#pad56c1f42e)" style="fill: none; stroke: #ff7f0e; stroke-width: 1.5; stroke-linecap: round"/>
   </g>
   <g id="patch_3">
    <path d="M 54 256.32 
L 54 34.56 
" style="fill: none; stroke: #ffffff; stroke-width: 0.8; stroke-linejoin: miter; stroke-linecap: square"/>
   </g>
   <g id="patch_4">
    <path d="M 388.8 256.32 
L 388.8 34.56 
" style="fill: none; stroke: #ffffff; stroke-width: 0.8; stroke-linejoin: miter; stroke-linecap: square"/>
   </g>
   <g id="patch_5">
    <path d="M 54 256.32 
L 388.8 256.32 
" style="fill: none; stroke: #ffffff; stroke-width: 0.8; stroke-linejoin: miter; stroke-linecap: square"/>
   </g>
   <g id="patch_6">
    <path d="M 54 34.56 
L 388.8 34.56 
" style="fill: none; stroke: #ffffff; stroke-width: 0.8; stroke-linejoin: miter; stroke-linecap: square"/>
   </g>
   <g id="text_21">
    <!-- Protein complex's vibration profile (asymmetric unit) -->
    <g style="fill: #262626" transform="translate(84.216563 28.56) scale(0.12 -0.12)">
     <defs>
      <path id="ArialMT-50" d="M 494 0 
L 494 4581 
L 2222 4581 
Q 2678 4581 2919 4538 
Q 3256 4481 3484 4323 
Q 3713 4166 3852 3881 
Q 3991 3597 3991 3256 
Q 3991 2672 3619 2267 
Q 3247 1863 2275 1863 
L 1100 1863 
L 1100 0 
L 494 0 
z
M 1100 2403 
L 2284 2403 
Q 2872 2403 3119 2622 
Q 3366 2841 3366 3238 
Q 3366 3525 3220 3729 
Q 3075 3934 2838 4000 
Q 2684 4041 2272 4041 
L 1100 4041 
L 1100 2403 
z
" transform="scale(0.015625)"/>
      <path id="ArialMT-70" d="M 422 -1272 
L 422 3319 
L 934 3319 
L 934 2888 
Q 1116 3141 1344 3267 
Q 1572 3394 1897 3394 
Q 2322 3394 2647 3175 
Q 2972 2956 3137 2557 
Q 3303 2159 3303 1684 
Q 3303 1175 3120 767 
Q 2938 359 2589 142 
Q 2241 -75 1856 -75 
Q 1575 -75 1351 44 
Q 1128 163 984 344 
L 984 -1272 
L 422 -1272 
z
M 931 1641 
Q 931 1000 1190 694 
Q 1450 388 1819 388 
Q 2194 388 2461 705 
Q 2728 1022 2728 1688 
Q 2728 2322 2467 2637 
Q 2206 2953 1844 2953 
Q 1484 2953 1207 2617 
Q 931 2281 931 1641 
z
" transform="scale(0.015625)"/>
      <path id="ArialMT-6c" d="M 409 0 
L 409 4581 
L 972 4581 
L 972 0 
L 409 0 
z
" transform="scale(0.015625)"/>
      <path id="ArialMT-78" d="M 47 0 
L 1259 1725 
L 138 3319 
L 841 3319 
L 1350 2541 
Q 1494 2319 1581 2169 
Q 1719 2375 1834 2534 
L 2394 3319 
L 3066 3319 
L 1919 1756 
L 3153 0 
L 2463 0 
L 1781 1031 
L 1600 1309 
L 728 0 
L 47 0 
z
" transform="scale(0.015625)"/>
      <path id="ArialMT-27" d="M 425 2959 
L 281 3816 
L 281 4581 
L 922 4581 
L 922 3816 
L 772 2959 
L 425 2959 
z
" transform="scale(0.015625)"/>
      <path id="ArialMT-76" d="M 1344 0 
L 81 3319 
L 675 3319 
L 1388 1331 
Q 1503 1009 1600 663 
Q 1675 925 1809 1294 
L 2547 3319 
L 3125 3319 
L 1869 0 
L 1344 0 
z
" transform="scale(0.015625)"/>
      <path id="ArialMT-79" d="M 397 -1278 
L 334 -750 
Q 519 -800 656 -800 
Q 844 -800 956 -737 
Q 1069 -675 1141 -563 
Q 1194 -478 1313 -144 
Q 1328 -97 1363 -6 
L 103 3319 
L 709 3319 
L 1400 1397 
Q 1534 1031 1641 628 
Q 1738 1016 1872 1384 
L 2581 3319 
L 3144 3319 
L 1881 -56 
Q 1678 -603 1566 -809 
Q 1416 -1088 1222 -1217 
Q 1028 -1347 759 -1347 
Q 597 -1347 397 -1278 
z
" transform="scale(0.015625)"/>
     </defs>
     <use xlink:href="#ArialMT-50"/>
     <use xlink:href="#ArialMT-72" x="66.699219"/>
     <use xlink:href="#ArialMT-6f" x="100"/>
     <use xlink:href="#ArialMT-74" x="155.615234"/>
     <use xlink:href="#ArialMT-65" x="183.398438"/>
     <use xlink:href="#ArialMT-69" x="239.013672"/>
     <use xlink:href="#ArialMT-6e" x="261.230469"/>
     <use xlink:href="#ArialMT-20" x="316.845703"/>
     <use xlink:href="#ArialMT-63" x="344.628906"/>
     <use xlink:href="#ArialMT-6f" x="394.628906"/>
     <use xlink:href="#ArialMT-6d" x="450.244141"/>
     <use xlink:href="#ArialMT-70" x="533.544922"/>
     <use xlink:href="#ArialMT-6c" x="589.160156"/>
     <use xlink:href="#ArialMT-65" x="611.376953"/>
     <use xlink:href="#ArialMT-78" x="666.992188"/>
     <use xlink:href="#ArialMT-27" x="716.992188"/>
     <use xlink:href="#ArialMT-73" x="736.083984"/>
     <use xlink:href="#ArialMT-20" x="786.083984"/>
     <use xlink:href="#ArialMT-76" x="813.867188"/>
     <use xlink:href="#ArialMT-69" x="863.867188"/>
     <use xlink:href="#ArialMT-62" x="886.083984"/>
     <use xlink:href="#ArialMT-72" x="941.699219"/>
     <use xlink:href="#ArialMT-61" x="975"/>
     <use xlink:href="#ArialMT-74" x="1030.615234"/>
     <use xlink:href="#ArialMT-69" x="1058.398438"/>
     <use xlink:href="#ArialMT-6f" x="1080.615234"/>
     <use xlink:href="#ArialMT-6e" x="1136.230469"/>
     <use xlink:href="#ArialMT-20" x="1191.845703"/>
     <use xlink:href="#ArialMT-70" x="1219.628906"/>
     <use xlink:href="#ArialMT-72" x="1275.244141"/>
     <use xlink:href="#ArialMT-6f" x="1308.544922"/>
     <use xlink:href="#ArialMT-66" x="1364.160156"/>
     <use xlink:href="#ArialMT-69" x="1391.943359"/>
     <use xlink:href="#ArialMT-6c" x="1414.160156"/>
     <use xlink:href="#ArialMT-65" x="1436.376953"/>
     <use xlink:href="#ArialMT-20" x="1491.992188"/>
     <use xlink:href="#ArialMT-28" x="1519.775391"/>
     <use xlink:href="#ArialMT-61" x="1553.076172"/>
     <use xlink:href="#ArialMT-73" x="1608.691406"/>
     <use xlink:href="#ArialMT-79" x="1658.691406"/>
     <use xlink:href="#ArialMT-6d" x="1708.691406"/>
     <use xlink:href="#ArialMT-6d" x="1791.992188"/>
     <use xlink:href="#ArialMT-65" x="1875.292969"/>
     <use xlink:href="#ArialMT-74" x="1930.908203"/>
     <use xlink:href="#ArialMT-72" x="1958.691406"/>
     <use xlink:href="#ArialMT-69" x="1991.992188"/>
     <use xlink:href="#ArialMT-63" x="2014.208984"/>
     <use xlink:href="#ArialMT-20" x="2064.208984"/>
     <use xlink:href="#ArialMT-75" x="2091.992188"/>
     <use xlink:href="#ArialMT-6e" x="2147.607422"/>
     <use xlink:href="#ArialMT-69" x="2203.222656"/>
     <use xlink:href="#ArialMT-74" x="2225.439453"/>
     <use xlink:href="#ArialMT-29" x="2253.222656"/>
    </g>
   </g>
   <g id="legend_1">
    <g id="line2d_21">
     <path d="M 293.44375 47.217813 
L 303.44375 47.217813 
L 313.44375 47.217813 
" style="fill: none; stroke: #1f77b4; stroke-width: 1.5; stroke-linecap: round"/>
    </g>
    <g id="text_22">
     <!-- Predicted -->
     <g style="fill: #262626" transform="translate(321.44375 50.717813) scale(0.1 -0.1)">
      <use xlink:href="#ArialMT-50"/>
      <use xlink:href="#ArialMT-72" x="66.699219"/>
      <use xlink:href="#ArialMT-65" x="100"/>
      <use xlink:href="#ArialMT-64" x="155.615234"/>
      <use xlink:href="#ArialMT-69" x="211.230469"/>
      <use xlink:href="#ArialMT-63" x="233.447266"/>
      <use xlink:href="#ArialMT-74" x="283.447266"/>
      <use xlink:href="#ArialMT-65" x="311.230469"/>
      <use xlink:href="#ArialMT-64" x="366.845703"/>
     </g>
    </g>
    <g id="line2d_22">
     <path d="M 293.44375 61.363125 
L 303.44375 61.363125 
L 313.44375 61.363125 
" style="fill: none; stroke: #ff7f0e; stroke-width: 1.5; stroke-linecap: round"/>
    </g>
    <g id="text_23">
     <!-- Experimental -->
     <g style="fill: #262626" transform="translate(321.44375 64.863125) scale(0.1 -0.1)">
      <defs>
       <path id="ArialMT-45" d="M 506 0 
L 506 4581 
L 3819 4581 
L 3819 4041 
L 1113 4041 
L 1113 2638 
L 3647 2638 
L 3647 2100 
L 1113 2100 
L 1113 541 
L 3925 541 
L 3925 0 
L 506 0 
z
" transform="scale(0.015625)"/>
      </defs>
      <use xlink:href="#ArialMT-45"/>
      <use xlink:href="#ArialMT-78" x="66.699219"/>
      <use xlink:href="#ArialMT-70" x="116.699219"/>
      <use xlink:href="#ArialMT-65" x="172.314453"/>
      <use xlink:href="#ArialMT-72" x="227.929688"/>
      <use xlink:href="#ArialMT-69" x="261.230469"/>
      <use xlink:href="#ArialMT-6d" x="283.447266"/>
      <use xlink:href="#ArialMT-65" x="366.748047"/>
      <use xlink:href="#ArialMT-6e" x="422.363281"/>
      <use xlink:href="#ArialMT-74" x="477.978516"/>
      <use xlink:href="#ArialMT-61" x="505.761719"/>
      <use xlink:href="#ArialMT-6c" x="561.376953"/>
     </g>
    </g>
   </g>
  </g>
 </g>
 <defs>
  <clipPath id="pad56c1f42e">
   <rect x="54" y="34.56" width="334.8" height="221.76"/>
  </clipPath>
 </defs>
</svg>
