<?xml version="1.0" encoding="utf-8" standalone="no"?>
<!DOCTYPE svg PUBLIC "-//W3C//DTD SVG 1.1//EN"
  "http://www.w3.org/Graphics/SVG/1.1/DTD/svg11.dtd">
<svg xmlns:xlink="http://www.w3.org/1999/xlink" width="432pt" height="288pt" viewBox="0 0 432 288" xmlns="http://www.w3.org/2000/svg" version="1.1">
 <metadata>
  <rdf:RDF xmlns:dc="http://purl.org/dc/elements/1.1/" xmlns:cc="http://creativecommons.org/ns#" xmlns:rdf="http://www.w3.org/1999/02/22-rdf-syntax-ns#">
   <cc:Work>
    <dc:type rdf:resource="http://purl.org/dc/dcmitype/StillImage"/>
    <dc:date>2023-09-04T14:14:01.836343</dc:date>
    <dc:format>image/svg+xml</dc:format>
    <dc:creator>
     <cc:Agent>
      <dc:title>Matplotlib v3.7.1, https://matplotlib.org/</dc:title>
     </cc:Agent>
    </dc:creator>
   </cc:Work>
  </rdf:RDF>
 </metadata>
 <defs>
  <style type="text/css">*{stroke-linejoin: round; stroke-linecap: butt}</style>
 </defs>
 <g id="figure_1">
  <g id="patch_1">
   <path d="M 0 288 
L 432 288 
L 432 0 
L 0 0 
z
" style="fill: #ffffff"/>
  </g>
  <g id="axes_1">
   <g id="patch_2">
    <path d="M 54 256.32 
L 388.8 256.32 
L 388.8 34.56 
L 54 34.56 
z
" style="fill: #eaeaf2"/>
   </g>
   <g id="matplotlib.axis_1">
    <g id="xtick_1">
     <g id="line2d_1">
      <path d="M 68.699675 256.32 
L 68.699675 34.56 
" clip-path="url(#pc7850a9661)" style="fill: none; stroke: #ffffff; stroke-width: 0.8; stroke-linecap: round"/>
     </g>
     <g id="text_1">
      <!-- 0 -->
      <g style="fill: #262626" transform="translate(65.919206 270.477813) scale(0.1 -0.1)">
       <defs>
        <path id="ArialMT-30" d="M 266 2259 
Q 266 3072 433 3567 
Q 600 4063 929 4331 
Q 1259 4600 1759 4600 
Q 2128 4600 2406 4451 
Q 2684 4303 2865 4023 
Q 3047 3744 3150 3342 
Q 3253 2941 3253 2259 
Q 3253 1453 3087 958 
Q 2922 463 2592 192 
Q 2263 -78 1759 -78 
Q 1097 -78 719 397 
Q 266 969 266 2259 
z
M 844 2259 
Q 844 1131 1108 757 
Q 1372 384 1759 384 
Q 2147 384 2411 759 
Q 2675 1134 2675 2259 
Q 2675 3391 2411 3762 
Q 2147 4134 1753 4134 
Q 1366 4134 1134 3806 
Q 844 3388 844 2259 
z
" transform="scale(0.015625)"/>
       </defs>
       <use xlink:href="#ArialMT-30"/>
      </g>
     </g>
    </g>
    <g id="xtick_2">
     <g id="line2d_2">
      <path d="M 120.550379 256.32 
L 120.550379 34.56 
" clip-path="url(#pc7850a9661)" style="fill: none; stroke: #ffffff; stroke-width: 0.8; stroke-linecap: round"/>
     </g>
     <g id="text_2">
      <!-- 100 -->
      <g style="fill: #262626" transform="translate(112.208973 270.477813) scale(0.1 -0.1)">
       <defs>
        <path id="ArialMT-31" d="M 2384 0 
L 1822 0 
L 1822 3584 
Q 1619 3391 1289 3197 
Q 959 3003 697 2906 
L 697 3450 
Q 1169 3672 1522 3987 
Q 1875 4303 2022 4600 
L 2384 4600 
L 2384 0 
z
" transform="scale(0.015625)"/>
       </defs>
       <use xlink:href="#ArialMT-31"/>
       <use xlink:href="#ArialMT-30" x="55.615234"/>
       <use xlink:href="#ArialMT-30" x="111.230469"/>
      </g>
     </g>
    </g>
    <g id="xtick_3">
     <g id="line2d_3">
      <path d="M 172.401084 256.32 
L 172.401084 34.56 
" clip-path="url(#pc7850a9661)" style="fill: none; stroke: #ffffff; stroke-width: 0.8; stroke-linecap: round"/>
     </g>
     <g id="text_3">
      <!-- 200 -->
      <g style="fill: #262626" transform="translate(164.059678 270.477813) scale(0.1 -0.1)">
       <defs>
        <path id="ArialMT-32" d="M 3222 541 
L 3222 0 
L 194 0 
Q 188 203 259 391 
Q 375 700 629 1000 
Q 884 1300 1366 1694 
Q 2113 2306 2375 2664 
Q 2638 3022 2638 3341 
Q 2638 3675 2398 3904 
Q 2159 4134 1775 4134 
Q 1369 4134 1125 3890 
Q 881 3647 878 3216 
L 300 3275 
Q 359 3922 746 4261 
Q 1134 4600 1788 4600 
Q 2447 4600 2831 4234 
Q 3216 3869 3216 3328 
Q 3216 3053 3103 2787 
Q 2991 2522 2730 2228 
Q 2469 1934 1863 1422 
Q 1356 997 1212 845 
Q 1069 694 975 541 
L 3222 541 
z
" transform="scale(0.015625)"/>
       </defs>
       <use xlink:href="#ArialMT-32"/>
       <use xlink:href="#ArialMT-30" x="55.615234"/>
       <use xlink:href="#ArialMT-30" x="111.230469"/>
      </g>
     </g>
    </g>
    <g id="xtick_4">
     <g id="line2d_4">
      <path d="M 224.251789 256.32 
L 224.251789 34.56 
" clip-path="url(#pc7850a9661)" style="fill: none; stroke: #ffffff; stroke-width: 0.8; stroke-linecap: round"/>
     </g>
     <g id="text_4">
      <!-- 300 -->
      <g style="fill: #262626" transform="translate(215.910383 270.477813) scale(0.1 -0.1)">
       <defs>
        <path id="ArialMT-33" d="M 269 1209 
L 831 1284 
Q 928 806 1161 595 
Q 1394 384 1728 384 
Q 2125 384 2398 659 
Q 2672 934 2672 1341 
Q 2672 1728 2419 1979 
Q 2166 2231 1775 2231 
Q 1616 2231 1378 2169 
L 1441 2663 
Q 1497 2656 1531 2656 
Q 1891 2656 2178 2843 
Q 2466 3031 2466 3422 
Q 2466 3731 2256 3934 
Q 2047 4138 1716 4138 
Q 1388 4138 1169 3931 
Q 950 3725 888 3313 
L 325 3413 
Q 428 3978 793 4289 
Q 1159 4600 1703 4600 
Q 2078 4600 2393 4439 
Q 2709 4278 2876 4000 
Q 3044 3722 3044 3409 
Q 3044 3113 2884 2869 
Q 2725 2625 2413 2481 
Q 2819 2388 3044 2092 
Q 3269 1797 3269 1353 
Q 3269 753 2831 336 
Q 2394 -81 1725 -81 
Q 1122 -81 723 278 
Q 325 638 269 1209 
z
" transform="scale(0.015625)"/>
       </defs>
       <use xlink:href="#ArialMT-33"/>
       <use xlink:href="#ArialMT-30" x="55.615234"/>
       <use xlink:href="#ArialMT-30" x="111.230469"/>
      </g>
     </g>
    </g>
    <g id="xtick_5">
     <g id="line2d_5">
      <path d="M 276.102493 256.32 
L 276.102493 34.56 
" clip-path="url(#pc7850a9661)" style="fill: none; stroke: #ffffff; stroke-width: 0.8; stroke-linecap: round"/>
     </g>
     <g id="text_5">
      <!-- 400 -->
      <g style="fill: #262626" transform="translate(267.761087 270.477813) scale(0.1 -0.1)">
       <defs>
        <path id="ArialMT-34" d="M 2069 0 
L 2069 1097 
L 81 1097 
L 81 1613 
L 2172 4581 
L 2631 4581 
L 2631 1613 
L 3250 1613 
L 3250 1097 
L 2631 1097 
L 2631 0 
L 2069 0 
z
M 2069 1613 
L 2069 3678 
L 634 1613 
L 2069 1613 
z
" transform="scale(0.015625)"/>
       </defs>
       <use xlink:href="#ArialMT-34"/>
       <use xlink:href="#ArialMT-30" x="55.615234"/>
       <use xlink:href="#ArialMT-30" x="111.230469"/>
      </g>
     </g>
    </g>
    <g id="xtick_6">
     <g id="line2d_6">
      <path d="M 327.953198 256.32 
L 327.953198 34.56 
" clip-path="url(#pc7850a9661)" style="fill: none; stroke: #ffffff; stroke-width: 0.8; stroke-linecap: round"/>
     </g>
     <g id="text_6">
      <!-- 500 -->
      <g style="fill: #262626" transform="translate(319.611792 270.477813) scale(0.1 -0.1)">
       <defs>
        <path id="ArialMT-35" d="M 266 1200 
L 856 1250 
Q 922 819 1161 601 
Q 1400 384 1738 384 
Q 2144 384 2425 690 
Q 2706 997 2706 1503 
Q 2706 1984 2436 2262 
Q 2166 2541 1728 2541 
Q 1456 2541 1237 2417 
Q 1019 2294 894 2097 
L 366 2166 
L 809 4519 
L 3088 4519 
L 3088 3981 
L 1259 3981 
L 1013 2750 
Q 1425 3038 1878 3038 
Q 2478 3038 2890 2622 
Q 3303 2206 3303 1553 
Q 3303 931 2941 478 
Q 2500 -78 1738 -78 
Q 1113 -78 717 272 
Q 322 622 266 1200 
z
" transform="scale(0.015625)"/>
       </defs>
       <use xlink:href="#ArialMT-35"/>
       <use xlink:href="#ArialMT-30" x="55.615234"/>
       <use xlink:href="#ArialMT-30" x="111.230469"/>
      </g>
     </g>
    </g>
    <g id="xtick_7">
     <g id="line2d_7">
      <path d="M 379.803903 256.32 
L 379.803903 34.56 
" clip-path="url(#pc7850a9661)" style="fill: none; stroke: #ffffff; stroke-width: 0.8; stroke-linecap: round"/>
     </g>
     <g id="text_7">
      <!-- 600 -->
      <g style="fill: #262626" transform="translate(371.462496 270.477813) scale(0.1 -0.1)">
       <defs>
        <path id="ArialMT-36" d="M 3184 3459 
L 2625 3416 
Q 2550 3747 2413 3897 
Q 2184 4138 1850 4138 
Q 1581 4138 1378 3988 
Q 1113 3794 959 3422 
Q 806 3050 800 2363 
Q 1003 2672 1297 2822 
Q 1591 2972 1913 2972 
Q 2475 2972 2870 2558 
Q 3266 2144 3266 1488 
Q 3266 1056 3080 686 
Q 2894 316 2569 119 
Q 2244 -78 1831 -78 
Q 1128 -78 684 439 
Q 241 956 241 2144 
Q 241 3472 731 4075 
Q 1159 4600 1884 4600 
Q 2425 4600 2770 4297 
Q 3116 3994 3184 3459 
z
M 888 1484 
Q 888 1194 1011 928 
Q 1134 663 1356 523 
Q 1578 384 1822 384 
Q 2178 384 2434 671 
Q 2691 959 2691 1453 
Q 2691 1928 2437 2201 
Q 2184 2475 1800 2475 
Q 1419 2475 1153 2201 
Q 888 1928 888 1484 
z
" transform="scale(0.015625)"/>
       </defs>
       <use xlink:href="#ArialMT-36"/>
       <use xlink:href="#ArialMT-30" x="55.615234"/>
       <use xlink:href="#ArialMT-30" x="111.230469"/>
      </g>
     </g>
    </g>
    <g id="text_8">
     <!-- Residue number -->
     <g style="fill: #262626" transform="translate(184.715625 283.623125) scale(0.1 -0.1)">
      <defs>
       <path id="ArialMT-52" d="M 503 0 
L 503 4581 
L 2534 4581 
Q 3147 4581 3465 4457 
Q 3784 4334 3975 4021 
Q 4166 3709 4166 3331 
Q 4166 2844 3850 2509 
Q 3534 2175 2875 2084 
Q 3116 1969 3241 1856 
Q 3506 1613 3744 1247 
L 4541 0 
L 3778 0 
L 3172 953 
Q 2906 1366 2734 1584 
Q 2563 1803 2427 1890 
Q 2291 1978 2150 2013 
Q 2047 2034 1813 2034 
L 1109 2034 
L 1109 0 
L 503 0 
z
M 1109 2559 
L 2413 2559 
Q 2828 2559 3062 2645 
Q 3297 2731 3419 2920 
Q 3541 3109 3541 3331 
Q 3541 3656 3305 3865 
Q 3069 4075 2559 4075 
L 1109 4075 
L 1109 2559 
z
" transform="scale(0.015625)"/>
       <path id="ArialMT-65" d="M 2694 1069 
L 3275 997 
Q 3138 488 2766 206 
Q 2394 -75 1816 -75 
Q 1088 -75 661 373 
Q 234 822 234 1631 
Q 234 2469 665 2931 
Q 1097 3394 1784 3394 
Q 2450 3394 2872 2941 
Q 3294 2488 3294 1666 
Q 3294 1616 3291 1516 
L 816 1516 
Q 847 969 1125 678 
Q 1403 388 1819 388 
Q 2128 388 2347 550 
Q 2566 713 2694 1069 
z
M 847 1978 
L 2700 1978 
Q 2663 2397 2488 2606 
Q 2219 2931 1791 2931 
Q 1403 2931 1139 2672 
Q 875 2413 847 1978 
z
" transform="scale(0.015625)"/>
       <path id="ArialMT-73" d="M 197 991 
L 753 1078 
Q 800 744 1014 566 
Q 1228 388 1613 388 
Q 2000 388 2187 545 
Q 2375 703 2375 916 
Q 2375 1106 2209 1216 
Q 2094 1291 1634 1406 
Q 1016 1563 777 1677 
Q 538 1791 414 1992 
Q 291 2194 291 2438 
Q 291 2659 392 2848 
Q 494 3038 669 3163 
Q 800 3259 1026 3326 
Q 1253 3394 1513 3394 
Q 1903 3394 2198 3281 
Q 2494 3169 2634 2976 
Q 2775 2784 2828 2463 
L 2278 2388 
Q 2241 2644 2061 2787 
Q 1881 2931 1553 2931 
Q 1166 2931 1000 2803 
Q 834 2675 834 2503 
Q 834 2394 903 2306 
Q 972 2216 1119 2156 
Q 1203 2125 1616 2013 
Q 2213 1853 2448 1751 
Q 2684 1650 2818 1456 
Q 2953 1263 2953 975 
Q 2953 694 2789 445 
Q 2625 197 2315 61 
Q 2006 -75 1616 -75 
Q 969 -75 630 194 
Q 291 463 197 991 
z
" transform="scale(0.015625)"/>
       <path id="ArialMT-69" d="M 425 3934 
L 425 4581 
L 988 4581 
L 988 3934 
L 425 3934 
z
M 425 0 
L 425 3319 
L 988 3319 
L 988 0 
L 425 0 
z
" transform="scale(0.015625)"/>
       <path id="ArialMT-64" d="M 2575 0 
L 2575 419 
Q 2259 -75 1647 -75 
Q 1250 -75 917 144 
Q 584 363 401 755 
Q 219 1147 219 1656 
Q 219 2153 384 2558 
Q 550 2963 881 3178 
Q 1213 3394 1622 3394 
Q 1922 3394 2156 3267 
Q 2391 3141 2538 2938 
L 2538 4581 
L 3097 4581 
L 3097 0 
L 2575 0 
z
M 797 1656 
Q 797 1019 1065 703 
Q 1334 388 1700 388 
Q 2069 388 2326 689 
Q 2584 991 2584 1609 
Q 2584 2291 2321 2609 
Q 2059 2928 1675 2928 
Q 1300 2928 1048 2622 
Q 797 2316 797 1656 
z
" transform="scale(0.015625)"/>
       <path id="ArialMT-75" d="M 2597 0 
L 2597 488 
Q 2209 -75 1544 -75 
Q 1250 -75 995 37 
Q 741 150 617 320 
Q 494 491 444 738 
Q 409 903 409 1263 
L 409 3319 
L 972 3319 
L 972 1478 
Q 972 1038 1006 884 
Q 1059 663 1231 536 
Q 1403 409 1656 409 
Q 1909 409 2131 539 
Q 2353 669 2445 892 
Q 2538 1116 2538 1541 
L 2538 3319 
L 3100 3319 
L 3100 0 
L 2597 0 
z
" transform="scale(0.015625)"/>
       <path id="ArialMT-20" transform="scale(0.015625)"/>
       <path id="ArialMT-6e" d="M 422 0 
L 422 3319 
L 928 3319 
L 928 2847 
Q 1294 3394 1984 3394 
Q 2284 3394 2536 3286 
Q 2788 3178 2913 3003 
Q 3038 2828 3088 2588 
Q 3119 2431 3119 2041 
L 3119 0 
L 2556 0 
L 2556 2019 
Q 2556 2363 2490 2533 
Q 2425 2703 2258 2804 
Q 2091 2906 1866 2906 
Q 1506 2906 1245 2678 
Q 984 2450 984 1813 
L 984 0 
L 422 0 
z
" transform="scale(0.015625)"/>
       <path id="ArialMT-6d" d="M 422 0 
L 422 3319 
L 925 3319 
L 925 2853 
Q 1081 3097 1340 3245 
Q 1600 3394 1931 3394 
Q 2300 3394 2536 3241 
Q 2772 3088 2869 2813 
Q 3263 3394 3894 3394 
Q 4388 3394 4653 3120 
Q 4919 2847 4919 2278 
L 4919 0 
L 4359 0 
L 4359 2091 
Q 4359 2428 4304 2576 
Q 4250 2725 4106 2815 
Q 3963 2906 3769 2906 
Q 3419 2906 3187 2673 
Q 2956 2441 2956 1928 
L 2956 0 
L 2394 0 
L 2394 2156 
Q 2394 2531 2256 2718 
Q 2119 2906 1806 2906 
Q 1569 2906 1367 2781 
Q 1166 2656 1075 2415 
Q 984 2175 984 1722 
L 984 0 
L 422 0 
z
" transform="scale(0.015625)"/>
       <path id="ArialMT-62" d="M 941 0 
L 419 0 
L 419 4581 
L 981 4581 
L 981 2947 
Q 1338 3394 1891 3394 
Q 2197 3394 2470 3270 
Q 2744 3147 2920 2923 
Q 3097 2700 3197 2384 
Q 3297 2069 3297 1709 
Q 3297 856 2875 390 
Q 2453 -75 1863 -75 
Q 1275 -75 941 416 
L 941 0 
z
M 934 1684 
Q 934 1088 1097 822 
Q 1363 388 1816 388 
Q 2184 388 2453 708 
Q 2722 1028 2722 1663 
Q 2722 2313 2464 2622 
Q 2206 2931 1841 2931 
Q 1472 2931 1203 2611 
Q 934 2291 934 1684 
z
" transform="scale(0.015625)"/>
       <path id="ArialMT-72" d="M 416 0 
L 416 3319 
L 922 3319 
L 922 2816 
Q 1116 3169 1280 3281 
Q 1444 3394 1641 3394 
Q 1925 3394 2219 3213 
L 2025 2691 
Q 1819 2813 1613 2813 
Q 1428 2813 1281 2702 
Q 1134 2591 1072 2394 
Q 978 2094 978 1738 
L 978 0 
L 416 0 
z
" transform="scale(0.015625)"/>
      </defs>
      <use xlink:href="#ArialMT-52"/>
      <use xlink:href="#ArialMT-65" x="72.216797"/>
      <use xlink:href="#ArialMT-73" x="127.832031"/>
      <use xlink:href="#ArialMT-69" x="177.832031"/>
      <use xlink:href="#ArialMT-64" x="200.048828"/>
      <use xlink:href="#ArialMT-75" x="255.664062"/>
      <use xlink:href="#ArialMT-65" x="311.279297"/>
      <use xlink:href="#ArialMT-20" x="366.894531"/>
      <use xlink:href="#ArialMT-6e" x="394.677734"/>
      <use xlink:href="#ArialMT-75" x="450.292969"/>
      <use xlink:href="#ArialMT-6d" x="505.908203"/>
      <use xlink:href="#ArialMT-62" x="589.208984"/>
      <use xlink:href="#ArialMT-65" x="644.824219"/>
      <use xlink:href="#ArialMT-72" x="700.439453"/>
     </g>
    </g>
   </g>
   <g id="matplotlib.axis_2">
    <g id="ytick_1">
     <g id="line2d_8">
      <path d="M 54 227.21562 
L 388.8 227.21562 
" clip-path="url(#pc7850a9661)" style="fill: none; stroke: #ffffff; stroke-width: 0.8; stroke-linecap: round"/>
     </g>
     <g id="text_9">
      <!-- 50 -->
      <g style="fill: #262626" transform="translate(35.878125 230.794527) scale(0.1 -0.1)">
       <use xlink:href="#ArialMT-35"/>
       <use xlink:href="#ArialMT-30" x="55.615234"/>
      </g>
     </g>
    </g>
    <g id="ytick_2">
     <g id="line2d_9">
      <path d="M 54 196.78635 
L 388.8 196.78635 
" clip-path="url(#pc7850a9661)" style="fill: none; stroke: #ffffff; stroke-width: 0.8; stroke-linecap: round"/>
     </g>
     <g id="text_10">
      <!-- 75 -->
      <g style="fill: #262626" transform="translate(35.878125 200.365257) scale(0.1 -0.1)">
       <defs>
        <path id="ArialMT-37" d="M 303 3981 
L 303 4522 
L 3269 4522 
L 3269 4084 
Q 2831 3619 2401 2847 
Q 1972 2075 1738 1259 
Q 1569 684 1522 0 
L 944 0 
Q 953 541 1156 1306 
Q 1359 2072 1739 2783 
Q 2119 3494 2547 3981 
L 303 3981 
z
" transform="scale(0.015625)"/>
       </defs>
       <use xlink:href="#ArialMT-37"/>
       <use xlink:href="#ArialMT-35" x="55.615234"/>
      </g>
     </g>
    </g>
    <g id="ytick_3">
     <g id="line2d_10">
      <path d="M 54 166.35708 
L 388.8 166.35708 
" clip-path="url(#pc7850a9661)" style="fill: none; stroke: #ffffff; stroke-width: 0.8; stroke-linecap: round"/>
     </g>
     <g id="text_11">
      <!-- 100 -->
      <g style="fill: #262626" transform="translate(30.317187 169.935986) scale(0.1 -0.1)">
       <use xlink:href="#ArialMT-31"/>
       <use xlink:href="#ArialMT-30" x="55.615234"/>
       <use xlink:href="#ArialMT-30" x="111.230469"/>
      </g>
     </g>
    </g>
    <g id="ytick_4">
     <g id="line2d_11">
      <path d="M 54 135.92781 
L 388.8 135.92781 
" clip-path="url(#pc7850a9661)" style="fill: none; stroke: #ffffff; stroke-width: 0.8; stroke-linecap: round"/>
     </g>
     <g id="text_12">
      <!-- 125 -->
      <g style="fill: #262626" transform="translate(30.317187 139.506716) scale(0.1 -0.1)">
       <use xlink:href="#ArialMT-31"/>
       <use xlink:href="#ArialMT-32" x="55.615234"/>
       <use xlink:href="#ArialMT-35" x="111.230469"/>
      </g>
     </g>
    </g>
    <g id="ytick_5">
     <g id="line2d_12">
      <path d="M 54 105.49854 
L 388.8 105.49854 
" clip-path="url(#pc7850a9661)" style="fill: none; stroke: #ffffff; stroke-width: 0.8; stroke-linecap: round"/>
     </g>
     <g id="text_13">
      <!-- 150 -->
      <g style="fill: #262626" transform="translate(30.317187 109.077446) scale(0.1 -0.1)">
       <use xlink:href="#ArialMT-31"/>
       <use xlink:href="#ArialMT-35" x="55.615234"/>
       <use xlink:href="#ArialMT-30" x="111.230469"/>
      </g>
     </g>
    </g>
    <g id="ytick_6">
     <g id="line2d_13">
      <path d="M 54 75.06927 
L 388.8 75.06927 
" clip-path="url(#pc7850a9661)" style="fill: none; stroke: #ffffff; stroke-width: 0.8; stroke-linecap: round"/>
     </g>
     <g id="text_14">
      <!-- 175 -->
      <g style="fill: #262626" transform="translate(30.317187 78.648176) scale(0.1 -0.1)">
       <use xlink:href="#ArialMT-31"/>
       <use xlink:href="#ArialMT-37" x="55.615234"/>
       <use xlink:href="#ArialMT-35" x="111.230469"/>
      </g>
     </g>
    </g>
    <g id="ytick_7">
     <g id="line2d_14">
      <path d="M 54 44.64 
L 388.8 44.64 
" clip-path="url(#pc7850a9661)" style="fill: none; stroke: #ffffff; stroke-width: 0.8; stroke-linecap: round"/>
     </g>
     <g id="text_15">
      <!-- 200 -->
      <g style="fill: #262626" transform="translate(30.317187 48.218906) scale(0.1 -0.1)">
       <use xlink:href="#ArialMT-32"/>
       <use xlink:href="#ArialMT-30" x="55.615234"/>
       <use xlink:href="#ArialMT-30" x="111.230469"/>
      </g>
     </g>
    </g>
    <g id="text_16">
     <!-- B-factor ($\AA^2$) -->
     <g style="fill: #262626" transform="translate(24.117188 173.94) rotate(-90) scale(0.1 -0.1)">
      <defs>
       <path id="ArialMT-42" d="M 469 0 
L 469 4581 
L 2188 4581 
Q 2713 4581 3030 4442 
Q 3347 4303 3526 4014 
Q 3706 3725 3706 3409 
Q 3706 3116 3547 2856 
Q 3388 2597 3066 2438 
Q 3481 2316 3704 2022 
Q 3928 1728 3928 1328 
Q 3928 1006 3792 729 
Q 3656 453 3456 303 
Q 3256 153 2954 76 
Q 2653 0 2216 0 
L 469 0 
z
M 1075 2656 
L 2066 2656 
Q 2469 2656 2644 2709 
Q 2875 2778 2992 2937 
Q 3109 3097 3109 3338 
Q 3109 3566 3000 3739 
Q 2891 3913 2687 3977 
Q 2484 4041 1991 4041 
L 1075 4041 
L 1075 2656 
z
M 1075 541 
L 2216 541 
Q 2509 541 2628 563 
Q 2838 600 2978 687 
Q 3119 775 3209 942 
Q 3300 1109 3300 1328 
Q 3300 1584 3169 1773 
Q 3038 1963 2805 2039 
Q 2572 2116 2134 2116 
L 1075 2116 
L 1075 541 
z
" transform="scale(0.015625)"/>
       <path id="ArialMT-2d" d="M 203 1375 
L 203 1941 
L 1931 1941 
L 1931 1375 
L 203 1375 
z
" transform="scale(0.015625)"/>
       <path id="ArialMT-66" d="M 556 0 
L 556 2881 
L 59 2881 
L 59 3319 
L 556 3319 
L 556 3672 
Q 556 4006 616 4169 
Q 697 4388 901 4523 
Q 1106 4659 1475 4659 
Q 1713 4659 2000 4603 
L 1916 4113 
Q 1741 4144 1584 4144 
Q 1328 4144 1222 4034 
Q 1116 3925 1116 3625 
L 1116 3319 
L 1763 3319 
L 1763 2881 
L 1116 2881 
L 1116 0 
L 556 0 
z
" transform="scale(0.015625)"/>
       <path id="ArialMT-61" d="M 2588 409 
Q 2275 144 1986 34 
Q 1697 -75 1366 -75 
Q 819 -75 525 192 
Q 231 459 231 875 
Q 231 1119 342 1320 
Q 453 1522 633 1644 
Q 813 1766 1038 1828 
Q 1203 1872 1538 1913 
Q 2219 1994 2541 2106 
Q 2544 2222 2544 2253 
Q 2544 2597 2384 2738 
Q 2169 2928 1744 2928 
Q 1347 2928 1158 2789 
Q 969 2650 878 2297 
L 328 2372 
Q 403 2725 575 2942 
Q 747 3159 1072 3276 
Q 1397 3394 1825 3394 
Q 2250 3394 2515 3294 
Q 2781 3194 2906 3042 
Q 3031 2891 3081 2659 
Q 3109 2516 3109 2141 
L 3109 1391 
Q 3109 606 3145 398 
Q 3181 191 3288 0 
L 2700 0 
Q 2613 175 2588 409 
z
M 2541 1666 
Q 2234 1541 1622 1453 
Q 1275 1403 1131 1340 
Q 988 1278 909 1158 
Q 831 1038 831 891 
Q 831 666 1001 516 
Q 1172 366 1500 366 
Q 1825 366 2078 508 
Q 2331 650 2450 897 
Q 2541 1088 2541 1459 
L 2541 1666 
z
" transform="scale(0.015625)"/>
       <path id="ArialMT-63" d="M 2588 1216 
L 3141 1144 
Q 3050 572 2676 248 
Q 2303 -75 1759 -75 
Q 1078 -75 664 370 
Q 250 816 250 1647 
Q 250 2184 428 2587 
Q 606 2991 970 3192 
Q 1334 3394 1763 3394 
Q 2303 3394 2647 3120 
Q 2991 2847 3088 2344 
L 2541 2259 
Q 2463 2594 2264 2762 
Q 2066 2931 1784 2931 
Q 1359 2931 1093 2626 
Q 828 2322 828 1663 
Q 828 994 1084 691 
Q 1341 388 1753 388 
Q 2084 388 2306 591 
Q 2528 794 2588 1216 
z
" transform="scale(0.015625)"/>
       <path id="ArialMT-74" d="M 1650 503 
L 1731 6 
Q 1494 -44 1306 -44 
Q 1000 -44 831 53 
Q 663 150 594 308 
Q 525 466 525 972 
L 525 2881 
L 113 2881 
L 113 3319 
L 525 3319 
L 525 4141 
L 1084 4478 
L 1084 3319 
L 1650 3319 
L 1650 2881 
L 1084 2881 
L 1084 941 
Q 1084 700 1114 631 
Q 1144 563 1211 522 
Q 1278 481 1403 481 
Q 1497 481 1650 503 
z
" transform="scale(0.015625)"/>
       <path id="ArialMT-6f" d="M 213 1659 
Q 213 2581 725 3025 
Q 1153 3394 1769 3394 
Q 2453 3394 2887 2945 
Q 3322 2497 3322 1706 
Q 3322 1066 3130 698 
Q 2938 331 2570 128 
Q 2203 -75 1769 -75 
Q 1072 -75 642 372 
Q 213 819 213 1659 
z
M 791 1659 
Q 791 1022 1069 705 
Q 1347 388 1769 388 
Q 2188 388 2466 706 
Q 2744 1025 2744 1678 
Q 2744 2294 2464 2611 
Q 2184 2928 1769 2928 
Q 1347 2928 1069 2612 
Q 791 2297 791 1659 
z
" transform="scale(0.015625)"/>
       <path id="ArialMT-28" d="M 1497 -1347 
Q 1031 -759 709 28 
Q 388 816 388 1659 
Q 388 2403 628 3084 
Q 909 3875 1497 4659 
L 1900 4659 
Q 1522 4009 1400 3731 
Q 1209 3300 1100 2831 
Q 966 2247 966 1656 
Q 966 153 1900 -1347 
L 1497 -1347 
z
" transform="scale(0.015625)"/>
       <path id="DejaVuSans-Oblique-c5" d="M 3188 5081 
Q 3188 5278 3048 5417 
Q 2909 5556 2713 5556 
Q 2513 5556 2377 5420 
Q 2241 5284 2241 5081 
Q 2241 4884 2377 4746 
Q 2513 4609 2713 4609 
Q 2909 4609 3048 4746 
Q 3188 4884 3188 5081 
z
M 2203 4397 
Q 2034 4513 1945 4689 
Q 1856 4866 1856 5081 
Q 1856 5438 2106 5689 
Q 2356 5941 2713 5941 
Q 3069 5941 3320 5689 
Q 3572 5438 3572 5081 
Q 3572 4834 3458 4643 
Q 3344 4453 3128 4341 
L 3938 0 
L 3278 0 
L 3084 1197 
L 984 1197 
L 325 0 
L -341 0 
L 2203 4397 
z
M 2584 4044 
L 1275 1722 
L 2988 1722 
L 2584 4044 
z
" transform="scale(0.015625)"/>
       <path id="DejaVuSans-32" d="M 1228 531 
L 3431 531 
L 3431 0 
L 469 0 
L 469 531 
Q 828 903 1448 1529 
Q 2069 2156 2228 2338 
Q 2531 2678 2651 2914 
Q 2772 3150 2772 3378 
Q 2772 3750 2511 3984 
Q 2250 4219 1831 4219 
Q 1534 4219 1204 4116 
Q 875 4013 500 3803 
L 500 4441 
Q 881 4594 1212 4672 
Q 1544 4750 1819 4750 
Q 2544 4750 2975 4387 
Q 3406 4025 3406 3419 
Q 3406 3131 3298 2873 
Q 3191 2616 2906 2266 
Q 2828 2175 2409 1742 
Q 1991 1309 1228 531 
z
" transform="scale(0.015625)"/>
       <path id="ArialMT-29" d="M 791 -1347 
L 388 -1347 
Q 1322 153 1322 1656 
Q 1322 2244 1188 2822 
Q 1081 3291 891 3722 
Q 769 4003 388 4659 
L 791 4659 
Q 1378 3875 1659 3084 
Q 1900 2403 1900 1659 
Q 1900 816 1576 28 
Q 1253 -759 791 -1347 
z
" transform="scale(0.015625)"/>
      </defs>
      <use xlink:href="#ArialMT-42" transform="translate(0 0.171875)"/>
      <use xlink:href="#ArialMT-2d" transform="translate(66.699219 0.171875)"/>
      <use xlink:href="#ArialMT-66" transform="translate(100 0.171875)"/>
      <use xlink:href="#ArialMT-61" transform="translate(127.783203 0.171875)"/>
      <use xlink:href="#ArialMT-63" transform="translate(183.398438 0.171875)"/>
      <use xlink:href="#ArialMT-74" transform="translate(233.398438 0.171875)"/>
      <use xlink:href="#ArialMT-6f" transform="translate(261.181641 0.171875)"/>
      <use xlink:href="#ArialMT-72" transform="translate(316.796875 0.171875)"/>
      <use xlink:href="#ArialMT-20" transform="translate(350.097656 0.171875)"/>
      <use xlink:href="#ArialMT-28" transform="translate(377.880859 0.171875)"/>
      <use xlink:href="#DejaVuSans-Oblique-c5" transform="translate(411.181641 0.171875)"/>
      <use xlink:href="#DejaVuSans-32" transform="translate(489.395677 38.453125) scale(0.7)"/>
      <use xlink:href="#ArialMT-29" transform="translate(536.666185 0.171875)"/>
     </g>
    </g>
   </g>
   <g id="PolyCollection_1"/>
   <g id="PolyCollection_2"/>
   <g id="line2d_15">
    <path d="M 69.218182 172.586272 
L 70.255196 176.703371 
L 70.773703 180.385988 
L 71.29221 176.814549 
L 71.810717 180.853012 
L 72.329224 180.40259 
L 72.847731 179.025115 
L 73.884745 180.475412 
L 74.921759 184.434404 
L 75.440266 184.993019 
L 75.958773 188.028087 
L 76.47728 188.747609 
L 76.995788 185.676949 
L 77.514295 186.653566 
L 78.032802 188.295897 
L 78.551309 184.83161 
L 79.069816 183.543018 
L 79.588323 177.427573 
L 80.10683 178.678804 
L 80.625337 180.360501 
L 81.143844 175.561439 
L 81.662351 176.561102 
L 82.180858 173.665883 
L 82.699365 173.787739 
L 83.217872 174.505897 
L 83.736379 176.429329 
L 84.254886 175.755699 
L 85.2919 177.675629 
L 85.810407 181.740563 
L 86.328914 178.619037 
L 86.847421 179.673293 
L 87.365928 182.746331 
L 87.884435 181.963137 
L 88.402943 180.118443 
L 88.92145 180.23012 
L 89.439957 178.178078 
L 89.958464 178.179864 
L 90.476971 177.729563 
L 90.995478 177.752192 
L 91.513985 177.355392 
L 92.032492 176.48294 
L 93.588013 168.771362 
L 94.10652 167.524377 
L 94.625027 167.647657 
L 95.143534 168.525939 
L 95.662041 167.777162 
L 96.699055 163.348045 
L 97.217562 163.397573 
L 97.736069 160.150108 
L 98.254576 157.967701 
L 98.773083 153.558001 
L 99.291591 147.388277 
L 99.810098 142.777172 
L 100.328605 139.861084 
L 100.847112 132.873018 
L 102.92114 113.372037 
L 103.958154 105.033259 
L 104.476661 102.859676 
L 104.995168 98.097904 
L 105.513675 95.19649 
L 107.587703 88.343321 
L 108.10621 89.544628 
L 108.624717 89.780149 
L 109.143224 94.192092 
L 109.661731 94.767033 
L 110.698746 99.111077 
L 111.217253 98.016851 
L 111.73576 104.55791 
L 112.254267 107.129185 
L 113.809788 118.865229 
L 114.328295 124.840891 
L 115.365309 133.043282 
L 115.883816 134.838428 
L 116.402323 138.817408 
L 116.92083 140.938871 
L 117.439337 145.432511 
L 117.957844 152.906748 
L 118.476351 154.107966 
L 118.994858 157.002415 
L 119.513365 166.046991 
L 120.031872 166.875684 
L 120.550379 163.948931 
L 121.068886 166.106156 
L 121.587394 168.980979 
L 122.105901 167.317984 
L 122.624408 168.710411 
L 123.142915 169.587027 
L 123.661422 168.610697 
L 124.179929 168.47645 
L 124.698436 169.31782 
L 125.216943 167.521711 
L 125.73545 168.459833 
L 126.253957 167.376504 
L 126.772464 167.357378 
L 127.290971 166.655088 
L 127.809478 167.361539 
L 128.327985 169.715348 
L 129.364999 172.240318 
L 129.883506 174.287338 
L 130.402013 175.556224 
L 130.92052 178.951183 
L 131.439027 178.360606 
L 132.476042 182.343168 
L 132.994549 182.253004 
L 133.513056 182.88141 
L 134.031563 182.459207 
L 135.587084 183.046033 
L 136.105591 182.623254 
L 136.624098 184.496796 
L 137.142605 183.830823 
L 137.661112 183.991278 
L 138.179619 186.474317 
L 138.698126 186.384817 
L 139.216633 189.055593 
L 139.73514 185.62888 
L 140.772154 176.693293 
L 141.290661 174.922938 
L 142.846182 161.603509 
L 143.364689 161.290763 
L 143.883197 159.593248 
L 144.401704 159.462966 
L 144.920211 152.890218 
L 145.438718 167.236324 
L 146.475732 172.571052 
L 146.994239 177.983936 
L 147.512746 173.715928 
L 148.031253 179.237301 
L 148.54976 178.315841 
L 149.068267 176.973082 
L 150.105281 178.643477 
L 150.623788 181.384925 
L 151.142295 183.243029 
L 152.697816 186.557319 
L 153.216323 185.746847 
L 153.73483 185.805397 
L 154.253337 185.627802 
L 154.771845 184.544975 
L 155.290352 182.928496 
L 155.808859 176.381363 
L 156.327366 177.362352 
L 156.845873 180.201752 
L 157.36438 173.550721 
L 157.882887 176.53953 
L 158.401394 173.236495 
L 158.919901 173.768938 
L 159.956915 177.151595 
L 160.475422 176.401074 
L 160.993929 177.960675 
L 161.512436 180.636472 
L 162.030943 182.454403 
L 162.54945 180.444692 
L 163.067957 182.133248 
L 163.586464 185.784746 
L 164.104971 182.757708 
L 164.623478 183.647732 
L 165.141985 184.030187 
L 165.660492 182.416373 
L 166.179 182.417278 
L 166.697507 181.673586 
L 167.216014 181.750748 
L 167.734521 180.829217 
L 168.253028 178.90147 
L 169.808549 170.70282 
L 170.327056 169.59182 
L 170.845563 169.316998 
L 171.36407 171.836686 
L 171.882577 169.587278 
L 172.919591 163.872089 
L 173.438098 163.611393 
L 173.956605 160.44147 
L 174.475112 158.11173 
L 174.993619 150.709442 
L 176.030633 141.172675 
L 176.54914 138.711445 
L 177.067648 129.888893 
L 180.17869 96.43441 
L 181.215704 87.637404 
L 181.734211 83.964171 
L 183.289732 77.101365 
L 183.808239 75.549388 
L 184.326746 77.49037 
L 184.845253 77.402908 
L 185.36376 88.331674 
L 185.882267 80.619129 
L 186.400774 85.616002 
L 186.919281 87.702745 
L 187.437788 85.148281 
L 187.956295 93.372821 
L 188.474803 96.120601 
L 188.99331 100.022016 
L 189.511817 105.91436 
L 190.030324 108.3322 
L 190.548831 114.654087 
L 191.585845 123.486511 
L 192.104352 125.20008 
L 192.622859 129.614513 
L 193.141366 132.110846 
L 193.659873 137.356428 
L 194.17838 146.009284 
L 194.696887 147.230236 
L 195.215394 151.082374 
L 195.733901 162.418944 
L 196.252408 159.795194 
L 196.770915 160.303329 
L 197.289422 164.697676 
L 197.807929 166.930976 
L 198.326436 165.535522 
L 198.844943 168.62567 
L 199.363451 169.431134 
L 199.881958 168.804022 
L 200.400465 169.523332 
L 200.918972 171.035768 
L 201.437479 168.554403 
L 201.955986 169.594887 
L 202.474493 169.672132 
L 202.993 170.259129 
L 203.511507 170.595077 
L 204.548521 171.891605 
L 205.585535 174.239813 
L 206.104042 175.459115 
L 207.141056 177.05976 
L 207.659563 179.40158 
L 208.17807 178.790651 
L 208.696577 181.34369 
L 209.215084 179.405582 
L 209.733591 181.033914 
L 210.252098 179.438442 
L 210.770606 179.655914 
L 211.289113 180.01925 
L 211.80762 179.28881 
L 212.844634 178.660927 
L 213.363141 180.966502 
L 213.881648 182.369427 
L 214.400155 188.724299 
L 214.918662 189.229241 
L 215.437169 185.997135 
L 215.955676 185.027923 
L 217.511197 169.372519 
L 218.029704 160.48601 
L 218.548211 160.796272 
L 219.066718 146.19907 
L 219.585225 143.359229 
L 220.103732 133.39944 
L 220.622239 128.661917 
L 221.140746 173.624007 
L 222.177761 179.174967 
L 222.696268 182.770645 
L 223.214775 181.024381 
L 223.733282 183.620631 
L 224.251789 183.1056 
L 224.770296 181.913177 
L 225.288803 182.318979 
L 225.80731 183.079167 
L 226.844324 186.775476 
L 227.362831 186.383306 
L 227.881338 186.891138 
L 228.399845 187.218913 
L 229.436859 186.576871 
L 229.955366 184.850653 
L 230.473873 185.581722 
L 230.99238 182.632859 
L 231.510887 178.477491 
L 232.029394 179.03302 
L 232.547902 182.222321 
L 233.066409 177.584585 
L 233.584916 180.848955 
L 234.62193 176.074343 
L 235.140437 179.772517 
L 235.658944 181.158469 
L 236.177451 180.699463 
L 236.695958 182.292454 
L 237.214465 184.960598 
L 237.732972 185.797693 
L 238.251479 185.461352 
L 238.769986 187.340872 
L 239.288493 189.818114 
L 239.807 189.056237 
L 240.325507 189.979906 
L 240.844014 190.569969 
L 241.362521 189.083396 
L 241.881028 189.084365 
L 242.399535 187.886981 
L 242.918042 188.038328 
L 243.436549 187.256019 
L 243.955057 185.303224 
L 244.473564 181.84163 
L 244.992071 177.117302 
L 246.029085 173.1179 
L 246.547592 172.462435 
L 247.066099 173.276496 
L 247.584606 173.602764 
L 248.62162 167.860238 
L 249.140127 168.22191 
L 250.177141 162.952414 
L 251.214155 152.200128 
L 251.732662 147.545978 
L 252.251169 144.730304 
L 252.769676 137.331233 
L 255.362212 112.153884 
L 255.880719 107.770085 
L 256.399226 104.847494 
L 256.917733 100.114886 
L 257.43624 96.813714 
L 257.954747 94.741598 
L 258.473254 93.193243 
L 259.510268 88.589393 
L 260.028775 92.461263 
L 260.547282 84.472657 
L 261.065789 88.848141 
L 261.584296 89.972499 
L 262.102803 92.909973 
L 262.62131 97.560852 
L 263.139817 96.358638 
L 264.695338 108.253449 
L 265.213845 111.326998 
L 265.732352 118.035541 
L 266.769367 126.482969 
L 267.287874 128.218303 
L 267.806381 133.040497 
L 268.324888 135.295789 
L 268.843395 139.153441 
L 269.361902 147.713742 
L 269.880409 153.196021 
L 270.398916 152.321905 
L 270.917423 155.620172 
L 271.43593 163.088333 
L 271.954437 163.07936 
L 272.472944 162.788714 
L 273.509958 169.208955 
L 274.028465 166.663501 
L 274.546972 169.779524 
L 275.065479 170.381572 
L 275.583986 167.312742 
L 276.102493 167.07745 
L 276.621 168.785939 
L 277.658015 162.499609 
L 278.176522 164.496963 
L 278.695029 165.00192 
L 279.213536 164.122565 
L 279.732043 160.756217 
L 280.25055 165.790933 
L 280.769057 169.649064 
L 281.287564 167.046432 
L 281.806071 167.398413 
L 282.324578 169.656644 
L 282.843085 170.609264 
L 283.361592 171.013365 
L 284.398606 175.350137 
L 284.917113 175.205775 
L 285.43562 177.878978 
L 285.954127 177.79447 
L 286.472634 178.246591 
L 286.991141 179.872076 
L 287.509648 179.974129 
L 288.028155 179.520035 
L 288.546663 179.342361 
L 289.06517 182.426541 
L 289.583677 182.712599 
L 290.102184 187.012175 
L 290.620691 184.250424 
L 291.139198 183.827232 
L 291.657705 183.853667 
L 292.176212 174.910695 
L 292.694719 176.23978 
L 293.731733 143.898095 
L 294.25024 131.695741 
L 294.768747 115.51102 
L 295.287254 77.998324 
L 296.324268 49.945565 
L 296.842775 49.946876 
L 297.361282 181.991223 
L 297.879789 184.53719 
L 298.398296 185.049533 
L 298.916803 187.052938 
L 299.435311 181.743599 
L 299.953818 186.864818 
L 300.472325 186.629343 
L 300.990832 185.304539 
L 301.509339 186.818965 
L 302.027846 186.617525 
L 302.546353 188.644986 
L 303.583367 189.405266 
L 304.101874 190.529636 
L 304.620381 191.249082 
L 305.138888 189.347378 
L 305.657395 188.812121 
L 306.175902 188.896888 
L 306.694409 187.859801 
L 307.731423 182.442451 
L 308.24993 181.930796 
L 308.768437 185.885375 
L 309.286944 179.472094 
L 309.805451 181.771799 
L 310.323958 176.274644 
L 310.842466 174.287887 
L 311.360973 176.397715 
L 311.87948 179.254278 
L 312.397987 177.835642 
L 312.916494 178.165147 
L 313.435001 179.590713 
L 313.953508 180.629243 
L 314.472015 181.170745 
L 314.990522 181.912212 
L 315.509029 186.492578 
L 316.027536 185.304667 
L 316.546043 183.327997 
L 317.06455 183.647625 
L 317.583057 181.916902 
L 318.101564 181.918919 
L 318.620071 181.800746 
L 319.138578 182.25588 
L 320.175592 181.220038 
L 321.731114 173.233536 
L 322.249621 171.687122 
L 323.286635 172.852677 
L 323.805142 170.257589 
L 324.323649 169.627254 
L 324.842156 167.229624 
L 325.360663 167.123234 
L 326.397677 162.550469 
L 331.06424 115.554949 
L 332.101254 107.039904 
L 332.619761 104.97551 
L 333.138269 100.067113 
L 333.656776 97.082073 
L 334.175283 95.292864 
L 334.69379 93.909205 
L 335.730804 89.750138 
L 336.249311 93.511918 
L 336.767818 86.659268 
L 337.286325 91.125039 
L 337.804832 92.671122 
L 338.323339 95.859797 
L 338.841846 100.008421 
L 339.360353 97.189709 
L 339.87886 104.065191 
L 341.434381 116.622133 
L 341.952888 122.349658 
L 342.989902 130.691628 
L 343.508409 132.464885 
L 344.026917 137.173232 
L 344.545424 139.400642 
L 345.063931 143.214813 
L 346.100945 157.30146 
L 346.619452 156.597098 
L 347.137959 159.84548 
L 347.656466 168.768106 
L 348.174973 167.316917 
L 348.69348 167.584337 
L 349.211987 169.935957 
L 349.730494 173.607026 
L 350.249001 173.565971 
L 350.767508 175.137488 
L 352.323029 180.984143 
L 352.841536 179.683237 
L 353.360043 179.9393 
L 353.87855 184.575161 
L 354.397057 182.616754 
L 354.915565 185.109432 
L 355.434072 184.971829 
L 355.952579 185.278476 
L 356.471086 185.391578 
L 356.989593 187.441749 
L 358.026607 188.126049 
L 358.545114 187.96117 
L 359.063621 188.236505 
L 360.100635 189.36104 
L 360.619142 189.494804 
L 361.137649 188.982695 
L 361.656156 190.232007 
L 362.69317 188.085606 
L 363.211677 188.442288 
L 363.730184 187.795524 
L 364.248691 188.029426 
L 364.767198 187.887917 
L 365.285705 190.195903 
L 365.804212 191.133313 
L 366.32272 194.548912 
L 366.841227 194.647153 
L 367.359734 195.003158 
L 367.878241 193.444747 
L 368.915255 188.838848 
L 369.433762 188.413646 
L 369.952269 186.225081 
L 370.470776 188.886049 
L 370.989283 181.511202 
L 371.50779 181.506616 
L 372.026297 175.614293 
L 372.544804 175.138201 
L 373.063311 171.995225 
L 373.581818 171.259303 
L 373.581818 171.259303 
" clip-path="url(#pc7850a9661)" style="fill: none; stroke: #1f77b4; stroke-width: 1.5; stroke-linecap: round"/>
   </g>
   <g id="line2d_16">
    <path d="M 69.218182 128.198776 
L 69.736689 123.196204 
L 70.255196 135.087962 
L 71.29221 219.474414 
L 71.810717 199.293722 
L 72.329224 57.834131 
L 72.847731 185.795298 
L 73.366238 182.38722 
L 73.884745 143.815077 
L 74.403252 144.557551 
L 74.921759 228.396276 
L 75.440266 189.568527 
L 75.958773 120.274994 
L 76.47728 221.945271 
L 76.995788 200.279631 
L 77.514295 110.598486 
L 78.032802 171.943894 
L 78.551309 164.007941 
L 79.069816 181.267423 
L 79.588323 176.130962 
L 80.10683 141.648513 
L 80.625337 164.604354 
L 81.143844 175.376316 
L 81.662351 181.596059 
L 82.180858 179.39298 
L 82.699365 240.056772 
L 83.217872 179.222576 
L 83.736379 196.798522 
L 84.254886 243.221416 
L 84.773393 221.056736 
L 85.2919 164.105314 
L 85.810407 163.78885 
L 86.328914 221.348857 
L 86.847421 123.512668 
L 87.884435 170.580663 
L 88.402943 176.909951 
L 88.92145 169.558239 
L 89.439957 107.506872 
L 89.958464 191.808122 
L 90.476971 211.124622 
L 90.995478 126.056555 
L 91.513985 194.571099 
L 92.032492 186.720348 
L 92.550999 171.895207 
L 93.069506 153.503757 
L 93.588013 148.075175 
L 94.10652 159.918247 
L 94.625027 184.602471 
L 95.143534 221.348857 
L 95.662041 196.311654 
L 96.180548 135.587002 
L 96.699055 148.415983 
L 97.217562 227.166934 
L 97.736069 208.958058 
L 98.254576 171.603086 
L 98.773083 172.941974 
L 99.291591 186.854237 
L 99.810098 131.399935 
L 100.328605 156.291078 
L 100.847112 196.847209 
L 101.365619 130.925238 
L 101.884126 187.37762 
L 102.402633 191.394284 
L 102.92114 94.251882 
L 103.958154 156.327593 
L 104.476661 120.822721 
L 104.995168 44.64 
L 105.513675 99.643949 
L 106.032182 44.64 
L 106.550689 92.085318 
L 107.069196 44.64 
L 107.587703 56.276153 
L 108.10621 44.64 
L 109.143224 44.64 
L 109.661731 44.99298 
L 110.180239 44.64 
L 110.698746 44.64 
L 111.217253 55.777113 
L 111.73576 44.64 
L 112.254267 44.64 
L 112.772774 79.134621 
L 113.291281 66.524731 
L 113.809788 44.64 
L 114.328295 133.554327 
L 114.846802 100.666372 
L 115.365309 126.153929 
L 115.883816 44.64 
L 116.402323 80.388306 
L 116.92083 137.291041 
L 117.439337 144.460178 
L 117.957844 191.455142 
L 118.476351 182.228988 
L 118.994858 213.948459 
L 119.513365 199.500641 
L 120.031872 178.261011 
L 121.068886 207.47311 
L 121.587394 204.588415 
L 122.105901 216.894012 
L 122.624408 219.510929 
L 123.142915 200.2066 
L 123.661422 165.176425 
L 124.179929 168.036776 
L 124.698436 199.366752 
L 125.216943 138.045687 
L 125.73545 147.198812 
L 126.253957 197.28539 
L 126.772464 233.824858 
L 127.290971 186.245651 
L 127.809478 182.557624 
L 128.327985 219.997798 
L 128.846492 216.468002 
L 129.364999 173.380156 
L 129.883506 195.739583 
L 130.402013 200.157913 
L 130.92052 201.289882 
L 131.439027 123.707415 
L 131.957534 193.609535 
L 132.476042 174.402579 
L 132.994549 194.595443 
L 133.513056 161.147589 
L 134.031563 147.770882 
L 134.55007 187.657569 
L 135.068577 173.477529 
L 135.587084 168.608846 
L 136.105591 182.995805 
L 136.624098 106.8496 
L 137.142605 172.12647 
L 137.661112 109.454345 
L 138.179619 156.668401 
L 138.698126 142.354472 
L 139.216633 96.101982 
L 139.73514 130.304481 
L 140.253647 100.93415 
L 140.772154 163.265466 
L 141.290661 149.280174 
L 141.809168 93.351176 
L 142.327675 55.387618 
L 142.846182 44.64 
L 143.364689 44.64 
L 143.883197 45.187727 
L 144.401704 44.64 
L 144.920211 44.64 
L 145.438718 121.845144 
L 145.957225 91.890571 
L 146.475732 140.662605 
L 146.994239 173.793994 
L 147.512746 195.617866 
L 148.031253 192.197616 
L 148.54976 72.07503 
L 149.068267 197.261047 
L 149.586774 178.699192 
L 150.105281 97.039203 
L 151.142295 209.177149 
L 151.660802 204.430183 
L 152.179309 155.037392 
L 152.697816 206.426343 
L 153.216323 198.040036 
L 153.73483 70.261445 
L 154.253337 88.835472 
L 154.771845 180.488433 
L 155.290352 181.011817 
L 155.808859 198.06438 
L 156.327366 171.663945 
L 156.845873 173.441014 
L 157.36438 146.61457 
L 157.882887 174.414751 
L 158.401394 143.815077 
L 158.919901 219.486586 
L 159.438408 166.064959 
L 159.956915 165.529404 
L 160.475422 218.926687 
L 160.993929 203.139982 
L 161.512436 130.340996 
L 162.030943 193.86514 
L 162.54945 206.000333 
L 163.067957 103.636269 
L 163.586464 189.410295 
L 164.104971 153.60113 
L 164.623478 193.633878 
L 165.141985 130.01236 
L 165.660492 113.750958 
L 166.179 199.646702 
L 166.697507 212.767803 
L 167.216014 120.895751 
L 167.734521 173.903539 
L 168.253028 181.949038 
L 168.771535 152.45699 
L 169.290042 156.351936 
L 169.808549 136.718971 
L 170.845563 146.395479 
L 171.36407 228.761427 
L 171.882577 192.331505 
L 172.401084 169.13223 
L 172.919591 204.284122 
L 173.438098 201.387256 
L 173.956605 196.421199 
L 174.475112 135.42877 
L 174.993619 202.653114 
L 175.512126 202.689629 
L 176.030633 148.635073 
L 176.54914 148.5377 
L 177.067648 213.595479 
L 177.586155 111.84 
L 178.104662 183.373128 
L 178.623169 185.637066 
L 179.141676 95.749002 
L 179.660183 117.098178 
L 180.17869 151.824061 
L 180.697197 116.659996 
L 181.215704 44.64 
L 181.734211 109.795153 
L 182.252718 45.333787 
L 182.771225 90.064814 
L 183.289732 44.64 
L 183.808239 53.087165 
L 184.326746 44.64 
L 185.36376 44.64 
L 185.882267 45.333787 
L 186.400774 46.429241 
L 186.919281 44.64 
L 187.437788 51.078834 
L 187.956295 44.64 
L 188.474803 44.64 
L 188.99331 85.037899 
L 189.511817 135.197508 
L 190.030324 44.64 
L 190.548831 108.41975 
L 191.067338 137.960485 
L 191.585845 154.611382 
L 192.104352 73.754726 
L 192.622859 91.963601 
L 193.141366 125.228879 
L 193.659873 145.312197 
L 194.17838 183.762623 
L 194.696887 181.328281 
L 195.215394 211.343713 
L 195.733901 204.685789 
L 196.770915 150.156537 
L 197.289422 212.147046 
L 198.326436 192.039384 
L 198.844943 177.092527 
L 199.363451 186.087419 
L 199.881958 176.776062 
L 200.918972 202.543568 
L 201.437479 144.557551 
L 201.955986 214.337953 
L 202.474493 191.613374 
L 202.993 230.295062 
L 203.511507 192.915747 
L 204.030014 200.63261 
L 204.548521 228.578852 
L 205.067028 226.960014 
L 205.585535 177.810657 
L 206.622549 224.586531 
L 207.141056 212.500025 
L 207.659563 169.120058 
L 208.17807 224.769107 
L 208.696577 157.143097 
L 209.215084 175.631922 
L 209.733591 200.303974 
L 210.252098 203.785082 
L 211.289113 149.353204 
L 211.80762 196.177765 
L 212.326127 173.465358 
L 212.844634 120.506256 
L 213.363141 185.856156 
L 213.881648 133.907307 
L 214.400155 170.045108 
L 214.918662 98.000768 
L 215.437169 114.554291 
L 216.474183 188.156609 
L 216.99269 180.476262 
L 217.511197 187.499337 
L 218.029704 45.552878 
L 218.548211 47.70727 
L 219.066718 44.64 
L 219.585225 44.64 
L 220.103732 66.390842 
L 220.622239 44.64 
L 221.140746 141.551139 
L 221.659254 108.249346 
L 222.177761 150.546032 
L 222.696268 152.809969 
L 223.214775 213.705024 
L 223.733282 217.173961 
L 224.251789 127.748422 
L 224.770296 196.080391 
L 225.288803 179.89202 
L 225.80731 114.90727 
L 226.325817 176.873436 
L 226.844324 203.882456 
L 227.362831 161.281478 
L 227.881338 139.871444 
L 228.399845 200.328317 
L 228.918352 217.928607 
L 229.436859 138.228263 
L 230.99238 212.31745 
L 231.510887 187.146358 
L 232.029394 183.519189 
L 232.547902 191.625546 
L 233.066409 178.601819 
L 233.584916 197.601855 
L 234.103423 191.016961 
L 234.62193 223.235472 
L 235.140437 163.046376 
L 236.177451 246.24 
L 236.695958 224.769107 
L 237.214465 174.171317 
L 237.732972 185.941358 
L 238.251479 205.696041 
L 238.769986 146.249419 
L 239.288493 163.606274 
L 239.807 190.79787 
L 240.325507 192.781858 
L 240.844014 186.769035 
L 241.362521 124.656809 
L 241.881028 197.455794 
L 242.399535 214.204064 
L 242.918042 125.411454 
L 243.436549 175.777982 
L 243.955057 199.220692 
L 244.992071 162.742083 
L 245.510578 124.693324 
L 246.029085 180.622322 
L 246.547592 176.04576 
L 247.066099 231.962586 
L 247.584606 217.23482 
L 248.103113 178.163637 
L 248.62162 181.656917 
L 249.140127 221.665321 
L 249.658634 223.539765 
L 250.177141 161.658801 
L 250.695648 204.028517 
L 251.214155 219.644818 
L 251.732662 153.686332 
L 252.251169 180.646665 
L 252.769676 221.190625 
L 253.288183 123.257062 
L 253.80669 194.254635 
L 254.325197 210.175229 
L 254.843705 137.266698 
L 255.362212 145.847752 
L 255.880719 159.114914 
L 256.399226 164.421779 
L 256.917733 83.382547 
L 257.43624 127.857968 
L 258.473254 122.575446 
L 258.991761 66.597761 
L 259.510268 138.082202 
L 260.028775 44.64 
L 260.547282 51.55353 
L 261.065789 128.697816 
L 261.584296 99.619605 
L 262.102803 114.590806 
L 262.62131 120.968781 
L 263.139817 124.888071 
L 263.658324 111.754798 
L 264.176831 73.876443 
L 264.695338 142.549219 
L 265.213845 151.251991 
L 265.732352 57.030799 
L 266.25086 122.709335 
L 266.769367 166.089303 
L 267.287874 152.055323 
L 267.806381 94.142337 
L 268.324888 163.009861 
L 268.843395 161.817033 
L 269.361902 148.452498 
L 269.880409 170.446774 
L 270.398916 167.501221 
L 270.917423 220.362949 
L 271.43593 217.052244 
L 271.954437 157.44739 
L 272.472944 186.209136 
L 272.991451 230.051628 
L 273.509958 193.999029 
L 274.028465 200.109227 
L 274.546972 199.938823 
L 275.065479 216.967042 
L 275.583986 147.478761 
L 276.102493 212.853005 
L 276.621 223.186785 
L 277.139508 179.624242 
L 277.658015 196.433371 
L 278.176522 172.187328 
L 278.695029 238.535309 
L 279.213536 190.44489 
L 279.732043 190.384032 
L 280.25055 222.906836 
L 280.769057 215.88376 
L 281.287564 151.714515 
L 281.806071 210.418663 
L 282.324578 202.908719 
L 282.843085 197.528824 
L 283.361592 114.140453 
L 283.880099 188.704336 
L 284.398606 167.28213 
L 285.43562 201.350741 
L 285.954127 174.536468 
L 286.472634 187.52368 
L 286.991141 183.786966 
L 287.509648 209.420583 
L 288.028155 181.949038 
L 288.546663 162.924659 
L 289.06517 164.117486 
L 289.583677 163.691476 
L 290.102184 174.000913 
L 290.620691 123.439638 
L 291.139198 143.69336 
L 291.657705 137.717051 
L 292.176212 180.573635 
L 292.694719 199.683217 
L 293.213226 171.578743 
L 293.731733 164.738243 
L 294.25024 82.883507 
L 294.768747 45.577222 
L 295.287254 44.64 
L 296.324268 44.64 
L 296.842775 45.504191 
L 297.361282 148.25775 
L 297.879789 100.702887 
L 298.398296 151.884919 
L 298.916803 167.294302 
L 299.435311 198.879884 
L 299.953818 188.132266 
L 300.472325 133.420438 
L 300.990832 191.808122 
L 301.509339 186.5256 
L 302.027846 136.037356 
L 303.06486 204.381496 
L 303.583367 181.851665 
L 304.101874 114.627321 
L 304.620381 174.073943 
L 305.138888 209.82225 
L 305.657395 90.539511 
L 306.175902 87.18012 
L 306.694409 188.984285 
L 307.731423 168.474957 
L 308.24993 187.073327 
L 308.768437 199.366752 
L 309.286944 200.656953 
L 309.805451 195.508321 
L 310.323958 168.109806 
L 310.842466 228.225872 
L 311.360973 167.416019 
L 311.87948 167.2091 
L 312.397987 232.778091 
L 312.916494 208.337301 
L 313.435001 141.319877 
L 313.953508 166.734403 
L 314.472015 208.446847 
L 314.990522 115.381967 
L 315.509029 162.2187 
L 316.027536 178.492273 
L 316.546043 208.142554 
L 317.583057 108.091114 
L 318.101564 190.615294 
L 318.620071 220.350777 
L 319.138578 111.158384 
L 319.657085 194.266807 
L 320.175592 171.189248 
L 320.694099 160.210368 
L 321.212606 190.761355 
L 321.731114 135.270538 
L 322.249621 180.366716 
L 322.768128 186.781206 
L 323.286635 236.575664 
L 323.805142 193.755595 
L 324.323649 199.890136 
L 325.360663 222.444311 
L 325.87917 202.847861 
L 326.397677 118.631813 
L 326.916184 183.3853 
L 327.434691 203.322558 
L 327.953198 140.565231 
L 328.471705 182.703684 
L 328.990212 213.047752 
L 329.508719 137.510132 
L 330.027226 209.639674 
L 330.545733 211.952298 
L 331.06424 136.901547 
L 331.582747 132.665792 
L 332.101254 163.727991 
L 332.619761 168.888796 
L 333.138269 62.069886 
L 333.656776 113.166716 
L 334.175283 133.955993 
L 334.69379 138.483869 
L 335.212297 50.713682 
L 335.730804 156.704916 
L 336.249311 62.605441 
L 336.767818 63.420945 
L 337.286325 123.622213 
L 337.804832 91.160268 
L 338.323339 124.498576 
L 338.841846 120.494084 
L 339.360353 118.850904 
L 339.87886 107.713791 
L 340.397367 59.854635 
L 340.915874 129.951502 
L 341.434381 164.300062 
L 341.952888 57.456809 
L 342.989902 176.788234 
L 343.508409 113.458837 
L 344.026917 118.948277 
L 344.545424 174.889448 
L 345.063931 170.70238 
L 345.582438 144.715783 
L 346.100945 192.29499 
L 346.619452 165.188596 
L 347.137959 222.663402 
L 347.656466 177.530708 
L 348.174973 168.182836 
L 349.211987 210.418663 
L 349.730494 200.364832 
L 350.249001 192.757515 
L 350.767508 201.642862 
L 351.286015 182.898431 
L 351.804522 183.88434 
L 352.323029 164.884304 
L 352.841536 195.544836 
L 353.360043 152.712596 
L 353.87855 154.891331 
L 354.397057 214.021489 
L 354.915565 227.154762 
L 355.434072 146.638913 
L 355.952579 220.034313 
L 356.471086 218.902344 
L 356.989593 234.263039 
L 357.5081 149.146285 
L 358.026607 226.558348 
L 358.545114 197.954834 
L 359.063621 182.192472 
L 359.582128 101.00718 
L 360.100635 171.712632 
L 360.619142 127.784938 
L 361.137649 170.239855 
L 361.656156 174.305206 
L 362.174663 154.514008 
L 362.69317 190.858728 
L 363.211677 175.059851 
L 363.730184 194.778018 
L 364.248691 193.889484 
L 364.767198 167.050868 
L 365.285705 213.035581 
L 365.804212 165.748495 
L 366.32272 190.566607 
L 366.841227 139.42109 
L 367.359734 174.706872 
L 367.878241 147.953458 
L 368.396748 215.640326 
L 368.915255 194.388524 
L 369.433762 197.078471 
L 369.952269 144.934874 
L 370.470776 126.640797 
L 370.989283 44.64 
L 373.581818 44.64 
L 373.581818 44.64 
" clip-path="url(#pc7850a9661)" style="fill: none; stroke: #ff7f0e; stroke-width: 1.5; stroke-linecap: round"/>
   </g>
   <g id="patch_3">
    <path d="M 54 256.32 
L 54 34.56 
" style="fill: none; stroke: #ffffff; stroke-width: 0.8; stroke-linejoin: miter; stroke-linecap: square"/>
   </g>
   <g id="patch_4">
    <path d="M 388.8 256.32 
L 388.8 34.56 
" style="fill: none; stroke: #ffffff; stroke-width: 0.8; stroke-linejoin: miter; stroke-linecap: square"/>
   </g>
   <g id="patch_5">
    <path d="M 54 256.32 
L 388.8 256.32 
" style="fill: none; stroke: #ffffff; stroke-width: 0.8; stroke-linejoin: miter; stroke-linecap: square"/>
   </g>
   <g id="patch_6">
    <path d="M 54 34.56 
L 388.8 34.56 
" style="fill: none; stroke: #ffffff; stroke-width: 0.8; stroke-linejoin: miter; stroke-linecap: square"/>
   </g>
   <g id="text_17">
    <!-- Protein complex's vibration profile (asymmetric unit) -->
    <g style="fill: #262626" transform="translate(84.216563 28.56) scale(0.12 -0.12)">
     <defs>
      <path id="ArialMT-50" d="M 494 0 
L 494 4581 
L 2222 4581 
Q 2678 4581 2919 4538 
Q 3256 4481 3484 4323 
Q 3713 4166 3852 3881 
Q 3991 3597 3991 3256 
Q 3991 2672 3619 2267 
Q 3247 1863 2275 1863 
L 1100 1863 
L 1100 0 
L 494 0 
z
M 1100 2403 
L 2284 2403 
Q 2872 2403 3119 2622 
Q 3366 2841 3366 3238 
Q 3366 3525 3220 3729 
Q 3075 3934 2838 4000 
Q 2684 4041 2272 4041 
L 1100 4041 
L 1100 2403 
z
" transform="scale(0.015625)"/>
      <path id="ArialMT-70" d="M 422 -1272 
L 422 3319 
L 934 3319 
L 934 2888 
Q 1116 3141 1344 3267 
Q 1572 3394 1897 3394 
Q 2322 3394 2647 3175 
Q 2972 2956 3137 2557 
Q 3303 2159 3303 1684 
Q 3303 1175 3120 767 
Q 2938 359 2589 142 
Q 2241 -75 1856 -75 
Q 1575 -75 1351 44 
Q 1128 163 984 344 
L 984 -1272 
L 422 -1272 
z
M 931 1641 
Q 931 1000 1190 694 
Q 1450 388 1819 388 
Q 2194 388 2461 705 
Q 2728 1022 2728 1688 
Q 2728 2322 2467 2637 
Q 2206 2953 1844 2953 
Q 1484 2953 1207 2617 
Q 931 2281 931 1641 
z
" transform="scale(0.015625)"/>
      <path id="ArialMT-6c" d="M 409 0 
L 409 4581 
L 972 4581 
L 972 0 
L 409 0 
z
" transform="scale(0.015625)"/>
      <path id="ArialMT-78" d="M 47 0 
L 1259 1725 
L 138 3319 
L 841 3319 
L 1350 2541 
Q 1494 2319 1581 2169 
Q 1719 2375 1834 2534 
L 2394 3319 
L 3066 3319 
L 1919 1756 
L 3153 0 
L 2463 0 
L 1781 1031 
L 1600 1309 
L 728 0 
L 47 0 
z
" transform="scale(0.015625)"/>
      <path id="ArialMT-27" d="M 425 2959 
L 281 3816 
L 281 4581 
L 922 4581 
L 922 3816 
L 772 2959 
L 425 2959 
z
" transform="scale(0.015625)"/>
      <path id="ArialMT-76" d="M 1344 0 
L 81 3319 
L 675 3319 
L 1388 1331 
Q 1503 1009 1600 663 
Q 1675 925 1809 1294 
L 2547 3319 
L 3125 3319 
L 1869 0 
L 1344 0 
z
" transform="scale(0.015625)"/>
      <path id="ArialMT-79" d="M 397 -1278 
L 334 -750 
Q 519 -800 656 -800 
Q 844 -800 956 -737 
Q 1069 -675 1141 -563 
Q 1194 -478 1313 -144 
Q 1328 -97 1363 -6 
L 103 3319 
L 709 3319 
L 1400 1397 
Q 1534 1031 1641 628 
Q 1738 1016 1872 1384 
L 2581 3319 
L 3144 3319 
L 1881 -56 
Q 1678 -603 1566 -809 
Q 1416 -1088 1222 -1217 
Q 1028 -1347 759 -1347 
Q 597 -1347 397 -1278 
z
" transform="scale(0.015625)"/>
     </defs>
     <use xlink:href="#ArialMT-50"/>
     <use xlink:href="#ArialMT-72" x="66.699219"/>
     <use xlink:href="#ArialMT-6f" x="100"/>
     <use xlink:href="#ArialMT-74" x="155.615234"/>
     <use xlink:href="#ArialMT-65" x="183.398438"/>
     <use xlink:href="#ArialMT-69" x="239.013672"/>
     <use xlink:href="#ArialMT-6e" x="261.230469"/>
     <use xlink:href="#ArialMT-20" x="316.845703"/>
     <use xlink:href="#ArialMT-63" x="344.628906"/>
     <use xlink:href="#ArialMT-6f" x="394.628906"/>
     <use xlink:href="#ArialMT-6d" x="450.244141"/>
     <use xlink:href="#ArialMT-70" x="533.544922"/>
     <use xlink:href="#ArialMT-6c" x="589.160156"/>
     <use xlink:href="#ArialMT-65" x="611.376953"/>
     <use xlink:href="#ArialMT-78" x="666.992188"/>
     <use xlink:href="#ArialMT-27" x="716.992188"/>
     <use xlink:href="#ArialMT-73" x="736.083984"/>
     <use xlink:href="#ArialMT-20" x="786.083984"/>
     <use xlink:href="#ArialMT-76" x="813.867188"/>
     <use xlink:href="#ArialMT-69" x="863.867188"/>
     <use xlink:href="#ArialMT-62" x="886.083984"/>
     <use xlink:href="#ArialMT-72" x="941.699219"/>
     <use xlink:href="#ArialMT-61" x="975"/>
     <use xlink:href="#ArialMT-74" x="1030.615234"/>
     <use xlink:href="#ArialMT-69" x="1058.398438"/>
     <use xlink:href="#ArialMT-6f" x="1080.615234"/>
     <use xlink:href="#ArialMT-6e" x="1136.230469"/>
     <use xlink:href="#ArialMT-20" x="1191.845703"/>
     <use xlink:href="#ArialMT-70" x="1219.628906"/>
     <use xlink:href="#ArialMT-72" x="1275.244141"/>
     <use xlink:href="#ArialMT-6f" x="1308.544922"/>
     <use xlink:href="#ArialMT-66" x="1364.160156"/>
     <use xlink:href="#ArialMT-69" x="1391.943359"/>
     <use xlink:href="#ArialMT-6c" x="1414.160156"/>
     <use xlink:href="#ArialMT-65" x="1436.376953"/>
     <use xlink:href="#ArialMT-20" x="1491.992188"/>
     <use xlink:href="#ArialMT-28" x="1519.775391"/>
     <use xlink:href="#ArialMT-61" x="1553.076172"/>
     <use xlink:href="#ArialMT-73" x="1608.691406"/>
     <use xlink:href="#ArialMT-79" x="1658.691406"/>
     <use xlink:href="#ArialMT-6d" x="1708.691406"/>
     <use xlink:href="#ArialMT-6d" x="1791.992188"/>
     <use xlink:href="#ArialMT-65" x="1875.292969"/>
     <use xlink:href="#ArialMT-74" x="1930.908203"/>
     <use xlink:href="#ArialMT-72" x="1958.691406"/>
     <use xlink:href="#ArialMT-69" x="1991.992188"/>
     <use xlink:href="#ArialMT-63" x="2014.208984"/>
     <use xlink:href="#ArialMT-20" x="2064.208984"/>
     <use xlink:href="#ArialMT-75" x="2091.992188"/>
     <use xlink:href="#ArialMT-6e" x="2147.607422"/>
     <use xlink:href="#ArialMT-69" x="2203.222656"/>
     <use xlink:href="#ArialMT-74" x="2225.439453"/>
     <use xlink:href="#ArialMT-29" x="2253.222656"/>
    </g>
   </g>
   <g id="legend_1">
    <g id="line2d_17">
     <path d="M 63 227.687187 
L 73 227.687187 
L 83 227.687187 
" style="fill: none; stroke: #1f77b4; stroke-width: 1.5; stroke-linecap: round"/>
    </g>
    <g id="text_18">
     <!-- Predicted -->
     <g style="fill: #262626" transform="translate(91 231.187187) scale(0.1 -0.1)">
      <use xlink:href="#ArialMT-50"/>
      <use xlink:href="#ArialMT-72" x="66.699219"/>
      <use xlink:href="#ArialMT-65" x="100"/>
      <use xlink:href="#ArialMT-64" x="155.615234"/>
      <use xlink:href="#ArialMT-69" x="211.230469"/>
      <use xlink:href="#ArialMT-63" x="233.447266"/>
      <use xlink:href="#ArialMT-74" x="283.447266"/>
      <use xlink:href="#ArialMT-65" x="311.230469"/>
      <use xlink:href="#ArialMT-64" x="366.845703"/>
     </g>
    </g>
    <g id="line2d_18">
     <path d="M 63 241.8325 
L 73 241.8325 
L 83 241.8325 
" style="fill: none; stroke: #ff7f0e; stroke-width: 1.5; stroke-linecap: round"/>
    </g>
    <g id="text_19">
     <!-- Experimental -->
     <g style="fill: #262626" transform="translate(91 245.3325) scale(0.1 -0.1)">
      <defs>
       <path id="ArialMT-45" d="M 506 0 
L 506 4581 
L 3819 4581 
L 3819 4041 
L 1113 4041 
L 1113 2638 
L 3647 2638 
L 3647 2100 
L 1113 2100 
L 1113 541 
L 3925 541 
L 3925 0 
L 506 0 
z
" transform="scale(0.015625)"/>
      </defs>
      <use xlink:href="#ArialMT-45"/>
      <use xlink:href="#ArialMT-78" x="66.699219"/>
      <use xlink:href="#ArialMT-70" x="116.699219"/>
      <use xlink:href="#ArialMT-65" x="172.314453"/>
      <use xlink:href="#ArialMT-72" x="227.929688"/>
      <use xlink:href="#ArialMT-69" x="261.230469"/>
      <use xlink:href="#ArialMT-6d" x="283.447266"/>
      <use xlink:href="#ArialMT-65" x="366.748047"/>
      <use xlink:href="#ArialMT-6e" x="422.363281"/>
      <use xlink:href="#ArialMT-74" x="477.978516"/>
      <use xlink:href="#ArialMT-61" x="505.761719"/>
      <use xlink:href="#ArialMT-6c" x="561.376953"/>
     </g>
    </g>
   </g>
  </g>
 </g>
 <defs>
  <clipPath id="pc7850a9661">
   <rect x="54" y="34.56" width="334.8" height="221.76"/>
  </clipPath>
 </defs>
</svg>
